  0
SECTION
  2
HEADER
  9
$ACADVER
  1
AC1015
  9
$ACADMAINTVER
 70
     6
  9
$DWGCODEPAGE
  3
ANSI_1252
  9
$INSBASE
 10
0.0
 20
0.0
 30
0.0
  9
$EXTMIN
 10
-0.9725
 20
2.445
 30
0.0
  9
$EXTMAX
 10
0.9725
 20
3.52
 30
0.0
  9
$LIMMIN
 10
0.0
 20
0.0
  9
$LIMMAX
 10
12.0
 20
9.0
  9
$ORTHOMODE
 70
     0
  9
$REGENMODE
 70
     1
  9
$FILLMODE
 70
     1
  9
$QTEXTMODE
 70
     0
  9
$MIRRTEXT
 70
     1
  9
$LTSCALE
 40
1.0
  9
$ATTMODE
 70
     1
  9
$TEXTSIZE
 40
0.1377952756
  9
$TRACEWID
 40
0.05
  9
$TEXTSTYLE
  7
Standard
  9
$CLAYER
  8
0
  9
$CELTYPE
  6
ByLayer
  9
$CECOLOR
 62
   256
  9
$CELTSCALE
 40
1.0
  9
$DISPSILH
 70
     0
  9
$DIMSCALE
 40
1.0
  9
$DIMASZ
 40
0.14
  9
$DIMEXO
 40
0.0393700787
  9
$DIMDLI
 40
0.38
  9
$DIMRND
 40
0.0
  9
$DIMDLE
 40
0.0
  9
$DIMEXE
 40
0.0393700787
  9
$DIMTP
 40
0.0
  9
$DIMTM
 40
0.0
  9
$DIMTXT
 40
0.1377952756
  9
$DIMCEN
 40
0.09
  9
$DIMTSZ
 40
0.0
  9
$DIMTOL
 70
     0
  9
$DIMLIM
 70
     0
  9
$DIMTIH
 70
     1
  9
$DIMTOH
 70
     1
  9
$DIMSE1
 70
     0
  9
$DIMSE2
 70
     0
  9
$DIMTAD
 70
     1
  9
$DIMZIN
 70
     1
  9
$DIMBLK
  1

  9
$DIMASO
 70
     1
  9
$DIMSHO
 70
     1
  9
$DIMPOST
  1

  9
$DIMAPOST
  1

  9
$DIMALT
 70
     0
  9
$DIMALTD
 70
     2
  9
$DIMALTF
 40
25.4
  9
$DIMLFAC
 40
1.0
  9
$DIMTOFL
 70
     0
  9
$DIMTVP
 40
0.0
  9
$DIMTIX
 70
     0
  9
$DIMSOXD
 70
     0
  9
$DIMSAH
 70
     0
  9
$DIMBLK1
  1

  9
$DIMBLK2
  1

  9
$DIMSTYLE
  2
Standard
  9
$DIMCLRD
 70
     0
  9
$DIMCLRE
 70
     0
  9
$DIMCLRT
 70
     0
  9
$DIMTFAC
 40
1.0
  9
$DIMGAP
 40
0.06
  9
$DIMJUST
 70
     0
  9
$DIMSD1
 70
     0
  9
$DIMSD2
 70
     0
  9
$DIMTOLJ
 70
     1
  9
$DIMTZIN
 70
     1
  9
$DIMALTZ
 70
     0
  9
$DIMALTTZ
 70
     0
  9
$DIMUPT
 70
     0
  9
$DIMDEC
 70
     2
  9
$DIMTDEC
 70
     2
  9
$DIMALTU
 70
     2
  9
$DIMALTTD
 70
     2
  9
$DIMTXSTY
  7
Standard
  9
$DIMAUNIT
 70
     0
  9
$DIMADEC
 70
     2
  9
$DIMALTRND
 40
0.0
  9
$DIMAZIN
 70
     0
  9
$DIMDSEP
 70
    46
  9
$DIMATFIT
 70
     3
  9
$DIMFRAC
 70
     0
  9
$DIMLDRBLK
  1

  9
$DIMLUNIT
 70
     2
  9
$DIMLWD
 70
    -2
  9
$DIMLWE
 70
    -2
  9
$DIMTMOVE
 70
     0
  9
$LUNITS
 70
     2
  9
$LUPREC
 70
     2
  9
$SKETCHINC
 40
0.1
  9
$FILLETRAD
 40
0.5
  9
$AUNITS
 70
     0
  9
$AUPREC
 70
     2
  9
$MENU
  1
.
  9
$ELEVATION
 40
0.0
  9
$PELEVATION
 40
0.0
  9
$THICKNESS
 40
0.0
  9
$LIMCHECK
 70
     0
  9
$CHAMFERA
 40
0.0
  9
$CHAMFERB
 40
0.0
  9
$CHAMFERC
 40
0.0
  9
$CHAMFERD
 40
0.0
  9
$SKPOLY
 70
     0
  9
$TDCREATE
 40
2459293.38720566
  9
$TDUCREATE
 40
2459292.970538993
  9
$TDUPDATE
 40
2459293.387234595
  9
$TDUUPDATE
 40
2459292.970567928
  9
$TDINDWG
 40
0.0000000116
  9
$TDUSRTIMER
 40
0.0000000116
  9
$USRTIMER
 70
     1
  9
$ANGBASE
 50
0.0
  9
$ANGDIR
 70
     0
  9
$PDMODE
 70
     0
  9
$PDSIZE
 40
-1.0
  9
$PLINEWID
 40
0.0
  9
$SPLFRAME
 70
     0
  9
$SPLINETYPE
 70
     6
  9
$SPLINESEGS
 70
     8
  9
$HANDSEED
  5
143
  9
$SURFTAB1
 70
     6
  9
$SURFTAB2
 70
     6
  9
$SURFTYPE
 70
     6
  9
$SURFU
 70
     6
  9
$SURFV
 70
     6
  9
$UCSBASE
  2

  9
$UCSNAME
  2

  9
$UCSORG
 10
0.0
 20
0.0
 30
0.0
  9
$UCSXDIR
 10
1.0
 20
0.0
 30
0.0
  9
$UCSYDIR
 10
0.0
 20
1.0
 30
0.0
  9
$UCSORTHOREF
  2

  9
$UCSORTHOVIEW
 70
     0
  9
$UCSORGTOP
 10
0.0
 20
0.0
 30
0.0
  9
$UCSORGBOTTOM
 10
0.0
 20
0.0
 30
0.0
  9
$UCSORGLEFT
 10
0.0
 20
0.0
 30
0.0
  9
$UCSORGRIGHT
 10
0.0
 20
0.0
 30
0.0
  9
$UCSORGFRONT
 10
0.0
 20
0.0
 30
0.0
  9
$UCSORGBACK
 10
0.0
 20
0.0
 30
0.0
  9
$PUCSBASE
  2

  9
$PUCSNAME
  2

  9
$PUCSORG
 10
0.0
 20
0.0
 30
0.0
  9
$PUCSXDIR
 10
1.0
 20
0.0
 30
0.0
  9
$PUCSYDIR
 10
0.0
 20
1.0
 30
0.0
  9
$PUCSORTHOREF
  2

  9
$PUCSORTHOVIEW
 70
     0
  9
$PUCSORGTOP
 10
0.0
 20
0.0
 30
0.0
  9
$PUCSORGBOTTOM
 10
0.0
 20
0.0
 30
0.0
  9
$PUCSORGLEFT
 10
0.0
 20
0.0
 30
0.0
  9
$PUCSORGRIGHT
 10
0.0
 20
0.0
 30
0.0
  9
$PUCSORGFRONT
 10
0.0
 20
0.0
 30
0.0
  9
$PUCSORGBACK
 10
0.0
 20
0.0
 30
0.0
  9
$USERI1
 70
     0
  9
$USERI2
 70
     0
  9
$USERI3
 70
     0
  9
$USERI4
 70
     0
  9
$USERI5
 70
     0
  9
$USERR1
 40
0.0
  9
$USERR2
 40
0.0
  9
$USERR3
 40
0.0
  9
$USERR4
 40
0.0
  9
$USERR5
 40
0.0
  9
$WORLDVIEW
 70
     1
  9
$SHADEDGE
 70
     3
  9
$SHADEDIF
 70
    70
  9
$TILEMODE
 70
     1
  9
$MAXACTVP
 70
    64
  9
$PINSBASE
 10
0.0
 20
0.0
 30
0.0
  9
$PLIMCHECK
 70
     0
  9
$PEXTMIN
 10
1.0000000000E+20
 20
1.0000000000E+20
 30
1.0000000000E+20
  9
$PEXTMAX
 10
-1.0000000000E+20
 20
-1.0000000000E+20
 30
-1.0000000000E+20
  9
$PLIMMIN
 10
0.0
 20
0.0
  9
$PLIMMAX
 10
12.0
 20
9.0
  9
$UNITMODE
 70
     0
  9
$VISRETAIN
 70
     1
  9
$PLINEGEN
 70
     0
  9
$PSLTSCALE
 70
     1
  9
$TREEDEPTH
 70
  3020
  9
$CMLSTYLE
  2
Standard
  9
$CMLJUST
 70
     0
  9
$CMLSCALE
 40
1.0
  9
$PROXYGRAPHICS
 70
     1
  9
$MEASUREMENT
 70
     0
  9
$CELWEIGHT
370
    -1
  9
$ENDCAPS
280
     0
  9
$JOINSTYLE
280
     0
  9
$LWDISPLAY
290
     1
  9
$INSUNITS
 70
     1
  9
$HYPERLINKBASE
  1

  9
$STYLESHEET
  1

  9
$XEDIT
290
     1
  9
$CEPSNTYPE
380
     0
  9
$PSTYLEMODE
290
     1
  9
$FINGERPRINTGUID
  2
{d15912f3-f036-4589-a922-f959b2acf594}
  9
$VERSIONGUID
  2
{FAEB1C32-E019-11D5-929B-00C0DF256EC4}
  9
$EXTNAMES
290
     1
  9
$PSVPSCALE
 40
0.0
  9
$OLESTARTUP
290
     0
  0
ENDSEC
  0
SECTION
  2
CLASSES
  0
CLASS
  1
ACDBDICTIONARYWDFLT
  2
AcDbDictionaryWithDefault
  3
ObjectDBX Classes
 90
        0
280
     0
281
     0
  0
CLASS
  1
VISUALSTYLE
  2
AcDbVisualStyle
  3
ObjectDBX Classes
 90
     4095
280
     0
281
     0
  0
CLASS
  1
MATERIAL
  2
AcDbMaterial
  3
ObjectDBX Classes
 90
     1153
280
     0
281
     0
  0
CLASS
  1
SCALE
  2
AcDbScale
  3
ObjectDBX Classes
 90
     1153
280
     0
281
     0
  0
CLASS
  1
TABLESTYLE
  2
AcDbTableStyle
  3
ObjectDBX Classes
 90
     4095
280
     0
281
     0
  0
CLASS
  1
MLEADERSTYLE
  2
AcDbMLeaderStyle
  3
ACDB_MLEADERSTYLE_CLASS
 90
     4095
280
     0
281
     0
  0
CLASS
  1
SUN
  2
AcDbSun
  3
SCENEOE
 90
     1153
280
     0
281
     0
  0
CLASS
  1
ACDBPLACEHOLDER
  2
AcDbPlaceHolder
  3
ObjectDBX Classes
 90
        0
280
     0
281
     0
  0
CLASS
  1
LAYOUT
  2
AcDbLayout
  3
ObjectDBX Classes
 90
        0
280
     0
281
     0
  0
ENDSEC
  0
SECTION
  2
TABLES
  0
TABLE
  2
VPORT
  5
8
330
0
100
AcDbSymbolTable
 70
     1
  0
VPORT
  5
29
330
8
100
AcDbSymbolTableRecord
100
AcDbViewportTableRecord
  2
*Active
 70
     0
 10
0.0
 20
0.0
 11
1.0
 21
1.0
 12
0.0
 22
2.9825
 13
0.0
 23
0.0
 14
0.5
 24
0.5
 15
0.5
 25
0.5
 16
0.0
 26
0.0
 36
1.0
 17
0.0
 27
0.0
 37
0.0
 40
1.0965
 41
1.8093023256
 42
50.0
 43
0.0
 44
0.0
 50
0.0
 51
0.0
 71
     0
 72
   100
 73
     1
 74
     3
 75
     0
 76
     0
 77
     0
 78
     0
281
     0
 65
     1
110
0.0
120
0.0
130
0.0
111
1.0
121
0.0
131
0.0
112
0.0
122
1.0
132
0.0
 79
     0
146
0.0
  0
ENDTAB
  0
TABLE
  2
LTYPE
  5
5
330
0
100
AcDbSymbolTable
 70
     6
  0
LTYPE
  5
14
330
5
100
AcDbSymbolTableRecord
100
AcDbLinetypeTableRecord
  2
ByBlock
 70
     0
  3

 72
    65
 73
     0
 40
0.0
  0
LTYPE
  5
15
330
5
100
AcDbSymbolTableRecord
100
AcDbLinetypeTableRecord
  2
ByLayer
 70
     0
  3

 72
    65
 73
     0
 40
0.0
  0
LTYPE
  5
16
330
5
100
AcDbSymbolTableRecord
100
AcDbLinetypeTableRecord
  2
Continuous
 70
     0
  3
Solid line
 72
    65
 73
     0
 40
0.0
  0
LTYPE
  5
6E
330
5
100
AcDbSymbolTableRecord
100
AcDbLinetypeTableRecord
  2
HIDDEN
 70
     0
  3
Hidden __ __ __ __ __ __ __ __ __ __ __ __ __ __
 72
    65
 73
     2
 40
0.075
 49
0.05
 74
     0
 49
-0.025
 74
     0
  0
LTYPE
  5
6F
330
5
100
AcDbSymbolTableRecord
100
AcDbLinetypeTableRecord
  2
PHANTOM
 70
     0
  3
Phantom ______  __  __  ______  __  __  ______
 72
    65
 73
     6
 40
0.5
 49
0.25
 74
     0
 49
-0.05
 74
     0
 49
0.05
 74
     0
 49
-0.05
 74
     0
 49
0.05
 74
     0
 49
-0.05
 74
     0
  0
LTYPE
  5
70
330
5
100
AcDbSymbolTableRecord
100
AcDbLinetypeTableRecord
  2
CENTER
 70
     0
  3
Center ____ _ ____ _ ____ _ ____ _ ____ _ ____
 72
    65
 73
     4
 40
0.4
 49
0.25
 74
     0
 49
-0.05
 74
     0
 49
0.05
 74
     0
 49
-0.05
 74
     0
  0
LTYPE
  5
71
330
5
100
AcDbSymbolTableRecord
100
AcDbLinetypeTableRecord
  2
CENTERX2
 70
     0
  3
Center (2x) ________  __  ________  __  _____
 72
    65
 73
     4
 40
0.8
 49
0.5
 74
     0
 49
-0.1
 74
     0
 49
0.1
 74
     0
 49
-0.1
 74
     0
  0
LTYPE
  5
72
330
5
100
AcDbSymbolTableRecord
100
AcDbLinetypeTableRecord
  2
DOT2
 70
     0
  3
Dot (.5x) ........................................
 72
    65
 73
     2
 40
0.025
 49
0.0
 74
     0
 49
-0.025
 74
     0
  0
ENDTAB
  0
TABLE
  2
LAYER
  5
2
330
0
100
AcDbSymbolTable
 70
     1
  0
LAYER
  5
10
330
2
100
AcDbSymbolTableRecord
100
AcDbLayerTableRecord
  2
0
 70
     0
 62
     7
  6
Continuous
370
    -3
390
F
  0
ENDTAB
  0
TABLE
  2
STYLE
  5
3
330
0
100
AcDbSymbolTable
 70
     1
  0
STYLE
  5
11
330
3
100
AcDbSymbolTableRecord
100
AcDbTextStyleTableRecord
  2
Standard
 70
     0
 40
0.0
 41
1.0
 50
0.0
 71
     0
 42
0.1377952756
  3
txt
  4

  0
ENDTAB
  0
TABLE
  2
VIEW
  5
6
330
0
100
AcDbSymbolTable
 70
     0
  0
ENDTAB
  0
TABLE
  2
UCS
  5
7
330
0
100
AcDbSymbolTable
 70
     0
  0
ENDTAB
  0
TABLE
  2
APPID
  5
9
330
0
100
AcDbSymbolTable
 70
     1
  0
APPID
  5
12
330
9
100
AcDbSymbolTableRecord
100
AcDbRegAppTableRecord
  2
ACAD
 70
     0
  0
ENDTAB
  0
TABLE
  2
DIMSTYLE
  5
A
330
0
100
AcDbSymbolTable
 70
     1
100
AcDbDimStyleTable
  0
DIMSTYLE
105
27
330
A
100
AcDbSymbolTableRecord
100
AcDbDimStyleTableRecord
  2
Standard
 70
     0
178
     0
340
11
  0
ENDTAB
  0
TABLE
  2
BLOCK_RECORD
  5
1
330
0
100
AcDbSymbolTable
 70
     1
  0
BLOCK_RECORD
  5
1F
330
1
100
AcDbSymbolTableRecord
100
AcDbBlockTableRecord
  2
*Model_Space
340
22
  0
BLOCK_RECORD
  5
1B
330
1
100
AcDbSymbolTableRecord
100
AcDbBlockTableRecord
  2
*Paper_Space
340
1E
  0
BLOCK_RECORD
  5
23
330
1
100
AcDbSymbolTableRecord
100
AcDbBlockTableRecord
  2
*Paper_Space0
340
26
  0
ENDTAB
  0
ENDSEC
  0
SECTION
  2
BLOCKS
  0
BLOCK
  5
20
330
1F
100
AcDbEntity
  8
0
100
AcDbBlockBegin
  2
*Model_Space
 70
     0
 10
0.0
 20
0.0
 30
0.0
  3
*Model_Space
  1

  0
ENDBLK
  5
21
330
1F
100
AcDbEntity
  8
0
100
AcDbBlockEnd
  0
BLOCK
  5
1C
330
1B
100
AcDbEntity
 67
     1
  8
0
100
AcDbBlockBegin
  2
*Paper_Space
 70
     0
 10
0.0
 20
0.0
 30
0.0
  3
*Paper_Space
  1

  0
ENDBLK
  5
1D
330
1B
100
AcDbEntity
 67
     1
  8
0
100
AcDbBlockEnd
  0
BLOCK
  5
24
330
23
100
AcDbEntity
  8
0
100
AcDbBlockBegin
  2
*Paper_Space0
 70
     0
 10
0.0
 20
0.0
 30
0.0
  3
*Paper_Space0
  1

  0
ENDBLK
  5
25
330
23
100
AcDbEntity
  8
0
100
AcDbBlockEnd
  0
ENDSEC
  0
SECTION
  2
ENTITIES
  0
SPLINE
  5
73
330
1F
100
AcDbEntity
  8
0
  6
Continuous
 62
     7
370
    25
100
AcDbSpline
210
0.0
220
0.0
230
1.0
 70
     8
 71
     3
 72
    22
 73
    18
 74
     0
 42
0.000000001
 43
0.00000001
 40
0.0
 40
0.0
 40
0.0
 40
0.0
 40
0.0881059633768643
 40
0.1683538039024415
 40
0.2407567365024329
 40
0.3052686259205
 40
0.3789577736543145
 40
0.4386351146806995
 40
0.4940242212093351
 40
0.5409794692426011
 40
0.5926984181315825
 40
0.6492524325604678
 40
0.7107059164715253
 40
0.7771551187468807
 40
0.8487522374785379
 40
0.9256570631685943
 40
0.9999999999999999
 40
0.9999999999999999
 40
0.9999999999999999
 40
0.9999999999999999
 10
0.2875055353950838
 20
3.028355348870638
 30
0.0
 10
0.2878701213419812
 20
3.036202601106763
 30
0.0
 10
0.2885667760138905
 20
3.051197213429232
 30
0.0
 10
0.2937143509207003
 20
3.072109344816809
 30
0.0
 10
0.3005989955345566
 20
3.090200785987678
 30
0.0
 10
0.3093552837226508
 20
3.106814376210452
 30
0.0
 10
0.3194063337993757
 20
3.121333324875691
 30
0.0
 10
0.3305796484461349
 20
3.133913131066063
 30
0.0
 10
0.3412607616961422
 20
3.143640265077428
 30
0.0
 10
0.3521686224934494
 20
3.151893669250348
 30
0.0
 10
0.3637840460164259
 20
3.159200386894493
 30
0.0
 10
0.3770941204646914
 20
3.165928216065781
 30
0.0
 10
0.3921108948031254
 20
3.171681131673563
 30
0.0
 10
0.4087838315609579
 20
3.176016903750754
 30
0.0
 10
0.4269238573865776
 20
3.178449560656731
 30
0.0
 10
0.4456849558712082
 20
3.178793773391507
 30
0.0
 10
0.4579148529961805
 20
3.176856873264271
 30
0.0
 10
0.4639262243663019
 20
3.175904827155242
 30
0.0
  0
SPLINE
  5
74
330
1F
100
AcDbEntity
  8
0
  6
Continuous
 62
     7
370
    25
100
AcDbSpline
210
0.0
220
0.0
230
1.0
 70
     8
 71
     3
 72
    24
 73
    20
 74
     0
 42
0.000000001
 43
0.00000001
 40
0.0
 40
0.0
 40
0.0
 40
0.0
 40
0.0620038566867306
 40
0.1260291669620077
 40
0.184030744661006
 40
0.2363829434618764
 40
0.2834547286165489
 40
0.3271068430424042
 40
0.3695118357076602
 40
0.4238558236627479
 40
0.4901151148018107
 40
0.5682220375137687
 40
0.6268963748968048
 40
0.6908821365154847
 40
0.7602031522226281
 40
0.8156987477636742
 40
0.8741636580298238
 40
0.9355864678662976
 40
1.0
 40
1.0
 40
1.0
 40
1.0
 10
-0.4639600180813467
 20
3.175925835071939
 30
0.0
 10
-0.4592813358712883
 20
3.176704536285532
 30
0.0
 10
-0.4497714367630316
 20
3.178287325978071
 30
0.0
 10
-0.434894233134962
 20
3.178629011266356
 30
0.0
 10
-0.4204162118983444
 20
3.177629244539805
 30
0.0
 10
-0.4070991195247872
 20
3.175430883292623
 30
0.0
 10
-0.3949504367939611
 20
3.172348626598709
 30
0.0
 10
-0.3837263266084893
 20
3.168514158703216
 30
0.0
 10
-0.3722106937232454
 20
3.163560597264115
 30
0.0
 10
-0.3593603482469308
 20
3.156677413307211
 30
0.0
 10
-0.3446580849084321
 20
3.146659731355422
 30
0.0
 10
-0.3310490366377882
 20
3.13456157832094
 30
0.0
 10
-0.3192282599314083
 20
3.121019662200591
 30
0.0
 10
-0.3094240322708223
 20
3.106891297517893
 30
0.0
 10
-0.301477324592209
 20
3.091955727271736
 30
0.0
 10
-0.2953799442185607
 20
3.076720777908788
 30
0.0
 10
-0.291057292654811
 20
3.061630013327564
 30
0.0
 10
-0.2880829188440635
 20
3.045372339420501
 30
0.0
 10
-0.2877010220282258
 20
3.03411684791375
 30
0.0
 10
-0.2875055353950832
 20
3.028355348870632
 30
0.0
  0
SPLINE
  5
7B
330
1F
100
AcDbEntity
  8
0
  6
Continuous
 62
     7
370
    25
100
AcDbSpline
210
0.0
220
0.0
230
1.0
 70
     8
 71
     3
 72
     9
 73
     5
 74
     0
 42
0.000000001
 43
0.00000001
 40
0.0
 40
0.0
 40
0.0
 40
0.0
 40
0.4995608152790527
 40
1.0
 40
1.0
 40
1.0
 40
1.0
 10
0.2605634887730369
 20
3.03585314563372
 30
0.0
 10
0.2503062225687651
 20
3.03759740756533
 30
0.0
 10
0.229773654980288
 20
3.041088998335187
 30
0.0
 10
0.2092290183723551
 20
3.044157472605079
 30
0.0
 10
0.198947677177893
 20
3.04569305736704
 30
0.0
  0
SPLINE
  5
7C
330
1F
100
AcDbEntity
  8
0
  6
Continuous
 62
     7
370
    25
100
AcDbSpline
210
0.0
220
0.0
230
1.0
 70
     8
 71
     3
 72
    26
 73
    22
 74
     0
 42
0.000000001
 43
0.00000001
 40
0.0
 40
0.0
 40
0.0
 40
0.0
 40
0.0332711336720691
 40
0.0655318799285884
 40
0.0967874101488906
 40
0.1270420517637431
 40
0.1562996550461519
 40
0.184563884535846
 40
0.2118384479875692
 40
0.2381272745046337
 40
0.2634346524372655
 40
0.3981437603293609
 40
0.5183823181541161
 40
0.645529316598305
 40
0.7626059404988323
 40
0.8031344013910962
 40
0.8431047286600424
 40
0.8826400521852372
 40
0.9218711381864538
 40
0.9609394735427784
 40
0.9999999999999999
 40
0.9999999999999999
 40
0.9999999999999999
 40
0.9999999999999999
 10
0.4149977990350302
 20
3.184875714950187
 30
0.0
 10
0.4118842621848093
 20
3.185371588872592
 30
0.0
 10
0.4057517412724486
 20
3.186348277874626
 30
0.0
 10
0.3966154469108942
 20
3.187360084003343
 30
0.0
 10
0.387725090116021
 20
3.188040814970516
 30
0.0
 10
0.3790878327460247
 20
3.188386829331508
 30
0.0
 10
0.3707170039702157
 20
3.188431228167456
 30
0.0
 10
0.3626219763140894
 20
3.188196505052796
 30
0.0
 10
0.3548111818822319
 20
3.187706795207015
 30
0.0
 10
0.3472905775348737
 20
3.18698428790431
 30
0.0
 10
0.3295668971070491
 20
3.184696433385686
 30
0.0
 10
0.3030921750777786
 20
3.178420893359508
 30
0.0
 10
0.2689824767772059
 20
3.16310093051436
 30
0.0
 10
0.2398625508326059
 20
3.14172098206419
 30
0.0
 10
0.2217968107433546
 20
3.119678551093329
 30
0.0
 10
0.2122013789014504
 20
3.102545265453919
 30
0.0
 10
0.2073353748657879
 20
3.091628509597775
 30
0.0
 10
0.2035336063626301
 20
3.080418215798087
 30
0.0
 10
0.2008419785225149
 20
3.068979667080659
 30
0.0
 10
0.1991767398330074
 20
3.057376420082967
 30
0.0
 10
0.1990240263084121
 20
3.049587252099251
 30
0.0
 10
0.198947677177894
 20
3.045693057367042
 30
0.0
  0
SPLINE
  5
7D
330
1F
100
AcDbEntity
  8
0
  6
Continuous
 62
     7
370
    25
100
AcDbSpline
210
0.0
220
0.0
230
1.0
 70
     8
 71
     3
 72
    10
 73
     6
 74
     0
 42
0.000000001
 43
0.00000001
 40
0.0
 40
0.0
 40
0.0
 40
0.0
 40
0.285714285714286
 40
0.571428571428571
 40
1.0
 40
1.0
 40
1.0
 40
1.0
 10
0.422155038465122
 20
3.18364460141082
 30
0.0
 10
0.4001913170921799
 20
3.18745583673432
 30
0.0
 10
0.35426907701331
 20
3.18279735460594
 30
0.0
 10
0.285295125402991
 20
3.13391617968428
 30
0.0
 10
0.261706945577843
 20
3.07274779652601
 30
0.0
 10
0.260563488773037
 20
3.03585314563372
 30
0.0
  0
SPLINE
  5
7E
330
1F
100
AcDbEntity
  8
0
  6
Continuous
 62
     7
370
    25
100
AcDbSpline
210
0.0
220
0.0
230
1.0
 70
     8
 71
     3
 72
    23
 73
    19
 74
     0
 42
0.000000001
 43
0.00000001
 40
0.0
 40
0.0
 40
0.0
 40
0.0
 40
0.0234281870839842
 40
0.0468643864575166
 40
0.0703444440929257
 40
0.0939021448328668
 40
0.1175693638927837
 40
0.1413762520506146
 40
0.165351449774061
 40
0.1895223255266936
 40
0.3295820023300073
 40
0.48138600160815
 40
0.6026069978291322
 40
0.73686017092038
 40
0.7941564898181508
 40
0.8570812381469197
 40
0.9256798329798583
 40
1.0
 40
1.0
 40
1.0
 40
1.0
 10
-0.1989476771778936
 20
3.04569305736704
 30
0.0
 10
-0.1989671120873934
 20
3.048026671565093
 30
0.0
 10
-0.1990059885530075
 20
3.052694698042273
 30
0.0
 10
-0.1995838333916986
 20
3.059682905238577
 30
0.0
 10
-0.2005379640989179
 20
3.066639278145443
 30
0.0
 10
-0.2019026412096555
 20
3.073550318098334
 30
0.0
 10
-0.2036645930626803
 20
3.080401790056909
 30
0.0
 10
-0.2058230233837552
 20
3.087179155084091
 30
0.0
 10
-0.208375004784204
 20
3.093868427541423
 30
0.0
 10
-0.2159992359660314
 20
3.110950306485858
 30
0.0
 10
-0.2342212718613348
 20
3.137129348199065
 30
0.0
 10
-0.2668647161923068
 20
3.162179171943533
 30
0.0
 10
-0.3032092926043646
 20
3.178459644397656
 30
0.0
 10
-0.3327493477414693
 20
3.185442806741329
 30
0.0
 10
-0.3569949474003067
 20
3.188047885891832
 30
0.0
 10
-0.3750172896205304
 20
3.188624825855412
 30
0.0
 10
-0.3946172738032168
 20
3.187842965067741
 30
0.0
 10
-0.4080253652864225
 20
3.185890848496789
 30
0.0
 10
-0.4149977990350271
 20
3.184875714950187
 30
0.0
  0
SPLINE
  5
7F
330
1F
100
AcDbEntity
  8
0
  6
Continuous
 62
     7
370
    25
100
AcDbSpline
210
0.0
220
0.0
230
1.0
 70
     8
 71
     3
 72
     9
 73
     5
 74
     0
 42
0.000000001
 43
0.00000001
 40
0.0
 40
0.0
 40
0.0
 40
0.0
 40
0.5004391847215073
 40
1.0
 40
1.0
 40
1.0
 40
1.0
 10
-0.1989476771778931
 20
3.04569305736704
 30
0.0
 10
-0.2092290183727879
 20
3.044157472604975
 30
0.0
 10
-0.2297736549815624
 20
3.041088998334883
 30
0.0
 10
-0.2503062225708663
 20
3.037597407564347
 30
0.0
 10
-0.2605634887755398
 20
3.0358531456324
 30
0.0
  0
SPLINE
  5
80
330
1F
100
AcDbEntity
  8
0
  6
Continuous
 62
     7
370
    25
100
AcDbSpline
210
0.0
220
0.0
230
1.0
 70
     8
 71
     3
 72
    10
 73
     6
 74
     0
 42
0.000000001
 43
0.00000001
 40
0.0
 40
0.0
 40
0.0
 40
0.0
 40
0.428571428571429
 40
0.714285714285714
 40
1.0
 40
1.0
 40
1.0
 40
1.0
 10
-0.26056348877556
 20
3.03585314563306
 30
0.0
 10
-0.261706945580278
 20
3.07274779652541
 30
0.0
 10
-0.285295125405569
 20
3.1339161796838
 30
0.0
 10
-0.354269077016624
 20
3.18279735460543
 30
0.0
 10
-0.400191317096018
 20
3.18745583673369
 30
0.0
 10
-0.422155038469209
 20
3.18364460141011
 30
0.0
  0
CIRCLE
  5
81
330
1F
100
AcDbEntity
  8
0
  6
Continuous
 62
     7
370
    25
100
AcDbCircle
 10
0.0
 20
2.7453465287
 30
0.0
 40
0.0532499999999994
  0
SPLINE
  5
82
330
1F
100
AcDbEntity
  8
0
  6
Continuous
 62
     7
370
    25
100
AcDbSpline
210
0.0
220
0.0
230
1.0
 70
    11
 71
     3
 72
    64
 73
    60
 74
     0
 42
0.000000001
 43
0.00000001
 40
0.0
 40
0.0
 40
0.0
 40
0.0
 40
0.0312499999999998
 40
0.0312499999999998
 40
0.0624999999999996
 40
0.0624999999999996
 40
0.0937499999999994
 40
0.0937499999999994
 40
0.1249999999999991
 40
0.1249999999999991
 40
0.1875000000000015
 40
0.1875000000000015
 40
0.2187500000000014
 40
0.2187500000000014
 40
0.2500000000000012
 40
0.2500000000000012
 40
0.2812500000000011
 40
0.2812500000000011
 40
0.3125000000000009
 40
0.3125000000000009
 40
0.3437500000000007
 40
0.3437500000000007
 40
0.3750000000000006
 40
0.3750000000000006
 40
0.4062500000000004
 40
0.4062500000000004
 40
0.4375000000000003
 40
0.4375000000000003
 40
0.4687500000000001
 40
0.4687500000000001
 40
0.5
 40
0.5
 40
0.5624999999999977
 40
0.5624999999999977
 40
0.5937499999999978
 40
0.5937499999999978
 40
0.6249999999999979
 40
0.6249999999999979
 40
0.656249999999998
 40
0.656249999999998
 40
0.6874999999999981
 40
0.6874999999999981
 40
0.7187499999999982
 40
0.7187499999999982
 40
0.7499999999999984
 40
0.7499999999999984
 40
0.7812499999999988
 40
0.7812499999999988
 40
0.812499999999999
 40
0.812499999999999
 40
0.8437499999999992
 40
0.8437499999999992
 40
0.8749999999999993
 40
0.8749999999999993
 40
0.9374999999999997
 40
0.9374999999999997
 40
0.9687499999999998
 40
0.9687499999999998
 40
1.0
 40
1.0
 40
1.0
 40
1.0
 10
0.0664390774132605
 20
2.678992643753118
 30
0.0
 10
0.070749018626641
 20
2.683453956548846
 30
0.0
 10
0.0745568071676133
 20
2.688270602513502
 30
0.0
 10
0.0812090364708361
 20
2.698585862221877
 30
0.0
 10
0.0840687283913764
 20
2.704141919475207
 30
0.0
 10
0.088606007185087
 20
2.715546915247933
 30
0.0
 10
0.0903131856229545
 20
2.721421556273566
 30
0.0
 10
0.0926006827724137
 20
2.73351641185724
 30
0.0
 10
0.0931623424868845
 20
2.739721898192524
 30
0.0
 10
0.0930680922298081
 20
2.758078412917397
 30
0.0
 10
0.090608585641475
 20
2.770436221992441
 30
0.0
 10
0.0836544814229937
 20
2.787410341398861
 30
0.0
 10
0.0807627160926335
 20
2.79290347241874
 30
0.0
 10
0.0739760712113988
 20
2.803201581773806
 30
0.0
 10
0.0701290278027791
 20
2.807956504575437
 30
0.0
 10
0.0615374330697106
 20
2.816687038889825
 30
0.0
 10
0.0567351075078136
 20
2.820692710928966
 30
0.0
 10
0.0465800695476973
 20
2.827576607419961
 30
0.0
 10
0.0412065646073837
 20
2.830493437762776
 30
0.0
 10
0.0298564613114018
 20
2.835257504057503
 30
0.0
 10
0.0238954870719627
 20
2.837079717349408
 30
0.0
 10
0.0118956827491893
 20
2.839469256170093
 30
0.0
 10
0.0057835825741072
 20
2.840066872371631
 30
0.0
 10
-0.0066192691681695
 20
2.840010278393944
 30
0.0
 10
-0.0127142958925758
 20
2.839358777823677
 30
0.0
 10
-0.0247000993736249
 20
2.836859336410728
 30
0.0
 10
-0.0306546262279038
 20
2.834978842239574
 30
0.0
 10
-0.0419490472333635
 20
2.830117197902855
 30
0.0
 10
-0.0473005609614402
 20
2.827151345650882
 30
0.0
 10
-0.0574170198523344
 20
2.820157936742242
 30
0.0
 10
-0.0621713620137108
 20
2.816116214258528
 30
0.0
 10
-0.074934469175587
 20
2.802910249156058
 30
0.0
 10
-0.0817587256220514
 20
2.792318638813686
 30
0.0
 10
-0.0885644793677863
 20
2.775269745343997
 30
0.0
 10
-0.0903071777869712
 20
2.769296302892325
 30
0.0
 10
-0.0925991954325763
 20
2.75719145076919
 30
0.0
 10
-0.0931556612373036
 20
2.751098761232424
 30
0.0
 10
-0.0931072265659026
 20
2.738834059140468
 30
0.0
 10
-0.0924831497763831
 20
2.73261296013375
 30
0.0
 10
-0.0900936636434179
 20
2.72058676479962
 30
0.0
 10
-0.0883370330480888
 20
2.714728245378398
 30
0.0
 10
-0.0836787251430809
 20
2.703326140064279
 30
0.0
 10
-0.080776639025648
 20
2.697820773001997
 30
0.0
 10
-0.0740559263597828
 20
2.687602726476878
 30
0.0
 10
-0.0702147962916737
 20
2.682828319737574
 30
0.0
 10
-0.0615201205357746
 20
2.673983850682171
 30
0.0
 10
-0.0568069590646446
 20
2.670057961617205
 30
0.0
 10
-0.0466922250569807
 20
2.663183730004778
 30
0.0
 10
-0.0412235655637728
 20
2.66020781760804
 30
0.0
 10
-0.0298664841316646
 20
2.655438700727772
 30
0.0
 10
-0.0240190775504683
 20
2.653645541367545
 30
0.0
 10
-0.0119885082042539
 20
2.651234830385821
 30
0.0
 10
-0.0057605567119171
 20
2.650629682177204
 30
0.0
 10
0.0126231996050094
 20
2.650703432307579
 30
0.0
 10
0.0249653043775488
 20
2.653279655898642
 30
0.0
 10
0.0418332715202908
 20
2.660518916609981
 30
0.0
 10
0.047260974532603
 20
2.663515618569614
 30
0.0
 10
0.0574307022400934
 20
2.670543309799056
 30
0.0
 10
0.06212913619988
 20
2.674531330957389
 30
0.0
 10
0.0664390774132605
 20
2.678992643753118
 30
0.0
  0
SPLINE
  5
83
330
1F
100
AcDbEntity
  8
0
  6
Continuous
 62
     7
370
    25
100
AcDbSpline
210
0.0
220
0.0
230
1.0
 70
     8
 71
     3
 72
    25
 73
    21
 74
     0
 42
0.000000001
 43
0.00000001
 40
0.0
 40
0.0
 40
0.0
 40
0.0
 40
0.0254631619702113
 40
0.0507833618912624
 40
0.0759850306638864
 40
0.1010929451963701
 40
0.1261321607148002
 40
0.1896009429608792
 40
0.2521291399920872
 40
0.3155140604560622
 40
0.3781115160883771
 40
0.5034642998524319
 40
0.628228546497125
 40
0.6910405385642362
 40
0.7527353044563445
 40
0.8147856357988602
 40
0.8765798006893566
 40
0.9181380116383795
 40
0.9591605514357047
 40
1.0
 40
1.0
 40
1.0
 40
1.0
 10
-0.4323479295080062
 20
3.23416446359471
 30
0.0
 10
-0.4291983919385262
 20
3.234661399333359
 30
0.0
 10
-0.4229169997701792
 20
3.235652480782001
 30
0.0
 10
-0.4134585430425303
 20
3.23676146631529
 30
0.0
 10
-0.4040117852659675
 20
3.237587040731189
 30
0.0
 10
-0.3945718263775215
 20
3.23810285296143
 30
0.0
 10
-0.380312506572219
 20
3.238425263367601
 30
0.0
 10
-0.3613190972805585
 20
3.237768200866583
 30
0.0
 10
-0.3376258911836363
 20
3.234903202652402
 30
0.0
 10
-0.3143411770198445
 20
3.22996594770101
 30
0.0
 10
-0.284005279407488
 20
3.220519121554068
 30
0.0
 10
-0.2480127472038921
 20
3.203406474994983
 30
0.0
 10
-0.2163395131933737
 20
3.17886726394799
 30
0.0
 10
-0.195140253439842
 20
3.155260300337112
 30
0.0
 10
-0.1816496273636218
 20
3.135685638510362
 30
0.0
 10
-0.1708600892334804
 20
3.114638862382656
 30
0.0
 10
-0.1637844434633385
 20
3.094761127381652
 30
0.0
 10
-0.1595807440387062
 20
3.076870797879983
 30
0.0
 10
-0.1572999416422161
 20
3.061304945443667
 30
0.0
 10
-0.1570188279950791
 20
3.050889254869453
 30
0.0
 10
-0.1568785855386871
 20
3.04569305736704
 30
0.0
  0
SPLINE
  5
84
330
1F
100
AcDbEntity
  8
0
  6
Continuous
 62
     7
370
    25
100
AcDbSpline
210
0.0
220
0.0
230
1.0
 70
     8
 71
     3
 72
    23
 73
    19
 74
     0
 42
0.000000001
 43
0.00000001
 40
0.0
 40
0.0
 40
0.0
 40
0.0
 40
0.0644035295472152
 40
0.1285279930472131
 40
0.1923785877031856
 40
0.2559605778766534
 40
0.3192792949250842
 40
0.3823401369797649
 40
0.4451485686619925
 40
0.5077101207356893
 40
0.570030389694634
 40
0.6321150372825899
 40
0.6939697899446916
 40
0.7556004382085707
 40
0.8170128359938132
 40
0.8782128998484682
 40
0.9392066081114718
 40
1.0
 40
1.0
 40
1.0
 40
1.0
 10
-0.8620474491111663
 20
3.12433661791987
 30
0.0
 10
-0.8532462542573497
 20
3.127371690625741
 30
0.0
 10
-0.8356820008859684
 20
3.133428684805725
 30
0.0
 10
-0.8091519717237757
 20
3.142175533100277
 30
0.0
 10
-0.7825659068298572
 20
3.150648534065294
 30
0.0
 10
-0.7559104491057694
 20
3.158825120986871
 30
0.0
 10
-0.7291943310698893
 20
3.166711301089463
 30
0.0
 10
-0.7024203789747377
 20
3.17430547361073
 30
0.0
 10
-0.6755929664671755
 20
3.18160806441501
 30
0.0
 10
-0.6487160276915387
 20
3.188618956566039
 30
0.0
 10
-0.6217935910397242
 20
3.195338189160203
 30
0.0
 10
-0.5948296165777041
 20
3.201765717119265
 30
0.0
 10
-0.5678281119291665
 20
3.207901675888168
 30
0.0
 10
-0.540792828898765
 20
3.213745565982745
 30
0.0
 10
-0.5137283527513368
 20
3.219299235402507
 30
0.0
 10
-0.4866360652119587
 20
3.224555819670795
 30
0.0
 10
-0.4595291284452078
 20
3.229540802553894
 30
0.0
 10
-0.4413983886262059
 20
3.232624934182377
 30
0.0
 10
-0.4323479295080062
 20
3.23416446359471
 30
0.0
  0
SPLINE
  5
85
330
1F
100
AcDbEntity
  8
0
  6
Continuous
 62
     7
370
    25
100
AcDbSpline
210
0.0
220
0.0
230
1.0
 70
     8
 71
     3
 72
    12
 73
     8
 74
     0
 42
0.000000001
 43
0.00000001
 40
0.0
 40
0.0
 40
0.0
 40
0.0
 40
0.201892551427507
 40
0.4020445477982303
 40
0.6012455610453304
 40
0.8002964801721034
 40
1.0
 40
1.0
 40
1.0
 40
1.0
 10
-0.8877118979397535
 20
3.12
 30
0.0
 10
-0.8859596091364471
 20
3.120033118395807
 30
0.0
 10
-0.8824701383533197
 20
3.120099069667273
 30
0.0
 10
-0.8772651286152381
 20
3.120637198466012
 30
0.0
 10
-0.8721231436147746
 20
3.121505702280736
 30
0.0
 10
-0.8670353811974308
 20
3.122705199705275
 30
0.0
 10
-0.863711906204052
 20
3.123792218843903
 30
0.0
 10
-0.8620474491111663
 20
3.12433661791987
 30
0.0
  0
SPLINE
  5
8D
330
1F
100
AcDbEntity
  8
0
  6
Continuous
 62
     7
370
    25
100
AcDbSpline
210
0.0
220
0.0
230
1.0
 70
     8
 71
     3
 72
    12
 73
     8
 74
     0
 42
0.000000001
 43
0.00000001
 40
0.0
 40
0.0
 40
0.0
 40
0.0
 40
0.1997035198278087
 40
0.3987544389546966
 40
0.5979554522018005
 40
0.798107448572559
 40
1.0
 40
1.0
 40
1.0
 40
1.0
 10
0.8620474491111654
 20
3.12433661791987
 30
0.0
 10
0.8637119062040505
 20
3.123792218843904
 30
0.0
 10
0.8670353811974297
 20
3.122705199705274
 30
0.0
 10
0.872123143614774
 20
3.121505702280737
 30
0.0
 10
0.8772651286152392
 20
3.120637198466012
 30
0.0
 10
0.8824701383533203
 20
3.120099069667273
 30
0.0
 10
0.8859596091364478
 20
3.120033118395807
 30
0.0
 10
0.8877118979397537
 20
3.12
 30
0.0
  0
SPLINE
  5
8E
330
1F
100
AcDbEntity
  8
0
  6
Continuous
 62
     7
370
    25
100
AcDbSpline
210
0.0
220
0.0
230
1.0
 70
     8
 71
     3
 72
    23
 73
    19
 74
     0
 42
0.000000001
 43
0.00000001
 40
0.0
 40
0.0
 40
0.0
 40
0.0
 40
0.0607933918885283
 40
0.1217871001515279
 40
0.1829871640061873
 40
0.24439956179143
 40
0.3060302100553048
 40
0.3678849627174064
 40
0.4299696103053621
 40
0.4922898792643068
 40
0.5548514313380037
 40
0.6176598630202315
 40
0.6807207050749119
 40
0.7440394221233466
 40
0.8076214122968152
 40
0.8714720069527875
 40
0.9355964704527799
 40
1.0
 40
1.0
 40
1.0
 40
1.0
 10
0.4323479295080124
 20
3.23416446359471
 30
0.0
 10
0.441398388626212
 20
3.232624934182376
 30
0.0
 10
0.4595291284452132
 20
3.229540802553894
 30
0.0
 10
0.4866360652119637
 20
3.224555819670795
 30
0.0
 10
0.5137283527513414
 20
3.219299235402509
 30
0.0
 10
0.5407928288987695
 20
3.213745565982745
 30
0.0
 10
0.5678281119291696
 20
3.207901675888168
 30
0.0
 10
0.5948296165777062
 20
3.201765717119264
 30
0.0
 10
0.6217935910397256
 20
3.195338189160204
 30
0.0
 10
0.6487160276915398
 20
3.188618956566039
 30
0.0
 10
0.6755929664671761
 20
3.18160806441501
 30
0.0
 10
0.7024203789747381
 20
3.174305473610732
 30
0.0
 10
0.7291943310698894
 20
3.166711301089461
 30
0.0
 10
0.7559104491057701
 20
3.158825120986872
 30
0.0
 10
0.7825659068298579
 20
3.150648534065293
 30
0.0
 10
0.809151971723775
 20
3.142175533100276
 30
0.0
 10
0.8356820008859676
 20
3.133428684805725
 30
0.0
 10
0.8532462542573485
 20
3.127371690625742
 30
0.0
 10
0.8620474491111654
 20
3.12433661791987
 30
0.0
  0
SPLINE
  5
8F
330
1F
100
AcDbEntity
  8
0
  6
Continuous
 62
     7
370
    25
100
AcDbSpline
210
0.0
220
0.0
230
1.0
 70
     8
 71
     3
 72
    26
 73
    22
 74
     0
 42
0.000000001
 43
0.00000001
 40
0.0
 40
0.0
 40
0.0
 40
0.0
 40
0.020422326014076
 40
0.0408545630724065
 40
0.0613414002664763
 40
0.0819271710989635
 40
0.1026555742872691
 40
0.1235694144883749
 40
0.185432816529534
 40
0.2474660198195
 40
0.3089430782854414
 40
0.3716229488696846
 40
0.4335005902753901
 40
0.4967319519674829
 40
0.6200328393363612
 40
0.7475344655321092
 40
0.8101366679627341
 40
0.8736986364763205
 40
0.9156230184497176
 40
0.9576850283250783
 40
1.0
 40
1.0
 40
1.0
 40
1.0
 10
0.1568785855386882
 20
3.04569305736704
 30
0.0
 10
0.1569136034681801
 20
3.048291348094752
 30
0.0
 10
0.1569836563215183
 20
3.053489190512046
 30
0.0
 10
0.1575511379434089
 20
3.061276403508976
 30
0.0
 10
0.1584572047931679
 20
3.069050168037348
 30
0.0
 10
0.1597349240025032
 20
3.076810290104254
 30
0.0
 10
0.1613755788466584
 20
3.084557025132178
 30
0.0
 10
0.1646805051635254
 20
3.097304072740858
 30
0.0
 10
0.1708589023503699
 20
3.114717574529891
 30
0.0
 10
0.1816318507245145
 20
3.135755969768231
 30
0.0
 10
0.1951010509339669
 20
3.155294247689542
 30
0.0
 10
0.2109604911475983
 20
3.172894696780903
 30
0.0
 10
0.2289344660383006
 20
3.188627918787935
 30
0.0
 10
0.2548608321704694
 20
3.206610124179957
 30
0.0
 10
0.2909016702802723
 20
3.224064143237171
 30
0.0
 10
0.3294664981825525
 20
3.233934584481851
 30
0.0
 10
0.3612009214432461
 20
3.237750071012935
 30
0.0
 10
0.3823447527166183
 20
3.238484988584571
 30
0.0
 10
0.4008604509873228
 20
3.237862616763155
 30
0.0
 10
0.4166553180184407
 20
3.236542423759316
 30
0.0
 10
0.4271066146984885
 20
3.23495869964876
 30
0.0
 10
0.4323479295080124
 20
3.23416446359471
 30
0.0
  0
SPLINE
  5
94
330
1F
100
AcDbEntity
  8
0
  6
Continuous
 62
     7
370
    25
100
AcDbSpline
210
0.0
220
0.0
230
1.0
 70
     8
 71
     3
 72
     9
 73
     5
 74
     0
 42
0.000000001
 43
0.00000001
 40
0.0
 40
0.0
 40
0.0
 40
0.0
 40
0.5041983033578474
 40
1.0
 40
1.0
 40
1.0
 40
1.0
 10
0.8125000000000013
 20
3.270000000000001
 30
0.0
 10
0.8125000076039851
 20
3.29126707800414
 30
0.0
 10
0.8125000226853204
 20
3.333447065248259
 30
0.0
 10
0.8125000075193268
 20
3.375588436129769
 30
0.0
 10
0.8125000000000016
 20
3.39648219931165
 30
0.0
  0
SPLINE
  5
95
330
1F
100
AcDbEntity
  8
0
  6
Continuous
 62
     7
370
    25
100
AcDbSpline
210
0.0
220
0.0
230
1.0
 70
     8
 71
     3
 72
     9
 73
     5
 74
     0
 42
0.000000001
 43
0.00000001
 40
0.0
 40
0.0
 40
0.0
 40
0.0
 40
0.4958016966415173
 40
0.9999999999999999
 40
0.9999999999999999
 40
0.9999999999999999
 40
0.9999999999999999
 10
-0.8125000000000003
 20
3.39648219931165
 30
0.0
 10
-0.8125000075193253
 20
3.375588436129796
 30
0.0
 10
-0.8125000226853181
 20
3.333447065248285
 30
0.0
 10
-0.8125000076039833
 20
3.291267078004166
 30
0.0
 10
-0.8125000000000003
 20
3.27
 30
0.0
  0
SPLINE
  5
98
330
1F
100
AcDbEntity
  8
0
  6
Continuous
 62
     7
370
    25
100
AcDbSpline
210
0.0
220
0.0
230
1.0
 70
     8
 71
     3
 72
     8
 73
     4
 74
     0
 42
0.000000001
 43
0.00000001
 40
0.0
 40
0.0
 40
0.0
 40
0.0
 40
1.0
 40
1.0
 40
1.0
 40
1.0
 10
-0.3608351099386499
 20
3.394842919186326
 30
0.0
 10
-0.3682060355208305
 20
3.394320227445792
 30
0.0
 10
-0.3755744806907622
 20
3.393797535705258
 30
0.0
 10
-0.3829401087466699
 20
3.393274843964724
 30
0.0
  0
SPLINE
  5
99
330
1F
100
AcDbEntity
  8
0
  6
Continuous
 62
     7
370
    25
100
AcDbSpline
210
0.0
220
0.0
230
1.0
 70
     8
 71
     3
 72
     8
 73
     4
 74
     0
 42
0.000000001
 43
0.00000001
 40
0.0
 40
0.0
 40
0.0
 40
0.0
 40
1.0
 40
1.0
 40
1.0
 40
1.0
 10
-0.3829401087473824
 20
3.393274863512855
 30
0.0
 10
-0.3829404404841513
 20
3.402376942948069
 30
0.0
 10
-0.3829344388389698
 20
3.411479022383282
 30
0.0
 10
-0.3829221050206297
 20
3.420581101818495
 30
0.0
  0
SPLINE
  5
9A
330
1F
100
AcDbEntity
  8
0
  6
Continuous
 62
     7
370
    25
100
AcDbSpline
210
0.0
220
0.0
230
1.0
 70
     8
 71
     3
 72
    11
 73
     7
 74
     0
 42
0.000000001
 43
0.00000001
 40
0.0
 40
0.0
 40
0.0
 40
0.0
 40
0.2502221453754277
 40
0.5002519662301583
 40
0.7499137540153716
 40
1.0
 40
1.0
 40
1.0
 40
1.0
 10
-0.3829221026710941
 20
3.420581186578248
 30
0.0
 10
-0.3828837512726764
 20
3.421897379081138
 30
0.0
 10
-0.3828070779533054
 20
3.424528752441477
 30
0.0
 10
-0.3824574321045365
 20
3.428487125699207
 30
0.0
 10
-0.3814001489750358
 20
3.432420908665897
 30
0.0
 10
-0.3801788033262997
 20
3.434918532811901
 30
0.0
 10
-0.3795676118303815
 20
3.436168405556457
 30
0.0
  0
SPLINE
  5
9B
330
1F
100
AcDbEntity
  8
0
  6
Continuous
 62
     7
370
    25
100
AcDbSpline
210
0.0
220
0.0
230
1.0
 70
     8
 71
     3
 72
    13
 73
     9
 74
     0
 42
0.000000001
 43
0.00000001
 40
0.0
 40
0.0
 40
0.0
 40
0.0
 40
0.1249362104924561
 40
0.2492851048500453
 40
0.4991489646539586
 40
0.7493555007252807
 40
0.8743213005782926
 40
0.9999999999999999
 40
0.9999999999999999
 40
0.9999999999999999
 40
0.9999999999999999
 10
-0.3795676070833454
 20
3.436168412589175
 30
0.0
 10
-0.3788346381620007
 20
3.437260723751416
 30
0.0
 10
-0.3773721459534648
 20
3.43944021119973
 30
0.0
 10
-0.373786054661196
 20
3.44347683388987
 30
0.0
 10
-0.3679264252642278
 20
3.447445613956899
 30
0.0
 10
-0.3612651880958441
 20
3.45011137893356
 30
0.0
 10
-0.3556603903252832
 20
3.451220241543386
 30
0.0
 10
-0.3528358583082242
 20
3.451550925887924
 30
0.0
 10
-0.3514195754398344
 20
3.451716738337274
 30
0.0
  0
SPLINE
  5
9C
330
1F
100
AcDbEntity
  8
0
  6
Continuous
 62
     7
370
    25
100
AcDbSpline
210
0.0
220
0.0
230
1.0
 70
     8
 71
     3
 72
    13
 73
     9
 74
     0
 42
0.000000001
 43
0.00000001
 40
0.0
 40
0.0
 40
0.0
 40
0.0
 40
0.1256761693551397
 40
0.251392425164091
 40
0.5007173187741581
 40
0.7505997212777047
 40
0.8749631702399077
 40
1.0
 40
1.0
 40
1.0
 40
1.0
 10
-0.3514381456878402
 20
3.451715941563846
 30
0.0
 10
-0.3497718240601962
 20
3.451787620005961
 30
0.0
 10
-0.3464386493045825
 20
3.451930999753195
 30
0.0
 10
-0.3398560982910175
 20
3.451500591059266
 30
0.0
 10
-0.3319963767778736
 20
3.44949302333254
 30
0.0
 10
-0.325071811499428
 20
3.445923173781654
 30
0.0
 10
-0.3202014958426335
 20
3.442342141552557
 30
0.0
 10
-0.3179972487239116
 20
3.440347720213876
 30
0.0
 10
-0.3168921494307401
 20
3.439347817075548
 30
0.0
  0
SPLINE
  5
9D
330
1F
100
AcDbEntity
  8
0
  6
Continuous
 62
     7
370
    25
100
AcDbSpline
210
0.0
220
0.0
230
1.0
 70
     8
 71
     3
 72
    13
 73
     9
 74
     0
 42
0.000000001
 43
0.00000001
 40
0.0
 40
0.0
 40
0.0
 40
0.0
 40
0.1250344730577025
 40
0.2500979207110485
 40
0.5000392858467206
 40
0.7500363364291303
 40
0.8750054748699762
 40
1.0
 40
1.0
 40
1.0
 40
1.0
 10
-0.3168921206015594
 20
3.439347787106149
 30
0.0
 10
-0.3152316953537962
 20
3.437615213899247
 30
0.0
 10
-0.3119104600831833
 20
3.434149665991303
 30
0.0
 10
-0.3061593358103222
 20
3.426604900882372
 30
0.0
 10
-0.3005983484986301
 20
3.416281104517766
 30
0.0
 10
-0.2969231811761028
 20
3.40526072543123
 30
0.0
 10
-0.2953553878379238
 20
3.396132180536084
 30
0.0
 10
-0.2951797943149353
 20
3.391493113568584
 30
0.0
 10
-0.2950919886366686
 20
3.389173344509493
 30
0.0
  0
SPLINE
  5
9E
330
1F
100
AcDbEntity
  8
0
  6
Continuous
 62
     7
370
    25
100
AcDbSpline
210
0.0
220
0.0
230
1.0
 70
     8
 71
     3
 72
    13
 73
     9
 74
     0
 42
0.000000001
 43
0.00000001
 40
0.0
 40
0.0
 40
0.0
 40
0.0
 40
0.1250786550662659
 40
0.2501767965730107
 40
0.5000786933799445
 40
0.7500471032327714
 40
0.8750152354707225
 40
1.0
 40
1.0
 40
1.0
 40
1.0
 10
-0.2950919796811
 20
3.389173626976794
 30
0.0
 10
-0.295150326063267
 20
3.387334777854269
 30
0.0
 10
-0.2952670279175877
 20
3.383656793128492
 30
0.0
 10
-0.2961787405925675
 20
3.376299766971067
 30
0.0
 10
-0.2986220021622827
 20
3.367192651044107
 30
0.0
 10
-0.3025946845597559
 20
3.358422590210902
 30
0.0
 10
-0.3066394019065365
 20
3.351719218866374
 30
0.0
 10
-0.3090517654260885
 20
3.348552551394306
 30
0.0
 10
-0.3102580274472524
 20
3.346969112300548
 30
0.0
  0
SPLINE
  5
9F
330
1F
100
AcDbEntity
  8
0
  6
Continuous
 62
     7
370
    25
100
AcDbSpline
210
0.0
220
0.0
230
1.0
 70
     8
 71
     3
 72
    13
 73
     9
 74
     0
 42
0.000000001
 43
0.00000001
 40
0.0
 40
0.0
 40
0.0
 40
0.0
 40
0.1253737233800837
 40
0.2507358504457446
 40
0.499187562191802
 40
0.748441286323577
 40
0.8732062911789193
 40
1.0
 40
1.0
 40
1.0
 40
1.0
 10
-0.3102580274472524
 20
3.346969112300548
 30
0.0
 10
-0.3114129468256499
 20
3.34531072407999
 30
0.0
 10
-0.3137226787593569
 20
3.341994101029798
 30
0.0
 10
-0.3189317121459478
 20
3.335710247129982
 30
0.0
 10
-0.3265873301247859
 20
3.328547706009645
 30
0.0
 10
-0.3361599123074057
 20
3.323307189319331
 30
0.0
 10
-0.3446040927914932
 20
3.320790158482885
 30
0.0
 10
-0.3489741962445326
 20
3.320334784423093
 30
0.0
 10
-0.3511768693964369
 20
3.320105261203251
 30
0.0
  0
SPLINE
  5
A0
330
1F
100
AcDbEntity
  8
0
  6
Continuous
 62
     7
370
    25
100
AcDbSpline
210
0.0
220
0.0
230
1.0
 70
     8
 71
     3
 72
    13
 73
     9
 74
     0
 42
0.000000001
 43
0.00000001
 40
0.0
 40
0.0
 40
0.0
 40
0.0
 40
0.1248421887156655
 40
0.2491734962805647
 40
0.4988349289827766
 40
0.7493738182032696
 40
0.8745283460281771
 40
1.0
 40
1.0
 40
1.0
 40
1.0
 10
-0.3511769077676656
 20
3.320105260315662
 30
0.0
 10
-0.352800793403202
 20
3.320064031696662
 30
0.0
 10
-0.3560419193841629
 20
3.319981743175057
 30
0.0
 10
-0.3624343684295581
 20
3.320679490353112
 30
0.0
 10
-0.3697716230396952
 20
3.323466434226239
 30
0.0
 10
-0.3758781377901128
 20
3.327715786230343
 30
0.0
 10
-0.3802456209982982
 20
3.331575854294811
 30
0.0
 10
-0.382242131566315
 20
3.33365154870393
 30
0.0
 10
-0.3832416499779407
 20
3.334690709133161
 30
0.0
  0
SPLINE
  5
A1
330
1F
100
AcDbEntity
  8
0
  6
Continuous
 62
     7
370
    25
100
AcDbSpline
210
0.0
220
0.0
230
1.0
 70
     8
 71
     3
 72
    11
 73
     7
 74
     0
 42
0.000000001
 43
0.00000001
 40
0.0
 40
0.0
 40
0.0
 40
0.0
 40
0.2511248137677489
 40
0.5000595120289301
 40
0.7499233684405716
 40
1.0
 40
1.0
 40
1.0
 40
1.0
 10
-0.3832416894554355
 20
3.334690756420142
 30
0.0
 10
-0.3839935597370677
 20
3.335589976322358
 30
0.0
 10
-0.3854907430719243
 20
3.337380573829482
 30
0.0
 10
-0.3882009144978488
 20
3.33978561831211
 30
0.0
 10
-0.3918522190130146
 20
3.34106932778062
 30
0.0
 10
-0.3944399373824057
 20
3.341421591059203
 30
0.0
 10
-0.3957343472348024
 20
3.341597797660288
 30
0.0
  0
SPLINE
  5
A2
330
1F
100
AcDbEntity
  8
0
  6
Continuous
 62
     7
370
    25
100
AcDbSpline
210
0.0
220
0.0
230
1.0
 70
     8
 71
     3
 72
    13
 73
     9
 74
     0
 42
0.000000001
 43
0.00000001
 40
0.0
 40
0.0
 40
0.0
 40
0.0
 40
0.0997765769297795
 40
0.2488574782531778
 40
0.498400728394066
 40
0.7488344787267076
 40
0.8487764665056374
 40
1.0
 40
1.0
 40
1.0
 40
1.0
 10
-0.3957343805146398
 20
3.341597788722419
 30
0.0
 10
-0.3964022724090998
 20
3.341417049317495
 30
0.0
 10
-0.3980680931629831
 20
3.340966258621779
 30
0.0
 10
-0.4013724046369478
 20
3.339890768384557
 30
0.0
 10
-0.4050738181864066
 20
3.337212628292769
 30
0.0
 10
-0.4070528330083217
 20
3.333815763540806
 30
0.0
 10
-0.4077942819153776
 20
3.330853531645384
 30
0.0
 10
-0.4080681226384655
 20
3.329362595034762
 30
0.0
 10
-0.4082329986196513
 20
3.328464921256405
 30
0.0
  0
SPLINE
  5
A3
330
1F
100
AcDbEntity
  8
0
  6
Continuous
 62
     7
370
    25
100
AcDbSpline
210
0.0
220
0.0
230
1.0
 70
     8
 71
     3
 72
    12
 73
     8
 74
     0
 42
0.000000001
 43
0.00000001
 40
0.0
 40
0.0
 40
0.0
 40
0.0
 40
0.1536347805842339
 40
0.2509861720688772
 40
0.4997791869651351
 40
0.749898578588535
 40
1.0
 40
1.0
 40
1.0
 40
1.0
 10
-0.4082329978285397
 20
3.328464915730239
 30
0.0
 10
-0.408101270585906
 20
3.327642271622766
 30
0.0
 10
-0.407886073764847
 20
3.326298355260048
 30
0.0
 10
-0.4073131656376901
 20
3.323646773089603
 30
0.0
 10
-0.405639732392136
 20
3.320779198075746
 30
0.0
 10
-0.4027010475241466
 20
3.317780136422429
 30
0.0
 10
-0.4006495592593938
 20
3.315846775183297
 30
0.0
 10
-0.3996238519764225
 20
3.314880129291305
 30
0.0
  0
SPLINE
  5
A4
330
1F
100
AcDbEntity
  8
0
  6
Continuous
 62
     7
370
    25
100
AcDbSpline
210
0.0
220
0.0
230
1.0
 70
     8
 71
     3
 72
    13
 73
     9
 74
     0
 42
0.000000001
 43
0.00000001
 40
0.0
 40
0.0
 40
0.0
 40
0.0
 40
0.1255631235523183
 40
0.2511507435158991
 40
0.5000014610042198
 40
0.7498237776524114
 40
0.8746536755278048
 40
1.0
 40
1.0
 40
1.0
 40
1.0
 10
-0.3996238442825393
 20
3.314880123200677
 30
0.0
 10
-0.3979688118592865
 20
3.313578769945852
 30
0.0
 10
-0.3946584241285316
 20
3.310975809552071
 30
0.0
 10
-0.3874811809339781
 20
3.306373900739736
 30
0.0
 10
-0.3775632413119602
 20
3.30172029961582
 30
0.0
 10
-0.3665191495433424
 20
3.299106737164052
 30
0.0
 10
-0.3573163071535193
 20
3.298295744456465
 30
0.0
 10
-0.3526453769019024
 20
3.298482584481592
 30
0.0
 10
-0.350305090789129
 20
3.298576197336539
 30
0.0
  0
SPLINE
  5
A5
330
1F
100
AcDbEntity
  8
0
  6
Continuous
 62
     7
370
    25
100
AcDbSpline
210
0.0
220
0.0
230
1.0
 70
     8
 71
     3
 72
    13
 73
     9
 74
     0
 42
0.000000001
 43
0.00000001
 40
0.0
 40
0.0
 40
0.0
 40
0.0
 40
0.1249819534769528
 40
0.2499923817115434
 40
0.5000040598435319
 40
0.7499552081737891
 40
0.8749705767007996
 40
1.0
 40
1.0
 40
1.0
 40
1.0
 10
-0.3503051965407016
 20
3.298576188118757
 30
0.0
 10
-0.3485924495368821
 20
3.298727029691816
 30
0.0
 10
-0.34516656531246
 20
3.299028747204314
 30
0.0
 10
-0.3383659646846734
 20
3.300253644373347
 30
0.0
 10
-0.3300136370202812
 20
3.302518377565296
 30
0.0
 10
-0.3220279727558558
 20
3.30576897397028
 30
0.0
 10
-0.3160209691150209
 20
3.308993801926821
 30
0.0
 10
-0.3131879813608421
 20
3.310827609067224
 30
0.0
 10
-0.3117714078640231
 20
3.311744564175675
 30
0.0
  0
SPLINE
  5
A6
330
1F
100
AcDbEntity
  8
0
  6
Continuous
 62
     7
370
    25
100
AcDbSpline
210
0.0
220
0.0
230
1.0
 70
     8
 71
     3
 72
    15
 73
    11
 74
     0
 42
0.000000001
 43
0.00000001
 40
0.0
 40
0.0
 40
0.0
 40
0.0
 40
0.0629180607803449
 40
0.1256090488709153
 40
0.2512563697329187
 40
0.5004817637020464
 40
0.7504719338977547
 40
0.8748208498587215
 40
0.9372217283200266
 40
1.0
 40
1.0
 40
1.0
 40
1.0
 10
-0.3117713485475746
 20
3.311744609349284
 30
0.0
 10
-0.3101178205526089
 20
3.313005278442033
 30
0.0
 10
-0.3068167321822257
 20
3.315522066844555
 30
0.0
 10
-0.3006734282312187
 20
3.320975940888861
 30
0.0
 10
-0.2909246784817782
 20
3.331213357973812
 30
0.0
 10
-0.2801557439597997
 20
3.347717915211829
 30
0.0
 10
-0.2732953022256985
 20
3.365460706142265
 30
0.0
 10
-0.2708453935790535
 20
3.378202571282733
 30
0.0
 10
-0.2700806008675423
 20
3.38551221561712
 30
0.0
 10
-0.2699845588380908
 20
3.389177025071519
 30
0.0
 10
-0.2699363930484142
 20
3.391014954178115
 30
0.0
  0
SPLINE
  5
A7
330
1F
100
AcDbEntity
  8
0
  6
Continuous
 62
     7
370
    25
100
AcDbSpline
210
0.0
220
0.0
230
1.0
 70
     8
 71
     3
 72
    13
 73
     9
 74
     0
 42
0.000000001
 43
0.00000001
 40
0.0
 40
0.0
 40
0.0
 40
0.0
 40
0.1250260766575804
 40
0.2500779436142729
 40
0.5000163621538917
 40
0.7499519438971385
 40
0.8749684251827221
 40
1.0
 40
1.0
 40
1.0
 40
1.0
 10
-0.2699363937356523
 20
3.391014974488107
 30
0.0
 10
-0.2700330321219461
 20
3.39376571559677
 30
0.0
 10
-0.2702263288290383
 20
3.399267765235212
 30
0.0
 10
-0.2718677080293571
 20
3.410127628424144
 30
0.0
 10
-0.2757701580917583
 20
3.423340248341505
 30
0.0
 10
-0.2820834567320017
 20
3.43572330206362
 30
0.0
 10
-0.2885326421539007
 20
3.444902981330483
 30
0.0
 10
-0.292274365002625
 20
3.449164074619662
 30
0.0
 10
-0.2941453393569041
 20
3.451294749869423
 30
0.0
  0
SPLINE
  5
A8
330
1F
100
AcDbEntity
  8
0
  6
Continuous
 62
     7
370
    25
100
AcDbSpline
210
0.0
220
0.0
230
1.0
 70
     8
 71
     3
 72
    13
 73
     9
 74
     0
 42
0.000000001
 43
0.00000001
 40
0.0
 40
0.0
 40
0.0
 40
0.0
 40
0.1256842269633758
 40
0.2513978724072985
 40
0.5005689913801981
 40
0.7506058739044257
 40
0.8748271099886563
 40
1.0
 40
1.0
 40
1.0
 40
1.0
 10
-0.2941453584772041
 20
3.451294769101991
 30
0.0
 10
-0.2958692339175998
 20
3.453026437239422
 30
0.0
 10
-0.2993173883000663
 20
3.45649017883997
 30
0.0
 10
-0.3070646678133893
 20
3.462645506989409
 30
0.0
 10
-0.3180549042116869
 20
3.469033248610611
 30
0.0
 10
-0.3307680523562799
 20
3.472674072490407
 30
0.0
 10
-0.3414659973227565
 20
3.473702178345654
 30
0.0
 10
-0.3468827360104504
 20
3.47351515086589
 30
0.0
 10
-0.3496014401218498
 20
3.473421280290347
 30
0.0
  0
SPLINE
  5
A9
330
1F
100
AcDbEntity
  8
0
  6
Continuous
 62
     7
370
    25
100
AcDbSpline
210
0.0
220
0.0
230
1.0
 70
     8
 71
     3
 72
    14
 73
    10
 74
     0
 42
0.000000001
 43
0.00000001
 40
0.0
 40
0.0
 40
0.0
 40
0.0
 40
0.0718518722997633
 40
0.1435345058955181
 40
0.2871981724461852
 40
0.5716488155006813
 40
0.7860854339365326
 40
0.8926140741655741
 40
1.0
 40
1.0
 40
1.0
 40
1.0
 10
-0.3496014922981938
 20
3.473421275164708
 30
0.0
 10
-0.351022502092406
 20
3.473281861044142
 30
0.0
 10
-0.3538611746580145
 20
3.47300336117671
 30
0.0
 10
-0.3595230744125286
 20
3.472154894453581
 30
0.0
 10
-0.3692267660127405
 20
3.469729335626161
 30
0.0
 10
-0.3811232414247628
 20
3.464701843434773
 30
0.0
 10
-0.391027036443809
 20
3.458035943669356
 30
0.0
 10
-0.3970892353755794
 20
3.452447370914296
 30
0.0
 10
-0.3997065237346236
 20
3.449377967556401
 30
0.0
 10
-0.4010204124462892
 20
3.447837115395594
 30
0.0
  0
SPLINE
  5
AA
330
1F
100
AcDbEntity
  8
0
  6
Continuous
 62
     7
370
    25
100
AcDbSpline
210
0.0
220
0.0
230
1.0
 70
     8
 71
     3
 72
    11
 73
     7
 74
     0
 42
0.000000001
 43
0.00000001
 40
0.0
 40
0.0
 40
0.0
 40
0.0
 40
0.2512093348245203
 40
0.5000458219984013
 40
0.7496487130606646
 40
1.0
 40
1.0
 40
1.0
 40
1.0
 10
-0.4010204330958527
 20
3.447837084940444
 30
0.0
 10
-0.4021914539258272
 20
3.446109302259723
 30
0.0
 10
-0.4045224344760161
 20
3.442670057012649
 30
0.0
 10
-0.4067098859877188
 20
3.43704582004514
 30
0.0
 10
-0.4077996410890291
 20
3.431294006764723
 30
0.0
 10
-0.4078328813802439
 20
3.427469318168031
 30
0.0
 10
-0.4078495264050283
 20
3.425554111226166
 30
0.0
  0
SPLINE
  5
AB
330
1F
100
AcDbEntity
  8
0
  6
Continuous
 62
     7
370
    25
100
AcDbSpline
210
0.0
220
0.0
230
1.0
 70
     8
 71
     3
 72
     8
 73
     4
 74
     0
 42
0.000000001
 43
0.00000001
 40
0.0
 40
0.0
 40
0.0
 40
0.0
 40
1.0
 40
1.0
 40
1.0
 40
1.0
 10
-0.4078495264344772
 20
3.425554101306518
 30
0.0
 10
-0.407890194604396
 20
3.411855434511601
 30
0.0
 10
-0.4079157462541032
 20
3.398156767716683
 30
0.0
 10
-0.4079261764811341
 20
3.384458100921765
 30
0.0
  0
SPLINE
  5
AC
330
1F
100
AcDbEntity
  8
0
  6
Continuous
 62
     7
370
    25
100
AcDbSpline
210
0.0
220
0.0
230
1.0
 70
     8
 71
     3
 72
    13
 73
     9
 74
     0
 42
0.000000001
 43
0.00000001
 40
0.0
 40
0.0
 40
0.0
 40
0.0
 40
0.1246742597525556
 40
0.2486244526886991
 40
0.4975307830272357
 40
0.7465765818559397
 40
0.8732429365056482
 40
1.0
 40
1.0
 40
1.0
 40
1.0
 10
-0.4079261766271495
 20
3.384458100920974
 30
0.0
 10
-0.4079208431353253
 20
3.383459674206192
 30
0.0
 10
-0.4079102071268311
 20
3.38146861930837
 30
0.0
 10
-0.4074830916157875
 20
3.377566474057198
 30
0.0
 10
-0.4054360368789841
 20
3.372677396832168
 30
0.0
 10
-0.3997181199377211
 20
3.370867956069769
 30
0.0
 10
-0.3951088055041003
 20
3.370784183470525
 30
0.0
 10
-0.3927558286539073
 20
3.370973961940416
 30
0.0
 10
-0.3915789191236637
 20
3.371068885139439
 30
0.0
  0
SPLINE
  5
AD
330
1F
100
AcDbEntity
  8
0
  6
Continuous
 62
     7
370
    25
100
AcDbSpline
210
0.0
220
0.0
230
1.0
 70
     8
 71
     3
 72
     9
 73
     5
 74
     0
 42
0.000000001
 43
0.00000001
 40
0.0
 40
0.0
 40
0.0
 40
0.0
 40
0.5000962771296793
 40
1.0
 40
1.0
 40
1.0
 40
1.0
 10
-0.3915789191236636
 20
3.37106888513944
 30
0.0
 10
-0.3866649104871018
 20
3.371428093622599
 30
0.0
 10
-0.3768387852762409
 20
3.372146372281303
 30
0.0
 10
-0.3670016546520556
 20
3.372833916437449
 30
0.0
 10
-0.3620840364306638
 20
3.373177622320746
 30
0.0
  0
SPLINE
  5
AE
330
1F
100
AcDbEntity
  8
0
  6
Continuous
 62
     7
370
    25
100
AcDbSpline
210
0.0
220
0.0
230
1.0
 70
     8
 71
     3
 72
    10
 73
     6
 74
     0
 42
0.000000001
 43
0.00000001
 40
0.0
 40
0.0
 40
0.0
 40
0.0
 40
0.5007773213338435
 40
0.7503929565739372
 40
1.0
 40
1.0
 40
1.0
 40
1.0
 10
-0.3620840364306636
 20
3.373177622320746
 30
0.0
 10
-0.3603843233002582
 20
3.373229596691853
 30
0.0
 10
-0.3578373773685711
 20
3.373307478018222
 30
0.0
 10
-0.3545011900211233
 20
3.374088510501366
 30
0.0
 10
-0.3528843806064131
 20
3.374616816900607
 30
0.0
 10
-0.3520759898120135
 20
3.374880965554051
 30
0.0
  0
SPLINE
  5
AF
330
1F
100
AcDbEntity
  8
0
  6
Continuous
 62
     7
370
    25
100
AcDbSpline
210
0.0
220
0.0
230
1.0
 70
     8
 71
     3
 72
    11
 73
     7
 74
     0
 42
0.000000001
 43
0.00000001
 40
0.0
 40
0.0
 40
0.0
 40
0.0
 40
0.2481590697927362
 40
0.4965233227682075
 40
0.7471441112464137
 40
1.0
 40
1.0
 40
1.0
 40
1.0
 10
-0.3520759312394111
 20
3.374881000290996
 30
0.0
 10
-0.3510530198632908
 20
3.375488381415463
 30
0.0
 10
-0.3490063513462274
 20
3.376703645859993
 30
0.0
 10
-0.3461710179723016
 20
3.378937807062794
 30
0.0
 10
-0.3447063111482316
 20
3.382010507957221
 30
0.0
 10
-0.3443556166966609
 20
3.384113008866304
 30
0.0
 10
-0.3441794910462727
 20
3.385168926170943
 30
0.0
  0
SPLINE
  5
B0
330
1F
100
AcDbEntity
  8
0
  6
Continuous
 62
     7
370
    25
100
AcDbSpline
210
0.0
220
0.0
230
1.0
 70
     8
 71
     3
 72
    11
 73
     7
 74
     0
 42
0.000000001
 43
0.00000001
 40
0.0
 40
0.0
 40
0.0
 40
0.0
 40
0.2508601956688713
 40
0.5005126940136
 40
0.7499482912067283
 40
0.9999999999999999
 40
0.9999999999999999
 40
0.9999999999999999
 40
0.9999999999999999
 10
-0.3441794910462727
 20
3.385168926170943
 30
0.0
 10
-0.3443234971892653
 20
3.38602573041009
 30
0.0
 10
-0.3446108161973351
 20
3.387735214040343
 30
0.0
 10
-0.3454551350276144
 20
3.39023538959181
 30
0.0
 10
-0.3473346046158934
 20
3.392229060644444
 30
0.0
 10
-0.3488723569026944
 20
3.393260469291167
 30
0.0
 10
-0.3496421814455944
 20
3.393776809729625
 30
0.0
  0
SPLINE
  5
B1
330
1F
100
AcDbEntity
  8
0
  6
Continuous
 62
     7
370
    25
100
AcDbSpline
210
0.0
220
0.0
230
1.0
 70
     8
 71
     3
 72
    11
 73
     7
 74
     0
 42
0.000000001
 43
0.00000001
 40
0.0
 40
0.0
 40
0.0
 40
0.0
 40
0.2502546267343251
 40
0.5000946189893943
 40
0.7497862569687235
 40
1.0
 40
1.0
 40
1.0
 40
1.0
 10
-0.3496422043148286
 20
3.39377681634905
 30
0.0
 10
-0.3505307918140865
 20
3.39403344982819
 30
0.0
 10
-0.3523064945560459
 20
3.394546291583187
 30
0.0
 10
-0.3550690045742996
 20
3.395104587321592
 30
0.0
 10
-0.3579556428078748
 20
3.395132006519344
 30
0.0
 10
-0.3598746194970189
 20
3.394939348701772
 30
0.0
 10
-0.3608351099386498
 20
3.394842919186326
 30
0.0
  0
SPLINE
  5
B2
330
1F
100
AcDbEntity
  8
0
  6
Continuous
 62
     7
370
    25
100
AcDbSpline
210
0.0
220
0.0
230
1.0
 70
     8
 71
     3
 72
     9
 73
     5
 74
     0
 42
0.000000001
 43
0.00000001
 40
0.0
 40
0.0
 40
0.0
 40
0.0
 40
0.4984650006738454
 40
1.0
 40
1.0
 40
1.0
 40
1.0
 10
-0.2348295606314064
 20
3.460252635133546
 30
0.0
 10
-0.2272209525528937
 20
3.451584136103354
 30
0.0
 10
-0.2119568757005028
 20
3.434193749579778
 30
0.0
 10
-0.196662404606052
 20
3.416698169788635
 30
0.0
 10
-0.1889916920560027
 20
3.407923524189873
 30
0.0
  0
SPLINE
  5
B3
330
1F
100
AcDbEntity
  8
0
  6
Continuous
 62
     7
370
    25
100
AcDbSpline
210
0.0
220
0.0
230
1.0
 70
     8
 71
     3
 72
    15
 73
    11
 74
     0
 42
0.000000001
 43
0.00000001
 40
0.0
 40
0.0
 40
0.0
 40
0.0
 40
0.062680018313913
 40
0.1250197847912377
 40
0.2497662772691294
 40
0.4992133771616704
 40
0.7488106579542092
 40
0.8739472212019244
 40
0.9367766768443572
 40
1.0
 40
1.0
 40
1.0
 40
1.0
 10
-0.1889775028917921
 20
3.407926686484262
 30
0.0
 10
-0.1906922326114887
 20
3.407544712074155
 30
0.0
 10
-0.1941123838223256
 20
3.406782836761546
 30
0.0
 10
-0.2008178232445799
 20
3.40482119213715
 30
0.0
 10
-0.2121093846591427
 20
3.400262894359525
 30
0.0
 10
-0.2259153095942444
 20
3.389905651857572
 30
0.0
 10
-0.2346319978982639
 20
3.376109305913229
 30
0.0
 10
-0.2374631644038591
 20
3.365708755677761
 30
0.0
 10
-0.2382680593847982
 20
3.359670880934247
 30
0.0
 10
-0.2383775839096304
 20
3.356637956334858
 30
0.0
 10
-0.2384325172835152
 20
3.355116755660963
 30
0.0
  0
SPLINE
  5
B4
330
1F
100
AcDbEntity
  8
0
  6
Continuous
 62
     7
370
    25
100
AcDbSpline
210
0.0
220
0.0
230
1.0
 70
     8
 71
     3
 72
    17
 73
    13
 74
     0
 42
0.000000001
 43
0.00000001
 40
0.0
 40
0.0
 40
0.0
 40
0.0
 40
0.0625612964276726
 40
0.1248298895322144
 40
0.2499238791868477
 40
0.3740423516421193
 40
0.4995171982951245
 40
0.6242768330235872
 40
0.7492867942242961
 40
0.8746761059047619
 40
0.9372299533439559
 40
1.0
 40
1.0
 40
1.0
 40
1.0
 10
-0.2384325167483886
 20
3.35511674525659
 30
0.0
 10
-0.2383438794326535
 20
3.353401712742611
 30
0.0
 10
-0.2381670195054549
 20
3.349979671776567
 30
0.0
 10
-0.2370808058856742
 20
3.343211697038241
 30
0.0
 10
-0.2343098500529299
 20
3.335043030337427
 30
0.0
 10
-0.2285346136369704
 20
3.326162045531678
 30
0.0
 10
-0.2204625074796889
 20
3.318780252224538
 30
0.0
 10
-0.2107173843124816
 20
3.313019757593742
 30
0.0
 10
-0.1996840887510845
 20
3.309167044364113
 30
0.0
 10
-0.1898593913183673
 20
3.307609293449977
 30
0.0
 10
-0.1818790701319414
 20
3.307061265465066
 30
0.0
 10
-0.1778643743860325
 20
3.307074080134562
 30
0.0
 10
-0.1758535635897369
 20
3.307080498522756
 30
0.0
  0
SPLINE
  5
B5
330
1F
100
AcDbEntity
  8
0
  6
Continuous
 62
     7
370
    25
100
AcDbSpline
210
0.0
220
0.0
230
1.0
 70
     8
 71
     3
 72
     9
 73
     5
 74
     0
 42
0.000000001
 43
0.00000001
 40
0.0
 40
0.0
 40
0.0
 40
0.0
 40
0.5000000192623762
 40
1.0
 40
1.0
 40
1.0
 40
1.0
 10
-0.1758535781078893
 20
3.307080498099686
 30
0.0
 10
-0.167205534476948
 20
3.307351094713399
 30
0.0
 10
-0.1499094478813928
 20
3.307892287919975
 30
0.0
 10
-0.1326003775120019
 20
3.308309089486259
 30
0.0
 10
-0.1239458426607202
 20
3.308517490261372
 30
0.0
  0
SPLINE
  5
B6
330
1F
100
AcDbEntity
  8
0
  6
Continuous
 62
     7
370
    25
100
AcDbSpline
210
0.0
220
0.0
230
1.0
 70
     8
 71
     3
 72
    14
 73
    10
 74
     0
 42
0.000000001
 43
0.00000001
 40
0.0
 40
0.0
 40
0.0
 40
0.0
 40
0.1248740447771278
 40
0.2494117289863705
 40
0.4984613754678414
 40
0.6211107156115243
 40
0.7491442355449305
 40
0.8741644253264574
 40
0.9999999999999999
 40
0.9999999999999999
 40
0.9999999999999999
 40
0.9999999999999999
 10
-0.1239458426607202
 20
3.308517490261371
 30
0.0
 10
-0.1226924644354591
 20
3.308541637428627
 30
0.0
 10
-0.1201890840829273
 20
3.308589866720359
 30
0.0
 10
-0.1152146639958288
 20
3.309133964435765
 30
0.0
 10
-0.1104077563582632
 20
3.311050652696431
 30
0.0
 10
-0.107164372898789
 20
3.314487406536643
 30
0.0
 10
-0.105770590810376
 20
3.317570537276037
 30
0.0
 10
-0.1052951832750124
 20
3.32083485416882
 30
0.0
 10
-0.1053391956714802
 20
3.322993364926338
 30
0.0
 10
-0.1053612733989516
 20
3.324076128331042
 30
0.0
  0
SPLINE
  5
B8
330
1F
100
AcDbEntity
  8
0
  6
Continuous
 62
     7
370
    25
100
AcDbSpline
210
0.0
220
0.0
230
1.0
 70
     8
 71
     3
 72
     9
 73
     5
 74
     0
 42
0.000000001
 43
0.00000001
 40
0.0
 40
0.0
 40
0.0
 40
0.0
 40
0.5001250198321404
 40
1.0
 40
1.0
 40
1.0
 40
1.0
 10
-0.1054035352217234
 20
3.468922736739673
 30
0.0
 10
-0.1053577525828341
 20
3.470143119113654
 30
0.0
 10
-0.1052662101942837
 20
3.472583273726175
 30
0.0
 10
-0.1055353889172251
 20
3.475006401434867
 30
0.0
 10
-0.1056699446260171
 20
3.476217662350193
 30
0.0
  0
SPLINE
  5
B9
330
1F
100
AcDbEntity
  8
0
  6
Continuous
 62
     7
370
    25
100
AcDbSpline
210
0.0
220
0.0
230
1.0
 70
     8
 71
     3
 72
    12
 73
     8
 74
     0
 42
0.000000001
 43
0.00000001
 40
0.0
 40
0.0
 40
0.0
 40
0.0
 40
0.2506573532635957
 40
0.4999407920597319
 40
0.7490485951301723
 40
0.8467684936423677
 40
1.0
 40
1.0
 40
1.0
 40
1.0
 10
-0.1056699469266747
 20
3.47621766624288
 30
0.0
 10
-0.1062898981029692
 20
3.477266568078865
 30
0.0
 10
-0.1075264023510178
 20
3.479358622462461
 30
0.0
 10
-0.1100381081365128
 20
3.48226052856997
 30
0.0
 10
-0.1132082080788939
 20
3.483349032567622
 30
0.0
 10
-0.1159298529770245
 20
3.48369925365582
 30
0.0
 10
-0.1173075254605673
 20
3.483831108077759
 30
0.0
 10
-0.1181487354551087
 20
3.483911618691772
 30
0.0
  0
SPLINE
  5
BA
330
1F
100
AcDbEntity
  8
0
  6
Continuous
 62
     7
370
    25
100
AcDbSpline
210
0.0
220
0.0
230
1.0
 70
     8
 71
     3
 72
    13
 73
     9
 74
     0
 42
0.000000001
 43
0.00000001
 40
0.0
 40
0.0
 40
0.0
 40
0.0
 40
0.1254009648815344
 40
0.2504852196871766
 40
0.3754517048088805
 40
0.5007283078844692
 40
0.7494311457203148
 40
1.0
 40
1.0
 40
1.0
 40
1.0
 10
-0.1181487736767541
 20
3.483911616293703
 30
0.0
 10
-0.119143864278772
 20
3.483850691021373
 30
0.0
 10
-0.1211315323026229
 20
3.483728994348316
 30
0.0
 10
-0.1240893826500042
 20
3.483071209885404
 30
0.0
 10
-0.1265693905615546
 20
3.481490844745824
 30
0.0
 10
-0.1290596988252299
 20
3.478731361668009
 30
0.0
 10
-0.1304667535555221
 20
3.474475504464173
 30
0.0
 10
-0.1305724306273898
 20
3.471071736402469
 30
0.0
 10
-0.1306254666461341
 20
3.46936349161927
 30
0.0
  0
SPLINE
  5
BB
330
1F
100
AcDbEntity
  8
0
  6
Continuous
 62
     7
370
    25
100
AcDbSpline
210
0.0
220
0.0
230
1.0
 70
     8
 71
     3
 72
     8
 73
     4
 74
     0
 42
0.000000001
 43
0.00000001
 40
0.0
 40
0.0
 40
0.0
 40
0.0
 40
1.0
 40
1.0
 40
1.0
 40
1.0
 10
-0.130625466653729
 20
3.469363477687195
 30
0.0
 10
-0.1306361694061227
 20
3.449730423494709
 30
0.0
 10
-0.1306367111533785
 20
3.430097369302224
 30
0.0
 10
-0.1306270914005426
 20
3.410464315109738
 30
0.0
  0
SPLINE
  5
BC
330
1F
100
AcDbEntity
  8
0
  6
Continuous
 62
     7
370
    25
100
AcDbSpline
210
0.0
220
0.0
230
1.0
 70
     8
 71
     3
 72
     9
 73
     5
 74
     0
 42
0.000000001
 43
0.00000001
 40
0.0
 40
0.0
 40
0.0
 40
0.0
 40
0.4999657587489277
 40
1.0
 40
1.0
 40
1.0
 40
1.0
 10
-0.1306270927444362
 20
3.410464315076477
 30
0.0
 10
-0.1351547986831651
 20
3.410347144165757
 30
0.0
 10
-0.1442108307403578
 20
3.410112786294908
 30
0.0
 10
-0.1532632600906265
 20
3.409852236364099
 30
0.0
 10
-0.1577897847322671
 20
3.409721952477139
 30
0.0
  0
SPLINE
  5
BD
330
1F
100
AcDbEntity
  8
0
  6
Continuous
 62
     7
370
    25
100
AcDbSpline
210
0.0
220
0.0
230
1.0
 70
     8
 71
     3
 72
     9
 73
     5
 74
     0
 42
0.000000001
 43
0.00000001
 40
0.0
 40
0.0
 40
0.0
 40
0.0
 40
0.501873590168593
 40
1.0
 40
1.0
 40
1.0
 40
1.0
 10
-0.1577898016726792
 20
3.40972197163171
 30
0.0
 10
-0.1673380107295921
 20
3.420496487074876
 30
0.0
 10
-0.1863631382596249
 20
3.441965071304517
 30
0.0
 10
-0.2053444706533503
 20
3.463273966637009
 30
0.0
 10
-0.2147995736124533
 20
3.473888490166457
 30
0.0
  0
SPLINE
  5
BE
330
1F
100
AcDbEntity
  8
0
  6
Continuous
 62
     7
370
    25
100
AcDbSpline
210
0.0
220
0.0
230
1.0
 70
     8
 71
     3
 72
    11
 73
     7
 74
     0
 42
0.000000001
 43
0.00000001
 40
0.0
 40
0.0
 40
0.0
 40
0.0
 40
0.2506525154712748
 40
0.4995957531485446
 40
0.7488073638869889
 40
1.0
 40
1.0
 40
1.0
 40
1.0
 10
-0.2147995736124532
 20
3.473888490166457
 30
0.0
 10
-0.2155029152700059
 20
3.474681342194678
 30
0.0
 10
-0.2169048022786606
 20
3.476261639545491
 30
0.0
 10
-0.2194603876667087
 20
3.478364954748572
 30
0.0
 10
-0.2229060469678607
 20
3.479261583571485
 30
0.0
 10
-0.2252704007362128
 20
3.479347288722348
 30
0.0
 10
-0.2264572576813985
 20
3.479390310944698
 30
0.0
  0
SPLINE
  5
BF
330
1F
100
AcDbEntity
  8
0
  6
Continuous
 62
     7
370
    25
100
AcDbSpline
210
0.0
220
0.0
230
1.0
 70
     8
 71
     3
 72
    13
 73
     9
 74
     0
 42
0.000000001
 43
0.00000001
 40
0.0
 40
0.0
 40
0.0
 40
0.0
 40
0.1504857627106024
 40
0.2493927083003768
 40
0.4991653873298109
 40
0.7490293228541695
 40
0.8920865644824465
 40
1.0
 40
1.0
 40
1.0
 40
1.0
 10
-0.226457298101707
 20
3.479390304670387
 30
0.0
 10
-0.2274284481188158
 20
3.479224980869639
 30
0.0
 10
-0.2290378876336917
 20
3.478950997805247
 30
0.0
 10
-0.2322273259710338
 20
3.478232502736995
 30
0.0
 10
-0.2357637757325122
 20
3.476377539169392
 30
0.0
 10
-0.2382120323152233
 20
3.473163345705106
 30
0.0
 10
-0.2389659270740389
 20
3.47038287475914
 30
0.0
 10
-0.2392304252229388
 20
3.468983172259903
 30
0.0
 10
-0.2393441552580985
 20
3.468381322246537
 30
0.0
  0
SPLINE
  5
C0
330
1F
100
AcDbEntity
  8
0
  6
Continuous
 62
     7
370
    25
100
AcDbSpline
210
0.0
220
0.0
230
1.0
 70
     8
 71
     3
 72
    11
 73
     7
 74
     0
 42
0.000000001
 43
0.00000001
 40
0.0
 40
0.0
 40
0.0
 40
0.0
 40
0.2507461755417223
 40
0.4990682785050456
 40
0.7486068811194057
 40
1.0
 40
1.0
 40
1.0
 40
1.0
 10
-0.2393441552580985
 20
3.468381322246537
 30
0.0
 10
-0.2392525421390126
 20
3.467743181641957
 30
0.0
 10
-0.239070201564797
 20
3.466473069616188
 30
0.0
 10
-0.2385498725765341
 20
3.464600081844599
 30
0.0
 10
-0.2374378428089841
 20
3.462944825828052
 30
0.0
 10
-0.2364969954719771
 20
3.461977791992459
 30
0.0
 10
-0.2360248302321021
 20
3.461492485030329
 30
0.0
  0
SPLINE
  5
C1
330
1F
100
AcDbEntity
  8
0
  6
Continuous
 62
     7
370
    25
100
AcDbSpline
210
0.0
220
0.0
230
1.0
 70
     8
 71
     3
 72
     9
 73
     5
 74
     0
 42
0.000000001
 43
0.00000001
 40
0.0
 40
0.0
 40
0.0
 40
0.0
 40
0.5000204606335437
 40
1.0
 40
1.0
 40
1.0
 40
1.0
 10
-0.2360334695168475
 20
3.461498855297805
 30
0.0
 10
-0.2357916961590459
 20
3.461321148270581
 30
0.0
 10
-0.2353081692299774
 20
3.46096574875953
 30
0.0
 10
-0.2349890924785885
 20
3.460490333190672
 30
0.0
 10
-0.2348295606314065
 20
3.460252635133546
 30
0.0
  0
SPLINE
  5
C3
330
1F
100
AcDbEntity
  8
0
  6
Continuous
 62
     7
370
    25
100
AcDbSpline
210
0.0
220
0.0
230
1.0
 70
     8
 71
     3
 72
    11
 73
     7
 74
     0
 42
0.000000001
 43
0.00000001
 40
0.0
 40
0.0
 40
0.0
 40
0.0
 40
0.2256694985148835
 40
0.4146695119199078
 40
0.6877123574494378
 40
1.0
 40
1.0
 40
1.0
 40
1.0
 10
0.0400018406992963
 20
3.331434942611694
 30
0.0
 10
0.0327455620230268
 20
3.331476994293222
 30
0.0
 10
0.019412091807312
 20
3.331554264595009
 30
0.0
 10
-0.0027025207993083
 20
3.331602167754641
 30
0.0
 10
-0.0276027518517179
 20
3.331526113445622
 30
0.0
 10
-0.0464224069141695
 20
3.331370701070742
 30
0.0
 10
-0.0564631374634102
 20
3.331287784897465
 30
0.0
  0
SPLINE
  5
C4
330
1F
100
AcDbEntity
  8
0
  6
Continuous
 62
     7
370
    25
100
AcDbSpline
210
0.0
220
0.0
230
1.0
 70
     8
 71
     3
 72
    13
 73
     9
 74
     0
 42
0.000000001
 43
0.00000001
 40
0.0
 40
0.0
 40
0.0
 40
0.0
 40
0.248474203283215
 40
0.4975423240669123
 40
0.6231561297223372
 40
0.7485428159883823
 40
0.8737995834075688
 40
1.0
 40
1.0
 40
1.0
 40
1.0
 10
-0.0564631374466653
 20
3.331287784331351
 30
0.0
 10
-0.0584725220301339
 20
3.3312283433934
 30
0.0
 10
-0.0624960941450375
 20
3.331109319438309
 30
0.0
 10
-0.0674962622108883
 20
3.3297978377828
 30
0.0
 10
-0.0706680422106809
 20
3.327533573371442
 30
0.0
 10
-0.0724402523195192
 20
3.325321942046289
 30
0.0
 10
-0.0731592619276295
 20
3.322727694661459
 30
0.0
 10
-0.0732735785344633
 20
3.32098425854636
 30
0.0
 10
-0.0733309513371636
 20
3.320109269172353
 30
0.0
  0
SPLINE
  5
C5
330
1F
100
AcDbEntity
  8
0
  6
Continuous
 62
     7
370
    25
100
AcDbSpline
210
0.0
220
0.0
230
1.0
 70
     8
 71
     3
 72
    13
 73
     9
 74
     0
 42
0.000000001
 43
0.00000001
 40
0.0
 40
0.0
 40
0.0
 40
0.0
 40
0.1251277150505936
 40
0.250336230773155
 40
0.3725431797701197
 40
0.5004818077343977
 40
0.7498395572788991
 40
1.0
 40
1.0
 40
1.0
 40
1.0
 10
-0.0733309785078331
 20
3.320109505393877
 30
0.0
 10
-0.0732369956832553
 20
3.319297776639587
 30
0.0
 10
-0.0730489693451037
 20
3.317673794960732
 30
0.0
 10
-0.0724708162514319
 20
3.315277612700826
 30
0.0
 10
-0.0710080792105108
 20
3.313128780223485
 30
0.0
 10
-0.06806055558443
 20
3.311027251795809
 30
0.0
 10
-0.0634133016657163
 20
3.309680360583735
 30
0.0
 10
-0.059599551649698
 20
3.309645279561456
 30
0.0
 10
-0.0576896124178403
 20
3.309627710863859
 30
0.0
  0
SPLINE
  5
C6
330
1F
100
AcDbEntity
  8
0
  6
Continuous
 62
     7
370
    25
100
AcDbSpline
210
0.0
220
0.0
230
1.0
 70
     8
 71
     3
 72
    12
 73
     8
 74
     0
 42
0.000000001
 43
0.00000001
 40
0.0
 40
0.0
 40
0.0
 40
0.0
 40
0.2742245156418289
 40
0.4999998266871442
 40
0.5431891507677927
 40
0.752561157549008
 40
1.0
 40
1.0
 40
1.0
 40
1.0
 10
-0.0576896260866435
 20
3.309627710784095
 30
0.0
 10
-0.0479823654662237
 20
3.309709589962797
 30
0.0
 10
-0.0302828953205411
 20
3.309858882140648
 30
0.0
 10
-0.0110515464041428
 20
3.309931421053116
 30
0.0
 10
0.0058835507733944
 20
3.309937447857155
 30
0.0
 10
0.0235859042251316
 20
3.309891832990274
 30
0.0
 10
0.0397572907035568
 20
3.309778753309448
 30
0.0
 10
0.0485167787012141
 20
3.309717501906652
 30
0.0
  0
SPLINE
  5
C7
330
1F
100
AcDbEntity
  8
0
  6
Continuous
 62
     7
370
    25
100
AcDbSpline
210
0.0
220
0.0
230
1.0
 70
     8
 71
     3
 72
    13
 73
     9
 74
     0
 42
0.000000001
 43
0.00000001
 40
0.0
 40
0.0
 40
0.0
 40
0.0
 40
0.1255947824946405
 40
0.2510716656773325
 40
0.4997917331529663
 40
0.7480385857069852
 40
0.8740069664277037
 40
1.0
 40
1.0
 40
1.0
 40
1.0
 10
0.0485167787012147
 20
3.309717501906651
 30
0.0
 10
0.0496796155136262
 20
3.309703828556815
 30
0.0
 10
0.0520041975512242
 20
3.309676494692696
 30
0.0
 10
0.0565719415117968
 20
3.309992478379656
 30
0.0
 10
0.0624108188717274
 20
3.311770561858688
 30
0.0
 10
0.0647991346913491
 20
3.31669068791222
 30
0.0
 10
0.0652837092586625
 20
3.320603313485393
 30
0.0
 10
0.0652866946157008
 20
3.322603743968066
 30
0.0
 10
0.0652881874402692
 20
3.32360405707422
 30
0.0
  0
SPLINE
  5
C9
330
1F
100
AcDbEntity
  8
0
  6
Continuous
 62
     7
370
    25
100
AcDbSpline
210
0.0
220
0.0
230
1.0
 70
     8
 71
     3
 72
    13
 73
     9
 74
     0
 42
0.000000001
 43
0.00000001
 40
0.0
 40
0.0
 40
0.0
 40
0.0
 40
0.1253223449667399
 40
0.2503598996402255
 40
0.4991110034442314
 40
0.7476749355669016
 40
0.8737895560215212
 40
1.0
 40
1.0
 40
1.0
 40
1.0
 10
0.0652435010379629
 20
3.470503055429174
 30
0.0
 10
0.065275375005404
 20
3.471492533911388
 30
0.0
 10
0.0653390505078999
 20
3.473469242323353
 30
0.0
 10
0.065018725451264
 20
3.477372278007919
 30
0.0
 10
0.0629583109465279
 20
3.482422605712018
 30
0.0
 10
0.0571964880173264
 20
3.484531765113207
 30
0.0
 10
0.0526447985513665
 20
3.484990755697126
 30
0.0
 10
0.0503198494038778
 20
3.485013831105927
 30
0.0
 10
0.0491569333662214
 20
3.485025373191911
 30
0.0
  0
SPLINE
  5
CA
330
1F
100
AcDbEntity
  8
0
  6
Continuous
 62
     7
370
    25
100
AcDbSpline
210
0.0
220
0.0
230
1.0
 70
     8
 71
     3
 72
    11
 73
     7
 74
     0
 42
0.000000001
 43
0.00000001
 40
0.0
 40
0.0
 40
0.0
 40
0.0
 40
0.2526791266645378
 40
0.4654108321215565
 40
0.7124775190405899
 40
1.0
 40
1.0
 40
1.0
 40
1.0
 10
0.0491569488234659
 20
3.485025373095907
 30
0.0
 10
0.0402614371016898
 20
3.48509117626648
 30
0.0
 10
0.0238767536209869
 20
3.48521237942551
 30
0.0
 10
-0.0012088821774896
 20
3.485282802392295
 30
0.0
 10
-0.0275214618654826
 20
3.485197856516846
 30
0.0
 10
-0.0463408556037144
 20
3.485037353062532
 30
0.0
 10
-0.0564626446389137
 20
3.484951028172017
 30
0.0
  0
SPLINE
  5
CB
330
1F
100
AcDbEntity
  8
0
  6
Continuous
 62
     7
370
    25
100
AcDbSpline
210
0.0
220
0.0
230
1.0
 70
     8
 71
     3
 72
    13
 73
     9
 74
     0
 42
0.000000001
 43
0.00000001
 40
0.0
 40
0.0
 40
0.0
 40
0.0
 40
0.2492488921420496
 40
0.498761299015724
 40
0.6239687579507669
 40
0.7489377194362343
 40
0.8742069764379087
 40
1.0
 40
1.0
 40
1.0
 40
1.0
 10
-0.0564626446155448
 20
3.484951027275139
 30
0.0
 10
-0.0585580887633411
 20
3.484896479016596
 30
0.0
 10
-0.0627511924364925
 20
3.484787324829163
 30
0.0
 10
-0.0679893468200641
 20
3.483660203222298
 30
0.0
 10
-0.0715179813180148
 20
3.481588090449853
 30
0.0
 10
-0.0736045212262709
 20
3.479429028130971
 30
0.0
 10
-0.0744130215851432
 20
3.476729706654153
 30
0.0
 10
-0.0745203668309796
 20
3.474920211223465
 30
0.0
 10
-0.0745741514258158
 20
3.474013576021884
 30
0.0
  0
SPLINE
  5
CC
330
1F
100
AcDbEntity
  8
0
  6
Continuous
 62
     7
370
    25
100
AcDbSpline
210
0.0
220
0.0
230
1.0
 70
     8
 71
     3
 72
    11
 73
     7
 74
     0
 42
0.000000001
 43
0.00000001
 40
0.0
 40
0.0
 40
0.0
 40
0.0
 40
0.2503816231464228
 40
0.4993167454987394
 40
0.7487115104193943
 40
1.0
 40
1.0
 40
1.0
 40
1.0
 10
-0.0745741503280567
 20
3.474013570779443
 30
0.0
 10
-0.0743486557218947
 20
3.472940136460171
 30
0.0
 10
-0.0738989692334799
 20
3.470799469249574
 30
0.0
 10
-0.0726168686259915
 20
3.467640782801044
 30
0.0
 10
-0.069685784479337
 20
3.465402323666822
 30
0.0
 10
-0.0674083241334428
 20
3.464435904669075
 30
0.0
 10
-0.0662652869632272
 20
3.463950867536193
 30
0.0
  0
SPLINE
  5
CD
330
1F
100
AcDbEntity
  8
0
  6
Continuous
 62
     7
370
    25
100
AcDbSpline
210
0.0
220
0.0
230
1.0
 70
     8
 71
     3
 72
     9
 73
     5
 74
     0
 42
0.000000001
 43
0.00000001
 40
0.0
 40
0.0
 40
0.0
 40
0.0
 40
0.5000119703289541
 40
1.0
 40
1.0
 40
1.0
 40
1.0
 10
-0.066265301417425
 20
3.463950870582643
 30
0.0
 10
-0.0649011821793202
 20
3.463674081091143
 30
0.0
 10
-0.062173009017371
 20
3.463120515360872
 30
0.0
 10
-0.0593614642576322
 20
3.463231963313509
 30
0.0
 10
-0.0579557255328785
 20
3.46328768595576
 30
0.0
  0
SPLINE
  5
CE
330
1F
100
AcDbEntity
  8
0
  6
Continuous
 62
     7
370
    25
100
AcDbSpline
210
0.0
220
0.0
230
1.0
 70
     8
 71
     3
 72
    12
 73
     8
 74
     0
 42
0.000000001
 43
0.00000001
 40
0.0
 40
0.0
 40
0.0
 40
0.0
 40
0.2775822845176746
 40
0.5000048027316539
 40
0.5916504406372578
 40
0.7788073411629124
 40
1.0
 40
1.0
 40
1.0
 40
1.0
 10
-0.0579557255328771
 20
3.46328768595576
 30
0.0
 10
-0.0488929431365527
 20
3.463368739218486
 30
0.0
 10
-0.0325682892338448
 20
3.463514739244068
 30
0.0
 10
-0.0132483380088832
 20
3.4636031778123
 30
0.0
 10
0.0031188473634718
 20
3.46361482428291
 30
0.0
 10
0.0194460742552777
 20
3.4635798819811
 30
0.0
 10
0.0327795135442011
 20
3.463499718932215
 30
0.0
 10
0.0400019013737909
 20
3.463456296630131
 30
0.0
  0
SPLINE
  5
CF
330
1F
100
AcDbEntity
  8
0
  6
Continuous
 62
     7
370
    25
100
AcDbSpline
210
0.0
220
0.0
230
1.0
 70
     8
 71
     3
 72
     8
 73
     4
 74
     0
 42
0.000000001
 43
0.00000001
 40
0.0
 40
0.0
 40
0.0
 40
0.0
 40
1.0
 40
1.0
 40
1.0
 40
1.0
 10
0.0400019013763473
 20
3.463456282156701
 30
0.0
 10
0.0400057962954429
 20
3.441401926340368
 30
0.0
 10
0.0400057862710585
 20
3.419347570524036
 30
0.0
 10
0.040001871283324
 20
3.397293214707704
 30
0.0
  0
SPLINE
  5
D0
330
1F
100
AcDbEntity
  8
0
  6
Continuous
 62
     7
370
    25
100
AcDbSpline
210
0.0
220
0.0
230
1.0
 70
     8
 71
     3
 72
    11
 73
     7
 74
     0
 42
0.000000001
 43
0.00000001
 40
0.0
 40
0.0
 40
0.0
 40
0.0
 40
0.281959502427113
 40
0.5000006948359639
 40
0.5761349558580524
 40
1.0
 40
1.0
 40
1.0
 40
1.0
 10
0.0400018700956359
 20
3.397293214716663
 30
0.0
 10
0.0334765214333445
 20
3.397332488630552
 30
0.0
 10
0.0219050764665764
 20
3.397402133327977
 30
0.0
 10
0.0085706709933743
 20
3.397444111569568
 30
0.0
 10
-0.0080481016299728
 20
3.397446217817641
 30
0.0
 10
-0.0196201491931648
 20
3.397400898879861
 30
0.0
 10
-0.0294301357281979
 20
3.397362480599347
 30
0.0
  0
SPLINE
  5
D1
330
1F
100
AcDbEntity
  8
0
  6
Continuous
 62
     7
370
    25
100
AcDbSpline
210
0.0
220
0.0
230
1.0
 70
     8
 71
     3
 72
    13
 73
     9
 74
     0
 42
0.000000001
 43
0.00000001
 40
0.0
 40
0.0
 40
0.0
 40
0.0
 40
0.2504503614308693
 40
0.4992111075387676
 40
0.6240804224975884
 40
0.7490782346190894
 40
0.8741484473270044
 40
1.0
 40
1.0
 40
1.0
 40
1.0
 10
-0.0294301357102727
 20
3.397362479807295
 30
0.0
 10
-0.0314457864286815
 20
3.397317808199409
 30
0.0
 10
-0.0354634896645619
 20
3.39722876635207
 30
0.0
 10
-0.0404701216342734
 20
3.396039036782842
 30
0.0
 10
-0.0436821826164881
 20
3.393875732213064
 30
0.0
 10
-0.0454960883364713
 20
3.39171617687383
 30
0.0
 10
-0.0461911748368078
 20
3.389133262113205
 30
0.0
 10
-0.0462721139468539
 20
3.387401178785207
 30
0.0
 10
-0.0463127095191663
 20
3.386532440372434
 30
0.0
  0
SPLINE
  5
D2
330
1F
100
AcDbEntity
  8
0
  6
Continuous
 62
     7
370
    25
100
AcDbSpline
210
0.0
220
0.0
230
1.0
 70
     8
 71
     3
 72
    13
 73
     9
 74
     0
 42
0.000000001
 43
0.00000001
 40
0.0
 40
0.0
 40
0.0
 40
0.0
 40
0.1253196740975738
 40
0.2507089680120485
 40
0.3730724661108747
 40
0.5009608193967491
 40
0.7502475462650858
 40
0.9999999999999999
 40
0.9999999999999999
 40
0.9999999999999999
 40
0.9999999999999999
 10
-0.0463127095191663
 20
3.386532440372434
 30
0.0
 10
-0.0462316265066301
 20
3.38570616783688
 30
0.0
 10
-0.0460694154368787
 20
3.384053163740139
 30
0.0
 10
-0.0455229520100634
 20
3.381609280199203
 30
0.0
 10
-0.044076064646036
 20
3.379402257127004
 30
0.0
 10
-0.041123665397087
 20
3.377218202476635
 30
0.0
 10
-0.0364249111587946
 20
3.375785400056739
 30
0.0
 10
-0.0325589192588994
 20
3.37573346821456
 30
0.0
 10
-0.030624119346093
 20
3.375707478060851
 30
0.0
  0
SPLINE
  5
D3
330
1F
100
AcDbEntity
  8
0
  6
Continuous
 62
     7
370
    25
100
AcDbSpline
210
0.0
220
0.0
230
1.0
 70
     8
 71
     3
 72
    11
 73
     7
 74
     0
 42
0.000000001
 43
0.00000001
 40
0.0
 40
0.0
 40
0.0
 40
0.0
 40
0.2529473105697977
 40
0.4336063133347378
 40
0.6708359623331371
 40
1.0
 40
1.0
 40
1.0
 40
1.0
 10
-0.0306241010377676
 20
3.375707478181785
 30
0.0
 10
-0.0246692913143811
 20
3.375731094612499
 30
0.0
 10
-0.0144614615297864
 20
3.375771578274622
 30
0.0
 10
0.0013318177125854
 20
3.375807682276346
 30
0.0
 10
0.0189195116796122
 20
3.375759349186448
 30
0.0
 10
0.0322530022992801
 20
3.375687229422907
 30
0.0
 10
0.040001862697784
 20
3.375645316468858
 30
0.0
  0
SPLINE
  5
D4
330
1F
100
AcDbEntity
  8
0
  6
Continuous
 62
     7
370
    25
100
AcDbSpline
210
0.0
220
0.0
230
1.0
 70
     8
 71
     3
 72
     9
 73
     5
 74
     0
 42
0.000000001
 43
0.00000001
 40
0.0
 40
0.0
 40
0.0
 40
0.0
 40
0.5021895206501525
 40
0.9999999999999999
 40
0.9999999999999999
 40
0.9999999999999999
 40
0.9999999999999999
 10
0.1209052314949587
 20
3.315520365271176
 30
0.0
 10
0.129702143688839
 20
3.327998115963443
 30
0.0
 10
0.1472192599012432
 20
3.35284481263707
 30
0.0
 10
0.1647058956050175
 20
3.37755693524239
 30
0.0
 10
0.1734109261069296
 20
3.389858888842296
 30
0.0
  0
SPLINE
  5
D5
330
1F
100
AcDbEntity
  8
0
  6
Continuous
 62
     7
370
    25
100
AcDbSpline
210
0.0
220
0.0
230
1.0
 70
     8
 71
     3
 72
     9
 73
     5
 74
     0
 42
0.000000001
 43
0.00000001
 40
0.0
 40
0.0
 40
0.0
 40
0.0
 40
0.4978235155042304
 40
1.0
 40
1.0
 40
1.0
 40
1.0
 10
0.1734107765820919
 20
3.38985910694795
 30
0.0
 10
0.1821142115709944
 20
3.377156003558311
 30
0.0
 10
0.1995971843873491
 20
3.351638720838606
 30
0.0
 10
0.2170817852111152
 20
3.326018976936857
 30
0.0
 10
0.2258621405856059
 20
3.313153344010596
 30
0.0
  0
SPLINE
  5
D6
330
1F
100
AcDbEntity
  8
0
  6
Continuous
 62
     7
370
    25
100
AcDbSpline
210
0.0
220
0.0
230
1.0
 70
     8
 71
     3
 72
    11
 73
     7
 74
     0
 42
0.000000001
 43
0.00000001
 40
0.0
 40
0.0
 40
0.0
 40
0.0
 40
0.2504192198209488
 40
0.4982333657992684
 40
0.7479528738938833
 40
1.0
 40
1.0
 40
1.0
 40
1.0
 10
0.2258621405856059
 20
3.313153344010596
 30
0.0
 10
0.2264434664527978
 20
3.312192288354849
 30
0.0
 10
0.2276000707407767
 20
3.31028017476219
 30
0.0
 10
0.2298614330433396
 20
3.307577479557585
 30
0.0
 10
0.2333118880995506
 20
3.306012158605038
 30
0.0
 10
0.2357524182370734
 20
3.305524746692978
 30
0.0
 10
0.2369783439272457
 20
3.305279910222613
 30
0.0
  0
SPLINE
  5
D7
330
1F
100
AcDbEntity
  8
0
  6
Continuous
 62
     7
370
    25
100
AcDbSpline
210
0.0
220
0.0
230
1.0
 70
     8
 71
     3
 72
    13
 73
     9
 74
     0
 42
0.000000001
 43
0.00000001
 40
0.0
 40
0.0
 40
0.0
 40
0.0
 40
0.1254456790792238
 40
0.2508783430326826
 40
0.3758723043098228
 40
0.5011108021243013
 40
0.7498592496425517
 40
1.0
 40
1.0
 40
1.0
 40
1.0
 10
0.236978379009594
 20
3.305279910056741
 30
0.0
 10
0.2379623016015531
 20
3.305273951169837
 30
0.0
 10
0.2399300447024313
 20
3.305262034014271
 30
0.0
 10
0.2428555624178079
 20
3.305664250363575
 30
0.0
 10
0.2454128830919086
 20
3.30689926126516
 30
0.0
 10
0.2481024193224963
 20
3.309283835994315
 30
0.0
 10
0.2497306009448685
 20
3.313350839021231
 30
0.0
 10
0.2498176067850849
 20
3.316714056483785
 30
0.0
 10
0.2498612311133925
 20
3.31840035825837
 30
0.0
  0
SPLINE
  5
D9
330
1F
100
AcDbEntity
  8
0
  6
Continuous
 62
     7
370
    25
100
AcDbSpline
210
0.0
220
0.0
230
1.0
 70
     8
 71
     3
 72
    13
 73
     9
 74
     0
 42
0.000000001
 43
0.00000001
 40
0.0
 40
0.0
 40
0.0
 40
0.0
 40
0.2501022281789003
 40
0.4990303798290722
 40
0.6237898681515991
 40
0.7487551915635383
 40
0.8740209073821046
 40
1.0
 40
1.0
 40
1.0
 40
1.0
 10
0.249790913732449
 20
3.464929002082282
 30
0.0
 10
0.2497598650140039
 20
3.46663109219566
 30
0.0
 10
0.2496979133317989
 20
3.470027282153527
 30
0.0
 10
0.2482948512235872
 20
3.474292125498934
 30
0.0
 10
0.24588523693675
 20
3.477134244820567
 30
0.0
 10
0.243456809658644
 20
3.478814543467181
 30
0.0
 10
0.2405064501313333
 20
3.479556052263591
 30
0.0
 10
0.2385222798288714
 20
3.479722677995582
 30
0.0
 10
0.2375273777815053
 20
3.479806227417571
 30
0.0
  0
SPLINE
  5
DA
330
1F
100
AcDbEntity
  8
0
  6
Continuous
 62
     7
370
    25
100
AcDbSpline
210
0.0
220
0.0
230
1.0
 70
     8
 71
     3
 72
    11
 73
     7
 74
     0
 42
0.000000001
 43
0.00000001
 40
0.0
 40
0.0
 40
0.0
 40
0.0
 40
0.2512066920163597
 40
0.5007666559616591
 40
0.7491157946709143
 40
1.0
 40
1.0
 40
1.0
 40
1.0
 10
0.2375423516872296
 20
3.4798074031581
 30
0.0
 10
0.2363722092903916
 20
3.479715215101119
 30
0.0
 10
0.2340395950978311
 20
3.4795314433049
 30
0.0
 10
0.2305884907996209
 20
3.478800866889322
 30
0.0
 10
0.2278843836954939
 20
3.47684846894709
 30
0.0
 10
0.2265520074693144
 20
3.47523796768383
 30
0.0
 10
0.2258824365067652
 20
3.474428628054498
 30
0.0
  0
SPLINE
  5
DB
330
1F
100
AcDbEntity
  8
0
  6
Continuous
 62
     7
370
    25
100
AcDbSpline
210
0.0
220
0.0
230
1.0
 70
     8
 71
     3
 72
     9
 73
     5
 74
     0
 42
0.000000001
 43
0.00000001
 40
0.0
 40
0.0
 40
0.0
 40
0.0
 40
0.5000115473888399
 40
1.0
 40
1.0
 40
1.0
 40
1.0
 10
0.225882428950028
 20
3.474428605415286
 30
0.0
 10
0.2254478193942274
 20
3.473160781474094
 30
0.0
 10
0.2245786203565849
 20
3.470625192150584
 30
0.0
 10
0.2246218006494793
 20
3.467943756186585
 30
0.0
 10
0.224643390297307
 20
3.466603069168168
 30
0.0
  0
SPLINE
  5
DD
330
1F
100
AcDbEntity
  8
0
  6
Continuous
 62
     7
370
    25
100
AcDbSpline
210
0.0
220
0.0
230
1.0
 70
     8
 71
     3
 72
     9
 73
     5
 74
     0
 42
0.000000001
 43
0.00000001
 40
0.0
 40
0.0
 40
0.0
 40
0.0
 40
0.5016103449540898
 40
0.9999999999999999
 40
0.9999999999999999
 40
0.9999999999999999
 40
0.9999999999999999
 10
0.2246576992620442
 20
3.357410108221764
 30
0.0
 10
0.2182958427153955
 20
3.366823312955786
 30
0.0
 10
0.2056129771990733
 20
3.385589283053319
 30
0.0
 10
0.1929306993881459
 20
3.404301242950899
 30
0.0
 10
0.1866099833247614
 20
3.413627090189487
 30
0.0
  0
SPLINE
  5
DE
330
1F
100
AcDbEntity
  8
0
  6
Continuous
 62
     7
370
    25
100
AcDbSpline
210
0.0
220
0.0
230
1.0
 70
     8
 71
     3
 72
    12
 73
     8
 74
     0
 42
0.000000001
 43
0.00000001
 40
0.0
 40
0.0
 40
0.0
 40
0.0
 40
0.2511275318297326
 40
0.5006445688733671
 40
0.7489668687460527
 40
0.8467646720424292
 40
0.9999999999999999
 40
0.9999999999999999
 40
0.9999999999999999
 40
0.9999999999999999
 10
0.1866099833247614
 20
3.413627090189487
 30
0.0
 10
0.1859226915681245
 20
3.414699433382289
 30
0.0
 10
0.1845525156949949
 20
3.416837242771538
 30
0.0
 10
0.1818856192537079
 20
3.419811642671798
 30
0.0
 10
0.1787018662697497
 20
3.421080531036401
 30
0.0
 10
0.1759575110356424
 20
3.421595359991508
 30
0.0
 10
0.1745665288929239
 20
3.421810409083434
 30
0.0
 10
0.1737174473244557
 20
3.421941679079404
 30
0.0
  0
SPLINE
  5
DF
330
1F
100
AcDbEntity
  8
0
  6
Continuous
 62
     7
370
    25
100
AcDbSpline
210
0.0
220
0.0
230
1.0
 70
     8
 71
     3
 72
    13
 73
     9
 74
     0
 42
0.000000001
 43
0.00000001
 40
0.0
 40
0.0
 40
0.0
 40
0.0
 40
0.1252083710583217
 40
0.2504723978176819
 40
0.3747413631804919
 40
0.4996641684536315
 40
0.749672542397606
 40
0.9999999999999999
 40
0.9999999999999999
 40
0.9999999999999999
 40
0.9999999999999999
 10
0.1737253805016436
 20
3.421941723001867
 30
0.0
 10
0.1729367970550819
 20
3.421936795292691
 30
0.0
 10
0.1713592796329628
 20
3.42192693768395
 30
0.0
 10
0.1690082021595131
 20
3.421713850181057
 30
0.0
 10
0.1667991223630514
 20
3.420973167348952
 30
0.0
 10
0.1644162304622847
 20
3.419238897254443
 30
0.0
 10
0.1620988778479561
 20
3.416550801612189
 30
0.0
 10
0.1604400586310623
 20
3.41429819262784
 30
0.0
 10
0.1596101200757851
 20
3.413171169847399
 30
0.0
  0
SPLINE
  5
E0
330
1F
100
AcDbEntity
  8
0
  6
Continuous
 62
     7
370
    25
100
AcDbSpline
210
0.0
220
0.0
230
1.0
 70
     8
 71
     3
 72
     9
 73
     5
 74
     0
 42
0.000000001
 43
0.00000001
 40
0.0
 40
0.0
 40
0.0
 40
0.0
 40
0.4984462251475094
 40
1.0
 40
1.0
 40
1.0
 40
1.0
 10
0.1596102119319058
 20
3.413171298045163
 30
0.0
 10
0.153382357454606
 20
3.404477029481119
 30
0.0
 10
0.1408878211072664
 20
3.387034288167408
 30
0.0
 10
0.1283778334388845
 20
3.369522726648341
 30
0.0
 10
0.1221034019004495
 20
3.360739736864891
 30
0.0
  0
SPLINE
  5
E2
330
1F
100
AcDbEntity
  8
0
  6
Continuous
 62
     7
370
    25
100
AcDbSpline
210
0.0
220
0.0
230
1.0
 70
     8
 71
     3
 72
     9
 73
     5
 74
     0
 42
0.000000001
 43
0.00000001
 40
0.0
 40
0.0
 40
0.0
 40
0.0
 40
0.5003942123028685
 40
1.0
 40
1.0
 40
1.0
 40
1.0
 10
0.1221012027789794
 20
3.470557298119198
 30
0.0
 10
0.1221282730676906
 20
3.471887302013018
 30
0.0
 10
0.1221823709929775
 20
3.474545214237262
 30
0.0
 10
0.1215358962536756
 20
3.477161453501164
 30
0.0
 10
0.1212129137323204
 20
3.47846854177941
 30
0.0
  0
SPLINE
  5
E3
330
1F
100
AcDbEntity
  8
0
  6
Continuous
 62
     7
370
    25
100
AcDbSpline
210
0.0
220
0.0
230
1.0
 70
     8
 71
     3
 72
    11
 73
     7
 74
     0
 42
0.000000001
 43
0.00000001
 40
0.0
 40
0.0
 40
0.0
 40
0.0
 40
0.2512805147150245
 40
0.5011623767317533
 40
0.7494832482969374
 40
1.0
 40
1.0
 40
1.0
 40
1.0
 10
0.1212129108804008
 20
3.478468544612799
 30
0.0
 10
0.1204411535596731
 20
3.479234622547818
 30
0.0
 10
0.1189019345973328
 20
3.480762514350774
 30
0.0
 10
0.1162070315436916
 20
3.482787718220951
 30
0.0
 10
0.112821161079986
 20
3.483774688407444
 30
0.0
 10
0.1105146033507196
 20
3.483994255450478
 30
0.0
 10
0.1093562477596445
 20
3.484104522238379
 30
0.0
  0
SPLINE
  5
E4
330
1F
100
AcDbEntity
  8
0
  6
Continuous
 62
     7
370
    25
100
AcDbSpline
210
0.0
220
0.0
230
1.0
 70
     8
 71
     3
 72
    14
 73
    10
 74
     0
 42
0.000000001
 43
0.00000001
 40
0.0
 40
0.0
 40
0.0
 40
0.0
 40
0.1256497358077095
 40
0.2513190994399772
 40
0.3748627072351686
 40
0.5011799213178876
 40
0.7499835444841392
 40
0.8493820078398395
 40
1.0
 40
1.0
 40
1.0
 40
1.0
 10
0.1093658450861379
 20
3.484105237322505
 30
0.0
 10
0.1084877995781567
 20
3.484039641545023
 30
0.0
 10
0.1067315714021513
 20
3.4839084397433
 30
0.0
 10
0.1041369001129761
 20
3.483485676619142
 30
0.0
 10
0.1017605598552022
 20
3.482462224566559
 30
0.0
 10
0.0992430817703494
 20
3.480370443228496
 30
0.0
 10
0.0977586096286939
 20
3.477713620648274
 30
0.0
 10
0.0971994043802523
 20
3.474750572808719
 30
0.0
 10
0.0970251760285729
 20
3.473251929744413
 30
0.0
 10
0.0969202152392793
 20
3.47234909873337
 30
0.0
  0
SPLINE
  5
E6
330
1F
100
AcDbEntity
  8
0
  6
Continuous
 62
     7
370
    25
100
AcDbSpline
210
0.0
220
0.0
230
1.0
 70
     8
 71
     3
 72
    14
 73
    10
 74
     0
 42
0.000000001
 43
0.00000001
 40
0.0
 40
0.0
 40
0.0
 40
0.0
 40
0.1253737494532713
 40
0.2506362556766774
 40
0.4999935144874991
 40
0.6265016937629677
 40
0.7501873957089247
 40
0.8750516236462453
 40
0.9999999999999999
 40
0.9999999999999999
 40
0.9999999999999999
 40
0.9999999999999999
 10
0.0968772401492766
 20
3.320522814722755
 30
0.0
 10
0.0968804350483646
 20
3.319778824526984
 30
0.0
 10
0.0968868220117296
 20
3.318291504272615
 30
0.0
 10
0.0972108237299007
 20
3.315327006342042
 30
0.0
 10
0.0986608879680242
 20
3.312458762486671
 30
0.0
 10
0.1011748705437
 20
3.310321133942141
 30
0.0
 10
0.1035710587627962
 20
3.309316020009069
 30
0.0
 10
0.1061481982481947
 20
3.30896279444728
 30
0.0
 10
0.1078737880748923
 20
3.308883499523269
 30
0.0
 10
0.1087368736173944
 20
3.308843838706168
 30
0.0
  0
SPLINE
  5
E7
330
1F
100
AcDbEntity
  8
0
  6
Continuous
 62
     7
370
    25
100
AcDbSpline
210
0.0
220
0.0
230
1.0
 70
     8
 71
     3
 72
    11
 73
     7
 74
     0
 42
0.000000001
 43
0.00000001
 40
0.0
 40
0.0
 40
0.0
 40
0.0
 40
0.251109974187253
 40
0.5004074843169369
 40
0.7489402504688057
 40
1.0
 40
1.0
 40
1.0
 40
1.0
 10
0.1087368964530238
 20
3.308843841854257
 30
0.0
 10
0.109995893726954
 20
3.309017485493232
 30
0.0
 10
0.112504801071827
 20
3.309363519444407
 30
0.0
 10
0.1161949436231036
 20
3.31038933804896
 30
0.0
 10
0.1189504476199795
 20
3.312734841036309
 30
0.0
 10
0.1202514276236217
 20
3.314588709136167
 30
0.0
 10
0.1209052078617282
 20
3.315520331700965
 30
0.0
  0
SPLINE
  5
E8
330
1F
100
AcDbEntity
  8
0
  6
Continuous
 62
     7
370
    25
100
AcDbSpline
210
0.0
220
0.0
230
1.0
 70
     8
 71
     3
 72
     8
 73
     4
 74
     0
 42
0.000000001
 43
0.00000001
 40
0.0
 40
0.0
 40
0.0
 40
0.0
 40
1.0
 40
1.0
 40
1.0
 40
1.0
 10
0.3942251457795097
 20
3.361150515820288
 30
0.0
 10
0.3942515389297643
 20
3.346467398146332
 30
0.0
 10
0.3942615410825568
 20
3.331784280472376
 30
0.0
 10
0.3942551471562338
 20
3.31710116279842
 30
0.0
  0
SPLINE
  5
E9
330
1F
100
AcDbEntity
  8
0
  6
Continuous
 62
     7
370
    25
100
AcDbSpline
210
0.0
220
0.0
230
1.0
 70
     8
 71
     3
 72
    11
 73
     7
 74
     0
 42
0.000000001
 43
0.00000001
 40
0.0
 40
0.0
 40
0.0
 40
0.0
 40
0.2852915846934904
 40
0.5000000536140699
 40
0.7149602374096375
 40
1.0
 40
1.0
 40
1.0
 40
1.0
 10
0.3942554540956982
 20
3.317101140701348
 30
0.0
 10
0.3851701879602697
 20
3.317750805211959
 30
0.0
 10
0.3692474135128819
 20
3.318889402729603
 30
0.0
 10
0.3464442261591839
 20
3.320440601588412
 30
0.0
 10
0.3236312932942197
 20
3.321842221952327
 30
0.0
 10
0.307650528908729
 20
3.32276864640875
 30
0.0
 10
0.298540221358942
 20
3.323296782079614
 30
0.0
  0
SPLINE
  5
EA
330
1F
100
AcDbEntity
  8
0
  6
Continuous
 62
     7
370
    25
100
AcDbSpline
210
0.0
220
0.0
230
1.0
 70
     8
 71
     3
 72
    13
 73
     9
 74
     0
 42
0.000000001
 43
0.00000001
 40
0.0
 40
0.0
 40
0.0
 40
0.0
 40
0.2489792659591743
 40
0.4980580554172991
 40
0.6233733318857051
 40
0.7485894074735038
 40
0.8737737969045966
 40
0.9999999999999999
 40
0.9999999999999999
 40
0.9999999999999999
 40
0.9999999999999999
 10
0.2985402213737737
 20
3.323296781514686
 30
0.0
 10
0.2965377980442707
 20
3.323369865634378
 30
0.0
 10
0.2925321509644933
 20
3.323516063087386
 30
0.0
 10
0.2875570460523517
 20
3.322532048415466
 30
0.0
 10
0.2844068482348744
 20
3.320480050369333
 30
0.0
 10
0.2826473166586754
 20
3.318391364391028
 30
0.0
 10
0.2819328721318253
 20
3.315850353462955
 30
0.0
 10
0.281819542830578
 20
3.31411774827792
 30
0.0
 10
0.2817626433688165
 20
3.313247855837143
 30
0.0
  0
SPLINE
  5
EB
330
1F
100
AcDbEntity
  8
0
  6
Continuous
 62
     7
370
    25
100
AcDbSpline
210
0.0
220
0.0
230
1.0
 70
     8
 71
     3
 72
    13
 73
     9
 74
     0
 42
0.000000001
 43
0.00000001
 40
0.0
 40
0.0
 40
0.0
 40
0.0
 40
0.1256796884670363
 40
0.2514222971376592
 40
0.373635117885948
 40
0.5017433055055397
 40
0.7508496203302102
 40
0.9999999999999999
 40
0.9999999999999999
 40
0.9999999999999999
 40
0.9999999999999999
 10
0.2817626243261275
 20
3.313248022698121
 30
0.0
 10
0.2818567198712098
 20
3.312427931252649
 30
0.0
 10
0.2820449580693115
 20
3.310787337791616
 30
0.0
 10
0.2826261445164664
 20
3.30835014728078
 30
0.0
 10
0.2840936592970901
 20
3.306108612009969
 30
0.0
 10
0.2870334552568738
 20
3.303824757271193
 30
0.0
 10
0.291651306779229
 20
3.302185792357202
 30
0.0
 10
0.2954348260113018
 20
3.30190214034651
 30
0.0
 10
0.2973267529308494
 20
3.30176030179835
 30
0.0
  0
SPLINE
  5
EC
330
1F
100
AcDbEntity
  8
0
  6
Continuous
 62
     7
370
    25
100
AcDbSpline
210
0.0
220
0.0
230
1.0
 70
     8
 71
     3
 72
    11
 73
     7
 74
     0
 42
0.000000001
 43
0.00000001
 40
0.0
 40
0.0
 40
0.0
 40
0.0
 40
0.2709947652676228
 40
0.500000051569376
 40
0.7288144559095057
 40
1.0
 40
1.0
 40
1.0
 40
1.0
 10
0.2973267806947353
 20
3.301760300267552
 30
0.0
 10
0.3068638125484658
 20
3.301213572031063
 30
0.0
 10
0.3244601539906147
 20
3.300204828758223
 30
0.0
 10
0.3500725071126989
 20
3.298614673370493
 30
0.0
 10
0.375667950897365
 20
3.296873337238113
 30
0.0
 10
0.393193480486533
 20
3.295597247336395
 30
0.0
 10
0.4026988220211272
 20
3.294905132996399
 30
0.0
  0
SPLINE
  5
ED
330
1F
100
AcDbEntity
  8
0
  6
Continuous
 62
     7
370
    25
100
AcDbSpline
210
0.0
220
0.0
230
1.0
 70
     8
 71
     3
 72
    13
 73
     9
 74
     0
 42
0.000000001
 43
0.00000001
 40
0.0
 40
0.0
 40
0.0
 40
0.0
 40
0.1257863435566074
 40
0.251582254833257
 40
0.5002052242341021
 40
0.7482517302413003
 40
0.8741405326364186
 40
1.0
 40
1.0
 40
1.0
 40
1.0
 10
0.4026988220211272
 20
3.294905132996399
 30
0.0
 10
0.4038514577270408
 20
3.294815406250511
 30
0.0
 10
0.4061568168121036
 20
3.294635945933827
 30
0.0
 10
0.4106801978220074
 20
3.294653450546508
 30
0.0
 10
0.4164527100586277
 20
3.296049790776605
 30
0.0
 10
0.4188039179789763
 20
3.300792661935828
 30
0.0
 10
0.419278986928096
 20
3.304654849000319
 30
0.0
 10
0.4192803204825521
 20
3.306645412784509
 30
0.0
 10
0.4192809871820838
 20
3.307640578701128
 30
0.0
  0
SPLINE
  5
EF
330
1F
100
AcDbEntity
  8
0
  6
Continuous
 62
     7
370
    25
100
AcDbSpline
210
0.0
220
0.0
230
1.0
 70
     8
 71
     3
 72
    13
 73
     9
 74
     0
 42
0.000000001
 43
0.00000001
 40
0.0
 40
0.0
 40
0.0
 40
0.0
 40
0.1256216502148038
 40
0.2511260098827368
 40
0.4998955827323665
 40
0.7480973715799131
 40
0.8740662515170694
 40
1.0
 40
1.0
 40
1.0
 40
1.0
 10
0.4191130659789223
 20
3.453932373197864
 30
0.0
 10
0.4191437294820998
 20
3.454917770842836
 30
0.0
 10
0.4192050278585248
 20
3.456887646085729
 30
0.0
 10
0.4188825288818791
 20
3.460801987674761
 30
0.0
 10
0.4168291052231504
 20
3.465970102368192
 30
0.0
 10
0.4111356062964769
 20
3.468452918127984
 30
0.0
 10
0.4066427989837934
 20
3.469218579270431
 30
0.0
 10
0.4043479073102474
 20
3.469400055919528
 30
0.0
 10
0.4032006215013436
 20
3.469490781589308
 30
0.0
  0
SPLINE
  5
F0
330
1F
100
AcDbEntity
  8
0
  6
Continuous
 62
     7
370
    25
100
AcDbSpline
210
0.0
220
0.0
230
1.0
 70
     8
 71
     3
 72
    11
 73
     7
 74
     0
 42
0.000000001
 43
0.00000001
 40
0.0
 40
0.0
 40
0.0
 40
0.0
 40
0.2712206024611655
 40
0.5000000784890732
 40
0.728988453287055
 40
1.0
 40
1.0
 40
1.0
 40
1.0
 10
0.4032009951097005
 20
3.469490752789882
 30
0.0
 10
0.3937561092434797
 20
3.470211833579907
 30
0.0
 10
0.3763442915881194
 20
3.471541159037995
 30
0.0
 10
0.3509116786321957
 20
3.473356169473566
 30
0.0
 10
0.3254607886677267
 20
3.475014791663979
 30
0.0
 10
0.3079722617346653
 20
3.476067833013994
 30
0.0
 10
0.2984930747789201
 20
3.476638605833632
 30
0.0
  0
SPLINE
  5
F1
330
1F
100
AcDbEntity
  8
0
  6
Continuous
 62
     7
370
    25
100
AcDbSpline
210
0.0
220
0.0
230
1.0
 70
     8
 71
     3
 72
    13
 73
     9
 74
     0
 42
0.000000001
 43
0.00000001
 40
0.0
 40
0.0
 40
0.0
 40
0.0
 40
0.250061692519024
 40
0.4976433950030351
 40
0.6230347952009435
 40
0.7481765641922397
 40
0.8737643151817623
 40
1.0
 40
1.0
 40
1.0
 40
1.0
 10
0.298493074797647
 20
3.47663860494022
 30
0.0
 10
0.2964031092456767
 20
3.476727861591456
 30
0.0
 10
0.2922439054018383
 20
3.476905489689948
 30
0.0
 10
0.2870449910317613
 20
3.476139997625132
 30
0.0
 10
0.2835420729121
 20
3.474325784115456
 30
0.0
 10
0.2814565853907309
 20
3.472314995411016
 30
0.0
 10
0.2806454250584671
 20
3.469670292003348
 30
0.0
 10
0.2805389760323989
 20
3.467865916601502
 30
0.0
 10
0.2804856145743565
 20
3.466961407599826
 30
0.0
  0
SPLINE
  5
F2
330
1F
100
AcDbEntity
  8
0
  6
Continuous
 62
     7
370
    25
100
AcDbSpline
210
0.0
220
0.0
230
1.0
 70
     8
 71
     3
 72
    11
 73
     7
 74
     0
 42
0.000000001
 43
0.00000001
 40
0.0
 40
0.0
 40
0.0
 40
0.0
 40
0.2504291549092124
 40
0.4993946137528424
 40
0.7487877086530071
 40
1.0
 40
1.0
 40
1.0
 40
1.0
 10
0.2804856162608415
 20
3.466961399418374
 30
0.0
 10
0.2807102860025799
 20
3.465874340851255
 30
0.0
 10
0.2811583123473484
 20
3.463706577303717
 30
0.0
 10
0.2824351678631014
 20
3.460466015936879
 30
0.0
 10
0.2853517479274302
 20
3.458032524470572
 30
0.0
 10
0.2876167485564894
 20
3.456913072639016
 30
0.0
 10
0.2887533643691834
 20
3.456351312683203
 30
0.0
  0
SPLINE
  5
F3
330
1F
100
AcDbEntity
  8
0
  6
Continuous
 62
     7
370
    25
100
AcDbSpline
210
0.0
220
0.0
230
1.0
 70
     8
 71
     3
 72
     9
 73
     5
 74
     0
 42
0.000000001
 43
0.00000001
 40
0.0
 40
0.0
 40
0.0
 40
0.0
 40
0.5000120875259233
 40
1.0
 40
1.0
 40
1.0
 40
1.0
 10
0.2887533779421547
 20
3.456351309092127
 30
0.0
 10
0.2901100329757602
 20
3.455982197153697
 30
0.0
 10
0.2928232774501452
 20
3.455243991123002
 30
0.0
 10
0.2956183780605462
 20
3.455163835226283
 30
0.0
 10
0.2970158945798956
 20
3.455123758246809
 30
0.0
  0
SPLINE
  5
F4
330
1F
100
AcDbEntity
  8
0
  6
Continuous
 62
     7
370
    25
100
AcDbSpline
210
0.0
220
0.0
230
1.0
 70
     8
 71
     3
 72
    11
 73
     7
 74
     0
 42
0.000000001
 43
0.00000001
 40
0.0
 40
0.0
 40
0.0
 40
0.0
 40
0.2850613883967799
 40
0.5000049774083793
 40
0.7146719470184073
 40
1.0
 40
1.0
 40
1.0
 40
1.0
 10
0.2970158945798956
 20
3.455123758246808
 30
0.0
 10
0.30626450259414
 20
3.454571324807731
 30
0.0
 10
0.3224867979643729
 20
3.453602342404401
 30
0.0
 10
0.3456405761096331
 20
3.452134908883011
 30
0.0
 10
0.3687834360858749
 20
3.45050790574774
 30
0.0
 10
0.3849416131481802
 20
3.449312780521337
 30
0.0
 10
0.3941624673419329
 20
3.448630768224193
 30
0.0
  0
SPLINE
  5
F6
330
1F
100
AcDbEntity
  8
0
  6
Continuous
 62
     7
370
    25
100
AcDbSpline
210
0.0
220
0.0
230
1.0
 70
     8
 71
     3
 72
     9
 73
     5
 74
     0
 42
0.000000001
 43
0.00000001
 40
0.0
 40
0.0
 40
0.0
 40
0.0
 40
0.5000000402702565
 40
1.0
 40
1.0
 40
1.0
 40
1.0
 10
0.3942102497328542
 20
3.382718254136436
 30
0.0
 10
0.3827529885115452
 20
3.38355947809602
 30
0.0
 10
0.3598384679144743
 20
3.385241925879681
 30
0.0
 10
0.3368664294327649
 20
3.386699243325861
 30
0.0
 10
0.3253804111170001
 20
3.387427901990264
 30
0.0
  0
SPLINE
  5
F7
330
1F
100
AcDbEntity
  8
0
  6
Continuous
 62
     7
370
    25
100
AcDbSpline
210
0.0
220
0.0
230
1.0
 70
     8
 71
     3
 72
    13
 73
     9
 74
     0
 42
0.000000001
 43
0.00000001
 40
0.0
 40
0.0
 40
0.0
 40
0.0
 40
0.2504434086804165
 40
0.4992201821098103
 40
0.6240829061550488
 40
0.7490779882663698
 40
0.874149033211317
 40
1.0
 40
1.0
 40
1.0
 40
1.0
 10
0.3253804111351643
 20
3.387427901201624
 30
0.0
 10
0.3233788620232623
 20
3.387518152117058
 30
0.0
 10
0.3193890835842514
 20
3.387698053351733
 30
0.0
 10
0.3144157995738509
 20
3.386846045168902
 30
0.0
 10
0.3112250754927987
 20
3.384902424437096
 30
0.0
 10
0.3094233762193181
 20
3.382869033455303
 30
0.0
 10
0.3087334929958629
 20
3.380338363042408
 30
0.0
 10
0.3086536372868807
 20
3.37861556103855
 30
0.0
 10
0.30861358532767
 20
3.377751482609267
 30
0.0
  0
SPLINE
  5
F8
330
1F
100
AcDbEntity
  8
0
  6
Continuous
 62
     7
370
    25
100
AcDbSpline
210
0.0
220
0.0
230
1.0
 70
     8
 71
     3
 72
    13
 73
     9
 74
     0
 42
0.000000001
 43
0.00000001
 40
0.0
 40
0.0
 40
0.0
 40
0.0
 40
0.1257971734116226
 40
0.2516259048372375
 40
0.3740184384212301
 40
0.5020794344636293
 40
0.7511334471358968
 40
1.0
 40
1.0
 40
1.0
 40
1.0
 10
0.30861358532767
 20
3.377751482609267
 30
0.0
 10
0.3086947051218828
 20
3.376918496917415
 30
0.0
 10
0.3088569650603648
 20
3.375252316567376
 30
0.0
 10
0.309405265169203
 20
3.372771069291888
 30
0.0
 10
0.310853771640021
 20
3.370471734696061
 30
0.0
 10
0.3137941017851514
 20
3.368102083207543
 30
0.0
 10
0.3184576079129274
 20
3.366369025102115
 30
0.0
 10
0.322288483412325
 20
3.366060992887604
 30
0.0
 10
0.3242032000277345
 20
3.365907034765159
 30
0.0
  0
SPLINE
  5
F9
330
1F
100
AcDbEntity
  8
0
  6
Continuous
 62
     7
370
    25
100
AcDbSpline
210
0.0
220
0.0
230
1.0
 70
     8
 71
     3
 72
    11
 73
     7
 74
     0
 42
0.000000001
 43
0.00000001
 40
0.0
 40
0.0
 40
0.0
 40
0.0
 40
0.2921724858951845
 40
0.500000031332335
 40
0.707593055699483
 40
1.0
 40
1.0
 40
1.0
 40
1.0
 10
0.3242032268139379
 20
3.365907033125628
 30
0.0
 10
0.3310321280929747
 20
3.365475529076837
 30
0.0
 10
0.3427185497045866
 20
3.364737088435332
 30
0.0
 10
0.3592395120326248
 20
3.363657396725353
 30
0.0
 10
0.3757563290054901
 20
3.362492825998315
 30
0.0
 10
0.3874099474234819
 20
3.361645852177937
 30
0.0
 10
0.3942251457538524
 20
3.361150530093459
 30
0.0
  0
SPLINE
  5
FB
330
1F
100
AcDbEntity
  8
0
  6
Continuous
 62
     7
370
    25
100
AcDbSpline
210
0.0
220
0.0
230
1.0
 70
    24
 71
     3
 72
    10
 73
     6
 74
     0
 42
0.000000001
 43
0.00000001
 40
0.0
 40
0.0
 40
0.0
 40
0.0
 40
0.5
 40
0.5
 40
1.0
 40
1.0
 40
1.0
 40
1.0
 10
0.198947677177893
 20
3.04569305736704
 30
0.0
 10
0.1951811188331325
 20
3.04569305736704
 30
0.0
 10
0.1892099370863251
 20
3.04569305736704
 30
0.0
 10
0.1744955955500313
 20
3.04569305736704
 30
0.0
 10
0.165772217368318
 20
3.04569305736704
 30
0.0
 10
0.156878585538687
 20
3.04569305736704
 30
0.0
  0
SPLINE
  5
FE
330
1F
100
AcDbEntity
  8
0
  6
Continuous
 62
     7
370
    25
100
AcDbSpline
210
0.0
220
0.0
230
1.0
 70
    24
 71
     3
 72
    10
 73
     6
 74
     0
 42
0.000000001
 43
0.00000001
 40
0.0
 40
0.0
 40
0.0
 40
0.0
 40
0.5
 40
0.5
 40
1.0
 40
1.0
 40
1.0
 40
1.0
 10
-0.156878585538687
 20
3.04569305736704
 30
0.0
 10
-0.165772217368318
 20
3.04569305736704
 30
0.0
 10
-0.1744955955500313
 20
3.04569305736704
 30
0.0
 10
-0.1892099370863251
 20
3.04569305736704
 30
0.0
 10
-0.1951811188331326
 20
3.04569305736704
 30
0.0
 10
-0.198947677177893
 20
3.04569305736704
 30
0.0
  0
SPLINE
  5
100
330
1F
100
AcDbEntity
  8
0
  6
Continuous
 62
     7
370
    25
100
AcDbSpline
210
0.0
220
0.0
230
1.0
 70
     8
 71
     3
 72
     9
 73
     5
 74
     0
 42
0.000000001
 43
0.00000001
 40
0.0
 40
0.0
 40
0.0
 40
0.0
 40
0.428571428571429
 40
1.0
 40
1.0
 40
1.0
 40
1.0
 10
0.414997799123731
 20
3.18487571546482
 30
0.0
 10
0.416986956928667
 20
3.18453657221408
 30
0.0
 10
0.423234833699494
 20
3.19312636893729
 30
0.0
 10
0.429866374244326
 20
3.21912812380204
 30
0.0
 10
0.432347929508011
 20
3.23416446359471
 30
0.0
  0
SPLINE
  5
101
330
1F
100
AcDbEntity
  8
0
  6
Continuous
 62
     7
370
    25
100
AcDbSpline
210
0.0
220
0.0
230
1.0
 70
     8
 71
     3
 72
    10
 73
     6
 74
     0
 42
0.000000001
 43
0.00000001
 40
0.0
 40
0.0
 40
0.0
 40
0.0
 40
0.285714285714286
 40
0.571428571428571
 40
1.0
 40
1.0
 40
1.0
 40
1.0
 10
-0.41499779912432
 20
3.18487571546472
 30
0.0
 10
-0.416323904327617
 20
3.18464961996429
 30
0.0
 10
-0.41956921865668
 20
3.18770638460172
 30
0.0
 10
-0.426176511617504
 20
3.2041659740236
 30
0.0
 10
-0.4304867630603709
 20
3.22288720875024
 30
0.0
 10
-0.432347929508006
 20
3.23416446359471
 30
0.0
  0
SPLINE
  5
106
330
1F
100
AcDbEntity
  8
0
  6
Continuous
 62
     7
370
    25
100
AcDbSpline
210
0.0
220
0.0
230
1.0
 70
     8
 71
     3
 72
    10
 73
     6
 74
     0
 42
0.000000001
 43
0.00000001
 40
0.0
 40
0.0
 40
0.0
 40
0.0
 40
0.285714285714286
 40
0.571428571428571
 40
1.0
 40
1.0
 40
1.0
 40
1.0
 10
0.8620474491111669
 20
3.12433661791987
 30
0.0
 10
0.859675961250686
 20
3.116696654072499
 30
0.0
 10
0.853525220837631
 20
3.10145157229087
 30
0.0
 10
0.8402555349207499
 20
3.08078584822798
 30
0.0
 10
0.831305604681866
 20
3.07585757869253
 30
0.0
 10
0.827453469082113
 20
3.07722769653312
 30
0.0
  0
SPLINE
  5
107
330
1F
100
AcDbEntity
  8
0
  6
Continuous
 62
     7
370
    25
100
AcDbSpline
210
0.0
220
0.0
230
1.0
 70
     8
 71
     3
 72
     8
 73
     4
 74
     0
 42
0.000000001
 43
0.00000001
 40
0.0
 40
0.0
 40
0.0
 40
0.0
 40
1.1469511040212
 40
1.1469511040212
 40
1.1469511040212
 40
1.1469511040212
 10
0.414997799124325
 20
3.18487571546472
 30
0.0
 10
0.558147916697778
 20
3.16046920730176
 30
0.0
 10
0.6966619550240509
 20
3.12374729122764
 30
0.0
 10
0.827453469082112
 20
3.07722769653312
 30
0.0
  0
SPLINE
  5
108
330
1F
100
AcDbEntity
  8
0
  6
Continuous
 62
     7
370
    25
100
AcDbSpline
210
0.0
220
0.0
230
1.0
 70
     8
 71
     3
 72
     8
 73
     4
 74
     0
 42
0.000000001
 43
0.00000001
 40
0.0
 40
0.0
 40
0.0
 40
0.0
 40
1.14695110402122
 40
1.14695110402122
 40
1.14695110402122
 40
1.14695110402122
 10
-0.827453469082113
 20
3.07722769653312
 30
0.0
 10
-0.69666195502405
 20
3.12374729122764
 30
0.0
 10
-0.558147916697775
 20
3.16046920730176
 30
0.0
 10
-0.41499779912432
 20
3.18487571546472
 30
0.0
  0
SPLINE
  5
109
330
1F
100
AcDbEntity
  8
0
  6
Continuous
 62
     7
370
    25
100
AcDbSpline
210
0.0
220
0.0
230
1.0
 70
     8
 71
     3
 72
    10
 73
     6
 74
     0
 42
0.000000001
 43
0.00000001
 40
0.0
 40
0.0
 40
0.0
 40
0.0
 40
0.428571428571429
 40
0.714285714285714
 40
1.0
 40
1.0
 40
1.0
 40
1.0
 10
-0.827453469082114
 20
3.07722769653312
 30
0.0
 10
-0.831305604681866
 20
3.07585757869253
 30
0.0
 10
-0.8402555349207499
 20
3.08078584822798
 30
0.0
 10
-0.853525220837631
 20
3.10145157229087
 30
0.0
 10
-0.859675961250687
 20
3.116696654072499
 30
0.0
 10
-0.8620474491111669
 20
3.12433661791987
 30
0.0
  0
SPLINE
  5
10A
330
1F
100
AcDbEntity
  8
0
  6
Continuous
 62
     7
370
    25
100
AcDbSpline
210
0.0
220
0.0
230
1.0
 70
     8
 71
     3
 72
    11
 73
     7
 74
     0
 42
0.000000001
 43
0.00000001
 40
0.0
 40
0.0
 40
0.0
 40
0.0
 40
0.2513438500077665
 40
0.5024708089013176
 40
0.7512481688275837
 40
1.0
 40
1.0
 40
1.0
 40
1.0
 10
-0.1746066374021674
 20
3.387559327386354
 30
0.0
 10
-0.1762969188958993
 20
3.387493128083288
 30
0.0
 10
-0.1796760232957091
 20
3.387360786602249
 30
0.0
 10
-0.1847296553649951
 20
3.38696263760163
 30
0.0
 10
-0.1896798471539058
 20
3.385828783535402
 30
0.0
 10
-0.1927283790860342
 20
3.384521318011225
 30
0.0
 10
-0.1942525668403847
 20
3.383867618792864
 30
0.0
  0
SPLINE
  5
10B
330
1F
100
AcDbEntity
  8
0
  6
Continuous
 62
     7
370
    25
100
AcDbSpline
210
0.0
220
0.0
230
1.0
 70
     8
 71
     3
 72
     9
 73
     5
 74
     0
 42
0.000000001
 43
0.00000001
 40
0.0
 40
0.0
 40
0.0
 40
0.0
 40
0.4999415392691678
 40
1.0
 40
1.0
 40
1.0
 40
1.0
 10
-0.1306276733532893
 20
3.388824533232007
 30
0.0
 10
-0.1379591149038977
 20
3.388630760038077
 30
0.0
 10
-0.1526237126113131
 20
3.388243168332427
 30
0.0
 10
-0.1672784246550593
 20
3.3877872922229
 30
0.0
 10
-0.1746066374021087
 20
3.387559327517285
 30
0.0
  0
SPLINE
  5
10C
330
1F
100
AcDbEntity
  8
0
  6
Continuous
 62
     7
370
    25
100
AcDbSpline
210
0.0
220
0.0
230
1.0
 70
     8
 71
     3
 72
     8
 73
     4
 74
     0
 42
0.000000001
 43
0.00000001
 40
0.0
 40
0.0
 40
0.0
 40
0.0
 40
1.0
 40
1.0
 40
1.0
 40
1.0
 10
-0.1306292054952098
 20
3.330000581405538
 30
0.0
 10
-0.1306384197966236
 20
3.349608565347695
 30
0.0
 10
-0.1306379089344301
 20
3.369216549289851
 30
0.0
 10
-0.1306276733532893
 20
3.388824533232007
 30
0.0
  0
SPLINE
  5
10D
330
1F
100
AcDbEntity
  8
0
  6
Continuous
 62
     7
370
    25
100
AcDbSpline
210
0.0
220
0.0
230
1.0
 70
     8
 71
     3
 72
    11
 73
     7
 74
     0
 42
0.000000001
 43
0.00000001
 40
0.0
 40
0.0
 40
0.0
 40
0.0
 40
0.2506163488496152
 40
0.5008097404170667
 40
0.7504101158633922
 40
1.0
 40
1.0
 40
1.0
 40
1.0
 10
-0.1933258587680914
 20
3.330551429396233
 30
0.0
 10
-0.1920096845868502
 20
3.330162163128213
 30
0.0
 10
-0.1893795574898881
 20
3.329384287544536
 30
0.0
 10
-0.1852708335381512
 20
3.328609848380081
 30
0.0
 10
-0.1810458672877264
 20
3.328507593388865
 30
0.0
 10
-0.1782357695683034
 20
3.32862362578512
 30
0.0
 10
-0.1768307502380198
 20
3.328681640763941
 30
0.0
  0
SPLINE
  5
10E
330
1F
100
AcDbEntity
  8
0
  6
Continuous
 62
     7
370
    25
100
AcDbSpline
210
0.0
220
0.0
230
1.0
 70
     8
 71
     3
 72
    13
 73
     9
 74
     0
 42
0.000000001
 43
0.00000001
 40
0.0
 40
0.0
 40
0.0
 40
0.0
 40
0.1253508310542765
 40
0.2502192973776798
 40
0.4998423616154886
 40
0.7496822612003464
 40
0.8742028176202884
 40
1.0
 40
1.0
 40
1.0
 40
1.0
 10
-0.2132708567159685
 20
3.35644816956331
 30
0.0
 10
-0.213182183597143
 20
3.355057361462056
 30
0.0
 10
-0.2130051785840753
 20
3.35228109725259
 30
0.0
 10
-0.2116621939674303
 20
3.346867689516893
 30
0.0
 10
-0.2081791596454759
 20
3.340629115835866
 30
0.0
 10
-0.2028932003275134
 20
3.3354528158674
 30
0.0
 10
-0.1976641857394071
 20
3.332314246389168
 30
0.0
 10
-0.1947768761038224
 20
3.331141029710388
 30
0.0
 10
-0.1933258586147859
 20
3.330551429655596
 30
0.0
  0
SPLINE
  5
10F
330
1F
100
AcDbEntity
  8
0
  6
Continuous
 62
     7
370
    25
100
AcDbSpline
210
0.0
220
0.0
230
1.0
 70
     8
 71
     3
 72
    13
 73
     9
 74
     0
 42
0.000000001
 43
0.00000001
 40
0.0
 40
0.0
 40
0.0
 40
0.0
 40
0.125163513715648
 40
0.2495881126816089
 40
0.4995043454052757
 40
0.7495428017932227
 40
0.8742844450815584
 40
1.0
 40
1.0
 40
1.0
 40
1.0
 10
-0.1942525668403847
 20
3.383867618792864
 30
0.0
 10
-0.1956521404317783
 20
3.38314891783777
 30
0.0
 10
-0.1984430250982838
 20
3.381715758847263
 30
0.0
 10
-0.2034837095245159
 20
3.378127255837992
 30
0.0
 10
-0.208566564783176
 20
3.372530980677247
 30
0.0
 10
-0.2118059922487606
 20
3.366040175120818
 30
0.0
 10
-0.2130375026642514
 20
3.3605827281698
 30
0.0
 10
-0.2131928706032249
 20
3.357829923890774
 30
0.0
 10
-0.2132708566495612
 20
3.356448169563099
 30
0.0
  0
SPLINE
  5
110
330
1F
100
AcDbEntity
  8
0
  6
Continuous
 62
     7
370
    25
100
AcDbSpline
210
0.0
220
0.0
230
1.0
 70
     8
 71
     3
 72
     9
 73
     5
 74
     0
 42
0.000000001
 43
0.00000001
 40
0.0
 40
0.0
 40
0.0
 40
0.0
 40
0.5000594636671607
 40
1.0
 40
1.0
 40
1.0
 40
1.0
 10
-0.1768307502380198
 20
3.328681640763941
 30
0.0
 10
-0.1691322436627966
 20
3.328920052172462
 30
0.0
 10
-0.1537370614203357
 20
3.329396818288982
 30
0.0
 10
-0.1383312134114399
 20
3.32979934299139
 30
0.0
 10
-0.1306292054952104
 20
3.330000581406999
 30
0.0
  0
SPLINE
  5
111
330
1F
100
AcDbEntity
  8
0
  6
Continuous
 62
     7
370
    25
100
AcDbSpline
210
0.0
220
0.0
230
1.0
 70
     8
 71
     3
 72
     8
 73
     4
 74
     0
 42
0.000000001
 43
0.00000001
 40
0.0
 40
0.0
 40
0.0
 40
0.0
 40
1.0
 40
1.0
 40
1.0
 40
1.0
 10
-0.869342423904421
 20
3.07
 30
0.0
 10
-0.8794808123489134
 20
3.07
 30
0.0
 10
-0.8877118979397535
 20
3.092404249503845
 30
0.0
 10
-0.8877118979397535
 20
3.12
 30
0.0
  0
SPLINE
  5
112
330
1F
100
AcDbEntity
  8
0
  6
Continuous
 62
     7
370
    25
100
AcDbSpline
210
0.0
220
0.0
230
1.0
 70
     8
 71
     3
 72
    13
 73
     9
 74
     0
 42
0.000000001
 43
0.00000001
 40
0.0
 40
0.0
 40
0.0
 40
0.0
 40
0.1386657940866743
 40
0.2885299008140808
 40
0.449594191103672
 40
0.6218600345662005
 40
0.8053284127791116
 40
1.0
 40
1.0
 40
1.0
 40
1.0
 10
-0.827453469082114
 20
3.077227696533121
 30
0.0
 10
-0.8293271808913714
 20
3.076590228856658
 30
0.0
 10
-0.8332259209234035
 20
3.075263813162915
 30
0.0
 10
-0.8394127610402833
 20
3.0735798667403
 30
0.0
 10
-0.8461369949272699
 20
3.072101444432365
 30
0.0
 10
-0.8534042167056364
 20
3.070948714012269
 30
0.0
 10
-0.8611999420807055
 20
3.070155306376974
 30
0.0
 10
-0.8665751789820836
 20
3.070052781300885
 30
0.0
 10
-0.869342423904421
 20
3.07
 30
0.0
  0
SPLINE
  5
113
330
1F
100
AcDbEntity
  8
0
  6
Continuous
 62
     7
370
    25
100
AcDbSpline
210
0.0
220
0.0
230
1.0
 70
     8
 71
     3
 72
     8
 73
     4
 74
     0
 42
0.000000001
 43
0.00000001
 40
0.0
 40
0.0
 40
0.0
 40
0.0
 40
1.0
 40
1.0
 40
1.0
 40
1.0
 10
0.8877118979397539
 20
3.12
 30
0.0
 10
0.8877118979397539
 20
3.092404249503845
 30
0.0
 10
0.8794808123489137
 20
3.069999999999999
 30
0.0
 10
0.8693424239044212
 20
3.07
 30
0.0
  0
SPLINE
  5
114
330
1F
100
AcDbEntity
  8
0
  6
Continuous
 62
     7
370
    25
100
AcDbSpline
210
0.0
220
0.0
230
1.0
 70
     8
 71
     3
 72
    14
 73
    10
 74
     0
 42
0.000000001
 43
0.00000001
 40
0.0
 40
0.0
 40
0.0
 40
0.0
 40
0.1675491462950329
 40
0.3268665170959399
 40
0.4779526047691321
 40
0.620808051793219
 40
0.7554336838423921
 40
0.8818305536299458
 40
1.0
 40
1.0
 40
1.0
 40
1.0
 10
0.86934242390442
 20
3.07
 30
0.0
 10
0.8669608091017967
 20
3.07003915070345
 30
0.0
 10
0.8623145894533433
 20
3.07011552861621
 30
0.0
 10
0.8555383496638873
 20
3.070709865285339
 30
0.0
 10
0.8491471768779787
 20
3.071588131420604
 30
0.0
 10
0.8431499147718803
 20
3.072726439876037
 30
0.0
 10
0.8375534038439512
 20
3.074069706044239
 30
0.0
 10
0.8323516470980743
 20
3.075550119880627
 30
0.0
 10
0.829049162267518
 20
3.076681187683574
 30
0.0
 10
0.827453469082113
 20
3.077227696533121
 30
0.0
  0
LWPOLYLINE
  5
118
330
1F
100
AcDbEntity
  8
0
  6
Continuous
 62
     7
370
    25
100
AcDbPolyline
 90
        9
 70
   128
 43
0.0
 10
-0.8752411747
 20
3.07
 10
-0.8788491978
 20
3.070960736
 10
-0.8823185667
 20
3.0738060234
 10
-0.8855159553
 20
3.0784265194
 10
-0.8883184899
 20
3.0846446609
 10
-0.8906184705
 20
3.0922214883
 10
-0.8923275104
 20
3.1008658284
 10
-0.8933799319
 20
3.1102454839
 10
-0.8937352912
 20
3.12
  0
LWPOLYLINE
  5
119
330
1F
100
AcDbEntity
  8
0
  6
Continuous
 62
     7
370
    25
100
AcDbPolyline
 90
        9
 70
   128
 43
0.0
 10
0.8937352912
 20
3.12
 10
0.8933799319
 20
3.1102454839
 10
0.8923275104
 20
3.1008658284
 10
0.8906184705
 20
3.0922214883
 10
0.8883184899
 20
3.0846446609
 10
0.8855159553
 20
3.0784265194
 10
0.8823185667
 20
3.0738060234
 10
0.8788491978
 20
3.070960736
 10
0.8752411747
 20
3.07
  0
SPLINE
  5
11B
330
1F
100
AcDbEntity
  8
0
  6
Continuous
 62
     7
370
    25
100
AcDbSpline
210
0.0
220
0.0
230
1.0
 70
    24
 71
     3
 72
    10
 73
     6
 74
     0
 42
0.000000001
 43
0.00000001
 40
0.0
 40
0.0
 40
0.0
 40
0.0
 40
0.5000000000000004
 40
0.5000000000000004
 40
1.0
 40
1.0
 40
1.0
 40
1.0
 10
-0.9224999999999999
 20
3.07
 30
0.0
 10
-0.9224999999999984
 20
3.07
 30
0.0
 10
-0.9179958473924239
 20
3.07
 30
0.0
 10
-0.9011459111096366
 20
3.07
 30
0.0
 10
-0.8891863794985185
 20
3.07
 30
0.0
 10
-0.8752411746932333
 20
3.07
 30
0.0
  0
SPLINE
  5
11C
330
1F
100
AcDbEntity
  8
0
  6
Continuous
 62
     7
370
    25
100
AcDbSpline
210
0.0
220
0.0
230
1.0
 70
    24
 71
     3
 72
    10
 73
     6
 74
     0
 42
0.000000001
 43
0.00000001
 40
0.0
 40
0.0
 40
0.0
 40
0.0
 40
0.5
 40
0.5
 40
1.0
 40
1.0
 40
1.0
 40
1.0
 10
0.8752411746932334
 20
3.07
 30
0.0
 10
0.889186379498521
 20
3.07
 30
0.0
 10
0.9011459111096407
 20
3.07
 30
0.0
 10
0.9179958473924283
 20
3.07
 30
0.0
 10
0.9225000000000014
 20
3.07
 30
0.0
 10
0.9225000000000001
 20
3.07
 30
0.0
  0
SPLINE
  5
11F
330
1F
100
AcDbEntity
  8
0
  6
Continuous
 62
     8
370
    25
100
AcDbSpline
210
0.0
220
0.0
230
1.0
 70
     8
 71
     3
 72
    11
 73
     7
 74
     0
 42
0.000000001
 43
0.00000001
 40
0.0
 40
0.0
 40
0.0
 40
0.0
 40
0.1783461862335061
 40
0.3856897957220246
 40
0.6851635367841178
 40
1.0
 40
1.0
 40
1.0
 40
1.0
 10
0.2873738193851135
 20
3.028404270194305
 30
0.0
 10
0.2872481775455367
 20
3.028442022239979
 30
0.0
 10
0.2869764656773777
 20
3.028523664461165
 30
0.0
 10
0.2831998289174827
 20
3.02963498995325
 30
0.0
 10
0.2755292198971833
 20
3.031845774428167
 30
0.0
 10
0.2656345480809014
 20
3.034495268969799
 30
0.0
 10
0.2605634887730366
 20
3.03585314563372
 30
0.0
  0
SPLINE
  5
120
330
1F
100
AcDbEntity
  8
0
  6
Continuous
 62
     8
370
    25
100
AcDbSpline
210
0.0
220
0.0
230
1.0
 70
     8
 71
     3
 72
    12
 73
     8
 74
     0
 42
0.000000001
 43
0.00000001
 40
0.0
 40
0.0
 40
0.0
 40
0.0
 40
0.2116448676540313
 40
0.4164201336758572
 40
0.6144130334066943
 40
0.8216891737501365
 40
1.0
 40
1.0
 40
1.0
 40
1.0
 10
-0.2605634887755394
 20
3.0358531456324
 30
0.0
 10
-0.264068085899987
 20
3.034919310137108
 30
0.0
 10
-0.2709635273969576
 20
3.033081949722511
 30
0.0
 10
-0.2784296064289489
 20
3.03100342259552
 30
0.0
 10
-0.2837864632396384
 20
3.029464517112219
 30
0.0
 10
-0.2869704830877464
 20
3.028524929350646
 30
0.0
 10
-0.2872463137029708
 20
3.028442424518289
 30
0.0
 10
-0.2873738688051057
 20
3.028404270985878
 30
0.0
  0
LINE
  5
123
330
1F
100
AcDbEntity
  8
0
  6
Continuous
 62
     7
370
    25
100
AcDbLine
 10
-0.2875
 20
3.0284000968
 30
0.0
 11
-0.2875
 21
2.445
 31
0.0
  0
LINE
  5
124
330
1F
100
AcDbEntity
  8
0
  6
Continuous
 62
     7
370
    25
100
AcDbLine
 10
0.2875
 20
2.445
 30
0.0
 11
0.2875
 21
3.0284000968
 31
0.0
  0
LINE
  5
125
330
1F
100
AcDbEntity
  8
0
  6
Continuous
 62
     7
370
    25
100
AcDbLine
 10
-0.9725
 20
3.27
 30
0.0
 11
-0.9725
 21
3.12
 31
0.0
  0
LINE
  5
126
330
1F
100
AcDbEntity
  8
0
  6
Continuous
 62
     7
370
    25
100
AcDbLine
 10
0.9725
 20
3.12
 30
0.0
 11
0.9725
 21
3.27
 31
0.0
  0
LINE
  5
127
330
1F
100
AcDbEntity
  8
0
  6
Continuous
 62
     7
370
    25
100
AcDbLine
 10
-0.9725
 20
3.12
 30
0.0
 11
-0.8877118979
 21
3.12
 31
0.0
  0
LINE
  5
128
330
1F
100
AcDbEntity
  8
0
  6
Continuous
 62
     7
370
    25
100
AcDbLine
 10
-0.8937352912
 20
3.27
 30
0.0
 11
-0.8937352912
 21
3.12
 31
0.0
  0
LINE
  5
129
330
1F
100
AcDbEntity
  8
0
  6
Continuous
 62
     7
370
    25
100
AcDbLine
 10
0.9725
 20
3.27
 30
0.0
 11
-0.9725
 21
3.27
 31
0.0
  0
LINE
  5
12A
330
1F
100
AcDbEntity
  8
0
  6
Continuous
 62
     7
370
    25
100
AcDbLine
 10
0.8937352912
 20
3.12
 30
0.0
 11
0.8937352912
 21
3.27
 31
0.0
  0
LINE
  5
12B
330
1F
100
AcDbEntity
  8
0
  6
Continuous
 62
     7
370
    25
100
AcDbLine
 10
0.8877118979
 20
3.12
 30
0.0
 11
0.9725
 21
3.12
 31
0.0
  0
LINE
  5
12C
330
1F
100
AcDbEntity
  8
0
  6
Continuous
 62
     7
370
    25
100
AcDbLine
 10
0.1568785855
 20
2.445
 30
0.0
 11
0.1568785855
 21
3.0456930574
 31
0.0
  0
LINE
  5
12D
330
1F
100
AcDbEntity
  8
0
  6
Continuous
 62
     7
370
    25
100
AcDbLine
 10
-0.1568785855
 20
2.445
 30
0.0
 11
-0.1568785855
 21
3.0456930574
 31
0.0
  0
LINE
  5
12E
330
1F
100
AcDbEntity
  8
0
  6
Continuous
 62
     7
370
    25
100
AcDbLine
 10
0.2875
 20
2.445
 30
0.0
 11
-0.2875
 21
2.445
 31
0.0
  0
LINE
  5
12F
330
1F
100
AcDbEntity
  8
0
  6
Continuous
 62
     7
370
    25
100
AcDbLine
 10
0.8125000008
 20
3.3964822128
 30
0.0
 11
0.65625
 21
3.52
 31
0.0
  0
LINE
  5
130
330
1F
100
AcDbEntity
  8
0
  6
Continuous
 62
     7
370
    25
100
AcDbLine
 10
-0.65625
 20
3.52
 30
0.0
 11
-0.8125000041
 21
3.3964822102
 31
0.0
  0
LINE
  5
131
330
1F
100
AcDbEntity
  8
0
  6
Continuous
 62
     7
370
    25
100
AcDbLine
 10
0.65625
 20
3.52
 30
0.0
 11
-0.65625
 21
3.52
 31
0.0
  0
LINE
  5
132
330
1F
100
AcDbEntity
  8
0
  6
Continuous
 62
     7
370
    25
100
AcDbLine
 10
-0.1054035352
 20
3.4689227367
 30
0.0
 11
-0.1053612734
 21
3.3240761283
 31
0.0
  0
LINE
  5
133
330
1F
100
AcDbEntity
  8
0
  6
Continuous
 62
     7
370
    25
100
AcDbLine
 10
0.0400018419
 20
3.3314349426
 30
0.0
 11
0.0400018627
 21
3.375645302
 31
0.0
  0
LINE
  5
134
330
1F
100
AcDbEntity
  8
0
  6
Continuous
 62
     7
370
    25
100
AcDbLine
 10
0.065243501
 20
3.4705030554
 30
0.0
 11
0.0652881874
 21
3.3236040774
 31
0.0
  0
LINE
  5
135
330
1F
100
AcDbEntity
  8
0
  6
Continuous
 62
     7
370
    25
100
AcDbLine
 10
0.2497909155
 20
3.4649289154
 30
0.0
 11
0.2498612311
 21
3.3184003797
 31
0.0
  0
LINE
  5
136
330
1F
100
AcDbEntity
  8
0
  6
Continuous
 62
     7
370
    25
100
AcDbLine
 10
0.2246577009
 20
3.3574101058
 30
0.0
 11
0.2246433903
 21
3.4666030692
 31
0.0
  0
LINE
  5
137
330
1F
100
AcDbEntity
  8
0
  6
Continuous
 62
     7
370
    25
100
AcDbLine
 10
0.1221012028
 20
3.4705572981
 30
0.0
 11
0.1221034019
 21
3.3607397575
 31
0.0
  0
LINE
  5
138
330
1F
100
AcDbEntity
  8
0
  6
Continuous
 62
     7
370
    25
100
AcDbLine
 10
0.0968772401
 20
3.3205228147
 30
0.0
 11
0.0969202152
 21
3.4723490785
 31
0.0
  0
LINE
  5
139
330
1F
100
AcDbEntity
  8
0
  6
Continuous
 62
     7
370
    25
100
AcDbLine
 10
0.419113066
 20
3.4539323732
 30
0.0
 11
0.4192809872
 21
3.3076406005
 31
0.0
  0
LINE
  5
13A
330
1F
100
AcDbEntity
  8
0
  6
Continuous
 62
     7
370
    25
100
AcDbLine
 10
0.3942100826
 20
3.3827182664
 30
0.0
 11
0.3941624674
 21
3.4486307487
 31
0.0
  0
LINE
  5
13B
330
1F
100
AcDbEntity
  8
0
  6
Continuous
 62
     7
370
    25
100
AcDbLine
 10
0.1989476772
 20
3.0456930574
 30
0.0
 11
0.1989476772
 21
2.445
 31
0.0
  0
LINE
  5
13C
330
1F
100
AcDbEntity
  8
0
  6
Continuous
 62
     7
370
    25
100
AcDbLine
 10
-0.1989476772
 20
2.445
 30
0.0
 11
-0.1989476772
 21
3.0456930574
 31
0.0
  0
LINE
  5
13D
330
1F
100
AcDbEntity
  8
0
  6
Continuous
 62
     7
370
    25
100
AcDbLine
 10
0.2605634888
 20
3.0358531456
 30
0.0
 11
0.2605634888
 21
2.445
 31
0.0
  0
LINE
  5
13E
330
1F
100
AcDbEntity
  8
0
  6
Continuous
 62
     7
370
    25
100
AcDbLine
 10
-0.2605634888
 20
2.445
 30
0.0
 11
-0.2605634888
 21
3.0358531456
 31
0.0
  0
LINE
  5
13F
330
1F
100
AcDbEntity
  8
0
  6
Continuous
 62
     7
370
    25
100
AcDbLine
 10
-0.8752411747
 20
3.07
 30
0.0
 11
-0.8693424239
 21
3.07
 31
0.0
  0
LINE
  5
140
330
1F
100
AcDbEntity
  8
0
  6
Continuous
 62
     7
370
    25
100
AcDbLine
 10
0.8693424239
 20
3.07
 30
0.0
 11
0.8752411747
 21
3.07
 31
0.0
  0
ARC
  5
141
330
1F
100
AcDbEntity
  8
0
  6
Continuous
 62
     7
370
    25
100
AcDbCircle
 10
-0.9225
 20
3.12
 30
0.0
 40
0.0499999999999996
100
AcDbArc
 50
180.0
 51
270.0
  0
ARC
  5
142
330
1F
100
AcDbEntity
  8
0
  6
Continuous
 62
     7
370
    25
100
AcDbCircle
 10
0.9225
 20
3.12
 30
0.0
 40
0.0500000000000003
100
AcDbArc
 50
270.0
 51
0.0
  0
ENDSEC
  0
SECTION
  2
OBJECTS
  0
DICTIONARY
  5
C
330
0
100
AcDbDictionary
281
     1
  3
ACAD_GROUP
350
D
  3
ACAD_LAYOUT
350
1A
  3
ACAD_MLINESTYLE
350
17
  3
ACAD_PLOTSETTINGS
350
19
  3
ACAD_PLOTSTYLENAME
350
E
  3
ACAD_SCALELIST
350
47
  0
DICTIONARY
  5
D
102
{ACAD_REACTORS
330
C
102
}
330
C
100
AcDbDictionary
281
     1
  0
DICTIONARY
  5
1A
102
{ACAD_REACTORS
330
C
102
}
330
C
100
AcDbDictionary
281
     1
  3
Layout1
350
1E
  3
Layout2
350
26
  3
Model
350
22
  0
DICTIONARY
  5
17
102
{ACAD_REACTORS
330
C
102
}
330
C
100
AcDbDictionary
281
     1
  3
Standard
350
18
  0
DICTIONARY
  5
19
102
{ACAD_REACTORS
330
C
102
}
330
C
100
AcDbDictionary
281
     1
  0
ACDBDICTIONARYWDFLT
  5
E
102
{ACAD_REACTORS
330
C
102
}
330
C
100
AcDbDictionary
281
     1
  3
Normal
350
F
100
AcDbDictionaryWithDefault
340
F
  0
DICTIONARY
  5
47
102
{ACAD_REACTORS
330
C
102
}
330
C
100
AcDbDictionary
281
     1
  3
A0
350
48
  3
A1
350
49
  3
A2
350
4A
  3
A3
350
4B
  3
A4
350
4C
  3
A5
350
4D
  3
A6
350
4E
  3
A7
350
4F
  3
A8
350
50
  3
A9
350
51
  3
B0
350
52
  3
B1
350
53
  3
B2
350
54
  3
B3
350
55
  3
B4
350
56
  3
B5
350
57
  3
B6
350
58
  3
B7
350
59
  3
B8
350
5A
  3
B9
350
5B
  3
C0
350
5C
  3
C1
350
5D
  3
C2
350
5E
  3
C3
350
5F
  3
C4
350
60
  3
C5
350
61
  3
C6
350
62
  3
C7
350
63
  3
C8
350
64
  3
C9
350
65
  3
D0
350
66
  3
D1
350
67
  3
D2
350
68
  0
LAYOUT
  5
1E
102
{ACAD_REACTORS
330
1A
102
}
330
1A
100
AcDbPlotSettings
  1

  2
none_device
  4

  6

 40
0.0
 41
0.0
 42
0.0
 43
0.0
 44
0.0
 45
0.0
 46
0.0
 47
0.0
 48
0.0
 49
0.0
140
0.0
141
0.0
142
1.0
143
1.0
 70
   688
 72
     0
 73
     0
 74
     5
  7

 75
    16
147
1.0
148
0.0
149
0.0
100
AcDbLayout
  1
Layout1
 70
     1
 71
     1
 10
0.0
 20
0.0
 11
12.0
 21
9.0
 12
0.0
 22
0.0
 32
0.0
 14
1.0000000000E+20
 24
1.0000000000E+20
 34
1.0000000000E+20
 15
-1.0000000000E+20
 25
-1.0000000000E+20
 35
-1.0000000000E+20
146
0.0
 13
0.0
 23
0.0
 33
0.0
 16
1.0
 26
0.0
 36
0.0
 17
0.0
 27
1.0
 37
0.0
 76
     0
330
1B
  0
LAYOUT
  5
26
102
{ACAD_REACTORS
330
1A
102
}
330
1A
100
AcDbPlotSettings
  1

  2
none_device
  4

  6

 40
0.0
 41
0.0
 42
0.0
 43
0.0
 44
0.0
 45
0.0
 46
0.0
 47
0.0
 48
0.0
 49
0.0
140
0.0
141
0.0
142
1.0
143
1.0
 70
   688
 72
     0
 73
     0
 74
     5
  7

 75
    16
147
1.0
148
0.0
149
0.0
100
AcDbLayout
  1
Layout2
 70
     1
 71
     2
 10
0.0
 20
0.0
 11
0.0
 21
0.0
 12
0.0
 22
0.0
 32
0.0
 14
0.0
 24
0.0
 34
0.0
 15
0.0
 25
0.0
 35
0.0
146
0.0
 13
0.0
 23
0.0
 33
0.0
 16
1.0
 26
0.0
 36
0.0
 17
0.0
 27
1.0
 37
0.0
 76
     0
330
23
  0
LAYOUT
  5
22
102
{ACAD_REACTORS
330
1A
102
}
330
1A
100
AcDbPlotSettings
  1

  2
none_device
  4
ANSI_A_(11.00_x_8.50_Inches)
  6

 40
6.35
 41
19.05
 42
6.35000508
 43
19.05000254
 44
279.4
 45
215.9
 46
133.34999746
 47
-335.2529035836
 48
0.0
 49
0.0
140
0.0
141
0.0
142
5.5989717224
143
1.0
 70
  1696
 72
     0
 73
     0
 74
     0
  7

 75
     0
147
0.5913241897
148
-39.4088153714
149
0.0
100
AcDbLayout
  1
Model
 70
     1
 71
     0
 10
0.0
 20
0.0
 11
12.0
 21
9.0
 12
0.0
 22
0.0
 32
0.0
 14
-0.9725
 24
2.445
 34
0.0
 15
0.9725
 25
3.52
 35
0.0
146
0.0
 13
0.0
 23
0.0
 33
0.0
 16
1.0
 26
0.0
 36
0.0
 17
0.0
 27
1.0
 37
0.0
 76
     0
330
1F
331
29
  0
MLINESTYLE
  5
18
102
{ACAD_REACTORS
330
17
102
}
330
17
100
AcDbMlineStyle
  2
Standard
 70
     0
  3

 62
   256
 51
90.0
 52
90.0
 71
     2
 49
0.5
 62
   256
  6
BYLAYER
 49
-0.5
 62
   256
  6
BYLAYER
  0
ACDBPLACEHOLDER
  5
F
102
{ACAD_REACTORS
330
E
102
}
330
E
  0
SCALE
  5
48
102
{ACAD_REACTORS
330
47
102
}
330
47
100
AcDbScale
 70
     0
300
1:1
140
1.0
141
1.0
290
     1
  0
SCALE
  5
49
102
{ACAD_REACTORS
330
47
102
}
330
47
100
AcDbScale
 70
     0
300
1:2
140
1.0
141
2.0
290
     0
  0
SCALE
  5
4A
102
{ACAD_REACTORS
330
47
102
}
330
47
100
AcDbScale
 70
     0
300
1:4
140
1.0
141
4.0
290
     0
  0
SCALE
  5
4B
102
{ACAD_REACTORS
330
47
102
}
330
47
100
AcDbScale
 70
     0
300
1:5
140
1.0
141
5.0
290
     0
  0
SCALE
  5
4C
102
{ACAD_REACTORS
330
47
102
}
330
47
100
AcDbScale
 70
     0
300
1:8
140
1.0
141
8.0
290
     0
  0
SCALE
  5
4D
102
{ACAD_REACTORS
330
47
102
}
330
47
100
AcDbScale
 70
     0
300
1:10
140
1.0
141
10.0
290
     0
  0
SCALE
  5
4E
102
{ACAD_REACTORS
330
47
102
}
330
47
100
AcDbScale
 70
     0
300
1:16
140
1.0
141
16.0
290
     0
  0
SCALE
  5
4F
102
{ACAD_REACTORS
330
47
102
}
330
47
100
AcDbScale
 70
     0
300
1:20
140
1.0
141
20.0
290
     0
  0
SCALE
  5
50
102
{ACAD_REACTORS
330
47
102
}
330
47
100
AcDbScale
 70
     0
300
1:30
140
1.0
141
30.0
290
     0
  0
SCALE
  5
51
102
{ACAD_REACTORS
330
47
102
}
330
47
100
AcDbScale
 70
     0
300
1:40
140
1.0
141
40.0
290
     0
  0
SCALE
  5
52
102
{ACAD_REACTORS
330
47
102
}
330
47
100
AcDbScale
 70
     0
300
1:50
140
1.0
141
50.0
290
     0
  0
SCALE
  5
53
102
{ACAD_REACTORS
330
47
102
}
330
47
100
AcDbScale
 70
     0
300
1:100
140
1.0
141
100.0
290
     0
  0
SCALE
  5
54
102
{ACAD_REACTORS
330
47
102
}
330
47
100
AcDbScale
 70
     0
300
2:1
140
2.0
141
1.0
290
     0
  0
SCALE
  5
55
102
{ACAD_REACTORS
330
47
102
}
330
47
100
AcDbScale
 70
     0
300
4:1
140
4.0
141
1.0
290
     0
  0
SCALE
  5
56
102
{ACAD_REACTORS
330
47
102
}
330
47
100
AcDbScale
 70
     0
300
8:1
140
8.0
141
1.0
290
     0
  0
SCALE
  5
57
102
{ACAD_REACTORS
330
47
102
}
330
47
100
AcDbScale
 70
     0
300
10:1
140
10.0
141
1.0
290
     0
  0
SCALE
  5
58
102
{ACAD_REACTORS
330
47
102
}
330
47
100
AcDbScale
 70
     0
300
100:1
140
100.0
141
1.0
290
     0
  0
SCALE
  5
59
102
{ACAD_REACTORS
330
47
102
}
330
47
100
AcDbScale
 70
     0
300
1/128" = 1'-0"
140
0.0078125
141
12.0
290
     0
  0
SCALE
  5
5A
102
{ACAD_REACTORS
330
47
102
}
330
47
100
AcDbScale
 70
     0
300
1/64" = 1'-0"
140
0.015625
141
12.0
290
     0
  0
SCALE
  5
5B
102
{ACAD_REACTORS
330
47
102
}
330
47
100
AcDbScale
 70
     0
300
1/32" = 1'-0"
140
0.03125
141
12.0
290
     0
  0
SCALE
  5
5C
102
{ACAD_REACTORS
330
47
102
}
330
47
100
AcDbScale
 70
     0
300
1/16" = 1'-0"
140
0.0625
141
12.0
290
     0
  0
SCALE
  5
5D
102
{ACAD_REACTORS
330
47
102
}
330
47
100
AcDbScale
 70
     0
300
3/32" = 1'-0"
140
0.09375
141
12.0
290
     0
  0
SCALE
  5
5E
102
{ACAD_REACTORS
330
47
102
}
330
47
100
AcDbScale
 70
     0
300
1/8" = 1'-0"
140
0.125
141
12.0
290
     0
  0
SCALE
  5
5F
102
{ACAD_REACTORS
330
47
102
}
330
47
100
AcDbScale
 70
     0
300
3/16" = 1'-0"
140
0.1875
141
12.0
290
     0
  0
SCALE
  5
60
102
{ACAD_REACTORS
330
47
102
}
330
47
100
AcDbScale
 70
     0
300
1/4" = 1'-0"
140
0.25
141
12.0
290
     0
  0
SCALE
  5
61
102
{ACAD_REACTORS
330
47
102
}
330
47
100
AcDbScale
 70
     0
300
3/8" = 1'-0"
140
0.375
141
12.0
290
     0
  0
SCALE
  5
62
102
{ACAD_REACTORS
330
47
102
}
330
47
100
AcDbScale
 70
     0
300
1/2" = 1'-0"
140
0.5
141
12.0
290
     0
  0
SCALE
  5
63
102
{ACAD_REACTORS
330
47
102
}
330
47
100
AcDbScale
 70
     0
300
3/4" = 1'-0"
140
0.75
141
12.0
290
     0
  0
SCALE
  5
64
102
{ACAD_REACTORS
330
47
102
}
330
47
100
AcDbScale
 70
     0
300
1" = 1'-0"
140
1.0
141
12.0
290
     0
  0
SCALE
  5
65
102
{ACAD_REACTORS
330
47
102
}
330
47
100
AcDbScale
 70
     0
300
1-1/2" = 1'-0"
140
1.5
141
12.0
290
     0
  0
SCALE
  5
66
102
{ACAD_REACTORS
330
47
102
}
330
47
100
AcDbScale
 70
     0
300
3" = 1'-0"
140
3.0
141
12.0
290
     0
  0
SCALE
  5
67
102
{ACAD_REACTORS
330
47
102
}
330
47
100
AcDbScale
 70
     0
300
6" = 1'-0"
140
6.0
141
12.0
290
     0
  0
SCALE
  5
68
102
{ACAD_REACTORS
330
47
102
}
330
47
100
AcDbScale
 70
     0
300
1'-0" = 1'-0"
140
12.0
141
12.0
290
     0
  0
ENDSEC
  0
EOF
