  0
SECTION
  2
HEADER
  9
$ACADVER
  1
AC1015
  9
$ACADMAINTVER
 70
     6
  9
$DWGCODEPAGE
  3
ANSI_1252
  9
$INSBASE
 10
0.0
 20
0.0
 30
0.0
  9
$EXTMIN
 10
-0.2875
 20
-0.9725
 30
0.0
  9
$EXTMAX
 10
0.2875
 20
0.9725
 30
0.0
  9
$LIMMIN
 10
0.0
 20
0.0
  9
$LIMMAX
 10
12.0
 20
9.0
  9
$ORTHOMODE
 70
     0
  9
$REGENMODE
 70
     1
  9
$FILLMODE
 70
     1
  9
$QTEXTMODE
 70
     0
  9
$MIRRTEXT
 70
     1
  9
$LTSCALE
 40
1.0
  9
$ATTMODE
 70
     1
  9
$TEXTSIZE
 40
0.1377952756
  9
$TRACEWID
 40
0.05
  9
$TEXTSTYLE
  7
Standard
  9
$CLAYER
  8
0
  9
$CELTYPE
  6
ByLayer
  9
$CECOLOR
 62
   256
  9
$CELTSCALE
 40
1.0
  9
$DISPSILH
 70
     0
  9
$DIMSCALE
 40
1.0
  9
$DIMASZ
 40
0.14
  9
$DIMEXO
 40
0.0393700787
  9
$DIMDLI
 40
0.38
  9
$DIMRND
 40
0.0
  9
$DIMDLE
 40
0.0
  9
$DIMEXE
 40
0.0393700787
  9
$DIMTP
 40
0.0
  9
$DIMTM
 40
0.0
  9
$DIMTXT
 40
0.1377952756
  9
$DIMCEN
 40
0.09
  9
$DIMTSZ
 40
0.0
  9
$DIMTOL
 70
     0
  9
$DIMLIM
 70
     0
  9
$DIMTIH
 70
     1
  9
$DIMTOH
 70
     1
  9
$DIMSE1
 70
     0
  9
$DIMSE2
 70
     0
  9
$DIMTAD
 70
     1
  9
$DIMZIN
 70
     1
  9
$DIMBLK
  1

  9
$DIMASO
 70
     1
  9
$DIMSHO
 70
     1
  9
$DIMPOST
  1

  9
$DIMAPOST
  1

  9
$DIMALT
 70
     0
  9
$DIMALTD
 70
     2
  9
$DIMALTF
 40
25.4
  9
$DIMLFAC
 40
1.0
  9
$DIMTOFL
 70
     0
  9
$DIMTVP
 40
0.0
  9
$DIMTIX
 70
     0
  9
$DIMSOXD
 70
     0
  9
$DIMSAH
 70
     0
  9
$DIMBLK1
  1

  9
$DIMBLK2
  1

  9
$DIMSTYLE
  2
Standard
  9
$DIMCLRD
 70
     0
  9
$DIMCLRE
 70
     0
  9
$DIMCLRT
 70
     0
  9
$DIMTFAC
 40
1.0
  9
$DIMGAP
 40
0.06
  9
$DIMJUST
 70
     0
  9
$DIMSD1
 70
     0
  9
$DIMSD2
 70
     0
  9
$DIMTOLJ
 70
     1
  9
$DIMTZIN
 70
     1
  9
$DIMALTZ
 70
     0
  9
$DIMALTTZ
 70
     0
  9
$DIMUPT
 70
     0
  9
$DIMDEC
 70
     2
  9
$DIMTDEC
 70
     2
  9
$DIMALTU
 70
     2
  9
$DIMALTTD
 70
     2
  9
$DIMTXSTY
  7
Standard
  9
$DIMAUNIT
 70
     0
  9
$DIMADEC
 70
     2
  9
$DIMALTRND
 40
0.0
  9
$DIMAZIN
 70
     0
  9
$DIMDSEP
 70
    46
  9
$DIMATFIT
 70
     3
  9
$DIMFRAC
 70
     0
  9
$DIMLDRBLK
  1

  9
$DIMLUNIT
 70
     2
  9
$DIMLWD
 70
    -2
  9
$DIMLWE
 70
    -2
  9
$DIMTMOVE
 70
     0
  9
$LUNITS
 70
     2
  9
$LUPREC
 70
     2
  9
$SKETCHINC
 40
0.1
  9
$FILLETRAD
 40
0.5
  9
$AUNITS
 70
     0
  9
$AUPREC
 70
     2
  9
$MENU
  1
.
  9
$ELEVATION
 40
0.0
  9
$PELEVATION
 40
0.0
  9
$THICKNESS
 40
0.0
  9
$LIMCHECK
 70
     0
  9
$CHAMFERA
 40
0.0
  9
$CHAMFERB
 40
0.0
  9
$CHAMFERC
 40
0.0
  9
$CHAMFERD
 40
0.0
  9
$SKPOLY
 70
     0
  9
$TDCREATE
 40
2459293.386585996
  9
$TDUCREATE
 40
2459292.969919329
  9
$TDUPDATE
 40
2459293.386618623
  9
$TDUUPDATE
 40
2459292.969951956
  9
$TDINDWG
 40
0.0000000116
  9
$TDUSRTIMER
 40
0.0000000116
  9
$USRTIMER
 70
     1
  9
$ANGBASE
 50
0.0
  9
$ANGDIR
 70
     0
  9
$PDMODE
 70
     0
  9
$PDSIZE
 40
-1.0
  9
$PLINEWID
 40
0.0
  9
$SPLFRAME
 70
     0
  9
$SPLINETYPE
 70
     6
  9
$SPLINESEGS
 70
     8
  9
$HANDSEED
  5
203
  9
$SURFTAB1
 70
     6
  9
$SURFTAB2
 70
     6
  9
$SURFTYPE
 70
     6
  9
$SURFU
 70
     6
  9
$SURFV
 70
     6
  9
$UCSBASE
  2

  9
$UCSNAME
  2

  9
$UCSORG
 10
0.0
 20
0.0
 30
0.0
  9
$UCSXDIR
 10
1.0
 20
0.0
 30
0.0
  9
$UCSYDIR
 10
0.0
 20
1.0
 30
0.0
  9
$UCSORTHOREF
  2

  9
$UCSORTHOVIEW
 70
     0
  9
$UCSORGTOP
 10
0.0
 20
0.0
 30
0.0
  9
$UCSORGBOTTOM
 10
0.0
 20
0.0
 30
0.0
  9
$UCSORGLEFT
 10
0.0
 20
0.0
 30
0.0
  9
$UCSORGRIGHT
 10
0.0
 20
0.0
 30
0.0
  9
$UCSORGFRONT
 10
0.0
 20
0.0
 30
0.0
  9
$UCSORGBACK
 10
0.0
 20
0.0
 30
0.0
  9
$PUCSBASE
  2

  9
$PUCSNAME
  2

  9
$PUCSORG
 10
0.0
 20
0.0
 30
0.0
  9
$PUCSXDIR
 10
1.0
 20
0.0
 30
0.0
  9
$PUCSYDIR
 10
0.0
 20
1.0
 30
0.0
  9
$PUCSORTHOREF
  2

  9
$PUCSORTHOVIEW
 70
     0
  9
$PUCSORGTOP
 10
0.0
 20
0.0
 30
0.0
  9
$PUCSORGBOTTOM
 10
0.0
 20
0.0
 30
0.0
  9
$PUCSORGLEFT
 10
0.0
 20
0.0
 30
0.0
  9
$PUCSORGRIGHT
 10
0.0
 20
0.0
 30
0.0
  9
$PUCSORGFRONT
 10
0.0
 20
0.0
 30
0.0
  9
$PUCSORGBACK
 10
0.0
 20
0.0
 30
0.0
  9
$USERI1
 70
     0
  9
$USERI2
 70
     0
  9
$USERI3
 70
     0
  9
$USERI4
 70
     0
  9
$USERI5
 70
     0
  9
$USERR1
 40
0.0
  9
$USERR2
 40
0.0
  9
$USERR3
 40
0.0
  9
$USERR4
 40
0.0
  9
$USERR5
 40
0.0
  9
$WORLDVIEW
 70
     1
  9
$SHADEDGE
 70
     3
  9
$SHADEDIF
 70
    70
  9
$TILEMODE
 70
     1
  9
$MAXACTVP
 70
    64
  9
$PINSBASE
 10
0.0
 20
0.0
 30
0.0
  9
$PLIMCHECK
 70
     0
  9
$PEXTMIN
 10
1.0000000000E+20
 20
1.0000000000E+20
 30
1.0000000000E+20
  9
$PEXTMAX
 10
-1.0000000000E+20
 20
-1.0000000000E+20
 30
-1.0000000000E+20
  9
$PLIMMIN
 10
0.0
 20
0.0
  9
$PLIMMAX
 10
12.0
 20
9.0
  9
$UNITMODE
 70
     0
  9
$VISRETAIN
 70
     1
  9
$PLINEGEN
 70
     0
  9
$PSLTSCALE
 70
     1
  9
$TREEDEPTH
 70
  3020
  9
$CMLSTYLE
  2
Standard
  9
$CMLJUST
 70
     0
  9
$CMLSCALE
 40
1.0
  9
$PROXYGRAPHICS
 70
     1
  9
$MEASUREMENT
 70
     0
  9
$CELWEIGHT
370
    -1
  9
$ENDCAPS
280
     0
  9
$JOINSTYLE
280
     0
  9
$LWDISPLAY
290
     1
  9
$INSUNITS
 70
     1
  9
$HYPERLINKBASE
  1

  9
$STYLESHEET
  1

  9
$XEDIT
290
     1
  9
$CEPSNTYPE
380
     0
  9
$PSTYLEMODE
290
     1
  9
$FINGERPRINTGUID
  2
{e47dc00d-08ba-48c6-8b35-aad9173d61a7}
  9
$VERSIONGUID
  2
{FAEB1C32-E019-11D5-929B-00C0DF256EC4}
  9
$EXTNAMES
290
     1
  9
$PSVPSCALE
 40
0.0
  9
$OLESTARTUP
290
     0
  0
ENDSEC
  0
SECTION
  2
CLASSES
  0
CLASS
  1
ACDBDICTIONARYWDFLT
  2
AcDbDictionaryWithDefault
  3
ObjectDBX Classes
 90
        0
280
     0
281
     0
  0
CLASS
  1
VISUALSTYLE
  2
AcDbVisualStyle
  3
ObjectDBX Classes
 90
     4095
280
     0
281
     0
  0
CLASS
  1
MATERIAL
  2
AcDbMaterial
  3
ObjectDBX Classes
 90
     1153
280
     0
281
     0
  0
CLASS
  1
SCALE
  2
AcDbScale
  3
ObjectDBX Classes
 90
     1153
280
     0
281
     0
  0
CLASS
  1
TABLESTYLE
  2
AcDbTableStyle
  3
ObjectDBX Classes
 90
     4095
280
     0
281
     0
  0
CLASS
  1
MLEADERSTYLE
  2
AcDbMLeaderStyle
  3
ACDB_MLEADERSTYLE_CLASS
 90
     4095
280
     0
281
     0
  0
CLASS
  1
SUN
  2
AcDbSun
  3
SCENEOE
 90
     1153
280
     0
281
     0
  0
CLASS
  1
ACDBPLACEHOLDER
  2
AcDbPlaceHolder
  3
ObjectDBX Classes
 90
        0
280
     0
281
     0
  0
CLASS
  1
LAYOUT
  2
AcDbLayout
  3
ObjectDBX Classes
 90
        0
280
     0
281
     0
  0
ENDSEC
  0
SECTION
  2
TABLES
  0
TABLE
  2
VPORT
  5
8
330
0
100
AcDbSymbolTable
 70
     1
  0
VPORT
  5
29
330
8
100
AcDbSymbolTableRecord
100
AcDbViewportTableRecord
  2
*Active
 70
     0
 10
0.0
 20
0.0
 11
1.0
 21
1.0
 12
0.0
 22
0.0
 13
0.0
 23
0.0
 14
0.5
 24
0.5
 15
0.5
 25
0.5
 16
0.0
 26
0.0
 36
1.0
 17
0.0
 27
0.0
 37
0.0
 40
1.9839
 41
0.2956298201
 42
50.0
 43
0.0
 44
0.0
 50
0.0
 51
0.0
 71
     0
 72
   100
 73
     1
 74
     3
 75
     0
 76
     0
 77
     0
 78
     0
281
     0
 65
     1
110
0.0
120
0.0
130
0.0
111
1.0
121
0.0
131
0.0
112
0.0
122
1.0
132
0.0
 79
     0
146
0.0
  0
ENDTAB
  0
TABLE
  2
LTYPE
  5
5
330
0
100
AcDbSymbolTable
 70
     6
  0
LTYPE
  5
14
330
5
100
AcDbSymbolTableRecord
100
AcDbLinetypeTableRecord
  2
ByBlock
 70
     0
  3

 72
    65
 73
     0
 40
0.0
  0
LTYPE
  5
15
330
5
100
AcDbSymbolTableRecord
100
AcDbLinetypeTableRecord
  2
ByLayer
 70
     0
  3

 72
    65
 73
     0
 40
0.0
  0
LTYPE
  5
16
330
5
100
AcDbSymbolTableRecord
100
AcDbLinetypeTableRecord
  2
Continuous
 70
     0
  3
Solid line
 72
    65
 73
     0
 40
0.0
  0
LTYPE
  5
6E
330
5
100
AcDbSymbolTableRecord
100
AcDbLinetypeTableRecord
  2
HIDDEN
 70
     0
  3
Hidden __ __ __ __ __ __ __ __ __ __ __ __ __ __
 72
    65
 73
     2
 40
0.075
 49
0.05
 74
     0
 49
-0.025
 74
     0
  0
LTYPE
  5
6F
330
5
100
AcDbSymbolTableRecord
100
AcDbLinetypeTableRecord
  2
PHANTOM
 70
     0
  3
Phantom ______  __  __  ______  __  __  ______
 72
    65
 73
     6
 40
0.5
 49
0.25
 74
     0
 49
-0.05
 74
     0
 49
0.05
 74
     0
 49
-0.05
 74
     0
 49
0.05
 74
     0
 49
-0.05
 74
     0
  0
LTYPE
  5
70
330
5
100
AcDbSymbolTableRecord
100
AcDbLinetypeTableRecord
  2
CENTER
 70
     0
  3
Center ____ _ ____ _ ____ _ ____ _ ____ _ ____
 72
    65
 73
     4
 40
0.4
 49
0.25
 74
     0
 49
-0.05
 74
     0
 49
0.05
 74
     0
 49
-0.05
 74
     0
  0
LTYPE
  5
71
330
5
100
AcDbSymbolTableRecord
100
AcDbLinetypeTableRecord
  2
CENTERX2
 70
     0
  3
Center (2x) ________  __  ________  __  _____
 72
    65
 73
     4
 40
0.8
 49
0.5
 74
     0
 49
-0.1
 74
     0
 49
0.1
 74
     0
 49
-0.1
 74
     0
  0
LTYPE
  5
72
330
5
100
AcDbSymbolTableRecord
100
AcDbLinetypeTableRecord
  2
DOT2
 70
     0
  3
Dot (.5x) ........................................
 72
    65
 73
     2
 40
0.025
 49
0.0
 74
     0
 49
-0.025
 74
     0
  0
ENDTAB
  0
TABLE
  2
LAYER
  5
2
330
0
100
AcDbSymbolTable
 70
     1
  0
LAYER
  5
10
330
2
100
AcDbSymbolTableRecord
100
AcDbLayerTableRecord
  2
0
 70
     0
 62
     7
  6
Continuous
370
    -3
390
F
  0
ENDTAB
  0
TABLE
  2
STYLE
  5
3
330
0
100
AcDbSymbolTable
 70
     1
  0
STYLE
  5
11
330
3
100
AcDbSymbolTableRecord
100
AcDbTextStyleTableRecord
  2
Standard
 70
     0
 40
0.0
 41
1.0
 50
0.0
 71
     0
 42
0.1377952756
  3
txt
  4

  0
ENDTAB
  0
TABLE
  2
VIEW
  5
6
330
0
100
AcDbSymbolTable
 70
     0
  0
ENDTAB
  0
TABLE
  2
UCS
  5
7
330
0
100
AcDbSymbolTable
 70
     0
  0
ENDTAB
  0
TABLE
  2
APPID
  5
9
330
0
100
AcDbSymbolTable
 70
     1
  0
APPID
  5
12
330
9
100
AcDbSymbolTableRecord
100
AcDbRegAppTableRecord
  2
ACAD
 70
     0
  0
ENDTAB
  0
TABLE
  2
DIMSTYLE
  5
A
330
0
100
AcDbSymbolTable
 70
     1
100
AcDbDimStyleTable
  0
DIMSTYLE
105
27
330
A
100
AcDbSymbolTableRecord
100
AcDbDimStyleTableRecord
  2
Standard
 70
     0
178
     0
340
11
  0
ENDTAB
  0
TABLE
  2
BLOCK_RECORD
  5
1
330
0
100
AcDbSymbolTable
 70
     1
  0
BLOCK_RECORD
  5
1F
330
1
100
AcDbSymbolTableRecord
100
AcDbBlockTableRecord
  2
*Model_Space
340
22
  0
BLOCK_RECORD
  5
1B
330
1
100
AcDbSymbolTableRecord
100
AcDbBlockTableRecord
  2
*Paper_Space
340
1E
  0
BLOCK_RECORD
  5
23
330
1
100
AcDbSymbolTableRecord
100
AcDbBlockTableRecord
  2
*Paper_Space0
340
26
  0
ENDTAB
  0
ENDSEC
  0
SECTION
  2
BLOCKS
  0
BLOCK
  5
20
330
1F
100
AcDbEntity
  8
0
100
AcDbBlockBegin
  2
*Model_Space
 70
     0
 10
0.0
 20
0.0
 30
0.0
  3
*Model_Space
  1

  0
ENDBLK
  5
21
330
1F
100
AcDbEntity
  8
0
100
AcDbBlockEnd
  0
BLOCK
  5
1C
330
1B
100
AcDbEntity
 67
     1
  8
0
100
AcDbBlockBegin
  2
*Paper_Space
 70
     0
 10
0.0
 20
0.0
 30
0.0
  3
*Paper_Space
  1

  0
ENDBLK
  5
1D
330
1B
100
AcDbEntity
 67
     1
  8
0
100
AcDbBlockEnd
  0
BLOCK
  5
24
330
23
100
AcDbEntity
  8
0
100
AcDbBlockBegin
  2
*Paper_Space0
 70
     0
 10
0.0
 20
0.0
 30
0.0
  3
*Paper_Space0
  1

  0
ENDBLK
  5
25
330
23
100
AcDbEntity
  8
0
100
AcDbBlockEnd
  0
ENDSEC
  0
SECTION
  2
ENTITIES
  0
SPLINE
  5
77
330
1F
100
AcDbEntity
  8
0
  6
Continuous
 62
     7
370
    25
100
AcDbSpline
210
0.0
220
0.0
230
1.0
 70
     8
 71
     3
 72
     9
 73
     5
 74
     0
 42
0.000000001
 43
0.00000001
 40
0.0
 40
0.0
 40
0.0
 40
0.0
 40
0.4714650717551332
 40
1.0
 40
1.0
 40
1.0
 40
1.0
 10
0.287499999999999
 20
-0.0000000000000002
 30
0.0
 10
0.287499943493439
 20
0.0001237892863973
 30
0.0
 10
0.2874998236403188
 20
0.0003863522922562
 30
0.0
 10
0.2874997501924935
 20
0.0006580007889346
 30
0.0
 10
0.2874997113727525
 20
0.0008015765076343
 30
0.0
  0
SPLINE
  5
82
330
1F
100
AcDbEntity
  8
0
  6
Continuous
 62
     7
370
    25
100
AcDbSpline
210
0.0
220
0.0
230
1.0
 70
     8
 71
     3
 72
     9
 73
     5
 74
     0
 42
0.000000001
 43
0.00000001
 40
0.0
 40
0.0
 40
0.0
 40
0.0
 40
0.5041983033578474
 40
1.0
 40
1.0
 40
1.0
 40
1.0
 10
-0.1467967967417548
 20
-0.8125000000000013
 30
0.0
 10
-0.1332408367240532
 20
-0.8125000076039851
 30
0.0
 10
-0.1063546692629133
 20
-0.8125000226853204
 30
0.0
 10
-0.0794080151018592
 20
-0.8125000075193268
 30
0.0
 10
-0.0660478182499793
 20
-0.8125000000000016
 30
0.0
  0
SPLINE
  5
84
330
1F
100
AcDbEntity
  8
0
  6
Continuous
 62
     7
370
    25
100
AcDbSpline
210
0.0
220
0.0
230
1.0
 70
     8
 71
     3
 72
     9
 73
     5
 74
     0
 42
0.000000001
 43
0.00000001
 40
0.0
 40
0.0
 40
0.0
 40
0.0
 40
0.4958016966415173
 40
0.9999999999999999
 40
0.9999999999999999
 40
0.9999999999999999
 40
0.9999999999999999
 10
-0.0660478182499801
 20
0.8125000000000003
 30
0.0
 10
-0.0794080151018431
 20
0.8125000075193253
 30
0.0
 10
-0.1063546692628977
 20
0.8125000226853181
 30
0.0
 10
-0.1332408367240372
 20
0.8125000076039833
 30
0.0
 10
-0.1467967967417559
 20
0.8125000000000003
 30
0.0
  0
SPLINE
  5
85
330
1F
100
AcDbEntity
  8
0
  6
Continuous
 62
     7
370
    25
100
AcDbSpline
210
0.0
220
0.0
230
1.0
 70
     8
 71
     3
 72
     8
 73
     4
 74
     0
 42
0.000000001
 43
0.00000001
 40
0.0
 40
0.0
 40
0.0
 40
0.0
 40
1.0
 40
1.0
 40
1.0
 40
1.0
 10
-0.1846224276915767
 20
0.3608351099386499
 30
0.0
 10
-0.1837901423652092
 20
0.3682060355208305
 30
0.0
 10
-0.1829226304346191
 20
0.3755744806907622
 30
0.0
 10
-0.1820199030919795
 20
0.3829401087466699
 30
0.0
  0
SPLINE
  5
86
330
1F
100
AcDbEntity
  8
0
  6
Continuous
 62
     7
370
    25
100
AcDbSpline
210
0.0
220
0.0
230
1.0
 70
     8
 71
     3
 72
     8
 73
     4
 74
     0
 42
0.000000001
 43
0.00000001
 40
0.0
 40
0.0
 40
0.0
 40
0.0
 40
1.0
 40
1.0
 40
1.0
 40
1.0
 10
-0.1820198912030205
 20
0.3829401087473824
 30
0.0
 10
-0.1764841065384428
 20
0.3829404404841513
 30
0.0
 10
-0.1709488393494349
 20
0.3829344388389698
 30
0.0
 10
-0.1654141006013084
 20
0.3829221050206297
 30
0.0
  0
SPLINE
  5
87
330
1F
100
AcDbEntity
  8
0
  6
Continuous
 62
     7
370
    25
100
AcDbSpline
210
0.0
220
0.0
230
1.0
 70
     8
 71
     3
 72
    11
 73
     7
 74
     0
 42
0.000000001
 43
0.00000001
 40
0.0
 40
0.0
 40
0.0
 40
0.0
 40
0.2502221453754277
 40
0.5002519662301583
 40
0.7499137540153716
 40
1.0
 40
1.0
 40
1.0
 40
1.0
 10
-0.1654140494340886
 20
0.3829221026710941
 30
0.0
 10
-0.1646198074973119
 20
0.3828837512726764
 30
0.0
 10
-0.1630319340901086
 20
0.3828070779533054
 30
0.0
 10
-0.1606823827043533
 20
0.3824574321045365
 30
0.0
 10
-0.1584660883737496
 20
0.3814001489750358
 30
0.0
 10
-0.1571500668851568
 20
0.3801788033262997
 30
0.0
 10
-0.1564914972631123
 20
0.3795676118303815
 30
0.0
  0
SPLINE
  5
88
330
1F
100
AcDbEntity
  8
0
  6
Continuous
 62
     7
370
    25
100
AcDbSpline
210
0.0
220
0.0
230
1.0
 70
     8
 71
     3
 72
    13
 73
     9
 74
     0
 42
0.000000001
 43
0.00000001
 40
0.0
 40
0.0
 40
0.0
 40
0.0
 40
0.1249362104924561
 40
0.2492851048500453
 40
0.4991489646539586
 40
0.7493555007252807
 40
0.8743213005782926
 40
0.9999999999999999
 40
0.9999999999999999
 40
0.9999999999999999
 40
0.9999999999999999
 10
-0.1564914937741271
 20
0.3795676070833454
 30
0.0
 10
-0.15594873283061
 20
0.3788346381620007
 30
0.0
 10
-0.1548657624237131
 20
0.3773721459534648
 30
0.0
 10
-0.153002055892372
 20
0.373786054661196
 30
0.0
 10
-0.1515450368773052
 20
0.3679264252642278
 30
0.0
 10
-0.1509891101495336
 20
0.3612651880958441
 30
0.0
 10
-0.1511958180675684
 20
0.3556603903252832
 30
0.0
 10
-0.1514318847231008
 20
0.3528358583082242
 30
0.0
 10
-0.1515502537690204
 20
0.3514195754398344
 30
0.0
  0
SPLINE
  5
89
330
1F
100
AcDbEntity
  8
0
  6
Continuous
 62
     7
370
    25
100
AcDbSpline
210
0.0
220
0.0
230
1.0
 70
     8
 71
     3
 72
    13
 73
     9
 74
     0
 42
0.000000001
 43
0.00000001
 40
0.0
 40
0.0
 40
0.0
 40
0.0
 40
0.1256761693551397
 40
0.251392425164091
 40
0.5007173187741581
 40
0.7505997212777047
 40
0.8749631702399077
 40
1.0
 40
1.0
 40
1.0
 40
1.0
 10
-0.1515478755427587
 20
0.3514381456878402
 30
0.0
 10
-0.1517600976179508
 20
0.3497718240601962
 30
0.0
 10
-0.1521846094600102
 20
0.3464386493045825
 30
0.0
 10
-0.15343741933722
 20
0.3398560982910175
 30
0.0
 10
-0.1558137207336061
 20
0.3319963767778736
 30
0.0
 10
-0.1589688686392337
 20
0.325071811499428
 30
0.0
 10
-0.1618237813159272
 20
0.3202014958426335
 30
0.0
 10
-0.1633374955842646
 20
0.3179972487239116
 30
0.0
 10
-0.1640963962328332
 20
0.3168921494307401
 30
0.0
  0
SPLINE
  5
8A
330
1F
100
AcDbEntity
  8
0
  6
Continuous
 62
     7
370
    25
100
AcDbSpline
210
0.0
220
0.0
230
1.0
 70
     8
 71
     3
 72
    13
 73
     9
 74
     0
 42
0.000000001
 43
0.00000001
 40
0.0
 40
0.0
 40
0.0
 40
0.0
 40
0.1250344730577025
 40
0.2500979207110485
 40
0.5000392858467206
 40
0.7500363364291303
 40
0.8750054748699762
 40
1.0
 40
1.0
 40
1.0
 40
1.0
 10
-0.1640964183698179
 20
0.3168921206015594
 30
0.0
 10
-0.1653740135701555
 20
0.3152316953537962
 30
0.0
 10
-0.1679295000316163
 20
0.3119104600831833
 30
0.0
 10
-0.1732706027378332
 20
0.3061593358103222
 30
0.0
 10
-0.1802500824830184
 20
0.3005983484986301
 30
0.0
 10
-0.1873895121561912
 20
0.2969231811761028
 30
0.0
 10
-0.1931108038931156
 20
0.2953553878379238
 30
0.0
 10
-0.1959388448725296
 20
0.2951797943149353
 30
0.0
 10
-0.1973530089723044
 20
0.2950919886366686
 30
0.0
  0
SPLINE
  5
8B
330
1F
100
AcDbEntity
  8
0
  6
Continuous
 62
     7
370
    25
100
AcDbSpline
210
0.0
220
0.0
230
1.0
 70
     8
 71
     3
 72
    13
 73
     9
 74
     0
 42
0.000000001
 43
0.00000001
 40
0.0
 40
0.0
 40
0.0
 40
0.0
 40
0.1250786550662659
 40
0.2501767965730107
 40
0.5000786933799445
 40
0.7500471032327714
 40
0.8750152354707225
 40
1.0
 40
1.0
 40
1.0
 40
1.0
 10
-0.1973528392697074
 20
0.2950919796811
 30
0.0
 10
-0.1984575864521562
 20
0.295150326063267
 30
0.0
 10
-0.2006672529294756
 20
0.2952670279175877
 30
0.0
 10
-0.2050012055344864
 20
0.2961787405925675
 30
0.0
 10
-0.2101992275091793
 20
0.2986220021622827
 30
0.0
 10
-0.2149946054834541
 20
0.3025946845597559
 30
0.0
 10
-0.2185250870338836
 20
0.3066394019065365
 30
0.0
 10
-0.2201239983046867
 20
0.3090517654260885
 30
0.0
 10
-0.2209235071372274
 20
0.3102580274472524
 30
0.0
  0
SPLINE
  5
8C
330
1F
100
AcDbEntity
  8
0
  6
Continuous
 62
     7
370
    25
100
AcDbSpline
210
0.0
220
0.0
230
1.0
 70
     8
 71
     3
 72
    13
 73
     9
 74
     0
 42
0.000000001
 43
0.00000001
 40
0.0
 40
0.0
 40
0.0
 40
0.0
 40
0.1253737233800837
 40
0.2507358504457446
 40
0.499187562191802
 40
0.748441286323577
 40
0.8732062911789193
 40
1.0
 40
1.0
 40
1.0
 40
1.0
 10
-0.2209235071372274
 20
0.3102580274472524
 30
0.0
 10
-0.2217743153372725
 20
0.3114129468256499
 30
0.0
 10
-0.2234758530427275
 20
0.3137226787593569
 30
0.0
 10
-0.2265811904327671
 20
0.3189317121459478
 30
0.0
 10
-0.2298753206070004
 20
0.3265873301247859
 30
0.0
 10
-0.2317047991308734
 20
0.3361599123074057
 30
0.0
 10
-0.2320111714742019
 20
0.3446040927914932
 30
0.0
 10
-0.2316407950427708
 20
0.3489741962445326
 30
0.0
 10
-0.2314541133702708
 20
0.3511768693964369
 30
0.0
  0
SPLINE
  5
8D
330
1F
100
AcDbEntity
  8
0
  6
Continuous
 62
     7
370
    25
100
AcDbSpline
210
0.0
220
0.0
230
1.0
 70
     8
 71
     3
 72
    13
 73
     9
 74
     0
 42
0.000000001
 43
0.00000001
 40
0.0
 40
0.0
 40
0.0
 40
0.0
 40
0.1248421887156655
 40
0.2491734962805647
 40
0.4988349289827766
 40
0.7493738182032696
 40
0.8745283460281771
 40
1.0
 40
1.0
 40
1.0
 40
1.0
 10
-0.2314541081994437
 20
0.3511769077676656
 30
0.0
 10
-0.2312365139860011
 20
0.352800793403202
 30
0.0
 10
-0.2308022160015479
 20
0.3560419193841629
 30
0.0
 10
-0.2294067132673029
 20
0.3624343684295581
 30
0.0
 10
-0.2265763884780222
 20
0.3697716230396952
 30
0.0
 10
-0.2230244247601087
 20
0.3758781377901128
 30
0.0
 10
-0.2199750227838885
 20
0.3802456209982982
 30
0.0
 10
-0.2183878859814374
 20
0.382242131566315
 30
0.0
 10
-0.2175933134501261
 20
0.3832416499779407
 30
0.0
  0
SPLINE
  5
8E
330
1F
100
AcDbEntity
  8
0
  6
Continuous
 62
     7
370
    25
100
AcDbSpline
210
0.0
220
0.0
230
1.0
 70
     8
 71
     3
 72
    11
 73
     7
 74
     0
 42
0.000000001
 43
0.00000001
 40
0.0
 40
0.0
 40
0.0
 40
0.0
 40
0.2511248137677489
 40
0.5000595120289301
 40
0.7499233684405716
 40
1.0
 40
1.0
 40
1.0
 40
1.0
 10
-0.217593278253938
 20
0.3832416894554355
 30
0.0
 10
-0.2169235418602359
 20
0.3839935597370677
 30
0.0
 10
-0.2155899099932854
 20
0.3854907430719243
 30
0.0
 10
-0.2136800556640285
 20
0.3882009144978488
 30
0.0
 10
-0.2122918068280808
 20
0.3918522190130146
 30
0.0
 10
-0.2116411356485907
 20
0.3944399373824057
 30
0.0
 10
-0.2113156615957088
 20
0.3957343472348024
 30
0.0
  0
SPLINE
  5
8F
330
1F
100
AcDbEntity
  8
0
  6
Continuous
 62
     7
370
    25
100
AcDbSpline
210
0.0
220
0.0
230
1.0
 70
     8
 71
     3
 72
    13
 73
     9
 74
     0
 42
0.000000001
 43
0.00000001
 40
0.0
 40
0.0
 40
0.0
 40
0.0
 40
0.0997765769297795
 40
0.2488574782531778
 40
0.498400728394066
 40
0.7488344787267076
 40
0.8487764665056374
 40
1.0
 40
1.0
 40
1.0
 40
1.0
 10
-0.2113156614065824
 20
0.3957343805146398
 30
0.0
 10
-0.2113125318738848
 20
0.3964022724090998
 30
0.0
 10
-0.21130472635841
 20
0.3980680931629831
 30
0.0
 10
-0.2113953649741294
 20
0.4013724046369478
 30
0.0
 10
-0.2123879905065063
 20
0.4050738181864066
 30
0.0
 10
-0.2141127207770771
 20
0.4070528330083217
 30
0.0
 10
-0.2157878216729176
 20
0.4077942819153776
 30
0.0
 10
-0.216648174315572
 20
0.4080681226384655
 30
0.0
 10
-0.2171661815882813
 20
0.4082329986196513
 30
0.0
  0
SPLINE
  5
90
330
1F
100
AcDbEntity
  8
0
  6
Continuous
 62
     7
370
    25
100
AcDbSpline
210
0.0
220
0.0
230
1.0
 70
     8
 71
     3
 72
    12
 73
     8
 74
     0
 42
0.000000001
 43
0.00000001
 40
0.0
 40
0.0
 40
0.0
 40
0.0
 40
0.1536347805842339
 40
0.2509861720688772
 40
0.4997791869651351
 40
0.749898578588535
 40
1.0
 40
1.0
 40
1.0
 40
1.0
 10
-0.2171661850914759
 20
0.4082329978285397
 30
0.0
 10
-0.2176900945321432
 20
0.408101270585906
 30
0.0
 10
-0.2185459816204952
 20
0.407886073764847
 30
0.0
 10
-0.2202602248565169
 20
0.4073131656376901
 30
0.0
 10
-0.2222962650341693
 20
0.405639732392136
 30
0.0
 10
-0.2246274757004315
 20
0.4027010475241466
 30
0.0
 10
-0.2261530377130068
 20
0.4006495592593938
 30
0.0
 10
-0.2269157913167234
 20
0.3996238519764225
 30
0.0
  0
SPLINE
  5
91
330
1F
100
AcDbEntity
  8
0
  6
Continuous
 62
     7
370
    25
100
AcDbSpline
210
0.0
220
0.0
230
1.0
 70
     8
 71
     3
 72
    13
 73
     9
 74
     0
 42
0.000000001
 43
0.00000001
 40
0.0
 40
0.0
 40
0.0
 40
0.0
 40
0.1255631235523183
 40
0.2511507435158991
 40
0.5000014610042198
 40
0.7498237776524114
 40
0.8746536755278048
 40
1.0
 40
1.0
 40
1.0
 40
1.0
 10
-0.2269157963285185
 20
0.3996238442825393
 30
0.0
 10
-0.2279873589924963
 20
0.3979688118592865
 30
0.0
 10
-0.230130693374185
 20
0.3946584241285316
 30
0.0
 10
-0.2341210339382159
 20
0.3874811809339781
 30
0.0
 10
-0.2385607135177059
 20
0.3775632413119602
 30
0.0
 10
-0.2418774887927908
 20
0.3665191495433424
 30
0.0
 10
-0.2437709809054603
 20
0.3573163071535193
 30
0.0
 10
-0.2443511347939778
 20
0.3526453769019024
 30
0.0
 10
-0.2446418105299512
 20
0.350305090789129
 30
0.0
  0
SPLINE
  5
92
330
1F
100
AcDbEntity
  8
0
  6
Continuous
 62
     7
370
    25
100
AcDbSpline
210
0.0
220
0.0
230
1.0
 70
     8
 71
     3
 72
    13
 73
     9
 74
     0
 42
0.000000001
 43
0.00000001
 40
0.0
 40
0.0
 40
0.0
 40
0.0
 40
0.1249819534769528
 40
0.2499923817115434
 40
0.5000040598435319
 40
0.7499552081737891
 40
0.8749705767007996
 40
1.0
 40
1.0
 40
1.0
 40
1.0
 10
-0.2446418005120652
 20
0.3503051965407016
 30
0.0
 10
-0.2448020214808658
 20
0.3485924495368821
 30
0.0
 10
-0.2451224999217631
 20
0.34516656531246
 30
0.0
 10
-0.2453605603496073
 20
0.3383659646846734
 30
0.0
 10
-0.2451669052905749
 20
0.3300136370202812
 30
0.0
 10
-0.2442914795318697
 20
0.3220279727558558
 30
0.0
 10
-0.2431453897890263
 20
0.3160209691150209
 30
0.0
 10
-0.2424094876826978
 20
0.3131879813608421
 30
0.0
 10
-0.2420415159473663
 20
0.3117714078640231
 30
0.0
  0
SPLINE
  5
93
330
1F
100
AcDbEntity
  8
0
  6
Continuous
 62
     7
370
    25
100
AcDbSpline
210
0.0
220
0.0
230
1.0
 70
     8
 71
     3
 72
    15
 73
    11
 74
     0
 42
0.000000001
 43
0.00000001
 40
0.0
 40
0.0
 40
0.0
 40
0.0
 40
0.0629180607803449
 40
0.1256090488709153
 40
0.2512563697329187
 40
0.5004817637020464
 40
0.7504719338977547
 40
0.8748208498587215
 40
0.9372217283200266
 40
1.0
 40
1.0
 40
1.0
 40
1.0
 10
-0.2420414964102019
 20
0.3117713485475746
 30
0.0
 10
-0.2414950940772417
 20
0.3101178205526089
 30
0.0
 10
-0.2404042613895722
 20
0.3068167321822257
 30
0.0
 10
-0.2378939832130802
 20
0.3006734282312187
 30
0.0
 10
-0.2329294763237633
 20
0.2909246784817782
 30
0.0
 10
-0.2242554823767719
 20
0.2801557439597997
 30
0.0
 10
-0.2143396165714444
 20
0.2732953022256985
 30
0.0
 10
-0.2069274032918742
 20
0.2708453935790535
 30
0.0
 10
-0.2026008912539981
 20
0.2700806008675423
 30
0.0
 10
-0.2003984164319353
 20
0.2699845588380908
 30
0.0
 10
-0.1992938589829375
 20
0.2699363930484142
 30
0.0
  0
SPLINE
  5
94
330
1F
100
AcDbEntity
  8
0
  6
Continuous
 62
     7
370
    25
100
AcDbSpline
210
0.0
220
0.0
230
1.0
 70
     8
 71
     3
 72
    13
 73
     9
 74
     0
 42
0.000000001
 43
0.00000001
 40
0.0
 40
0.0
 40
0.0
 40
0.0
 40
0.1250260766575804
 40
0.2500779436142729
 40
0.5000163621538917
 40
0.7499519438971385
 40
0.8749684251827221
 40
1.0
 40
1.0
 40
1.0
 40
1.0
 10
-0.1992938466356162
 20
0.2699363937356523
 30
0.0
 10
-0.1976211297476711
 20
0.2700330321219461
 30
0.0
 10
-0.1942753509248115
 20
0.2702263288290383
 30
0.0
 10
-0.1875238565943876
 20
0.2718677080293571
 30
0.0
 10
-0.1790819190105959
 20
0.2757701580917583
 30
0.0
 10
-0.1708335059700194
 20
0.2820834567320017
 30
0.0
 10
-0.1644813482794233
 20
0.2885326421539007
 30
0.0
 10
-0.1614261229702842
 20
0.292274365002625
 30
0.0
 10
-0.1598984181051597
 20
0.2941453393569041
 30
0.0
  0
SPLINE
  5
95
330
1F
100
AcDbEntity
  8
0
  6
Continuous
 62
     7
370
    25
100
AcDbSpline
210
0.0
220
0.0
230
1.0
 70
     8
 71
     3
 72
    13
 73
     9
 74
     0
 42
0.000000001
 43
0.00000001
 40
0.0
 40
0.0
 40
0.0
 40
0.0
 40
0.1256842269633758
 40
0.2513978724072985
 40
0.5005689913801981
 40
0.7506058739044257
 40
0.8748271099886563
 40
1.0
 40
1.0
 40
1.0
 40
1.0
 10
-0.159898404013315
 20
0.2941453584772041
 30
0.0
 10
-0.1586280426143576
 20
0.2958692339175998
 30
0.0
 10
-0.1560870224672608
 20
0.2993173883000663
 30
0.0
 10
-0.1513357768658424
 20
0.3070646678133893
 30
0.0
 10
-0.1459689854717885
 20
0.3180549042116869
 30
0.0
 10
-0.141941549139195
 20
0.3307680523562799
 30
0.0
 10
-0.1397291801656486
 20
0.3414659973227565
 30
0.0
 10
-0.1390132896902902
 20
0.3468827360104504
 30
0.0
 10
-0.1386539785824661
 20
0.3496014401218498
 30
0.0
  0
SPLINE
  5
96
330
1F
100
AcDbEntity
  8
0
  6
Continuous
 62
     7
370
    25
100
AcDbSpline
210
0.0
220
0.0
230
1.0
 70
     8
 71
     3
 72
    14
 73
    10
 74
     0
 42
0.000000001
 43
0.00000001
 40
0.0
 40
0.0
 40
0.0
 40
0.0
 40
0.0718518722997633
 40
0.1435345058955181
 40
0.2871981724461852
 40
0.5716488155006813
 40
0.7860854339365326
 40
0.8926140741655741
 40
1.0
 40
1.0
 40
1.0
 40
1.0
 10
-0.1386539736494078
 20
0.3496014922981938
 30
0.0
 10
-0.1385187330256225
 20
0.351022502092406
 30
0.0
 10
-0.138248570321566
 20
0.3538611746580145
 30
0.0
 10
-0.1378741578262354
 20
0.3595230744125286
 30
0.0
 10
-0.1377968562328696
 20
0.3692267660127405
 30
0.0
 10
-0.1388856653231083
 20
0.3811232414247628
 30
0.0
 10
-0.1412491597554255
 20
0.391027036443809
 30
0.0
 10
-0.1435986713743361
 20
0.3970892353755794
 30
0.0
 10
-0.1450082109281858
 20
0.3997065237346236
 30
0.0
 10
-0.1457158051457085
 20
0.4010204124462892
 30
0.0
  0
SPLINE
  5
97
330
1F
100
AcDbEntity
  8
0
  6
Continuous
 62
     7
370
    25
100
AcDbSpline
210
0.0
220
0.0
230
1.0
 70
     8
 71
     3
 72
    11
 73
     7
 74
     0
 42
0.000000001
 43
0.00000001
 40
0.0
 40
0.0
 40
0.0
 40
0.0
 40
0.2512093348245203
 40
0.5000458219984013
 40
0.7496487130606646
 40
1.0
 40
1.0
 40
1.0
 40
1.0
 10
-0.1457158200598662
 20
0.4010204330958527
 30
0.0
 10
-0.1465615575126723
 20
0.4021914539258272
 30
0.0
 10
-0.1482450438372495
 20
0.4045224344760161
 30
0.0
 10
-0.1512825949197591
 20
0.4067098859877188
 30
0.0
 10
-0.1545937580071612
 20
0.4077996410890291
 30
0.0
 10
-0.1569188827784193
 20
0.4078328813802439
 30
0.0
 10
-0.1580831854373265
 20
0.4078495264050283
 30
0.0
  0
SPLINE
  5
98
330
1F
100
AcDbEntity
  8
0
  6
Continuous
 62
     7
370
    25
100
AcDbSpline
210
0.0
220
0.0
230
1.0
 70
     8
 71
     3
 72
     8
 73
     4
 74
     0
 42
0.000000001
 43
0.00000001
 40
0.0
 40
0.0
 40
0.0
 40
0.0
 40
1.0
 40
1.0
 40
1.0
 40
1.0
 10
-0.1580831914777768
 20
0.4078495264344772
 30
0.0
 10
-0.1664248297047108
 20
0.407890194604396
 30
0.0
 10
-0.1747678328060221
 20
0.4079157462541032
 30
0.0
 10
-0.1831121592705234
 20
0.4079261764811341
 30
0.0
  0
SPLINE
  5
99
330
1F
100
AcDbEntity
  8
0
  6
Continuous
 62
     7
370
    25
100
AcDbSpline
210
0.0
220
0.0
230
1.0
 70
     8
 71
     3
 72
    13
 73
     9
 74
     0
 42
0.000000001
 43
0.00000001
 40
0.0
 40
0.0
 40
0.0
 40
0.0
 40
0.1246742597525556
 40
0.2486244526886991
 40
0.4975307830272357
 40
0.7465765818559397
 40
0.8732429365056482
 40
1.0
 40
1.0
 40
1.0
 40
1.0
 10
-0.1831121592452415
 20
0.4079261766271495
 30
0.0
 10
-0.1837214141904756
 20
0.4079208431353253
 30
0.0
 10
-0.1849363857299686
 20
0.4079102071268311
 30
0.0
 10
-0.1873888731421509
 20
0.4074830916157875
 30
0.0
 10
-0.1907282575631573
 20
0.4054360368789841
 30
0.0
 10
-0.1928220771407737
 20
0.3997181199377211
 30
0.0
 10
-0.193660907554762
 20
0.3951088055041003
 30
0.0
 10
-0.1939431680065735
 20
0.3927558286539073
 30
0.0
 10
-0.1940843487477782
 20
0.3915789191236637
 30
0.0
  0
SPLINE
  5
9A
330
1F
100
AcDbEntity
  8
0
  6
Continuous
 62
     7
370
    25
100
AcDbSpline
210
0.0
220
0.0
230
1.0
 70
     8
 71
     3
 72
     9
 73
     5
 74
     0
 42
0.000000001
 43
0.00000001
 40
0.0
 40
0.0
 40
0.0
 40
0.0
 40
0.5000962771296793
 40
1.0
 40
1.0
 40
1.0
 40
1.0
 10
-0.194084348747778
 20
0.3915789191236636
 30
0.0
 10
-0.1946862735563166
 20
0.3866649104871018
 30
0.0
 10
-0.1958898914116492
 20
0.3768387852762409
 30
0.0
 10
-0.1970192720059006
 20
0.3670016546520556
 30
0.0
 10
-0.1975838535695044
 20
0.3620840364306638
 30
0.0
  0
SPLINE
  5
9B
330
1F
100
AcDbEntity
  8
0
  6
Continuous
 62
     7
370
    25
100
AcDbSpline
210
0.0
220
0.0
230
1.0
 70
     8
 71
     3
 72
    10
 73
     6
 74
     0
 42
0.000000001
 43
0.00000001
 40
0.0
 40
0.0
 40
0.0
 40
0.0
 40
0.5007773213338435
 40
0.7503929565739372
 40
1.0
 40
1.0
 40
1.0
 40
1.0
 10
-0.1975838535695047
 20
0.3620840364306636
 30
0.0
 10
-0.1978157589576737
 20
0.3603843233002582
 30
0.0
 10
-0.1981632590589364
 20
0.3578373773685711
 30
0.0
 10
-0.1981990752436013
 20
0.3545011900211233
 30
0.0
 10
-0.1981236131185335
 20
0.3528843806064131
 30
0.0
 10
-0.1980858827053658
 20
0.3520759898120135
 30
0.0
  0
SPLINE
  5
9C
330
1F
100
AcDbEntity
  8
0
  6
Continuous
 62
     7
370
    25
100
AcDbSpline
210
0.0
220
0.0
230
1.0
 70
     8
 71
     3
 72
    11
 73
     7
 74
     0
 42
0.000000001
 43
0.00000001
 40
0.0
 40
0.0
 40
0.0
 40
0.0
 40
0.2481590697927362
 40
0.4965233227682075
 40
0.7471441112464137
 40
1.0
 40
1.0
 40
1.0
 40
1.0
 10
-0.1980858704885697
 20
0.3520759312394111
 30
0.0
 10
-0.1978717126355125
 20
0.3510530198632908
 30
0.0
 10
-0.1974432198591425
 20
0.3490063513462274
 30
0.0
 10
-0.1965110408720894
 20
0.3461710179723016
 30
0.0
 10
-0.1948646150998286
 20
0.3447063111482316
 30
0.0
 10
-0.1936413161986084
 20
0.3443556166966609
 30
0.0
 10
-0.1930269514328362
 20
0.3441794910462727
 30
0.0
  0
SPLINE
  5
9D
330
1F
100
AcDbEntity
  8
0
  6
Continuous
 62
     7
370
    25
100
AcDbSpline
210
0.0
220
0.0
230
1.0
 70
     8
 71
     3
 72
    11
 73
     7
 74
     0
 42
0.000000001
 43
0.00000001
 40
0.0
 40
0.0
 40
0.0
 40
0.0
 40
0.2508601956688713
 40
0.5005126940136
 40
0.7499482912067283
 40
0.9999999999999999
 40
0.9999999999999999
 40
0.9999999999999999
 40
0.9999999999999999
 10
-0.1930269514328362
 20
0.3441794910462727
 30
0.0
 10
-0.1924858885676721
 20
0.3443234971892653
 30
0.0
 10
-0.1914063676354974
 20
0.3446108161973351
 30
0.0
 10
-0.1897642447864388
 20
0.3454551350276144
 30
0.0
 10
-0.1882742522224328
 20
0.3473346046158934
 30
0.0
 10
-0.187416746910688
 20
0.3488723569026944
 30
0.0
 10
-0.186987465393558
 20
0.3496421814455944
 30
0.0
  0
SPLINE
  5
9E
330
1F
100
AcDbEntity
  8
0
  6
Continuous
 62
     7
370
    25
100
AcDbSpline
210
0.0
220
0.0
230
1.0
 70
     8
 71
     3
 72
    11
 73
     7
 74
     0
 42
0.000000001
 43
0.00000001
 40
0.0
 40
0.0
 40
0.0
 40
0.0
 40
0.2502546267343251
 40
0.5000946189893943
 40
0.7497862569687235
 40
1.0
 40
1.0
 40
1.0
 40
1.0
 10
-0.186987457924001
 20
0.3496422043148286
 30
0.0
 10
-0.186697259520949
 20
0.3505307918140865
 30
0.0
 10
-0.1861173435301864
 20
0.3523064945560459
 30
0.0
 10
-0.1853561330771145
 20
0.3550690045742996
 30
0.0
 10
-0.1848949869025615
 20
0.3579556428078748
 30
0.0
 10
-0.1847133439983237
 20
0.3598746194970189
 30
0.0
 10
-0.1846224276915767
 20
0.3608351099386498
 30
0.0
  0
SPLINE
  5
9F
330
1F
100
AcDbEntity
  8
0
  6
Continuous
 62
     7
370
    25
100
AcDbSpline
210
0.0
220
0.0
230
1.0
 70
     8
 71
     3
 72
     9
 73
     5
 74
     0
 42
0.000000001
 43
0.00000001
 40
0.0
 40
0.0
 40
0.0
 40
0.0
 40
0.4984650006738454
 40
1.0
 40
1.0
 40
1.0
 40
1.0
 10
-0.1613401007832482
 20
0.2348295606314064
 30
0.0
 10
-0.1673266247352016
 20
0.2272209525528937
 30
0.0
 10
-0.1793365430722173
 20
0.2119568757005028
 30
0.0
 10
-0.1911534638283172
 20
0.196662404606052
 30
0.0
 10
-0.197080063171765
 20
0.1889916920560027
 30
0.0
  0
SPLINE
  5
A0
330
1F
100
AcDbEntity
  8
0
  6
Continuous
 62
     7
370
    25
100
AcDbSpline
210
0.0
220
0.0
230
1.0
 70
     8
 71
     3
 72
    15
 73
    11
 74
     0
 42
0.000000001
 43
0.00000001
 40
0.0
 40
0.0
 40
0.0
 40
0.0
 40
0.062680018313913
 40
0.1250197847912377
 40
0.2497662772691294
 40
0.4992133771616704
 40
0.7488106579542092
 40
0.8739472212019244
 40
0.9367766768443572
 40
1.0
 40
1.0
 40
1.0
 40
1.0
 10
-0.1970793124687619
 20
0.1889775028917921
 30
0.0
 10
-0.197168836616164
 20
0.1906922326114887
 30
0.0
 10
-0.1973473989386219
 20
0.1941123838223256
 30
0.0
 10
-0.1979609319692466
 20
0.2008178232445799
 30
0.0
 10
-0.1997157512308522
 20
0.2121093846591427
 30
0.0
 10
-0.2046574285619728
 20
0.2259153095942444
 30
0.0
 10
-0.2121058002771415
 20
0.2346319978982639
 30
0.0
 10
-0.2180917180923983
 20
0.2374631644038591
 30
0.0
 10
-0.221651423634423
 20
0.2382680593847982
 30
0.0
 10
-0.223469399960624
 20
0.2383775839096304
 30
0.0
 10
-0.2243812283697767
 20
0.2384325172835152
 30
0.0
  0
SPLINE
  5
A1
330
1F
100
AcDbEntity
  8
0
  6
Continuous
 62
     7
370
    25
100
AcDbSpline
210
0.0
220
0.0
230
1.0
 70
     8
 71
     3
 72
    17
 73
    13
 74
     0
 42
0.000000001
 43
0.00000001
 40
0.0
 40
0.0
 40
0.0
 40
0.0
 40
0.0625612964276726
 40
0.1248298895322144
 40
0.2499238791868477
 40
0.3740423516421193
 40
0.4995171982951245
 40
0.6242768330235872
 40
0.7492867942242961
 40
0.8746761059047619
 40
0.9372299533439559
 40
1.0
 40
1.0
 40
1.0
 40
1.0
 10
-0.2243812346985855
 20
0.2384325167483886
 30
0.0
 10
-0.2254244977902922
 20
0.2383438794326535
 30
0.0
 10
-0.2275061428956066
 20
0.2381670195054549
 30
0.0
 10
-0.2316971448194369
 20
0.2370808058856742
 30
0.0
 10
-0.2369005524560003
 20
0.2343098500529299
 30
0.0
 10
-0.2428209081289775
 20
0.2285346136369704
 30
0.0
 10
-0.2480353252368071
 20
0.2204625074796889
 30
0.0
 10
-0.2523907493029161
 20
0.2107173843124816
 30
0.0
 10
-0.2556627796921611
 20
0.1996840887510845
 30
0.0
 10
-0.2573986136159447
 20
0.1898593913183673
 30
0.0
 10
-0.2583476011427335
 20
0.1818790701319414
 30
0.0
 10
-0.2586385500843508
 20
0.1778643743860325
 30
0.0
 10
-0.2587842755166133
 20
0.1758535635897369
 30
0.0
  0
SPLINE
  5
A2
330
1F
100
AcDbEntity
  8
0
  6
Continuous
 62
     7
370
    25
100
AcDbSpline
210
0.0
220
0.0
230
1.0
 70
     8
 71
     3
 72
     9
 73
     5
 74
     0
 42
0.000000001
 43
0.00000001
 40
0.0
 40
0.0
 40
0.0
 40
0.0
 40
0.5000000192623762
 40
1.0
 40
1.0
 40
1.0
 40
1.0
 10
-0.2587842747018189
 20
0.1758535781078893
 30
0.0
 10
-0.2592348998406206
 20
0.167205534476948
 30
0.0
 10
-0.2601361500835036
 20
0.1499094478813928
 30
0.0
 10
-0.2608304936649915
 20
0.1326003775120019
 30
0.0
 10
-0.2611776654423608
 20
0.1239458426607202
 30
0.0
  0
SPLINE
  5
A3
330
1F
100
AcDbEntity
  8
0
  6
Continuous
 62
     7
370
    25
100
AcDbSpline
210
0.0
220
0.0
230
1.0
 70
     8
 71
     3
 72
    14
 73
    10
 74
     0
 42
0.000000001
 43
0.00000001
 40
0.0
 40
0.0
 40
0.0
 40
0.0
 40
0.1248740447771278
 40
0.2494117289863705
 40
0.4984613754678414
 40
0.6211107156115243
 40
0.7491442355449305
 40
0.8741644253264574
 40
0.9999999999999999
 40
0.9999999999999999
 40
0.9999999999999999
 40
0.9999999999999999
 10
-0.261177665442361
 20
0.1239458426607202
 30
0.0
 10
-0.2612275801857485
 20
0.1226924644354591
 30
0.0
 10
-0.2613272752222343
 20
0.1201890840829273
 30
0.0
 10
-0.261246352903394
 20
0.1152146639958288
 30
0.0
 10
-0.2603210811676667
 20
0.1104077563582632
 30
0.0
 10
-0.2584035787856258
 20
0.107164372898789
 30
0.0
 10
-0.2566138743688812
 20
0.105770590810376
 30
0.0
 10
-0.2546743657094613
 20
0.1052951832750124
 30
0.0
 10
-0.2533760505845178
 20
0.1053391956714802
 30
0.0
 10
-0.2527247829917259
 20
0.1053612733989516
 30
0.0
  0
SPLINE
  5
A5
330
1F
100
AcDbEntity
  8
0
  6
Continuous
 62
     7
370
    25
100
AcDbSpline
210
0.0
220
0.0
230
1.0
 70
     8
 71
     3
 72
     9
 73
     5
 74
     0
 42
0.000000001
 43
0.00000001
 40
0.0
 40
0.0
 40
0.0
 40
0.0
 40
0.5001250198321404
 40
1.0
 40
1.0
 40
1.0
 40
1.0
 10
-0.1657266433810448
 20
0.1054035352217234
 30
0.0
 10
-0.1649957485796894
 20
0.1053577525828341
 30
0.0
 10
-0.1635343243909922
 20
0.1052662101942837
 30
0.0
 10
-0.1620665099438934
 20
0.1055353889172251
 30
0.0
 10
-0.1613327862262599
 20
0.1056699446260171
 30
0.0
  0
SPLINE
  5
A6
330
1F
100
AcDbEntity
  8
0
  6
Continuous
 62
     7
370
    25
100
AcDbSpline
210
0.0
220
0.0
230
1.0
 70
     8
 71
     3
 72
    12
 73
     8
 74
     0
 42
0.000000001
 43
0.00000001
 40
0.0
 40
0.0
 40
0.0
 40
0.0
 40
0.2506573532635957
 40
0.4999407920597319
 40
0.7490485951301723
 40
0.8467684936423677
 40
1.0
 40
1.0
 40
1.0
 40
1.0
 10
-0.1613327837820058
 20
0.1056699469266747
 30
0.0
 10
-0.1606740130416481
 20
0.1062898981029692
 30
0.0
 10
-0.1593600824450304
 20
0.1075264023510178
 30
0.0
 10
-0.1574979686399083
 20
0.1100381081365128
 30
0.0
 10
-0.1566890727657645
 20
0.1132082080788939
 30
0.0
 10
-0.1563420018972188
 20
0.1159298529770245
 30
0.0
 10
-0.1561919828314552
 20
0.1173075254605673
 30
0.0
 10
-0.1561003808440456
 20
0.1181487354551087
 30
0.0
  0
SPLINE
  5
A7
330
1F
100
AcDbEntity
  8
0
  6
Continuous
 62
     7
370
    25
100
AcDbSpline
210
0.0
220
0.0
230
1.0
 70
     8
 71
     3
 72
    13
 73
     9
 74
     0
 42
0.000000001
 43
0.00000001
 40
0.0
 40
0.0
 40
0.0
 40
0.0
 40
0.1254009648815344
 40
0.2504852196871766
 40
0.3754517048088805
 40
0.5007283078844692
 40
0.7494311457203148
 40
1.0
 40
1.0
 40
1.0
 40
1.0
 10
-0.1561003803083993
 20
0.1181487736767541
 30
0.0
 10
-0.15608515850516
 20
0.119143864278772
 30
0.0
 10
-0.1560547533425518
 20
0.1211315323026229
 30
0.0
 10
-0.1562909381911343
 20
0.1240893826500042
 30
0.0
 10
-0.1571044275088321
 20
0.1265693905615546
 30
0.0
 10
-0.1586235250370768
 20
0.1290596988252299
 30
0.0
 10
-0.1611009695978459
 20
0.1304667535555221
 30
0.0
 10
-0.1631405399586822
 20
0.1305724306273898
 30
0.0
 10
-0.1641641365627119
 20
0.1306254666461341
 30
0.0
  0
SPLINE
  5
A8
330
1F
100
AcDbEntity
  8
0
  6
Continuous
 62
     7
370
    25
100
AcDbSpline
210
0.0
220
0.0
230
1.0
 70
     8
 71
     3
 72
     8
 73
     4
 74
     0
 42
0.000000001
 43
0.00000001
 40
0.0
 40
0.0
 40
0.0
 40
0.0
 40
1.0
 40
1.0
 40
1.0
 40
1.0
 10
-0.164164144935078
 20
0.130625466653729
 30
0.0
 10
-0.1759624675812143
 20
0.1306361694061227
 30
0.0
 10
-0.1877610838117284
 20
0.1306367111533785
 30
0.0
 10
-0.1995599804860013
 20
0.1306270914005426
 30
0.0
  0
SPLINE
  5
A9
330
1F
100
AcDbEntity
  8
0
  6
Continuous
 62
     7
370
    25
100
AcDbSpline
210
0.0
220
0.0
230
1.0
 70
     8
 71
     3
 72
     9
 73
     5
 74
     0
 42
0.000000001
 43
0.00000001
 40
0.0
 40
0.0
 40
0.0
 40
0.0
 40
0.4999657587489277
 40
1.0
 40
1.0
 40
1.0
 40
1.0
 10
-0.1995599804305932
 20
0.1306270927444362
 30
0.0
 10
-0.1993697597286838
 20
0.1351547986831651
 30
0.0
 10
-0.1989892922695016
 20
0.1442108307403578
 30
0.0
 10
-0.1985454089292714
 20
0.1532632600906265
 30
0.0
 10
-0.1983234520600355
 20
0.1577897847322671
 30
0.0
  0
SPLINE
  5
AA
330
1F
100
AcDbEntity
  8
0
  6
Continuous
 62
     7
370
    25
100
AcDbSpline
210
0.0
220
0.0
230
1.0
 70
     8
 71
     3
 72
     9
 73
     5
 74
     0
 42
0.000000001
 43
0.00000001
 40
0.0
 40
0.0
 40
0.0
 40
0.0
 40
0.501873590168593
 40
1.0
 40
1.0
 40
1.0
 40
1.0
 10
-0.1983234393922498
 20
0.1577898016726792
 30
0.0
 10
-0.191164409299871
 20
0.1673380107295921
 30
0.0
 10
-0.1768998011741995
 20
0.1863631382596249
 30
0.0
 10
-0.1623404574783515
 20
0.2053444706533503
 30
0.0
 10
-0.1550880638736372
 20
0.2147995736124533
 30
0.0
  0
SPLINE
  5
AB
330
1F
100
AcDbEntity
  8
0
  6
Continuous
 62
     7
370
    25
100
AcDbSpline
210
0.0
220
0.0
230
1.0
 70
     8
 71
     3
 72
    11
 73
     7
 74
     0
 42
0.000000001
 43
0.00000001
 40
0.0
 40
0.0
 40
0.0
 40
0.0
 40
0.2506525154712748
 40
0.4995957531485446
 40
0.7488073638869889
 40
1.0
 40
1.0
 40
1.0
 40
1.0
 10
-0.1550880638736374
 20
0.2147995736124532
 30
0.0
 10
-0.1545439043468765
 20
0.2155029152700059
 30
0.0
 10
-0.1534592960871351
 20
0.2169048022786606
 30
0.0
 10
-0.151947271222928
 20
0.2194603876667087
 30
0.0
 10
-0.1510731333347727
 20
0.2229060469678607
 30
0.0
 10
-0.1507876171102496
 20
0.2252704007362128
 30
0.0
 10
-0.150644293840029
 20
0.2264572576813985
 30
0.0
  0
SPLINE
  5
AC
330
1F
100
AcDbEntity
  8
0
  6
Continuous
 62
     7
370
    25
100
AcDbSpline
210
0.0
220
0.0
230
1.0
 70
     8
 71
     3
 72
    13
 73
     9
 74
     0
 42
0.000000001
 43
0.00000001
 40
0.0
 40
0.0
 40
0.0
 40
0.0
 40
0.1504857627106024
 40
0.2493927083003768
 40
0.4991653873298109
 40
0.7490293228541695
 40
0.8920865644824465
 40
1.0
 40
1.0
 40
1.0
 40
1.0
 10
-0.1506442936074346
 20
0.226457298101707
 30
0.0
 10
-0.1506471450433263
 20
0.2274284481188158
 30
0.0
 10
-0.1506518705888315
 20
0.2290378876336917
 30
0.0
 10
-0.1507627384780763
 20
0.2322273259710338
 30
0.0
 10
-0.1515187630492862
 20
0.2357637757325122
 30
0.0
 10
-0.1532024181847938
 20
0.2382120323152233
 30
0.0
 10
-0.1548009410993214
 20
0.2389659270740389
 30
0.0
 10
-0.1556176550659382
 20
0.2392304252229388
 30
0.0
 10
-0.1559688291990087
 20
0.2393441552580985
 30
0.0
  0
SPLINE
  5
AD
330
1F
100
AcDbEntity
  8
0
  6
Continuous
 62
     7
370
    25
100
AcDbSpline
210
0.0
220
0.0
230
1.0
 70
     8
 71
     3
 72
    11
 73
     7
 74
     0
 42
0.000000001
 43
0.00000001
 40
0.0
 40
0.0
 40
0.0
 40
0.0
 40
0.2507461755417223
 40
0.4990682785050456
 40
0.7486068811194057
 40
1.0
 40
1.0
 40
1.0
 40
1.0
 10
-0.1559688291990087
 20
0.2393441552580985
 30
0.0
 10
-0.156363400674198
 20
0.2392525421390126
 30
0.0
 10
-0.1571487291301338
 20
0.239070201564797
 30
0.0
 10
-0.1583330085994527
 20
0.2385498725765341
 30
0.0
 10
-0.1594473564533347
 20
0.2374378428089841
 30
0.0
 10
-0.16012785879675
 20
0.2364969954719771
 30
0.0
 10
-0.1604693696238267
 20
0.2360248302321021
 30
0.0
  0
SPLINE
  5
AE
330
1F
100
AcDbEntity
  8
0
  6
Continuous
 62
     7
370
    25
100
AcDbSpline
210
0.0
220
0.0
230
1.0
 70
     8
 71
     3
 72
     9
 73
     5
 74
     0
 42
0.000000001
 43
0.00000001
 40
0.0
 40
0.0
 40
0.0
 40
0.0
 40
0.5000204606335437
 40
1.0
 40
1.0
 40
1.0
 40
1.0
 10
-0.1604646364576552
 20
0.2360334695168475
 30
0.0
 10
-0.1605967273152627
 20
0.2357916961590459
 30
0.0
 10
-0.1608608982202697
 20
0.2353081692299774
 30
0.0
 10
-0.1611803709533317
 20
0.2349890924785885
 30
0.0
 10
-0.1613401007832482
 20
0.2348295606314065
 30
0.0
  0
SPLINE
  5
B0
330
1F
100
AcDbEntity
  8
0
  6
Continuous
 62
     7
370
    25
100
AcDbSpline
210
0.0
220
0.0
230
1.0
 70
     8
 71
     3
 72
    11
 73
     7
 74
     0
 42
0.000000001
 43
0.00000001
 40
0.0
 40
0.0
 40
0.0
 40
0.0
 40
0.2256694985148835
 40
0.4146695119199078
 40
0.6877123574494378
 40
1.0
 40
1.0
 40
1.0
 40
1.0
 10
-0.2503027616793539
 20
-0.0400018406992963
 30
0.0
 10
-0.2503807952293701
 20
-0.0327455620230268
 30
0.0
 10
-0.2505241825028455
 20
-0.019412091807312
 30
0.0
 10
-0.2505672184439058
 20
0.0027025207993083
 30
0.0
 10
-0.2504958837916875
 20
0.0276027518517179
 30
0.0
 10
-0.2502099040390241
 20
0.0464224069141695
 30
0.0
 10
-0.2500573270853284
 20
0.0564631374634102
 30
0.0
  0
SPLINE
  5
B1
330
1F
100
AcDbEntity
  8
0
  6
Continuous
 62
     7
370
    25
100
AcDbSpline
210
0.0
220
0.0
230
1.0
 70
     8
 71
     3
 72
    13
 73
     9
 74
     0
 42
0.000000001
 43
0.00000001
 40
0.0
 40
0.0
 40
0.0
 40
0.0
 40
0.248474203283215
 40
0.4975423240669123
 40
0.6231561297223372
 40
0.7485428159883823
 40
0.8737995834075688
 40
1.0
 40
1.0
 40
1.0
 40
1.0
 10
-0.2500573274254899
 20
0.0564631374466653
 30
0.0
 10
-0.2500438729409709
 20
0.0584725220301339
 30
0.0
 10
-0.2500169318122409
 20
0.0624960941450375
 30
0.0
 10
-0.2506651760716834
 20
0.0674962622108883
 30
0.0
 10
-0.2519315528407378
 20
0.0706680422106809
 30
0.0
 10
-0.253205662356352
 20
0.0724402523195192
 30
0.0
 10
-0.2547408736486712
 20
0.0731592619276295
 30
0.0
 10
-0.2557839181413509
 20
0.0732735785344633
 30
0.0
 10
-0.2563073975162514
 20
0.0733309513371636
 30
0.0
  0
SPLINE
  5
B2
330
1F
100
AcDbEntity
  8
0
  6
Continuous
 62
     7
370
    25
100
AcDbSpline
210
0.0
220
0.0
230
1.0
 70
     8
 71
     3
 72
    13
 73
     9
 74
     0
 42
0.000000001
 43
0.00000001
 40
0.0
 40
0.0
 40
0.0
 40
0.0
 40
0.1251277150505936
 40
0.250336230773155
 40
0.3725431797701197
 40
0.5004818077343977
 40
0.7498395572788991
 40
1.0
 40
1.0
 40
1.0
 40
1.0
 10
-0.2563072548809802
 20
0.0733309785078331
 30
0.0
 10
-0.2567974074308931
 20
0.0732369956832553
 30
0.0
 10
-0.2577780290445734
 20
0.0730489693451037
 30
0.0
 10
-0.2592340819324258
 20
0.0724708162514319
 30
0.0
 10
-0.2605680883579675
 20
0.0710080792105108
 30
0.0
 10
-0.2619159503178428
 20
0.06806055558443
 30
0.0
 10
-0.2628541785993622
 20
0.0634133016657163
 30
0.0
 10
-0.2629698271288354
 20
0.059599551649698
 30
0.0
 10
-0.2630277443133965
 20
0.0576896124178403
 30
0.0
  0
SPLINE
  5
B3
330
1F
100
AcDbEntity
  8
0
  6
Continuous
 62
     7
370
    25
100
AcDbSpline
210
0.0
220
0.0
230
1.0
 70
     8
 71
     3
 72
    12
 73
     8
 74
     0
 42
0.000000001
 43
0.00000001
 40
0.0
 40
0.0
 40
0.0
 40
0.0
 40
0.2742245156418289
 40
0.4999998266871442
 40
0.5431891507677927
 40
0.752561157549008
 40
1.0
 40
1.0
 40
1.0
 40
1.0
 10
-0.2630277440315807
 20
0.0576896260866435
 30
0.0
 10
-0.2631792579446137
 20
0.0479823654662237
 30
0.0
 10
-0.2634555167250511
 20
0.0302828953205411
 30
0.0
 10
-0.2635318375338431
 20
0.0110515464041428
 30
0.0
 10
-0.263544480359423
 20
-0.0058835507733944
 30
0.0
 10
-0.2635008057265195
 20
-0.0235859042251316
 30
0.0
 10
-0.2632910984530271
 20
-0.0397572907035568
 30
0.0
 10
-0.2631775071819491
 20
-0.0485167787012141
 30
0.0
  0
SPLINE
  5
B4
330
1F
100
AcDbEntity
  8
0
  6
Continuous
 62
     7
370
    25
100
AcDbSpline
210
0.0
220
0.0
230
1.0
 70
     8
 71
     3
 72
    13
 73
     9
 74
     0
 42
0.000000001
 43
0.00000001
 40
0.0
 40
0.0
 40
0.0
 40
0.0
 40
0.1255947824946405
 40
0.2510716656773325
 40
0.4997917331529663
 40
0.7480385857069852
 40
0.8740069664277037
 40
1.0
 40
1.0
 40
1.0
 40
1.0
 10
-0.263177507181949
 20
-0.0485167787012147
 30
0.0
 10
-0.2631616191123918
 20
-0.0496796155136262
 30
0.0
 10
-0.2631298578878494
 20
-0.0520041975512242
 30
0.0
 10
-0.2628375117666749
 20
-0.0565719415117968
 30
0.0
 10
-0.2616250696344266
 20
-0.0624108188717274
 30
0.0
 10
-0.2586062865648268
 20
-0.0647991346913491
 30
0.0
 10
-0.2562447122136159
 20
-0.0652837092586625
 30
0.0
 10
-0.2550439082283319
 20
-0.0652866946157008
 30
0.0
 10
-0.2544434474901028
 20
-0.0652881874402692
 30
0.0
  0
SPLINE
  5
B6
330
1F
100
AcDbEntity
  8
0
  6
Continuous
 62
     7
370
    25
100
AcDbSpline
210
0.0
220
0.0
230
1.0
 70
     8
 71
     3
 72
    13
 73
     9
 74
     0
 42
0.000000001
 43
0.00000001
 40
0.0
 40
0.0
 40
0.0
 40
0.0
 40
0.1253223449667399
 40
0.2503598996402255
 40
0.4991110034442314
 40
0.7476749355669016
 40
0.8737895560215212
 40
1.0
 40
1.0
 40
1.0
 40
1.0
 10
-0.1662709815166191
 20
-0.0652435010379629
 30
0.0
 10
-0.1656761545374955
 20
-0.065275375005404
 30
0.0
 10
-0.1644878523010808
 20
-0.0653390505078999
 30
0.0
 10
-0.1621540562412465
 20
-0.065018725451264
 30
0.0
 10
-0.1591821992007439
 20
-0.0629583109465279
 30
0.0
 10
-0.1580678235660549
 20
-0.0571964880173264
 30
0.0
 10
-0.1579006865360261
 20
-0.0526447985513665
 30
0.0
 10
-0.157937879143847
 20
-0.0503198494038778
 30
0.0
 10
-0.1579564825099309
 20
-0.0491569333662214
 30
0.0
  0
SPLINE
  5
B7
330
1F
100
AcDbEntity
  8
0
  6
Continuous
 62
     7
370
    25
100
AcDbSpline
210
0.0
220
0.0
230
1.0
 70
     8
 71
     3
 72
    11
 73
     7
 74
     0
 42
0.000000001
 43
0.00000001
 40
0.0
 40
0.0
 40
0.0
 40
0.0
 40
0.2526791266645378
 40
0.4654108321215565
 40
0.7124775190405899
 40
1.0
 40
1.0
 40
1.0
 40
1.0
 10
-0.1579564822352674
 20
-0.0491569488234659
 30
0.0
 10
-0.1580789062499644
 20
-0.0402614371016898
 30
0.0
 10
-0.1583043995991932
 20
-0.0238767536209869
 30
0.0
 10
-0.1583665306159821
 20
0.0012088821774896
 30
0.0
 10
-0.1582902273683005
 20
0.0275214618654826
 30
0.0
 10
-0.157992504869696
 20
0.0463408556037144
 30
0.0
 10
-0.1578323783340689
 20
0.0564626446389137
 30
0.0
  0
SPLINE
  5
B8
330
1F
100
AcDbEntity
  8
0
  6
Continuous
 62
     7
370
    25
100
AcDbSpline
210
0.0
220
0.0
230
1.0
 70
     8
 71
     3
 72
    13
 73
     9
 74
     0
 42
0.000000001
 43
0.00000001
 40
0.0
 40
0.0
 40
0.0
 40
0.0
 40
0.2492488921420496
 40
0.498761299015724
 40
0.6239687579507669
 40
0.7489377194362343
 40
0.8742069764379087
 40
1.0
 40
1.0
 40
1.0
 40
1.0
 10
-0.1578323788729371
 20
0.0564626446155448
 30
0.0
 10
-0.157811748592276
 20
0.0585580887633411
 30
0.0
 10
-0.1577704662198925
 20
0.0627511924364925
 30
0.0
 10
-0.1582947575182175
 20
0.0679893468200641
 30
0.0
 10
-0.1594301973945066
 20
0.0715179813180148
 30
0.0
 10
-0.1606598445387956
 20
0.0736045212262709
 30
0.0
 10
-0.1622540109000527
 20
0.0744130215851432
 30
0.0
 10
-0.163336796834038
 20
0.0745203668309796
 30
0.0
 10
-0.1638793192559671
 20
0.0745741514258158
 30
0.0
  0
SPLINE
  5
B9
330
1F
100
AcDbEntity
  8
0
  6
Continuous
 62
     7
370
    25
100
AcDbSpline
210
0.0
220
0.0
230
1.0
 70
     8
 71
     3
 72
    11
 73
     7
 74
     0
 42
0.000000001
 43
0.00000001
 40
0.0
 40
0.0
 40
0.0
 40
0.0
 40
0.2503816231464228
 40
0.4993167454987394
 40
0.7487115104193943
 40
1.0
 40
1.0
 40
1.0
 40
1.0
 10
-0.1638793224388028
 20
0.0745741503280567
 30
0.0
 10
-0.164531037210882
 20
0.0743486557218947
 30
0.0
 10
-0.1658307016786603
 20
0.0738989692334799
 30
0.0
 10
-0.1677680155691067
 20
0.0726168686259915
 30
0.0
 10
-0.1692032962492306
 20
0.069685784479337
 30
0.0
 10
-0.1698500532320317
 20
0.0674083241334428
 30
0.0
 10
-0.1701746548316912
 20
0.0662652869632272
 30
0.0
  0
SPLINE
  5
BA
330
1F
100
AcDbEntity
  8
0
  6
Continuous
 62
     7
370
    25
100
AcDbSpline
210
0.0
220
0.0
230
1.0
 70
     8
 71
     3
 72
     9
 73
     5
 74
     0
 42
0.000000001
 43
0.00000001
 40
0.0
 40
0.0
 40
0.0
 40
0.0
 40
0.5000119703289541
 40
1.0
 40
1.0
 40
1.0
 40
1.0
 10
-0.1701746525864309
 20
0.066265301417425
 30
0.0
 10
-0.1703795194189849
 20
0.0649011821793202
 30
0.0
 10
-0.1707892432750341
 20
0.062173009017371
 30
0.0
 10
-0.1707945333979519
 20
0.0593614642576322
 30
0.0
 10
-0.1707971783960863
 20
0.0579557255328785
 30
0.0
  0
SPLINE
  5
BB
330
1F
100
AcDbEntity
  8
0
  6
Continuous
 62
     7
370
    25
100
AcDbSpline
210
0.0
220
0.0
230
1.0
 70
     8
 71
     3
 72
    12
 73
     8
 74
     0
 42
0.000000001
 43
0.00000001
 40
0.0
 40
0.0
 40
0.0
 40
0.0
 40
0.2775822845176746
 40
0.5000048027316539
 40
0.5916504406372578
 40
0.7788073411629124
 40
1.0
 40
1.0
 40
1.0
 40
1.0
 10
-0.1707971783960869
 20
0.0579557255328771
 30
0.0
 10
-0.1709465449455257
 20
0.0488929431365527
 30
0.0
 10
-0.1712155966691133
 20
0.0325682892338448
 30
0.0
 10
-0.1713174975046913
 20
0.0132483380088832
 30
0.0
 10
-0.1713425794613514
 20
-0.0031188473634718
 30
0.0
 10
-0.1713065253183123
 20
-0.0194460742552777
 30
0.0
 10
-0.1711585309432283
 20
-0.0327795135442011
 30
0.0
 10
-0.1710783661222626
 20
-0.0400019013737909
 30
0.0
  0
SPLINE
  5
BC
330
1F
100
AcDbEntity
  8
0
  6
Continuous
 62
     7
370
    25
100
AcDbSpline
210
0.0
220
0.0
230
1.0
 70
     8
 71
     3
 72
     8
 73
     4
 74
     0
 42
0.000000001
 43
0.00000001
 40
0.0
 40
0.0
 40
0.0
 40
0.0
 40
1.0
 40
1.0
 40
1.0
 40
1.0
 10
-0.1710783748075895
 20
-0.0400019013763473
 30
0.0
 10
-0.184312922007463
 20
-0.0400057962954429
 30
0.0
 10
-0.1975475037368789
 20
-0.0400057862710585
 30
0.0
 10
-0.2107821182673908
 20
-0.040001871283324
 30
0.0
  0
SPLINE
  5
BD
330
1F
100
AcDbEntity
  8
0
  6
Continuous
 62
     7
370
    25
100
AcDbSpline
210
0.0
220
0.0
230
1.0
 70
     8
 71
     3
 72
    11
 73
     7
 74
     0
 42
0.000000001
 43
0.00000001
 40
0.0
 40
0.0
 40
0.0
 40
0.0
 40
0.281959502427113
 40
0.5000006948359639
 40
0.5761349558580524
 40
1.0
 40
1.0
 40
1.0
 40
1.0
 10
-0.2107821182823212
 20
-0.0400018700956359
 30
0.0
 10
-0.2108548333264806
 20
-0.0334765214333445
 30
0.0
 10
-0.2109837794066508
 20
-0.0219050764665764
 30
0.0
 10
-0.2110247356686791
 20
-0.0085706709933743
 30
0.0
 10
-0.2110460774484013
 20
0.0080481016299728
 30
0.0
 10
-0.2109656241985489
 20
0.0196201491931648
 30
0.0
 10
-0.2108974214631696
 20
0.0294301357281979
 30
0.0
  0
SPLINE
  5
BE
330
1F
100
AcDbEntity
  8
0
  6
Continuous
 62
     7
370
    25
100
AcDbSpline
210
0.0
220
0.0
230
1.0
 70
     8
 71
     3
 72
    13
 73
     9
 74
     0
 42
0.000000001
 43
0.00000001
 40
0.0
 40
0.0
 40
0.0
 40
0.0
 40
0.2504503614308693
 40
0.4992111075387676
 40
0.6240804224975884
 40
0.7490782346190894
 40
0.8741484473270044
 40
1.0
 40
1.0
 40
1.0
 40
1.0
 10
-0.2108974219386638
 20
0.0294301357102727
 30
0.0
 10
-0.2108974080375586
 20
0.0314457864286815
 30
0.0
 10
-0.2108973803291295
 20
0.0354634896645619
 30
0.0
 10
-0.2115277298017137
 20
0.0404701216342734
 30
0.0
 10
-0.212767476301336
 20
0.0436821826164881
 30
0.0
 10
-0.2140286794749643
 20
0.0454960883364713
 30
0.0
 10
-0.2155650228783019
 20
0.0461911748368078
 30
0.0
 10
-0.2166028814385797
 20
0.0462721139468539
 30
0.0
 10
-0.2171234266016016
 20
0.0463127095191663
 30
0.0
  0
SPLINE
  5
BF
330
1F
100
AcDbEntity
  8
0
  6
Continuous
 62
     7
370
    25
100
AcDbSpline
210
0.0
220
0.0
230
1.0
 70
     8
 71
     3
 72
    13
 73
     9
 74
     0
 42
0.000000001
 43
0.00000001
 40
0.0
 40
0.0
 40
0.0
 40
0.0
 40
0.1253196740975738
 40
0.2507089680120485
 40
0.3730724661108747
 40
0.5009608193967491
 40
0.7502475462650858
 40
0.9999999999999999
 40
0.9999999999999999
 40
0.9999999999999999
 40
0.9999999999999999
 10
-0.2171234266016013
 20
0.0463127095191663
 30
0.0
 10
-0.2176208841677875
 20
0.0462316265066301
 30
0.0
 10
-0.2186160756566453
 20
0.0460694154368787
 30
0.0
 10
-0.22009339590779
 20
0.0455229520100634
 30
0.0
 10
-0.2214456372173037
 20
0.044076064646036
 30
0.0
 10
-0.2228104583017166
 20
0.041123665397087
 30
0.0
 10
-0.2237498535570648
 20
0.0364249111587946
 30
0.0
 10
-0.2238340624952551
 20
0.0325589192588994
 30
0.0
 10
-0.2238762062582239
 20
0.030624119346093
 30
0.0
  0
SPLINE
  5
C0
330
1F
100
AcDbEntity
  8
0
  6
Continuous
 62
     7
370
    25
100
AcDbSpline
210
0.0
220
0.0
230
1.0
 70
     8
 71
     3
 72
    11
 73
     7
 74
     0
 42
0.000000001
 43
0.00000001
 40
0.0
 40
0.0
 40
0.0
 40
0.0
 40
0.2529473105697977
 40
0.4336063133347378
 40
0.6708359623331371
 40
1.0
 40
1.0
 40
1.0
 40
1.0
 10
-0.2238762064239749
 20
0.0306241010377676
 30
0.0
 10
-0.223926928506418
 20
0.0246692913143811
 30
0.0
 10
-0.2240138771089681
 20
0.0144614615297864
 30
0.0
 10
-0.224028073576088
 20
-0.0013318177125854
 30
0.0
 10
-0.2240046162942096
 20
-0.0189195116796122
 30
0.0
 10
-0.223857969968559
 20
-0.0322530022992801
 30
0.0
 10
-0.2237727453310028
 20
-0.040001862697784
 30
0.0
  0
SPLINE
  5
C1
330
1F
100
AcDbEntity
  8
0
  6
Continuous
 62
     7
370
    25
100
AcDbSpline
210
0.0
220
0.0
230
1.0
 70
     8
 71
     3
 72
     9
 73
     5
 74
     0
 42
0.000000001
 43
0.00000001
 40
0.0
 40
0.0
 40
0.0
 40
0.0
 40
0.5021895206501525
 40
0.9999999999999999
 40
0.9999999999999999
 40
0.9999999999999999
 40
0.9999999999999999
 10
-0.2571263093374879
 20
-0.1209052314949587
 30
0.0
 10
-0.2491579614356995
 20
-0.129702143688839
 30
0.0
 10
-0.2332907488115249
 20
-0.1472192599012432
 30
0.0
 10
-0.2171816027346804
 20
-0.1647058956050175
 30
0.0
 10
-0.2091623010042497
 20
-0.1734109261069296
 30
0.0
  0
SPLINE
  5
C2
330
1F
100
AcDbEntity
  8
0
  6
Continuous
 62
     7
370
    25
100
AcDbSpline
210
0.0
220
0.0
230
1.0
 70
     8
 71
     3
 72
     9
 73
     5
 74
     0
 42
0.000000001
 43
0.00000001
 40
0.0
 40
0.0
 40
0.0
 40
0.0
 40
0.4978235155042304
 40
1.0
 40
1.0
 40
1.0
 40
1.0
 10
-0.2091621808720439
 20
-0.1734107765820919
 30
0.0
 10
-0.2161378645441728
 20
-0.1821142115709944
 30
0.0
 10
-0.2301502272688697
 20
-0.1995971843873491
 30
0.0
 10
-0.2439723070414373
 20
-0.2170817852111152
 30
0.0
 10
-0.2509134304700454
 20
-0.2258621405856059
 30
0.0
  0
SPLINE
  5
C3
330
1F
100
AcDbEntity
  8
0
  6
Continuous
 62
     7
370
    25
100
AcDbSpline
210
0.0
220
0.0
230
1.0
 70
     8
 71
     3
 72
    11
 73
     7
 74
     0
 42
0.000000001
 43
0.00000001
 40
0.0
 40
0.0
 40
0.0
 40
0.0
 40
0.2504192198209488
 40
0.4982333657992684
 40
0.7479528738938833
 40
1.0
 40
1.0
 40
1.0
 40
1.0
 10
-0.2509134304700454
 20
-0.2258621405856059
 30
0.0
 10
-0.2514373871982499
 20
-0.2264434664527978
 30
0.0
 10
-0.2524798500108612
 20
-0.2276000707407767
 30
0.0
 10
-0.253891988297353
 20
-0.2298614330433396
 30
0.0
 10
-0.2545009931740064
 20
-0.2333118880995506
 30
0.0
 10
-0.2545532859625176
 20
-0.2357524182370734
 30
0.0
 10
-0.2545795536458627
 20
-0.2369783439272457
 30
0.0
  0
SPLINE
  5
C4
330
1F
100
AcDbEntity
  8
0
  6
Continuous
 62
     7
370
    25
100
AcDbSpline
210
0.0
220
0.0
230
1.0
 70
     8
 71
     3
 72
    13
 73
     9
 74
     0
 42
0.000000001
 43
0.00000001
 40
0.0
 40
0.0
 40
0.0
 40
0.0
 40
0.1254456790792238
 40
0.2508783430326826
 40
0.3758723043098228
 40
0.5011108021243013
 40
0.7498592496425517
 40
1.0
 40
1.0
 40
1.0
 40
1.0
 10
-0.2545795502576093
 20
-0.236978379009594
 30
0.0
 10
-0.2544849600874051
 20
-0.2379623016015531
 30
0.0
 10
-0.2542957895608297
 20
-0.2399300447024313
 30
0.0
 10
-0.2537565814984617
 20
-0.2428555624178079
 30
0.0
 10
-0.2527494943634538
 20
-0.2454128830919086
 30
0.0
 10
-0.2510324389663868
 20
-0.2481024193224963
 30
0.0
 10
-0.2484080065783066
 20
-0.2497306009448685
 30
0.0
 10
-0.2463697738568874
 20
-0.2498176067850849
 30
0.0
 10
-0.2453478133403842
 20
-0.2498612311133925
 30
0.0
  0
SPLINE
  5
C6
330
1F
100
AcDbEntity
  8
0
  6
Continuous
 62
     7
370
    25
100
AcDbSpline
210
0.0
220
0.0
230
1.0
 70
     8
 71
     3
 72
    13
 73
     9
 74
     0
 42
0.000000001
 43
0.00000001
 40
0.0
 40
0.0
 40
0.0
 40
0.0
 40
0.2501022281789003
 40
0.4990303798290722
 40
0.6237898681515991
 40
0.7487551915635383
 40
0.8740209073821046
 40
1.0
 40
1.0
 40
1.0
 40
1.0
 10
-0.1569340283584014
 20
-0.249790913732449
 30
0.0
 10
-0.1559100724596172
 20
-0.2497598650140039
 30
0.0
 10
-0.1538669675068176
 20
-0.2496979133317989
 30
0.0
 10
-0.1514463399425302
 20
-0.2482948512235872
 30
0.0
 10
-0.1499922670427626
 20
-0.24588523693675
 30
0.0
 10
-0.1492392490744865
 20
-0.243456809658644
 30
0.0
 10
-0.1491056085161585
 20
-0.2405064501313333
 30
0.0
 10
-0.149212719363703
 20
-0.2385222798288714
 30
0.0
 10
-0.1492664268511021
 20
-0.2375273777815053
 30
0.0
  0
SPLINE
  5
C7
330
1F
100
AcDbEntity
  8
0
  6
Continuous
 62
     7
370
    25
100
AcDbSpline
210
0.0
220
0.0
230
1.0
 70
     8
 71
     3
 72
    11
 73
     7
 74
     0
 42
0.000000001
 43
0.00000001
 40
0.0
 40
0.0
 40
0.0
 40
0.0
 40
0.2512066920163597
 40
0.5007666559616591
 40
0.7491157946709143
 40
1.0
 40
1.0
 40
1.0
 40
1.0
 10
-0.1492641562253488
 20
-0.2375423516872296
 30
0.0
 10
-0.1494412663484163
 20
-0.2363722092903916
 30
0.0
 10
-0.1497943255896076
 20
-0.2340395950978311
 30
0.0
 10
-0.1505862335413092
 20
-0.2305884907996209
 30
0.0
 10
-0.1520352824545285
 20
-0.2278843836954939
 30
0.0
 10
-0.1531384935442281
 20
-0.2265520074693144
 30
0.0
 10
-0.1536929000975056
 20
-0.2258824365067652
 30
0.0
  0
SPLINE
  5
C8
330
1F
100
AcDbEntity
  8
0
  6
Continuous
 62
     7
370
    25
100
AcDbSpline
210
0.0
220
0.0
230
1.0
 70
     8
 71
     3
 72
     9
 73
     5
 74
     0
 42
0.000000001
 43
0.00000001
 40
0.0
 40
0.0
 40
0.0
 40
0.0
 40
0.5000115473888399
 40
1.0
 40
1.0
 40
1.0
 40
1.0
 10
-0.1536929144952365
 20
-0.225882428950028
 30
0.0
 10
-0.1545002015205275
 20
-0.2254478193942274
 30
0.0
 10
-0.1561147382837419
 20
-0.2245786203565849
 30
0.0
 10
-0.1577270283337913
 20
-0.2246218006494793
 30
0.0
 10
-0.1585331547410758
 20
-0.224643390297307
 30
0.0
  0
SPLINE
  5
CA
330
1F
100
AcDbEntity
  8
0
  6
Continuous
 62
     7
370
    25
100
AcDbSpline
210
0.0
220
0.0
230
1.0
 70
     8
 71
     3
 72
     9
 73
     5
 74
     0
 42
0.000000001
 43
0.00000001
 40
0.0
 40
0.0
 40
0.0
 40
0.0
 40
0.5016103449540898
 40
0.9999999999999999
 40
0.9999999999999999
 40
0.9999999999999999
 40
0.9999999999999999
 10
-0.2243539868940577
 20
-0.2246576992620442
 30
0.0
 10
-0.219276924017995
 20
-0.2182958427153955
 30
0.0
 10
-0.2091553965671857
 20
-0.2056129771990733
 30
0.0
 10
-0.1989336353811639
 20
-0.1929306993881459
 30
0.0
 10
-0.1938392153497008
 20
-0.1866099833247614
 30
0.0
  0
SPLINE
  5
CB
330
1F
100
AcDbEntity
  8
0
  6
Continuous
 62
     7
370
    25
100
AcDbSpline
210
0.0
220
0.0
230
1.0
 70
     8
 71
     3
 72
    12
 73
     8
 74
     0
 42
0.000000001
 43
0.00000001
 40
0.0
 40
0.0
 40
0.0
 40
0.0
 40
0.2511275318297326
 40
0.5006445688733671
 40
0.7489668687460527
 40
0.8467646720424292
 40
0.9999999999999999
 40
0.9999999999999999
 40
0.9999999999999999
 40
0.9999999999999999
 10
-0.1938392153497014
 20
-0.1866099833247614
 30
0.0
 10
-0.1932488099204278
 20
-0.1859226915681245
 30
0.0
 10
-0.1920717853646354
 20
-0.1845525156949949
 30
0.0
 10
-0.19049262079506
 20
-0.1818856192537079
 30
0.0
 10
-0.1899763374899682
 20
-0.1787018662697497
 30
0.0
 10
-0.1898762087195392
 20
-0.1759575110356424
 30
0.0
 10
-0.189851466039006
 20
-0.1745665288929239
 30
0.0
 10
-0.1898363626431032
 20
-0.1737174473244557
 30
0.0
  0
SPLINE
  5
CC
330
1F
100
AcDbEntity
  8
0
  6
Continuous
 62
     7
370
    25
100
AcDbSpline
210
0.0
220
0.0
230
1.0
 70
     8
 71
     3
 72
    13
 73
     9
 74
     0
 42
0.000000001
 43
0.00000001
 40
0.0
 40
0.0
 40
0.0
 40
0.0
 40
0.1252083710583217
 40
0.2504723978176819
 40
0.3747413631804919
 40
0.4996641684536315
 40
0.749672542397606
 40
0.9999999999999999
 40
0.9999999999999999
 40
0.9999999999999999
 40
0.9999999999999999
 10
-0.1898357418227552
 20
-0.1737253805016436
 30
0.0
 10
-0.1898975595316011
 20
-0.1729367970550819
 30
0.0
 10
-0.1900212224275507
 20
-0.1713592796329628
 30
0.0
 10
-0.1903218117405203
 20
-0.1690082021595131
 30
0.0
 10
-0.1909272532154736
 20
-0.1667991223630514
 30
0.0
 10
-0.1921406857017527
 20
-0.1644162304622847
 30
0.0
 10
-0.1939206544526034
 20
-0.1620988778479561
 30
0.0
 10
-0.1953898462063748
 20
-0.1604400586310623
 30
0.0
 10
-0.1961249105636792
 20
-0.1596101200757851
 30
0.0
  0
SPLINE
  5
CD
330
1F
100
AcDbEntity
  8
0
  6
Continuous
 62
     7
370
    25
100
AcDbSpline
210
0.0
220
0.0
230
1.0
 70
     8
 71
     3
 72
     9
 73
     5
 74
     0
 42
0.000000001
 43
0.00000001
 40
0.0
 40
0.0
 40
0.0
 40
0.0
 40
0.4984462251475094
 40
1.0
 40
1.0
 40
1.0
 40
1.0
 10
-0.1961248271577999
 20
-0.1596102119319058
 30
0.0
 10
-0.2017670912682932
 20
-0.153382357454606
 30
0.0
 10
-0.2130867960344864
 20
-0.1408878211072664
 30
0.0
 10
-0.2242825015436106
 20
-0.1283778334388845
 30
0.0
 10
-0.2298977499038486
 20
-0.1221034019004495
 30
0.0
  0
SPLINE
  5
CF
330
1F
100
AcDbEntity
  8
0
  6
Continuous
 62
     7
370
    25
100
AcDbSpline
210
0.0
220
0.0
230
1.0
 70
     8
 71
     3
 72
     9
 73
     5
 74
     0
 42
0.000000001
 43
0.00000001
 40
0.0
 40
0.0
 40
0.0
 40
0.0
 40
0.5003942123028685
 40
1.0
 40
1.0
 40
1.0
 40
1.0
 10
-0.1639165611434978
 20
-0.1221012027789794
 30
0.0
 10
-0.1631159935305497
 20
-0.1221282730676906
 30
0.0
 10
-0.1615161196845597
 20
-0.1221823709929775
 30
0.0
 10
-0.1599785071313221
 20
-0.1215358962536756
 30
0.0
 10
-0.1592103070004888
 20
-0.1212129137323204
 30
0.0
  0
SPLINE
  5
D0
330
1F
100
AcDbEntity
  8
0
  6
Continuous
 62
     7
370
    25
100
AcDbSpline
210
0.0
220
0.0
230
1.0
 70
     8
 71
     3
 72
    11
 73
     7
 74
     0
 42
0.000000001
 43
0.00000001
 40
0.0
 40
0.0
 40
0.0
 40
0.0
 40
0.2512805147150245
 40
0.5011623767317533
 40
0.7494832482969374
 40
1.0
 40
1.0
 40
1.0
 40
1.0
 10
-0.1592103054491603
 20
-0.1212129108804008
 30
0.0
 10
-0.1587907030812475
 20
-0.1204411535596731
 30
0.0
 10
-0.1579538338945382
 20
-0.1189019345973328
 30
0.0
 10
-0.1568757521544629
 20
-0.1162070315436916
 30
0.0
 10
-0.156453019757233
 20
-0.112821161079986
 30
0.0
 10
-0.1564325029187336
 20
-0.1105146033507196
 30
0.0
 10
-0.1564221993419857
 20
-0.1093562477596445
 30
0.0
  0
SPLINE
  5
D1
330
1F
100
AcDbEntity
  8
0
  6
Continuous
 62
     7
370
    25
100
AcDbSpline
210
0.0
220
0.0
230
1.0
 70
     8
 71
     3
 72
    14
 73
    10
 74
     0
 42
0.000000001
 43
0.00000001
 40
0.0
 40
0.0
 40
0.0
 40
0.0
 40
0.1256497358077095
 40
0.2513190994399772
 40
0.3748627072351686
 40
0.5011799213178876
 40
0.7499835444841392
 40
0.8493820078398395
 40
1.0
 40
1.0
 40
1.0
 40
1.0
 10
-0.1564213105068448
 20
-0.1093658450861379
 30
0.0
 10
-0.1565024416539125
 20
-0.1084877995781567
 30
0.0
 10
-0.1566647166215956
 20
-0.1067315714021513
 30
0.0
 10
-0.1570381211661281
 20
-0.1041369001129761
 30
0.0
 10
-0.157759750409867
 20
-0.1017605598552022
 30
0.0
 10
-0.1591267949057462
 20
-0.0992430817703494
 30
0.0
 10
-0.1607857880055429
 20
-0.0977586096286939
 30
0.0
 10
-0.162588997040239
 20
-0.0971994043802523
 30
0.0
 10
-0.1634963582500708
 20
-0.0970251760285729
 30
0.0
 10
-0.1640429819645254
 20
-0.0969202152392793
 30
0.0
  0
SPLINE
  5
D3
330
1F
100
AcDbEntity
  8
0
  6
Continuous
 62
     7
370
    25
100
AcDbSpline
210
0.0
220
0.0
230
1.0
 70
     8
 71
     3
 72
    14
 73
    10
 74
     0
 42
0.000000001
 43
0.00000001
 40
0.0
 40
0.0
 40
0.0
 40
0.0
 40
0.1253737494532713
 40
0.2506362556766774
 40
0.4999935144874991
 40
0.6265016937629677
 40
0.7501873957089247
 40
0.8750516236462453
 40
0.9999999999999999
 40
0.9999999999999999
 40
0.9999999999999999
 40
0.9999999999999999
 10
-0.255218740767991
 20
-0.0968772401492766
 30
0.0
 10
-0.2556653737534783
 20
-0.0968804350483646
 30
0.0
 10
-0.2565582434302042
 20
-0.0968868220117296
 30
0.0
 10
-0.2583252382891789
 20
-0.0972108237299007
 30
0.0
 10
-0.259988570660962
 20
-0.0986608879680242
 30
0.0
 10
-0.2611670549786398
 20
-0.1011748705437
 30
0.0
 10
-0.2616681212191865
 20
-0.1035710587627962
 30
0.0
 10
-0.2617674027922422
 20
-0.1061481982481947
 30
0.0
 10
-0.261737073601583
 20
-0.1078737880748923
 30
0.0
 10
-0.2617219038981177
 20
-0.1087368736173944
 30
0.0
  0
SPLINE
  5
D4
330
1F
100
AcDbEntity
  8
0
  6
Continuous
 62
     7
370
    25
100
AcDbSpline
210
0.0
220
0.0
230
1.0
 70
     8
 71
     3
 72
    11
 73
     7
 74
     0
 42
0.000000001
 43
0.00000001
 40
0.0
 40
0.0
 40
0.0
 40
0.0
 40
0.251109974187253
 40
0.5004074843169369
 40
0.7489402504688057
 40
1.0
 40
1.0
 40
1.0
 40
1.0
 10
-0.2617219009685814
 20
-0.1087368964530238
 30
0.0
 10
-0.261559771367558
 20
-0.109995893726954
 30
0.0
 10
-0.2612366823861506
 20
-0.112504801071827
 30
0.0
 10
-0.2604432962091753
 20
-0.1161949436231036
 30
0.0
 10
-0.25889841091038
 20
-0.1189504476199795
 30
0.0
 10
-0.2577190126060163
 20
-0.1202514276236217
 30
0.0
 10
-0.2571263307030735
 20
-0.1209052078617282
 30
0.0
  0
SPLINE
  5
D5
330
1F
100
AcDbEntity
  8
0
  6
Continuous
 62
     7
370
    25
100
AcDbSpline
210
0.0
220
0.0
230
1.0
 70
     8
 71
     3
 72
     8
 73
     4
 74
     0
 42
0.000000001
 43
0.00000001
 40
0.0
 40
0.0
 40
0.0
 40
0.0
 40
1.0
 40
1.0
 40
1.0
 40
1.0
 10
-0.1996726379179044
 20
-0.3942251457795097
 30
0.0
 10
-0.2086034169743235
 20
-0.3942515389297643
 30
0.0
 10
-0.2175355888960004
 20
-0.3942615410825568
 30
0.0
 10
-0.2264691081366909
 20
-0.3942551471562338
 30
0.0
  0
SPLINE
  5
D6
330
1F
100
AcDbEntity
  8
0
  6
Continuous
 62
     7
370
    25
100
AcDbSpline
210
0.0
220
0.0
230
1.0
 70
     8
 71
     3
 72
    11
 73
     7
 74
     0
 42
0.000000001
 43
0.00000001
 40
0.0
 40
0.0
 40
0.0
 40
0.0
 40
0.2852915846934904
 40
0.5000000536140699
 40
0.7149602374096375
 40
1.0
 40
1.0
 40
1.0
 40
1.0
 10
-0.2264690701992512
 20
-0.3942554540956982
 30
0.0
 10
-0.2275648611446728
 20
-0.3851701879602697
 30
0.0
 10
-0.2294853367592945
 20
-0.3692474135128819
 30
0.0
 10
-0.2319754132126147
 20
-0.3464442261591839
 30
0.0
 10
-0.2343890035900839
 20
-0.3236312932942197
 30
0.0
 10
-0.2358977073417253
 20
-0.307650528908729
 30
0.0
 10
-0.2367577885523243
 20
-0.298540221358942
 30
0.0
  0
SPLINE
  5
D7
330
1F
100
AcDbEntity
  8
0
  6
Continuous
 62
     7
370
    25
100
AcDbSpline
210
0.0
220
0.0
230
1.0
 70
     8
 71
     3
 72
    13
 73
     9
 74
     0
 42
0.000000001
 43
0.00000001
 40
0.0
 40
0.0
 40
0.0
 40
0.0
 40
0.2489792659591743
 40
0.4980580554172991
 40
0.6233733318857051
 40
0.7485894074735038
 40
0.8737737969045966
 40
0.9999999999999999
 40
0.9999999999999999
 40
0.9999999999999999
 40
0.9999999999999999
 10
-0.2367577888920973
 20
-0.2985402213737737
 30
0.0
 10
-0.2369648696262934
 20
-0.2965377980442707
 30
0.0
 10
-0.2373791138702499
 20
-0.2925321509644933
 30
0.0
 10
-0.238581352432273
 20
-0.2875570460523517
 30
0.0
 10
-0.2402011705567606
 20
-0.2844068482348744
 30
0.0
 10
-0.2416736110766834
 20
-0.2826473166586754
 30
0.0
 10
-0.2432939152124666
 20
-0.2819328721318253
 30
0.0
 10
-0.2443542383668637
 20
-0.281819542830578
 30
0.0
 10
-0.2448865968665144
 20
-0.2817626433688165
 30
0.0
  0
SPLINE
  5
D8
330
1F
100
AcDbEntity
  8
0
  6
Continuous
 62
     7
370
    25
100
AcDbSpline
210
0.0
220
0.0
230
1.0
 70
     8
 71
     3
 72
    13
 73
     9
 74
     0
 42
0.000000001
 43
0.00000001
 40
0.0
 40
0.0
 40
0.0
 40
0.0
 40
0.1256796884670363
 40
0.2514222971376592
 40
0.373635117885948
 40
0.5017433055055397
 40
0.7508496203302102
 40
0.9999999999999999
 40
0.9999999999999999
 40
0.9999999999999999
 40
0.9999999999999999
 10
-0.2448864983074852
 20
-0.2817626243261275
 30
0.0
 10
-0.2453708370599368
 20
-0.2818567198712098
 30
0.0
 10
-0.2463397570439017
 20
-0.2820449580693115
 30
0.0
 10
-0.2477433336269214
 20
-0.2826261445164664
 30
0.0
 10
-0.2489230212904484
 20
-0.2840936592970901
 30
0.0
 10
-0.2499507834137534
 20
-0.2870334552568738
 30
0.0
 10
-0.2503818163477728
 20
-0.291651306779229
 30
0.0
 10
-0.2500830213324229
 20
-0.2954348260113018
 30
0.0
 10
-0.2499336106123253
 20
-0.2973267529308494
 30
0.0
  0
SPLINE
  5
D9
330
1F
100
AcDbEntity
  8
0
  6
Continuous
 62
     7
370
    25
100
AcDbSpline
210
0.0
220
0.0
230
1.0
 70
     8
 71
     3
 72
    11
 73
     7
 74
     0
 42
0.000000001
 43
0.00000001
 40
0.0
 40
0.0
 40
0.0
 40
0.0
 40
0.2709947652676228
 40
0.500000051569376
 40
0.7288144559095057
 40
1.0
 40
1.0
 40
1.0
 40
1.0
 10
-0.249933608067595
 20
-0.2973267806947353
 30
0.0
 10
-0.2490394745861093
 20
-0.3068638125484658
 30
0.0
 10
-0.247389749779022
 20
-0.3244601539906147
 30
0.0
 10
-0.2446877513750097
 20
-0.3500725071126989
 30
0.0
 10
-0.2418572959317773
 20
-0.375667950897365
 30
0.0
 10
-0.2397130851449217
 20
-0.393193480486533
 30
0.0
 10
-0.2385501270872193
 20
-0.4026988220211272
 30
0.0
  0
SPLINE
  5
DA
330
1F
100
AcDbEntity
  8
0
  6
Continuous
 62
     7
370
    25
100
AcDbSpline
210
0.0
220
0.0
230
1.0
 70
     8
 71
     3
 72
    13
 73
     9
 74
     0
 42
0.000000001
 43
0.00000001
 40
0.0
 40
0.0
 40
0.0
 40
0.0
 40
0.1257863435566074
 40
0.251582254833257
 40
0.5002052242341021
 40
0.7482517302413003
 40
0.8741405326364186
 40
1.0
 40
1.0
 40
1.0
 40
1.0
 10
-0.2385501270872193
 20
-0.4026988220211272
 30
0.0
 10
-0.2384081551495609
 20
-0.4038514577270408
 30
0.0
 10
-0.2381242004753948
 20
-0.4061568168121036
 30
0.0
 10
-0.2373338982152834
 20
-0.4106801978220074
 30
0.0
 10
-0.2354742683863257
 20
-0.4164527100586277
 30
0.0
 10
-0.2321665252726508
 20
-0.4188039179789763
 30
0.0
 10
-0.2297286150719767
 20
-0.419278986928096
 30
0.0
 10
-0.2285152779536807
 20
-0.4192803204825521
 30
0.0
 10
-0.2279086800867418
 20
-0.4192809871820838
 30
0.0
  0
SPLINE
  5
DC
330
1F
100
AcDbEntity
  8
0
  6
Continuous
 62
     7
370
    25
100
AcDbSpline
210
0.0
220
0.0
230
1.0
 70
     8
 71
     3
 72
    13
 73
     9
 74
     0
 42
0.000000001
 43
0.00000001
 40
0.0
 40
0.0
 40
0.0
 40
0.0
 40
0.1256216502148038
 40
0.2511260098827368
 40
0.4998955827323665
 40
0.7480973715799131
 40
0.8740662515170694
 40
1.0
 40
1.0
 40
1.0
 40
1.0
 10
-0.1387325388563442
 20
-0.4191130659789223
 30
0.0
 10
-0.1381256161528729
 20
-0.4191437294820998
 30
0.0
 10
-0.1369123374181214
 20
-0.4192050278585248
 30
0.0
 10
-0.1345833613143385
 20
-0.4188825288818791
 30
0.0
 10
-0.1318110571592251
 20
-0.4168291052231504
 30
0.0
 10
-0.1313397832845183
 20
-0.4111356062964769
 30
0.0
 10
-0.131684765280535
 20
-0.4066427989837934
 30
0.0
 10
-0.131984486716797
 20
-0.4043479073102474
 30
0.0
 10
-0.1321343265346896
 20
-0.4032006215013436
 30
0.0
  0
SPLINE
  5
DD
330
1F
100
AcDbEntity
  8
0
  6
Continuous
 62
     7
370
    25
100
AcDbSpline
210
0.0
220
0.0
230
1.0
 70
     8
 71
     3
 72
    11
 73
     7
 74
     0
 42
0.000000001
 43
0.00000001
 40
0.0
 40
0.0
 40
0.0
 40
0.0
 40
0.2712206024611655
 40
0.5000000784890732
 40
0.728988453287055
 40
1.0
 40
1.0
 40
1.0
 40
1.0
 10
-0.1321342774591019
 20
-0.4032009951097005
 30
0.0
 10
-0.1333452823855039
 20
-0.3937561092434797
 30
0.0
 10
-0.1355777918363238
 20
-0.3763442915881194
 30
0.0
 10
-0.1385272689563685
 20
-0.3509116786321957
 30
0.0
 10
-0.1413441907638519
 20
-0.3254607886677267
 30
0.0
 10
-0.1430660975173395
 20
-0.3079722617346653
 30
0.0
 10
-0.1439994108889655
 20
-0.2984930747789201
 30
0.0
  0
SPLINE
  5
DE
330
1F
100
AcDbEntity
  8
0
  6
Continuous
 62
     7
370
    25
100
AcDbSpline
210
0.0
220
0.0
230
1.0
 70
     8
 71
     3
 72
    13
 73
     9
 74
     0
 42
0.000000001
 43
0.00000001
 40
0.0
 40
0.0
 40
0.0
 40
0.0
 40
0.250061692519024
 40
0.4976433950030351
 40
0.6230347952009435
 40
0.7481765641922397
 40
0.8737643151817623
 40
1.0
 40
1.0
 40
1.0
 40
1.0
 10
-0.1439994114271557
 20
-0.298493074797647
 30
0.0
 10
-0.1442182480989924
 20
-0.2964031092456767
 30
0.0
 10
-0.1446537511271731
 20
-0.2922439054018383
 30
0.0
 10
-0.1457765154854127
 20
-0.2870449910317613
 30
0.0
 10
-0.1473119378387331
 20
-0.2835420729121
 30
0.0
 10
-0.1487861151382448
 20
-0.2814565853907309
 30
0.0
 10
-0.1504848433392705
 20
-0.2806454250584671
 30
0.0
 10
-0.1515887251169543
 20
-0.2805389760323989
 30
0.0
 10
-0.1521420861324503
 20
-0.2804856145743565
 30
0.0
  0
SPLINE
  5
DF
330
1F
100
AcDbEntity
  8
0
  6
Continuous
 62
     7
370
    25
100
AcDbSpline
210
0.0
220
0.0
230
1.0
 70
     8
 71
     3
 72
    11
 73
     7
 74
     0
 42
0.000000001
 43
0.00000001
 40
0.0
 40
0.0
 40
0.0
 40
0.0
 40
0.2504291549092124
 40
0.4993946137528424
 40
0.7487877086530071
 40
1.0
 40
1.0
 40
1.0
 40
1.0
 10
-0.152142090870909
 20
-0.2804856162608415
 30
0.0
 10
-0.1527716023568239
 20
-0.2807102860025799
 30
0.0
 10
-0.1540269459907367
 20
-0.2811583123473484
 30
0.0
 10
-0.1558286619254945
 20
-0.2824351678631014
 30
0.0
 10
-0.156938394583406
 20
-0.2853517479274302
 30
0.0
 10
-0.1573302879053521
 20
-0.2876167485564894
 30
0.0
 10
-0.1575269466351107
 20
-0.2887533643691834
 30
0.0
  0
SPLINE
  5
E0
330
1F
100
AcDbEntity
  8
0
  6
Continuous
 62
     7
370
    25
100
AcDbSpline
210
0.0
220
0.0
230
1.0
 70
     8
 71
     3
 72
     9
 73
     5
 74
     0
 42
0.000000001
 43
0.00000001
 40
0.0
 40
0.0
 40
0.0
 40
0.0
 40
0.5000120875259233
 40
1.0
 40
1.0
 40
1.0
 40
1.0
 10
-0.1575269470926412
 20
-0.2887533779421547
 30
0.0
 10
-0.1575782728433259
 20
-0.2901100329757602
 30
0.0
 10
-0.15768092186315
 20
-0.2928232774501452
 30
0.0
 10
-0.157367611769173
 20
-0.2956183780605462
 30
0.0
 10
-0.1572109605093283
 20
-0.2970158945798956
 30
0.0
  0
SPLINE
  5
E1
330
1F
100
AcDbEntity
  8
0
  6
Continuous
 62
     7
370
    25
100
AcDbSpline
210
0.0
220
0.0
230
1.0
 70
     8
 71
     3
 72
    11
 73
     7
 74
     0
 42
0.000000001
 43
0.00000001
 40
0.0
 40
0.0
 40
0.0
 40
0.0
 40
0.2850613883967799
 40
0.5000049774083793
 40
0.7146719470184073
 40
1.0
 40
1.0
 40
1.0
 40
1.0
 10
-0.1572109605093286
 20
-0.2970158945798956
 30
0.0
 10
-0.1563118378083735
 20
-0.30626450259414
 30
0.0
 10
-0.1547347535588832
 20
-0.3224867979643729
 30
0.0
 10
-0.152206619654737
 20
-0.3456405761096331
 30
0.0
 10
-0.1495971091493156
 20
-0.3687834360858749
 30
0.0
 10
-0.1475813347681108
 20
-0.3849416131481802
 30
0.0
 10
-0.1464310093579534
 20
-0.3941624673419329
 30
0.0
  0
SPLINE
  5
E3
330
1F
100
AcDbEntity
  8
0
  6
Continuous
 62
     7
370
    25
100
AcDbSpline
210
0.0
220
0.0
230
1.0
 70
     8
 71
     3
 72
     9
 73
     5
 74
     0
 42
0.000000001
 43
0.00000001
 40
0.0
 40
0.0
 40
0.0
 40
0.0
 40
0.5000000402702565
 40
1.0
 40
1.0
 40
1.0
 40
1.0
 10
-0.1865493307341788
 20
-0.3942102497328542
 30
0.0
 10
-0.1879450341358895
 20
-0.3827529885115452
 30
0.0
 10
-0.1907364407144895
 20
-0.3598384679144743
 30
0.0
 10
-0.1931570830416766
 20
-0.3368664294327649
 30
0.0
 10
-0.1943674041077903
 20
-0.3253804111170001
 30
0.0
  0
SPLINE
  5
E4
330
1F
100
AcDbEntity
  8
0
  6
Continuous
 62
     7
370
    25
100
AcDbSpline
210
0.0
220
0.0
230
1.0
 70
     8
 71
     3
 72
    13
 73
     9
 74
     0
 42
0.000000001
 43
0.00000001
 40
0.0
 40
0.0
 40
0.0
 40
0.0
 40
0.2504434086804165
 40
0.4992201821098103
 40
0.6240829061550488
 40
0.7490779882663698
 40
0.874149033211317
 40
1.0
 40
1.0
 40
1.0
 40
1.0
 10
-0.1943674045830491
 20
-0.3253804111351643
 30
0.0
 10
-0.1945916033729356
 20
-0.3233788620232623
 30
0.0
 10
-0.1950385089685177
 20
-0.3193890835842514
 30
0.0
 10
-0.1962302004812522
 20
-0.3144157995738509
 30
0.0
 10
-0.197835260571036
 20
-0.3112250754927987
 30
0.0
 10
-0.1993060813644661
 20
-0.3094233762193181
 30
0.0
 10
-0.2009292224844311
 20
-0.3087334929958629
 30
0.0
 10
-0.2019825013166207
 20
-0.3086536372868807
 30
0.0
 10
-0.2025107776460398
 20
-0.30861358532767
 30
0.0
  0
SPLINE
  5
E5
330
1F
100
AcDbEntity
  8
0
  6
Continuous
 62
     7
370
    25
100
AcDbSpline
210
0.0
220
0.0
230
1.0
 70
     8
 71
     3
 72
    13
 73
     9
 74
     0
 42
0.000000001
 43
0.00000001
 40
0.0
 40
0.0
 40
0.0
 40
0.0
 40
0.1257971734116226
 40
0.2516259048372375
 40
0.3740184384212301
 40
0.5020794344636293
 40
0.7511334471358968
 40
1.0
 40
1.0
 40
1.0
 40
1.0
 10
-0.2025107776460398
 20
-0.30861358532767
 30
0.0
 10
-0.2030041897562797
 20
-0.3086947051218828
 30
0.0
 10
-0.2039911377562201
 20
-0.3088569650603648
 30
0.0
 10
-0.2054202919756681
 20
-0.309405265169203
 30
0.0
 10
-0.2066197856229254
 20
-0.310853771640021
 30
0.0
 10
-0.2076617051969842
 20
-0.3137941017851514
 30
0.0
 10
-0.208082259977183
 20
-0.3184576079129274
 30
0.0
 10
-0.2077399907617599
 20
-0.322288483412325
 30
0.0
 10
-0.2075689205837244
 20
-0.3242032000277345
 30
0.0
  0
SPLINE
  5
E6
330
1F
100
AcDbEntity
  8
0
  6
Continuous
 62
     7
370
    25
100
AcDbSpline
210
0.0
220
0.0
230
1.0
 70
     8
 71
     3
 72
    11
 73
     7
 74
     0
 42
0.000000001
 43
0.00000001
 40
0.0
 40
0.0
 40
0.0
 40
0.0
 40
0.2921724858951845
 40
0.500000031332335
 40
0.707593055699483
 40
1.0
 40
1.0
 40
1.0
 40
1.0
 10
-0.2075689178598676
 20
-0.3242032268139379
 30
0.0
 10
-0.20686582454522
 20
-0.3310321280929747
 30
0.0
 10
-0.2056626083071263
 20
-0.3427185497045866
 30
0.0
 10
-0.2038172456763906
 20
-0.3592395120326248
 30
0.0
 10
-0.201936889659097
 20
-0.3757563290054901
 30
0.0
 10
-0.2005081664591331
 20
-0.3874099474234819
 30
0.0
 10
-0.199672629236469
 20
-0.3942251457538524
 30
0.0
  0
LWPOLYLINE
  5
E7
330
1F
100
AcDbEntity
  8
0
  6
Continuous
 62
     7
370
    25
100
AcDbPolyline
 90
        3
 70
   128
 43
0.0
 10
-0.1873801423
 20
-0.0400048113
 10
-0.177505191
 20
-0.0400040904
 10
-0.167579265
 20
-0.0400019014
  0
SPLINE
  5
E8
330
1F
100
AcDbEntity
  8
0
  6
Continuous
 62
     7
370
    25
100
AcDbSpline
210
0.0
220
0.0
230
1.0
 70
     8
 71
     3
 72
     8
 73
     4
 74
     0
 42
0.000000001
 43
0.00000001
 40
0.0
 40
0.0
 40
0.0
 40
0.0
 40
1.0
 40
1.0
 40
1.0
 40
1.0
 10
-0.1675792650141978
 20
-0.0400019013737913
 30
0.0
 10
-0.168019159528605
 20
-0.0073504277015368
 30
0.0
 10
-0.167934834676199
 20
0.0253082558765944
 30
0.0
 10
-0.167297494621167
 20
0.0579557255328773
 30
0.0
  0
SPLINE
  5
E9
330
1F
100
AcDbEntity
  8
0
  6
Continuous
 62
     7
370
    25
100
AcDbSpline
210
0.0
220
0.0
230
1.0
 70
     8
 71
     3
 72
    14
 73
    10
 74
     0
 42
0.000000001
 43
0.00000001
 40
0.0
 40
0.0
 40
0.0
 40
0.0
 40
0.0000536058682182
 40
0.0000536058682182
 40
0.0000536058682182
 40
0.0001073128035489
 40
0.0001073128035489
 40
0.0001073128035489
 40
0.0002137199715886
 40
0.0002137199715886
 40
0.0002137199715886
 40
0.0002137199715886
 10
-0.1672974946211668
 20
0.0579557255328787
 30
0.0
 10
-0.1672964924865949
 20
0.0586586607306341
 30
0.0
 10
-0.1672952012169675
 20
0.0593618798653478
 30
0.0
 10
-0.1672810337812884
 20
0.0600651909454583
 30
0.0
 10
-0.1672668515565436
 20
0.0607692361960976
 30
0.0
 10
-0.1672396476770368
 20
0.0614748670720664
 30
0.0
 10
-0.1671865781001418
 20
0.0621747839484079
 30
0.0
 10
-0.1670816965886937
 20
0.063558031077437
 30
0.0
 10
-0.1668778902545505
 20
0.0649159369548291
 30
0.0
 10
-0.1666746283477627
 20
0.0662652869317382
 30
0.0
  0
SPLINE
  5
EA
330
1F
100
AcDbEntity
  8
0
  6
Continuous
 62
     7
370
    25
100
AcDbSpline
210
0.0
220
0.0
230
1.0
 70
     8
 71
     3
 72
    11
 73
     7
 74
     0
 42
0.000000001
 43
0.00000001
 40
0.0
 40
0.0
 40
0.0
 40
0.0
 40
0.3344626453983504
 40
0.5829939892842558
 40
0.8329767409385541
 40
1.0
 40
1.0
 40
1.0
 40
1.0
 10
-0.1666746284115816
 20
0.0662652869632274
 30
0.0
 10
-0.1663153380033628
 20
0.067525835867842
 30
0.0
 10
-0.1656890673232705
 20
0.0697230690856618
 30
0.0
 10
-0.1643711351167081
 20
0.0723519334539521
 30
0.0
 10
-0.1629920658724323
 20
0.0735336811420946
 30
0.0
 10
-0.162093469465082
 20
0.0738619159798777
 30
0.0
 10
-0.1617335549874012
 20
0.0739933837547665
 30
0.0
  0
SPLINE
  5
EB
330
1F
100
AcDbEntity
  8
0
  6
Continuous
 62
     7
370
    25
100
AcDbSpline
210
0.0
220
0.0
230
1.0
 70
     8
 71
     3
 72
    14
 73
    10
 74
     0
 42
0.000000001
 43
0.00000001
 40
0.0
 40
0.0
 40
0.0
 40
0.0
 40
0.25
 40
0.25
 40
0.5
 40
0.5
 40
0.75
 40
0.75
 40
1.0
 40
1.0
 40
1.0
 40
1.0
 10
-0.250943561851924
 20
-0.065288187440269
 30
0.0
 10
-0.252135794824161
 20
-0.0652851951630144
 30
0.0
 10
-0.25332791254753
 20
-0.0652778107327375
 30
0.0
 10
-0.2556796925400358
 20
-0.0643390314952323
 30
0.0
 10
-0.2568840394753141
 20
-0.0634189028528695
 30
0.0
 10
-0.2586159819913944
 20
-0.0600835075113081
 30
0.0
 10
-0.2590913442040625
 20
-0.057758695010614
 30
0.0
 10
-0.2596095927520592
 20
-0.0531929419924198
 30
0.0
 10
-0.2596472569979349
 20
-0.0508511436533305
 30
0.0
 10
-0.2596782153812425
 20
-0.0485167787012145
 30
0.0
  0
SPLINE
  5
EC
330
1F
100
AcDbEntity
  8
0
  6
Continuous
 62
     7
370
    25
100
AcDbSpline
210
0.0
220
0.0
230
1.0
 70
     8
 71
     3
 72
    10
 73
     6
 74
     0
 42
0.000000001
 43
0.00000001
 40
0.0
 40
0.0
 40
0.0
 40
0.0
 40
0.5
 40
0.5
 40
1.0
 40
1.0
 40
1.0
 40
1.0
 10
-0.2596782153812426
 20
-0.0485167787012145
 30
0.0
 10
-0.2599562776989959
 20
-0.0308169665087995
 30
0.0
 10
-0.2600632900921047
 20
-0.0131146189614194
 30
0.0
 10
-0.260011297587
 20
0.0222903254704618
 30
0.0
 10
-0.2598587913725453
 20
0.0399909120472688
 30
0.0
 10
-0.2595281541359055
 20
0.0576896124177466
 30
0.0
  0
SPLINE
  5
ED
330
1F
100
AcDbEntity
  8
0
  6
Continuous
 62
     7
370
    25
100
AcDbSpline
210
0.0
220
0.0
230
1.0
 70
     8
 71
     3
 72
    12
 73
     8
 74
     0
 42
0.000000001
 43
0.00000001
 40
0.0
 40
0.0
 40
0.0
 40
0.0
 40
0.4071664091828255
 40
0.5971426863314421
 40
0.7887908664537923
 40
0.9539265133263943
 40
1.0
 40
1.0
 40
1.0
 40
1.0
 10
-0.2595281541628497
 20
0.0576896124178405
 30
0.0
 10
-0.2594339655355909
 20
0.0603134018357917
 30
0.0
 10
-0.2592958302458551
 20
0.0641614026189306
 30
0.0
 10
-0.2581198324544156
 20
0.0688153579483634
 30
0.0
 10
-0.2568295064687026
 20
0.0714333968974294
 30
0.0
 10
-0.255568482515543
 20
0.0725771121343021
 30
0.0
 10
-0.2548770233054203
 20
0.0727435501074272
 30
0.0
 10
-0.2547261873251383
 20
0.0727798571440028
 30
0.0
  0
LWPOLYLINE
  5
EE
330
1F
100
AcDbEntity
  8
0
  6
Continuous
 62
     7
370
    25
100
AcDbPolyline
 90
        3
 70
   128
 43
0.0
 10
-0.2334959827
 20
-0.0400031075
 10
-0.2269061696
 20
-0.0400028004
 10
-0.2202736677
 20
-0.0400018627
  0
SPLINE
  5
EF
330
1F
100
AcDbEntity
  8
0
  6
Continuous
 62
     7
370
    25
100
AcDbSpline
210
0.0
220
0.0
230
1.0
 70
     8
 71
     3
 72
    14
 73
    10
 74
     0
 42
0.000000001
 43
0.00000001
 40
0.0
 40
0.0
 40
0.0
 40
0.0
 40
0.0004484945586935
 40
0.0004484945586935
 40
0.0004484945586935
 40
0.0008969883995982
 40
0.0008969883995982
 40
0.0008969883995982
 40
0.0017939578682485
 40
0.0017939578682485
 40
0.0017939578682485
 40
0.0017939578682485
 10
-0.2202736677151703
 20
-0.0400018626977844
 30
0.0
 10
-0.2203535585415825
 20
-0.0341167470435437
 30
0.0
 10
-0.2204113336133021
 20
-0.0282313015163444
 30
0.0
 10
-0.2204511347079361
 20
-0.0223457425170217
 30
0.0
 10
-0.22049093575938
 20
-0.0164601899044021
 30
0.0
 10
-0.2205127634651088
 20
-0.0105744534790348
 30
0.0
 10
-0.2205207602616762
 20
-0.0046887132533546
 30
0.0
 10
-0.2205367532815956
 20
0.0070823453044208
 30
0.0
 10
-0.2205010029325718
 20
0.018853797508171
 30
0.0
 10
-0.2203773382684028
 20
0.0306241193460019
 30
0.0
  0
SPLINE
  5
F0
330
1F
100
AcDbEntity
  8
0
  6
Continuous
 62
     7
370
    25
100
AcDbSpline
210
0.0
220
0.0
230
1.0
 70
     8
 71
     3
 72
    12
 73
     8
 74
     0
 42
0.000000001
 43
0.00000001
 40
0.0
 40
0.0
 40
0.0
 40
0.0
 40
0.4000350375903197
 40
0.5910625919103751
 40
0.7836782711177716
 40
0.9500976306713329
 40
1.0
 40
1.0
 40
1.0
 40
1.0
 10
-0.2203773382946513
 20
0.0306241193460932
 30
0.0
 10
-0.2203064683926244
 20
0.0332391338539478
 30
0.0
 10
-0.2202017561948312
 20
0.0371028885445523
 30
0.0
 10
-0.2190448159068535
 20
0.0417855814639316
 30
0.0
 10
-0.2177463170707986
 20
0.0444474833585472
 30
0.0
 10
-0.2164544150682603
 20
0.0456150378706356
 30
0.0
 10
-0.2157367339325994
 20
0.0457668333975197
 30
0.0
 10
-0.215571175025147
 20
0.0458018504828775
 30
0.0
  0
SPLINE
  5
F3
330
1F
100
AcDbEntity
  8
0
  6
Continuous
 62
     7
370
    25
100
AcDbSpline
210
0.0
220
0.0
230
1.0
 70
     8
 71
     3
 72
    14
 73
    10
 74
     0
 42
0.000000001
 43
0.00000001
 40
0.0
 40
0.0
 40
0.0
 40
0.0
 40
0.25
 40
0.25
 40
0.5
 40
0.5
 40
0.75
 40
0.75
 40
1.0
 40
1.0
 40
1.0
 40
1.0
 10
-0.2418298914081026
 20
-0.2498612311133922
 30
0.0
 10
-0.2428509041109718
 20
-0.2498176904235797
 30
0.0
 10
-0.2438719658304513
 20
-0.2497721386931649
 30
0.0
 10
-0.2459233842494219
 20
-0.2490867994590751
 30
0.0
 10
-0.2469652057715609
 20
-0.2484547046875715
 30
0.0
 10
-0.2488407109778044
 20
-0.2461974951804304
 30
0.0
 10
-0.2496418593647429
 20
-0.2446283235114784
 30
0.0
 10
-0.2506724809636085
 20
-0.2409936221599753
 30
0.0
 10
-0.2508738296483479
 20
-0.2389571971782228
 30
0.0
 10
-0.2510637052991491
 20
-0.2369783439249305
 30
0.0
  0
SPLINE
  5
F4
330
1F
100
AcDbEntity
  8
0
  6
Continuous
 62
     7
370
    25
100
AcDbSpline
210
0.0
220
0.0
230
1.0
 70
     8
 71
     3
 72
    12
 73
     8
 74
     0
 42
0.000000001
 43
0.00000001
 40
0.0
 40
0.0
 40
0.0
 40
0.0
 40
0.4999999999999674
 40
0.4999999999999674
 40
0.7499999999999837
 40
0.7499999999999837
 40
1.0
 40
1.0
 40
1.0
 40
1.0
 10
-0.2510637053260985
 20
-0.2369783439272455
 30
0.0
 10
-0.2510120082000398
 20
-0.2345371822399969
 30
0.0
 10
-0.2509250671321859
 20
-0.2319863061563069
 30
0.0
 10
-0.2499125070302539
 20
-0.2291219255158693
 30
0.0
 10
-0.249437356015238
 20
-0.228359058393755
 30
0.0
 10
-0.248451516451945
 20
-0.2270282798611585
 30
0.0
 10
-0.247925509962749
 20
-0.2264448719373812
 30
0.0
 10
-0.2473991131567399
 20
-0.2258621405856057
 30
0.0
  0
SPLINE
  5
F5
330
1F
100
AcDbEntity
  8
0
  6
Continuous
 62
     7
370
    25
100
AcDbSpline
210
0.0
220
0.0
230
1.0
 70
     8
 71
     3
 72
    14
 73
    10
 74
     0
 42
0.000000001
 43
0.00000001
 40
0.0
 40
0.0
 40
0.0
 40
0.0
 40
0.0006468945719548
 40
0.0006468945719548
 40
0.0006468945719548
 40
0.0012937891191782
 40
0.0012937891191782
 40
0.0012937891191782
 40
0.0025875091155468
 40
0.0025875091155468
 40
0.0025875091155468
 40
0.0025875091155468
 10
-0.2473991131567399
 20
-0.2258621405856057
 30
0.0
 10
-0.2439517373935309
 20
-0.221490903967217
 30
0.0
 10
-0.2404958209862126
 20
-0.2171218024846387
 30
0.0
 10
-0.2370320864592106
 20
-0.2127527395594077
 30
0.0
 10
-0.2335683520322905
 20
-0.2083836767604173
 30
0.0
 10
-0.2300967951281663
 20
-0.2040146485112624
 30
0.0
 10
-0.2266180997507382
 20
-0.1996435644102872
 30
0.0
 10
-0.2196610925529578
 20
-0.190901878159199
 30
0.0
 10
-0.212675509308886
 20
-0.1821517911508158
 30
0.0
 10
-0.2056541047660841
 20
-0.1734109261117002
 30
0.0
  0
SPLINE
  5
F6
330
1F
100
AcDbEntity
  8
0
  6
Continuous
 62
     7
370
    25
100
AcDbSpline
210
0.0
220
0.0
230
1.0
 70
     8
 71
     3
 72
    14
 73
    10
 74
     0
 42
0.000000001
 43
0.00000001
 40
0.0
 40
0.0
 40
0.0
 40
0.0
 40
0.0013065502056583
 40
0.0013065502056583
 40
0.0013065502056583
 40
0.0019598410167939
 40
0.0019598410167939
 40
0.0019598410167939
 40
0.0026131364999617
 40
0.0026131364999617
 40
0.0026131364999617
 40
0.0026131364999617
 10
-0.2056541047678282
 20
-0.1734109261069293
 30
0.0
 10
-0.2137302897971692
 20
-0.1646706228121285
 30
0.0
 10
-0.2217630780742836
 20
-0.1559168899044993
 30
0.0
 10
-0.2297574612478188
 20
-0.1471659554418342
 30
0.0
 10
-0.2337547602214428
 20
-0.1427903706610519
 30
0.0
 10
-0.2377424734673139
 20
-0.1384154409191506
 30
0.0
 10
-0.2417202216713613
 20
-0.1340392939036568
 30
0.0
 10
-0.2456979983226197
 20
-0.1296631155917685
 30
0.0
 10
-0.2496658174220132
 20
-0.1252857133242009
 30
0.0
 10
-0.2536232637618145
 20
-0.1209052078475453
 30
0.0
  0
SPLINE
  5
F7
330
1F
100
AcDbEntity
  8
0
  6
Continuous
 62
     7
370
    25
100
AcDbSpline
210
0.0
220
0.0
230
1.0
 70
     8
 71
     3
 72
    10
 73
     6
 74
     0
 42
0.000000001
 43
0.00000001
 40
0.0
 40
0.0
 40
0.0
 40
0.0
 40
0.5
 40
0.5
 40
1.0
 40
1.0
 40
1.0
 40
1.0
 10
-0.2536232637656367
 20
-0.120905207861728
 30
0.0
 10
-0.2548080067491911
 20
-0.119597749598583
 30
0.0
 10
-0.2560228482141763
 20
-0.1182284259752072
 30
0.0
 10
-0.2576045948477927
 20
-0.1138617716897299
 30
0.0
 10
-0.2578963228039078
 20
-0.1112607573562108
 30
0.0
 10
-0.2582197098921681
 20
-0.1087368736156286
 30
0.0
  0
SPLINE
  5
F8
330
1F
100
AcDbEntity
  8
0
  6
Continuous
 62
     7
370
    25
100
AcDbSpline
210
0.0
220
0.0
230
1.0
 70
     8
 71
     3
 72
    14
 73
    10
 74
     0
 42
0.000000001
 43
0.00000001
 40
0.0
 40
0.0
 40
0.0
 40
0.0
 40
0.25
 40
0.25
 40
0.5
 40
0.5
 40
0.75
 40
0.75
 40
1.0
 40
1.0
 40
1.0
 40
1.0
 10
-0.2582197098970618
 20
-0.1087368736173942
 30
0.0
 10
-0.2582512956016427
 20
-0.1069983837869197
 30
0.0
 10
-0.2582972821001759
 20
-0.1052244495469035
 30
0.0
 10
-0.2578934731453233
 20
-0.1019085579024615
 30
0.0
 10
-0.2573993504924331
 20
-0.1004292883450613
 30
0.0
 10
-0.2560568930303445
 20
-0.0982862151350359
 30
0.0
 10
-0.2552409650498962
 20
-0.097576021439443
 30
0.0
 10
-0.2535198608938946
 20
-0.0968763201498432
 30
0.0
 10
-0.2526127554331495
 20
-0.0968837826730921
 30
0.0
 10
-0.2517172779193266
 20
-0.0968772401492764
 30
0.0
  0
SPLINE
  5
F9
330
1F
100
AcDbEntity
  8
0
  6
Continuous
 62
     7
370
    25
100
AcDbSpline
210
0.0
220
0.0
230
1.0
 70
     8
 71
     3
 72
    13
 73
     9
 74
     0
 42
0.000000001
 43
0.00000001
 40
0.0
 40
0.0
 40
0.0
 40
0.0
 40
0.1897858101294827
 40
0.3420696702693391
 40
0.4951250710046371
 40
0.6365939654029037
 40
0.8512100356148162
 40
1.0
 40
1.0
 40
1.0
 40
1.0
 10
-0.2501749926948483
 20
0.1054857145738302
 30
0.0
 10
-0.2511035727967165
 20
0.1054795487418077
 30
0.0
 10
-0.2527772442321519
 20
0.1054684354550691
 30
0.0
 10
-0.2550066177453018
 20
0.1072259707836979
 30
0.0
 10
-0.2565632544769732
 20
0.1100871309653363
 30
0.0
 10
-0.25761660331099
 20
0.1143613502793332
 30
0.0
 10
-0.257873072418178
 20
0.1191263797464416
 30
0.0
 10
-0.2577321030324159
 20
0.122545816661306
 30
0.0
 10
-0.2576743856917829
 20
0.1239458426607205
 30
0.0
  0
SPLINE
  5
FA
330
1F
100
AcDbEntity
  8
0
  6
Continuous
 62
     7
370
    25
100
AcDbSpline
210
0.0
220
0.0
230
1.0
 70
     8
 71
     3
 72
    14
 73
    10
 74
     0
 42
0.000000001
 43
0.00000001
 40
0.0
 40
0.0
 40
0.0
 40
0.0
 40
0.0003300993143334
 40
0.0003300993143334
 40
0.0003300993143334
 40
0.0006601983643008
 40
0.0006601983643008
 40
0.0006601983643008
 40
0.00132038830882
 40
0.00132038830882
 40
0.00132038830882
 40
0.00132038830882
 10
-0.2576743856917827
 20
0.1239458426607205
 30
0.0
 10
-0.2575122257680372
 20
0.1282735640188599
 30
0.0
 10
-0.2573382954511157
 20
0.13260085582333
 30
0.0
 10
-0.2571549407217819
 20
0.1369276359733037
 30
0.0
 10
-0.2569715860940034
 20
0.1412544137267863
 30
0.0
 10
-0.2567788056313718
 20
0.1455807070154212
 30
0.0
 10
-0.2565789491981753
 20
0.1499064467089276
 30
0.0
 10
-0.2561792444951466
 20
0.1585577494061614
 30
0.0
 10
-0.2557512369350248
 20
0.1672069852043055
 30
0.0
 10
-0.2552762134752899
 20
0.1758535635896823
 30
0.0
  0
SPLINE
  5
FB
330
1F
100
AcDbEntity
  8
0
  6
Continuous
 62
     7
370
    25
100
AcDbSpline
210
0.0
220
0.0
230
1.0
 70
     8
 71
     3
 72
    22
 73
    18
 74
     0
 42
0.000000001
 43
0.00000001
 40
0.0
 40
0.0
 40
0.0
 40
0.0
 40
0.125
 40
0.125
 40
0.25
 40
0.25
 40
0.375
 40
0.375
 40
0.5
 40
0.5
 40
0.625
 40
0.625
 40
0.75
 40
0.75
 40
0.875
 40
0.875
 40
1.0
 40
1.0
 40
1.0
 40
1.0
 10
-0.2552762134940579
 20
0.1758535635897371
 30
0.0
 10
-0.2549881700975162
 20
0.1798640544321355
 30
0.0
 10
-0.2546397074815473
 20
0.1838538091505275
 30
0.0
 10
-0.253562221980917
 20
0.1916927551937583
 30
0.0
 10
-0.2528844436510527
 20
0.1955614523220984
 30
0.0
 10
-0.2511182971867866
 20
0.2031464979339678
 30
0.0
 10
-0.2500184904213345
 20
0.2068758530891923
 30
0.0
 10
-0.2474949857865847
 20
0.2137906003044769
 30
0.0
 10
-0.2460615908615703
 20
0.2170254640477136
 30
0.0
 10
-0.2428525061899121
 20
0.2230467571988647
 30
0.0
 10
-0.2411312635271813
 20
0.2257322873906626
 30
0.0
 10
-0.2374417792282296
 20
0.2303565647672192
 30
0.0
 10
-0.2354446483804931
 20
0.2323131532742103
 30
0.0
 10
-0.2313774739651538
 20
0.2353707895252942
 30
0.0
 10
-0.2293038050290545
 20
0.2364887662850941
 30
0.0
 10
-0.2250865247291171
 20
0.2379819720663573
 30
0.0
 10
-0.2229694926128574
 20
0.2382536208056707
 30
0.0
 10
-0.2208647169331458
 20
0.2384325172863365
 30
0.0
  0
SPLINE
  5
FC
330
1F
100
AcDbEntity
  8
0
  6
Continuous
 62
     7
370
    25
100
AcDbSpline
210
0.0
220
0.0
230
1.0
 70
     8
 71
     3
 72
    14
 73
    10
 74
     0
 42
0.000000001
 43
0.00000001
 40
0.0
 40
0.0
 40
0.0
 40
0.0
 40
0.0009932936729131
 40
0.0009932936729131
 40
0.0009932936729131
 40
0.0014899533897478
 40
0.0014899533897478
 40
0.0014899533897478
 40
0.0019866171811276
 40
0.0019866171811276
 40
0.0019866171811276
 40
0.0019866171811276
 10
-0.1935699436106214
 20
0.1889916920560029
 30
0.0
 10
-0.1876763306188534
 20
0.1966411544756788
 30
0.0
 10
-0.1817489969232837
 20
0.2042794082726812
 30
0.0
 10
-0.1757914957537952
 20
0.2119190157834086
 30
0.0
 10
-0.1728126591418022
 20
0.2157389298558998
 30
0.0
 10
-0.1698262669892439
 20
0.2195592120706038
 30
0.0
 10
-0.1668317462141463
 20
0.2233781781521332
 30
0.0
 10
-0.1638372009751689
 20
0.2271971754328874
 30
0.0
 10
-0.1608345201909801
 20
0.2310148632849321
 30
0.0
 10
-0.1578231565481518
 20
0.2348295606314066
 30
0.0
  0
SPLINE
  5
FD
330
1F
100
AcDbEntity
  8
0
  6
Continuous
 62
     7
370
    25
100
AcDbSpline
210
0.0
220
0.0
230
1.0
 70
     8
 71
     3
 72
    14
 73
    10
 74
     0
 42
0.000000001
 43
0.00000001
 40
0.0
 40
0.0
 40
0.0
 40
0.0
 40
0.000012415953247
 40
0.000012415953247
 40
0.000012415953247
 40
0.0000248635527679
 40
0.0000248635527679
 40
0.0000248635527679
 40
0.0000494485372936
 40
0.0000494485372936
 40
0.0000494485372936
 40
0.0000494485372936
 10
-0.1578231565481517
 20
0.2348295606314066
 30
0.0
 10
-0.157743737738476
 20
0.2349087691148262
 30
0.0
 10
-0.1576642683146965
 20
0.2349879985112295
 30
0.0
 10
-0.157586122286693
 20
0.2350728142016303
 30
0.0
 10
-0.1575078661905903
 20
0.2351577493543002
 30
0.0
 10
-0.1574307247490502
 20
0.2352485835493079
 30
0.0
 10
-0.1573571983565786
 20
0.2353499604869866
 30
0.0
 10
-0.157212451951657
 20
0.2355495343648513
 30
0.0
 10
-0.1570818603796406
 20
0.2357882876332434
 30
0.0
 10
-0.156952224338602
 20
0.236024830361959
 30
0.0
  0
SPLINE
  5
FE
330
1F
100
AcDbEntity
  8
0
  6
Continuous
 62
     7
370
    25
100
AcDbSpline
210
0.0
220
0.0
230
1.0
 70
     8
 71
     3
 72
     9
 73
     5
 74
     0
 42
0.000000001
 43
0.00000001
 40
0.0
 40
0.0
 40
0.0
 40
0.0
 40
0.5565886505070196
 40
1.0
 40
1.0
 40
1.0
 40
1.0
 10
-0.1569522242745168
 20
0.2360248302321024
 30
0.0
 10
-0.1565097775200214
 20
0.2366602828705733
 30
0.0
 10
-0.1557148515830798
 20
0.2378019745631581
 30
0.0
 10
-0.1547991668735109
 20
0.2383731105220986
 30
0.0
 10
-0.1543931418807308
 20
0.2386263586883964
 30
0.0
  0
SPLINE
  5
FF
330
1F
100
AcDbEntity
  8
0
  6
Continuous
 62
     7
370
    25
100
AcDbSpline
210
0.0
220
0.0
230
1.0
 70
     8
 71
     3
 72
    14
 73
    10
 74
     0
 42
0.000000001
 43
0.00000001
 40
0.0
 40
0.0
 40
0.0
 40
0.0
 40
0.000279707189934
 40
0.000279707189934
 40
0.000279707189934
 40
0.0005594142122884
 40
0.0005594142122884
 40
0.0005594142122884
 40
0.0011188275575842
 40
0.0011188275575842
 40
0.0011188275575842
 40
0.0011188275575842
 10
-0.209060101563667
 20
0.1306276733532896
 30
0.0
 10
-0.208911751862211
 20
0.134294166369554
 30
0.0
 10
-0.2087547783684736
 20
0.1379603178021027
 30
0.0
 10
-0.2085909005154294
 20
0.1416260756985042
 30
0.0
 10
-0.2084270227302897
 20
0.1452918320759584
 30
0.0
 10
-0.2082562396352189
 20
0.1489572121429576
 30
0.0
 10
-0.2080802731739877
 20
0.1526221721749736
 30
0.0
 10
-0.2077283428154362
 20
0.1599520388388819
 30
0.0
 10
-0.2073556793750762
 20
0.1672803187883271
 30
0.0
 10
-0.2069485632061169
 20
0.1746066374019655
 30
0.0
  0
SPLINE
  5
100
330
1F
100
AcDbEntity
  8
0
  6
Continuous
 62
     7
370
    25
100
AcDbSpline
210
0.0
220
0.0
230
1.0
 70
     8
 71
     3
 72
    12
 73
     8
 74
     0
 42
0.000000001
 43
0.00000001
 40
0.0
 40
0.0
 40
0.0
 40
0.0
 40
0.5
 40
0.5
 40
0.75
 40
0.75
 40
1.0
 40
1.0
 40
1.0
 40
1.0
 10
-0.2069485632848817
 20
0.1746066374021677
 30
0.0
 10
-0.2067755563394967
 20
0.1779878850880842
 30
0.0
 10
-0.2065593997607136
 20
0.181378314033881
 30
0.0
 10
-0.2066267228515971
 20
0.1864071845192929
 30
0.0
 10
-0.2067216638997929
 20
0.1880399631410462
 30
0.0
 10
-0.2070840419933636
 20
0.1911993514810386
 30
0.0
 10
-0.2073523186851024
 20
0.1927259704390366
 30
0.0
 10
-0.2076194691416415
 20
0.194252566840385
 30
0.0
  0
SPLINE
  5
101
330
1F
100
AcDbEntity
  8
0
  6
Continuous
 62
     7
370
    25
100
AcDbSpline
210
0.0
220
0.0
230
1.0
 70
     8
 71
     3
 72
    14
 73
    10
 74
     0
 42
0.000000001
 43
0.00000001
 40
0.0
 40
0.0
 40
0.0
 40
0.0
 40
0.25
 40
0.25
 40
0.5
 40
0.5
 40
0.75
 40
0.75
 40
1.0
 40
1.0
 40
1.0
 40
1.0
 10
-0.2076194691416412
 20
0.194252566840385
 30
0.0
 10
-0.2082534127774624
 20
0.1970572043927769
 30
0.0
 10
-0.2089443141022732
 20
0.1997806024469267
 30
0.0
 10
-0.2108737125608988
 20
0.2044927561286614
 30
0.0
 10
-0.2120553334906615
 20
0.206544017727628
 30
0.0
 10
-0.21465248817983
 20
0.2098488942140558
 30
0.0
 10
-0.2161139046958323
 20
0.2111605885007788
 30
0.0
 10
-0.2191903896523615
 20
0.2128417798635539
 30
0.0
 10
-0.2208264478989304
 20
0.2131147772617293
 30
0.0
 10
-0.2224799376799245
 20
0.2132708566495556
 30
0.0
  0
SPLINE
  5
103
330
1F
100
AcDbEntity
  8
0
  6
Continuous
 62
     7
370
    25
100
AcDbSpline
210
0.0
220
0.0
230
1.0
 70
     8
 71
     3
 72
    10
 73
     6
 74
     0
 42
0.000000001
 43
0.00000001
 40
0.0
 40
0.0
 40
0.0
 40
0.0
 40
0.5
 40
0.5
 40
1.0
 40
1.0
 40
1.0
 40
1.0
 10
-0.1945474286093441
 20
0.3520759898120135
 30
0.0
 10
-0.1946233207828716
 20
0.3536995615422496
 30
0.0
 10
-0.1946868027742996
 20
0.3553348963623301
 30
0.0
 10
-0.1945058074022561
 20
0.3587074006041182
 30
0.0
 10
-0.1942748940160517
 20
0.3603960096082659
 30
0.0
 10
-0.1940430953851074
 20
0.3620840364306639
 30
0.0
  0
SPLINE
  5
104
330
1F
100
AcDbEntity
  8
0
  6
Continuous
 62
     7
370
    25
100
AcDbSpline
210
0.0
220
0.0
230
1.0
 70
     8
 71
     3
 72
    14
 73
    10
 74
     0
 42
0.000000001
 43
0.00000001
 40
0.0
 40
0.0
 40
0.0
 40
0.0
 40
0.0003781685695357
 40
0.0003781685695357
 40
0.0003781685695357
 40
0.0005672573312629
 40
0.0005672573312629
 40
0.0005672573312629
 40
0.0007563474830294
 40
0.0007563474830294
 40
0.0007563474830294
 40
0.0007563474830294
 10
-0.194043095385107
 20
0.3620840364306639
 30
0.0
 10
-0.1934834488402596
 20
0.3670034042114925
 30
0.0
 10
-0.1929081964547129
 20
0.3719210198180838
 30
0.0
 10
-0.1923237398065853
 20
0.376836779532094
 30
0.0
 10
-0.1920315037723312
 20
0.3792947242381223
 30
0.0
 10
-0.1917369667435275
 20
0.3817522120520784
 30
0.0
 10
-0.1914393335352569
 20
0.3842092289291214
 30
0.0
 10
-0.1911416981644629
 20
0.3866662636581922
 30
0.0
 10
-0.1908409657887379
 20
0.3891228326418226
 30
0.0
 10
-0.190536339507509
 20
0.3915789191236637
 30
0.0
  0
SPLINE
  5
105
330
1F
100
AcDbEntity
  8
0
  6
Continuous
 62
     7
370
    25
100
AcDbSpline
210
0.0
220
0.0
230
1.0
 70
     8
 71
     3
 72
    14
 73
    10
 74
     0
 42
0.000000001
 43
0.00000001
 40
0.0
 40
0.0
 40
0.0
 40
0.0
 40
0.25
 40
0.25
 40
0.5
 40
0.5
 40
0.75
 40
0.75
 40
1.0
 40
1.0
 40
1.0
 40
1.0
 10
-0.1905363395075093
 20
0.3915789191236638
 30
0.0
 10
-0.1902581204617646
 20
0.393902229729181
 30
0.0
 10
-0.189975407742616
 20
0.3962247716107771
 30
0.0
 10
-0.1888790246102196
 20
0.4007786867779591
 30
0.0
 10
-0.1880787410436786
 20
0.4030321823265958
 30
0.0
 10
-0.185873636880833
 20
0.4062348434820347
 30
0.0
 10
-0.18455142781731
 20
0.4070462978089572
 30
0.0
 10
-0.1820371952840292
 20
0.4078967593211448
 30
0.0
 10
-0.1807918581109537
 20
0.4079152365158334
 30
0.0
 10
-0.1795594611023053
 20
0.4079261766270887
 30
0.0
  0
SPLINE
  5
106
330
1F
100
AcDbEntity
  8
0
  6
Continuous
 62
     7
370
    25
100
AcDbSpline
210
0.0
220
0.0
230
1.0
 70
     8
 71
     3
 72
    18
 73
    14
 74
     0
 42
0.000000001
 43
0.00000001
 40
0.0
 40
0.0
 40
0.0
 40
0.0
 40
0.1249999999999987
 40
0.1249999999999987
 40
0.2499999999999973
 40
0.2499999999999973
 40
0.4999999999999942
 40
0.4999999999999942
 40
0.749999999999991
 40
0.749999999999991
 40
0.8749999999999954
 40
0.8749999999999954
 40
1.0
 40
1.0
 40
1.0
 40
1.0
 10
-0.1957718133076136
 20
0.2699363930484145
 30
0.0
 10
-0.1979907251169446
 20
0.2700329282441284
 30
0.0
 10
-0.2001915671632122
 20
0.2702238490397242
 30
0.0
 10
-0.2044796965841182
 20
0.2711987821118287
 30
0.0
 10
-0.2065843612645992
 20
0.271892030410682
 30
0.0
 10
-0.2127655175360454
 20
0.2746610117101522
 30
0.0
 10
-0.2167548924433798
 20
0.2774146101466727
 30
0.0
 10
-0.2242226148548815
 20
0.2844693482797355
 30
0.0
 10
-0.2276396987254577
 20
0.2887304556979817
 30
0.0
 10
-0.2321948557018574
 20
0.2964128399738413
 30
0.0
 10
-0.2336165483432495
 20
0.2991922762366853
 30
0.0
 10
-0.2362612037787939
 20
0.3051929113960642
 30
0.0
 10
-0.2374163222530987
 20
0.308445314833111
 30
0.0
 10
-0.2385127788042807
 20
0.3117714078380497
 30
0.0
  0
SPLINE
  5
107
330
1F
100
AcDbEntity
  8
0
  6
Continuous
 62
     7
370
    25
100
AcDbSpline
210
0.0
220
0.0
230
1.0
 70
     8
 71
     3
 72
    14
 73
    10
 74
     0
 42
0.000000001
 43
0.00000001
 40
0.0
 40
0.0
 40
0.0
 40
0.0
 40
0.25
 40
0.25
 40
0.5
 40
0.5
 40
0.75
 40
0.75
 40
1.0
 40
1.0
 40
1.0
 40
1.0
 10
-0.2385127787852273
 20
0.3117714078640232
 30
0.0
 10
-0.2392514910781877
 20
0.3146122183214201
 30
0.0
 10
-0.2399415234532482
 20
0.3175001894066824
 30
0.0
 10
-0.2409411280877357
 20
0.3236640255466835
 30
0.0
 10
-0.2412886328471766
 20
0.326852792841915
 30
0.0
 10
-0.2417140210303863
 20
0.333415079841111
 30
0.0
 10
-0.2417882271360068
 20
0.3367379565470941
 30
0.0
 10
-0.2416790211052199
 20
0.343454960285536
 30
0.0
 10
-0.2414295388053259
 20
0.3468699827409136
 30
0.0
 10
-0.2411052811266035
 20
0.3503050907920564
 30
0.0
  0
SPLINE
  5
108
330
1F
100
AcDbEntity
  8
0
  6
Continuous
 62
     7
370
    25
100
AcDbSpline
210
0.0
220
0.0
230
1.0
 70
     8
 71
     3
 72
    16
 73
    12
 74
     0
 42
0.000000001
 43
0.00000001
 40
0.0
 40
0.0
 40
0.0
 40
0.0
 40
0.1250000000000014
 40
0.1250000000000014
 40
0.2500000000000028
 40
0.2500000000000028
 40
0.5000000000000019
 40
0.5000000000000019
 40
0.7500000000000009
 40
0.7500000000000009
 40
1.0
 40
1.0
 40
1.0
 40
1.0
 10
-0.2411052811854383
 20
0.3503050907891292
 30
0.0
 10
-0.2408159360832148
 20
0.3526472522661577
 30
0.0
 10
-0.2405230324225726
 20
0.3549887999322859
 30
0.0
 10
-0.2397557468596513
 20
0.3596312003855866
 30
0.0
 10
-0.2392821289983644
 20
0.3619322256551226
 30
0.0
 10
-0.2376579081893343
 20
0.3687898338979115
 30
0.0
 10
-0.2363387841701968
 20
0.3731643759064635
 30
0.0
 10
-0.2332484408582158
 20
0.3815115233077222
 30
0.0
 10
-0.2314574206644036
 20
0.3855134129308011
 30
0.0
 10
-0.2276104754022763
 20
0.3929394727209951
 30
0.0
 10
-0.2255103315144519
 20
0.3963188981015365
 30
0.0
 10
-0.2233671605429126
 20
0.3996238519998847
 30
0.0
  0
SPLINE
  5
109
330
1F
100
AcDbEntity
  8
0
  6
Continuous
 62
     7
370
    25
100
AcDbSpline
210
0.0
220
0.0
230
1.0
 70
     8
 71
     3
 72
    11
 73
     7
 74
     0
 42
0.000000001
 43
0.00000001
 40
0.0
 40
0.0
 40
0.0
 40
0.0
 40
0.3177094651740129
 40
0.6358525208703044
 40
0.9567865808814696
 40
1.0
 40
1.0
 40
1.0
 40
1.0
 10
-0.2233671605334764
 20
0.3996238519764229
 30
0.0
 10
-0.2225904974219668
 20
0.4006709211011125
 30
0.0
 10
-0.2210361112564496
 20
0.4027664883266426
 30
0.0
 10
-0.2186470901176402
 20
0.405723940629266
 30
0.0
 10
-0.2167667531946762
 20
0.4073255467077013
 30
0.0
 10
-0.2157693802067656
 20
0.4075978683233151
 30
0.0
 10
-0.2156510218508404
 20
0.4076301847576859
 30
0.0
  0
SPLINE
  5
10A
330
1F
100
AcDbEntity
  8
0
  6
Continuous
 62
     7
370
    25
100
AcDbSpline
210
0.0
220
0.0
230
1.0
 70
     8
 71
     3
 72
    16
 73
    12
 74
     0
 42
0.000000001
 43
0.00000001
 40
0.0
 40
0.0
 40
0.0
 40
0.0
 40
0.125
 40
0.125
 40
0.25
 40
0.25
 40
0.4999999999999998
 40
0.4999999999999998
 40
0.7499999999999996
 40
0.7499999999999996
 40
1.0
 40
1.0
 40
1.0
 40
1.0
 10
-0.1938263557134252
 20
0.2950919886366688
 30
0.0
 10
-0.1924089101431095
 20
0.2951800110064843
 30
0.0
 10
-0.190991444161209
 20
0.2952685328501439
 30
0.0
 10
-0.1881543130752661
 20
0.2957473760282764
 30
0.0
 10
-0.1867346408228809
 20
0.2961362811488311
 30
0.0
 10
-0.1824724690160188
 20
0.2976425492993143
 30
0.0
 10
-0.1796118844550186
 20
0.2991088976957368
 30
0.0
 10
-0.1739538771169036
 20
0.3028041530461102
 30
0.0
 10
-0.1711582782416112
 20
0.3050283312964728
 30
0.0
 10
-0.1657175293793583
 20
0.310359141193904
 30
0.0
 10
-0.1631288420189745
 20
0.3135638625979571
 30
0.0
 10
-0.1605645182244181
 20
0.3168921493673739
 30
0.0
  0
SPLINE
  5
10B
330
1F
100
AcDbEntity
  8
0
  6
Continuous
 62
     7
370
    25
100
AcDbSpline
210
0.0
220
0.0
230
1.0
 70
     8
 71
     3
 72
    14
 73
    10
 74
     0
 42
0.000000001
 43
0.00000001
 40
0.0
 40
0.0
 40
0.0
 40
0.0
 40
0.25
 40
0.25
 40
0.5
 40
0.5
 40
0.75
 40
0.75
 40
1.0
 40
1.0
 40
1.0
 40
1.0
 10
-0.1605645182437739
 20
0.3168921494307403
 30
0.0
 10
-0.1590387444949002
 20
0.319114747610644
 30
0.0
 10
-0.1575323149611484
 20
0.3213889992199858
 30
0.0
 10
-0.1547641138723809
 20
0.3265365962265915
 30
0.0
 10
-0.1535158614629063
 20
0.3292877473092737
 30
0.0
 10
-0.1513182054661746
 20
0.3351697498383004
 30
0.0
 10
-0.1503590899390245
 20
0.3383484017321514
 30
0.0
 10
-0.1489019434987157
 20
0.3447927413077653
 30
0.0
 10
-0.148436305993832
 20
0.3480994052696051
 30
0.0
 10
-0.1480103173855219
 20
0.3514195754421817
 30
0.0
  0
SPLINE
  5
10C
330
1F
100
AcDbEntity
  8
0
  6
Continuous
 62
     7
370
    25
100
AcDbSpline
210
0.0
220
0.0
230
1.0
 70
     8
 71
     3
 72
    14
 73
    10
 74
     0
 42
0.000000001
 43
0.00000001
 40
0.0
 40
0.0
 40
0.0
 40
0.0
 40
0.25
 40
0.25
 40
0.5
 40
0.5
 40
0.75
 40
0.75
 40
1.0
 40
1.0
 40
1.0
 40
1.0
 10
-0.1480103173443481
 20
0.3514195754398345
 30
0.0
 10
-0.1477745573720255
 20
0.3542507257096272
 30
0.0
 10
-0.1475475020310165
 20
0.3570785501661419
 30
0.0
 10
-0.1475586525577179
 20
0.362631008912105
 30
0.0
 10
-0.1477797195152053
 20
0.365253238899685
 30
0.0
 10
-0.1485752179057326
 20
0.3702282294504912
 30
0.0
 10
-0.14915448243613
 20
0.3725744729962671
 30
0.0
 10
-0.1507729304266033
 20
0.3765249854250483
 30
0.0
 10
-0.1518515473227808
 20
0.3780901975339656
 30
0.0
 10
-0.1529449226547499
 20
0.3795676118090886
 30
0.0
  0
SPLINE
  5
10D
330
1F
100
AcDbEntity
  8
0
  6
Continuous
 62
     7
370
    25
100
AcDbSpline
210
0.0
220
0.0
230
1.0
 70
     8
 71
     3
 72
    17
 73
    13
 74
     0
 42
0.000000001
 43
0.00000001
 40
0.0
 40
0.0
 40
0.0
 40
0.0
 40
0.0001178750089404
 40
0.0001178750089404
 40
0.0001178750089404
 40
0.0002343060866167
 40
0.0002343060866167
 40
0.0002343060866167
 40
0.0003511378750243
 40
0.0003511378750243
 40
0.0003511378750243
 40
0.0004685206669501
 40
0.0004685206669501
 40
0.0004685206669501
 40
0.0004685206669501
 10
-0.1529449226453548
 20
0.3795676118303816
 30
0.0
 10
-0.1536067482579994
 20
0.3801818020582343
 30
0.0
 10
-0.1542702631569022
 20
0.3807977573274128
 30
0.0
 10
-0.1549741993107877
 20
0.3812811270557869
 30
0.0
 10
-0.1556682781676632
 20
0.3817577281035755
 30
0.0
 10
-0.1564025136637237
 20
0.3821069290698926
 30
0.0
 10
-0.1571573688164073
 20
0.3823395044098101
 30
0.0
 10
-0.1579159337624057
 20
0.3825732227590032
 30
0.0
 10
-0.1586982424742913
 20
0.3826900034307694
 30
0.0
 10
-0.1594843637552965
 20
0.3827673854016299
 30
0.0
 10
-0.1602748102009664
 20
0.3828451931207486
 30
0.0
 10
-0.1610710233088841
 20
0.3828836609943235
 30
0.0
 10
-0.1618670565360923
 20
0.3829221051414832
 30
0.0
  0
SPLINE
  5
10E
330
1F
100
AcDbEntity
  8
0
  6
Continuous
 62
     7
370
    25
100
AcDbSpline
210
0.0
220
0.0
230
1.0
 70
     8
 71
     3
 72
    14
 73
    10
 74
     0
 42
0.000000001
 43
0.00000001
 40
0.0
 40
0.0
 40
0.0
 40
0.0
 40
0.0002029453324881
 40
0.0002029453324881
 40
0.0002029453324881
 40
0.0004058906649761
 40
0.0004058906649761
 40
0.0004058906649761
 40
0.0007905097154273
 40
0.0007905097154273
 40
0.0007905097154273
 40
0.0007905097154273
 10
-0.1618670565524374
 20
0.3829221050206298
 30
0.0
 10
-0.1632508527814981
 20
0.3829251885959912
 30
0.0
 10
-0.1646346733388759
 20
0.3829278763602445
 30
0.0
 10
-0.1660185180064312
 20
0.3829301683092939
 30
0.0
 10
-0.1674023626739861
 20
0.3829324602583434
 30
0.0
 10
-0.1687862314824369
 20
0.3829343563922402
 30
0.0
 10
-0.1701701242136569
 20
0.3829358567069411
 30
0.0
 10
-0.1727928575577901
 20
0.3829387000815062
 30
0.0
 10
-0.1754156769857055
 20
0.3829401217813445
 30
0.0
 10
-0.1780385810127378
 20
0.3829401217794564
 30
0.0
  0
SPLINE
  5
10F
330
1F
100
AcDbEntity
  8
0
  6
Continuous
 62
     7
370
    25
100
AcDbSpline
210
0.0
220
0.0
230
1.0
 70
     8
 71
     3
 72
    11
 73
     7
 74
     0
 42
0.000000001
 43
0.00000001
 40
0.0
 40
0.0
 40
0.0
 40
0.0
 40
0.0361499010137442
 40
0.3264634133299251
 40
0.6174841515096198
 40
1.0
 40
1.0
 40
1.0
 40
1.0
 10
-0.1913446442122974
 20
0.3449320849290853
 30
0.0
 10
-0.1914085851826388
 20
0.3449564629538577
 30
0.0
 10
-0.1919860248669505
 20
0.3451766166182997
 30
0.0
 10
-0.1929299900004714
 20
0.3462593241086561
 30
0.0
 10
-0.1938782674550662
 20
0.3488308598028733
 30
0.0
 10
-0.1943050497792381
 20
0.3509005617647938
 30
0.0
 10
-0.194547428598863
 20
0.3520759898228304
 30
0.0
  0
SPLINE
  5
111
330
1F
100
AcDbEntity
  8
0
  6
Continuous
 62
     7
370
    25
100
AcDbSpline
210
0.0
220
0.0
230
1.0
 70
     8
 71
     3
 72
    10
 73
     6
 74
     0
 42
0.000000001
 43
0.00000001
 40
0.0
 40
0.0
 40
0.0
 40
0.0
 40
0.5
 40
0.5
 40
1.0
 40
1.0
 40
1.0
 40
1.0
 10
-0.1428802439594542
 20
-0.3941624673419329
 30
0.0
 10
-0.144950112564543
 20
-0.378010948438267
 30
0.0
 10
-0.146854335594118
 20
-0.3618380473369543
 30
0.0
 10
-0.1504557788694062
 20
-0.3294535526729001
 30
0.0
 10
-0.1521526213328713
 20
-0.3132436184593206
 30
0.0
 10
-0.1536829369011577
 20
-0.2970158945798954
 30
0.0
  0
SPLINE
  5
112
330
1F
100
AcDbEntity
  8
0
  6
Continuous
 62
     7
370
    25
100
AcDbSpline
210
0.0
220
0.0
230
1.0
 70
     8
 71
     3
 72
    14
 73
    10
 74
     0
 42
0.000000001
 43
0.00000001
 40
0.0
 40
0.0
 40
0.0
 40
0.0
 40
0.0000536058813977
 40
0.0000536058813977
 40
0.0000536058813977
 40
0.0001073128424848
 40
0.0001073128424848
 40
0.0001073128424848
 40
0.0002137208892509
 40
0.0002137208892509
 40
0.0002137208892509
 40
0.0002137208892509
 10
-0.1536829369011575
 20
-0.2970158945798954
 30
0.0
 10
-0.153761760807996
 20
-0.2963171217220639
 30
0.0
 10
-0.1538403296882295
 20
-0.2956180299280006
 30
0.0
 10
-0.1539059625251676
 20
-0.294918800575712
 30
0.0
 10
-0.1539716638835966
 20
-0.2942188412193578
 30
0.0
 10
-0.1540244519540264
 20
-0.2935172588609049
 30
0.0
 10
-0.1540505875910876
 20
-0.2928213029725562
 30
0.0
 10
-0.1541022399188144
 20
-0.2914458728828224
 30
0.0
 10
-0.1540515749760763
 20
-0.2900954272761475
 30
0.0
 10
-0.1540005401336971
 20
-0.288753364396947
 30
0.0
  0
SPLINE
  5
113
330
1F
100
AcDbEntity
  8
0
  6
Continuous
 62
     7
370
    25
100
AcDbSpline
210
0.0
220
0.0
230
1.0
 70
     8
 71
     3
 72
    11
 73
     7
 74
     0
 42
0.000000001
 43
0.00000001
 40
0.0
 40
0.0
 40
0.0
 40
0.0
 40
0.3146614783458394
 40
0.571543984768212
 40
0.8304080281023379
 40
1.0
 40
1.0
 40
1.0
 40
1.0
 10
-0.1540005401938477
 20
-0.2887533643691832
 30
0.0
 10
-0.1537958185638821
 20
-0.2875753907501555
 30
0.0
 10
-0.1534239668304769
 20
-0.2854357461399852
 30
0.0
 10
-0.1524369661530597
 20
-0.282775068938103
 30
0.0
 10
-0.1511547022326541
 20
-0.2815335222482103
 30
0.0
 10
-0.1502651749899273
 20
-0.2811985708276282
 30
0.0
 10
-0.149913081253843
 20
-0.2810659899561103
 30
0.0
  0
SPLINE
  5
114
330
1F
100
AcDbEntity
  8
0
  6
Continuous
 62
     7
370
    25
100
AcDbSpline
210
0.0
220
0.0
230
1.0
 70
     8
 71
     3
 72
    14
 73
    10
 74
     0
 42
0.000000001
 43
0.00000001
 40
0.0
 40
0.0
 40
0.0
 40
0.0
 40
0.25
 40
0.25
 40
0.5
 40
0.5
 40
0.75
 40
0.75
 40
1.0
 40
1.0
 40
1.0
 40
1.0
 10
-0.224355088476908
 20
-0.4192809871820836
 30
0.0
 10
-0.2255612138903796
 20
-0.4192796104715306
 30
0.0
 10
-0.2267676968939502
 20
-0.4192740529209266
 30
0.0
 10
-0.22924944393707
 20
-0.4183469516069763
 30
0.0
 10
-0.2305645546381803
 20
-0.4174391841130981
 30
0.0
 10
-0.2326759726776697
 20
-0.41414153195739
 30
0.0
 10
-0.2334075579145005
 20
-0.4118428803139955
 30
0.0
 10
-0.2344248575903933
 20
-0.4073296498561087
 30
0.0
 10
-0.2347170452465545
 20
-0.4050095246767709
 30
0.0
 10
-0.235001223686467
 20
-0.402698822021127
 30
0.0
  0
SPLINE
  5
115
330
1F
100
AcDbEntity
  8
0
  6
Continuous
 62
     7
370
    25
100
AcDbSpline
210
0.0
220
0.0
230
1.0
 70
     8
 71
     3
 72
    10
 73
     6
 74
     0
 42
0.000000001
 43
0.00000001
 40
0.0
 40
0.0
 40
0.0
 40
0.0
 40
0.5
 40
0.5
 40
1.0
 40
1.0
 40
1.0
 40
1.0
 10
-0.2350012236864672
 20
-0.402698822021127
 30
0.0
 10
-0.2372009825947218
 20
-0.3851804771490215
 30
0.0
 10
-0.2392291351018278
 20
-0.3676384486362619
 30
0.0
 10
-0.243031938440786
 20
-0.3325117151160143
 30
0.0
 10
-0.2448062247467037
 20
-0.3149289641831191
 30
0.0
 10
-0.2464077745746964
 20
-0.2973267529309087
 30
0.0
  0
SPLINE
  5
116
330
1F
100
AcDbEntity
  8
0
  6
Continuous
 62
     7
370
    25
100
AcDbSpline
210
0.0
220
0.0
230
1.0
 70
     8
 71
     3
 72
    12
 73
     8
 74
     0
 42
0.000000001
 43
0.00000001
 40
0.0
 40
0.0
 40
0.0
 40
0.0
 40
0.4016929731317963
 40
0.5884466169374045
 40
0.7766829385395685
 40
0.9443095492618804
 40
1.0
 40
1.0
 40
1.0
 40
1.0
 10
-0.2464077745984452
 20
-0.2973267529308492
 30
0.0
 10
-0.2465984091688387
 20
-0.2947475405362905
 30
0.0
 10
-0.2468776728740134
 20
-0.2909692100464437
 30
0.0
 10
-0.2462328901316397
 20
-0.2863883105617508
 30
0.0
 10
-0.2452605310499242
 20
-0.2837550322881125
 30
0.0
 10
-0.2441065505890253
 20
-0.2825362052773408
 30
0.0
 10
-0.2433889655425975
 20
-0.2823626869744991
 30
0.0
 10
-0.2432100153342384
 20
-0.282319415258342
 30
0.0
  0
SPLINE
  5
117
330
1F
100
AcDbEntity
  8
0
  6
Continuous
 62
     7
370
    25
100
AcDbSpline
210
0.0
220
0.0
230
1.0
 70
     8
 71
     3
 72
    10
 73
     6
 74
     0
 42
0.000000001
 43
0.00000001
 40
0.0
 40
0.0
 40
0.0
 40
0.0
 40
0.0683376436594806
 40
0.3789039076672621
 40
1.0
 40
1.0
 40
1.0
 40
1.0
 10
-0.2176959454980867
 20
-0.3942564896671317
 30
0.0
 10
-0.2172045047474774
 20
-0.3942566486529474
 30
0.0
 10
-0.2144796694909291
 20
-0.3942575301633948
 30
0.0
 10
-0.2072887862202339
 20
-0.3942518885419992
 30
0.0
 10
-0.2005899778792376
 20
-0.3942358427436065
 30
0.0
 10
-0.1961241929781267
 20
-0.3942251457538524
 30
0.0
  0
SPLINE
  5
118
330
1F
100
AcDbEntity
  8
0
  6
Continuous
 62
     7
370
    25
100
AcDbSpline
210
0.0
220
0.0
230
1.0
 70
     8
 71
     3
 72
    17
 73
    13
 74
     0
 42
0.000000001
 43
0.00000001
 40
0.0
 40
0.0
 40
0.0
 40
0.0
 40
0.0004484989566567
 40
0.0004484989566567
 40
0.0004484989566567
 40
0.0008969972188329
 40
0.0008969972188329
 40
0.0008969972188329
 40
0.0013454869629406
 40
0.0013454869629406
 40
0.0013454869629406
 40
0.0017939952397022
 40
0.0017939952397022
 40
0.0017939952397022
 40
0.0017939952397022
 10
-0.1961241929781266
 20
-0.3942251457538522
 30
0.0
 10
-0.1968532016220989
 20
-0.3884001472938298
 30
0.0
 10
-0.1975603621170895
 20
-0.382572400435061
 30
0.0
 10
-0.1982501265427365
 20
-0.3767421193571744
 30
0.0
 10
-0.1989398902282588
 20
-0.3709118445352431
 30
0.0
 10
-0.1996122679865203
 20
-0.365078966379242
 30
0.0
 10
-0.2002716912809473
 20
-0.3592436635240819
 30
0.0
 10
-0.2009311020469589
 20
-0.3534084715341266
 30
0.0
 10
-0.2015775600262656
 20
-0.3475707978434003
 30
0.0
 10
-0.2022065564106017
 20
-0.3417308120492484
 30
0.0
 10
-0.2028355784827334
 20
-0.3358905877539465
 30
0.0
 10
-0.203447146834702
 20
-0.3300479818445258
 30
0.0
 10
-0.2040367754947083
 20
-0.3242032000278131
 30
0.0
  0
SPLINE
  5
119
330
1F
100
AcDbEntity
  8
0
  6
Continuous
 62
     7
370
    25
100
AcDbSpline
210
0.0
220
0.0
230
1.0
 70
     8
 71
     3
 72
    12
 73
     8
 74
     0
 42
0.000000001
 43
0.00000001
 40
0.0
 40
0.0
 40
0.0
 40
0.0
 40
0.3957352985892205
 40
0.5814928371209567
 40
0.7685911660581466
 40
0.9379346153966551
 40
1.0
 40
1.0
 40
1.0
 40
1.0
 10
-0.2040367755219481
 20
-0.3242032000277345
 30
0.0
 10
-0.2042544609369359
 20
-0.3216269707717312
 30
0.0
 10
-0.2045743275498269
 20
-0.317841463478124
 30
0.0
 10
-0.2039576403371469
 20
-0.3132560936543423
 30
0.0
 10
-0.2029963159568801
 20
-0.310593524139254
 30
0.0
 10
-0.2018152922503024
 20
-0.3093341031159532
 30
0.0
 10
-0.2010575927775132
 20
-0.3091748930519075
 30
0.0
 10
-0.2008543727517633
 20
-0.3091321918564112
 30
0.0
  0
SPLINE
  5
131
330
1F
100
AcDbEntity
  8
0
  6
Continuous
 62
     7
370
    25
100
AcDbSpline
210
0.0
220
0.0
230
1.0
 70
     8
 71
     3
 72
    11
 73
     7
 74
     0
 42
0.000000001
 43
0.00000001
 40
0.0
 40
0.0
 40
0.0
 40
0.0
 40
0.2513438500077665
 40
0.5024708089013176
 40
0.7512481688275837
 40
1.0
 40
1.0
 40
1.0
 40
1.0
 10
-0.2104568817382673
 20
0.1746066374021674
 30
0.0
 10
-0.2103694926072389
 20
0.1762969188958993
 30
0.0
 10
-0.2101947897555255
 20
0.1796760232957091
 30
0.0
 10
-0.2100399390964882
 20
0.1847296553649951
 30
0.0
 10
-0.2103266199328172
 20
0.1896798471539058
 30
0.0
 10
-0.210862278164652
 20
0.1927283790860342
 30
0.0
 10
-0.2111300935379717
 20
0.1942525668403847
 30
0.0
  0
SPLINE
  5
134
330
1F
100
AcDbEntity
  8
0
  6
Continuous
 62
     7
370
    25
100
AcDbSpline
210
0.0
220
0.0
230
1.0
 70
     8
 71
     3
 72
     9
 73
     5
 74
     0
 42
0.000000001
 43
0.00000001
 40
0.0
 40
0.0
 40
0.0
 40
0.0
 40
0.4999415392691678
 40
1.0
 40
1.0
 40
1.0
 40
1.0
 10
-0.2125641217025671
 20
0.1306276733532893
 30
0.0
 10
-0.2122542831383442
 20
0.1379591149038977
 30
0.0
 10
-0.2116345335478707
 20
0.1526237126113131
 30
0.0
 10
-0.2108494628861563
 20
0.1672784246550593
 30
0.0
 10
-0.2104568816594944
 20
0.1746066374021087
 30
0.0
  0
SPLINE
  5
136
330
1F
100
AcDbEntity
  8
0
  6
Continuous
 62
     7
370
    25
100
AcDbSpline
210
0.0
220
0.0
230
1.0
 70
     8
 71
     3
 72
     8
 73
     4
 74
     0
 42
0.000000001
 43
0.00000001
 40
0.0
 40
0.0
 40
0.0
 40
0.0
 40
1.0
 40
1.0
 40
1.0
 40
1.0
 10
-0.2479124813951266
 20
0.1306292054952098
 30
0.0
 10
-0.2361294277693802
 20
0.1306384197966236
 30
0.0
 10
-0.2243466371878561
 20
0.1306379089344301
 30
0.0
 10
-0.2125641217025671
 20
0.1306276733532893
 30
0.0
  0
SPLINE
  5
137
330
1F
100
AcDbEntity
  8
0
  6
Continuous
 62
     7
370
    25
100
AcDbSpline
210
0.0
220
0.0
230
1.0
 70
     8
 71
     3
 72
     9
 73
     5
 74
     0
 42
0.000000001
 43
0.00000001
 40
0.0
 40
0.0
 40
0.0
 40
0.0
 40
0.5000594636671607
 40
1.0
 40
1.0
 40
1.0
 40
1.0
 10
-0.2457157201900759
 20
0.1768307502380198
 30
0.0
 10
-0.2461268307010516
 20
0.1691322436627966
 30
0.0
 10
-0.2469489539500766
 20
0.1537370614203357
 30
0.0
 10
-0.2475913310449233
 20
0.1383312134114399
 30
0.0
 10
-0.2479124813942488
 20
0.1306292054952104
 30
0.0
  0
SPLINE
  5
138
330
1F
100
AcDbEntity
  8
0
  6
Continuous
 62
     7
370
    25
100
AcDbSpline
210
0.0
220
0.0
230
1.0
 70
     8
 71
     3
 72
    11
 73
     7
 74
     0
 42
0.000000001
 43
0.00000001
 40
0.0
 40
0.0
 40
0.0
 40
0.0
 40
0.2506163488496152
 40
0.5008097404170667
 40
0.7504101158633922
 40
1.0
 40
1.0
 40
1.0
 40
1.0
 10
-0.2433040759047743
 20
0.1933258587680914
 30
0.0
 10
-0.243645042599338
 20
0.1920096845868502
 30
0.0
 10
-0.2443264005497637
 20
0.1893795574898881
 30
0.0
 10
-0.2451163778749592
 20
0.1852708335381512
 30
0.0
 10
-0.2455043978486466
 20
0.1810458672877264
 30
0.0
 10
-0.2456452803965594
 20
0.1782357695683034
 30
0.0
 10
-0.2457157201900759
 20
0.1768307502380198
 30
0.0
  0
SPLINE
  5
139
330
1F
100
AcDbEntity
  8
0
  6
Continuous
 62
     7
370
    25
100
AcDbSpline
210
0.0
220
0.0
230
1.0
 70
     8
 71
     3
 72
    13
 73
     9
 74
     0
 42
0.000000001
 43
0.00000001
 40
0.0
 40
0.0
 40
0.0
 40
0.0
 40
0.1253508310542765
 40
0.2502192973776798
 40
0.4998423616154886
 40
0.7496822612003464
 40
0.8742028176202884
 40
1.0
 40
1.0
 40
1.0
 40
1.0
 10
-0.2259928501210439
 20
0.2132708567159685
 30
0.0
 10
-0.2268387801788259
 20
0.213182183597143
 30
0.0
 10
-0.2285273850561021
 20
0.2130051785840753
 30
0.0
 10
-0.2319097449075661
 20
0.2116621939674303
 30
0.0
 10
-0.2359790611853067
 20
0.2081791596454759
 30
0.0
 10
-0.2395555616676565
 20
0.2028932003275134
 30
0.0
 10
-0.2418868091842889
 20
0.1976641857394071
 30
0.0
 10
-0.2428300500524785
 20
0.1947768761038224
 30
0.0
 10
-0.2433040757611345
 20
0.1933258586147859
 30
0.0
  0
SPLINE
  5
13A
330
1F
100
AcDbEntity
  8
0
  6
Continuous
 62
     7
370
    25
100
AcDbSpline
210
0.0
220
0.0
230
1.0
 70
     8
 71
     3
 72
    13
 73
     9
 74
     0
 42
0.000000001
 43
0.00000001
 40
0.0
 40
0.0
 40
0.0
 40
0.0
 40
0.125163513715648
 40
0.2495881126816089
 40
0.4995043454052757
 40
0.7495428017932227
 40
0.8742844450815584
 40
1.0
 40
1.0
 40
1.0
 40
1.0
 10
-0.2111300935379717
 20
0.1942525668403847
 30
0.0
 10
-0.2114458837159078
 20
0.1956521404317783
 30
0.0
 10
-0.2120755997743232
 20
0.1984430250982838
 30
0.0
 10
-0.2138044120806937
 20
0.2034837095245159
 30
0.0
 10
-0.2167281265741713
 20
0.208566564783176
 30
0.0
 10
-0.2203466931796789
 20
0.2118059922487606
 30
0.0
 10
-0.2235231035967583
 20
0.2130375026642514
 30
0.0
 10
-0.2251674698916394
 20
0.2131928706032249
 30
0.0
 10
-0.2259928501271857
 20
0.2132708566495612
 30
0.0
  0
SPLINE
  5
152
330
1F
100
AcDbEntity
  8
0
  6
Continuous
 62
     7
370
    25
100
AcDbSpline
210
0.0
220
0.0
230
1.0
 70
     8
 71
     3
 72
    11
 73
     7
 74
     0
 42
0.000000001
 43
0.00000001
 40
0.0
 40
0.0
 40
0.0
 40
0.0
 40
0.2726279827137947
 40
0.518129493443155
 40
0.7549775615782311
 40
1.0
 40
1.0
 40
1.0
 40
1.0
 10
0.0594147560167525
 20
-0.2561553962163078
 30
0.0
 10
0.0582048552872565
 20
-0.2562296300077025
 30
0.0
 10
0.0559054388962824
 20
-0.2563707113315961
 30
0.0
 10
0.0527096871546716
 20
-0.257509574247392
 30
0.0
 10
0.0500643934315087
 20
-0.2594450595769128
 30
0.0
 10
0.0488081644339129
 20
-0.2611831843178145
 30
0.0
 10
0.0481693947063227
 20
-0.262066989316257
 30
0.0
  0
SPLINE
  5
153
330
1F
100
AcDbEntity
  8
0
  6
Continuous
 62
     7
370
    25
100
AcDbSpline
210
0.0
220
0.0
230
1.0
 70
     8
 71
     3
 72
    13
 73
     9
 74
     0
 42
0.000000001
 43
0.00000001
 40
0.0
 40
0.0
 40
0.0
 40
0.0
 40
0.1508630706639751
 40
0.3283760898765653
 40
0.4421619115163526
 40
0.5876815289303834
 40
0.7777640849160748
 40
1.0
 40
1.0
 40
1.0
 40
1.0
 10
0.0481693947063227
 20
-0.262066989316257
 30
0.0
 10
0.0479603404648271
 20
-0.2625804294006864
 30
0.0
 10
0.0475053025679295
 20
-0.2636980087166104
 30
0.0
 10
0.0472073401371906
 20
-0.2653008440547266
 30
0.0
 10
0.0470225784306661
 20
-0.2668927237737973
 30
0.0
 10
0.0470322354383504
 20
-0.2685430733327151
 30
0.0
 10
0.046889218823489
 20
-0.2705845940734613
 30
0.0
 10
0.0469123703355751
 20
-0.2720970941773138
 30
0.0
 10
0.046924848790544
 20
-0.2729123180109008
 30
0.0
  0
SPLINE
  5
155
330
1F
100
AcDbEntity
  8
0
  6
Continuous
 62
     7
370
    25
100
AcDbSpline
210
0.0
220
0.0
230
1.0
 70
     8
 71
     3
 72
    15
 73
    11
 74
     0
 42
0.000000001
 43
0.00000001
 40
0.0
 40
0.0
 40
0.0
 40
0.0
 40
0.1545619037439643
 40
0.2895271836837276
 40
0.412412160495413
 40
0.5244953586633007
 40
0.6323828335320442
 40
0.7440424840488453
 40
0.8656466718860603
 40
1.0
 40
1.0
 40
1.0
 40
1.0
 10
0.0469692534526478
 20
-0.4462606529778547
 30
0.0
 10
0.0470079006147345
 20
-0.4473901583020053
 30
0.0
 10
0.0470802949352319
 20
-0.4495059610162294
 30
0.0
 10
0.0477149384783636
 20
-0.4524631464564521
 30
0.0
 10
0.0487046148334244
 20
-0.4549963183726499
 30
0.0
 10
0.050169223239776
 20
-0.4570547578446518
 30
0.0
 10
0.0519999483719877
 20
-0.4586757299265917
 30
0.0
 10
0.0542516370055424
 20
-0.4597937610701656
 30
0.0
 10
0.0568728666620713
 20
-0.4604615823539612
 30
0.0
 10
0.0587438200737515
 20
-0.4605340331254352
 30
0.0
 10
0.0597258924956972
 20
-0.4605720628829744
 30
0.0
  0
SPLINE
  5
156
330
1F
100
AcDbEntity
  8
0
  6
Continuous
 62
     7
370
    25
100
AcDbSpline
210
0.0
220
0.0
230
1.0
 70
     8
 71
     3
 72
    15
 73
    11
 74
     0
 42
0.000000001
 43
0.00000001
 40
0.0
 40
0.0
 40
0.0
 40
0.0
 40
0.133156231254253
 40
0.2535403500175308
 40
0.3649778051410162
 40
0.4724161050129266
 40
0.5858857885000643
 40
0.707764977264484
 40
0.8458336656523353
 40
1.0
 40
1.0
 40
1.0
 40
1.0
 10
0.0597258924956972
 20
-0.4605720628829744
 30
0.0
 10
0.0606794310923822
 20
-0.4605547350640227
 30
0.0
 10
0.0624950465335936
 20
-0.4605217414801655
 30
0.0
 10
0.0650254828924002
 20
-0.4598176452388822
 30
0.0
 10
0.0672264730368829
 20
-0.4587678913530506
 30
0.0
 10
0.0690355375602072
 20
-0.4571846877220621
 30
0.0
 10
0.0704024433026234
 20
-0.4551328207323174
 30
0.0
 10
0.0714520761780462
 20
-0.4526671690555453
 30
0.0
 10
0.0720383062642933
 20
-0.4497526121606201
 30
0.0
 10
0.0721545017099338
 20
-0.4476697298455579
 30
0.0
 10
0.0722157997219058
 20
-0.446570921330463
 30
0.0
  0
SPLINE
  5
15A
330
1F
100
AcDbEntity
  8
0
  6
Continuous
 62
     7
370
    25
100
AcDbSpline
210
0.0
220
0.0
230
1.0
 70
     8
 71
     3
 72
    15
 73
    11
 74
     0
 42
0.000000001
 43
0.00000001
 40
0.0
 40
0.0
 40
0.0
 40
0.0
 40
0.164890864657812
 40
0.3093393180354088
 40
0.4376741455787641
 40
0.5516871675527036
 40
0.6573424196488338
 40
0.7670424526503031
 40
0.8782288804182773
 40
0.9999999999999999
 40
0.9999999999999999
 40
0.9999999999999999
 40
0.9999999999999999
 10
0.155782335359182
 20
-0.4512138346024832
 30
0.0
 10
0.1562534908734469
 20
-0.4520326992944361
 30
0.0
 10
0.1571373902075535
 20
-0.4535689095987343
 30
0.0
 10
0.1586327505509588
 20
-0.4555817800758089
 30
0.0
 10
0.1600753224840444
 20
-0.4572718673859099
 30
0.0
 10
0.1616281802453217
 20
-0.4585285265473549
 30
0.0
 10
0.1632330675855675
 20
-0.459543929153808
 30
0.0
 10
0.1650263039148812
 20
-0.4601058769363991
 30
0.0
 10
0.1669409069856896
 20
-0.4605686060051962
 30
0.0
 10
0.1682795249005557
 20
-0.4605708762073077
 30
0.0
 10
0.168979244673707
 20
-0.4605720628829744
 30
0.0
  0
SPLINE
  5
15B
330
1F
100
AcDbEntity
  8
0
  6
Continuous
 62
     7
370
    25
100
AcDbSpline
210
0.0
220
0.0
230
1.0
 70
     8
 71
     3
 72
    15
 73
    11
 74
     0
 42
0.000000001
 43
0.00000001
 40
0.0
 40
0.0
 40
0.0
 40
0.0
 40
0.1387475753277448
 40
0.2671998160993098
 40
0.3930611572693851
 40
0.5191839835021492
 40
0.6401513018623978
 40
0.7578983796469965
 40
0.8750142266158755
 40
1.0
 40
1.0
 40
1.0
 40
1.0
 10
0.168979244673707
 20
-0.4605720628829744
 30
0.0
 10
0.169858290077821
 20
-0.4605318824280281
 30
0.0
 10
0.1715511540415148
 20
-0.4604545029844803
 30
0.0
 10
0.1739612229072009
 20
-0.4597858421418856
 30
0.0
 10
0.1761784814798419
 20
-0.4588226950019455
 30
0.0
 10
0.1781054780721532
 20
-0.4574414770508244
 30
0.0
 10
0.1797580968357202
 20
-0.4558036539413774
 30
0.0
 10
0.1808970910888607
 20
-0.4538465183141303
 30
0.0
 10
0.1817305457092585
 20
-0.4517021442547019
 30
0.0
 10
0.1818219808286778
 20
-0.4501648057825891
 30
0.0
 10
0.1818691845157016
 20
-0.4493711496409653
 30
0.0
  0
SPLINE
  5
15C
330
1F
100
AcDbEntity
  8
0
  6
Continuous
 62
     7
370
    25
100
AcDbSpline
210
0.0
220
0.0
230
1.0
 70
     8
 71
     3
 72
    11
 73
     7
 74
     0
 42
0.000000001
 43
0.00000001
 40
0.0
 40
0.0
 40
0.0
 40
0.0
 40
0.2175182422102161
 40
0.4537410586427674
 40
0.71446748000172
 40
1.0
 40
1.0
 40
1.0
 40
1.0
 10
0.1818691845157016
 20
-0.4493711496409653
 30
0.0
 10
0.1818653841083349
 20
-0.4486573248482782
 30
0.0
 10
0.1818574564934172
 20
-0.4471682928763926
 30
0.0
 10
0.1813140006216155
 20
-0.4448782290305536
 30
0.0
 10
0.1804311514780617
 20
-0.4424678674051124
 30
0.0
 10
0.1795657528459313
 20
-0.4409006804743809
 30
0.0
 10
0.17911340427362
 20
-0.4400815033410451
 30
0.0
  0
SPLINE
  5
160
330
1F
100
AcDbEntity
  8
0
  6
Continuous
 62
     7
370
    25
100
AcDbSpline
210
0.0
220
0.0
230
1.0
 70
     8
 71
     3
 72
     9
 73
     5
 74
     0
 42
0.000000001
 43
0.00000001
 40
0.0
 40
0.0
 40
0.0
 40
0.0
 40
0.6527436340605538
 40
1.0
 40
1.0
 40
1.0
 40
1.0
 10
0.159469094284356
 20
-0.278781199295102
 30
0.0
 10
0.1599517455060293
 20
-0.2784058326948374
 30
0.0
 10
0.1606911647764569
 20
-0.2778307729306699
 30
0.0
 10
0.1613663893012149
 20
-0.2771822841088126
 30
0.0
 10
0.1616008653158755
 20
-0.2769570922371819
 30
0.0
  0
SPLINE
  5
161
330
1F
100
AcDbEntity
  8
0
  6
Continuous
 62
     7
370
    25
100
AcDbSpline
210
0.0
220
0.0
230
1.0
 70
     8
 71
     3
 72
    11
 73
     7
 74
     0
 42
0.000000001
 43
0.00000001
 40
0.0
 40
0.0
 40
0.0
 40
0.0
 40
0.2784405552408767
 40
0.5346860490835212
 40
0.7679193872253743
 40
1.0
 40
1.0
 40
1.0
 40
1.0
 10
0.1616008653158755
 20
-0.2769570922371819
 30
0.0
 10
0.1621906484829408
 20
-0.2763104396865143
 30
0.0
 10
0.163323202004612
 20
-0.2750686805715496
 30
0.0
 10
0.1645243907478084
 20
-0.2729664094434519
 30
0.0
 10
0.165274404882953
 20
-0.2707998828191601
 30
0.0
 10
0.1652848469135493
 20
-0.2693326529296396
 30
0.0
 10
0.1652900549947912
 20
-0.2686008553740957
 30
0.0
  0
SPLINE
  5
162
330
1F
100
AcDbEntity
  8
0
  6
Continuous
 62
     7
370
    25
100
AcDbSpline
210
0.0
220
0.0
230
1.0
 70
     8
 71
     3
 72
    15
 73
    11
 74
     0
 42
0.000000001
 43
0.00000001
 40
0.0
 40
0.0
 40
0.0
 40
0.0
 40
0.13599219470659
 40
0.2627847166919156
 40
0.3856799909318474
 40
0.508513389557765
 40
0.6305395500944003
 40
0.749345899323311
 40
0.871185014626119
 40
1.0
 40
1.0
 40
1.0
 40
1.0
 10
0.1652900549947912
 20
-0.2686008553740957
 30
0.0
 10
0.1652178547842483
 20
-0.2677069352764383
 30
0.0
 10
0.1650783386016207
 20
-0.2659795674659921
 30
0.0
 10
0.1643554968157814
 20
-0.2635258948127439
 30
0.0
 10
0.1631918917335892
 20
-0.2613449865201978
 30
0.0
 10
0.1615669078512313
 20
-0.259524919884729
 30
0.0
 10
0.15965680412745
 20
-0.2580613332357161
 30
0.0
 10
0.1575220427073414
 20
-0.2569697425695725
 30
0.0
 10
0.1551693687854098
 20
-0.2562702149328497
 30
0.0
 10
0.1535163270537207
 20
-0.2561943727017072
 30
0.0
 10
0.1526668035633206
 20
-0.2561553962163078
 30
0.0
  0
SPLINE
  5
163
330
1F
100
AcDbEntity
  8
0
  6
Continuous
 62
     7
370
    25
100
AcDbSpline
210
0.0
220
0.0
230
1.0
 70
     8
 71
     3
 72
    11
 73
     7
 74
     0
 42
0.000000001
 43
0.00000001
 40
0.0
 40
0.0
 40
0.0
 40
0.0
 40
0.2439248325971732
 40
0.4559444737678052
 40
0.6932883210008065
 40
1.0
 40
1.0
 40
1.0
 40
1.0
 10
0.1526668035633206
 20
-0.2561553962163078
 30
0.0
 10
0.151578868763169
 20
-0.2561774811586441
 30
0.0
 10
0.1495453002467235
 20
-0.2562187623488555
 30
0.0
 10
0.1465545967510925
 20
-0.2571102340547715
 30
0.0
 10
0.1436476848135721
 20
-0.2588384824497422
 30
0.0
 10
0.1417692449370478
 20
-0.2603630180293847
 30
0.0
 10
0.1407102731581601
 20
-0.2612224760162643
 30
0.0
  0
SPLINE
  5
166
330
1F
100
AcDbEntity
  8
0
  6
Continuous
 62
     7
370
    25
100
AcDbSpline
210
0.0
220
0.0
230
1.0
 70
     8
 71
     3
 72
    15
 73
    11
 74
     0
 42
0.000000001
 43
0.00000001
 40
0.0
 40
0.0
 40
0.0
 40
0.0
 40
0.1596047894168581
 40
0.3007451521660561
 40
0.4255246092057574
 40
0.5381380892202479
 40
0.6443033462445314
 40
0.7536471339615805
 40
0.8689252368155501
 40
1.0
 40
1.0
 40
1.0
 40
1.0
 10
0.0722157997219058
 20
-0.2716610007096986
 30
0.0
 10
0.0721963370989708
 20
-0.2704294892124767
 30
0.0
 10
0.0721596634532892
 20
-0.2681089378431887
 30
0.0
 10
0.0715079112198126
 20
-0.264886456682207
 30
0.0
 10
0.0705889851066224
 20
-0.2620995015035788
 30
0.0
 10
0.0691181355366157
 20
-0.2598689421560695
 30
0.0
 10
0.0672888805819285
 20
-0.2580893115965308
 30
0.0
 10
0.0650084545297273
 20
-0.2568863257021818
 30
0.0
 10
0.062328076074753
 20
-0.2562075622524297
 30
0.0
 10
0.0604265068985552
 20
-0.2561735126717593
 30
0.0
 10
0.0594147560167525
 20
-0.2561553962163078
 30
0.0
  0
SPLINE
  5
168
330
1F
100
AcDbEntity
  8
0
  6
Continuous
 62
     7
370
    25
100
AcDbSpline
210
0.0
220
0.0
230
1.0
 70
     8
 71
     3
 72
    15
 73
    11
 74
     0
 42
0.000000001
 43
0.00000001
 40
0.0
 40
0.0
 40
0.0
 40
0.0
 40
0.1538397741562928
 40
0.2869478515191043
 40
0.4039416522690038
 40
0.5126006802085143
 40
0.6195006233726507
 40
0.7316047006460082
 40
0.857208543570475
 40
1.0
 40
1.0
 40
1.0
 40
1.0
 10
0.0669472712056013
 20
-0.016110991554204
 30
0.0
 10
0.0653966032122807
 20
-0.0161073000982648
 30
0.0
 10
0.0625042377525478
 20
-0.0161004146529597
 30
0.0
 10
0.0584747871635623
 20
-0.0167978153901902
 30
0.0
 10
0.0550680126089749
 20
-0.0180746751608772
 30
0.0
 10
0.0522937677822623
 20
-0.0200264393829737
 30
0.0
 10
0.0502355159616825
 20
-0.0226611429833043
 30
0.0
 10
0.0488870524547681
 20
-0.0258941642992988
 30
0.0
 10
0.048250840535234
 20
-0.0297022340978788
 30
0.0
 10
0.0483137290707289
 20
-0.0324068302998815
 30
0.0
 10
0.0483471869800054
 20
-0.0338457274477349
 30
0.0
  0
SPLINE
  5
16A
330
1F
100
AcDbEntity
  8
0
  6
Continuous
 62
     7
370
    25
100
AcDbSpline
210
0.0
220
0.0
230
1.0
 70
     8
 71
     3
 72
    11
 73
     7
 74
     0
 42
0.000000001
 43
0.00000001
 40
0.0
 40
0.0
 40
0.0
 40
0.0
 40
0.4280275667162869
 40
0.6975385216904341
 40
0.8636843133875796
 40
1.0
 40
1.0
 40
1.0
 40
1.0
 10
0.0483915916421093
 20
-0.2027664444740812
 30
0.0
 10
0.0483666604702363
 20
-0.2039903173781315
 30
0.0
 10
0.0483260311880951
 20
-0.2059848115710584
 30
0.0
 10
0.0483756540505276
 20
-0.2084527733921903
 30
0.0
 10
0.0484429670360262
 20
-0.2100897100551489
 30
0.0
 10
0.0485914182938591
 20
-0.2109425156202898
 30
0.0
 10
0.0486583234589501
 20
-0.2113268646514749
 30
0.0
  0
SPLINE
  5
16B
330
1F
100
AcDbEntity
  8
0
  6
Continuous
 62
     7
370
    25
100
AcDbSpline
210
0.0
220
0.0
230
1.0
 70
     8
 71
     3
 72
    15
 73
    11
 74
     0
 42
0.000000001
 43
0.00000001
 40
0.0
 40
0.0
 40
0.0
 40
0.0
 40
0.1234864988449322
 40
0.2425894899151643
 40
0.3628250230200667
 40
0.4843542213351598
 40
0.6109533793574694
 40
0.7353092159402241
 40
0.8651338291319145
 40
1.0
 40
1.0
 40
1.0
 40
1.0
 10
0.0486583234589501
 20
-0.2113268646514749
 30
0.0
 10
0.0488213647430897
 20
-0.2120045073979733
 30
0.0
 10
0.0491416596929384
 20
-0.2133357380163439
 30
0.0
 10
0.0501326906479782
 20
-0.2151376492075161
 30
0.0
 10
0.051361678264609
 20
-0.2167649968926597
 30
0.0
 10
0.0529662944116896
 20
-0.2180929848321039
 30
0.0
 10
0.0547489134973685
 20
-0.2192093930345425
 30
0.0
 10
0.0567650487162598
 20
-0.2199548205166739
 30
0.0
 10
0.0589002776312305
 20
-0.2204684964063534
 30
0.0
 10
0.0603894582074546
 20
-0.2205371051279914
 30
0.0
 10
0.0611482306851587
 20
-0.2205720628829745
 30
0.0
  0
SPLINE
  5
16C
330
1F
100
AcDbEntity
  8
0
  6
Continuous
 62
     7
370
    25
100
AcDbSpline
210
0.0
220
0.0
230
1.0
 70
     8
 71
     3
 72
    15
 73
    11
 74
     0
 42
0.000000001
 43
0.00000001
 40
0.0
 40
0.0
 40
0.0
 40
0.0
 40
0.1246464700607912
 40
0.2341896049813503
 40
0.339077405097387
 40
0.4442447530325399
 40
0.5583592797835306
 40
0.6858958118570326
 40
0.8325669156586702
 40
1.0
 40
1.0
 40
1.0
 40
1.0
 10
0.0611482306851587
 20
-0.2205720628829745
 30
0.0
 10
0.0621452049664013
 20
-0.2205722884797299
 30
0.0
 10
0.0640183507762015
 20
-0.2205727123378223
 30
0.0
 10
0.0666644892695696
 20
-0.2198883437517454
 30
0.0
 10
0.068924297751162
 20
-0.2186324850442993
 30
0.0
 10
0.070692954754534
 20
-0.2167017600873638
 30
0.0
 10
0.0720837891685208
 20
-0.2142925575319425
 30
0.0
 10
0.073058438603205
 20
-0.2113323027903337
 30
0.0
 10
0.0735456509901095
 20
-0.2078318702035613
 30
0.0
 10
0.073605979714334
 20
-0.2053277522280002
 30
0.0
 10
0.0736381379113673
 20
-0.2039929333620641
 30
0.0
  0
SPLINE
  5
170
330
1F
100
AcDbEntity
  8
0
  6
Continuous
 62
     7
370
    25
100
AcDbSpline
210
0.0
220
0.0
230
1.0
 70
     8
 71
     3
 72
    13
 73
     9
 74
     0
 42
0.000000001
 43
0.00000001
 40
0.0
 40
0.0
 40
0.0
 40
0.0
 40
0.1678564358952655
 40
0.3147484415234185
 40
0.4441385713284422
 40
0.5550426314074663
 40
0.7638618069168274
 40
1.0
 40
1.0
 40
1.0
 40
1.0
 10
0.1579920207293882
 20
-0.2125005714582082
 30
0.0
 10
0.1584539989681054
 20
-0.2131582323855771
 30
0.0
 10
0.1593202566714721
 20
-0.2143914156760252
 30
0.0
 10
0.1607656630756253
 20
-0.2159562878382457
 30
0.0
 10
0.162137899808238
 20
-0.2172013033286214
 30
0.0
 10
0.1638567409926814
 20
-0.2185017752846308
 30
0.0
 10
0.166419495046876
 20
-0.2194411817309596
 30
0.0
 10
0.1685563749050348
 20
-0.2194830760108132
 30
0.0
 10
0.1696904137684377
 20
-0.2195053092408784
 30
0.0
  0
SPLINE
  5
171
330
1F
100
AcDbEntity
  8
0
  6
Continuous
 62
     7
370
    25
100
AcDbSpline
210
0.0
220
0.0
230
1.0
 70
     8
 71
     3
 72
    15
 73
    11
 74
     0
 42
0.000000001
 43
0.00000001
 40
0.0
 40
0.0
 40
0.0
 40
0.0
 40
0.1357252870786826
 40
0.2612902942558801
 40
0.3841015717537353
 40
0.5061057565382182
 40
0.6289170340360739
 40
0.7478511745957057
 40
0.8709920367921861
 40
1.0
 40
1.0
 40
1.0
 40
1.0
 10
0.1696904137684377
 20
-0.2195053092408784
 30
0.0
 10
0.170582808511907
 20
-0.2194438027767584
 30
0.0
 10
0.1723007940850621
 20
-0.2193253941702676
 30
0.0
 10
0.1747701482275856
 20
-0.2187036634591317
 30
0.0
 10
0.1769741590370943
 20
-0.2176206869771858
 30
0.0
 10
0.1789021340948964
 20
-0.2161356207544694
 30
0.0
 10
0.180503552042738
 20
-0.2143307520943366
 30
0.0
 10
0.181678506787275
 20
-0.212221522114023
 30
0.0
 10
0.1824767325505188
 20
-0.2098858739052821
 30
0.0
 10
0.1825746855659276
 20
-0.2082221861301467
 30
0.0
 10
0.182624801678853
 20
-0.2073709865620351
 30
0.0
  0
SPLINE
  5
172
330
1F
100
AcDbEntity
  8
0
  6
Continuous
 62
     7
370
    25
100
AcDbSpline
210
0.0
220
0.0
230
1.0
 70
     8
 71
     3
 72
    11
 73
     7
 74
     0
 42
0.000000001
 43
0.00000001
 40
0.0
 40
0.0
 40
0.0
 40
0.0
 40
0.2263142444953346
 40
0.4653287259187958
 40
0.7196342636552416
 40
1.0
 40
1.0
 40
1.0
 40
1.0
 10
0.182624801678853
 20
-0.2073709865620351
 30
0.0
 10
0.1825900304238724
 20
-0.2066863213526537
 30
0.0
 10
0.1825185366307405
 20
-0.2052785690908692
 30
0.0
 10
0.1819275651496595
 20
-0.2031628261246015
 30
0.0
 10
0.1808182666961866
 20
-0.2010854884951368
 30
0.0
 10
0.1798164955720895
 20
-0.1998145410153567
 30
0.0
 10
0.1792911965473027
 20
-0.199148093904211
 30
0.0
  0
SPLINE
  5
173
330
1F
100
AcDbEntity
  8
0
  6
Continuous
 62
     7
370
    25
100
AcDbSpline
210
0.0
220
0.0
230
1.0
 70
     8
 71
     3
 72
     9
 73
     5
 74
     0
 42
0.000000001
 43
0.00000001
 40
0.0
 40
0.0
 40
0.0
 40
0.0
 40
0.6178392415834733
 40
1.0
 40
1.0
 40
1.0
 40
1.0
 10
0.1792911965473027
 20
-0.199148093904211
 30
0.0
 10
0.1790087189912637
 20
-0.1988638282362271
 30
0.0
 10
0.178551516636627
 20
-0.1984037317437232
 30
0.0
 10
0.1782184020304722
 20
-0.1978488960191918
 30
0.0
 10
0.1780910986999445
 20
-0.1976368595779081
 30
0.0
  0
SPLINE
  5
175
330
1F
100
AcDbEntity
  8
0
  6
Continuous
 62
     7
370
    25
100
AcDbSpline
210
0.0
220
0.0
230
1.0
 70
     8
 71
     3
 72
    23
 73
    19
 74
     0
 42
0.000000001
 43
0.00000001
 40
0.0
 40
0.0
 40
0.0
 40
0.0
 40
0.0667139937950337
 40
0.1316857483590781
 40
0.1945684719415862
 40
0.2562757970989515
 40
0.316621955984855
 40
0.3771860338577485
 40
0.4375873201840934
 40
0.4987324983712135
 40
0.5596140205583954
 40
0.6202421777335402
 40
0.6810074201541885
 40
0.7417384202731033
 40
0.8037349738276909
 40
0.8672583892943749
 40
0.932515529409711
 40
1.0
 40
1.0
 40
1.0
 40
1.0
 10
0.1321047538175935
 20
-0.1343301789086787
 30
0.0
 10
0.1339430947460814
 20
-0.1339481826832881
 30
0.0
 10
0.137571768239244
 20
-0.1331941660827314
 30
0.0
 10
0.1428130766886753
 20
-0.1315854361426275
 30
0.0
 10
0.1477727027372615
 20
-0.1296160330740015
 30
0.0
 10
0.1524601583536304
 20
-0.1273368941744608
 30
0.0
 10
0.1567956070693696
 20
-0.1245653637729395
 30
0.0
 10
0.160892918853672
 20
-0.1215193777526022
 30
0.0
 10
0.1646998957511126
 20
-0.1180769673550449
 30
0.0
 10
0.1681427009345615
 20
-0.1142598812130363
 30
0.0
 10
0.1712476321995256
 20
-0.1101606592891535
 30
0.0
 10
0.1740455960829586
 20
-0.1058526968084948
 30
0.0
 10
0.1763236029585556
 20
-0.1012548552199356
 30
0.0
 10
0.1782848206703556
 20
-0.0964715760220509
 30
0.0
 10
0.1797096869814647
 20
-0.091421108912693
 30
0.0
 10
0.1808500358437173
 20
-0.0861725986292517
 30
0.0
 10
0.1815115135191337
 20
-0.0806807616443295
 30
0.0
 10
0.1816307656727638
 20
-0.0769471941930484
 30
0.0
 10
0.1816913922420189
 20
-0.0750490868736971
 30
0.0
  0
SPLINE
  5
176
330
1F
100
AcDbEntity
  8
0
  6
Continuous
 62
     7
370
    25
100
AcDbSpline
210
0.0
220
0.0
230
1.0
 70
     8
 71
     3
 72
    23
 73
    19
 74
     0
 42
0.000000001
 43
0.00000001
 40
0.0
 40
0.0
 40
0.0
 40
0.0
 40
0.0669726605572716
 40
0.1307981735149447
 40
0.1925162031708156
 40
0.2527371710785535
 40
0.3119187250924236
 40
0.3705084126044297
 40
0.4296199026761051
 40
0.489932552635147
 40
0.5504351752471965
 40
0.6107883324584454
 40
0.671641190254322
 40
0.7332023495860218
 40
0.7960413295656663
 40
0.8614991273875529
 40
0.929371678614344
 40
1.0
 40
1.0
 40
1.0
 40
1.0
 10
0.1816913922420189
 20
-0.0750490868736971
 30
0.0
 10
0.181594983710179
 20
-0.0728977131225176
 30
0.0
 10
0.1814066970306446
 20
-0.0686960619582842
 30
0.0
 10
0.1805074932735133
 20
-0.0625632081654921
 30
0.0
 10
0.1790945198450425
 20
-0.0567522652806849
 30
0.0
 10
0.1771192428143871
 20
-0.051266606968233
 30
0.0
 10
0.1746883853460149
 20
-0.0460763797221064
 30
0.0
 10
0.1716743323240751
 20
-0.04124130846458
 30
0.0
 10
0.1681432924731588
 20
-0.0367258599634161
 30
0.0
 10
0.1641018060732954
 20
-0.0325764905385127
 30
0.0
 10
0.1596680088587287
 20
-0.0287881422442557
 30
0.0
 10
0.1548391485449929
 20
-0.0254835950146072
 30
0.0
 10
0.1496651991556132
 20
-0.0226810211806565
 30
0.0
 10
0.1441703124375097
 20
-0.0203686830599451
 30
0.0
 10
0.1383456898640242
 20
-0.0185113081877827
 30
0.0
 10
0.1321549790221578
 20
-0.0172777398030221
 30
0.0
 10
0.1256518643753472
 20
-0.0163923007500661
 30
0.0
 10
0.12120062352223
 20
-0.016235404986141
 30
0.0
 10
0.1189307196320312
 20
-0.0161553962163078
 30
0.0
  0
SPLINE
  5
177
330
1F
100
AcDbEntity
  8
0
  6
Continuous
 62
     7
370
    25
100
AcDbSpline
210
0.0
220
0.0
230
1.0
 70
     8
 71
     3
 72
    15
 73
    11
 74
     0
 42
0.000000001
 43
0.00000001
 40
0.0
 40
0.0
 40
0.0
 40
0.0
 40
0.1344060078708927
 40
0.2638120058765043
 40
0.3887407466933403
 40
0.5140812511210885
 40
0.6361098563480269
 40
0.7564162187431138
 40
0.8741466855408462
 40
1.0
 40
1.0
 40
1.0
 40
1.0
 10
0.1838693475946317
 20
0.0194279371170256
 30
0.0
 10
0.184748591279303
 20
0.0194670642081143
 30
0.0
 10
0.186474370087719
 20
0.0195438628315371
 30
0.0
 10
0.1889305656645117
 20
0.0202523122971433
 30
0.0
 10
0.1912001574118656
 20
0.0212696230274974
 30
0.0
 10
0.1931936245592447
 20
0.0226891509792114
 30
0.0
 10
0.1948591882260154
 20
0.0244370434716366
 30
0.0
 10
0.1961186718382864
 20
0.0264404892885142
 30
0.0
 10
0.1969153741724713
 20
0.0287067446542566
 30
0.0
 10
0.1970469105878614
 20
0.0302964304131737
 30
0.0
 10
0.1971148719839918
 20
0.0311177791116621
 30
0.0
  0
SPLINE
  5
178
330
1F
100
AcDbEntity
  8
0
  6
Continuous
 62
     7
370
    25
100
AcDbSpline
210
0.0
220
0.0
230
1.0
 70
     8
 71
     3
 72
    11
 73
     7
 74
     0
 42
0.000000001
 43
0.00000001
 40
0.0
 40
0.0
 40
0.0
 40
0.0
 40
0.2259973653552219
 40
0.4914178103424988
 40
0.766255807423689
 40
0.9999999999999999
 40
0.9999999999999999
 40
0.9999999999999999
 40
0.9999999999999999
 10
0.1971148719839918
 20
0.0311177791116621
 30
0.0
 10
0.1970765348323029
 20
0.0316517842190593
 30
0.0
 10
0.1969931729793534
 20
0.0328129465192319
 30
0.0
 10
0.1967280296976534
 20
0.0346096223528105
 30
0.0
 10
0.1963625685530183
 20
0.0364077704505665
 30
0.0
 10
0.1960253236877457
 20
0.0375644954550929
 30
0.0
 10
0.1958703260682129
 20
0.0380961258537075
 30
0.0
  0
SPLINE
  5
17A
330
1F
100
AcDbEntity
  8
0
  6
Continuous
 62
     7
370
    25
100
AcDbSpline
210
0.0
220
0.0
230
1.0
 70
     8
 71
     3
 72
    15
 73
    11
 74
     0
 42
0.000000001
 43
0.00000001
 40
0.0
 40
0.0
 40
0.0
 40
0.0
 40
0.1781998879284536
 40
0.3300285590339161
 40
0.4591110899080703
 40
0.5663002335293298
 40
0.6645954331075121
 40
0.76728966611673
 40
0.8782395036019853
 40
1.0
 40
1.0
 40
1.0
 40
1.0
 10
0.1295277641944814
 20
0.211358169062829
 30
0.0
 10
0.1290676183208612
 20
0.2125069459864279
 30
0.0
 10
0.128215422051932
 20
0.2146344961053087
 30
0.0
 10
0.126742165968831
 20
0.2174639135906415
 30
0.0
 10
0.1252653234163662
 20
0.2197295825915242
 30
0.0
 10
0.1236458156609509
 20
0.2214096423471059
 30
0.0
 10
0.1218815222271903
 20
0.222657666358463
 30
0.0
 10
0.119820473304383
 20
0.2233742732329417
 30
0.0
 10
0.1175303851446738
 20
0.2238452709260475
 30
0.0
 10
0.1159110294567797
 20
0.2238448329466513
 30
0.0
 10
0.1150637376794328
 20
0.2238446037836923
 30
0.0
  0
SPLINE
  5
17B
330
1F
100
AcDbEntity
  8
0
  6
Continuous
 62
     7
370
    25
100
AcDbSpline
210
0.0
220
0.0
230
1.0
 70
     8
 71
     3
 72
    15
 73
    11
 74
     0
 42
0.000000001
 43
0.00000001
 40
0.0
 40
0.0
 40
0.0
 40
0.0
 40
0.1216002929970015
 40
0.2347606342451532
 40
0.3462223565233997
 40
0.4589381746132772
 40
0.5779793461888875
 40
0.7068748154684552
 40
0.8471118305041435
 40
1.0
 40
1.0
 40
1.0
 40
1.0
 10
0.1150637376794328
 20
0.2238446037836922
 30
0.0
 10
0.1143661913869033
 20
0.2238718037247158
 30
0.0
 10
0.1130195136280462
 20
0.2239243157314613
 30
0.0
 10
0.1110531250775968
 20
0.2235532207005777
 30
0.0
 10
0.1092551523829814
 20
0.2228225177785134
 30
0.0
 10
0.1075723172191026
 20
0.2217856195574279
 30
0.0
 10
0.1060512317627844
 20
0.2203724731634723
 30
0.0
 10
0.1046645660844873
 20
0.2186244411277928
 30
0.0
 10
0.1034762780368643
 20
0.2165097724774701
 30
0.0
 10
0.1028247553674725
 20
0.2149621391300809
 30
0.0
 10
0.1024849343163829
 20
0.2141549248679859
 30
0.0
  0
SPLINE
  5
17D
330
1F
100
AcDbEntity
  8
0
  6
Continuous
 62
     7
370
    25
100
AcDbSpline
210
0.0
220
0.0
230
1.0
 70
     8
 71
     3
 72
    13
 73
     9
 74
     0
 42
0.000000001
 43
0.00000001
 40
0.0
 40
0.0
 40
0.0
 40
0.0
 40
0.2201574650444142
 40
0.3948704206595414
 40
0.5414347305840338
 40
0.6494679524864616
 40
0.8266080253759188
 40
1.0
 40
1.0
 40
1.0
 40
1.0
 10
0.0367443312442703
 20
0.0402245545988321
 30
0.0
 10
0.0364947285797133
 20
0.0395739068435133
 30
0.0
 10
0.0360470457853486
 20
0.0384069168766181
 30
0.0
 10
0.0354115856611912
 20
0.0368125387159002
 30
0.0
 10
0.035062483890674
 20
0.0354967661003892
 30
0.0
 10
0.0346173310778931
 20
0.0342048689750399
 30
0.0
 10
0.0342906774914334
 20
0.0327797799250439
 30
0.0
 10
0.0342682454051527
 20
0.0316678161221495
 30
0.0
 10
0.0342571492906526
 20
0.0311177791116621
 30
0.0
  0
SPLINE
  5
17E
330
1F
100
AcDbEntity
  8
0
  6
Continuous
 62
     7
370
    25
100
AcDbSpline
210
0.0
220
0.0
230
1.0
 70
     8
 71
     3
 72
    15
 73
    11
 74
     0
 42
0.000000001
 43
0.00000001
 40
0.0
 40
0.0
 40
0.0
 40
0.0
 40
0.1279876097140704
 40
0.2499040100471738
 40
0.3681802914750499
 40
0.4900966918081533
 40
0.6153219460618415
 40
0.7392052043567031
 40
0.8657175780032225
 40
1.0
 40
1.0
 40
1.0
 40
1.0
 10
0.0342571492906526
 20
0.0311177791116621
 30
0.0
 10
0.034328485338702
 20
0.0302831424865166
 30
0.0
 10
0.0344677735440861
 20
0.0286534609882678
 30
0.0
 10
0.0352185466935418
 20
0.0263357043723497
 30
0.0
 10
0.0365300078654886
 20
0.024343168179203
 30
0.0
 10
0.0381773522867299
 20
0.0226017267936373
 30
0.0
 10
0.0401620814010625
 20
0.021173796542578
 30
0.0
 10
0.0424335269637274
 20
0.0202155382874734
 30
0.0
 10
0.0448724993149156
 20
0.0195492716240763
 30
0.0
 10
0.0465793655451662
 20
0.0194691773879171
 30
0.0
 10
0.047458225611592
 20
0.0194279371170256
 30
0.0
  0
SPLINE
  5
17F
330
1F
100
AcDbEntity
  8
0
  6
Continuous
 62
     7
370
    25
100
AcDbSpline
210
0.0
220
0.0
230
1.0
 70
     8
 71
     3
 72
    15
 73
    11
 74
     0
 42
0.000000001
 43
0.00000001
 40
0.0
 40
0.0
 40
0.0
 40
0.0
 40
0.130337653524418
 40
0.2521818771313022
 40
0.370625980328032
 40
0.488415777278323
 40
0.6040932882368578
 40
0.7271098404906545
 40
0.8580391085812459
 40
1.0
 40
1.0
 40
1.0
 40
1.0
 10
0.047458225611592
 20
0.0194279371170256
 30
0.0
 10
0.0481716668569364
 20
0.0194324345760015
 30
0.0
 10
0.0495520580762716
 20
0.0194411364178423
 30
0.0
 10
0.0515432845182791
 20
0.0198687866310052
 30
0.0
 10
0.0533853541091043
 20
0.0205378700496483
 30
0.0
 10
0.0550836940196098
 20
0.0214590957630872
 30
0.0
 10
0.0565938933340631
 20
0.022706444767384
 30
0.0
 10
0.057914677756899
 20
0.0242392971447694
 30
0.0
 10
0.0591478140676259
 20
0.0260262850935806
 30
0.0
 10
0.0597619801345187
 20
0.0273872956556858
 30
0.0
 10
0.0600814770430626
 20
0.0280953104590564
 30
0.0
  0
SPLINE
  5
183
330
1F
100
AcDbEntity
  8
0
  6
Continuous
 62
     7
370
    25
100
AcDbSpline
210
0.0
220
0.0
230
1.0
 70
     8
 71
     3
 72
    15
 73
    11
 74
     0
 42
0.000000001
 43
0.00000001
 40
0.0
 40
0.0
 40
0.0
 40
0.0
 40
0.1557121442176002
 40
0.2949328366069289
 40
0.4237078341076649
 40
0.5425197150050877
 40
0.656477864622597
 40
0.7676761924709586
 40
0.8797180089769456
 40
1.0
 40
1.0
 40
1.0
 40
1.0
 10
0.1710038021026883
 20
0.0296127952949809
 30
0.0
 10
0.1713422255045119
 20
0.028754554539922
 30
0.0
 10
0.1719832299321082
 20
0.0271289691904103
 30
0.0
 10
0.1732728155025007
 20
0.024973651807815
 30
0.0
 10
0.1746134702004229
 20
0.0231075544714174
 30
0.0
 10
0.1762176671171742
 20
0.0216744579769092
 30
0.0
 10
0.177911334145226
 20
0.0205354672322304
 30
0.0
 10
0.1797636064738889
 20
0.0197536421420482
 30
0.0
 10
0.1817818021088881
 20
0.0194060037831537
 30
0.0
 10
0.1831572375601187
 20
0.0194204551496878
 30
0.0
 10
0.1838693475946317
 20
0.0194279371170256
 30
0.0
  0
SPLINE
  5
184
330
1F
100
AcDbEntity
  8
0
  6
Continuous
 62
     7
370
    25
100
AcDbSpline
210
0.0
220
0.0
230
1.0
 70
     8
 71
     3
 72
    23
 73
    19
 74
     0
 42
0.000000001
 43
0.00000001
 40
0.0
 40
0.0
 40
0.0
 40
0.0
 40
0.0638118262970237
 40
0.1262026479472275
 40
0.1877498210510109
 40
0.2484134960690925
 40
0.3086975063334607
 40
0.3691767772855745
 40
0.4306205202887193
 40
0.4930958251484425
 40
0.5558412063521768
 40
0.6175519987402547
 40
0.6795812326159122
 40
0.7416479698105863
 40
0.8042349153319213
 40
0.8679226342317976
 40
0.9330745191579237
 40
1.0
 40
1.0
 40
1.0
 40
1.0
 10
0.136532154726617
 20
0.3462350147425964
 30
0.0
 10
0.1381694093083262
 20
0.3466849503835502
 30
0.0
 10
0.1414074589860404
 20
0.3475748021961261
 30
0.0
 10
0.1460938695098312
 20
0.3493206784446193
 30
0.0
 10
0.1505463058157474
 20
0.3514034776921339
 30
0.0
 10
0.1547458697234065
 20
0.3538536892741626
 30
0.0
 10
0.1586633197194498
 20
0.3566815729431543
 30
0.0
 10
0.1623780753454986
 20
0.3598015229475811
 30
0.0
 10
0.1658524444305585
 20
0.3632731772715881
 30
0.0
 10
0.1690385062920233
 20
0.3670896575809808
 30
0.0
 10
0.1719013733052153
 20
0.3711603051683249
 30
0.0
 10
0.1744694347463936
 20
0.3754098536760075
 30
0.0
 10
0.1766469465434782
 20
0.3798540299262698
 30
0.0
 10
0.1784334699866743
 20
0.3844941907784824
 30
0.0
 10
0.1798049607948379
 20
0.3893190441893674
 30
0.0
 10
0.1808208379479433
 20
0.3943114723243953
 30
0.0
 10
0.1815172029285568
 20
0.3994797929476375
 30
0.0
 10
0.1816328116550596
 20
0.402992952772967
 30
0.0
 10
0.1816913922420189
 20
0.4047731208526203
 30
0.0
  0
SPLINE
  5
185
330
1F
100
AcDbEntity
  8
0
  6
Continuous
 62
     7
370
    25
100
AcDbSpline
210
0.0
220
0.0
230
1.0
 70
     8
 71
     3
 72
    23
 73
    19
 74
     0
 42
0.000000001
 43
0.00000001
 40
0.0
 40
0.0
 40
0.0
 40
0.0
 40
0.0663872966863695
 40
0.1306801614875676
 40
0.1942877611556687
 40
0.256551601828902
 40
0.3187042128448235
 40
0.3803350979006485
 40
0.441900456340666
 40
0.5043369270648552
 40
0.5668349358196766
 40
0.6274945019701549
 40
0.6884354205116945
 40
0.7496406987510151
 40
0.8105437579483281
 40
0.8725353515667432
 40
0.9357549855094965
 40
1.0
 40
1.0
 40
1.0
 40
1.0
 10
0.1816913922420189
 20
0.4047731208526203
 30
0.0
 10
0.1816612804517891
 20
0.4063605027240671
 30
0.0
 10
0.1816020068587024
 20
0.4094851866569451
 30
0.0
 10
0.1810100578427713
 20
0.4140950569621046
 30
0.0
 10
0.1802674084444303
 20
0.418582959229601
 30
0.0
 10
0.1790534381004171
 20
0.4229138777769665
 30
0.0
 10
0.1776837844352885
 20
0.4271484713949862
 30
0.0
 10
0.1758573535086011
 20
0.4311898969583871
 30
0.0
 10
0.1738326862202057
 20
0.4351408644124909
 30
0.0
 10
0.1714169074725657
 20
0.4388929515637693
 30
0.0
 10
0.1687852667700192
 20
0.4424666710209743
 30
0.0
 10
0.1659040887689224
 20
0.4457968865204821
 30
0.0
 10
0.162797794498756
 20
0.4488768256219155
 30
0.0
 10
0.1594117971399359
 20
0.4516525291409864
 30
0.0
 10
0.1558398685999393
 20
0.454229768668136
 30
0.0
 10
0.1519922383531831
 20
0.4564676551846467
 30
0.0
 10
0.1479672235039112
 20
0.4585536727432217
 30
0.0
 10
0.145122232440808
 20
0.459648197420519
 30
0.0
 10
0.143688293742345
 20
0.4601998621731972
 30
0.0
  0
SPLINE
  5
186
330
1F
100
AcDbEntity
  8
0
  6
Continuous
 62
     7
370
    25
100
AcDbSpline
210
0.0
220
0.0
230
1.0
 70
     8
 71
     3
 72
    11
 73
     7
 74
     0
 42
0.000000001
 43
0.00000001
 40
0.0
 40
0.0
 40
0.0
 40
0.0
 40
0.2334290350187156
 40
0.4612017918254663
 40
0.7082461103565549
 40
0.9999999999999999
 40
0.9999999999999999
 40
0.9999999999999999
 40
0.9999999999999999
 10
0.143688293742345
 20
0.4601998621731972
 30
0.0
 10
0.1418172283606468
 20
0.4608145893515357
 30
0.0
 10
0.1381204358575518
 20
0.4620291480978835
 30
0.0
 10
0.1322533614688626
 20
0.4632306380269564
 30
0.0
 10
0.1258012458939103
 20
0.4637666442117442
 30
0.0
 10
0.1212576743733563
 20
0.463817218375347
 30
0.0
 10
0.1187973754267692
 20
0.4638446037836922
 30
0.0
  0
SPLINE
  5
188
330
1F
100
AcDbEntity
  8
0
  6
Continuous
 62
     7
370
    25
100
AcDbSpline
210
0.0
220
0.0
230
1.0
 70
     8
 71
     3
 72
    15
 73
    11
 74
     0
 42
0.000000001
 43
0.00000001
 40
0.0
 40
0.0
 40
0.0
 40
0.0
 40
0.1663662504156616
 40
0.305006043361266
 40
0.4212580690190748
 40
0.5194852313426714
 40
0.6145604974838149
 40
0.7220854161361759
 40
0.8491580203397175
 40
0.9999999999999999
 40
0.9999999999999999
 40
0.9999999999999999
 40
0.9999999999999999
 10
0.0687724200151252
 20
0.4638890084457962
 30
0.0
 10
0.0669407330874747
 20
0.4639039025928471
 30
0.0
 10
0.0635826266140561
 20
0.4639312086410984
 30
0.0
 10
0.0589649162587858
 20
0.4633490219367004
 30
0.0
 10
0.0552277120750014
 20
0.4622044882796175
 30
0.0
 10
0.0522775074128406
 20
0.4603744409179661
 30
0.0
 10
0.0502813154520418
 20
0.4576561269726745
 30
0.0
 10
0.04895651014903
 20
0.4542496820511717
 30
0.0
 10
0.0482850304463456
 20
0.450031980455589
 30
0.0
 10
0.0483253195256415
 20
0.4469710963729157
 30
0.0
 10
0.0483471869800054
 20
0.4453097592522724
 30
0.0
  0
SPLINE
  5
18A
330
1F
100
AcDbEntity
  8
0
  6
Continuous
 62
     7
370
    25
100
AcDbSpline
210
0.0
220
0.0
230
1.0
 70
     8
 71
     3
 72
    15
 73
    11
 74
     0
 42
0.000000001
 43
0.00000001
 40
0.0
 40
0.0
 40
0.0
 40
0.0
 40
0.1540190797258081
 40
0.2914096929076364
 40
0.412808563629375
 40
0.52359887696875
 40
0.6318332388967246
 40
0.7438519050253897
 40
0.8653532076630217
 40
1.0
 40
1.0
 40
1.0
 40
1.0
 10
0.0483915916421093
 20
0.2735832579068713
 30
0.0
 10
0.0484326968418118
 20
0.272461787050388
 30
0.0
 10
0.0485104693726148
 20
0.2703399234574198
 30
0.0
 10
0.0491225203760505
 20
0.2673846802585628
 30
0.0
 10
0.0501260810231282
 20
0.2648658203830723
 30
0.0
 10
0.0516059279708731
 20
0.2628518294886715
 30
0.0
 10
0.0534215951392535
 20
0.2612369982412585
 30
0.0
 10
0.0556678859779031
 20
0.2601080267465636
 30
0.0
 10
0.058300945411482
 20
0.2594991920182197
 30
0.0
 10
0.0601672101001499
 20
0.2594524877040358
 30
0.0
 10
0.0611482306851587
 20
0.2594279371170257
 30
0.0
  0
SPLINE
  5
18B
330
1F
100
AcDbEntity
  8
0
  6
Continuous
 62
     7
370
    25
100
AcDbSpline
210
0.0
220
0.0
230
1.0
 70
     8
 71
     3
 72
    15
 73
    11
 74
     0
 42
0.000000001
 43
0.00000001
 40
0.0
 40
0.0
 40
0.0
 40
0.0
 40
0.1341577216856232
 40
0.2490053166426185
 40
0.3527829253710268
 40
0.4515346022265839
 40
0.5580037838415138
 40
0.6832857302993861
 40
0.8281578322636647
 40
1.0
 40
1.0
 40
1.0
 40
1.0
 10
0.0611482306851587
 20
0.2594279371170257
 30
0.0
 10
0.0622050353875361
 20
0.2594427712833477
 30
0.0
 10
0.0641665325435592
 20
0.2594703044453286
 30
0.0
 10
0.0668742554511861
 20
0.2601598640359322
 30
0.0
 10
0.0691379865302793
 20
0.2612586585904071
 30
0.0
 10
0.0709386888986245
 20
0.2629536499745732
 30
0.0
 10
0.0721674303645001
 20
0.265270618765475
 30
0.0
 10
0.0731096450834476
 20
0.2680880453830016
 30
0.0
 10
0.0735366580085844
 20
0.2715502412685048
 30
0.0
 10
0.0736024439256993
 20
0.2740360491989488
 30
0.0
 10
0.0736381379113673
 20
0.2753847936800466
 30
0.0
  0
SPLINE
  5
18E
330
1F
100
AcDbEntity
  8
0
  6
Continuous
 62
     7
370
    25
100
AcDbSpline
210
0.0
220
0.0
230
1.0
 70
     8
 71
     3
 72
    11
 73
     7
 74
     0
 42
0.000000001
 43
0.00000001
 40
0.0
 40
0.0
 40
0.0
 40
0.0
 40
0.3185102691512377
 40
0.5687022095676725
 40
0.7877338283329028
 40
1.0
 40
1.0
 40
1.0
 40
1.0
 10
0.1172458600384602
 20
0.3447681850783975
 30
0.0
 10
0.1193042629299512
 20
0.344766040408698
 30
0.0
 10
0.1229795550192484
 20
0.3447622110866476
 30
0.0
 10
0.1280655280373688
 20
0.3449817878940462
 30
0.0
 10
0.132455836828908
 20
0.3453987874138578
 30
0.0
 10
0.1351876661511192
 20
0.3459592025713621
 30
0.0
 10
0.136532154726617
 20
0.3462350147425964
 30
0.0
  0
SPLINE
  5
190
330
1F
100
AcDbEntity
  8
0
  6
Continuous
 62
     7
370
    25
100
AcDbSpline
210
0.0
220
0.0
230
1.0
 70
     8
 71
     3
 72
    23
 73
    19
 74
     0
 42
0.000000001
 43
0.00000001
 40
0.0
 40
0.0
 40
0.0
 40
0.0
 40
0.0752246644574185
 40
0.1470095528146552
 40
0.2148980185979574
 40
0.2802581113384527
 40
0.3431380551008505
 40
0.4038884375429064
 40
0.4639268959021211
 40
0.5224199784840584
 40
0.5804886066902667
 40
0.6371869783853407
 40
0.694458989008623
 40
0.751777259284554
 40
0.8102703418664913
 40
0.8703921291462509
 40
0.9338872782331646
 40
1.0
 40
1.0
 40
1.0
 40
1.0
 10
0.1178688274974186
 20
0.4386424621765381
 30
0.0
 10
0.1193202622521631
 20
0.4385848365796972
 30
0.0
 10
0.122156762431641
 20
0.4384722204147282
 30
0.0
 10
0.1262849752544738
 20
0.4380324929370004
 30
0.0
 10
0.1301887944092343
 20
0.437342348903465
 30
0.0
 10
0.1338300395138951
 20
0.4362899056769328
 30
0.0
 10
0.1372774082621068
 20
0.4350814903305188
 30
0.0
 10
0.1404641362128932
 20
0.4335047129160252
 30
0.0
 10
0.1433816828347189
 20
0.4316342132119307
 30
0.0
 10
0.1460832638315397
 20
0.4295432396662586
 30
0.0
 10
0.1484639066257002
 20
0.4271850704217138
 30
0.0
 10
0.1506023523787742
 20
0.4246331857531885
 30
0.0
 10
0.152355416666311
 20
0.4218207688953988
 30
0.0
 10
0.1538624619990441
 20
0.4188289421073061
 30
0.0
 10
0.1549339813173107
 20
0.4155984622191911
 30
0.0
 10
0.1558230687408801
 20
0.4121919405192114
 30
0.0
 10
0.156276473964098
 20
0.4085478569408093
 30
0.0
 10
0.1563880001099276
 20
0.4060481940240237
 30
0.0
 10
0.1564448893790777
 20
0.4047731208526203
 30
0.0
  0
SPLINE
  5
191
330
1F
100
AcDbEntity
  8
0
  6
Continuous
 62
     7
370
    25
100
AcDbSpline
210
0.0
220
0.0
230
1.0
 70
     8
 71
     3
 72
    23
 73
    19
 74
     0
 42
0.000000001
 43
0.00000001
 40
0.0
 40
0.0
 40
0.0
 40
0.0
 40
0.0674067192217258
 40
0.1321446330764575
 40
0.1949625361332088
 40
0.2553402116802128
 40
0.3141458973484428
 40
0.3727899785042594
 40
0.4314758066531935
 40
0.491241943726914
 40
0.5511615505484785
 40
0.6108456757316636
 40
0.6710507127141706
 40
0.7320839739890624
 40
0.7951936026230496
 40
0.8608844587391323
 40
0.9287257724589607
 40
1.0
 40
1.0
 40
1.0
 40
1.0
 10
0.1564448893790777
 20
0.4047731208526203
 30
0.0
 10
0.1563887922054311
 20
0.403497838389769
 30
0.0
 10
0.1562788188895104
 20
0.4009977651764741
 30
0.0
 10
0.1558106695570781
 20
0.3973280143736954
 30
0.0
 10
0.1549456286526639
 20
0.3938704830354439
 30
0.0
 10
0.1538511255553492
 20
0.3905977035170387
 30
0.0
 10
0.1524115753303409
 20
0.3875438781204728
 30
0.0
 10
0.1506590929077333
 20
0.384702254594573
 30
0.0
 10
0.1486715979065334
 20
0.3819908282183287
 30
0.0
 10
0.1462913157337723
 20
0.379583727437143
 30
0.0
 10
0.1437349462868704
 20
0.3773417486455132
 30
0.0
 10
0.1409129812420789
 20
0.3754195664079308
 30
0.0
 10
0.137872042275269
 20
0.3738307854099218
 30
0.0
 10
0.1346479465667667
 20
0.3724811041077437
 30
0.0
 10
0.1312081816355961
 20
0.37142001622542
 30
0.0
 10
0.1275679911584771
 20
0.3706202234671993
 30
0.0
 10
0.1237151411085585
 20
0.3701198318983664
 30
0.0
 10
0.1210805744243061
 20
0.3700503365037841
 30
0.0
 10
0.1197307848636033
 20
0.3700147313476555
 30
0.0
  0
SPLINE
  5
198
330
1F
100
AcDbEntity
  8
0
  6
Continuous
 62
     7
370
    25
100
AcDbSpline
210
0.0
220
0.0
230
1.0
 70
     8
 71
     3
 72
    11
 73
     7
 74
     0
 42
0.000000001
 43
0.00000001
 40
0.0
 40
0.0
 40
0.0
 40
0.0
 40
0.3149808380173548
 40
0.5657015968165795
 40
0.7821370058841375
 40
0.9999999999999999
 40
0.9999999999999999
 40
0.9999999999999999
 40
0.9999999999999999
 10
0.119911181516295
 20
-0.041357537823462
 30
0.0
 10
0.1216887734833744
 20
-0.0413948977464396
 30
0.0
 10
0.1248813061485193
 20
-0.041461995695059
 30
0.0
 10
0.1292881011142001
 20
-0.0418474335021059
 30
0.0
 10
0.1330644033675902
 20
-0.0427724600058457
 30
0.0
 10
0.1353145080712111
 20
-0.0437541280249964
 30
0.0
 10
0.1364432585897757
 20
-0.044246575458172
 30
0.0
  0
SPLINE
  5
19B
330
1F
100
AcDbEntity
  8
0
  6
Continuous
 62
     7
370
    25
100
AcDbSpline
210
0.0
220
0.0
230
1.0
 70
     8
 71
     3
 72
    13
 73
     9
 74
     0
 42
0.000000001
 43
0.00000001
 40
0.0
 40
0.0
 40
0.0
 40
0.0
 40
0.2115453512701899
 40
0.4247623046662494
 40
0.5400767939723626
 40
0.6745899185053102
 40
0.828574518900373
 40
1.0
 40
1.0
 40
1.0
 40
1.0
 10
0.1373766680266098
 20
-0.1065183193155323
 30
0.0
 10
0.1360913313794167
 20
-0.1071438386934546
 30
0.0
 10
0.1335105015325041
 20
-0.1083998202169642
 30
0.0
 10
0.1299449341488706
 20
-0.109263302944781
 30
0.0
 10
0.1268495626070882
 20
-0.1096647080940255
 30
0.0
 10
0.1241343527484561
 20
-0.1098753146418346
 30
0.0
 10
0.121036062711074
 20
-0.1100181301703609
 30
0.0
 10
0.1188420014705481
 20
-0.1099966070144904
 30
0.0
 10
0.1176861737162524
 20
-0.1099852686523446
 30
0.0
  0
SPLINE
  5
19C
330
1F
100
AcDbEntity
  8
0
  6
Continuous
 62
     7
370
    25
100
AcDbSpline
210
0.0
220
0.0
230
1.0
 70
     8
 71
     3
 72
    15
 73
    11
 74
     0
 42
0.000000001
 43
0.00000001
 40
0.0
 40
0.0
 40
0.0
 40
0.0
 40
0.1297809010012758
 40
0.2549080330966562
 40
0.3788390320939827
 40
0.5039448096142275
 40
0.6290345688107452
 40
0.7508344785005241
 40
0.8741224336816765
 40
1.0
 40
1.0
 40
1.0
 40
1.0
 10
0.1564448893790777
 20
-0.0753602233526418
 30
0.0
 10
0.1563733124551508
 20
-0.0770247163765415
 30
0.0
 10
0.156232725259712
 20
-0.0802940159387415
 30
0.0
 10
0.1552162082140882
 20
-0.0850650855543005
 30
0.0
 10
0.1536078064636515
 20
-0.0895972464917219
 30
0.0
 10
0.1513835984152115
 20
-0.0938628909966431
 30
0.0
 10
0.1486095806049784
 20
-0.0977658698014427
 30
0.0
 10
0.1452862871907893
 20
-0.1011662475376028
 30
0.0
 10
0.1416147415172722
 20
-0.1042249994110955
 30
0.0
 10
0.1387991135914297
 20
-0.1057486010145244
 30
0.0
 10
0.1373766680266098
 20
-0.1065183193155323
 30
0.0
  0
SPLINE
  5
19D
330
1F
100
AcDbEntity
  8
0
  6
Continuous
 62
     7
370
    25
100
AcDbSpline
210
0.0
220
0.0
230
1.0
 70
     8
 71
     3
 72
    15
 73
    11
 74
     0
 42
0.000000001
 43
0.00000001
 40
0.0
 40
0.0
 40
0.0
 40
0.0
 40
0.1259037249115403
 40
0.2496035485353494
 40
0.3728357558867917
 40
0.4981300240653151
 40
0.6240337489768554
 40
0.7473554132875759
 40
0.872016432425943
 40
1.0
 40
1.0
 40
1.0
 40
1.0
 10
0.1364432585897757
 20
-0.044246575458172
 30
0.0
 10
0.137904945887964
 20
-0.0449903571508482
 30
0.0
 10
0.1408027341522365
 20
-0.0464649008941573
 30
0.0
 10
0.144699114140882
 20
-0.049397776391816
 30
0.0
 10
0.1480947745287765
 20
-0.052866429627287
 30
0.0
 10
0.1510435700104292
 20
-0.0567645490439116
 30
0.0
 10
0.1533611829084853
 20
-0.0610661630867802
 30
0.0
 10
0.1551570847933835
 20
-0.0656016430459533
 30
0.0
 10
0.1561776663996159
 20
-0.0704118649851035
 30
0.0
 10
0.1563550375121988
 20
-0.073696372293858
 30
0.0
 10
0.1564448893790777
 20
-0.0753602233526418
 30
0.0
  0
LINE
  5
19E
330
1F
100
AcDbEntity
  8
0
  6
Continuous
 62
     7
370
    25
100
AcDbLine
 10
-0.1908792596
 20
-0.0400048151
 30
0.0
 11
-0.1873801423
 21
-0.0400048151
 31
0.0
  0
LINE
  5
19F
330
1F
100
AcDbEntity
  8
0
  6
Continuous
 62
     7
370
    25
100
AcDbLine
 10
-0.1780385951
 20
0.3829401218
 30
0.0
 11
-0.1815849922
 21
0.3829401218
 31
0.0
  0
LINE
  5
1A0
330
1F
100
AcDbEntity
  8
0
  6
Continuous
 62
     7
370
    25
100
AcDbLine
 10
-0.2369829089
 20
-0.0400031095
 30
0.0
 11
-0.233529741
 21
-0.0400031095
 31
0.0
  0
LINE
  5
1A1
330
1F
100
AcDbEntity
  8
0
  6
Continuous
 62
     7
370
    25
100
AcDbLine
 10
-0.2212440867
 20
-0.3942570173
 30
0.0
 11
-0.2176959455
 21
-0.3942570173
 31
0.0
  0
LINE
  5
1A2
330
1F
100
AcDbEntity
  8
0
  6
Continuous
 62
     7
370
    25
100
AcDbLine
 10
0.0
 20
-0.8125
 30
0.0
 11
-0.0660478093
 21
-0.8125000008
 31
0.0
  0
LINE
  5
1A3
330
1F
100
AcDbEntity
  8
0
  6
Continuous
 62
     7
370
    25
100
AcDbLine
 10
-0.0404039213
 20
-0.65625
 30
0.0
 11
0.0
 21
-0.65625
 31
0.0
  0
LINE
  5
1A4
330
1F
100
AcDbEntity
  8
0
  6
Continuous
 62
     7
370
    25
100
AcDbLine
 10
0.0
 20
0.8125
 30
0.0
 11
0.0
 21
-0.8125
 31
0.0
  0
LINE
  5
1A5
330
1F
100
AcDbEntity
  8
0
  6
Continuous
 62
     7
370
    25
100
AcDbLine
 10
-0.0404039213
 20
0.65625
 30
0.0
 11
0.0
 21
0.65625
 31
0.0
  0
LINE
  5
1A6
330
1F
100
AcDbEntity
  8
0
  6
Continuous
 62
     7
370
    25
100
AcDbLine
 10
-0.0660478137
 20
0.8125
 30
0.0
 11
0.0
 21
0.8125
 31
0.0
  0
LINE
  5
1A7
330
1F
100
AcDbEntity
  8
0
  6
Continuous
 62
     7
370
    25
100
AcDbLine
 10
-0.1657266434
 20
0.1054035352
 30
0.0
 11
-0.252724783
 21
0.1053612734
 31
0.0
  0
LINE
  5
1A8
330
1F
100
AcDbEntity
  8
0
  6
Continuous
 62
     7
370
    25
100
AcDbLine
 10
-0.2503027617
 20
-0.0400018419
 30
0.0
 11
-0.223772754
 21
-0.0400018627
 31
0.0
  0
LINE
  5
1A9
330
1F
100
AcDbEntity
  8
0
  6
Continuous
 62
     7
370
    25
100
AcDbLine
 10
-0.1662709815
 20
-0.065243501
 30
0.0
 11
-0.2544434353
 21
-0.0652881874
 31
0.0
  0
LINE
  5
1AA
330
1F
100
AcDbEntity
  8
0
  6
Continuous
 62
     7
370
    25
100
AcDbLine
 10
-0.1569340805
 20
-0.2497909155
 30
0.0
 11
-0.2453478004
 21
-0.2498612311
 31
0.0
  0
LINE
  5
1AB
330
1F
100
AcDbEntity
  8
0
  6
Continuous
 62
     7
370
    25
100
AcDbLine
 10
-0.2243539882
 20
-0.2246577009
 30
0.0
 11
-0.1550177249
 21
-0.2246433903
 31
0.0
  0
LINE
  5
1AC
330
1F
100
AcDbEntity
  8
0
  6
Continuous
 62
     7
370
    25
100
AcDbLine
 10
-0.1604130245
 20
-0.1221012028
 30
0.0
 11
-0.2298977375
 21
-0.1221034019
 31
0.0
  0
LINE
  5
1AD
330
1F
100
AcDbEntity
  8
0
  6
Continuous
 62
     7
370
    25
100
AcDbLine
 10
-0.2552187408
 20
-0.0968772401
 30
0.0
 11
-0.1640429941
 21
-0.0969202152
 31
0.0
  0
LINE
  5
1AE
330
1F
100
AcDbEntity
  8
0
  6
Continuous
 62
     7
370
    25
100
AcDbLine
 10
-0.1387325389
 20
-0.419113066
 30
0.0
 11
-0.2279086668
 21
-0.4192809872
 31
0.0
  0
LINE
  5
1AF
330
1F
100
AcDbEntity
  8
0
  6
Continuous
 62
     7
370
    25
100
AcDbLine
 10
-0.1865493517
 20
-0.3942100826
 30
0.0
 11
-0.1464310213
 21
-0.3941624674
 31
0.0
  0
LINE
  5
1B0
330
1F
100
AcDbEntity
  8
0
  6
Continuous
 62
     7
370
    25
100
AcDbLine
 10
-0.1627709948
 20
-0.065243501
 30
0.0
 11
-0.1662709815
 21
-0.065243501
 31
0.0
  0
LINE
  5
1B1
330
1F
100
AcDbEntity
  8
0
  6
Continuous
 62
     7
370
    25
100
AcDbLine
 10
-0.183000356
 20
-0.3942100826
 30
0.0
 11
-0.142880244
 21
-0.3941624673
 31
0.0
  0
LINE
  5
1B2
330
1F
100
AcDbEntity
  8
0
  6
Continuous
 62
     7
370
    25
100
AcDbLine
 10
-0.1632017738
 20
0.1054035352
 30
0.0
 11
-0.1657266434
 21
0.1054035352
 31
0.0
  0
LINE
  5
1B3
330
1F
100
AcDbEntity
  8
0
  6
Continuous
 62
     7
370
    25
100
AcDbLine
 10
-0.1666746284
 20
0.0662652613
 30
0.0
 11
-0.1701746548
 21
0.0662652613
 31
0.0
  0
LINE
  5
1B4
330
1F
100
AcDbEntity
  8
0
  6
Continuous
 62
     7
370
    25
100
AcDbLine
 10
-0.1351746149
 20
-0.419113066
 30
0.0
 11
-0.1387325389
 21
-0.419113066
 31
0.0
  0
LINE
  5
1B5
330
1F
100
AcDbEntity
  8
0
  6
Continuous
 62
     7
370
    25
100
AcDbLine
 10
-0.1569522243
 20
0.2360248049
 30
0.0
 11
-0.1604693696
 21
0.2360248049
 31
0.0
  0
LINE
  5
1B6
330
1F
100
AcDbEntity
  8
0
  6
Continuous
 62
     7
370
    25
100
AcDbLine
 10
-0.1540005402
 20
-0.288753387
 30
0.0
 11
-0.1575269466
 21
-0.288753387
 31
0.0
  0
LINE
  5
1B7
330
1F
100
AcDbEntity
  8
0
  6
Continuous
 62
     7
370
    25
100
AcDbLine
 10
-0.1672974946
 20
0.0579557255
 30
0.0
 11
-0.1707971784
 21
0.0579557255
 31
0.0
  0
LINE
  5
1B8
330
1F
100
AcDbEntity
  8
0
  6
Continuous
 62
     7
370
    25
100
AcDbLine
 10
-0.167579265
 20
-0.0400019014
 30
0.0
 11
-0.1710783661
 21
-0.0400019014
 31
0.0
  0
LINE
  5
1B9
330
1F
100
AcDbEntity
  8
0
  6
Continuous
 62
     7
370
    25
100
AcDbLine
 10
-0.1578231565
 20
0.2348295606
 30
0.0
 11
-0.1613401008
 21
0.2348295606
 31
0.0
  0
LINE
  5
1BA
330
1F
100
AcDbEntity
  8
0
  6
Continuous
 62
     7
370
    25
100
AcDbLine
 10
-0.1935699436
 20
0.1889917073
 30
0.0
 11
-0.1970800632
 21
0.1889917073
 31
0.0
  0
LINE
  5
1BB
330
1F
100
AcDbEntity
  8
0
  6
Continuous
 62
     7
370
    25
100
AcDbLine
 10
-0.1536829369
 20
-0.2970158946
 30
0.0
 11
-0.1572109605
 21
-0.2970158946
 31
0.0
  0
LINE
  5
1BC
330
1F
100
AcDbEntity
  8
0
  6
Continuous
 62
     7
370
    25
100
AcDbLine
 10
-0.142880244
 20
-0.3941624673
 30
0.0
 11
-0.1464310094
 21
-0.3941624673
 31
0.0
  0
LINE
  5
1BD
330
1F
100
AcDbEntity
  8
0
  6
Continuous
 62
     7
370
    25
100
AcDbLine
 10
-0.1605645182
 20
0.3168921124
 30
0.0
 11
-0.1640963962
 21
0.3168921124
 31
0.0
  0
LINE
  5
1BE
330
1F
100
AcDbEntity
  8
0
  6
Continuous
 62
     7
370
    25
100
AcDbLine
 10
-0.1480103173
 20
0.3514195284
 30
0.0
 11
-0.1515502538
 21
0.3514195284
 31
0.0
  0
LINE
  5
1BF
330
1F
100
AcDbEntity
  8
0
  6
Continuous
 62
     7
370
    25
100
AcDbLine
 10
-0.1529449226
 20
0.3795676071
 30
0.0
 11
-0.1564914973
 21
0.3795676071
 31
0.0
  0
LINE
  5
1C0
330
1F
100
AcDbEntity
  8
0
  6
Continuous
 62
     7
370
    25
100
AcDbLine
 10
-0.183000356
 20
-0.3942100826
 30
0.0
 11
-0.1865493517
 21
-0.3942100826
 31
0.0
  0
LINE
  5
1C1
330
1F
100
AcDbEntity
  8
0
  6
Continuous
 62
     7
370
    25
100
AcDbLine
 10
-0.1938263557
 20
0.2950919895
 30
0.0
 11
-0.197353009
 21
0.2950919895
 31
0.0
  0
LINE
  5
1C2
330
1F
100
AcDbEntity
  8
0
  6
Continuous
 62
     7
370
    25
100
AcDbLine
 10
-0.1618670566
 20
0.3829221027
 30
0.0
 11
-0.1654141006
 21
0.3829221027
 31
0.0
  0
LINE
  5
1C3
330
1F
100
AcDbEntity
  8
0
  6
Continuous
 62
     7
370
    25
100
AcDbLine
 10
-0.2385127788
 20
0.3117713485
 30
0.0
 11
-0.2420415159
 21
0.3117713485
 31
0.0
  0
LINE
  5
1C4
330
1F
100
AcDbEntity
  8
0
  6
Continuous
 62
     7
370
    25
100
AcDbLine
 10
-0.2473991132
 20
-0.2258621406
 30
0.0
 11
-0.2509134305
 21
-0.2258621406
 31
0.0
  0
LINE
  5
1C5
330
1F
100
AcDbEntity
  8
0
  6
Continuous
 62
     7
370
    25
100
AcDbLine
 10
-0.2056541048
 20
-0.1734109333
 30
0.0
 11
-0.209162301
 21
-0.1734109333
 31
0.0
  0
LINE
  5
1C6
330
1F
100
AcDbEntity
  8
0
  6
Continuous
 62
     7
370
    25
100
AcDbLine
 10
-0.2536232638
 20
-0.1209052315
 30
0.0
 11
-0.2571263307
 21
-0.1209052315
 31
0.0
  0
LINE
  5
1C7
330
1F
100
AcDbEntity
  8
0
  6
Continuous
 62
     7
370
    25
100
AcDbLine
 10
-0.2076194691
 20
0.1942525668
 30
0.0
 11
-0.2111300935
 21
0.1942525668
 31
0.0
  0
LINE
  5
1C8
330
1F
100
AcDbEntity
  8
0
  6
Continuous
 62
     7
370
    25
100
AcDbLine
 10
-0.2069485633
 20
0.1746065115
 30
0.0
 11
-0.2104568817
 21
0.1746065115
 31
0.0
  0
LINE
  5
1C9
330
1F
100
AcDbEntity
  8
0
  6
Continuous
 62
     7
370
    25
100
AcDbLine
 10
-0.2090601016
 20
0.1306276734
 30
0.0
 11
-0.2125641217
 21
0.1306276734
 31
0.0
  0
LINE
  5
1CA
330
1F
100
AcDbEntity
  8
0
  6
Continuous
 62
     7
370
    25
100
AcDbLine
 10
-0.2203773383
 20
0.0306240907
 30
0.0
 11
-0.2238762063
 21
0.0306240907
 31
0.0
  0
LINE
  5
1CB
330
1F
100
AcDbEntity
  8
0
  6
Continuous
 62
     7
370
    25
100
AcDbLine
 10
-0.1905363395
 20
0.3915789191
 30
0.0
 11
-0.1940843487
 21
0.3915789191
 31
0.0
  0
LINE
  5
1CC
330
1F
100
AcDbEntity
  8
0
  6
Continuous
 62
     7
370
    25
100
AcDbLine
 10
-0.1945474286
 20
0.3520759312
 30
0.0
 11
-0.1980858827
 21
0.3520759312
 31
0.0
  0
LINE
  5
1CD
330
1F
100
AcDbEntity
  8
0
  6
Continuous
 62
     7
370
    25
100
AcDbLine
 10
-0.2224799377
 20
0.2132708555
 30
0.0
 11
-0.2259928501
 21
0.2132708555
 31
0.0
  0
LINE
  5
1CE
330
1F
100
AcDbEntity
  8
0
  6
Continuous
 62
     7
370
    25
100
AcDbLine
 10
-0.2040367755
 20
-0.3242032268
 30
0.0
 11
-0.2075689206
 21
-0.3242032268
 31
0.0
  0
LINE
  5
1CF
330
1F
100
AcDbEntity
  8
0
  6
Continuous
 62
     7
370
    25
100
AcDbLine
 10
-0.2202736677
 20
-0.0400018627
 30
0.0
 11
-0.2237727453
 21
-0.0400018627
 31
0.0
  0
LINE
  5
1D0
330
1F
100
AcDbEntity
  8
0
  6
Continuous
 62
     7
370
    25
100
AcDbLine
 10
-0.1940430954
 20
0.3620840364
 30
0.0
 11
-0.1975838536
 21
0.3620840364
 31
0.0
  0
LINE
  5
1D1
330
1F
100
AcDbEntity
  8
0
  6
Continuous
 62
     7
370
    25
100
AcDbLine
 10
-0.196124193
 20
-0.3942251458
 30
0.0
 11
-0.1996726292
 21
-0.3942251458
 31
0.0
  0
LINE
  5
1D2
330
1F
100
AcDbEntity
  8
0
  6
Continuous
 62
     7
370
    25
100
AcDbLine
 10
-0.2552762135
 20
0.1758535376
 30
0.0
 11
-0.2587842755
 21
0.1758535376
 31
0.0
  0
LINE
  5
1D3
330
1F
100
AcDbEntity
  8
0
  6
Continuous
 62
     7
370
    25
100
AcDbLine
 10
-0.2233671605
 20
0.3996238147
 30
0.0
 11
-0.2269157913
 21
0.3996238147
 31
0.0
  0
LINE
  5
1D4
330
1F
100
AcDbEntity
  8
0
  6
Continuous
 62
     7
370
    25
100
AcDbLine
 10
-0.2596782154
 20
-0.0485167787
 30
0.0
 11
-0.2631775072
 21
-0.0485167787
 31
0.0
  0
LINE
  5
1D5
330
1F
100
AcDbEntity
  8
0
  6
Continuous
 62
     7
370
    25
100
AcDbLine
 10
-0.2576743857
 20
0.1239458427
 30
0.0
 11
-0.2611776654
 21
0.1239458427
 31
0.0
  0
LINE
  5
1D6
330
1F
100
AcDbEntity
  8
0
  6
Continuous
 62
     7
370
    25
100
AcDbLine
 10
-0.2595281542
 20
0.0576895829
 30
0.0
 11
-0.2630277443
 21
0.0576895829
 31
0.0
  0
LINE
  5
1D7
330
1F
100
AcDbEntity
  8
0
  6
Continuous
 62
     7
370
    25
100
AcDbLine
 10
-0.2582197099
 20
-0.1087368965
 30
0.0
 11
-0.2617219039
 21
-0.1087368965
 31
0.0
  0
LINE
  5
1D8
330
1F
100
AcDbEntity
  8
0
  6
Continuous
 62
     7
370
    25
100
AcDbLine
 10
-0.2510637053
 20
-0.236978379
 30
0.0
 11
-0.2545795536
 21
-0.236978379
 31
0.0
  0
LINE
  5
1D9
330
1F
100
AcDbEntity
  8
0
  6
Continuous
 62
     7
370
    25
100
AcDbLine
 10
-0.2411052812
 20
0.3503050278
 30
0.0
 11
-0.2446418105
 21
0.3503050278
 31
0.0
  0
LINE
  5
1DA
330
1F
100
AcDbEntity
  8
0
  6
Continuous
 62
     7
370
    25
100
AcDbLine
 10
-0.2464077746
 20
-0.2973267807
 30
0.0
 11
-0.2499336106
 21
-0.2973267807
 31
0.0
  0
LINE
  5
1DB
330
1F
100
AcDbEntity
  8
0
  6
Continuous
 62
     7
370
    25
100
AcDbLine
 10
-0.2350012237
 20
-0.402698822
 30
0.0
 11
-0.2385501271
 21
-0.402698822
 31
0.0
  0
LINE
  5
1DC
330
1F
100
AcDbEntity
  8
0
  6
Continuous
 62
     7
370
    25
100
AcDbLine
 10
0.0469248488
 20
-0.272912318
 30
0.0
 11
0.0469692535
 21
-0.446260653
 31
0.0
  0
LINE
  5
1DD
330
1F
100
AcDbEntity
  8
0
  6
Continuous
 62
     7
370
    25
100
AcDbLine
 10
0.0722157997
 20
-0.4465709213
 30
0.0
 11
0.0722157997
 21
-0.3673193208
 31
0.0
  0
LINE
  5
1DE
330
1F
100
AcDbEntity
  8
0
  6
Continuous
 62
     7
370
    25
100
AcDbLine
 10
0.0722157997
 20
-0.3673193208
 30
0.0
 11
0.0992520318
 21
-0.339767248
 31
0.0
  0
LINE
  5
1DF
330
1F
100
AcDbEntity
  8
0
  6
Continuous
 62
     7
370
    25
100
AcDbLine
 10
0.0992520318
 20
-0.339767248
 30
0.0
 11
0.1557823354
 21
-0.4512138346
 31
0.0
  0
LINE
  5
1E0
330
1F
100
AcDbEntity
  8
0
  6
Continuous
 62
     7
370
    25
100
AcDbLine
 10
0.1791134043
 20
-0.4400815033
 30
0.0
 11
0.1179930564
 21
-0.3205736693
 31
0.0
  0
LINE
  5
1E1
330
1F
100
AcDbEntity
  8
0
  6
Continuous
 62
     7
370
    25
100
AcDbLine
 10
0.1179930564
 20
-0.3205736693
 30
0.0
 11
0.1594690943
 21
-0.2787811993
 31
0.0
  0
LINE
  5
1E2
330
1F
100
AcDbEntity
  8
0
  6
Continuous
 62
     7
370
    25
100
AcDbLine
 10
0.1407102732
 20
-0.261222476
 30
0.0
 11
0.0722157997
 21
-0.3304800325
 31
0.0
  0
LINE
  5
1E3
330
1F
100
AcDbEntity
  8
0
  6
Continuous
 62
     7
370
    25
100
AcDbLine
 10
0.0722157997
 20
-0.3304800325
 30
0.0
 11
0.0722157997
 21
-0.2716610007
 31
0.0
  0
LINE
  5
1E4
330
1F
100
AcDbEntity
  8
0
  6
Continuous
 62
     7
370
    25
100
AcDbLine
 10
0.1189307196
 20
-0.0161553962
 30
0.0
 11
0.0669472712
 21
-0.0161109916
 31
0.0
  0
LINE
  5
1E5
330
1F
100
AcDbEntity
  8
0
  6
Continuous
 62
     7
370
    25
100
AcDbLine
 10
0.048347187
 20
-0.0338457274
 30
0.0
 11
0.0483915916
 21
-0.2027664445
 31
0.0
  0
LINE
  5
1E6
330
1F
100
AcDbEntity
  8
0
  6
Continuous
 62
     7
370
    25
100
AcDbLine
 10
0.0736381379
 20
-0.2039929334
 30
0.0
 11
0.0736381379
 21
-0.1352318149
 31
0.0
  0
LINE
  5
1E7
330
1F
100
AcDbEntity
  8
0
  6
Continuous
 62
     7
370
    25
100
AcDbLine
 10
0.0736381379
 20
-0.1352318149
 30
0.0
 11
0.1008391838
 21
-0.1352318149
 31
0.0
  0
LINE
  5
1E8
330
1F
100
AcDbEntity
  8
0
  6
Continuous
 62
     7
370
    25
100
AcDbLine
 10
0.1008391838
 20
-0.1352318149
 30
0.0
 11
0.1579920207
 21
-0.2125005715
 31
0.0
  0
LINE
  5
1E9
330
1F
100
AcDbEntity
  8
0
  6
Continuous
 62
     7
370
    25
100
AcDbLine
 10
0.1780910987
 20
-0.1976368596
 30
0.0
 11
0.1321047538
 21
-0.1343301789
 31
0.0
  0
LINE
  5
1EA
330
1F
100
AcDbEntity
  8
0
  6
Continuous
 62
     7
370
    25
100
AcDbLine
 10
0.1958703261
 20
0.0380961259
 30
0.0
 11
0.1295277642
 21
0.2113581691
 31
0.0
  0
LINE
  5
1EB
330
1F
100
AcDbEntity
  8
0
  6
Continuous
 62
     7
370
    25
100
AcDbLine
 10
0.1024849343
 20
0.2141549249
 30
0.0
 11
0.0367443312
 21
0.0402245546
 31
0.0
  0
LINE
  5
1EC
330
1F
100
AcDbEntity
  8
0
  6
Continuous
 62
     7
370
    25
100
AcDbLine
 10
0.060081477
 20
0.0280953105
 30
0.0
 11
0.0699251616
 21
0.0535640103
 31
0.0
  0
LINE
  5
1ED
330
1F
100
AcDbEntity
  8
0
  6
Continuous
 62
     7
370
    25
100
AcDbLine
 10
0.0699251616
 20
0.0535640103
 30
0.0
 11
0.1620941347
 21
0.0535640103
 31
0.0
  0
LINE
  5
1EE
330
1F
100
AcDbEntity
  8
0
  6
Continuous
 62
     7
370
    25
100
AcDbLine
 10
0.1620941347
 20
0.0535640103
 30
0.0
 11
0.1710038021
 21
0.0296127953
 31
0.0
  0
LINE
  5
1EF
330
1F
100
AcDbEntity
  8
0
  6
Continuous
 62
     7
370
    25
100
AcDbLine
 10
0.1187973754
 20
0.4638446038
 30
0.0
 11
0.06877242
 21
0.4638890084
 31
0.0
  0
LINE
  5
1F0
330
1F
100
AcDbEntity
  8
0
  6
Continuous
 62
     7
370
    25
100
AcDbLine
 10
0.048347187
 20
0.4453097593
 30
0.0
 11
0.0483915916
 21
0.2735832579
 31
0.0
  0
LINE
  5
1F1
330
1F
100
AcDbEntity
  8
0
  6
Continuous
 62
     7
370
    25
100
AcDbLine
 10
0.0736381379
 20
0.2753847937
 30
0.0
 11
0.0736381379
 21
0.3447681851
 31
0.0
  0
LINE
  5
1F2
330
1F
100
AcDbEntity
  8
0
  6
Continuous
 62
     7
370
    25
100
AcDbLine
 10
0.0736381379
 20
0.3447681851
 30
0.0
 11
0.11724586
 21
0.3447681851
 31
0.0
  0
LINE
  5
1F3
330
1F
100
AcDbEntity
  8
0
  6
Continuous
 62
     7
370
    25
100
AcDbLine
 10
0.0736381379
 20
0.4386424622
 30
0.0
 11
0.1178688275
 21
0.4386424622
 31
0.0
  0
LINE
  5
1F4
330
1F
100
AcDbEntity
  8
0
  6
Continuous
 62
     7
370
    25
100
AcDbLine
 10
0.1197307849
 20
0.3700147313
 30
0.0
 11
0.0736381379
 21
0.3700147313
 31
0.0
  0
LINE
  5
1F5
330
1F
100
AcDbEntity
  8
0
  6
Continuous
 62
     7
370
    25
100
AcDbLine
 10
0.0736381379
 20
0.3700147313
 30
0.0
 11
0.0736381379
 21
0.4386424622
 31
0.0
  0
LINE
  5
1F6
330
1F
100
AcDbEntity
  8
0
  6
Continuous
 62
     7
370
    25
100
AcDbLine
 10
0.1157024182
 20
0.1747825307
 30
0.0
 11
0.1519555477
 21
0.0788105565
 31
0.0
  0
LINE
  5
1F7
330
1F
100
AcDbEntity
  8
0
  6
Continuous
 62
     7
370
    25
100
AcDbLine
 10
0.0794492888
 20
0.0788105565
 30
0.0
 11
0.1157024182
 21
0.1747825307
 31
0.0
  0
LINE
  5
1F8
330
1F
100
AcDbEntity
  8
0
  6
Continuous
 62
     7
370
    25
100
AcDbLine
 10
0.1519555477
 20
0.0788105565
 30
0.0
 11
0.0794492888
 21
0.0788105565
 31
0.0
  0
LINE
  5
1F9
330
1F
100
AcDbEntity
  8
0
  6
Continuous
 62
     7
370
    25
100
AcDbLine
 10
0.0736381379
 20
-0.1099852687
 30
0.0
 11
0.0736381379
 21
-0.0413575378
 31
0.0
  0
LINE
  5
1FA
330
1F
100
AcDbEntity
  8
0
  6
Continuous
 62
     7
370
    25
100
AcDbLine
 10
0.0736381379
 20
-0.0413575378
 30
0.0
 11
0.1199111815
 21
-0.0413575378
 31
0.0
  0
LINE
  5
1FB
330
1F
100
AcDbEntity
  8
0
  6
Continuous
 62
     7
370
    25
100
AcDbLine
 10
0.1176861737
 20
-0.1099852687
 30
0.0
 11
0.0736381379
 21
-0.1099852687
 31
0.0
  0
ARC
  5
1FC
330
1F
100
AcDbEntity
  8
0
  6
Continuous
 62
     7
370
    25
100
AcDbCircle
 10
2.7409942607
 20
-1.1929648726
 30
0.0
 40
2.832708721649405
100
AcDbArc
 50
169.0781124186
 51
172.2812007464
  0
ARC
  5
1FD
330
1F
100
AcDbEntity
  8
0
  6
Continuous
 62
     7
370
    25
100
AcDbCircle
 10
2.1287692308
 20
0.0
 30
0.0
 40
2.266269230769209
100
AcDbArc
 50
163.1676161494
 51
196.8323838506
  0
ARC
  5
1FE
330
1F
100
AcDbEntity
  8
0
  6
Continuous
 62
     7
370
    25
100
AcDbCircle
 10
2.7409942609
 20
1.1929648727
 30
0.0
 40
2.832708721877012
100
AcDbArc
 50
187.7187991849
 51
190.9218875813
  0
ARC
  5
1FF
330
1F
100
AcDbEntity
  8
0
  6
Continuous
 62
     7
370
    25
100
AcDbCircle
 10
2.1287692308
 20
0.0
 30
0.0
 40
2.416269230769182
100
AcDbArc
 50
158.2916395922
 51
201.7083604078
  0
ARC
  5
200
330
1F
100
AcDbEntity
  8
0
  6
Continuous
 62
     7
370
    25
100
AcDbCircle
 10
-2.1287692308
 20
0.0
 30
0.0
 40
2.416269230769243
100
AcDbArc
 50
338.2916395922
 51
21.7083604078
  0
ARC
  5
201
330
1F
100
AcDbEntity
  8
0
  6
Continuous
 62
     7
370
    25
100
AcDbCircle
 10
0.0
 20
-0.8475
 30
0.0
 40
0.1250000000000002
100
AcDbArc
 50
201.7083604078
 51
338.2916395922
  0
ARC
  5
202
330
1F
100
AcDbEntity
  8
0
  6
Continuous
 62
     7
370
    25
100
AcDbCircle
 10
0.0
 20
0.8475
 30
0.0
 40
0.1250000000000006
100
AcDbArc
 50
21.7083604078
 51
158.2916395922
  0
ENDSEC
  0
SECTION
  2
OBJECTS
  0
DICTIONARY
  5
C
330
0
100
AcDbDictionary
281
     1
  3
ACAD_GROUP
350
D
  3
ACAD_LAYOUT
350
1A
  3
ACAD_MLINESTYLE
350
17
  3
ACAD_PLOTSETTINGS
350
19
  3
ACAD_PLOTSTYLENAME
350
E
  3
ACAD_SCALELIST
350
47
  0
DICTIONARY
  5
D
102
{ACAD_REACTORS
330
C
102
}
330
C
100
AcDbDictionary
281
     1
  0
DICTIONARY
  5
1A
102
{ACAD_REACTORS
330
C
102
}
330
C
100
AcDbDictionary
281
     1
  3
Layout1
350
1E
  3
Layout2
350
26
  3
Model
350
22
  0
DICTIONARY
  5
17
102
{ACAD_REACTORS
330
C
102
}
330
C
100
AcDbDictionary
281
     1
  3
Standard
350
18
  0
DICTIONARY
  5
19
102
{ACAD_REACTORS
330
C
102
}
330
C
100
AcDbDictionary
281
     1
  0
ACDBDICTIONARYWDFLT
  5
E
102
{ACAD_REACTORS
330
C
102
}
330
C
100
AcDbDictionary
281
     1
  3
Normal
350
F
100
AcDbDictionaryWithDefault
340
F
  0
DICTIONARY
  5
47
102
{ACAD_REACTORS
330
C
102
}
330
C
100
AcDbDictionary
281
     1
  3
A0
350
48
  3
A1
350
49
  3
A2
350
4A
  3
A3
350
4B
  3
A4
350
4C
  3
A5
350
4D
  3
A6
350
4E
  3
A7
350
4F
  3
A8
350
50
  3
A9
350
51
  3
B0
350
52
  3
B1
350
53
  3
B2
350
54
  3
B3
350
55
  3
B4
350
56
  3
B5
350
57
  3
B6
350
58
  3
B7
350
59
  3
B8
350
5A
  3
B9
350
5B
  3
C0
350
5C
  3
C1
350
5D
  3
C2
350
5E
  3
C3
350
5F
  3
C4
350
60
  3
C5
350
61
  3
C6
350
62
  3
C7
350
63
  3
C8
350
64
  3
C9
350
65
  3
D0
350
66
  3
D1
350
67
  3
D2
350
68
  0
LAYOUT
  5
1E
102
{ACAD_REACTORS
330
1A
102
}
330
1A
100
AcDbPlotSettings
  1

  2
none_device
  4

  6

 40
0.0
 41
0.0
 42
0.0
 43
0.0
 44
0.0
 45
0.0
 46
0.0
 47
0.0
 48
0.0
 49
0.0
140
0.0
141
0.0
142
1.0
143
1.0
 70
   688
 72
     0
 73
     0
 74
     5
  7

 75
    16
147
1.0
148
0.0
149
0.0
100
AcDbLayout
  1
Layout1
 70
     1
 71
     1
 10
0.0
 20
0.0
 11
12.0
 21
9.0
 12
0.0
 22
0.0
 32
0.0
 14
1.0000000000E+20
 24
1.0000000000E+20
 34
1.0000000000E+20
 15
-1.0000000000E+20
 25
-1.0000000000E+20
 35
-1.0000000000E+20
146
0.0
 13
0.0
 23
0.0
 33
0.0
 16
1.0
 26
0.0
 36
0.0
 17
0.0
 27
1.0
 37
0.0
 76
     0
330
1B
  0
LAYOUT
  5
26
102
{ACAD_REACTORS
330
1A
102
}
330
1A
100
AcDbPlotSettings
  1

  2
none_device
  4

  6

 40
0.0
 41
0.0
 42
0.0
 43
0.0
 44
0.0
 45
0.0
 46
0.0
 47
0.0
 48
0.0
 49
0.0
140
0.0
141
0.0
142
1.0
143
1.0
 70
   688
 72
     0
 73
     0
 74
     5
  7

 75
    16
147
1.0
148
0.0
149
0.0
100
AcDbLayout
  1
Layout2
 70
     1
 71
     2
 10
0.0
 20
0.0
 11
0.0
 21
0.0
 12
0.0
 22
0.0
 32
0.0
 14
0.0
 24
0.0
 34
0.0
 15
0.0
 25
0.0
 35
0.0
146
0.0
 13
0.0
 23
0.0
 33
0.0
 16
1.0
 26
0.0
 36
0.0
 17
0.0
 27
1.0
 37
0.0
 76
     0
330
23
  0
LAYOUT
  5
22
102
{ACAD_REACTORS
330
1A
102
}
330
1A
100
AcDbPlotSettings
  1

  2
none_device
  4
ANSI_A_(11.00_x_8.50_Inches)
  6

 40
6.35
 41
19.05
 42
6.35000508
 43
19.05000254
 44
279.4
 45
215.9
 46
133.3499974601
 47
88.89999873
 48
0.0
 49
0.0
140
0.0
141
0.0
142
4.3264781491
143
1.0
 70
  1696
 72
     0
 73
     0
 74
     0
  7

 75
     0
147
0.5913241897
148
-39.4088153714
149
0.0
100
AcDbLayout
  1
Model
 70
     1
 71
     0
 10
0.0
 20
0.0
 11
12.0
 21
9.0
 12
0.0
 22
0.0
 32
0.0
 14
-0.2875
 24
-0.9725
 34
0.0
 15
0.2875
 25
0.9725
 35
0.0
146
0.0
 13
0.0
 23
0.0
 33
0.0
 16
1.0
 26
0.0
 36
0.0
 17
0.0
 27
1.0
 37
0.0
 76
     0
330
1F
331
29
  0
MLINESTYLE
  5
18
102
{ACAD_REACTORS
330
17
102
}
330
17
100
AcDbMlineStyle
  2
Standard
 70
     0
  3

 62
   256
 51
90.0
 52
90.0
 71
     2
 49
0.5
 62
   256
  6
BYLAYER
 49
-0.5
 62
   256
  6
BYLAYER
  0
ACDBPLACEHOLDER
  5
F
102
{ACAD_REACTORS
330
E
102
}
330
E
  0
SCALE
  5
48
102
{ACAD_REACTORS
330
47
102
}
330
47
100
AcDbScale
 70
     0
300
1:1
140
1.0
141
1.0
290
     1
  0
SCALE
  5
49
102
{ACAD_REACTORS
330
47
102
}
330
47
100
AcDbScale
 70
     0
300
1:2
140
1.0
141
2.0
290
     0
  0
SCALE
  5
4A
102
{ACAD_REACTORS
330
47
102
}
330
47
100
AcDbScale
 70
     0
300
1:4
140
1.0
141
4.0
290
     0
  0
SCALE
  5
4B
102
{ACAD_REACTORS
330
47
102
}
330
47
100
AcDbScale
 70
     0
300
1:5
140
1.0
141
5.0
290
     0
  0
SCALE
  5
4C
102
{ACAD_REACTORS
330
47
102
}
330
47
100
AcDbScale
 70
     0
300
1:8
140
1.0
141
8.0
290
     0
  0
SCALE
  5
4D
102
{ACAD_REACTORS
330
47
102
}
330
47
100
AcDbScale
 70
     0
300
1:10
140
1.0
141
10.0
290
     0
  0
SCALE
  5
4E
102
{ACAD_REACTORS
330
47
102
}
330
47
100
AcDbScale
 70
     0
300
1:16
140
1.0
141
16.0
290
     0
  0
SCALE
  5
4F
102
{ACAD_REACTORS
330
47
102
}
330
47
100
AcDbScale
 70
     0
300
1:20
140
1.0
141
20.0
290
     0
  0
SCALE
  5
50
102
{ACAD_REACTORS
330
47
102
}
330
47
100
AcDbScale
 70
     0
300
1:30
140
1.0
141
30.0
290
     0
  0
SCALE
  5
51
102
{ACAD_REACTORS
330
47
102
}
330
47
100
AcDbScale
 70
     0
300
1:40
140
1.0
141
40.0
290
     0
  0
SCALE
  5
52
102
{ACAD_REACTORS
330
47
102
}
330
47
100
AcDbScale
 70
     0
300
1:50
140
1.0
141
50.0
290
     0
  0
SCALE
  5
53
102
{ACAD_REACTORS
330
47
102
}
330
47
100
AcDbScale
 70
     0
300
1:100
140
1.0
141
100.0
290
     0
  0
SCALE
  5
54
102
{ACAD_REACTORS
330
47
102
}
330
47
100
AcDbScale
 70
     0
300
2:1
140
2.0
141
1.0
290
     0
  0
SCALE
  5
55
102
{ACAD_REACTORS
330
47
102
}
330
47
100
AcDbScale
 70
     0
300
4:1
140
4.0
141
1.0
290
     0
  0
SCALE
  5
56
102
{ACAD_REACTORS
330
47
102
}
330
47
100
AcDbScale
 70
     0
300
8:1
140
8.0
141
1.0
290
     0
  0
SCALE
  5
57
102
{ACAD_REACTORS
330
47
102
}
330
47
100
AcDbScale
 70
     0
300
10:1
140
10.0
141
1.0
290
     0
  0
SCALE
  5
58
102
{ACAD_REACTORS
330
47
102
}
330
47
100
AcDbScale
 70
     0
300
100:1
140
100.0
141
1.0
290
     0
  0
SCALE
  5
59
102
{ACAD_REACTORS
330
47
102
}
330
47
100
AcDbScale
 70
     0
300
1/128" = 1'-0"
140
0.0078125
141
12.0
290
     0
  0
SCALE
  5
5A
102
{ACAD_REACTORS
330
47
102
}
330
47
100
AcDbScale
 70
     0
300
1/64" = 1'-0"
140
0.015625
141
12.0
290
     0
  0
SCALE
  5
5B
102
{ACAD_REACTORS
330
47
102
}
330
47
100
AcDbScale
 70
     0
300
1/32" = 1'-0"
140
0.03125
141
12.0
290
     0
  0
SCALE
  5
5C
102
{ACAD_REACTORS
330
47
102
}
330
47
100
AcDbScale
 70
     0
300
1/16" = 1'-0"
140
0.0625
141
12.0
290
     0
  0
SCALE
  5
5D
102
{ACAD_REACTORS
330
47
102
}
330
47
100
AcDbScale
 70
     0
300
3/32" = 1'-0"
140
0.09375
141
12.0
290
     0
  0
SCALE
  5
5E
102
{ACAD_REACTORS
330
47
102
}
330
47
100
AcDbScale
 70
     0
300
1/8" = 1'-0"
140
0.125
141
12.0
290
     0
  0
SCALE
  5
5F
102
{ACAD_REACTORS
330
47
102
}
330
47
100
AcDbScale
 70
     0
300
3/16" = 1'-0"
140
0.1875
141
12.0
290
     0
  0
SCALE
  5
60
102
{ACAD_REACTORS
330
47
102
}
330
47
100
AcDbScale
 70
     0
300
1/4" = 1'-0"
140
0.25
141
12.0
290
     0
  0
SCALE
  5
61
102
{ACAD_REACTORS
330
47
102
}
330
47
100
AcDbScale
 70
     0
300
3/8" = 1'-0"
140
0.375
141
12.0
290
     0
  0
SCALE
  5
62
102
{ACAD_REACTORS
330
47
102
}
330
47
100
AcDbScale
 70
     0
300
1/2" = 1'-0"
140
0.5
141
12.0
290
     0
  0
SCALE
  5
63
102
{ACAD_REACTORS
330
47
102
}
330
47
100
AcDbScale
 70
     0
300
3/4" = 1'-0"
140
0.75
141
12.0
290
     0
  0
SCALE
  5
64
102
{ACAD_REACTORS
330
47
102
}
330
47
100
AcDbScale
 70
     0
300
1" = 1'-0"
140
1.0
141
12.0
290
     0
  0
SCALE
  5
65
102
{ACAD_REACTORS
330
47
102
}
330
47
100
AcDbScale
 70
     0
300
1-1/2" = 1'-0"
140
1.5
141
12.0
290
     0
  0
SCALE
  5
66
102
{ACAD_REACTORS
330
47
102
}
330
47
100
AcDbScale
 70
     0
300
3" = 1'-0"
140
3.0
141
12.0
290
     0
  0
SCALE
  5
67
102
{ACAD_REACTORS
330
47
102
}
330
47
100
AcDbScale
 70
     0
300
6" = 1'-0"
140
6.0
141
12.0
290
     0
  0
SCALE
  5
68
102
{ACAD_REACTORS
330
47
102
}
330
47
100
AcDbScale
 70
     0
300
1'-0" = 1'-0"
140
12.0
141
12.0
290
     0
  0
ENDSEC
  0
EOF
