  0
SECTION
  2
HEADER
  9
$ACADVER
  1
AC1015
  9
$ACADMAINTVER
 70
     6
  9
$DWGCODEPAGE
  3
ANSI_1252
  9
$INSBASE
 10
0.0
 20
0.0
 30
0.0
  9
$EXTMIN
 10
-0.7475
 20
-4.435
 30
0.0
  9
$EXTMAX
 10
-0.2525
 20
-3.94
 30
0.0
  9
$LIMMIN
 10
0.0
 20
0.0
  9
$LIMMAX
 10
12.0
 20
9.0
  9
$ORTHOMODE
 70
     0
  9
$REGENMODE
 70
     1
  9
$FILLMODE
 70
     1
  9
$QTEXTMODE
 70
     0
  9
$MIRRTEXT
 70
     1
  9
$LTSCALE
 40
1.0
  9
$ATTMODE
 70
     1
  9
$TEXTSIZE
 40
0.1377952756
  9
$TRACEWID
 40
0.05
  9
$TEXTSTYLE
  7
Standard
  9
$CLAYER
  8
0
  9
$CELTYPE
  6
ByLayer
  9
$CECOLOR
 62
   256
  9
$CELTSCALE
 40
1.0
  9
$DISPSILH
 70
     0
  9
$DIMSCALE
 40
1.0
  9
$DIMASZ
 40
0.14
  9
$DIMEXO
 40
0.0393700787
  9
$DIMDLI
 40
0.38
  9
$DIMRND
 40
0.0
  9
$DIMDLE
 40
0.0
  9
$DIMEXE
 40
0.0393700787
  9
$DIMTP
 40
0.0
  9
$DIMTM
 40
0.0
  9
$DIMTXT
 40
0.1377952756
  9
$DIMCEN
 40
0.09
  9
$DIMTSZ
 40
0.0
  9
$DIMTOL
 70
     0
  9
$DIMLIM
 70
     0
  9
$DIMTIH
 70
     1
  9
$DIMTOH
 70
     1
  9
$DIMSE1
 70
     0
  9
$DIMSE2
 70
     0
  9
$DIMTAD
 70
     1
  9
$DIMZIN
 70
     0
  9
$DIMBLK
  1

  9
$DIMASO
 70
     1
  9
$DIMSHO
 70
     1
  9
$DIMPOST
  1

  9
$DIMAPOST
  1

  9
$DIMALT
 70
     0
  9
$DIMALTD
 70
     2
  9
$DIMALTF
 40
25.4
  9
$DIMLFAC
 40
1.0
  9
$DIMTOFL
 70
     0
  9
$DIMTVP
 40
0.0
  9
$DIMTIX
 70
     0
  9
$DIMSOXD
 70
     0
  9
$DIMSAH
 70
     0
  9
$DIMBLK1
  1

  9
$DIMBLK2
  1

  9
$DIMSTYLE
  2
Standard
  9
$DIMCLRD
 70
     0
  9
$DIMCLRE
 70
     0
  9
$DIMCLRT
 70
     0
  9
$DIMTFAC
 40
1.0
  9
$DIMGAP
 40
0.06
  9
$DIMJUST
 70
     0
  9
$DIMSD1
 70
     0
  9
$DIMSD2
 70
     0
  9
$DIMTOLJ
 70
     1
  9
$DIMTZIN
 70
     0
  9
$DIMALTZ
 70
     0
  9
$DIMALTTZ
 70
     0
  9
$DIMUPT
 70
     0
  9
$DIMDEC
 70
     2
  9
$DIMTDEC
 70
     2
  9
$DIMALTU
 70
     2
  9
$DIMALTTD
 70
     2
  9
$DIMTXSTY
  7
Standard
  9
$DIMAUNIT
 70
     0
  9
$DIMADEC
 70
     2
  9
$DIMALTRND
 40
0.0
  9
$DIMAZIN
 70
     0
  9
$DIMDSEP
 70
    46
  9
$DIMATFIT
 70
     3
  9
$DIMFRAC
 70
     0
  9
$DIMLDRBLK
  1

  9
$DIMLUNIT
 70
     2
  9
$DIMLWD
 70
    -2
  9
$DIMLWE
 70
    -2
  9
$DIMTMOVE
 70
     0
  9
$LUNITS
 70
     2
  9
$LUPREC
 70
     2
  9
$SKETCHINC
 40
0.1
  9
$FILLETRAD
 40
0.5
  9
$AUNITS
 70
     0
  9
$AUPREC
 70
     2
  9
$MENU
  1
.
  9
$ELEVATION
 40
0.0
  9
$PELEVATION
 40
0.0
  9
$THICKNESS
 40
0.0
  9
$LIMCHECK
 70
     0
  9
$CHAMFERA
 40
0.0
  9
$CHAMFERB
 40
0.0
  9
$CHAMFERC
 40
0.0
  9
$CHAMFERD
 40
0.0
  9
$SKPOLY
 70
     0
  9
$TDCREATE
 40
2459392.33491243
  9
$TDUCREATE
 40
2459391.918245764
  9
$TDUPDATE
 40
2459392.334950903
  9
$TDUUPDATE
 40
2459391.918284236
  9
$TDINDWG
 40
0.0000000116
  9
$TDUSRTIMER
 40
0.0000000116
  9
$USRTIMER
 70
     1
  9
$ANGBASE
 50
0.0
  9
$ANGDIR
 70
     0
  9
$PDMODE
 70
     0
  9
$PDSIZE
 40
-1.0
  9
$PLINEWID
 40
0.0
  9
$SPLFRAME
 70
     0
  9
$SPLINETYPE
 70
     6
  9
$SPLINESEGS
 70
     8
  9
$HANDSEED
  5
BD
  9
$SURFTAB1
 70
     6
  9
$SURFTAB2
 70
     6
  9
$SURFTYPE
 70
     6
  9
$SURFU
 70
     6
  9
$SURFV
 70
     6
  9
$UCSBASE
  2

  9
$UCSNAME
  2

  9
$UCSORG
 10
0.0
 20
0.0
 30
0.0
  9
$UCSXDIR
 10
1.0
 20
0.0
 30
0.0
  9
$UCSYDIR
 10
0.0
 20
1.0
 30
0.0
  9
$UCSORTHOREF
  2

  9
$UCSORTHOVIEW
 70
     0
  9
$UCSORGTOP
 10
0.0
 20
0.0
 30
0.0
  9
$UCSORGBOTTOM
 10
0.0
 20
0.0
 30
0.0
  9
$UCSORGLEFT
 10
0.0
 20
0.0
 30
0.0
  9
$UCSORGRIGHT
 10
0.0
 20
0.0
 30
0.0
  9
$UCSORGFRONT
 10
0.0
 20
0.0
 30
0.0
  9
$UCSORGBACK
 10
0.0
 20
0.0
 30
0.0
  9
$PUCSBASE
  2

  9
$PUCSNAME
  2

  9
$PUCSORG
 10
0.0
 20
0.0
 30
0.0
  9
$PUCSXDIR
 10
1.0
 20
0.0
 30
0.0
  9
$PUCSYDIR
 10
0.0
 20
1.0
 30
0.0
  9
$PUCSORTHOREF
  2

  9
$PUCSORTHOVIEW
 70
     0
  9
$PUCSORGTOP
 10
0.0
 20
0.0
 30
0.0
  9
$PUCSORGBOTTOM
 10
0.0
 20
0.0
 30
0.0
  9
$PUCSORGLEFT
 10
0.0
 20
0.0
 30
0.0
  9
$PUCSORGRIGHT
 10
0.0
 20
0.0
 30
0.0
  9
$PUCSORGFRONT
 10
0.0
 20
0.0
 30
0.0
  9
$PUCSORGBACK
 10
0.0
 20
0.0
 30
0.0
  9
$USERI1
 70
     0
  9
$USERI2
 70
     0
  9
$USERI3
 70
     0
  9
$USERI4
 70
     0
  9
$USERI5
 70
     0
  9
$USERR1
 40
0.0
  9
$USERR2
 40
0.0
  9
$USERR3
 40
0.0
  9
$USERR4
 40
0.0
  9
$USERR5
 40
0.0
  9
$WORLDVIEW
 70
     1
  9
$SHADEDGE
 70
     3
  9
$SHADEDIF
 70
    70
  9
$TILEMODE
 70
     1
  9
$MAXACTVP
 70
    64
  9
$PINSBASE
 10
0.0
 20
0.0
 30
0.0
  9
$PLIMCHECK
 70
     0
  9
$PEXTMIN
 10
1.0000000000E+20
 20
1.0000000000E+20
 30
1.0000000000E+20
  9
$PEXTMAX
 10
-1.0000000000E+20
 20
-1.0000000000E+20
 30
-1.0000000000E+20
  9
$PLIMMIN
 10
0.0
 20
0.0
  9
$PLIMMAX
 10
12.0
 20
9.0
  9
$UNITMODE
 70
     0
  9
$VISRETAIN
 70
     1
  9
$PLINEGEN
 70
     0
  9
$PSLTSCALE
 70
     1
  9
$TREEDEPTH
 70
  3020
  9
$CMLSTYLE
  2
Standard
  9
$CMLJUST
 70
     0
  9
$CMLSCALE
 40
1.0
  9
$PROXYGRAPHICS
 70
     1
  9
$MEASUREMENT
 70
     0
  9
$CELWEIGHT
370
    -1
  9
$ENDCAPS
280
     0
  9
$JOINSTYLE
280
     0
  9
$LWDISPLAY
290
     1
  9
$INSUNITS
 70
     1
  9
$HYPERLINKBASE
  1

  9
$STYLESHEET
  1

  9
$XEDIT
290
     1
  9
$CEPSNTYPE
380
     0
  9
$PSTYLEMODE
290
     1
  9
$FINGERPRINTGUID
  2
{7259c9aa-9440-40e3-a588-4a4bb3985a00}
  9
$VERSIONGUID
  2
{FAEB1C32-E019-11D5-929B-00C0DF256EC4}
  9
$EXTNAMES
290
     1
  9
$PSVPSCALE
 40
0.0
  9
$OLESTARTUP
290
     0
  0
ENDSEC
  0
SECTION
  2
CLASSES
  0
CLASS
  1
ACDBDICTIONARYWDFLT
  2
AcDbDictionaryWithDefault
  3
ObjectDBX Classes
 90
        0
280
     0
281
     0
  0
CLASS
  1
VISUALSTYLE
  2
AcDbVisualStyle
  3
ObjectDBX Classes
 90
     4095
280
     0
281
     0
  0
CLASS
  1
MATERIAL
  2
AcDbMaterial
  3
ObjectDBX Classes
 90
     1153
280
     0
281
     0
  0
CLASS
  1
SCALE
  2
AcDbScale
  3
ObjectDBX Classes
 90
     1153
280
     0
281
     0
  0
CLASS
  1
TABLESTYLE
  2
AcDbTableStyle
  3
ObjectDBX Classes
 90
     4095
280
     0
281
     0
  0
CLASS
  1
MLEADERSTYLE
  2
AcDbMLeaderStyle
  3
ACDB_MLEADERSTYLE_CLASS
 90
     4095
280
     0
281
     0
  0
CLASS
  1
SUN
  2
AcDbSun
  3
SCENEOE
 90
     1153
280
     0
281
     0
  0
CLASS
  1
ACDBPLACEHOLDER
  2
AcDbPlaceHolder
  3
ObjectDBX Classes
 90
        0
280
     0
281
     0
  0
CLASS
  1
LAYOUT
  2
AcDbLayout
  3
ObjectDBX Classes
 90
        0
280
     0
281
     0
  0
ENDSEC
  0
SECTION
  2
TABLES
  0
TABLE
  2
VPORT
  5
8
330
0
100
AcDbSymbolTable
 70
     1
  0
VPORT
  5
29
330
8
100
AcDbSymbolTableRecord
100
AcDbViewportTableRecord
  2
*Active
 70
     0
 10
0.0
 20
0.0
 11
1.0
 21
1.0
 12
-0.5
 22
-4.1875
 13
0.0
 23
0.0
 14
0.5
 24
0.5
 15
0.5
 25
0.5
 16
0.0
 26
0.0
 36
1.0
 17
0.0
 27
0.0
 37
0.0
 40
0.5049
 41
1.0
 42
50.0
 43
0.0
 44
0.0
 50
0.0
 51
0.0
 71
     0
 72
   100
 73
     1
 74
     3
 75
     0
 76
     0
 77
     0
 78
     0
281
     0
 65
     1
110
0.0
120
0.0
130
0.0
111
1.0
121
0.0
131
0.0
112
0.0
122
1.0
132
0.0
 79
     0
146
0.0
  0
ENDTAB
  0
TABLE
  2
LTYPE
  5
5
330
0
100
AcDbSymbolTable
 70
     6
  0
LTYPE
  5
14
330
5
100
AcDbSymbolTableRecord
100
AcDbLinetypeTableRecord
  2
ByBlock
 70
     0
  3

 72
    65
 73
     0
 40
0.0
  0
LTYPE
  5
15
330
5
100
AcDbSymbolTableRecord
100
AcDbLinetypeTableRecord
  2
ByLayer
 70
     0
  3

 72
    65
 73
     0
 40
0.0
  0
LTYPE
  5
16
330
5
100
AcDbSymbolTableRecord
100
AcDbLinetypeTableRecord
  2
Continuous
 70
     0
  3
Solid line
 72
    65
 73
     0
 40
0.0
  0
LTYPE
  5
6E
330
5
100
AcDbSymbolTableRecord
100
AcDbLinetypeTableRecord
  2
HIDDEN
 70
     0
  3
Hidden __ __ __ __ __ __ __ __ __ __ __ __ __ __
 72
    65
 73
     2
 40
0.075
 49
0.05
 74
     0
 49
-0.025
 74
     0
  0
LTYPE
  5
6F
330
5
100
AcDbSymbolTableRecord
100
AcDbLinetypeTableRecord
  2
PHANTOM
 70
     0
  3
Phantom ______  __  __  ______  __  __  ______
 72
    65
 73
     6
 40
0.5
 49
0.25
 74
     0
 49
-0.05
 74
     0
 49
0.05
 74
     0
 49
-0.05
 74
     0
 49
0.05
 74
     0
 49
-0.05
 74
     0
  0
LTYPE
  5
70
330
5
100
AcDbSymbolTableRecord
100
AcDbLinetypeTableRecord
  2
CENTER
 70
     0
  3
Center ____ _ ____ _ ____ _ ____ _ ____ _ ____
 72
    65
 73
     4
 40
0.4
 49
0.25
 74
     0
 49
-0.05
 74
     0
 49
0.05
 74
     0
 49
-0.05
 74
     0
  0
LTYPE
  5
71
330
5
100
AcDbSymbolTableRecord
100
AcDbLinetypeTableRecord
  2
CENTERX2
 70
     0
  3
Center (2x) ________  __  ________  __  _____
 72
    65
 73
     4
 40
0.8
 49
0.5
 74
     0
 49
-0.1
 74
     0
 49
0.1
 74
     0
 49
-0.1
 74
     0
  0
LTYPE
  5
72
330
5
100
AcDbSymbolTableRecord
100
AcDbLinetypeTableRecord
  2
DOT2
 70
     0
  3
Dot (.5x) ........................................
 72
    65
 73
     2
 40
0.025
 49
0.0
 74
     0
 49
-0.025
 74
     0
  0
ENDTAB
  0
TABLE
  2
LAYER
  5
2
330
0
100
AcDbSymbolTable
 70
     1
  0
LAYER
  5
10
330
2
100
AcDbSymbolTableRecord
100
AcDbLayerTableRecord
  2
0
 70
     0
 62
     7
  6
Continuous
370
    -3
390
F
  0
ENDTAB
  0
TABLE
  2
STYLE
  5
3
330
0
100
AcDbSymbolTable
 70
     1
  0
STYLE
  5
11
330
3
100
AcDbSymbolTableRecord
100
AcDbTextStyleTableRecord
  2
Standard
 70
     0
 40
0.0
 41
1.0
 50
0.0
 71
     0
 42
0.1377952756
  3
txt
  4

  0
ENDTAB
  0
TABLE
  2
VIEW
  5
6
330
0
100
AcDbSymbolTable
 70
     0
  0
ENDTAB
  0
TABLE
  2
UCS
  5
7
330
0
100
AcDbSymbolTable
 70
     0
  0
ENDTAB
  0
TABLE
  2
APPID
  5
9
330
0
100
AcDbSymbolTable
 70
     1
  0
APPID
  5
12
330
9
100
AcDbSymbolTableRecord
100
AcDbRegAppTableRecord
  2
ACAD
 70
     0
  0
ENDTAB
  0
TABLE
  2
DIMSTYLE
  5
A
330
0
100
AcDbSymbolTable
 70
     1
100
AcDbDimStyleTable
  0
DIMSTYLE
105
27
330
A
100
AcDbSymbolTableRecord
100
AcDbDimStyleTableRecord
  2
Standard
 70
     0
178
     0
340
11
  0
ENDTAB
  0
TABLE
  2
BLOCK_RECORD
  5
1
330
0
100
AcDbSymbolTable
 70
     1
  0
BLOCK_RECORD
  5
1F
330
1
100
AcDbSymbolTableRecord
100
AcDbBlockTableRecord
  2
*Model_Space
340
22
  0
BLOCK_RECORD
  5
1B
330
1
100
AcDbSymbolTableRecord
100
AcDbBlockTableRecord
  2
*Paper_Space
340
1E
  0
BLOCK_RECORD
  5
23
330
1
100
AcDbSymbolTableRecord
100
AcDbBlockTableRecord
  2
*Paper_Space0
340
26
  0
ENDTAB
  0
ENDSEC
  0
SECTION
  2
BLOCKS
  0
BLOCK
  5
20
330
1F
100
AcDbEntity
  8
0
100
AcDbBlockBegin
  2
*Model_Space
 70
     0
 10
0.0
 20
0.0
 30
0.0
  3
*Model_Space
  1

  0
ENDBLK
  5
21
330
1F
100
AcDbEntity
  8
0
100
AcDbBlockEnd
  0
BLOCK
  5
1C
330
1B
100
AcDbEntity
 67
     1
  8
0
100
AcDbBlockBegin
  2
*Paper_Space
 70
     0
 10
0.0
 20
0.0
 30
0.0
  3
*Paper_Space
  1

  0
ENDBLK
  5
1D
330
1B
100
AcDbEntity
 67
     1
  8
0
100
AcDbBlockEnd
  0
BLOCK
  5
24
330
23
100
AcDbEntity
  8
0
100
AcDbBlockBegin
  2
*Paper_Space0
 70
     0
 10
0.0
 20
0.0
 30
0.0
  3
*Paper_Space0
  1

  0
ENDBLK
  5
25
330
23
100
AcDbEntity
  8
0
100
AcDbBlockEnd
  0
ENDSEC
  0
SECTION
  2
ENTITIES
  0
SPLINE
  5
73
330
1F
100
AcDbEntity
  8
0
  6
Continuous
 62
     7
370
    25
100
AcDbSpline
210
0.0
220
0.0
230
1.0
 70
     8
 71
     3
 72
    15
 73
    11
 74
     0
 42
0.000000001
 43
0.00000001
 40
0.0007928600106689
 40
0.0007928600106689
 40
0.0007928600106689
 40
0.0007928600106689
 40
0.1042616037841106
 40
0.2124620937723701
 40
0.3278436850355176
 40
0.4523188121921751
 40
0.5834669157037563
 40
0.7162747408399637
 40
0.8564577771135479
 40
1.0
 40
1.0
 40
1.0
 40
1.0
 10
-0.4511368831563125
 20
-4.363826584843326
 30
0.0
 10
-0.4504058747015597
 20
-4.36377979348134
 30
0.0
 10
-0.4489106362765568
 20
-4.363682771965683
 30
0.0
 10
-0.4466869416169774
 20
-4.36299293990566
 30
0.0
 10
-0.4444768109016299
 20
-4.36190543267907
 30
0.0
 10
-0.4422986512312725
 20
-4.360440924956878
 30
0.0
 10
-0.4401793495454827
 20
-4.358691291086519
 30
0.0
 10
-0.4382290340677026
 20
-4.356603082076715
 30
0.0
 10
-0.4363819633341765
 20
-4.354308128742495
 30
0.0
 10
-0.4353306198385159
 20
-4.352601344748763
 30
0.0
 10
-0.4347987243603657
 20
-4.351737848952963
 30
0.0
  0
SPLINE
  5
74
330
1F
100
AcDbEntity
  8
0
  6
Continuous
 62
     7
370
    25
100
AcDbSpline
210
0.0
220
0.0
230
1.0
 70
     8
 71
     3
 72
    15
 73
    11
 74
     0
 42
0.000000001
 43
0.00000001
 40
0.0
 40
0.0
 40
0.0
 40
0.0
 40
0.0979084655061802
 40
0.2020434680475781
 40
0.3137823269800404
 40
0.433877002645661
 40
0.5618120214149003
 40
0.6989002417577509
 40
0.8446104229862557
 40
1.0
 40
1.0
 40
1.0
 40
1.0
 10
-0.4347987243603657
 20
-4.351737848952963
 30
0.0
 10
-0.4341274008915457
 20
-4.350402064466103
 30
0.0
 10
-0.4327420608076112
 20
-4.347645545620728
 30
0.0
 10
-0.431082734439915
 20
-4.343143791926826
 30
0.0
 10
-0.4296758206012173
 20
-4.3382118004121
 30
0.0
 10
-0.4284703670275453
 20
-4.332851270017475
 30
0.0
 10
-0.4275985106546029
 20
-4.327036401795859
 30
0.0
 10
-0.4269045981367897
 20
-4.320805397364905
 30
0.0
 10
-0.4265381711107523
 20
-4.31412558924031
 30
0.0
 10
-0.426464397276854
 20
-4.309531410512589
 30
0.0
 10
-0.4264263245633076
 20
-4.307160477060522
 30
0.0
  0
SPLINE
  5
75
330
1F
100
AcDbEntity
  8
0
  6
Continuous
 62
     7
370
    25
100
AcDbSpline
210
0.0
220
0.0
230
1.0
 70
     8
 71
     3
 72
    15
 73
    11
 74
     0
 42
0.000000001
 43
0.00000001
 40
0.0
 40
0.0
 40
0.0
 40
0.0
 40
0.1588963883900122
 40
0.3072572108555446
 40
0.4453143268012669
 40
0.5742479403743129
 40
0.6929763783696515
 40
0.8030532274228087
 40
0.9054361370792506
 40
1.0
 40
1.0
 40
1.0
 40
1.0
 10
-0.4264263245633076
 20
-4.307160477060522
 30
0.0
 10
-0.4264456852540233
 20
-4.30461674407462
 30
0.0
 10
-0.4264831229320567
 20
-4.299697939372206
 30
0.0
 10
-0.4269233500594722
 20
-4.292581444913916
 30
0.0
 10
-0.427562731408035
 20
-4.285960525619933
 30
0.0
 10
-0.4285775765610572
 20
-4.279867679343873
 30
0.0
 10
-0.4297979817811075
 20
-4.27426657617369
 30
0.0
 10
-0.431411738776161
 20
-4.269213671595994
 30
0.0
 10
-0.4331890728787589
 20
-4.264619047695462
 30
0.0
 10
-0.4347351970745659
 20
-4.261867654915725
 30
0.0
 10
-0.4354775675871539
 20
-4.260546575487717
 30
0.0
  0
SPLINE
  5
76
330
1F
100
AcDbEntity
  8
0
  6
Continuous
 62
     7
370
    25
100
AcDbSpline
210
0.0
220
0.0
230
1.0
 70
     8
 71
     3
 72
    15
 73
    11
 74
     0
 42
0.000000001
 43
0.00000001
 40
0.0
 40
0.0
 40
0.0
 40
0.0
 40
0.1368471614317528
 40
0.2715210836502069
 40
0.4035478856101105
 40
0.5356644440646944
 40
0.6637105360900276
 40
0.7828582264542617
 40
0.8938918371541507
 40
1.0
 40
1.0
 40
1.0
 40
1.0
 10
-0.4354775675871539
 20
-4.260546575487717
 30
0.0
 10
-0.4359649936593316
 20
-4.259778419283708
 30
0.0
 10
-0.4369321050990769
 20
-4.258254305792842
 30
0.0
 10
-0.4387031978363675
 20
-4.256232832344915
 30
0.0
 10
-0.4406157686911175
 20
-4.254397284242224
 30
0.0
 10
-0.4427008079798816
 20
-4.252825738769865
 30
0.0
 10
-0.4448781629761415
 20
-4.251552247087679
 30
0.0
 10
-0.4470414566585891
 20
-4.250552679182392
 30
0.0
 10
-0.449205443348676
 20
-4.249942413423636
 30
0.0
 10
-0.4506457504895098
 20
-4.249834697674244
 30
0.0
 10
-0.4513495687468262
 20
-4.24978206146293
 30
0.0
  0
SPLINE
  5
77
330
1F
100
AcDbEntity
  8
0
  6
Continuous
 62
     7
370
    25
100
AcDbSpline
210
0.0
220
0.0
230
1.0
 70
     8
 71
     3
 72
    15
 73
    11
 74
     0
 42
0.000000001
 43
0.00000001
 40
0.0
 40
0.0
 40
0.0
 40
0.0
 40
0.1114031478928768
 40
0.2220475822049453
 40
0.3371406195901814
 40
0.4550688856910467
 40
0.5786729450070085
 40
0.7099872733764344
 40
0.8501242664938226
 40
1.0
 40
1.0
 40
1.0
 40
1.0
 10
-0.4513495687468262
 20
-4.249782061462928
 30
0.0
 10
-0.4520102031005606
 20
-4.249824717357819
 30
0.0
 10
-0.4533269725432826
 20
-4.249909738638688
 30
0.0
 10
-0.4552657862124203
 20
-4.25043686619769
 30
0.0
 10
-0.4571690561030791
 20
-4.251170603521226
 30
0.0
 10
-0.4590345937557797
 20
-4.252182005401143
 30
0.0
 10
-0.4608138428073365
 20
-4.253502268579262
 30
0.0
 10
-0.4625629390005846
 20
-4.255063130525215
 30
0.0
 10
-0.4642832051966109
 20
-4.256879717347706
 30
0.0
 10
-0.4653466377858456
 20
-4.258231627948022
 30
0.0
 10
-0.4658962093208656
 20
-4.258930282090604
 30
0.0
  0
SPLINE
  5
78
330
1F
100
AcDbEntity
  8
0
  6
Continuous
 62
     7
370
    25
100
AcDbSpline
210
0.0
220
0.0
230
1.0
 70
     8
 71
     3
 72
    15
 73
    11
 74
     0
 42
0.000000001
 43
0.00000001
 40
0.0
 40
0.0
 40
0.0
 40
0.0
 40
0.0887805968529867
 40
0.1865889091761235
 40
0.2950343939017739
 40
0.4146905770183238
 40
0.5454756693494925
 40
0.6860482394000385
 40
0.8374160904666926
 40
1.0
 40
1.0
 40
1.0
 40
1.0
 10
-0.4658962093208656
 20
-4.258930282090604
 30
0.0
 10
-0.4667265942558407
 20
-4.260182768147537
 30
0.0
 10
-0.4684718023835787
 20
-4.262815100159325
 30
0.0
 10
-0.4705395973215183
 20
-4.26737540811369
 30
0.0
 10
-0.472292995381058
 20
-4.272602952376753
 30
0.0
 10
-0.4737695844627971
 20
-4.278494203534155
 30
0.0
 10
-0.4749038379220908
 20
-4.285010529826655
 30
0.0
 10
-0.4757458252998951
 20
-4.292110387649389
 30
0.0
 10
-0.476209958263054
 20
-4.299784053556971
 30
0.0
 10
-0.4762939621735144
 20
-4.305091033350079
 30
0.0
 10
-0.4763374646662296
 20
-4.307839320287312
 30
0.0
  0
SPLINE
  5
79
330
1F
100
AcDbEntity
  8
0
  6
Continuous
 62
     7
370
    25
100
AcDbSpline
210
0.0
220
0.0
230
1.0
 70
     8
 71
     3
 72
    15
 73
    11
 74
     0
 42
0.000000001
 43
0.00000001
 40
0.0
 40
0.0
 40
0.0
 40
0.0
 40
0.156210510127982
 40
0.3038271585096606
 40
0.4432331618324428
 40
0.5747491412119199
 40
0.6966633359777032
 40
0.8075264283629787
 40
0.9087216968257296
 40
1.0
 40
1.0
 40
1.0
 40
1.0
 10
-0.4763374646662296
 20
-4.307839320287312
 30
0.0
 10
-0.476305011850861
 20
-4.310307513989686
 30
0.0
 10
-0.4762418915994081
 20
-4.315108114657528
 30
0.0
 10
-0.4757951166308295
 20
-4.322100588486689
 30
0.0
 10
-0.4750227931563197
 20
-4.328671567770433
 30
0.0
 10
-0.4739650363009998
 20
-4.334789971558181
 30
0.0
 10
-0.4726719674356746
 20
-4.34040445928161
 30
0.0
 10
-0.4710816660354418
 20
-4.345438245904994
 30
0.0
 10
-0.4693009329449166
 20
-4.349903740021452
 30
0.0
 10
-0.4677589037245641
 20
-4.352529257962573
 30
0.0
 10
-0.4670276146988463
 20
-4.353774378633328
 30
0.0
  0
SPLINE
  5
7A
330
1F
100
AcDbEntity
  8
0
  6
Continuous
 62
     7
370
    25
100
AcDbSpline
210
0.0
220
0.0
230
1.0
 70
     8
 71
     3
 72
    15
 73
    11
 74
     0
 42
0.000000001
 43
0.00000001
 40
0.0
 40
0.0
 40
0.0
 40
0.0
 40
0.1318055101120239
 40
0.262471469931346
 40
0.3969498636845816
 40
0.5331471624192
 40
0.6650471906574841
 40
0.7843573654586177
 40
0.8961663491429829
 40
0.9992986928940667
 40
0.9992986928940667
 40
0.9992986928940667
 40
0.9992986928940667
 10
-0.4670276146988463
 20
-4.353774378633328
 30
0.0
 10
-0.4665259222965036
 20
-4.354465957973541
 30
0.0
 10
-0.4655268749715137
 20
-4.35584313746964
 30
0.0
 10
-0.4637367037327521
 20
-4.357696776677795
 30
0.0
 10
-0.4617801288772875
 20
-4.359412048491244
 30
0.0
 10
-0.4596367103292097
 20
-4.360903937284633
 30
0.0
 10
-0.4574555423566605
 20
-4.362150403326729
 30
0.0
 10
-0.4552938539156092
 20
-4.363087070817039
 30
0.0
 10
-0.4531921455665496
 20
-4.36365362016149
 30
0.0
 10
-0.4518033215340395
 20
-4.36377076240913
 30
0.0
 10
-0.4511368831584259
 20
-4.363826584810305
 30
0.0
  0
SPLINE
  5
7B
330
1F
100
AcDbEntity
  8
0
  6
Continuous
 62
     7
370
    25
100
AcDbSpline
210
0.0
220
0.0
230
1.0
 70
     8
 71
     3
 72
    15
 73
    11
 74
     0
 42
0.000000001
 43
0.00000001
 40
0.0007928600106288
 40
0.0007928600106288
 40
0.0007928600106288
 40
0.0007928600106288
 40
0.1042616037841106
 40
0.2124620937723701
 40
0.3278436850355176
 40
0.4523188121921751
 40
0.5834669157037563
 40
0.7162747408399637
 40
0.8564577771135479
 40
1.0
 40
1.0
 40
1.0
 40
1.0
 10
-0.451136883156313
 20
-4.363826584843325
 30
0.0
 10
-0.4504058747015603
 20
-4.363779793481341
 30
0.0
 10
-0.448910636276557
 20
-4.363682771965683
 30
0.0
 10
-0.4466869416169774
 20
-4.362992939905663
 30
0.0
 10
-0.4444768109016294
 20
-4.361905432679071
 30
0.0
 10
-0.4422986512312723
 20
-4.360440924956877
 30
0.0
 10
-0.4401793495454824
 20
-4.358691291086519
 30
0.0
 10
-0.4382290340677029
 20
-4.356603082076715
 30
0.0
 10
-0.4363819633341762
 20
-4.354308128742495
 30
0.0
 10
-0.4353306198385159
 20
-4.352601344748761
 30
0.0
 10
-0.4347987243603654
 20
-4.351737848952959
 30
0.0
  0
SPLINE
  5
7C
330
1F
100
AcDbEntity
  8
0
  6
Continuous
 62
     7
370
    25
100
AcDbSpline
210
0.0
220
0.0
230
1.0
 70
     8
 71
     3
 72
    15
 73
    11
 74
     0
 42
0.000000001
 43
0.00000001
 40
0.0
 40
0.0
 40
0.0
 40
0.0
 40
0.0979084655061802
 40
0.2020434680475781
 40
0.3137823269800404
 40
0.433877002645661
 40
0.5618120214149003
 40
0.6989002417577509
 40
0.8446104229862557
 40
1.0
 40
1.0
 40
1.0
 40
1.0
 10
-0.4347987243603654
 20
-4.351737848952959
 30
0.0
 10
-0.4341274008915454
 20
-4.350402064466103
 30
0.0
 10
-0.4327420608076117
 20
-4.347645545620726
 30
0.0
 10
-0.4310827344399142
 20
-4.343143791926826
 30
0.0
 10
-0.4296758206012176
 20
-4.3382118004121
 30
0.0
 10
-0.4284703670275445
 20
-4.332851270017475
 30
0.0
 10
-0.4275985106546026
 20
-4.327036401795859
 30
0.0
 10
-0.4269045981367895
 20
-4.320805397364905
 30
0.0
 10
-0.4265381711107528
 20
-4.314125589240312
 30
0.0
 10
-0.4264643972768543
 20
-4.309531410512592
 30
0.0
 10
-0.4264263245633084
 20
-4.307160477060523
 30
0.0
  0
SPLINE
  5
7D
330
1F
100
AcDbEntity
  8
0
  6
Continuous
 62
     7
370
    25
100
AcDbSpline
210
0.0
220
0.0
230
1.0
 70
     8
 71
     3
 72
    15
 73
    11
 74
     0
 42
0.000000001
 43
0.00000001
 40
0.0
 40
0.0
 40
0.0
 40
0.0
 40
0.1588963883900122
 40
0.3072572108555446
 40
0.4453143268012669
 40
0.5742479403743129
 40
0.6929763783696515
 40
0.8030532274228087
 40
0.9054361370792506
 40
1.0
 40
1.0
 40
1.0
 40
1.0
 10
-0.4264263245633084
 20
-4.307160477060523
 30
0.0
 10
-0.4264456852540239
 20
-4.304616744074622
 30
0.0
 10
-0.426483122932057
 20
-4.299697939372209
 30
0.0
 10
-0.4269233500594722
 20
-4.292581444913916
 30
0.0
 10
-0.4275627314080345
 20
-4.285960525619933
 30
0.0
 10
-0.4285775765610564
 20
-4.279867679343871
 30
0.0
 10
-0.4297979817811072
 20
-4.27426657617369
 30
0.0
 10
-0.4314117387761616
 20
-4.269213671595995
 30
0.0
 10
-0.4331890728787589
 20
-4.264619047695462
 30
0.0
 10
-0.4347351970745665
 20
-4.261867654915725
 30
0.0
 10
-0.4354775675871533
 20
-4.260546575487717
 30
0.0
  0
SPLINE
  5
7E
330
1F
100
AcDbEntity
  8
0
  6
Continuous
 62
     7
370
    25
100
AcDbSpline
210
0.0
220
0.0
230
1.0
 70
     8
 71
     3
 72
    15
 73
    11
 74
     0
 42
0.000000001
 43
0.00000001
 40
0.0
 40
0.0
 40
0.0
 40
0.0
 40
0.1368471614317528
 40
0.2715210836502069
 40
0.4035478856101105
 40
0.5356644440646944
 40
0.6637105360900276
 40
0.7828582264542617
 40
0.8938918371541507
 40
1.0
 40
1.0
 40
1.0
 40
1.0
 10
-0.4354775675871533
 20
-4.260546575487717
 30
0.0
 10
-0.4359649936593313
 20
-4.259778419283706
 30
0.0
 10
-0.4369321050990772
 20
-4.258254305792842
 30
0.0
 10
-0.4387031978363677
 20
-4.256232832344913
 30
0.0
 10
-0.4406157686911178
 20
-4.254397284242224
 30
0.0
 10
-0.4427008079798822
 20
-4.252825738769865
 30
0.0
 10
-0.4448781629761418
 20
-4.251552247087679
 30
0.0
 10
-0.4470414566585891
 20
-4.250552679182389
 30
0.0
 10
-0.4492054433486768
 20
-4.249942413423635
 30
0.0
 10
-0.4506457504895093
 20
-4.249834697674242
 30
0.0
 10
-0.4513495687468259
 20
-4.249782061462928
 30
0.0
  0
SPLINE
  5
7F
330
1F
100
AcDbEntity
  8
0
  6
Continuous
 62
     7
370
    25
100
AcDbSpline
210
0.0
220
0.0
230
1.0
 70
     8
 71
     3
 72
    15
 73
    11
 74
     0
 42
0.000000001
 43
0.00000001
 40
0.0
 40
0.0
 40
0.0
 40
0.0
 40
0.1114031478928768
 40
0.2220475822049453
 40
0.3371406195901814
 40
0.4550688856910467
 40
0.5786729450070085
 40
0.7099872733764344
 40
0.8501242664938226
 40
1.0
 40
1.0
 40
1.0
 40
1.0
 10
-0.4513495687468259
 20
-4.249782061462928
 30
0.0
 10
-0.4520102031005608
 20
-4.249824717357815
 30
0.0
 10
-0.4533269725432826
 20
-4.249909738638686
 30
0.0
 10
-0.45526578621242
 20
-4.25043686619769
 30
0.0
 10
-0.4571690561030797
 20
-4.251170603521225
 30
0.0
 10
-0.4590345937557794
 20
-4.252182005401143
 30
0.0
 10
-0.4608138428073371
 20
-4.253502268579262
 30
0.0
 10
-0.4625629390005849
 20
-4.255063130525212
 30
0.0
 10
-0.4642832051966112
 20
-4.256879717347706
 30
0.0
 10
-0.4653466377858458
 20
-4.258231627948022
 30
0.0
 10
-0.4658962093208656
 20
-4.258930282090603
 30
0.0
  0
SPLINE
  5
80
330
1F
100
AcDbEntity
  8
0
  6
Continuous
 62
     7
370
    25
100
AcDbSpline
210
0.0
220
0.0
230
1.0
 70
     8
 71
     3
 72
    15
 73
    11
 74
     0
 42
0.000000001
 43
0.00000001
 40
0.0
 40
0.0
 40
0.0
 40
0.0
 40
0.0887805968529867
 40
0.1865889091761235
 40
0.2950343939017739
 40
0.4146905770183238
 40
0.5454756693494925
 40
0.6860482394000385
 40
0.8374160904666926
 40
1.0
 40
1.0
 40
1.0
 40
1.0
 10
-0.4658962093208656
 20
-4.258930282090603
 30
0.0
 10
-0.4667265942558399
 20
-4.260182768147534
 30
0.0
 10
-0.4684718023835789
 20
-4.262815100159325
 30
0.0
 10
-0.4705395973215185
 20
-4.26737540811369
 30
0.0
 10
-0.4722929953810577
 20
-4.272602952376753
 30
0.0
 10
-0.4737695844627973
 20
-4.278494203534155
 30
0.0
 10
-0.4749038379220914
 20
-4.285010529826655
 30
0.0
 10
-0.4757458252998954
 20
-4.292110387649389
 30
0.0
 10
-0.4762099582630553
 20
-4.299784053556975
 30
0.0
 10
-0.4762939621735149
 20
-4.305091033350082
 30
0.0
 10
-0.4763374646662312
 20
-4.307839320287312
 30
0.0
  0
SPLINE
  5
81
330
1F
100
AcDbEntity
  8
0
  6
Continuous
 62
     7
370
    25
100
AcDbSpline
210
0.0
220
0.0
230
1.0
 70
     8
 71
     3
 72
    15
 73
    11
 74
     0
 42
0.000000001
 43
0.00000001
 40
0.0
 40
0.0
 40
0.0
 40
0.0
 40
0.156210510127982
 40
0.3038271585096606
 40
0.4432331618324428
 40
0.5747491412119199
 40
0.6966633359777032
 40
0.8075264283629787
 40
0.9087216968257296
 40
1.0
 40
1.0
 40
1.0
 40
1.0
 10
-0.4763374646662312
 20
-4.307839320287312
 30
0.0
 10
-0.4763050118508626
 20
-4.310307513989686
 30
0.0
 10
-0.4762418915994081
 20
-4.315108114657528
 30
0.0
 10
-0.4757951166308289
 20
-4.322100588486688
 30
0.0
 10
-0.4750227931563192
 20
-4.328671567770431
 30
0.0
 10
-0.4739650363010007
 20
-4.334789971558181
 30
0.0
 10
-0.4726719674356749
 20
-4.34040445928161
 30
0.0
 10
-0.4710816660354412
 20
-4.345438245904994
 30
0.0
 10
-0.4693009329449163
 20
-4.349903740021449
 30
0.0
 10
-0.4677589037245649
 20
-4.352529257962573
 30
0.0
 10
-0.4670276146988466
 20
-4.353774378633328
 30
0.0
  0
SPLINE
  5
82
330
1F
100
AcDbEntity
  8
0
  6
Continuous
 62
     7
370
    25
100
AcDbSpline
210
0.0
220
0.0
230
1.0
 70
     8
 71
     3
 72
    15
 73
    11
 74
     0
 42
0.000000001
 43
0.00000001
 40
0.0
 40
0.0
 40
0.0
 40
0.0
 40
0.1318055101120239
 40
0.262471469931346
 40
0.3969498636845816
 40
0.5331471624192
 40
0.6650471906574841
 40
0.7843573654586177
 40
0.8961663491429829
 40
0.9992986928940002
 40
0.9992986928940002
 40
0.9992986928940002
 40
0.9992986928940002
 10
-0.4670276146988466
 20
-4.353774378633328
 30
0.0
 10
-0.4665259222965028
 20
-4.354465957973538
 30
0.0
 10
-0.4655268749715129
 20
-4.355843137469638
 30
0.0
 10
-0.4637367037327523
 20
-4.357696776677795
 30
0.0
 10
-0.461780128877288
 20
-4.359412048491242
 30
0.0
 10
-0.4596367103292102
 20
-4.360903937284634
 30
0.0
 10
-0.4574555423566596
 20
-4.362150403326726
 30
0.0
 10
-0.4552938539156095
 20
-4.363087070817039
 30
0.0
 10
-0.4531921455665506
 20
-4.36365362016149
 30
0.0
 10
-0.4518033215340391
 20
-4.363770762409128
 30
0.0
 10
-0.4511368831584261
 20
-4.363826584810304
 30
0.0
  0
LINE
  5
83
330
1F
100
AcDbEntity
  8
0
  6
Continuous
 62
     7
370
    25
100
AcDbLine
 10
-0.4511232877
 20
-4.3821888166
 30
0.0
 11
-0.4511536879
 21
-4.382188785
 31
0.0
  0
SPLINE
  5
84
330
1F
100
AcDbEntity
  8
0
  6
Continuous
 62
     7
370
    25
100
AcDbSpline
210
0.0
220
0.0
230
1.0
 70
     8
 71
     3
 72
    15
 73
    11
 74
     0
 42
0.000000001
 43
0.00000001
 40
0.0
 40
0.0
 40
0.0
 40
0.0
 40
0.1143135928924691
 40
0.2314881010829934
 40
0.3543963822914341
 40
0.4823191504878919
 40
0.6134327718327318
 40
0.7431687090548046
 40
0.8706184911104238
 40
1.0
 40
1.0
 40
1.0
 40
1.0
 10
-0.4511536878771185
 20
-4.382188784986385
 30
0.0
 10
-0.4523861502989434
 20
-4.382122244446082
 30
0.0
 10
-0.4548819198611253
 20
-4.381987498061772
 30
0.0
 10
-0.4586380717571743
 20
-4.381208153629585
 30
0.0
 10
-0.4624157882991035
 20
-4.379971765305219
 30
0.0
 10
-0.4661847139345566
 20
-4.378291500378114
 30
0.0
 10
-0.4698318558002791
 20
-4.376209020821817
 30
0.0
 10
-0.4732557279706922
 20
-4.373788742780366
 30
0.0
 10
-0.4764179841997678
 20
-4.37105406895194
 30
0.0
 10
-0.478256146920628
 20
-4.368978632231057
 30
0.0
 10
-0.4791821410451538
 20
-4.367933108792058
 30
0.0
  0
SPLINE
  5
85
330
1F
100
AcDbEntity
  8
0
  6
Continuous
 62
     7
370
    25
100
AcDbSpline
210
0.0
220
0.0
230
1.0
 70
     8
 71
     3
 72
    15
 73
    11
 74
     0
 42
0.000000001
 43
0.00000001
 40
0.0
 40
0.0
 40
0.0
 40
0.0
 40
0.1022185366487482
 40
0.2083292070520901
 40
0.3205063836386117
 40
0.4398693318722736
 40
0.5664425468898436
 40
0.701844882966018
 40
0.8461921707441749
 40
1.0
 40
1.0
 40
1.0
 40
1.0
 10
-0.4791821410451538
 20
-4.367933108792058
 30
0.0
 10
-0.480430456243627
 20
-4.366225125735231
 30
0.0
 10
-0.4829746182320018
 20
-4.362744125443567
 30
0.0
 10
-0.486093438496676
 20
-4.356874215787847
 30
0.0
 10
-0.4887496320341729
 20
-4.350408788889198
 30
0.0
 10
-0.4908806224215079
 20
-4.343308276990163
 30
0.0
 10
-0.4926040232040003
 20
-4.335608124700511
 30
0.0
 10
-0.4938021625689944
 20
-4.327286963907969
 30
0.0
 10
-0.4945557972871936
 20
-4.318348341423446
 30
0.0
 10
-0.4946499747750928
 20
-4.312183353731855
 30
0.0
 10
-0.4946985576574608
 20
-4.309003051533236
 30
0.0
  0
SPLINE
  5
86
330
1F
100
AcDbEntity
  8
0
  6
Continuous
 62
     7
370
    25
100
AcDbSpline
210
0.0
220
0.0
230
1.0
 70
     8
 71
     3
 72
    19
 73
    15
 74
     0
 42
0.000000001
 43
0.00000001
 40
0.0
 40
0.0
 40
0.0
 40
0.0
 40
0.1628440902809605
 40
0.3139742761028304
 40
0.4538926867483292
 40
0.5834970592228181
 40
0.6444265512275188
 40
0.7021784503023728
 40
0.7578145943244314
 40
0.8105921376757649
 40
0.8609299902789896
 40
0.9092308223274461
 40
0.9553365750937991
 40
1.0
 40
1.0
 40
1.0
 40
1.0
 10
-0.4946985576574608
 20
-4.309003051533236
 30
0.0
 10
-0.4946491498629226
 20
-4.30537057134292
 30
0.0
 10
-0.4945538883370219
 20
-4.298366907063521
 30
0.0
 10
-0.4938229659127342
 20
-4.288261624706292
 30
0.0
 10
-0.4925642202402268
 20
-4.278958304848229
 30
0.0
 10
-0.4911313202682864
 20
-4.271721975852358
 30
0.0
 10
-0.4897419325749668
 20
-4.266358795298618
 30
0.0
 10
-0.488565273381104
 20
-4.262651477074157
 30
0.0
 10
-0.4872929522536818
 20
-4.259168096192262
 30
0.0
 10
-0.4858562057864352
 20
-4.255929472630315
 30
0.0
 10
-0.4843446941698379
 20
-4.252907471118627
 30
0.0
 10
-0.482704087359443
 20
-4.25012302959155
 30
0.0
 10
-0.4809128309693354
 20
-4.247585720694928
 30
0.0
 10
-0.4796229018636274
 20
-4.246024598087311
 30
0.0
 10
-0.4789881858374984
 20
-4.245256439951006
 30
0.0
  0
SPLINE
  5
87
330
1F
100
AcDbEntity
  8
0
  6
Continuous
 62
     7
370
    25
100
AcDbSpline
210
0.0
220
0.0
230
1.0
 70
     8
 71
     3
 72
    15
 73
    11
 74
     0
 42
0.000000001
 43
0.00000001
 40
0.0
 40
0.0
 40
0.0
 40
0.0
 40
0.1335587367028322
 40
0.2634324880540825
 40
0.3931485018427139
 40
0.5219566836012353
 40
0.6481921622507338
 40
0.7695715294887212
 40
0.8857934517415539
 40
1.0
 40
1.0
 40
1.0
 40
1.0
 10
-0.4789881858374984
 20
-4.245256439951006
 30
0.0
 10
-0.4779819038268706
 20
-4.244225483000422
 30
0.0
 10
-0.475997103878264
 20
-4.242192013971932
 30
0.0
 10
-0.4727324125151248
 20
-4.239472166769665
 30
0.0
 10
-0.4692294471267615
 20
-4.237165868216955
 30
0.0
 10
-0.4655948852897583
 20
-4.235157961518068
 30
0.0
 10
-0.4618657272428051
 20
-4.233532404995634
 30
0.0
 10
-0.4581097753903374
 20
-4.232387293932481
 30
0.0
 10
-0.4543899973266298
 20
-4.23157512162759
 30
0.0
 10
-0.4519032328739975
 20
-4.231472052368805
 30
0.0
 10
-0.4506707255200383
 20
-4.2314209684717
 30
0.0
  0
SPLINE
  5
88
330
1F
100
AcDbEntity
  8
0
  6
Continuous
 62
     7
370
    25
100
AcDbSpline
210
0.0
220
0.0
230
1.0
 70
     8
 71
     3
 72
    15
 73
    11
 74
     0
 42
0.000000001
 43
0.00000001
 40
0.0
 40
0.0
 40
0.0
 40
0.0
 40
0.1170265885277299
 40
0.2358933388507011
 40
0.3587104272138909
 40
0.4863420074637592
 40
0.6161925983494433
 40
0.7438871455503765
 40
0.8710381853332906
 40
1.0
 40
1.0
 40
1.0
 40
1.0
 10
-0.4506707255200383
 20
-4.2314209684717
 30
0.0
 10
-0.4495358817817408
 20
-4.231465749490513
 30
0.0
 10
-0.4472483496758438
 20
-4.231556015678547
 30
0.0
 10
-0.4438335543622564
 20
-4.232261327569887
 30
0.0
 10
-0.4403881331510283
 20
-4.233241484763583
 30
0.0
 10
-0.4369835934512185
 20
-4.234674872960441
 30
0.0
 10
-0.4336921651280271
 20
-4.236441392361642
 30
0.0
 10
-0.4305570534678609
 20
-4.238469242777652
 30
0.0
 10
-0.4276915457207773
 20
-4.240855629837292
 30
0.0
 10
-0.4259685518753654
 20
-4.242643109951723
 30
0.0
 10
-0.4251009639776736
 20
-4.243543168950064
 30
0.0
  0
SPLINE
  5
89
330
1F
100
AcDbEntity
  8
0
  6
Continuous
 62
     7
370
    25
100
AcDbSpline
210
0.0
220
0.0
230
1.0
 70
     8
 71
     3
 72
    19
 73
    15
 74
     0
 42
0.000000001
 43
0.00000001
 40
0.0
 40
0.0
 40
0.0
 40
0.0
 40
0.1014364353469648
 40
0.2067284158638813
 40
0.3169130619129711
 40
0.4330992169629782
 40
0.4940720458616157
 40
0.5579372253978566
 40
0.6243196477909158
 40
0.6937271344195207
 40
0.7658750761343008
 40
0.8407716962748795
 40
0.9189458189155162
 40
1.0
 40
1.0
 40
1.0
 40
1.0
 10
-0.4251009639776736
 20
-4.243543168950064
 30
0.0
 10
-0.4236862640256637
 20
-4.245298930907041
 30
0.0
 10
-0.4208030921259256
 20
-4.248877190402836
 30
0.0
 10
-0.4172664435516443
 20
-4.25499177174236
 30
0.0
 10
-0.4143302912180885
 20
-4.261757267778236
 30
0.0
 10
-0.4124007924998584
 20
-4.267849821376679
 30
0.0
 10
-0.4111247443570263
 20
-4.273048095500815
 30
0.0
 10
-0.410295099780854
 20
-4.277212810228655
 30
0.0
 10
-0.4095692574530492
 20
-4.281587280001711
 30
0.0
 10
-0.4090479378892488
 20
-4.286175670046523
 30
0.0
 10
-0.4085849349092137
 20
-4.29095917568233
 30
0.0
 10
-0.4082555971851747
 20
-4.295950000742759
 30
0.0
 10
-0.4081120711829381
 20
-4.30114698808771
 30
0.0
 10
-0.4080810319176741
 20
-4.304682104655974
 30
0.0
 10
-0.4080652315720777
 20
-4.306481633833735
 30
0.0
  0
SPLINE
  5
8A
330
1F
100
AcDbEntity
  8
0
  6
Continuous
 62
     7
370
    25
100
AcDbSpline
210
0.0
220
0.0
230
1.0
 70
     8
 71
     3
 72
    23
 73
    19
 74
     0
 42
0.000000001
 43
0.00000001
 40
0.0
 40
0.0
 40
0.0
 40
0.0
 40
0.0834133074824034
 40
0.1631629155556611
 40
0.2397901117728934
 40
0.3133331374589797
 40
0.3834550530245805
 40
0.4507232083276808
 40
0.5147063888720768
 40
0.5759583176370525
 40
0.6347270824522653
 40
0.6916189625123257
 40
0.7461974157403244
 40
0.799461779996725
 40
0.8511965081932323
 40
0.9017239089382032
 40
0.9511514488009282
 40
0.9999999999999999
 40
0.9999999999999999
 40
0.9999999999999999
 40
0.9999999999999999
 10
-0.4080652315720782
 20
-4.306481633833735
 30
0.0
 10
-0.4080779630352701
 20
-4.308421299568928
 30
0.0
 10
-0.4081028667672589
 20
-4.312215436573076
 30
0.0
 10
-0.4082882406312391
 20
-4.31778951993397
 30
0.0
 10
-0.4086535790102909
 20
-4.323124194481241
 30
0.0
 10
-0.4091216140962295
 20
-4.32822620584048
 30
0.0
 10
-0.4097682668170756
 20
-4.333089918080376
 30
0.0
 10
-0.4105758654532077
 20
-4.337703684484536
 30
0.0
 10
-0.4115150421783282
 20
-4.342081426036492
 30
0.0
 10
-0.4125706874398909
 20
-4.346229453979493
 30
0.0
 10
-0.4138020977784773
 20
-4.350157319706825
 30
0.0
 10
-0.4151945736957484
 20
-4.353864139679597
 30
0.0
 10
-0.4167013230185086
 20
-4.357389659411281
 30
0.0
 10
-0.4184355968454928
 20
-4.3606724726849
 30
0.0
 10
-0.4202521310977172
 20
-4.363803879308875
 30
0.0
 10
-0.4223165520072037
 20
-4.366667991848495
 30
0.0
 10
-0.4244683756895969
 20
-4.369382304428835
 30
0.0
 10
-0.4260569521337318
 20
-4.371027023945858
 30
0.0
 10
-0.4268465608465585
 20
-4.371844538813078
 30
0.0
  0
SPLINE
  5
8B
330
1F
100
AcDbEntity
  8
0
  6
Continuous
 62
     7
370
    25
100
AcDbSpline
210
0.0
220
0.0
230
1.0
 70
     8
 71
     3
 72
    15
 73
    11
 74
     0
 42
0.000000001
 43
0.00000001
 40
0.0
 40
0.0
 40
0.0
 40
0.0
 40
0.1308756774606971
 40
0.260555614972325
 40
0.3889895638224786
 40
0.5176245748134031
 40
0.6442629435088854
 40
0.7657514738124659
 40
0.8835499439102303
 40
1.0
 40
1.0
 40
1.0
 40
1.0
 10
-0.4268465608465585
 20
-4.371844538813078
 30
0.0
 10
-0.4277270376549854
 20
-4.372626796942885
 30
0.0
 10
-0.4294799468336752
 20
-4.37418416613503
 30
0.0
 10
-0.432343162131318
 20
-4.376203645002138
 30
0.0
 10
-0.4353201852059652
 20
-4.378010209547138
 30
0.0
 10
-0.4384509581363174
 20
-4.379472822741008
 30
0.0
 10
-0.4416216866490428
 20
-4.380680443277401
 30
0.0
 10
-0.444809398169125
 20
-4.381514910600534
 30
0.0
 10
-0.4479690607551037
 20
-4.38206270197445
 30
0.0
 10
-0.4500759213006073
 20
-4.382146939995438
 30
0.0
 10
-0.4511232876712302
 20
-4.382188816554616
 30
0.0
  0
SPLINE
  5
8C
330
1F
100
AcDbEntity
  8
0
  6
Continuous
 62
     7
370
    25
100
AcDbSpline
210
0.0
220
0.0
230
1.0
 70
     8
 71
     3
 72
    15
 73
    11
 74
     0
 42
0.000000001
 43
0.00000001
 40
0.0
 40
0.0
 40
0.0
 40
0.0
 40
0.1143135928924691
 40
0.2314881010829934
 40
0.3543963822914341
 40
0.4823191504878919
 40
0.6134327718327318
 40
0.7431687090548046
 40
0.8706184911104238
 40
1.0
 40
1.0
 40
1.0
 40
1.0
 10
-0.4511536878771171
 20
-4.382188784986385
 30
0.0
 10
-0.4523861502989429
 20
-4.382122244446081
 30
0.0
 10
-0.4548819198611244
 20
-4.381987498061771
 30
0.0
 10
-0.4586380717571737
 20
-4.381208153629585
 30
0.0
 10
-0.4624157882991032
 20
-4.379971765305218
 30
0.0
 10
-0.4661847139345556
 20
-4.378291500378114
 30
0.0
 10
-0.4698318558002777
 20
-4.376209020821814
 30
0.0
 10
-0.4732557279706922
 20
-4.373788742780366
 30
0.0
 10
-0.476417984199767
 20
-4.371054068951938
 30
0.0
 10
-0.4782561469206277
 20
-4.368978632231057
 30
0.0
 10
-0.4791821410451533
 20
-4.367933108792058
 30
0.0
  0
SPLINE
  5
8D
330
1F
100
AcDbEntity
  8
0
  6
Continuous
 62
     7
370
    25
100
AcDbSpline
210
0.0
220
0.0
230
1.0
 70
     8
 71
     3
 72
    15
 73
    11
 74
     0
 42
0.000000001
 43
0.00000001
 40
0.0
 40
0.0
 40
0.0
 40
0.0
 40
0.1022185366487482
 40
0.2083292070520901
 40
0.3205063836386117
 40
0.4398693318722736
 40
0.5664425468898436
 40
0.701844882966018
 40
0.8461921707441749
 40
1.0
 40
1.0
 40
1.0
 40
1.0
 10
-0.4791821410451533
 20
-4.367933108792058
 30
0.0
 10
-0.480430456243627
 20
-4.366225125735228
 30
0.0
 10
-0.4829746182320018
 20
-4.362744125443566
 30
0.0
 10
-0.4860934384966751
 20
-4.356874215787847
 30
0.0
 10
-0.4887496320341734
 20
-4.350408788889198
 30
0.0
 10
-0.4908806224215076
 20
-4.343308276990163
 30
0.0
 10
-0.4926040232039995
 20
-4.335608124700513
 30
0.0
 10
-0.4938021625689952
 20
-4.327286963907969
 30
0.0
 10
-0.4945557972871933
 20
-4.318348341423448
 30
0.0
 10
-0.4946499747750914
 20
-4.312183353731855
 30
0.0
 10
-0.4946985576574605
 20
-4.309003051533232
 30
0.0
  0
SPLINE
  5
8E
330
1F
100
AcDbEntity
  8
0
  6
Continuous
 62
     7
370
    25
100
AcDbSpline
210
0.0
220
0.0
230
1.0
 70
     8
 71
     3
 72
    19
 73
    15
 74
     0
 42
0.000000001
 43
0.00000001
 40
0.0
 40
0.0
 40
0.0
 40
0.0
 40
0.1628440902809605
 40
0.3139742761028304
 40
0.4538926867483292
 40
0.5834970592228181
 40
0.6444265512275188
 40
0.7021784503023728
 40
0.7578145943244314
 40
0.8105921376757649
 40
0.8609299902789896
 40
0.9092308223274461
 40
0.9553365750937991
 40
1.0
 40
1.0
 40
1.0
 40
1.0
 10
-0.4946985576574605
 20
-4.309003051533232
 30
0.0
 10
-0.4946491498629217
 20
-4.305370571342916
 30
0.0
 10
-0.4945538883370216
 20
-4.298366907063517
 30
0.0
 10
-0.4938229659127339
 20
-4.28826162470629
 30
0.0
 10
-0.4925642202402271
 20
-4.278958304848229
 30
0.0
 10
-0.4911313202682856
 20
-4.271721975852358
 30
0.0
 10
-0.4897419325749674
 20
-4.266358795298618
 30
0.0
 10
-0.4885652733811043
 20
-4.262651477074156
 30
0.0
 10
-0.4872929522536818
 20
-4.259168096192262
 30
0.0
 10
-0.4858562057864349
 20
-4.255929472630315
 30
0.0
 10
-0.4843446941698379
 20
-4.252907471118627
 30
0.0
 10
-0.4827040873594428
 20
-4.25012302959155
 30
0.0
 10
-0.4809128309693357
 20
-4.247585720694928
 30
0.0
 10
-0.4796229018636272
 20
-4.246024598087311
 30
0.0
 10
-0.4789881858374984
 20
-4.245256439951006
 30
0.0
  0
SPLINE
  5
8F
330
1F
100
AcDbEntity
  8
0
  6
Continuous
 62
     7
370
    25
100
AcDbSpline
210
0.0
220
0.0
230
1.0
 70
     8
 71
     3
 72
    15
 73
    11
 74
     0
 42
0.000000001
 43
0.00000001
 40
0.0
 40
0.0
 40
0.0
 40
0.0
 40
0.1335587367028322
 40
0.2634324880540825
 40
0.3931485018427139
 40
0.5219566836012353
 40
0.6481921622507338
 40
0.7695715294887212
 40
0.8857934517415539
 40
1.0
 40
1.0
 40
1.0
 40
1.0
 10
-0.4789881858374984
 20
-4.245256439951006
 30
0.0
 10
-0.4779819038268708
 20
-4.244225483000422
 30
0.0
 10
-0.4759971038782648
 20
-4.242192013971934
 30
0.0
 10
-0.4727324125151243
 20
-4.239472166769663
 30
0.0
 10
-0.469229447126762
 20
-4.237165868216955
 30
0.0
 10
-0.465594885289757
 20
-4.235157961518064
 30
0.0
 10
-0.4618657272428048
 20
-4.233532404995634
 30
0.0
 10
-0.4581097753903368
 20
-4.23238729393248
 30
0.0
 10
-0.4543899973266279
 20
-4.231575121627588
 30
0.0
 10
-0.4519032328739961
 20
-4.231472052368803
 30
0.0
 10
-0.4506707255200375
 20
-4.231420968471697
 30
0.0
  0
SPLINE
  5
90
330
1F
100
AcDbEntity
  8
0
  6
Continuous
 62
     7
370
    25
100
AcDbSpline
210
0.0
220
0.0
230
1.0
 70
     8
 71
     3
 72
    15
 73
    11
 74
     0
 42
0.000000001
 43
0.00000001
 40
0.0
 40
0.0
 40
0.0
 40
0.0
 40
0.1170265885277299
 40
0.2358933388507011
 40
0.3587104272138909
 40
0.4863420074637592
 40
0.6161925983494433
 40
0.7438871455503765
 40
0.8710381853332906
 40
1.0
 40
1.0
 40
1.0
 40
1.0
 10
-0.4506707255200375
 20
-4.231420968471697
 30
0.0
 10
-0.4495358817817399
 20
-4.231465749490511
 30
0.0
 10
-0.4472483496758435
 20
-4.231556015678546
 30
0.0
 10
-0.4438335543622564
 20
-4.232261327569887
 30
0.0
 10
-0.4403881331510277
 20
-4.233241484763582
 30
0.0
 10
-0.4369835934512174
 20
-4.234674872960437
 30
0.0
 10
-0.4336921651280266
 20
-4.236441392361642
 30
0.0
 10
-0.4305570534678607
 20
-4.238469242777652
 30
0.0
 10
-0.427691545720777
 20
-4.240855629837291
 30
0.0
 10
-0.4259685518753656
 20
-4.242643109951723
 30
0.0
 10
-0.4251009639776731
 20
-4.24354316895006
 30
0.0
  0
SPLINE
  5
91
330
1F
100
AcDbEntity
  8
0
  6
Continuous
 62
     7
370
    25
100
AcDbSpline
210
0.0
220
0.0
230
1.0
 70
     8
 71
     3
 72
    19
 73
    15
 74
     0
 42
0.000000001
 43
0.00000001
 40
0.0
 40
0.0
 40
0.0
 40
0.0
 40
0.1014364353469648
 40
0.2067284158638813
 40
0.3169130619129711
 40
0.4330992169629782
 40
0.4940720458616157
 40
0.5579372253978566
 40
0.6243196477909158
 40
0.6937271344195207
 40
0.7658750761343008
 40
0.8407716962748795
 40
0.9189458189155162
 40
1.0
 40
1.0
 40
1.0
 40
1.0
 10
-0.4251009639776731
 20
-4.24354316895006
 30
0.0
 10
-0.4236862640256632
 20
-4.24529893090704
 30
0.0
 10
-0.4208030921259261
 20
-4.248877190402836
 30
0.0
 10
-0.4172664435516443
 20
-4.25499177174236
 30
0.0
 10
-0.4143302912180885
 20
-4.261757267778238
 30
0.0
 10
-0.4124007924998577
 20
-4.267849821376679
 30
0.0
 10
-0.4111247443570263
 20
-4.273048095500818
 30
0.0
 10
-0.4102950997808543
 20
-4.277212810228658
 30
0.0
 10
-0.4095692574530492
 20
-4.281587280001711
 30
0.0
 10
-0.409047937889248
 20
-4.286175670046522
 30
0.0
 10
-0.4085849349092142
 20
-4.29095917568233
 30
0.0
 10
-0.4082555971851747
 20
-4.29595000074276
 30
0.0
 10
-0.4081120711829365
 20
-4.301146988087708
 30
0.0
 10
-0.4080810319176733
 20
-4.304682104655974
 30
0.0
 10
-0.4080652315720785
 20
-4.306481633833735
 30
0.0
  0
SPLINE
  5
92
330
1F
100
AcDbEntity
  8
0
  6
Continuous
 62
     7
370
    25
100
AcDbSpline
210
0.0
220
0.0
230
1.0
 70
     8
 71
     3
 72
    23
 73
    19
 74
     0
 42
0.000000001
 43
0.00000001
 40
0.0
 40
0.0
 40
0.0
 40
0.0
 40
0.0834133074824034
 40
0.1631629155556611
 40
0.2397901117728934
 40
0.3133331374589797
 40
0.3834550530245805
 40
0.4507232083276808
 40
0.5147063888720768
 40
0.5759583176370525
 40
0.6347270824522653
 40
0.6916189625123257
 40
0.7461974157403244
 40
0.799461779996725
 40
0.8511965081932323
 40
0.9017239089382032
 40
0.9511514488009282
 40
0.9999999999999999
 40
0.9999999999999999
 40
0.9999999999999999
 40
0.9999999999999999
 10
-0.4080652315720785
 20
-4.306481633833735
 30
0.0
 10
-0.4080779630352701
 20
-4.308421299568925
 30
0.0
 10
-0.4081028667672581
 20
-4.312215436573075
 30
0.0
 10
-0.4082882406312377
 20
-4.317789519933966
 30
0.0
 10
-0.4086535790102899
 20
-4.323124194481237
 30
0.0
 10
-0.4091216140962298
 20
-4.32822620584048
 30
0.0
 10
-0.4097682668170753
 20
-4.333089918080381
 30
0.0
 10
-0.4105758654532082
 20
-4.337703684484536
 30
0.0
 10
-0.4115150421783279
 20
-4.342081426036492
 30
0.0
 10
-0.4125706874398912
 20
-4.346229453979493
 30
0.0
 10
-0.4138020977784779
 20
-4.350157319706826
 30
0.0
 10
-0.4151945736957495
 20
-4.353864139679601
 30
0.0
 10
-0.4167013230185086
 20
-4.357389659411281
 30
0.0
 10
-0.4184355968454931
 20
-4.3606724726849
 30
0.0
 10
-0.4202521310977166
 20
-4.363803879308876
 30
0.0
 10
-0.4223165520072037
 20
-4.366667991848495
 30
0.0
 10
-0.4244683756895964
 20
-4.369382304428835
 30
0.0
 10
-0.4260569521337315
 20
-4.371027023945858
 30
0.0
 10
-0.4268465608465583
 20
-4.371844538813075
 30
0.0
  0
SPLINE
  5
93
330
1F
100
AcDbEntity
  8
0
  6
Continuous
 62
     7
370
    25
100
AcDbSpline
210
0.0
220
0.0
230
1.0
 70
     8
 71
     3
 72
    15
 73
    11
 74
     0
 42
0.000000001
 43
0.00000001
 40
0.0
 40
0.0
 40
0.0
 40
0.0
 40
0.1308756774606971
 40
0.260555614972325
 40
0.3889895638224786
 40
0.5176245748134031
 40
0.6442629435088854
 40
0.7657514738124659
 40
0.8835499439102303
 40
1.0
 40
1.0
 40
1.0
 40
1.0
 10
-0.4268465608465583
 20
-4.371844538813075
 30
0.0
 10
-0.4277270376549843
 20
-4.372626796942884
 30
0.0
 10
-0.4294799468336744
 20
-4.37418416613503
 30
0.0
 10
-0.4323431621313175
 20
-4.376203645002138
 30
0.0
 10
-0.4353201852059649
 20
-4.378010209547138
 30
0.0
 10
-0.4384509581363163
 20
-4.379472822741008
 30
0.0
 10
-0.4416216866490428
 20
-4.380680443277401
 30
0.0
 10
-0.4448093981691234
 20
-4.381514910600532
 30
0.0
 10
-0.4479690607551026
 20
-4.38206270197445
 30
0.0
 10
-0.450075921300607
 20
-4.382146939995438
 30
0.0
 10
-0.4511232876712305
 20
-4.382188816554613
 30
0.0
  0
LINE
  5
94
330
1F
100
AcDbEntity
  8
0
  6
Continuous
 62
     7
370
    25
100
AcDbLine
 10
-0.5797997512
 20
-4.3118477279
 30
0.0
 11
-0.5797997512
 21
-4.3617588049
 31
0.0
  0
LINE
  5
95
330
1F
100
AcDbEntity
  8
0
  6
Continuous
 62
     7
370
    25
100
AcDbLine
 10
-0.5797997512
 20
-4.3617588049
 30
0.0
 11
-0.5552491385
 21
-4.3617588049
 31
0.0
  0
SPLINE
  5
96
330
1F
100
AcDbEntity
  8
0
  6
Continuous
 62
     7
370
    25
100
AcDbSpline
210
0.0
220
0.0
230
1.0
 70
     8
 71
     3
 72
    11
 73
     7
 74
     0
 42
0.000000001
 43
0.00000001
 40
0.0
 40
0.0
 40
0.0
 40
0.0
 40
0.3156929906949602
 40
0.5645064231343812
 40
0.7804471891800112
 40
1.0
 40
1.0
 40
1.0
 40
1.0
 10
-0.5552491384562744
 20
-4.361758804878617
 30
0.0
 10
-0.554212339616743
 20
-4.361749213003699
 30
0.0
 10
-0.5523583877658469
 20
-4.36173206129251
 30
0.0
 10
-0.5498079881698654
 20
-4.361407133056879
 30
0.0
 10
-0.5476571440361729
 20
-4.360674569879005
 30
0.0
 10
-0.5464692698837231
 20
-4.35986956981491
 30
0.0
 10
-0.5458704066101301
 20
-4.359463731391174
 30
0.0
  0
SPLINE
  5
97
330
1F
100
AcDbEntity
  8
0
  6
Continuous
 62
     7
370
    25
100
AcDbSpline
210
0.0
220
0.0
230
1.0
 70
     8
 71
     3
 72
    15
 73
    11
 74
     0
 42
0.000000001
 43
0.00000001
 40
0.0
 40
0.0
 40
0.0
 40
0.0
 40
0.1095698050642292
 40
0.2224153594124333
 40
0.3388154235891768
 40
0.4631789339727462
 40
0.592338429927577
 40
0.7241670960820564
 40
0.859488517164223
 40
1.0
 40
1.0
 40
1.0
 40
1.0
 10
-0.5458704066101301
 20
-4.359463731391174
 30
0.0
 10
-0.5451254882629977
 20
-4.358895822314466
 30
0.0
 10
-0.5436133811472356
 20
-4.35774302569011
 30
0.0
 10
-0.5417425364298705
 20
-4.355521199403961
 30
0.0
 10
-0.5400139793791255
 20
-4.35304618795473
 30
0.0
 10
-0.5386230566972874
 20
-4.350202485851631
 30
0.0
 10
-0.5375087426975614
 20
-4.347108661660414
 30
0.0
 10
-0.5366491734537514
 20
-4.343834841742812
 30
0.0
 10
-0.5361750530599089
 20
-4.340383539654119
 30
0.0
 10
-0.5360877934814199
 20
-4.33803300496378
 30
0.0
 10
-0.5360433427556704
 20
-4.33683562383156
 30
0.0
  0
SPLINE
  5
98
330
1F
100
AcDbEntity
  8
0
  6
Continuous
 62
     7
370
    25
100
AcDbSpline
210
0.0
220
0.0
230
1.0
 70
     8
 71
     3
 72
    15
 73
    11
 74
     0
 42
0.000000001
 43
0.00000001
 40
0.0
 40
0.0
 40
0.0
 40
0.0
 40
0.1347545657063527
 40
0.2657788319220055
 40
0.3943156830265377
 40
0.5207148971409428
 40
0.6448868302859088
 40
0.7653277861419553
 40
0.8835032500897202
 40
1.0
 40
1.0
 40
1.0
 40
1.0
 10
-0.5360433427556704
 20
-4.33683562383156
 30
0.0
 10
-0.5360737662275367
 20
-4.335854478687206
 30
0.0
 10
-0.5361337709833949
 20
-4.333919348630237
 30
0.0
 10
-0.5364422975441547
 20
-4.331058625851902
 30
0.0
 10
-0.5370457555808792
 20
-4.328309368528378
 30
0.0
 10
-0.5378062286009662
 20
-4.325652519220029
 30
0.0
 10
-0.5388000569468011
 20
-4.323133657154349
 30
0.0
 10
-0.5400345515262913
 20
-4.320792235551234
 30
0.0
 10
-0.541487192348775
 20
-4.318642758372628
 30
0.0
 10
-0.5426233463006161
 20
-4.31736382584869
 30
0.0
 10
-0.5431873595709189
 20
-4.316728933971447
 30
0.0
  0
SPLINE
  5
99
330
1F
100
AcDbEntity
  8
0
  6
Continuous
 62
     7
370
    25
100
AcDbSpline
210
0.0
220
0.0
230
1.0
 70
     8
 71
     3
 72
    13
 73
     9
 74
     0
 42
0.000000001
 43
0.00000001
 40
0.0
 40
0.0
 40
0.0
 40
0.0
 40
0.2305089391985842
 40
0.4437682668889217
 40
0.5558202315963264
 40
0.686670396845264
 40
0.8337598071038371
 40
1.0
 40
1.0
 40
1.0
 40
1.0
 10
-0.5431873595709189
 20
-4.316728933971444
 30
0.0
 10
-0.5439758435758898
 20
-4.315901880173493
 30
0.0
 10
-0.5454938071809959
 20
-4.314309663265046
 30
0.0
 10
-0.547969007359668
 20
-4.31302889646466
 30
0.0
 10
-0.5501203734017245
 20
-4.312365387383426
 30
0.0
 10
-0.5520255095182132
 20
-4.312076251429004
 30
0.0
 10
-0.5542061033322263
 20
-4.31187704429236
 30
0.0
 10
-0.5557507441018076
 20
-4.311857890271713
 30
0.0
 10
-0.5565702688990345
 20
-4.311847727912157
 30
0.0
  0
LINE
  5
9A
330
1F
100
AcDbEntity
  8
0
  6
Continuous
 62
     7
370
    25
100
AcDbLine
 10
-0.5565702689
 20
-4.3118477279
 30
0.0
 11
-0.5797997512
 21
-4.3118477279
 31
0.0
  0
SPLINE
  5
9B
330
1F
100
AcDbEntity
  8
0
  6
Continuous
 62
     7
370
    25
100
AcDbSpline
210
0.0
220
0.0
230
1.0
 70
     8
 71
     3
 72
    11
 73
     7
 74
     0
 42
0.000000001
 43
0.00000001
 40
0.0
 40
0.0
 40
0.0
 40
0.0
 40
0.3156929906949602
 40
0.5645064231343812
 40
0.7804471891800112
 40
1.0
 40
1.0
 40
1.0
 40
1.0
 10
-0.555249138456275
 20
-4.361758804878617
 30
0.0
 10
-0.554212339616743
 20
-4.361749213003701
 30
0.0
 10
-0.5523583877658472
 20
-4.361732061292511
 30
0.0
 10
-0.5498079881698651
 20
-4.361407133056879
 30
0.0
 10
-0.5476571440361738
 20
-4.360674569879007
 30
0.0
 10
-0.5464692698837237
 20
-4.359869569814911
 30
0.0
 10
-0.5458704066101304
 20
-4.359463731391174
 30
0.0
  0
SPLINE
  5
9C
330
1F
100
AcDbEntity
  8
0
  6
Continuous
 62
     7
370
    25
100
AcDbSpline
210
0.0
220
0.0
230
1.0
 70
     8
 71
     3
 72
    15
 73
    11
 74
     0
 42
0.000000001
 43
0.00000001
 40
0.0
 40
0.0
 40
0.0
 40
0.0
 40
0.1095698050642292
 40
0.2224153594124333
 40
0.3388154235891768
 40
0.4631789339727462
 40
0.592338429927577
 40
0.7241670960820564
 40
0.859488517164223
 40
1.0
 40
1.0
 40
1.0
 40
1.0
 10
-0.5458704066101304
 20
-4.359463731391174
 30
0.0
 10
-0.5451254882629988
 20
-4.358895822314468
 30
0.0
 10
-0.5436133811472358
 20
-4.357743025690111
 30
0.0
 10
-0.5417425364298702
 20
-4.355521199403962
 30
0.0
 10
-0.5400139793791255
 20
-4.35304618795473
 30
0.0
 10
-0.5386230566972879
 20
-4.350202485851633
 30
0.0
 10
-0.5375087426975609
 20
-4.347108661660414
 30
0.0
 10
-0.5366491734537525
 20
-4.34383484174281
 30
0.0
 10
-0.5361750530599086
 20
-4.340383539654119
 30
0.0
 10
-0.5360877934814199
 20
-4.338033004963781
 30
0.0
 10
-0.5360433427556702
 20
-4.33683562383156
 30
0.0
  0
SPLINE
  5
9D
330
1F
100
AcDbEntity
  8
0
  6
Continuous
 62
     7
370
    25
100
AcDbSpline
210
0.0
220
0.0
230
1.0
 70
     8
 71
     3
 72
    15
 73
    11
 74
     0
 42
0.000000001
 43
0.00000001
 40
0.0
 40
0.0
 40
0.0
 40
0.0
 40
0.1347545657063527
 40
0.2657788319220055
 40
0.3943156830265377
 40
0.5207148971409428
 40
0.6448868302859088
 40
0.7653277861419553
 40
0.8835032500897202
 40
1.0
 40
1.0
 40
1.0
 40
1.0
 10
-0.5360433427556702
 20
-4.33683562383156
 30
0.0
 10
-0.5360737662275372
 20
-4.335854478687206
 30
0.0
 10
-0.5361337709833945
 20
-4.333919348630237
 30
0.0
 10
-0.5364422975441545
 20
-4.331058625851902
 30
0.0
 10
-0.5370457555808794
 20
-4.328309368528378
 30
0.0
 10
-0.5378062286009656
 20
-4.325652519220028
 30
0.0
 10
-0.5388000569468009
 20
-4.32313365715435
 30
0.0
 10
-0.5400345515262919
 20
-4.32079223555123
 30
0.0
 10
-0.5414871923487753
 20
-4.318642758372628
 30
0.0
 10
-0.5426233463006158
 20
-4.31736382584869
 30
0.0
 10
-0.5431873595709187
 20
-4.316728933971443
 30
0.0
  0
SPLINE
  5
9E
330
1F
100
AcDbEntity
  8
0
  6
Continuous
 62
     7
370
    25
100
AcDbSpline
210
0.0
220
0.0
230
1.0
 70
     8
 71
     3
 72
    13
 73
     9
 74
     0
 42
0.000000001
 43
0.00000001
 40
0.0
 40
0.0
 40
0.0
 40
0.0
 40
0.2305089391985842
 40
0.4437682668889217
 40
0.5558202315963264
 40
0.686670396845264
 40
0.8337598071038371
 40
1.0
 40
1.0
 40
1.0
 40
1.0
 10
-0.5431873595709181
 20
-4.316728933971442
 30
0.0
 10
-0.5439758435758885
 20
-4.315901880173492
 30
0.0
 10
-0.5454938071809967
 20
-4.314309663265045
 30
0.0
 10
-0.5479690073596677
 20
-4.31302889646466
 30
0.0
 10
-0.5501203734017234
 20
-4.312365387383426
 30
0.0
 10
-0.5520255095182127
 20
-4.312076251429004
 30
0.0
 10
-0.554206103332228
 20
-4.311877044292358
 30
0.0
 10
-0.5557507441018084
 20
-4.311857890271713
 30
0.0
 10
-0.5565702688990339
 20
-4.311847727912157
 30
0.0
  0
LINE
  5
9F
330
1F
100
AcDbEntity
  8
0
  6
Continuous
 62
     7
370
    25
100
AcDbLine
 10
-0.5208622755
 20
-4.2490163425
 30
0.0
 11
-0.5469912051
 21
-4.2943609171
 31
0.0
  0
LINE
  5
A0
330
1F
100
AcDbEntity
  8
0
  6
Continuous
 62
     7
370
    25
100
AcDbLine
 10
-0.5469912051
 20
-4.2943609171
 30
0.0
 11
-0.545205706
 21
-4.2947980739
 31
0.0
  0
SPLINE
  5
A1
330
1F
100
AcDbEntity
  8
0
  6
Continuous
 62
     7
370
    25
100
AcDbSpline
210
0.0
220
0.0
230
1.0
 70
     8
 71
     3
 72
    23
 73
    19
 74
     0
 42
0.000000001
 43
0.00000001
 40
0.0
 40
0.0
 40
0.0
 40
0.0
 40
0.0568769826028469
 40
0.1136529337034217
 40
0.1695911921199778
 40
0.2258355096319337
 40
0.2831880720040662
 40
0.3423909433396565
 40
0.4026536053674628
 40
0.4657091869190856
 40
0.5298110788056135
 40
0.5942690641426461
 40
0.6583514251034268
 40
0.7237868740972767
 40
0.7903629138076589
 40
0.8584028636483364
 40
0.928145632750195
 40
1.0
 40
1.0
 40
1.0
 40
1.0
 10
-0.5452057059505675
 20
-4.294798073916952
 30
0.0
 10
-0.5442237004444181
 20
-4.295094623228886
 30
0.0
 10
-0.5422614337843519
 20
-4.295687195087432
 30
0.0
 10
-0.5394677003879382
 20
-4.296939181176618
 30
0.0
 10
-0.5367788200792893
 20
-4.298378285328353
 30
0.0
 10
-0.5342963699416673
 20
-4.300167622965204
 30
0.0
 10
-0.5318745466714514
 20
-4.30212894408305
 30
0.0
 10
-0.5296312252664499
 20
-4.304399180287333
 30
0.0
 10
-0.527505142742714
 20
-4.306911886358824
 30
0.0
 10
-0.5255529497619772
 20
-4.309672989742641
 30
0.0
 10
-0.5237913907586652
 20
-4.312644931024055
 30
0.0
 10
-0.5221981963008667
 20
-4.315732044805994
 30
0.0
 10
-0.52086466836779
 20
-4.318967115201866
 30
0.0
 10
-0.5197693227111572
 20
-4.322329476248366
 30
0.0
 10
-0.5188989707247008
 20
-4.325829949060943
 30
0.0
 10
-0.518243364985504
 20
-4.329456493151119
 30
0.0
 10
-0.5178678996235752
 20
-4.333218666089156
 30
0.0
 10
-0.517766189222287
 20
-4.335768152046212
 30
0.0
 10
-0.5177145756323821
 20
-4.337061904907153
 30
0.0
  0
SPLINE
  5
A2
330
1F
100
AcDbEntity
  8
0
  6
Continuous
 62
     7
370
    25
100
AcDbSpline
210
0.0
220
0.0
230
1.0
 70
     8
 71
     3
 72
    23
 73
    19
 74
     0
 42
0.000000001
 43
0.00000001
 40
0.0
 40
0.0
 40
0.0
 40
0.0
 40
0.0733639102323821
 40
0.1432150360881407
 40
0.2103480573254966
 40
0.2752972262276464
 40
0.3383970683033366
 40
0.4001347740118704
 40
0.4611129179292849
 40
0.5217845746348423
 40
0.5817651091707333
 40
0.640634953968838
 40
0.6982679357300758
 40
0.7561799923496174
 40
0.8146311197534748
 40
0.8741584395187495
 40
0.9361303288389577
 40
0.9999999999999999
 40
0.9999999999999999
 40
0.9999999999999999
 40
0.9999999999999999
 10
-0.5177145756323821
 20
-4.337061904907153
 30
0.0
 10
-0.5177611673877973
 20
-4.33863731592174
 30
0.0
 10
-0.517852120008945
 20
-4.341712704687048
 30
0.0
 10
-0.5184698879673652
 20
-4.346192446795646
 30
0.0
 10
-0.519317221188223
 20
-4.350448294195556
 30
0.0
 10
-0.520531696979108
 20
-4.354463582324795
 30
0.0
 10
-0.5219912816515975
 20
-4.358275247572213
 30
0.0
 10
-0.523867824695023
 20
-4.361803654424548
 30
0.0
 10
-0.5259893586933714
 20
-4.36512722347736
 30
0.0
 10
-0.5284574707799939
 20
-4.368155434070454
 30
0.0
 10
-0.5311590908691511
 20
-4.370913760848951
 30
0.0
 10
-0.5341122223446803
 20
-4.373298536478333
 30
0.0
 10
-0.537239022089275
 20
-4.375371741627295
 30
0.0
 10
-0.540586542649584
 20
-4.377046437411768
 30
0.0
 10
-0.5441237996177934
 20
-4.378392141726277
 30
0.0
 10
-0.5478834670319452
 20
-4.37930785747405
 30
0.0
 10
-0.5518192121091228
 20
-4.37994444109497
 30
0.0
 10
-0.5545204423154743
 20
-4.380060869096346
 30
0.0
 10
-0.5558914256722464
 20
-4.380119961006308
 30
0.0
  0
LINE
  5
A3
330
1F
100
AcDbEntity
  8
0
  6
Continuous
 62
     7
370
    25
100
AcDbLine
 10
-0.5558914257
 20
-4.380119961
 30
0.0
 11
-0.5853857496
 21
-4.3801199294
 31
0.0
  0
SPLINE
  5
A4
330
1F
100
AcDbEntity
  8
0
  6
Continuous
 62
     7
370
    25
100
AcDbSpline
210
0.0
220
0.0
230
1.0
 70
     8
 71
     3
 72
    15
 73
    11
 74
     0
 42
0.000000001
 43
0.00000001
 40
0.0
 40
0.0
 40
0.0
 40
0.0
 40
0.1564307179790939
 40
0.2900907343494792
 40
0.4067597059980947
 40
0.5099004148128051
 40
0.6121284059023512
 40
0.7228751060330294
 40
0.8509201539830248
 40
1.0
 40
1.0
 40
1.0
 40
1.0
 10
-0.5853857496194808
 20
-4.380119929438077
 30
0.0
 10
-0.5864947275009772
 20
-4.380077121497822
 30
0.0
 10
-0.5885512558617546
 20
-4.379997736917954
 30
0.0
 10
-0.5913842418650227
 20
-4.37941470936843
 30
0.0
 10
-0.5937451637384522
 20
-4.378519058426879
 30
0.0
 10
-0.5955935797615317
 20
-4.377128841158918
 30
0.0
 10
-0.596944940577455
 20
-4.375301013047022
 30
0.0
 10
-0.5977595710497074
 20
-4.3730035000476
 30
0.0
 10
-0.5982194135812714
 20
-4.370278613186255
 30
0.0
 10
-0.598147626953329
 20
-4.368312135727989
 30
0.0
 10
-0.5981090092048986
 20
-4.36725426556527
 30
0.0
  0
LINE
  5
A5
330
1F
100
AcDbEntity
  8
0
  6
Continuous
 62
     7
370
    25
100
AcDbLine
 10
-0.5981090092
 20
-4.3672542656
 30
0.0
 11
-0.5981218259
 21
-4.2443705091
 31
0.0
  0
SPLINE
  5
A6
330
1F
100
AcDbEntity
  8
0
  6
Continuous
 62
     7
370
    25
100
AcDbSpline
210
0.0
220
0.0
230
1.0
 70
     8
 71
     3
 72
    13
 73
     9
 74
     0
 42
0.000000001
 43
0.00000001
 40
0.0
 40
0.0
 40
0.0
 40
0.0
 40
0.2254366927801684
 40
0.4101035671491273
 40
0.5560146704948398
 40
0.6601258768485015
 40
0.8283186231504064
 40
1.0
 40
1.0
 40
1.0
 40
1.0
 10
-0.5981218259064458
 20
-4.244370509132712
 30
0.0
 10
-0.5981189123627186
 20
-4.243620591542673
 30
0.0
 10
-0.5981136121843807
 20
-4.242256377603264
 30
0.0
 10
-0.5980881379963211
 20
-4.240407122609121
 30
0.0
 10
-0.598027436810573
 20
-4.238961519745112
 30
0.0
 10
-0.5979220434531363
 20
-4.237576018688878
 30
0.0
 10
-0.5975520708912023
 20
-4.236114630883358
 30
0.0
 10
-0.5968911965031083
 20
-4.235186856004019
 30
0.0
 10
-0.5965573675436671
 20
-4.234718207001813
 30
0.0
  0
SPLINE
  5
A7
330
1F
100
AcDbEntity
  8
0
  6
Continuous
 62
     7
370
    25
100
AcDbSpline
210
0.0
220
0.0
230
1.0
 70
     8
 71
     3
 72
    11
 73
     7
 74
     0
 42
0.000000001
 43
0.00000001
 40
0.0
 40
0.0
 40
0.0
 40
0.0
 40
0.2377559247152841
 40
0.4781384068279279
 40
0.7267222368346562
 40
1.0
 40
1.0
 40
1.0
 40
1.0
 10
-0.5965573675436671
 20
-4.234718207001813
 30
0.0
 10
-0.5960954643692662
 20
-4.234216633525351
 30
0.0
 10
-0.5951665552445754
 20
-4.23320794554741
 30
0.0
 10
-0.5933308471187204
 20
-4.232181240544215
 30
0.0
 10
-0.5912326566591232
 20
-4.231546916990376
 30
0.0
 10
-0.5897415963974897
 20
-4.231464255134828
 30
0.0
 10
-0.5889607885772247
 20
-4.231420968471697
 30
0.0
  0
SPLINE
  5
A8
330
1F
100
AcDbEntity
  8
0
  6
Continuous
 62
     7
370
    25
100
AcDbSpline
210
0.0
220
0.0
230
1.0
 70
     8
 71
     3
 72
    15
 73
    11
 74
     0
 42
0.000000001
 43
0.00000001
 40
0.0
 40
0.0
 40
0.0
 40
0.0
 40
0.1302081017934075
 40
0.2456781444820378
 40
0.3472457652086784
 40
0.4456787041721969
 40
0.5515138149455748
 40
0.6760361911154694
 40
0.8259670130947495
 40
1.0
 40
1.0
 40
1.0
 40
1.0
 10
-0.5889607885772247
 20
-4.231420968471697
 30
0.0
 10
-0.5881922856128537
 20
-4.23143138841538
 30
0.0
 10
-0.5867422653782028
 20
-4.231451048884995
 30
0.0
 10
-0.5847449732186797
 20
-4.231972177978371
 30
0.0
 10
-0.5830781586309594
 20
-4.232827902481812
 30
0.0
 10
-0.5817481072291644
 20
-4.234081756277291
 30
0.0
 10
-0.5807951207775257
 20
-4.235794369918962
 30
0.0
 10
-0.5801805983785407
 20
-4.237957280170672
 30
0.0
 10
-0.5798009721579308
 20
-4.24057730704733
 30
0.0
 10
-0.5797874865400714
 20
-4.242485671750405
 30
0.0
 10
-0.5797802420816103
 20
-4.243510843082118
 30
0.0
  0
LINE
  5
A9
330
1F
100
AcDbEntity
  8
0
  6
Continuous
 62
     7
370
    25
100
AcDbLine
 10
-0.5797802421
 20
-4.2435108431
 30
0.0
 11
-0.5797997512
 21
-4.2934866034
 31
0.0
  0
LINE
  5
AA
330
1F
100
AcDbEntity
  8
0
  6
Continuous
 62
     7
370
    25
100
AcDbLine
 10
-0.5797997512
 20
-4.2934866034
 30
0.0
 11
-0.5675244449
 21
-4.2934866034
 31
0.0
  0
LINE
  5
AB
330
1F
100
AcDbEntity
  8
0
  6
Continuous
 62
     7
370
    25
100
AcDbLine
 10
-0.5675244449
 20
-4.2934866034
 30
0.0
 11
-0.5344921115
 21
-4.2366274536
 31
0.0
  0
SPLINE
  5
AC
330
1F
100
AcDbEntity
  8
0
  6
Continuous
 62
     7
370
    25
100
AcDbSpline
210
0.0
220
0.0
230
1.0
 70
     8
 71
     3
 72
    11
 73
     7
 74
     0
 42
0.000000001
 43
0.00000001
 40
0.0
 40
0.0
 40
0.0
 40
0.0
 40
0.2746369767459596
 40
0.4984170982145246
 40
0.721246763169892
 40
0.9999999999999999
 40
0.9999999999999999
 40
0.9999999999999999
 40
0.9999999999999999
 10
-0.5344921114814342
 20
-4.236627453577155
 30
0.0
 10
-0.5340239485119189
 20
-4.235886478229125
 30
0.0
 10
-0.5331743162754962
 20
-4.234541740214633
 30
0.0
 10
-0.5313956081314902
 20
-4.233012349181683
 30
0.0
 10
-0.5291571616946572
 20
-4.232275782211548
 30
0.0
 10
-0.5275577239311702
 20
-4.23222500730741
 30
0.0
 10
-0.5266688410524009
 20
-4.232196789302314
 30
0.0
  0
SPLINE
  5
AD
330
1F
100
AcDbEntity
  8
0
  6
Continuous
 62
     7
370
    25
100
AcDbSpline
210
0.0
220
0.0
230
1.0
 70
     8
 71
     3
 72
    15
 73
    11
 74
     0
 42
0.000000001
 43
0.00000001
 40
0.0
 40
0.0
 40
0.0
 40
0.0
 40
0.1364222668423279
 40
0.2607652175944423
 40
0.3834387897597568
 40
0.5015944510242514
 40
0.6200650546366304
 40
0.7378416734160843
 40
0.8633775803410887
 40
1.0
 40
1.0
 40
1.0
 40
1.0
 10
-0.5266688410524009
 20
-4.232196789302314
 30
0.0
 10
-0.5260083389985563
 20
-4.232226015688484
 30
0.0
 10
-0.524745818108244
 20
-4.23228188065192
 30
0.0
 10
-0.5229410882933199
 20
-4.23276132276785
 30
0.0
 10
-0.5213281382504609
 20
-4.233495461653891
 30
0.0
 10
-0.5198957423883426
 20
-4.234504897589304
 30
0.0
 10
-0.5187715764236264
 20
-4.23581632831956
 30
0.0
 10
-0.5178936511804824
 20
-4.237342119461691
 30
0.0
 10
-0.5173762164185557
 20
-4.239125780550776
 30
0.0
 10
-0.5173011394464775
 20
-4.240393442056795
 30
0.0
 10
-0.5172620134811894
 20
-4.241054077118505
 30
0.0
  0
SPLINE
  5
AE
330
1F
100
AcDbEntity
  8
0
  6
Continuous
 62
     7
370
    25
100
AcDbSpline
210
0.0
220
0.0
230
1.0
 70
     8
 71
     3
 72
    13
 73
     9
 74
     0
 42
0.000000001
 43
0.00000001
 40
0.0
 40
0.0
 40
0.0
 40
0.0
 40
0.1949913141991412
 40
0.3573061563585297
 40
0.4558083649912571
 40
0.5945309576164539
 40
0.7768302762948939
 40
1.0
 40
1.0
 40
1.0
 40
1.0
 10
-0.5172620134811894
 20
-4.241054077118505
 30
0.0
 10
-0.5172588210824567
 20
-4.24155223075751
 30
0.0
 10
-0.5172529712643461
 20
-4.242465057889112
 30
0.0
 10
-0.5175634636293545
 20
-4.243597531812748
 30
0.0
 10
-0.5180056713356408
 20
-4.244515240386723
 30
0.0
 10
-0.5185933587987064
 20
-4.245408178035635
 30
0.0
 10
-0.5192686064828094
 20
-4.246617889032414
 30
0.0
 10
-0.5198508663777054
 20
-4.247470313488672
 30
0.0
 10
-0.5201713415959971
 20
-4.247939486990217
 30
0.0
  0
LINE
  5
AF
330
1F
100
AcDbEntity
  8
0
  6
Continuous
 62
     7
370
    25
100
AcDbLine
 10
-0.5201713416
 20
-4.247939487
 30
0.0
 11
-0.5208622755
 21
-4.2490163425
 31
0.0
  0
SPLINE
  5
B0
330
1F
100
AcDbEntity
  8
0
  6
Continuous
 62
     7
370
    25
100
AcDbSpline
210
0.0
220
0.0
230
1.0
 70
     8
 71
     3
 72
    23
 73
    19
 74
     0
 42
0.000000001
 43
0.00000001
 40
0.0
 40
0.0
 40
0.0
 40
0.0
 40
0.0568769826028469
 40
0.1136529337034217
 40
0.1695911921199778
 40
0.2258355096319337
 40
0.2831880720040662
 40
0.3423909433396565
 40
0.4026536053674628
 40
0.4657091869190856
 40
0.5298110788056135
 40
0.5942690641426461
 40
0.6583514251034268
 40
0.7237868740972767
 40
0.7903629138076589
 40
0.8584028636483364
 40
0.928145632750195
 40
1.0
 40
1.0
 40
1.0
 40
1.0
 10
-0.5452057059505678
 20
-4.294798073916951
 30
0.0
 10
-0.5442237004444179
 20
-4.295094623228886
 30
0.0
 10
-0.5422614337843498
 20
-4.295687195087429
 30
0.0
 10
-0.5394677003879393
 20
-4.296939181176617
 30
0.0
 10
-0.536778820079289
 20
-4.298378285328353
 30
0.0
 10
-0.5342963699416663
 20
-4.300167622965204
 30
0.0
 10
-0.5318745466714503
 20
-4.302128944083048
 30
0.0
 10
-0.5296312252664491
 20
-4.304399180287327
 30
0.0
 10
-0.5275051427427142
 20
-4.306911886358823
 30
0.0
 10
-0.5255529497619761
 20
-4.309672989742638
 30
0.0
 10
-0.5237913907586652
 20
-4.31264493102405
 30
0.0
 10
-0.5221981963008664
 20
-4.315732044805991
 30
0.0
 10
-0.5208646683677891
 20
-4.318967115201866
 30
0.0
 10
-0.5197693227111566
 20
-4.322329476248366
 30
0.0
 10
-0.5188989707247003
 20
-4.325829949060943
 30
0.0
 10
-0.5182433649855044
 20
-4.32945649315112
 30
0.0
 10
-0.5178678996235757
 20
-4.333218666089159
 30
0.0
 10
-0.5177661892222868
 20
-4.335768152046212
 30
0.0
 10
-0.5177145756323819
 20
-4.337061904907153
 30
0.0
  0
SPLINE
  5
B1
330
1F
100
AcDbEntity
  8
0
  6
Continuous
 62
     7
370
    25
100
AcDbSpline
210
0.0
220
0.0
230
1.0
 70
     8
 71
     3
 72
    23
 73
    19
 74
     0
 42
0.000000001
 43
0.00000001
 40
0.0
 40
0.0
 40
0.0
 40
0.0
 40
0.0733639102323821
 40
0.1432150360881407
 40
0.2103480573254966
 40
0.2752972262276464
 40
0.3383970683033366
 40
0.4001347740118704
 40
0.4611129179292849
 40
0.5217845746348423
 40
0.5817651091707333
 40
0.640634953968838
 40
0.6982679357300758
 40
0.7561799923496174
 40
0.8146311197534748
 40
0.8741584395187495
 40
0.9361303288389577
 40
0.9999999999999999
 40
0.9999999999999999
 40
0.9999999999999999
 40
0.9999999999999999
 10
-0.5177145756323819
 20
-4.337061904907153
 30
0.0
 10
-0.5177611673877968
 20
-4.33863731592174
 30
0.0
 10
-0.5178521200089452
 20
-4.341712704687048
 30
0.0
 10
-0.5184698879673646
 20
-4.346192446795646
 30
0.0
 10
-0.5193172211882232
 20
-4.350448294195557
 30
0.0
 10
-0.520531696979108
 20
-4.354463582324799
 30
0.0
 10
-0.5219912816515959
 20
-4.358275247572213
 30
0.0
 10
-0.5238678246950225
 20
-4.361803654424548
 30
0.0
 10
-0.5259893586933714
 20
-4.36512722347736
 30
0.0
 10
-0.5284574707799932
 20
-4.368155434070454
 30
0.0
 10
-0.5311590908691508
 20
-4.370913760848951
 30
0.0
 10
-0.5341122223446784
 20
-4.373298536478332
 30
0.0
 10
-0.5372390220892735
 20
-4.375371741627294
 30
0.0
 10
-0.5405865426495843
 20
-4.377046437411766
 30
0.0
 10
-0.5441237996177929
 20
-4.378392141726276
 30
0.0
 10
-0.547883467031945
 20
-4.379307857474049
 30
0.0
 10
-0.551819212109122
 20
-4.37994444109497
 30
0.0
 10
-0.5545204423154729
 20
-4.380060869096345
 30
0.0
 10
-0.5558914256722456
 20
-4.380119961006306
 30
0.0
  0
SPLINE
  5
B2
330
1F
100
AcDbEntity
  8
0
  6
Continuous
 62
     7
370
    25
100
AcDbSpline
210
0.0
220
0.0
230
1.0
 70
     8
 71
     3
 72
    15
 73
    11
 74
     0
 42
0.000000001
 43
0.00000001
 40
0.0
 40
0.0
 40
0.0
 40
0.0
 40
0.1564307179790939
 40
0.2900907343494792
 40
0.4067597059980947
 40
0.5099004148128051
 40
0.6121284059023512
 40
0.7228751060330294
 40
0.8509201539830248
 40
1.0
 40
1.0
 40
1.0
 40
1.0
 10
-0.58538574961948
 20
-4.380119929438075
 30
0.0
 10
-0.5864947275009761
 20
-4.380077121497822
 30
0.0
 10
-0.5885512558617527
 20
-4.379997736917954
 30
0.0
 10
-0.5913842418650221
 20
-4.379414709368428
 30
0.0
 10
-0.5937451637384511
 20
-4.378519058426879
 30
0.0
 10
-0.5955935797615315
 20
-4.377128841158918
 30
0.0
 10
-0.5969449405774542
 20
-4.375301013047022
 30
0.0
 10
-0.5977595710497071
 20
-4.3730035000476
 30
0.0
 10
-0.5982194135812695
 20
-4.370278613186252
 30
0.0
 10
-0.5981476269533288
 20
-4.368312135727988
 30
0.0
 10
-0.598109009204897
 20
-4.367254265565269
 30
0.0
  0
SPLINE
  5
B3
330
1F
100
AcDbEntity
  8
0
  6
Continuous
 62
     7
370
    25
100
AcDbSpline
210
0.0
220
0.0
230
1.0
 70
     8
 71
     3
 72
    13
 73
     9
 74
     0
 42
0.000000001
 43
0.00000001
 40
0.0
 40
0.0
 40
0.0
 40
0.0
 40
0.2254366927801684
 40
0.4101035671491273
 40
0.5560146704948398
 40
0.6601258768485015
 40
0.8283186231504064
 40
1.0
 40
1.0
 40
1.0
 40
1.0
 10
-0.5981218259064458
 20
-4.244370509132713
 30
0.0
 10
-0.5981189123627181
 20
-4.243620591542671
 30
0.0
 10
-0.5981136121843811
 20
-4.242256377603267
 30
0.0
 10
-0.5980881379963219
 20
-4.240407122609124
 30
0.0
 10
-0.598027436810573
 20
-4.238961519745112
 30
0.0
 10
-0.5979220434531355
 20
-4.237576018688878
 30
0.0
 10
-0.5975520708912023
 20
-4.236114630883359
 30
0.0
 10
-0.5968911965031083
 20
-4.235186856004022
 30
0.0
 10
-0.5965573675436671
 20
-4.234718207001813
 30
0.0
  0
SPLINE
  5
B4
330
1F
100
AcDbEntity
  8
0
  6
Continuous
 62
     7
370
    25
100
AcDbSpline
210
0.0
220
0.0
230
1.0
 70
     8
 71
     3
 72
    11
 73
     7
 74
     0
 42
0.000000001
 43
0.00000001
 40
0.0
 40
0.0
 40
0.0
 40
0.0
 40
0.2377559247152841
 40
0.4781384068279279
 40
0.7267222368346562
 40
1.0
 40
1.0
 40
1.0
 40
1.0
 10
-0.5965573675436671
 20
-4.234718207001813
 30
0.0
 10
-0.5960954643692649
 20
-4.234216633525349
 30
0.0
 10
-0.5951665552445754
 20
-4.233207945547409
 30
0.0
 10
-0.5933308471187202
 20
-4.232181240544215
 30
0.0
 10
-0.5912326566591232
 20
-4.231546916990379
 30
0.0
 10
-0.5897415963974891
 20
-4.23146425513483
 30
0.0
 10
-0.588960788577225
 20
-4.231420968471697
 30
0.0
  0
SPLINE
  5
B5
330
1F
100
AcDbEntity
  8
0
  6
Continuous
 62
     7
370
    25
100
AcDbSpline
210
0.0
220
0.0
230
1.0
 70
     8
 71
     3
 72
    15
 73
    11
 74
     0
 42
0.000000001
 43
0.00000001
 40
0.0
 40
0.0
 40
0.0
 40
0.0
 40
0.1302081017934075
 40
0.2456781444820378
 40
0.3472457652086784
 40
0.4456787041721969
 40
0.5515138149455748
 40
0.6760361911154694
 40
0.8259670130947495
 40
1.0
 40
1.0
 40
1.0
 40
1.0
 10
-0.588960788577225
 20
-4.231420968471697
 30
0.0
 10
-0.5881922856128541
 20
-4.23143138841538
 30
0.0
 10
-0.5867422653782024
 20
-4.231451048884995
 30
0.0
 10
-0.5847449732186799
 20
-4.231972177978371
 30
0.0
 10
-0.5830781586309594
 20
-4.232827902481813
 30
0.0
 10
-0.5817481072291641
 20
-4.234081756277291
 30
0.0
 10
-0.5807951207775263
 20
-4.235794369918962
 30
0.0
 10
-0.5801805983785407
 20
-4.237957280170675
 30
0.0
 10
-0.5798009721579308
 20
-4.240577307047328
 30
0.0
 10
-0.5797874865400711
 20
-4.242485671750408
 30
0.0
 10
-0.57978024208161
 20
-4.243510843082122
 30
0.0
  0
SPLINE
  5
B6
330
1F
100
AcDbEntity
  8
0
  6
Continuous
 62
     7
370
    25
100
AcDbSpline
210
0.0
220
0.0
230
1.0
 70
     8
 71
     3
 72
    11
 73
     7
 74
     0
 42
0.000000001
 43
0.00000001
 40
0.0
 40
0.0
 40
0.0
 40
0.0
 40
0.2746369767459596
 40
0.4984170982145246
 40
0.721246763169892
 40
0.9999999999999999
 40
0.9999999999999999
 40
0.9999999999999999
 40
0.9999999999999999
 10
-0.5344921114814339
 20
-4.236627453577155
 30
0.0
 10
-0.5340239485119191
 20
-4.235886478229125
 30
0.0
 10
-0.5331743162754965
 20
-4.234541740214633
 30
0.0
 10
-0.5313956081314889
 20
-4.233012349181681
 30
0.0
 10
-0.5291571616946561
 20
-4.232275782211547
 30
0.0
 10
-0.5275577239311705
 20
-4.23222500730741
 30
0.0
 10
-0.5266688410523997
 20
-4.23219678930231
 30
0.0
  0
SPLINE
  5
B7
330
1F
100
AcDbEntity
  8
0
  6
Continuous
 62
     7
370
    25
100
AcDbSpline
210
0.0
220
0.0
230
1.0
 70
     8
 71
     3
 72
    15
 73
    11
 74
     0
 42
0.000000001
 43
0.00000001
 40
0.0
 40
0.0
 40
0.0
 40
0.0
 40
0.1364222668423279
 40
0.2607652175944423
 40
0.3834387897597568
 40
0.5015944510242514
 40
0.6200650546366304
 40
0.7378416734160843
 40
0.8633775803410887
 40
1.0
 40
1.0
 40
1.0
 40
1.0
 10
-0.5266688410523997
 20
-4.23219678930231
 30
0.0
 10
-0.5260083389985566
 20
-4.232226015688482
 30
0.0
 10
-0.524745818108244
 20
-4.232281880651915
 30
0.0
 10
-0.5229410882933185
 20
-4.23276132276785
 30
0.0
 10
-0.5213281382504603
 20
-4.233495461653888
 30
0.0
 10
-0.5198957423883428
 20
-4.234504897589304
 30
0.0
 10
-0.518771576423625
 20
-4.23581632831956
 30
0.0
 10
-0.5178936511804824
 20
-4.237342119461691
 30
0.0
 10
-0.5173762164185549
 20
-4.239125780550774
 30
0.0
 10
-0.5173011394464777
 20
-4.240393442056796
 30
0.0
 10
-0.517262013481189
 20
-4.241054077118505
 30
0.0
  0
SPLINE
  5
B8
330
1F
100
AcDbEntity
  8
0
  6
Continuous
 62
     7
370
    25
100
AcDbSpline
210
0.0
220
0.0
230
1.0
 70
     8
 71
     3
 72
    13
 73
     9
 74
     0
 42
0.000000001
 43
0.00000001
 40
0.0
 40
0.0
 40
0.0
 40
0.0
 40
0.1949913141991412
 40
0.3573061563585297
 40
0.4558083649912571
 40
0.5945309576164539
 40
0.7768302762948939
 40
1.0
 40
1.0
 40
1.0
 40
1.0
 10
-0.517262013481189
 20
-4.241054077118505
 30
0.0
 10
-0.5172588210824558
 20
-4.241552230757509
 30
0.0
 10
-0.517252971264347
 20
-4.242465057889116
 30
0.0
 10
-0.517563463629355
 20
-4.243597531812748
 30
0.0
 10
-0.518005671335641
 20
-4.244515240386723
 30
0.0
 10
-0.5185933587987069
 20
-4.245408178035635
 30
0.0
 10
-0.5192686064828099
 20
-4.246617889032414
 30
0.0
 10
-0.5198508663777054
 20
-4.247470313488675
 30
0.0
 10
-0.5201713415959973
 20
-4.247939486990217
 30
0.0
  0
LINE
  5
B9
330
1F
100
AcDbEntity
  8
0
  6
Continuous
 62
     7
370
    25
100
AcDbLine
 10
-0.7475
 20
-3.94
 30
0.0
 11
-0.7475
 21
-4.435
 31
0.0
  0
LINE
  5
BA
330
1F
100
AcDbEntity
  8
0
  6
Continuous
 62
     7
370
    25
100
AcDbLine
 10
-0.7475
 20
-4.435
 30
0.0
 11
-0.2525
 21
-4.435
 31
0.0
  0
LINE
  5
BB
330
1F
100
AcDbEntity
  8
0
  6
Continuous
 62
     7
370
    25
100
AcDbLine
 10
-0.2525
 20
-4.435
 30
0.0
 11
-0.2525
 21
-3.94
 31
0.0
  0
LINE
  5
BC
330
1F
100
AcDbEntity
  8
0
  6
Continuous
 62
     7
370
    25
100
AcDbLine
 10
-0.2525
 20
-3.94
 30
0.0
 11
-0.7475
 21
-3.94
 31
0.0
  0
ENDSEC
  0
SECTION
  2
OBJECTS
  0
DICTIONARY
  5
C
330
0
100
AcDbDictionary
281
     1
  3
ACAD_GROUP
350
D
  3
ACAD_LAYOUT
350
1A
  3
ACAD_MLINESTYLE
350
17
  3
ACAD_PLOTSETTINGS
350
19
  3
ACAD_PLOTSTYLENAME
350
E
  3
ACAD_SCALELIST
350
47
  0
DICTIONARY
  5
D
102
{ACAD_REACTORS
330
C
102
}
330
C
100
AcDbDictionary
281
     1
  0
DICTIONARY
  5
1A
102
{ACAD_REACTORS
330
C
102
}
330
C
100
AcDbDictionary
281
     1
  3
Layout1
350
1E
  3
Layout2
350
26
  3
Model
350
22
  0
DICTIONARY
  5
17
102
{ACAD_REACTORS
330
C
102
}
330
C
100
AcDbDictionary
281
     1
  3
Standard
350
18
  0
DICTIONARY
  5
19
102
{ACAD_REACTORS
330
C
102
}
330
C
100
AcDbDictionary
281
     1
  0
ACDBDICTIONARYWDFLT
  5
E
102
{ACAD_REACTORS
330
C
102
}
330
C
100
AcDbDictionary
281
     1
  3
Normal
350
F
100
AcDbDictionaryWithDefault
340
F
  0
DICTIONARY
  5
47
102
{ACAD_REACTORS
330
C
102
}
330
C
100
AcDbDictionary
281
     1
  3
A0
350
48
  3
A1
350
49
  3
A2
350
4A
  3
A3
350
4B
  3
A4
350
4C
  3
A5
350
4D
  3
A6
350
4E
  3
A7
350
4F
  3
A8
350
50
  3
A9
350
51
  3
B0
350
52
  3
B1
350
53
  3
B2
350
54
  3
B3
350
55
  3
B4
350
56
  3
B5
350
57
  3
B6
350
58
  3
B7
350
59
  3
B8
350
5A
  3
B9
350
5B
  3
C0
350
5C
  3
C1
350
5D
  3
C2
350
5E
  3
C3
350
5F
  3
C4
350
60
  3
C5
350
61
  3
C6
350
62
  3
C7
350
63
  3
C8
350
64
  3
C9
350
65
  3
D0
350
66
  3
D1
350
67
  3
D2
350
68
  0
LAYOUT
  5
1E
102
{ACAD_REACTORS
330
1A
102
}
330
1A
100
AcDbPlotSettings
  1

  2
none_device
  4

  6

 40
0.0
 41
0.0
 42
0.0
 43
0.0
 44
0.0
 45
0.0
 46
0.0
 47
0.0
 48
0.0
 49
0.0
140
0.0
141
0.0
142
1.0
143
1.0
 70
   688
 72
     0
 73
     0
 74
     5
  7

 75
    16
147
1.0
148
0.0
149
0.0
100
AcDbLayout
  1
Layout1
 70
     1
 71
     1
 10
0.0
 20
0.0
 11
12.0
 21
9.0
 12
0.0
 22
0.0
 32
0.0
 14
1.0000000000E+20
 24
1.0000000000E+20
 34
1.0000000000E+20
 15
-1.0000000000E+20
 25
-1.0000000000E+20
 35
-1.0000000000E+20
146
0.0
 13
0.0
 23
0.0
 33
0.0
 16
1.0
 26
0.0
 36
0.0
 17
0.0
 27
1.0
 37
0.0
 76
     0
330
1B
  0
LAYOUT
  5
26
102
{ACAD_REACTORS
330
1A
102
}
330
1A
100
AcDbPlotSettings
  1

  2
none_device
  4

  6

 40
0.0
 41
0.0
 42
0.0
 43
0.0
 44
0.0
 45
0.0
 46
0.0
 47
0.0
 48
0.0
 49
0.0
140
0.0
141
0.0
142
1.0
143
1.0
 70
   688
 72
     0
 73
     0
 74
     5
  7

 75
    16
147
1.0
148
0.0
149
0.0
100
AcDbLayout
  1
Layout2
 70
     1
 71
     2
 10
0.0
 20
0.0
 11
0.0
 21
0.0
 12
0.0
 22
0.0
 32
0.0
 14
0.0
 24
0.0
 34
0.0
 15
0.0
 25
0.0
 35
0.0
146
0.0
 13
0.0
 23
0.0
 33
0.0
 16
1.0
 26
0.0
 36
0.0
 17
0.0
 27
1.0
 37
0.0
 76
     0
330
23
  0
LAYOUT
  5
22
102
{ACAD_REACTORS
330
1A
102
}
330
1A
100
AcDbPlotSettings
  1

  2
none_device
  4
ANSI_A_(11.00_x_8.50_Inches)
  6

 40
6.35
 41
19.05
 42
6.35000508
 43
19.05000254
 44
279.4
 45
215.9
 46
349.24999746
 47
1897.06249873
 48
0.0
 49
0.0
140
0.0
141
0.0
142
17.0
143
1.0
 70
  1696
 72
     0
 73
     0
 74
     0
  7

 75
     0
147
0.5913241897
148
-39.4088153714
149
0.0
100
AcDbLayout
  1
Model
 70
     1
 71
     0
 10
0.0
 20
0.0
 11
12.0
 21
9.0
 12
0.0
 22
0.0
 32
0.0
 14
-0.7475
 24
-4.435
 34
0.0
 15
-0.2525
 25
-3.94
 35
0.0
146
0.0
 13
0.0
 23
0.0
 33
0.0
 16
1.0
 26
0.0
 36
0.0
 17
0.0
 27
1.0
 37
0.0
 76
     0
330
1F
331
29
  0
MLINESTYLE
  5
18
102
{ACAD_REACTORS
330
17
102
}
330
17
100
AcDbMlineStyle
  2
Standard
 70
     0
  3

 62
   256
 51
90.0
 52
90.0
 71
     2
 49
0.5
 62
   256
  6
BYLAYER
 49
-0.5
 62
   256
  6
BYLAYER
  0
ACDBPLACEHOLDER
  5
F
102
{ACAD_REACTORS
330
E
102
}
330
E
  0
SCALE
  5
48
102
{ACAD_REACTORS
330
47
102
}
330
47
100
AcDbScale
 70
     0
300
1:1
140
1.0
141
1.0
290
     1
  0
SCALE
  5
49
102
{ACAD_REACTORS
330
47
102
}
330
47
100
AcDbScale
 70
     0
300
1:2
140
1.0
141
2.0
290
     0
  0
SCALE
  5
4A
102
{ACAD_REACTORS
330
47
102
}
330
47
100
AcDbScale
 70
     0
300
1:4
140
1.0
141
4.0
290
     0
  0
SCALE
  5
4B
102
{ACAD_REACTORS
330
47
102
}
330
47
100
AcDbScale
 70
     0
300
1:5
140
1.0
141
5.0
290
     0
  0
SCALE
  5
4C
102
{ACAD_REACTORS
330
47
102
}
330
47
100
AcDbScale
 70
     0
300
1:8
140
1.0
141
8.0
290
     0
  0
SCALE
  5
4D
102
{ACAD_REACTORS
330
47
102
}
330
47
100
AcDbScale
 70
     0
300
1:10
140
1.0
141
10.0
290
     0
  0
SCALE
  5
4E
102
{ACAD_REACTORS
330
47
102
}
330
47
100
AcDbScale
 70
     0
300
1:16
140
1.0
141
16.0
290
     0
  0
SCALE
  5
4F
102
{ACAD_REACTORS
330
47
102
}
330
47
100
AcDbScale
 70
     0
300
1:20
140
1.0
141
20.0
290
     0
  0
SCALE
  5
50
102
{ACAD_REACTORS
330
47
102
}
330
47
100
AcDbScale
 70
     0
300
1:30
140
1.0
141
30.0
290
     0
  0
SCALE
  5
51
102
{ACAD_REACTORS
330
47
102
}
330
47
100
AcDbScale
 70
     0
300
1:40
140
1.0
141
40.0
290
     0
  0
SCALE
  5
52
102
{ACAD_REACTORS
330
47
102
}
330
47
100
AcDbScale
 70
     0
300
1:50
140
1.0
141
50.0
290
     0
  0
SCALE
  5
53
102
{ACAD_REACTORS
330
47
102
}
330
47
100
AcDbScale
 70
     0
300
1:100
140
1.0
141
100.0
290
     0
  0
SCALE
  5
54
102
{ACAD_REACTORS
330
47
102
}
330
47
100
AcDbScale
 70
     0
300
2:1
140
2.0
141
1.0
290
     0
  0
SCALE
  5
55
102
{ACAD_REACTORS
330
47
102
}
330
47
100
AcDbScale
 70
     0
300
4:1
140
4.0
141
1.0
290
     0
  0
SCALE
  5
56
102
{ACAD_REACTORS
330
47
102
}
330
47
100
AcDbScale
 70
     0
300
8:1
140
8.0
141
1.0
290
     0
  0
SCALE
  5
57
102
{ACAD_REACTORS
330
47
102
}
330
47
100
AcDbScale
 70
     0
300
10:1
140
10.0
141
1.0
290
     0
  0
SCALE
  5
58
102
{ACAD_REACTORS
330
47
102
}
330
47
100
AcDbScale
 70
     0
300
100:1
140
100.0
141
1.0
290
     0
  0
SCALE
  5
59
102
{ACAD_REACTORS
330
47
102
}
330
47
100
AcDbScale
 70
     0
300
1/128" = 1'-0"
140
0.0078125
141
12.0
290
     0
  0
SCALE
  5
5A
102
{ACAD_REACTORS
330
47
102
}
330
47
100
AcDbScale
 70
     0
300
1/64" = 1'-0"
140
0.015625
141
12.0
290
     0
  0
SCALE
  5
5B
102
{ACAD_REACTORS
330
47
102
}
330
47
100
AcDbScale
 70
     0
300
1/32" = 1'-0"
140
0.03125
141
12.0
290
     0
  0
SCALE
  5
5C
102
{ACAD_REACTORS
330
47
102
}
330
47
100
AcDbScale
 70
     0
300
1/16" = 1'-0"
140
0.0625
141
12.0
290
     0
  0
SCALE
  5
5D
102
{ACAD_REACTORS
330
47
102
}
330
47
100
AcDbScale
 70
     0
300
3/32" = 1'-0"
140
0.09375
141
12.0
290
     0
  0
SCALE
  5
5E
102
{ACAD_REACTORS
330
47
102
}
330
47
100
AcDbScale
 70
     0
300
1/8" = 1'-0"
140
0.125
141
12.0
290
     0
  0
SCALE
  5
5F
102
{ACAD_REACTORS
330
47
102
}
330
47
100
AcDbScale
 70
     0
300
3/16" = 1'-0"
140
0.1875
141
12.0
290
     0
  0
SCALE
  5
60
102
{ACAD_REACTORS
330
47
102
}
330
47
100
AcDbScale
 70
     0
300
1/4" = 1'-0"
140
0.25
141
12.0
290
     0
  0
SCALE
  5
61
102
{ACAD_REACTORS
330
47
102
}
330
47
100
AcDbScale
 70
     0
300
3/8" = 1'-0"
140
0.375
141
12.0
290
     0
  0
SCALE
  5
62
102
{ACAD_REACTORS
330
47
102
}
330
47
100
AcDbScale
 70
     0
300
1/2" = 1'-0"
140
0.5
141
12.0
290
     0
  0
SCALE
  5
63
102
{ACAD_REACTORS
330
47
102
}
330
47
100
AcDbScale
 70
     0
300
3/4" = 1'-0"
140
0.75
141
12.0
290
     0
  0
SCALE
  5
64
102
{ACAD_REACTORS
330
47
102
}
330
47
100
AcDbScale
 70
     0
300
1" = 1'-0"
140
1.0
141
12.0
290
     0
  0
SCALE
  5
65
102
{ACAD_REACTORS
330
47
102
}
330
47
100
AcDbScale
 70
     0
300
1-1/2" = 1'-0"
140
1.5
141
12.0
290
     0
  0
SCALE
  5
66
102
{ACAD_REACTORS
330
47
102
}
330
47
100
AcDbScale
 70
     0
300
3" = 1'-0"
140
3.0
141
12.0
290
     0
  0
SCALE
  5
67
102
{ACAD_REACTORS
330
47
102
}
330
47
100
AcDbScale
 70
     0
300
6" = 1'-0"
140
6.0
141
12.0
290
     0
  0
SCALE
  5
68
102
{ACAD_REACTORS
330
47
102
}
330
47
100
AcDbScale
 70
     0
300
1'-0" = 1'-0"
140
12.0
141
12.0
290
     0
  0
ENDSEC
  0
EOF
