  0
SECTION
  2
HEADER
  9
$ACADVER
  1
AC1015
  9
$ACADMAINTVER
 70
     6
  9
$DWGCODEPAGE
  3
ANSI_1252
  9
$INSBASE
 10
0.0
 20
0.0
 30
0.0
  9
$EXTMIN
 10
-0.7475
 20
3.94
 30
0.0
  9
$EXTMAX
 10
-0.2525
 20
4.435
 30
0.0
  9
$LIMMIN
 10
0.0
 20
0.0
  9
$LIMMAX
 10
12.0
 20
9.0
  9
$ORTHOMODE
 70
     0
  9
$REGENMODE
 70
     1
  9
$FILLMODE
 70
     1
  9
$QTEXTMODE
 70
     0
  9
$MIRRTEXT
 70
     1
  9
$LTSCALE
 40
1.0
  9
$ATTMODE
 70
     1
  9
$TEXTSIZE
 40
0.1377952756
  9
$TRACEWID
 40
0.05
  9
$TEXTSTYLE
  7
Standard
  9
$CLAYER
  8
0
  9
$CELTYPE
  6
ByLayer
  9
$CECOLOR
 62
   256
  9
$CELTSCALE
 40
1.0
  9
$DISPSILH
 70
     0
  9
$DIMSCALE
 40
1.0
  9
$DIMASZ
 40
0.14
  9
$DIMEXO
 40
0.0393700787
  9
$DIMDLI
 40
0.38
  9
$DIMRND
 40
0.0
  9
$DIMDLE
 40
0.0
  9
$DIMEXE
 40
0.0393700787
  9
$DIMTP
 40
0.0
  9
$DIMTM
 40
0.0
  9
$DIMTXT
 40
0.1377952756
  9
$DIMCEN
 40
0.09
  9
$DIMTSZ
 40
0.0
  9
$DIMTOL
 70
     0
  9
$DIMLIM
 70
     0
  9
$DIMTIH
 70
     1
  9
$DIMTOH
 70
     1
  9
$DIMSE1
 70
     0
  9
$DIMSE2
 70
     0
  9
$DIMTAD
 70
     1
  9
$DIMZIN
 70
     0
  9
$DIMBLK
  1

  9
$DIMASO
 70
     1
  9
$DIMSHO
 70
     1
  9
$DIMPOST
  1

  9
$DIMAPOST
  1

  9
$DIMALT
 70
     0
  9
$DIMALTD
 70
     2
  9
$DIMALTF
 40
25.4
  9
$DIMLFAC
 40
1.0
  9
$DIMTOFL
 70
     0
  9
$DIMTVP
 40
0.0
  9
$DIMTIX
 70
     0
  9
$DIMSOXD
 70
     0
  9
$DIMSAH
 70
     0
  9
$DIMBLK1
  1

  9
$DIMBLK2
  1

  9
$DIMSTYLE
  2
Standard
  9
$DIMCLRD
 70
     0
  9
$DIMCLRE
 70
     0
  9
$DIMCLRT
 70
     0
  9
$DIMTFAC
 40
1.0
  9
$DIMGAP
 40
0.06
  9
$DIMJUST
 70
     0
  9
$DIMSD1
 70
     0
  9
$DIMSD2
 70
     0
  9
$DIMTOLJ
 70
     1
  9
$DIMTZIN
 70
     0
  9
$DIMALTZ
 70
     0
  9
$DIMALTTZ
 70
     0
  9
$DIMUPT
 70
     0
  9
$DIMDEC
 70
     2
  9
$DIMTDEC
 70
     2
  9
$DIMALTU
 70
     2
  9
$DIMALTTD
 70
     2
  9
$DIMTXSTY
  7
Standard
  9
$DIMAUNIT
 70
     0
  9
$DIMADEC
 70
     2
  9
$DIMALTRND
 40
0.0
  9
$DIMAZIN
 70
     0
  9
$DIMDSEP
 70
    46
  9
$DIMATFIT
 70
     3
  9
$DIMFRAC
 70
     0
  9
$DIMLDRBLK
  1

  9
$DIMLUNIT
 70
     2
  9
$DIMLWD
 70
    -2
  9
$DIMLWE
 70
    -2
  9
$DIMTMOVE
 70
     0
  9
$LUNITS
 70
     2
  9
$LUPREC
 70
     2
  9
$SKETCHINC
 40
0.1
  9
$FILLETRAD
 40
0.5
  9
$AUNITS
 70
     0
  9
$AUPREC
 70
     2
  9
$MENU
  1
.
  9
$ELEVATION
 40
0.0
  9
$PELEVATION
 40
0.0
  9
$THICKNESS
 40
0.0
  9
$LIMCHECK
 70
     0
  9
$CHAMFERA
 40
0.0
  9
$CHAMFERB
 40
0.0
  9
$CHAMFERC
 40
0.0
  9
$CHAMFERD
 40
0.0
  9
$SKPOLY
 70
     0
  9
$TDCREATE
 40
2459392.337036308
  9
$TDUCREATE
 40
2459391.920369641
  9
$TDUPDATE
 40
2459392.33706581
  9
$TDUUPDATE
 40
2459391.920399143
  9
$TDINDWG
 40
0.0000000116
  9
$TDUSRTIMER
 40
0.0000000116
  9
$USRTIMER
 70
     1
  9
$ANGBASE
 50
0.0
  9
$ANGDIR
 70
     0
  9
$PDMODE
 70
     0
  9
$PDSIZE
 40
-1.0
  9
$PLINEWID
 40
0.0
  9
$SPLFRAME
 70
     0
  9
$SPLINETYPE
 70
     6
  9
$SPLINESEGS
 70
     8
  9
$HANDSEED
  5
FF
  9
$SURFTAB1
 70
     6
  9
$SURFTAB2
 70
     6
  9
$SURFTYPE
 70
     6
  9
$SURFU
 70
     6
  9
$SURFV
 70
     6
  9
$UCSBASE
  2

  9
$UCSNAME
  2

  9
$UCSORG
 10
0.0
 20
0.0
 30
0.0
  9
$UCSXDIR
 10
1.0
 20
0.0
 30
0.0
  9
$UCSYDIR
 10
0.0
 20
1.0
 30
0.0
  9
$UCSORTHOREF
  2

  9
$UCSORTHOVIEW
 70
     0
  9
$UCSORGTOP
 10
0.0
 20
0.0
 30
0.0
  9
$UCSORGBOTTOM
 10
0.0
 20
0.0
 30
0.0
  9
$UCSORGLEFT
 10
0.0
 20
0.0
 30
0.0
  9
$UCSORGRIGHT
 10
0.0
 20
0.0
 30
0.0
  9
$UCSORGFRONT
 10
0.0
 20
0.0
 30
0.0
  9
$UCSORGBACK
 10
0.0
 20
0.0
 30
0.0
  9
$PUCSBASE
  2

  9
$PUCSNAME
  2

  9
$PUCSORG
 10
0.0
 20
0.0
 30
0.0
  9
$PUCSXDIR
 10
1.0
 20
0.0
 30
0.0
  9
$PUCSYDIR
 10
0.0
 20
1.0
 30
0.0
  9
$PUCSORTHOREF
  2

  9
$PUCSORTHOVIEW
 70
     0
  9
$PUCSORGTOP
 10
0.0
 20
0.0
 30
0.0
  9
$PUCSORGBOTTOM
 10
0.0
 20
0.0
 30
0.0
  9
$PUCSORGLEFT
 10
0.0
 20
0.0
 30
0.0
  9
$PUCSORGRIGHT
 10
0.0
 20
0.0
 30
0.0
  9
$PUCSORGFRONT
 10
0.0
 20
0.0
 30
0.0
  9
$PUCSORGBACK
 10
0.0
 20
0.0
 30
0.0
  9
$USERI1
 70
     0
  9
$USERI2
 70
     0
  9
$USERI3
 70
     0
  9
$USERI4
 70
     0
  9
$USERI5
 70
     0
  9
$USERR1
 40
0.0
  9
$USERR2
 40
0.0
  9
$USERR3
 40
0.0
  9
$USERR4
 40
0.0
  9
$USERR5
 40
0.0
  9
$WORLDVIEW
 70
     1
  9
$SHADEDGE
 70
     3
  9
$SHADEDIF
 70
    70
  9
$TILEMODE
 70
     1
  9
$MAXACTVP
 70
    64
  9
$PINSBASE
 10
0.0
 20
0.0
 30
0.0
  9
$PLIMCHECK
 70
     0
  9
$PEXTMIN
 10
1.0000000000E+20
 20
1.0000000000E+20
 30
1.0000000000E+20
  9
$PEXTMAX
 10
-1.0000000000E+20
 20
-1.0000000000E+20
 30
-1.0000000000E+20
  9
$PLIMMIN
 10
0.0
 20
0.0
  9
$PLIMMAX
 10
12.0
 20
9.0
  9
$UNITMODE
 70
     0
  9
$VISRETAIN
 70
     1
  9
$PLINEGEN
 70
     0
  9
$PSLTSCALE
 70
     1
  9
$TREEDEPTH
 70
  3020
  9
$CMLSTYLE
  2
Standard
  9
$CMLJUST
 70
     0
  9
$CMLSCALE
 40
1.0
  9
$PROXYGRAPHICS
 70
     1
  9
$MEASUREMENT
 70
     0
  9
$CELWEIGHT
370
    -1
  9
$ENDCAPS
280
     0
  9
$JOINSTYLE
280
     0
  9
$LWDISPLAY
290
     1
  9
$INSUNITS
 70
     1
  9
$HYPERLINKBASE
  1

  9
$STYLESHEET
  1

  9
$XEDIT
290
     1
  9
$CEPSNTYPE
380
     0
  9
$PSTYLEMODE
290
     1
  9
$FINGERPRINTGUID
  2
{e9ee2ae6-6ff3-45bb-bd29-6564e875bd41}
  9
$VERSIONGUID
  2
{FAEB1C32-E019-11D5-929B-00C0DF256EC4}
  9
$EXTNAMES
290
     1
  9
$PSVPSCALE
 40
0.0
  9
$OLESTARTUP
290
     0
  0
ENDSEC
  0
SECTION
  2
CLASSES
  0
CLASS
  1
ACDBDICTIONARYWDFLT
  2
AcDbDictionaryWithDefault
  3
ObjectDBX Classes
 90
        0
280
     0
281
     0
  0
CLASS
  1
VISUALSTYLE
  2
AcDbVisualStyle
  3
ObjectDBX Classes
 90
     4095
280
     0
281
     0
  0
CLASS
  1
MATERIAL
  2
AcDbMaterial
  3
ObjectDBX Classes
 90
     1153
280
     0
281
     0
  0
CLASS
  1
SCALE
  2
AcDbScale
  3
ObjectDBX Classes
 90
     1153
280
     0
281
     0
  0
CLASS
  1
TABLESTYLE
  2
AcDbTableStyle
  3
ObjectDBX Classes
 90
     4095
280
     0
281
     0
  0
CLASS
  1
MLEADERSTYLE
  2
AcDbMLeaderStyle
  3
ACDB_MLEADERSTYLE_CLASS
 90
     4095
280
     0
281
     0
  0
CLASS
  1
SUN
  2
AcDbSun
  3
SCENEOE
 90
     1153
280
     0
281
     0
  0
CLASS
  1
ACDBPLACEHOLDER
  2
AcDbPlaceHolder
  3
ObjectDBX Classes
 90
        0
280
     0
281
     0
  0
CLASS
  1
LAYOUT
  2
AcDbLayout
  3
ObjectDBX Classes
 90
        0
280
     0
281
     0
  0
ENDSEC
  0
SECTION
  2
TABLES
  0
TABLE
  2
VPORT
  5
8
330
0
100
AcDbSymbolTable
 70
     1
  0
VPORT
  5
29
330
8
100
AcDbSymbolTableRecord
100
AcDbViewportTableRecord
  2
*Active
 70
     0
 10
0.0
 20
0.0
 11
1.0
 21
1.0
 12
-0.5
 22
4.1875
 13
0.0
 23
0.0
 14
0.5
 24
0.5
 15
0.5
 25
0.5
 16
0.0
 26
0.0
 36
1.0
 17
0.0
 27
0.0
 37
0.0
 40
0.5049
 41
1.0
 42
50.0
 43
0.0
 44
0.0
 50
0.0
 51
0.0
 71
     0
 72
   100
 73
     1
 74
     3
 75
     0
 76
     0
 77
     0
 78
     0
281
     0
 65
     1
110
0.0
120
0.0
130
0.0
111
1.0
121
0.0
131
0.0
112
0.0
122
1.0
132
0.0
 79
     0
146
0.0
  0
ENDTAB
  0
TABLE
  2
LTYPE
  5
5
330
0
100
AcDbSymbolTable
 70
     6
  0
LTYPE
  5
14
330
5
100
AcDbSymbolTableRecord
100
AcDbLinetypeTableRecord
  2
ByBlock
 70
     0
  3

 72
    65
 73
     0
 40
0.0
  0
LTYPE
  5
15
330
5
100
AcDbSymbolTableRecord
100
AcDbLinetypeTableRecord
  2
ByLayer
 70
     0
  3

 72
    65
 73
     0
 40
0.0
  0
LTYPE
  5
16
330
5
100
AcDbSymbolTableRecord
100
AcDbLinetypeTableRecord
  2
Continuous
 70
     0
  3
Solid line
 72
    65
 73
     0
 40
0.0
  0
LTYPE
  5
6E
330
5
100
AcDbSymbolTableRecord
100
AcDbLinetypeTableRecord
  2
HIDDEN
 70
     0
  3
Hidden __ __ __ __ __ __ __ __ __ __ __ __ __ __
 72
    65
 73
     2
 40
0.075
 49
0.05
 74
     0
 49
-0.025
 74
     0
  0
LTYPE
  5
6F
330
5
100
AcDbSymbolTableRecord
100
AcDbLinetypeTableRecord
  2
PHANTOM
 70
     0
  3
Phantom ______  __  __  ______  __  __  ______
 72
    65
 73
     6
 40
0.5
 49
0.25
 74
     0
 49
-0.05
 74
     0
 49
0.05
 74
     0
 49
-0.05
 74
     0
 49
0.05
 74
     0
 49
-0.05
 74
     0
  0
LTYPE
  5
70
330
5
100
AcDbSymbolTableRecord
100
AcDbLinetypeTableRecord
  2
CENTER
 70
     0
  3
Center ____ _ ____ _ ____ _ ____ _ ____ _ ____
 72
    65
 73
     4
 40
0.4
 49
0.25
 74
     0
 49
-0.05
 74
     0
 49
0.05
 74
     0
 49
-0.05
 74
     0
  0
LTYPE
  5
71
330
5
100
AcDbSymbolTableRecord
100
AcDbLinetypeTableRecord
  2
CENTERX2
 70
     0
  3
Center (2x) ________  __  ________  __  _____
 72
    65
 73
     4
 40
0.8
 49
0.5
 74
     0
 49
-0.1
 74
     0
 49
0.1
 74
     0
 49
-0.1
 74
     0
  0
LTYPE
  5
72
330
5
100
AcDbSymbolTableRecord
100
AcDbLinetypeTableRecord
  2
DOT2
 70
     0
  3
Dot (.5x) ........................................
 72
    65
 73
     2
 40
0.025
 49
0.0
 74
     0
 49
-0.025
 74
     0
  0
ENDTAB
  0
TABLE
  2
LAYER
  5
2
330
0
100
AcDbSymbolTable
 70
     1
  0
LAYER
  5
10
330
2
100
AcDbSymbolTableRecord
100
AcDbLayerTableRecord
  2
0
 70
     0
 62
     7
  6
Continuous
370
    -3
390
F
  0
ENDTAB
  0
TABLE
  2
STYLE
  5
3
330
0
100
AcDbSymbolTable
 70
     1
  0
STYLE
  5
11
330
3
100
AcDbSymbolTableRecord
100
AcDbTextStyleTableRecord
  2
Standard
 70
     0
 40
0.0
 41
1.0
 50
0.0
 71
     0
 42
0.1377952756
  3
txt
  4

  0
ENDTAB
  0
TABLE
  2
VIEW
  5
6
330
0
100
AcDbSymbolTable
 70
     0
  0
ENDTAB
  0
TABLE
  2
UCS
  5
7
330
0
100
AcDbSymbolTable
 70
     0
  0
ENDTAB
  0
TABLE
  2
APPID
  5
9
330
0
100
AcDbSymbolTable
 70
     1
  0
APPID
  5
12
330
9
100
AcDbSymbolTableRecord
100
AcDbRegAppTableRecord
  2
ACAD
 70
     0
  0
ENDTAB
  0
TABLE
  2
DIMSTYLE
  5
A
330
0
100
AcDbSymbolTable
 70
     1
100
AcDbDimStyleTable
  0
DIMSTYLE
105
27
330
A
100
AcDbSymbolTableRecord
100
AcDbDimStyleTableRecord
  2
Standard
 70
     0
178
     0
340
11
  0
ENDTAB
  0
TABLE
  2
BLOCK_RECORD
  5
1
330
0
100
AcDbSymbolTable
 70
     1
  0
BLOCK_RECORD
  5
1F
330
1
100
AcDbSymbolTableRecord
100
AcDbBlockTableRecord
  2
*Model_Space
340
22
  0
BLOCK_RECORD
  5
1B
330
1
100
AcDbSymbolTableRecord
100
AcDbBlockTableRecord
  2
*Paper_Space
340
1E
  0
BLOCK_RECORD
  5
23
330
1
100
AcDbSymbolTableRecord
100
AcDbBlockTableRecord
  2
*Paper_Space0
340
26
  0
ENDTAB
  0
ENDSEC
  0
SECTION
  2
BLOCKS
  0
BLOCK
  5
20
330
1F
100
AcDbEntity
  8
0
100
AcDbBlockBegin
  2
*Model_Space
 70
     0
 10
0.0
 20
0.0
 30
0.0
  3
*Model_Space
  1

  0
ENDBLK
  5
21
330
1F
100
AcDbEntity
  8
0
100
AcDbBlockEnd
  0
BLOCK
  5
1C
330
1B
100
AcDbEntity
 67
     1
  8
0
100
AcDbBlockBegin
  2
*Paper_Space
 70
     0
 10
0.0
 20
0.0
 30
0.0
  3
*Paper_Space
  1

  0
ENDBLK
  5
1D
330
1B
100
AcDbEntity
 67
     1
  8
0
100
AcDbBlockEnd
  0
BLOCK
  5
24
330
23
100
AcDbEntity
  8
0
100
AcDbBlockBegin
  2
*Paper_Space0
 70
     0
 10
0.0
 20
0.0
 30
0.0
  3
*Paper_Space0
  1

  0
ENDBLK
  5
25
330
23
100
AcDbEntity
  8
0
100
AcDbBlockEnd
  0
ENDSEC
  0
SECTION
  2
ENTITIES
  0
SPLINE
  5
73
330
1F
100
AcDbEntity
  8
0
  6
Continuous
 62
     7
370
    25
100
AcDbSpline
210
0.0
220
0.0
230
1.0
 70
     8
 71
     3
 72
    15
 73
    11
 74
     0
 42
0.000000001
 43
0.00000001
 40
0.0
 40
0.0
 40
0.0
 40
0.0
 40
0.135495940365862
 40
0.2550881728309047
 40
0.3679802700004717
 40
0.4760219537734006
 40
0.5872576753669786
 40
0.7093205591184782
 40
0.8451409397623012
 40
1.0
 40
1.0
 40
1.0
 40
1.0
 10
-0.4215156211495241
 20
4.117098377511992
 30
0.0
 10
-0.4215456193178398
 20
4.117705321245155
 30
0.0
 10
-0.4216020946478251
 20
4.118847969264615
 30
0.0
 10
-0.4220291616553939
 20
4.120452531514689
 30
0.0
 10
-0.4227371547845832
 20
4.12181848663848
 30
0.0
 10
-0.4237465271881763
 20
4.122931113886386
 30
0.0
 10
-0.4250246675204576
 20
4.123793682187265
 30
0.0
 10
-0.4265787969162887
 20
4.124383870964444
 30
0.0
 10
-0.4283974592744244
 20
4.124753158159093
 30
0.0
 10
-0.429699468867443
 20
4.124796910316727
 30
0.0
 10
-0.4303931126331802
 20
4.12482021921671
 30
0.0
  0
SPLINE
  5
75
330
1F
100
AcDbEntity
  8
0
  6
Continuous
 62
     7
370
    25
100
AcDbSpline
210
0.0
220
0.0
230
1.0
 70
     8
 71
     3
 72
    15
 73
    11
 74
     0
 42
0.000000001
 43
0.00000001
 40
0.0
 40
0.0
 40
0.0
 40
0.0
 40
0.1673234491558198
 40
0.3131214272714655
 40
0.4422873465253582
 40
0.5565283486537153
 40
0.6621669046812937
 40
0.7665969560301309
 40
0.8767264119534983
 40
1.0
 40
1.0
 40
1.0
 40
1.0
 10
-0.4810989138812293
 20
4.124820193567523
 30
0.0
 10
-0.4818747786023632
 20
4.124817225598986
 30
0.0
 10
-0.4833266962509453
 20
4.124811671478811
 30
0.0
 10
-0.4853536563405096
 20
4.124458235733682
 30
0.0
 10
-0.4870765363350565
 20
4.123920860384587
 30
0.0
 10
-0.4885320536901592
 20
4.123174992429362
 30
0.0
 10
-0.4896064083118674
 20
4.122100245781798
 30
0.0
 10
-0.49040930234447
 20
4.120835262078209
 30
0.0
 10
-0.4908197443201627
 20
4.119302515335091
 30
0.0
 10
-0.4908597456485005
 20
4.118221096954226
 30
0.0
 10
-0.4908808726534744
 20
4.117649937633757
 30
0.0
  0
SPLINE
  5
76
330
1F
100
AcDbEntity
  8
0
  6
Continuous
 62
     7
370
    25
100
AcDbSpline
210
0.0
220
0.0
230
1.0
 70
     8
 71
     3
 72
    15
 73
    11
 74
     0
 42
0.000000001
 43
0.00000001
 40
0.0
 40
0.0
 40
0.0
 40
0.0
 40
0.1336779497300707
 40
0.2516655764914465
 40
0.3630429657298786
 40
0.4709376199667193
 40
0.5833636425898274
 40
0.7055850000892852
 40
0.8433660933409329
 40
1.0
 40
1.0
 40
1.0
 40
1.0
 10
-0.4908808726534744
 20
4.117649937633757
 30
0.0
 10
-0.4908510391129722
 20
4.117042831783618
 30
0.0
 10
-0.4907948737155794
 20
4.115899878558534
 30
0.0
 10
-0.4903657286571886
 20
4.114297362665688
 30
0.0
 10
-0.4896621803733611
 20
4.11291903108086
 30
0.0
 10
-0.4886124865349133
 20
4.111819922334694
 30
0.0
 10
-0.4873275793831001
 20
4.110923136469363
 30
0.0
 10
-0.4857287230432396
 20
4.11033646537285
 30
0.0
 10
-0.483867460118832
 20
4.109969395451217
 30
0.0
 10
-0.4825307048670357
 20
4.109925293935595
 30
0.0
 10
-0.4818195277958967
 20
4.109901831161336
 30
0.0
  0
SPLINE
  5
79
330
1F
100
AcDbEntity
  8
0
  6
Continuous
 62
     7
370
    25
100
AcDbSpline
210
0.0
220
0.0
230
1.0
 70
     8
 71
     3
 72
    13
 73
     9
 74
     0
 42
0.000000001
 43
0.00000001
 40
0.0
 40
0.0
 40
0.0
 40
0.0
 40
0.2160606916600639
 40
0.3956857329515563
 40
0.5389699352119348
 40
0.6499175706163313
 40
0.8275943098937043
 40
1.0
 40
1.0
 40
1.0
 40
1.0
 10
-0.4636705989622252
 20
4.01411417204967
 30
0.0
 10
-0.4636760578534683
 20
4.013544970221899
 30
0.0
 10
-0.4636860550693709
 20
4.01250255459003
 30
0.0
 10
-0.463624740190242
 20
4.011084704929404
 30
0.0
 10
-0.4635642582807178
 20
4.0099416863683
 30
0.0
 10
-0.4633944005332458
 20
4.008818974072692
 30
0.0
 10
-0.463075612533968
 20
4.007622319699254
 30
0.0
 10
-0.4625063545419884
 20
4.006886215815089
 30
0.0
 10
-0.4622260110893662
 20
4.006523705481841
 30
0.0
  0
SPLINE
  5
7A
330
1F
100
AcDbEntity
  8
0
  6
Continuous
 62
     7
370
    25
100
AcDbSpline
210
0.0
220
0.0
230
1.0
 70
     8
 71
     3
 72
    11
 73
     7
 74
     0
 42
0.000000001
 43
0.00000001
 40
0.0
 40
0.0
 40
0.0
 40
0.0
 40
0.2407611833295564
 40
0.4792213546018239
 40
0.728437126505436
 40
1.0
 40
1.0
 40
1.0
 40
1.0
 10
-0.4622260110893662
 20
4.006523705481841
 30
0.0
 10
-0.4618292414283475
 20
4.006145827889027
 30
0.0
 10
-0.4610394941286005
 20
4.005393684169683
 30
0.0
 10
-0.4595732537055168
 20
4.004592317646273
 30
0.0
 10
-0.4579041473230745
 20
4.004113612740491
 30
0.0
 10
-0.4567224978147262
 20
4.004040442700146
 30
0.0
 10
-0.4561063202145386
 20
4.004002287782342
 30
0.0
  0
SPLINE
  5
7B
330
1F
100
AcDbEntity
  8
0
  6
Continuous
 62
     7
370
    25
100
AcDbSpline
210
0.0
220
0.0
230
1.0
 70
     8
 71
     3
 72
    15
 73
    11
 74
     0
 42
0.000000001
 43
0.00000001
 40
0.0
 40
0.0
 40
0.0
 40
0.0
 40
0.1303467995430257
 40
0.2446685053732315
 40
0.3509523963440508
 40
0.4552840391748462
 40
0.5680049519121295
 40
0.6934285080617842
 40
0.8351763387490405
 40
1.0
 40
1.0
 40
1.0
 40
1.0
 10
-0.4561063202145386
 20
4.004002287782341
 30
0.0
 10
-0.4555088497623546
 20
4.003993504780835
 30
0.0
 10
-0.454387363058784
 20
4.003977018577427
 30
0.0
 10
-0.4528110840517718
 20
4.004352014010638
 30
0.0
 10
-0.4514721877595542
 20
4.005038837853944
 30
0.0
 10
-0.4504162483772595
 20
4.006098720596169
 30
0.0
 10
-0.4495847223773016
 20
4.007441568743507
 30
0.0
 10
-0.4490602837605756
 20
4.009108745259841
 30
0.0
 10
-0.448735915043889
 20
4.011063403000497
 30
0.0
 10
-0.4487464963654775
 20
4.012466738513012
 30
0.0
 10
-0.4487521852576637
 20
4.013221221246138
 30
0.0
  0
SPLINE
  5
7E
330
1F
100
AcDbEntity
  8
0
  6
Continuous
 62
     7
370
    25
100
AcDbSpline
210
0.0
220
0.0
230
1.0
 70
     8
 71
     3
 72
    15
 73
    11
 74
     0
 42
0.000000001
 43
0.00000001
 40
0.0
 40
0.0
 40
0.0
 40
0.0
 40
0.1628976565178736
 40
0.3067473355095333
 40
0.4317314163340756
 40
0.5463749948811347
 40
0.6534338572676134
 40
0.7609970374093796
 40
0.8736164844356469
 40
1.0
 40
1.0
 40
1.0
 40
1.0
 10
-0.4307792354974405
 20
4.109901779862962
 30
0.0
 10
-0.4300537973735483
 20
4.109928108203811
 30
0.0
 10
-0.4286877481845192
 20
4.109977686255311
 30
0.0
 10
-0.4267860005279751
 20
4.110308930203299
 30
0.0
 10
-0.425162304031162
 20
4.110858192306953
 30
0.0
 10
-0.4238094611540726
 20
4.111637441119132
 30
0.0
 10
-0.4227859580553899
 20
4.112708620139456
 30
0.0
 10
-0.4220220281694933
 20
4.113965909478507
 30
0.0
 10
-0.4216061663270637
 20
4.115471480735724
 30
0.0
 10
-0.4215469398176716
 20
4.116535650245555
 30
0.0
 10
-0.4215156211495241
 20
4.117098377511992
 30
0.0
  0
SPLINE
  5
7F
330
1F
100
AcDbEntity
  8
0
  6
Continuous
 62
     7
370
    25
100
AcDbSpline
210
0.0
220
0.0
230
1.0
 70
     8
 71
     3
 72
    23
 73
    19
 74
     0
 42
0.000000001
 43
0.00000001
 40
0.0
 40
0.0
 40
0.0
 40
0.0
 40
0.0711631370320816
 40
0.1398877853539082
 40
0.2062006280250094
 40
0.2709072425568566
 40
0.3338964038241249
 40
0.3959164634840648
 40
0.457578168454676
 40
0.5199492604703313
 40
0.5815390442969895
 40
0.6413301379214097
 40
0.6994957759390258
 40
0.757940144378139
 40
0.8163564186136174
 40
0.8758585383787045
 40
0.936805293101241
 40
1.0
 40
1.0
 40
1.0
 40
1.0
 10
-0.5161580850909608
 20
4.093932852397836
 30
0.0
 10
-0.516205053103067
 20
4.095019363701941
 30
0.0
 10
-0.5162973797130231
 20
4.097155155720564
 30
0.0
 10
-0.516678106702377
 20
4.100288010949137
 30
0.0
 10
-0.5173515888560594
 20
4.103268727824951
 30
0.0
 10
-0.5182110803981972
 20
4.106108436698721
 30
0.0
 10
-0.5192863379035036
 20
4.108805056537022
 30
0.0
 10
-0.5206048373993947
 20
4.111340058051716
 30
0.0
 10
-0.5221701845172494
 20
4.113718326339817
 30
0.0
 10
-0.5239424276083843
 20
4.115937890922561
 30
0.0
 10
-0.5259023245374204
 20
4.117954917731708
 30
0.0
 10
-0.5280088792499548
 20
4.11972003410667
 30
0.0
 10
-0.530241935380252
 20
4.121236403943137
 30
0.0
 10
-0.5326015164584605
 20
4.122509745379038
 30
0.0
 10
-0.5351251280276549
 20
4.123469642535632
 30
0.0
 10
-0.5377565951008634
 20
4.124223459227712
 30
0.0
 10
-0.5405357237592566
 20
4.124661475115165
 30
0.0
 10
-0.5424302387670751
 20
4.124766669562906
 30
0.0
 10
-0.5433946491991002
 20
4.124820219216709
 30
0.0
  0
SPLINE
  5
81
330
1F
100
AcDbEntity
  8
0
  6
Continuous
 62
     7
370
    25
100
AcDbSpline
210
0.0
220
0.0
230
1.0
 70
     8
 71
     3
 72
    15
 73
    11
 74
     0
 42
0.000000001
 43
0.00000001
 40
0.0
 40
0.0
 40
0.0
 40
0.0
 40
0.1534176787179082
 40
0.2869396686883614
 40
0.3999476658410425
 40
0.5004882457653691
 40
0.6003303492902959
 40
0.7136544149065824
 40
0.8464757424059417
 40
1.0
 40
1.0
 40
1.0
 40
1.0
 10
-0.5748129798424096
 20
4.124820193567522
 30
0.0
 10
-0.5755751863514276
 20
4.124790628530786
 30
0.0
 10
-0.5770007540239244
 20
4.124735332544582
 30
0.0
 10
-0.5789524007203535
 20
4.124322475273836
 30
0.0
 10
-0.5805665189217496
 20
4.123681497448122
 30
0.0
 10
-0.5818199371670224
 20
4.122721758008736
 30
0.0
 10
-0.5827309981203466
 20
4.12143076982754
 30
0.0
 10
-0.5833094109671011
 20
4.11980034720062
 30
0.0
 10
-0.5836825363825303
 20
4.117842015184761
 30
0.0
 10
-0.5836840118066687
 20
4.116417545219238
 30
0.0
 10
-0.5836848028556921
 20
4.11565381528832
 30
0.0
  0
SPLINE
  5
83
330
1F
100
AcDbEntity
  8
0
  6
Continuous
 62
     7
370
    25
100
AcDbSpline
210
0.0
220
0.0
230
1.0
 70
     8
 71
     3
 72
    15
 73
    11
 74
     0
 42
0.000000001
 43
0.00000001
 40
0.0
 40
0.0
 40
0.0
 40
0.0
 40
0.158927213463927
 40
0.2925075306464781
 40
0.4072711711659881
 40
0.5060499168883326
 40
0.6040688148212225
 40
0.7158622852925196
 40
0.8472284107182728
 40
1.0
 40
1.0
 40
1.0
 40
1.0
 10
-0.5837086822489845
 20
4.013529011492658
 30
0.0
 10
-0.5837339823943248
 20
4.012707739912321
 30
0.0
 10
-0.5837805476292968
 20
4.011196179263149
 30
0.0
 10
-0.5834986452085112
 20
4.009102478455955
 30
0.0
 10
-0.5829517632344637
 20
4.007381339055341
 30
0.0
 10
-0.582045426802043
 20
4.006017529552796
 30
0.0
 10
-0.5807392840450883
 20
4.005058845713575
 30
0.0
 10
-0.5790853078230667
 20
4.004418388275035
 30
0.0
 10
-0.5770662959763387
 20
4.004030954340369
 30
0.0
 10
-0.5755971976596737
 20
4.004012311454506
 30
0.0
 10
-0.5748073113720364
 20
4.00400228778234
 30
0.0
  0
SPLINE
  5
85
330
1F
100
AcDbEntity
  8
0
  6
Continuous
 62
     7
370
    25
100
AcDbSpline
210
0.0
220
0.0
230
1.0
 70
     8
 71
     3
 72
    15
 73
    11
 74
     0
 42
0.000000001
 43
0.00000001
 40
0.0
 40
0.0
 40
0.0
 40
0.0
 40
0.1432896643706206
 40
0.2776491081197285
 40
0.4017845461779976
 40
0.5174700600444394
 40
0.6309373777118917
 40
0.7489353853876274
 40
0.8712895382725384
 40
1.0
 40
1.0
 40
1.0
 40
1.0
 10
-0.5479443276756116
 20
4.00400228778234
 30
0.0
 10
-0.546979057165517
 20
4.004018047910833
 30
0.0
 10
-0.5451086745569792
 20
4.004048585951653
 30
0.0
 10
-0.5424064733520246
 20
4.004264000417078
 30
0.0
 10
-0.5399239287866322
 20
4.004721704557745
 30
0.0
 10
-0.5376201524235483
 20
4.005329386970696
 30
0.0
 10
-0.5354200748414006
 20
4.006133683554964
 30
0.0
 10
-0.533266159905687
 20
4.007162148551615
 30
0.0
 10
-0.5311232957292127
 20
4.008431388690997
 30
0.0
 10
-0.5297553667437461
 20
4.009427473651341
 30
0.0
 10
-0.5290540860331945
 20
4.009938125283246
 30
0.0
  0
SPLINE
  5
86
330
1F
100
AcDbEntity
  8
0
  6
Continuous
 62
     7
370
    25
100
AcDbSpline
210
0.0
220
0.0
230
1.0
 70
     8
 71
     3
 72
    15
 73
    11
 74
     0
 42
0.000000001
 43
0.00000001
 40
0.0
 40
0.0
 40
0.0
 40
0.0
 40
0.1114672944605025
 40
0.2251092603305367
 40
0.3437231796095012
 40
0.4668182139565842
 40
0.5941810769423472
 40
0.7247577738019114
 40
0.8595468021389289
 40
1.0
 40
1.0
 40
1.0
 40
1.0
 10
-0.5290540860331945
 20
4.009938125283246
 30
0.0
 10
-0.5280920468317833
 20
4.010806644601654
 30
0.0
 10
-0.5261491995231912
 20
4.012560627617892
 30
0.0
 10
-0.5236545921102789
 20
4.015696207067037
 30
0.0
 10
-0.521445783702784
 20
4.019188747534408
 30
0.0
 10
-0.5195874468144837
 20
4.023061007072077
 30
0.0
 10
-0.5181011094570548
 20
4.02723522261181
 30
0.0
 10
-0.5169864788338937
 20
4.031664486524435
 30
0.0
 10
-0.5163331446974649
 20
4.036341459139043
 30
0.0
 10
-0.5162172334003401
 20
4.039536525500045
 30
0.0
 10
-0.5161580850909606
 20
4.041166934082261
 30
0.0
  0
SPLINE
  5
87
330
1F
100
AcDbEntity
  8
0
  6
Continuous
 62
     7
370
    25
100
AcDbSpline
210
0.0
220
0.0
230
1.0
 70
     8
 71
     3
 72
    15
 73
    11
 74
     0
 42
0.000000001
 43
0.00000001
 40
0.0
 40
0.0
 40
0.0
 40
0.0
 40
0.1284443555928933
 40
0.251847255286604
 40
0.37112041621708
 40
0.4875672419915025
 40
0.6051357676188959
 40
0.72916999152949
 40
0.8605816786157847
 40
1.0
 40
1.0
 40
1.0
 40
1.0
 10
-0.5161580850909606
 20
4.041166934082261
 30
0.0
 10
-0.5161757490241966
 20
4.042499266819281
 30
0.0
 10
-0.5162103835792344
 20
4.0451116380784
 30
0.0
 10
-0.5167051944137036
 20
4.048934280677999
 30
0.0
 10
-0.517478592886543
 20
4.052580419447761
 30
0.0
 10
-0.518622490800439
 20
4.056067766740869
 30
0.0
 10
-0.5201565350679034
 20
4.059454417462062
 30
0.0
 10
-0.5220660983477087
 20
4.062820640372293
 30
0.0
 10
-0.5243453574928725
 20
4.06622829744769
 30
0.0
 10
-0.5261361147130127
 20
4.068392517594027
 30
0.0
 10
-0.5270579636877569
 20
4.069506618433931
 30
0.0
  0
SPLINE
  5
8A
330
1F
100
AcDbEntity
  8
0
  6
Continuous
 62
     7
370
    25
100
AcDbSpline
210
0.0
220
0.0
230
1.0
 70
     8
 71
     3
 72
    15
 73
    11
 74
     0
 42
0.000000001
 43
0.00000001
 40
0.0
 40
0.0
 40
0.0
 40
0.0
 40
0.1304480830931258
 40
0.2552494576585554
 40
0.3782668835247683
 40
0.498696139786637
 40
0.6204321796011131
 40
0.7442036748808846
 40
0.8697032496805781
 40
1.0
 40
1.0
 40
1.0
 40
1.0
 10
-0.5261589340268563
 20
4.069665822938944
 30
0.0
 10
-0.5253366536202191
 20
4.070506602638035
 30
0.0
 10
-0.5237276868737497
 20
4.072151767190205
 30
0.0
 10
-0.5216639163424953
 20
4.074873473402141
 30
0.0
 10
-0.5199229678010372
 20
4.077703855158032
 30
0.0
 10
-0.5185239900454491
 20
4.08068695943846
 30
0.0
 10
-0.5173998160329033
 20
4.083793080067966
 30
0.0
 10
-0.5166611344550318
 20
4.087058089834109
 30
0.0
 10
-0.5161837695653215
 20
4.090451559881378
 30
0.0
 10
-0.5161667529582591
 20
4.092758003298845
 30
0.0
 10
-0.5161580850909606
 20
4.093932852397836
 30
0.0
  0
SPLINE
  5
8C
330
1F
100
AcDbEntity
  8
0
  6
Continuous
 62
     7
370
    25
100
AcDbSpline
210
0.0
220
0.0
230
1.0
 70
     8
 71
     3
 72
    13
 73
     9
 74
     0
 42
0.000000001
 43
0.00000001
 40
0.0
 40
0.0
 40
0.0
 40
0.0
 40
0.2109524894948328
 40
0.3943397682890061
 40
0.5433306924710605
 40
0.6581592471817057
 40
0.8376079005805137
 40
1.0
 40
1.0
 40
1.0
 40
1.0
 10
-0.4669169242503314
 20
4.249011771233847
 30
0.0
 10
-0.46690670979138
 20
4.248588808085159
 30
0.0
 10
-0.4668876155991959
 20
4.247798150480461
 30
0.0
 10
-0.4668822651845325
 20
4.246708139010861
 30
0.0
 10
-0.466800261159555
 20
4.245813167317269
 30
0.0
 10
-0.4666746111075614
 20
4.244935717160049
 30
0.0
 10
-0.4664186511450843
 20
4.244032890703846
 30
0.0
 10
-0.4659729703371803
 20
4.243503137185899
 30
0.0
 10
-0.4657612488222068
 20
4.243251476770208
 30
0.0
  0
SPLINE
  5
8D
330
1F
100
AcDbEntity
  8
0
  6
Continuous
 62
     7
370
    25
100
AcDbSpline
210
0.0
220
0.0
230
1.0
 70
     8
 71
     3
 72
    11
 73
     7
 74
     0
 42
0.000000001
 43
0.00000001
 40
0.0
 40
0.0
 40
0.0
 40
0.0
 40
0.2507279947664494
 40
0.4969641102232979
 40
0.7409380312270304
 40
1.0
 40
1.0
 40
1.0
 40
1.0
 10
-0.4657612488222068
 20
4.243251476770208
 30
0.0
 10
-0.4653281306167288
 20
4.242866213309342
 30
0.0
 10
-0.4644696536692015
 20
4.242102588516631
 30
0.0
 10
-0.4629545617159714
 20
4.241272585931147
 30
0.0
 10
-0.4612692737307901
 20
4.24082153682374
 30
0.0
 10
-0.4601081891647576
 20
4.240761155348611
 30
0.0
 10
-0.4595102341088631
 20
4.240730059070708
 30
0.0
  0
SPLINE
  5
8E
330
1F
100
AcDbEntity
  8
0
  6
Continuous
 62
     7
370
    25
100
AcDbSpline
210
0.0
220
0.0
230
1.0
 70
     8
 71
     3
 72
    15
 73
    11
 74
     0
 42
0.000000001
 43
0.00000001
 40
0.0
 40
0.0
 40
0.0
 40
0.0
 40
0.1344424124635942
 40
0.2532233098428746
 40
0.3631958248831459
 40
0.468548979440215
 40
0.5802928744502462
 40
0.7038649496898016
 40
0.8428506634928038
 40
1.0
 40
1.0
 40
1.0
 40
1.0
 10
-0.4595102341088631
 20
4.240730059070708
 30
0.0
 10
-0.4589389420055411
 20
4.240734033350516
 30
0.0
 10
-0.4578629089692436
 20
4.240741518936868
 30
0.0
 10
-0.4563534854793181
 20
4.241092516905414
 30
0.0
 10
-0.4550479382203489
 20
4.241682276260201
 30
0.0
 10
-0.4540121408288228
 20
4.242632040289572
 30
0.0
 10
-0.4532067882699079
 20
4.243847213451135
 30
0.0
 10
-0.4526797946710233
 20
4.245353618627052
 30
0.0
 10
-0.4523228912473655
 20
4.247104415176917
 30
0.0
 10
-0.4523168785193649
 20
4.248362239039378
 30
0.0
 10
-0.4523136877582073
 20
4.249029725664895
 30
0.0
  0
SPLINE
  5
90
330
1F
100
AcDbEntity
  8
0
  6
Continuous
 62
     7
370
    25
100
AcDbSpline
210
0.0
220
0.0
230
1.0
 70
     8
 71
     3
 72
    15
 73
    11
 74
     0
 42
0.000000001
 43
0.00000001
 40
0.0
 40
0.0
 40
0.0
 40
0.0
 40
0.1564299360184023
 40
0.2932632800185928
 40
0.4146603188757499
 40
0.5262401079479424
 40
0.6316909416697903
 40
0.7432116990180303
 40
0.8636648470558841
 40
1.0
 40
1.0
 40
1.0
 40
1.0
 10
-0.4523136877582073
 20
4.353442693451568
 30
0.0
 10
-0.4523166159826668
 20
4.354097914656086
 30
0.0
 10
-0.4523221056014157
 20
4.355326274933319
 30
0.0
 10
-0.4526777787012456
 20
4.357031699874639
 30
0.0
 10
-0.4532138130441503
 20
4.358490405344437
 30
0.0
 10
-0.4540116752136378
 20
4.359676313601729
 30
0.0
 10
-0.4550571718846772
 20
4.360593575658663
 30
0.0
 10
-0.4563523316854535
 20
4.361186898174994
 30
0.0
 10
-0.4578632526695391
 20
4.361536123872722
 30
0.0
 10
-0.4589390612007502
 20
4.361543875158813
 30
0.0
 10
-0.4595102341088631
 20
4.361547990505077
 30
0.0
  0
SPLINE
  5
91
330
1F
100
AcDbEntity
  8
0
  6
Continuous
 62
     7
370
    25
100
AcDbSpline
210
0.0
220
0.0
230
1.0
 70
     8
 71
     3
 72
    15
 73
    11
 74
     0
 42
0.000000001
 43
0.00000001
 40
0.0
 40
0.0
 40
0.0
 40
0.0
 40
0.1331929188997192
 40
0.2513023957681119
 40
0.3597206336777303
 40
0.4666537456778187
 40
0.5768778745908911
 40
0.6994495881975671
 40
0.8409227542622786
 40
0.9999999999999999
 40
0.9999999999999999
 40
0.9999999999999999
 40
0.9999999999999999
 10
-0.4595102341088631
 20
4.361547990505077
 30
0.0
 10
-0.4600986474728408
 20
4.36155407505939
 30
0.0
 10
-0.4612088392855215
 20
4.361565555122211
 30
0.0
 10
-0.4627699666264962
 20
4.361221301475369
 30
0.0
 10
-0.4641158982810593
 20
4.360588066816351
 30
0.0
 10
-0.4651819337590763
 20
4.359602482849977
 30
0.0
 10
-0.4660345388264059
 20
4.358352675161155
 30
0.0
 10
-0.466554669494463
 20
4.356773950951691
 30
0.0
 10
-0.4669066657258463
 20
4.354936484012767
 30
0.0
 10
-0.4669133570004774
 20
4.35360932771236
 30
0.0
 10
-0.4669168986011442
 20
4.35290688193075
 30
0.0
  0
SPLINE
  5
92
330
1F
100
AcDbEntity
  8
0
  6
Continuous
 62
     7
370
    25
100
AcDbSpline
210
0.0
220
0.0
230
1.0
 70
     8
 71
     3
 72
    15
 73
    11
 74
     0
 42
0.000000001
 43
0.00000001
 40
0.0
 40
0.0
 40
0.0
 40
0.0
 40
0.1300304653365487
 40
0.248516799730233
 40
0.3599620383455592
 40
0.4670494128664924
 40
0.5803134929242173
 40
0.7038817387084745
 40
0.842178773566748
 40
1.0
 40
1.0
 40
1.0
 40
1.0
 10
-0.5588015619337527
 20
4.35408879647739
 30
0.0
 10
-0.5588296324403587
 20
4.354661665355603
 30
0.0
 10
-0.5588832813483314
 20
4.355756543697459
 30
0.0
 10
-0.5593492129235441
 20
4.357282112929171
 30
0.0
 10
-0.5600466660812631
 20
4.35860636681509
 30
0.0
 10
-0.5610784305065385
 20
4.359656623008354
 30
0.0
 10
-0.5623287879072452
 20
4.360529331212289
 30
0.0
 10
-0.5638983949467916
 20
4.361077395542789
 30
0.0
 10
-0.5657093563773308
 20
4.36145172908973
 30
0.0
 10
-0.5670113817708183
 20
4.361514523280834
 30
0.0
 10
-0.5677053181851118
 20
4.361547990505077
 30
0.0
  0
SPLINE
  5
94
330
1F
100
AcDbEntity
  8
0
  6
Continuous
 62
     7
370
    25
100
AcDbSpline
210
0.0
220
0.0
230
1.0
 70
     8
 71
     3
 72
    15
 73
    11
 74
     0
 42
0.000000001
 43
0.00000001
 40
0.0
 40
0.0
 40
0.0
 40
0.0
 40
0.1431245281111216
 40
0.2686953475925508
 40
0.3825861360094752
 40
0.4889262118237004
 40
0.5974642911874809
 40
0.7148543353418959
 40
0.8477348925970717
 40
1.0
 40
1.0
 40
1.0
 40
1.0
 10
-0.6168664227826212
 20
4.361547964855889
 30
0.0
 10
-0.6176657766124816
 20
4.361585052632034
 30
0.0
 10
-0.6191664463998229
 20
4.361654679501964
 30
0.0
 10
-0.6212960372774178
 20
4.361327394728741
 30
0.0
 10
-0.623099679710295
 20
4.360587352279169
 30
0.0
 10
-0.624583667425777
 20
4.359471844780208
 30
0.0
 10
-0.6257189232340005
 20
4.357973479704938
 30
0.0
 10
-0.6264662813081352
 20
4.356097963226374
 30
0.0
 10
-0.6269157433467663
 20
4.353882615511623
 30
0.0
 10
-0.6269265817500667
 20
4.352287716197156
 30
0.0
 10
-0.6269323693556561
 20
4.351436054939374
 30
0.0
  0
SPLINE
  5
96
330
1F
100
AcDbEntity
  8
0
  6
Continuous
 62
     7
370
    25
100
AcDbSpline
210
0.0
220
0.0
230
1.0
 70
     8
 71
     3
 72
    15
 73
    11
 74
     0
 42
0.000000001
 43
0.00000001
 40
0.0
 40
0.0
 40
0.0
 40
0.0
 40
0.1709357137507894
 40
0.3200746569261955
 40
0.4446047088976824
 40
0.5544264659871547
 40
0.6559493050950349
 40
0.7588962823022938
 40
0.872700183542177
 40
1.0
 40
1.0
 40
1.0
 40
1.0
 10
-0.6269323950048433
 20
4.25052179018328
 30
0.0
 10
-0.6269163545032589
 20
4.249708173620948
 30
0.0
 10
-0.6268863188955508
 20
4.248184688350706
 30
0.0
 10
-0.6265671669536932
 20
4.246084313125221
 30
0.0
 10
-0.6259916334718659
 20
4.244343214753449
 30
0.0
 10
-0.6251753223419984
 20
4.242948391911322
 30
0.0
 10
-0.624073769174025
 20
4.241911058876912
 30
0.0
 10
-0.6227340140764315
 20
4.241168349755687
 30
0.0
 10
-0.6211207860366884
 20
4.240799425101853
 30
0.0
 10
-0.6199737416666874
 20
4.24075402812153
 30
0.0
 10
-0.6193681162571564
 20
4.240730059070708
 30
0.0
  0
SPLINE
  5
97
330
1F
100
AcDbEntity
  8
0
  6
Continuous
 62
     7
370
    25
100
AcDbSpline
210
0.0
220
0.0
230
1.0
 70
     8
 71
     3
 72
    15
 73
    11
 74
     0
 42
0.000000001
 43
0.00000001
 40
0.0
 40
0.0
 40
0.0
 40
0.0
 40
0.1262171533717236
 40
0.2394887285053225
 40
0.3406391094893131
 40
0.4402503416505383
 40
0.5473523534472291
 40
0.6739226384665125
 40
0.8238155295398205
 40
1.0
 40
1.0
 40
1.0
 40
1.0
 10
-0.6193681162571564
 20
4.240730059070708
 30
0.0
 10
-0.6187699189112763
 20
4.240738893867011
 30
0.0
 10
-0.6176348788796084
 20
4.240755657310622
 30
0.0
 10
-0.6160644207985135
 20
4.241181768412897
 30
0.0
 10
-0.6147423308494634
 20
4.241881210202258
 30
0.0
 10
-0.6136632712767246
 20
4.242890704959484
 30
0.0
 10
-0.6128973371428825
 20
4.244288309795457
 30
0.0
 10
-0.6123572998598827
 20
4.246026492593313
 30
0.0
 10
-0.6120643358733568
 20
4.248153350806589
 30
0.0
 10
-0.6120316447842008
 20
4.249694247771052
 30
0.0
 10
-0.6120139813002816
 20
4.250526817423973
 30
0.0
  0
SPLINE
  5
9A
330
1F
100
AcDbEntity
  8
0
  6
Continuous
 62
     7
370
    25
100
AcDbSpline
210
0.0
220
0.0
230
1.0
 70
     8
 71
     3
 72
    15
 73
    11
 74
     0
 42
0.000000001
 43
0.00000001
 40
0.0
 40
0.0
 40
0.0
 40
0.0
 40
0.1744727906221621
 40
0.323749438966693
 40
0.4502299172009249
 40
0.5580815881261455
 40
0.6562195951774747
 40
0.758386634580222
 40
0.8700215862580033
 40
1.0
 40
1.0
 40
1.0
 40
1.0
 10
-0.5813487364426475
 20
4.301244058209518
 30
0.0
 10
-0.5805129404832426
 20
4.301266149195975
 30
0.0
 10
-0.5789620483814822
 20
4.30130714094286
 30
0.0
 10
-0.5768063698283797
 20
4.30154999227894
 30
0.0
 10
-0.5750499468543023
 20
4.30211658462306
 30
0.0
 10
-0.5736056289886055
 20
4.302829312306654
 30
0.0
 10
-0.5725477572445105
 20
4.303898619303028
 30
0.0
 10
-0.5718352845143566
 20
4.305230515757273
 30
0.0
 10
-0.5714076022969247
 20
4.30683900620544
 30
0.0
 10
-0.5713741284816557
 20
4.307999944693139
 30
0.0
 10
-0.5713561208958461
 20
4.308624483583283
 30
0.0
  0
SPLINE
  5
9B
330
1F
100
AcDbEntity
  8
0
  6
Continuous
 62
     7
370
    25
100
AcDbSpline
210
0.0
220
0.0
230
1.0
 70
     8
 71
     3
 72
    15
 73
    11
 74
     0
 42
0.000000001
 43
0.00000001
 40
0.0
 40
0.0
 40
0.0
 40
0.0
 40
0.1302781676772875
 40
0.2456591460467804
 40
0.3512435389474293
 40
0.4576747048834783
 40
0.5701617980472088
 40
0.6953173426182977
 40
0.8364462483247311
 40
1.0
 40
1.0
 40
1.0
 40
1.0
 10
-0.5713561208958461
 20
4.308624483583283
 30
0.0
 10
-0.5713643442224439
 20
4.30924031546459
 30
0.0
 10
-0.5713798505457651
 20
4.310401559414882
 30
0.0
 10
-0.5718107125327836
 20
4.312016344917417
 30
0.0
 10
-0.5725312318321454
 20
4.313399339816296
 30
0.0
 10
-0.5736230540872431
 20
4.314500905350497
 30
0.0
 10
-0.5750365849407572
 20
4.315327447093622
 30
0.0
 10
-0.5767518911733928
 20
4.315854554389897
 30
0.0
 10
-0.5787592143835352
 20
4.316178266679113
 30
0.0
 10
-0.5801971445072215
 20
4.316167988984149
 30
0.0
 10
-0.5809690258751893
 20
4.31616247191408
 30
0.0
  0
SPLINE
  5
9F
330
1F
100
AcDbEntity
  8
0
  6
Continuous
 62
     7
370
    25
100
AcDbSpline
210
0.0
220
0.0
230
1.0
 70
     8
 71
     3
 72
    15
 73
    11
 74
     0
 42
0.000000001
 43
0.00000001
 40
0.0
 40
0.0
 40
0.0
 40
0.0
 40
0.1590311594958883
 40
0.2980437724620715
 40
0.4205229549488916
 40
0.533343018501647
 40
0.6409275532345595
 40
0.7504513511745821
 40
0.8673444194466768
 40
1.0
 40
1.0
 40
1.0
 40
1.0
 10
-0.5677170142144796
 20
4.346629551151328
 30
0.0
 10
-0.5670105168164288
 20
4.346641147064876
 30
0.0
 10
-0.565686454598577
 20
4.346662879219943
 30
0.0
 10
-0.563851058210862
 20
4.347042040156655
 30
0.0
 10
-0.5622830498786773
 20
4.347609594043723
 30
0.0
 10
-0.5609861206882099
 20
4.348430427438032
 30
0.0
 10
-0.5599751980219707
 20
4.34951412656139
 30
0.0
 10
-0.559295533823311
 20
4.350844482901469
 30
0.0
 10
-0.5588535250672992
 20
4.352388798501763
 30
0.0
 10
-0.5588195973167187
 20
4.353498760572339
 30
0.0
 10
-0.5588015619337527
 20
4.35408879647739
 30
0.0
  0
SPLINE
  5
A4
330
1F
100
AcDbEntity
  8
0
  6
Continuous
 62
     7
370
    25
100
AcDbSpline
210
0.0
220
0.0
230
1.0
 70
     8
 71
     3
 72
    15
 73
    11
 74
     0
 42
0.000000001
 43
0.00000001
 40
0.0
 40
0.0
 40
0.0
 40
0.0
 40
0.1393950970978021
 40
0.2664476530676446
 40
0.3917944523777649
 40
0.5138707713177425
 40
0.631533224555133
 40
0.7498989336815055
 40
0.8694636998436444
 40
1.0
 40
1.0
 40
1.0
 40
1.0
 10
-0.4809212727404497
 20
4.240730059070708
 30
0.0
 10
-0.4803844311060552
 20
4.240753586017636
 30
0.0
 10
-0.4793582817182253
 20
4.240798556751353
 30
0.0
 10
-0.4778943834069146
 20
4.241191024199651
 30
0.0
 10
-0.4765702264672447
 20
4.241779020905212
 30
0.0
 10
-0.4754455641306335
 20
4.242634117927607
 30
0.0
 10
-0.4744935372235201
 20
4.24364105647902
 30
0.0
 10
-0.4738120654190685
 20
4.244838771873575
 30
0.0
 10
-0.4733667748446608
 20
4.246198079865343
 30
0.0
 10
-0.4733085926277318
 20
4.247161247575395
 30
0.0
 10
-0.4732782253388408
 20
4.247663957744332
 30
0.0
  0
SPLINE
  5
A5
330
1F
100
AcDbEntity
  8
0
  6
Continuous
 62
     7
370
    25
100
AcDbSpline
210
0.0
220
0.0
230
1.0
 70
     8
 71
     3
 72
    11
 73
     7
 74
     0
 42
0.000000001
 43
0.00000001
 40
0.0
 40
0.0
 40
0.0
 40
0.0
 40
0.2045953056880509
 40
0.4052788696288701
 40
0.6503507648515919
 40
1.0
 40
1.0
 40
1.0
 40
1.0
 10
-0.4732782253388408
 20
4.247663957744332
 30
0.0
 10
-0.4732906619738372
 20
4.247988163608961
 30
0.0
 10
-0.473315297462693
 20
4.248630376713032
 30
0.0
 10
-0.4734506628648692
 20
4.249655764957549
 30
0.0
 10
-0.4737980582277299
 20
4.250870296776815
 30
0.0
 10
-0.4740496034235511
 20
4.251778732747786
 30
0.0
 10
-0.4741974922084499
 20
4.252312821627785
 30
0.0
  0
SPLINE
  5
A7
330
1F
100
AcDbEntity
  8
0
  6
Continuous
 62
     7
370
    25
100
AcDbSpline
210
0.0
220
0.0
230
1.0
 70
     8
 71
     3
 72
    15
 73
    11
 74
     0
 42
0.000000001
 43
0.00000001
 40
0.0
 40
0.0
 40
0.0
 40
0.0
 40
0.1664042980986024
 40
0.3112161808743684
 40
0.4348595440479602
 40
0.5420608454103588
 40
0.6426927038306705
 40
0.7497217546262694
 40
0.8690474854046805
 40
1.0
 40
1.0
 40
1.0
 40
1.0
 10
-0.5054336366750062
 20
4.354697554286634
 30
0.0
 10
-0.5056145229818299
 20
4.355307220642232
 30
0.0
 10
-0.5059528240126645
 20
4.356447443803321
 30
0.0
 10
-0.5066899157764349
 20
4.357936084466145
 30
0.0
 10
-0.5073927465903801
 20
4.359191745775177
 30
0.0
 10
-0.5082704133575839
 20
4.36011814691299
 30
0.0
 10
-0.509261352122197
 20
4.360809756871623
 30
0.0
 10
-0.5104227989544278
 20
4.361288905874586
 30
0.0
 10
-0.5117711655171321
 20
4.361543670476515
 30
0.0
 10
-0.5127268804658792
 20
4.361546506578115
 30
0.0
 10
-0.5132269370152921
 20
4.361547990505077
 30
0.0
  0
SPLINE
  5
A8
330
1F
100
AcDbEntity
  8
0
  6
Continuous
 62
     7
370
    25
100
AcDbSpline
210
0.0
220
0.0
230
1.0
 70
     8
 71
     3
 72
    15
 73
    11
 74
     0
 42
0.000000001
 43
0.00000001
 40
0.0
 40
0.0
 40
0.0
 40
0.0
 40
0.1402774721412102
 40
0.2662084405780077
 40
0.3856161402790387
 40
0.5017187564843453
 40
0.6164029353662023
 40
0.733503765457399
 40
0.8626573082535252
 40
1.0
 40
1.0
 40
1.0
 40
1.0
 10
-0.5132269370152921
 20
4.361547990505077
 30
0.0
 10
-0.5136834272604971
 20
4.361555201441771
 30
0.0
 10
-0.5145497214306172
 20
4.361568885835871
 30
0.0
 10
-0.5157852748262657
 20
4.361338838016463
 30
0.0
 10
-0.516913779752055
 20
4.360992710116161
 30
0.0
 10
-0.5178909358729914
 20
4.360393330389194
 30
0.0
 10
-0.5187479349804844
 20
4.359650027441505
 30
0.0
 10
-0.519473559247188
 20
4.358722819205798
 30
0.0
 10
-0.5200800503017342
 20
4.357626351860591
 30
0.0
 10
-0.520341348891219
 20
4.356799804442796
 30
0.0
 10
-0.5204760129013544
 20
4.356373831267561
 30
0.0
  0
SPLINE
  5
AA
330
1F
100
AcDbEntity
  8
0
  6
Continuous
 62
     7
370
    25
100
AcDbSpline
210
0.0
220
0.0
230
1.0
 70
     8
 71
     3
 72
    13
 73
     9
 74
     0
 42
0.000000001
 43
0.00000001
 40
0.0
 40
0.0
 40
0.0
 40
0.0
 40
0.2270063404699308
 40
0.4218757526766362
 40
0.5731508855609142
 40
0.6868587155427123
 40
0.8611552165146482
 40
1.0
 40
1.0
 40
1.0
 40
1.0
 10
-0.5513645082844651
 20
4.253556448118853
 30
0.0
 10
-0.5515048360974527
 20
4.253089588134002
 30
0.0
 10
-0.5517656257370854
 20
4.252221960793304
 30
0.0
 10
-0.5521111273871977
 20
4.251040241626719
 30
0.0
 10
-0.5523365703769298
 20
4.250078265110097
 30
0.0
 10
-0.5525847516124086
 20
4.24916870989466
 30
0.0
 10
-0.5527762174492035
 20
4.248267881281783
 30
0.0
 10
-0.5527981965536993
 20
4.24759472434812
 30
0.0
 10
-0.5528079419438998
 20
4.247296250996488
 30
0.0
  0
SPLINE
  5
AB
330
1F
100
AcDbEntity
  8
0
  6
Continuous
 62
     7
370
    25
100
AcDbSpline
210
0.0
220
0.0
230
1.0
 70
     8
 71
     3
 72
    15
 73
    11
 74
     0
 42
0.000000001
 43
0.00000001
 40
0.0
 40
0.0
 40
0.0
 40
0.0
 40
0.1233147367787833
 40
0.2410579587518834
 40
0.357426237892
 40
0.4806959610767675
 40
0.6042130560245287
 40
0.7317316480838993
 40
0.8602905178187307
 40
1.0
 40
1.0
 40
1.0
 40
1.0
 10
-0.5528079419438998
 20
4.247296250996488
 30
0.0
 10
-0.5527787891520876
 20
4.246836373680319
 30
0.0
 10
-0.55272180072824
 20
4.245937396883158
 30
0.0
 10
-0.5522399425773438
 20
4.24468300200648
 30
0.0
 10
-0.5515515241613839
 20
4.243536565892182
 30
0.0
 10
-0.5505701789990258
 20
4.242591485288687
 30
0.0
 10
-0.5494269360504277
 20
4.241793638407359
 30
0.0
 10
-0.5481465477717712
 20
4.241178215379843
 30
0.0
 10
-0.5467040667163727
 20
4.240843119233019
 30
0.0
 10
-0.5457092450800235
 20
4.240768775822971
 30
0.0
 10
-0.5451911593099938
 20
4.240730059070708
 30
0.0
  0
SPLINE
  5
AC
330
1F
100
AcDbEntity
  8
0
  6
Continuous
 62
     7
370
    25
100
AcDbSpline
210
0.0
220
0.0
230
1.0
 70
     8
 71
     3
 72
    11
 73
     7
 74
     0
 42
0.000000001
 43
0.00000001
 40
0.0
 40
0.0
 40
0.0
 40
0.0
 40
0.2758401254582746
 40
0.5139598993323304
 40
0.7468752082823072
 40
1.0
 40
1.0
 40
1.0
 40
1.0
 10
-0.5451911593099938
 20
4.240730059070708
 30
0.0
 10
-0.5443499911626686
 20
4.240765481071184
 30
0.0
 10
-0.542782682216581
 20
4.240831481214455
 30
0.0
 10
-0.5406481371407296
 20
4.241716338948446
 30
0.0
 10
-0.5389792940028293
 20
4.243240085006387
 30
0.0
 10
-0.5384008959260881
 20
4.244611943384967
 30
0.0
 10
-0.5380996720301505
 20
4.245326393418754
 30
0.0
  0
SPLINE
  5
B0
330
1F
100
AcDbEntity
  8
0
  6
Continuous
 62
     7
370
    25
100
AcDbSpline
210
0.0
220
0.0
230
1.0
 70
     8
 71
     3
 72
    15
 73
    11
 74
     0
 42
0.000000001
 43
0.00000001
 40
0.0
 40
0.0
 40
0.0
 40
0.0
 40
0.1417023921378987
 40
0.2704884658423458
 40
0.3914551342888622
 40
0.505507000515109
 40
0.6205634801858745
 40
0.7392601850446409
 40
0.8625681768091271
 40
1.0
 40
1.0
 40
1.0
 40
1.0
 10
-0.4881868667030752
 20
4.246210905639694
 30
0.0
 10
-0.4880483661488166
 20
4.245760594837082
 30
0.0
 10
-0.4877839895079249
 20
4.244901019523549
 30
0.0
 10
-0.4871508091740415
 20
4.243762066803037
 30
0.0
 10
-0.4864615358916281
 20
4.242764873357058
 30
0.0
 10
-0.4855855986530119
 20
4.241989682217036
 30
0.0
 10
-0.4846052232250287
 20
4.241373437070322
 30
0.0
 10
-0.4834906666305303
 20
4.240949207536189
 30
0.0
 10
-0.4822421288461289
 20
4.240746194580352
 30
0.0
 10
-0.4813771757867374
 20
4.240735628358662
 30
0.0
 10
-0.4809212727404497
 20
4.240730059070708
 30
0.0
  0
SPLINE
  5
B1
330
1F
100
AcDbEntity
  8
0
  6
Continuous
 62
     7
370
    25
100
AcDbSpline
210
0.0
220
0.0
230
1.0
 70
     8
 71
     3
 72
    15
 73
    11
 74
     0
 42
0.000000001
 43
0.00000001
 40
0.0
 40
0.0
 40
0.0
 40
0.0
 40
0.1350587582683812
 40
0.2540907376131436
 40
0.3671204033809431
 40
0.4747214394708196
 40
0.5868843609572839
 40
0.7077469977724776
 40
0.845730148080661
 40
1.0
 40
1.0
 40
1.0
 40
1.0
 10
-0.4393599043270267
 20
4.361547990505077
 30
0.0
 10
-0.4399217942972053
 20
4.361532073743143
 30
0.0
 10
-0.4409788974337259
 20
4.361502128985526
 30
0.0
 10
-0.4424820800697242
 20
4.361165792469858
 30
0.0
 10
-0.443754646526296
 20
4.360527473405984
 30
0.0
 10
-0.4448355866735794
 20
4.359636907660045
 30
0.0
 10
-0.44561660665711
 20
4.358436258311618
 30
0.0
 10
-0.4462042969844109
 20
4.357003614438844
 30
0.0
 10
-0.4465588239852932
 20
4.355313139893364
 30
0.0
 10
-0.446626032689849
 20
4.354099224396813
 30
0.0
 10
-0.4466615097484952
 20
4.353458442052516
 30
0.0
  0
SPLINE
  5
B3
330
1F
100
AcDbEntity
  8
0
  6
Continuous
 62
     7
370
    25
100
AcDbSpline
210
0.0
220
0.0
230
1.0
 70
     8
 71
     3
 72
    15
 73
    11
 74
     0
 42
0.000000001
 43
0.00000001
 40
0.0
 40
0.0
 40
0.0
 40
0.0
 40
0.1487698107518983
 40
0.2772370248101745
 40
0.388553674694168
 40
0.4906063920706678
 40
0.5951549558549545
 40
0.7111211174112444
 40
0.8461948858944799
 40
1.0
 40
1.0
 40
1.0
 40
1.0
 10
-0.4466615353976822
 20
4.249670237167905
 30
0.0
 10
-0.4466873336541168
 20
4.248939266439224
 30
0.0
 10
-0.4467354094822912
 20
4.247577080461984
 30
0.0
 10
-0.4464259738270756
 20
4.245681475046316
 30
0.0
 10
-0.4458260356958162
 20
4.244100708357901
 30
0.0
 10
-0.4448983748056191
 20
4.242817115642395
 30
0.0
 10
-0.4435961427892117
 20
4.241876782935623
 30
0.0
 10
-0.4419637536885355
 20
4.241230703192331
 30
0.0
 10
-0.4400103256965685
 20
4.240816039376699
 30
0.0
 10
-0.4385918002147909
 20
4.240759931871334
 30
0.0
 10
-0.4378365478002454
 20
4.240730059070708
 30
0.0
  0
SPLINE
  5
B5
330
1F
100
AcDbEntity
  8
0
  6
Continuous
 62
     7
370
    25
100
AcDbSpline
210
0.0
220
0.0
230
1.0
 70
     8
 71
     3
 72
    13
 73
     9
 74
     0
 42
0.000000001
 43
0.00000001
 40
0.0
 40
0.0
 40
0.0
 40
0.0
 40
0.2519478446864579
 40
0.4585839683611754
 40
0.6089951811066675
 40
0.7091823925853116
 40
0.8599841154110004
 40
1.0
 40
1.0
 40
1.0
 40
1.0
 10
-0.3861274272960995
 20
4.240730059070708
 30
0.0
 10
-0.38577519843448
 20
4.240731949195815
 30
0.0
 10
-0.385134087535779
 20
4.240735389515273
 30
0.0
 10
-0.384282208963735
 20
4.2407150109451
 30
0.0
 10
-0.3836438868619464
 20
4.240764439543083
 30
0.0
 10
-0.3830824721923914
 20
4.240747607186887
 30
0.0
 10
-0.3825359656814406
 20
4.240795682984132
 30
0.0
 10
-0.3821371394254559
 20
4.240875489242153
 30
0.0
 10
-0.381945122127998
 20
4.240913912444629
 30
0.0
  0
SPLINE
  5
B6
330
1F
100
AcDbEntity
  8
0
  6
Continuous
 62
     7
370
    25
100
AcDbSpline
210
0.0
220
0.0
230
1.0
 70
     8
 71
     3
 72
    13
 73
     9
 74
     0
 42
0.000000001
 43
0.00000001
 40
0.0
 40
0.0
 40
0.0
 40
0.0
 40
0.1247154481325573
 40
0.2463170439572679
 40
0.3675881501590997
 40
0.4921962853951308
 40
0.7422342876103957
 40
1.0
 40
1.0
 40
1.0
 40
1.0
 10
-0.381945122127998
 20
4.240913912444629
 30
0.0
 10
-0.3815927750049941
 20
4.241010774690992
 30
0.0
 10
-0.3808968780404664
 20
4.241202080760549
 30
0.0
 10
-0.379895915778052
 20
4.241630721006687
 30
0.0
 10
-0.3790625531523935
 20
4.242327734590219
 30
0.0
 10
-0.3780385949194262
 20
4.243357942228466
 30
0.0
 10
-0.3770838354747466
 20
4.24501924115982
 30
0.0
 10
-0.3769285708880384
 20
4.246512164814225
 30
0.0
 10
-0.3768497571935917
 20
4.247269986228786
 30
0.0
  0
SPLINE
  5
B7
330
1F
100
AcDbEntity
  8
0
  6
Continuous
 62
     7
370
    25
100
AcDbSpline
210
0.0
220
0.0
230
1.0
 70
     8
 71
     3
 72
    11
 73
     7
 74
     0
 42
0.000000001
 43
0.00000001
 40
0.0
 40
0.0
 40
0.0
 40
0.0
 40
0.2625429518624061
 40
0.5263151147868194
 40
0.7722508192963364
 40
1.0
 40
1.0
 40
1.0
 40
1.0
 10
-0.3768497571935919
 20
4.247269986228786
 30
0.0
 10
-0.3769150056969429
 20
4.247954700303167
 30
0.0
 10
-0.3770458081934003
 20
4.249327334244003
 30
0.0
 10
-0.377941975810432
 20
4.251154122459921
 30
0.0
 10
-0.3791705296479963
 20
4.252687129760543
 30
0.0
 10
-0.3802992902442392
 20
4.253214776970689
 30
0.0
 10
-0.3808420018844665
 20
4.253468471406722
 30
0.0
  0
SPLINE
  5
B8
330
1F
100
AcDbEntity
  8
0
  6
Continuous
 62
     7
370
    25
100
AcDbSpline
210
0.0
220
0.0
230
1.0
 70
     8
 71
     3
 72
    11
 73
     7
 74
     0
 42
0.000000001
 43
0.00000001
 40
0.0
 40
0.0
 40
0.0
 40
0.0
 40
0.175063708347215
 40
0.398177405178315
 40
0.6725669361218833
 40
1.0
 40
1.0
 40
1.0
 40
1.0
 10
-0.3808420018844665
 20
4.253468471406722
 30
0.0
 10
-0.3810851614915675
 20
4.253554896199751
 30
0.0
 10
-0.3816382210737825
 20
4.253751466923383
 30
0.0
 10
-0.3826242597477476
 20
4.25388346796605
 30
0.0
 10
-0.3838347286040628
 20
4.253955002418363
 30
0.0
 10
-0.3847201972266783
 20
4.253963097635671
 30
0.0
 10
-0.3852019533231851
 20
4.253967501993082
 30
0.0
  0
SPLINE
  5
BB
330
1F
100
AcDbEntity
  8
0
  6
Continuous
 62
     7
370
    25
100
AcDbSpline
210
0.0
220
0.0
230
1.0
 70
     8
 71
     3
 72
    15
 73
    11
 74
     0
 42
0.000000001
 43
0.00000001
 40
0.0
 40
0.0
 40
0.0
 40
0.0
 40
0.1548042603886827
 40
0.2914433316819213
 40
0.411506900719855
 40
0.5241201867825808
 40
0.6310098324626138
 40
0.7414248087581478
 40
0.8637459186373369
 40
1.0
 40
1.0
 40
1.0
 40
1.0
 10
-0.4320582989055581
 20
4.353435306485651
 30
0.0
 10
-0.4320740995834119
 20
4.354083593995589
 30
0.0
 10
-0.4321038468409156
 20
4.355304097044466
 30
0.0
 10
-0.432434396625608
 20
4.357005386295431
 30
0.0
 10
-0.4330209432117337
 20
4.35844491201938
 30
0.0
 10
-0.4338334621438193
 20
4.359630338508401
 30
0.0
 10
-0.4349065576467805
 20
4.360519848297956
 30
0.0
 10
-0.4361796115752773
 20
4.361182265388208
 30
0.0
 10
-0.4377079840887268
 20
4.361496543706117
 30
0.0
 10
-0.438789832931182
 20
4.36153023641029
 30
0.0
 10
-0.4393599043270267
 20
4.361547990505078
 30
0.0
  0
SPLINE
  5
BD
330
1F
100
AcDbEntity
  8
0
  6
Continuous
 62
     7
370
    25
100
AcDbSpline
210
0.0
220
0.0
230
1.0
 70
     8
 71
     3
 72
    13
 73
     9
 74
     0
 42
0.000000001
 43
0.00000001
 40
0.0
 40
0.0
 40
0.0
 40
0.0
 40
0.2109524894948328
 40
0.3943397682890061
 40
0.5433306924710605
 40
0.6581592471817057
 40
0.8376079005805137
 40
1.0
 40
1.0
 40
1.0
 40
1.0
 10
-0.5106635213366544
 20
4.012283999945481
 30
0.0
 10
-0.510653306877703
 20
4.011861036796793
 30
0.0
 10
-0.5106342126855188
 20
4.011070379192095
 30
0.0
 10
-0.5106288622708558
 20
4.009980367722496
 30
0.0
 10
-0.5105468582458779
 20
4.009085396028901
 30
0.0
 10
-0.5104212081938845
 20
4.008207945871683
 30
0.0
 10
-0.5101652482314073
 20
4.007305119415481
 30
0.0
 10
-0.5097195674235034
 20
4.006775365897531
 30
0.0
 10
-0.5095078459085296
 20
4.006523705481841
 30
0.0
  0
SPLINE
  5
BE
330
1F
100
AcDbEntity
  8
0
  6
Continuous
 62
     7
370
    25
100
AcDbSpline
210
0.0
220
0.0
230
1.0
 70
     8
 71
     3
 72
    11
 73
     7
 74
     0
 42
0.000000001
 43
0.00000001
 40
0.0
 40
0.0
 40
0.0
 40
0.0
 40
0.2507279947664494
 40
0.4969641102232979
 40
0.7409380312270304
 40
1.0
 40
1.0
 40
1.0
 40
1.0
 10
-0.5095078459085296
 20
4.006523705481841
 30
0.0
 10
-0.5090747277030518
 20
4.006138442020975
 30
0.0
 10
-0.5082162507555245
 20
4.005374817228264
 30
0.0
 10
-0.5067011588022944
 20
4.004544814642779
 30
0.0
 10
-0.5050158708171132
 20
4.004093765535373
 30
0.0
 10
-0.5038547862510806
 20
4.004033384060246
 30
0.0
 10
-0.5032568311951862
 20
4.004002287782341
 30
0.0
  0
SPLINE
  5
BF
330
1F
100
AcDbEntity
  8
0
  6
Continuous
 62
     7
370
    25
100
AcDbSpline
210
0.0
220
0.0
230
1.0
 70
     8
 71
     3
 72
    15
 73
    11
 74
     0
 42
0.000000001
 43
0.00000001
 40
0.0
 40
0.0
 40
0.0
 40
0.0
 40
0.1344424124635942
 40
0.2532233098428746
 40
0.3631958248831459
 40
0.468548979440215
 40
0.5802928744502462
 40
0.7038649496898016
 40
0.8428506634928038
 40
1.0
 40
1.0
 40
1.0
 40
1.0
 10
-0.5032568311951862
 20
4.004002287782341
 30
0.0
 10
-0.502685539091864
 20
4.004006262062149
 30
0.0
 10
-0.5016095060555666
 20
4.004013747648501
 30
0.0
 10
-0.5001000825656414
 20
4.004364745617048
 30
0.0
 10
-0.4987945353066719
 20
4.004954504971835
 30
0.0
 10
-0.4977587379151458
 20
4.005904269001205
 30
0.0
 10
-0.4969533853562309
 20
4.007119442162768
 30
0.0
 10
-0.4964263917573463
 20
4.008625847338685
 30
0.0
 10
-0.4960694883336885
 20
4.01037664388855
 30
0.0
 10
-0.4960634756056876
 20
4.01163446775101
 30
0.0
 10
-0.4960602848445304
 20
4.012301954376528
 30
0.0
  0
SPLINE
  5
C1
330
1F
100
AcDbEntity
  8
0
  6
Continuous
 62
     7
370
    25
100
AcDbSpline
210
0.0
220
0.0
230
1.0
 70
     8
 71
     3
 72
    15
 73
    11
 74
     0
 42
0.000000001
 43
0.00000001
 40
0.0
 40
0.0
 40
0.0
 40
0.0
 40
0.1564299360184023
 40
0.2932632800185928
 40
0.4146603188757499
 40
0.5262401079479424
 40
0.6316909416697903
 40
0.7432116990180303
 40
0.8636648470558841
 40
1.0
 40
1.0
 40
1.0
 40
1.0
 10
-0.4960602848445304
 20
4.1167149221632
 30
0.0
 10
-0.4960632130689898
 20
4.117370143367719
 30
0.0
 10
-0.4960687026877387
 20
4.118598503644951
 30
0.0
 10
-0.4964243757875687
 20
4.120303928586273
 30
0.0
 10
-0.4969604101304734
 20
4.121762634056069
 30
0.0
 10
-0.4977582722999608
 20
4.122948542313361
 30
0.0
 10
-0.4988037689710002
 20
4.123865804370295
 30
0.0
 10
-0.5000989287717765
 20
4.124459126886626
 30
0.0
 10
-0.5016098497558621
 20
4.124808352584354
 30
0.0
 10
-0.5026856582870732
 20
4.124816103870446
 30
0.0
 10
-0.5032568311951862
 20
4.124820219216709
 30
0.0
  0
SPLINE
  5
C2
330
1F
100
AcDbEntity
  8
0
  6
Continuous
 62
     7
370
    25
100
AcDbSpline
210
0.0
220
0.0
230
1.0
 70
     8
 71
     3
 72
    15
 73
    11
 74
     0
 42
0.000000001
 43
0.00000001
 40
0.0
 40
0.0
 40
0.0
 40
0.0
 40
0.1331929188997192
 40
0.2513023957681119
 40
0.3597206336777303
 40
0.4666537456778187
 40
0.5768778745908911
 40
0.6994495881975671
 40
0.8409227542622786
 40
0.9999999999999999
 40
0.9999999999999999
 40
0.9999999999999999
 40
0.9999999999999999
 10
-0.5032568311951862
 20
4.124820219216709
 30
0.0
 10
-0.5038452445591638
 20
4.124826303771022
 30
0.0
 10
-0.5049554363718443
 20
4.124837783833844
 30
0.0
 10
-0.5065165637128192
 20
4.124493530187002
 30
0.0
 10
-0.5078624953673826
 20
4.123860295527982
 30
0.0
 10
-0.5089285308453994
 20
4.122874711561609
 30
0.0
 10
-0.5097811359127287
 20
4.121624903872789
 30
0.0
 10
-0.510301266580786
 20
4.120046179663324
 30
0.0
 10
-0.5106532628121693
 20
4.1182087127244
 30
0.0
 10
-0.5106599540868004
 20
4.116881556423993
 30
0.0
 10
-0.5106634956874672
 20
4.116179110642382
 30
0.0
  0
SPLINE
  5
C8
330
1F
100
AcDbEntity
  8
0
  6
Continuous
 62
     7
370
    25
100
AcDbSpline
210
0.0
220
0.0
230
1.0
 70
     8
 71
     3
 72
    13
 73
     9
 74
     0
 42
0.000000001
 43
0.00000001
 40
0.0
 40
0.0
 40
0.0
 40
0.0
 40
0.1754342048291445
 40
0.3264851919963223
 40
0.4592009834876793
 40
0.570988134653888
 40
0.7797120540908926
 40
1.0
 40
1.0
 40
1.0
 40
1.0
 10
-0.5446765186282985
 20
4.109901779862961
 30
0.0
 10
-0.5441267465871628
 20
4.109895822640192
 30
0.0
 10
-0.5431036141223208
 20
4.109884736176062
 30
0.0
 10
-0.5416633129079323
 20
4.109828508330415
 30
0.0
 10
-0.5404366199445585
 20
4.1096349924662
 30
0.0
 10
-0.5390467054516611
 20
4.109338802194212
 30
0.0
 10
-0.5374699686536376
 20
4.10863007361832
 30
0.0
 10
-0.5364734234780402
 20
4.107717616061058
 30
0.0
 10
-0.5359617199391162
 20
4.107249089623321
 30
0.0
  0
SPLINE
  5
CA
330
1F
100
AcDbEntity
  8
0
  6
Continuous
 62
     7
370
    25
100
AcDbSpline
210
0.0
220
0.0
230
1.0
 70
     8
 71
     3
 72
    13
 73
     9
 74
     0
 42
0.000000001
 43
0.00000001
 40
0.0
 40
0.0
 40
0.0
 40
0.0
 40
0.2262337562423936
 40
0.4368903456616974
 40
0.5485048960848514
 40
0.6798258279179288
 40
0.8292021458846652
 40
0.9999999999999999
 40
0.9999999999999999
 40
0.9999999999999999
 40
0.9999999999999999
 10
-0.5357778665651942
 20
4.080774203778572
 30
0.0
 10
-0.5362869232333761
 20
4.080261047308771
 30
0.0
 10
-0.5372699858294154
 20
4.079270067398463
 30
0.0
 10
-0.538855261986269
 20
4.07847027925373
 30
0.0
 10
-0.5402469636727477
 20
4.078087273469465
 30
0.0
 10
-0.5414800741028005
 20
4.07789026772689
 30
0.0
 10
-0.5429100046150166
 20
4.077751799425038
 30
0.0
 10
-0.5439282947867814
 20
4.077753075021844
 30
0.0
 10
-0.5444715046749283
 20
4.077753755492712
 30
0.0
  0
SPLINE
  5
CB
330
1F
100
AcDbEntity
  8
0
  6
Continuous
 62
     7
370
    25
100
AcDbSpline
210
0.0
220
0.0
230
1.0
 70
     8
 71
     3
 72
    11
 73
     7
 74
     0
 42
0.000000001
 43
0.00000001
 40
0.0
 40
0.0
 40
0.0
 40
0.0
 40
0.272613177675501
 40
0.5246478646442232
 40
0.7627919399982683
 40
1.0
 40
1.0
 40
1.0
 40
1.0
 10
-0.5310502083786318
 20
4.093932852397836
 30
0.0
 10
-0.5311088970068375
 20
4.092631059498996
 30
0.0
 10
-0.5312218440907959
 20
4.090125740899178
 30
0.0
 10
-0.5321351644343991
 20
4.0865811960798
 30
0.0
 10
-0.5336043967477171
 20
4.083402139181819
 30
0.0
 10
-0.5350543283122365
 20
4.081649031565578
 30
0.0
 10
-0.5357778665651942
 20
4.080774203778571
 30
0.0
  0
SPLINE
  5
CC
330
1F
100
AcDbEntity
  8
0
  6
Continuous
 62
     7
370
    25
100
AcDbSpline
210
0.0
220
0.0
230
1.0
 70
     8
 71
     3
 72
    11
 73
     7
 74
     0
 42
0.000000001
 43
0.00000001
 40
0.0
 40
0.0
 40
0.0
 40
0.0
 40
0.237392927839282
 40
0.4769067951205527
 40
0.72923247528555
 40
1.0
 40
1.0
 40
1.0
 40
1.0
 10
-0.5359617199391162
 20
4.107249089623319
 30
0.0
 10
-0.535220692019232
 20
4.10636613013083
 30
0.0
 10
-0.5337320156143226
 20
4.104592322521578
 30
0.0
 10
-0.5322079722635953
 20
4.10136992605533
 30
0.0
 10
-0.5312839194886255
 20
4.097774522515742
 30
0.0
 10
-0.5311299218301131
 20
4.095243157177777
 30
0.0
 10
-0.5310502083786318
 20
4.093932852397836
 30
0.0
  0
SPLINE
  5
CE
330
1F
100
AcDbEntity
  8
0
  6
Continuous
 62
     7
370
    25
100
AcDbSpline
210
0.0
220
0.0
230
1.0
 70
     8
 71
     3
 72
    15
 73
    11
 74
     0
 42
0.000000001
 43
0.00000001
 40
0.0
 40
0.0
 40
0.0
 40
0.0
 40
0.119313870715018
 40
0.2318855090279739
 40
0.3409040254446404
 40
0.4482940154778893
 40
0.5634667161801236
 40
0.6914524782910336
 40
0.8373054567416804
 40
1.0
 40
1.0
 40
1.0
 40
1.0
 10
-0.5368547220410224
 20
4.023569539721167
 30
0.0
 10
-0.53720265215957
 20
4.023156242724737
 30
0.0
 10
-0.5378788514326476
 20
4.022353003471643
 30
0.0
 10
-0.5390565676369588
 20
4.021348223178287
 30
0.0
 10
-0.5402988501510957
 20
4.020525557089479
 30
0.0
 10
-0.5416516112842075
 20
4.019863064786057
 30
0.0
 10
-0.5431835668372742
 20
4.019434108382117
 30
0.0
 10
-0.5449152019736898
 20
4.019118167603768
 30
0.0
 10
-0.5468842312149049
 20
4.018941550806272
 30
0.0
 10
-0.5482795627620661
 20
4.018927882841774
 30
0.0
 10
-0.5490153094875685
 20
4.018920675837714
 30
0.0
  0
SPLINE
  5
CF
330
1F
100
AcDbEntity
  8
0
  6
Continuous
 62
     7
370
    25
100
AcDbSpline
210
0.0
220
0.0
230
1.0
 70
     8
 71
     3
 72
    15
 73
    11
 74
     0
 42
0.000000001
 43
0.00000001
 40
0.0
 40
0.0
 40
0.0
 40
0.0
 40
0.1360183386150519
 40
0.2671838684003565
 40
0.3940624898857983
 40
0.5177337394339433
 40
0.6391894605450983
 40
0.7594763146379097
 40
0.8796715025429402
 40
1.0
 40
1.0
 40
1.0
 40
1.0
 10
-0.5310502083786318
 20
4.040799227334417
 30
0.0
 10
-0.5310708436947993
 20
4.03995777650681
 30
0.0
 10
-0.5311113781084336
 20
4.038304895803536
 30
0.0
 10
-0.5314167410431326
 20
4.035883806880685
 30
0.0
 10
-0.5318506112219105
 20
4.03356137860142
 30
0.0
 10
-0.5324843348308115
 20
4.031346007633168
 30
0.0
 10
-0.5332996623005299
 20
4.029234883197812
 30
0.0
 10
-0.5343028061763748
 20
4.027230434285518
 30
0.0
 10
-0.5354841961821285
 20
4.025332259477253
 30
0.0
 10
-0.5363977113170236
 20
4.02415733004027
 30
0.0
 10
-0.5368547220410224
 20
4.023569539721167
 30
0.0
  0
SPLINE
  5
D0
330
1F
100
AcDbEntity
  8
0
  6
Continuous
 62
     7
370
    25
100
AcDbSpline
210
0.0
220
0.0
230
1.0
 70
     8
 71
     3
 72
    15
 73
    11
 74
     0
 42
0.000000001
 43
0.00000001
 40
0.0
 40
0.0
 40
0.0
 40
0.0
 40
0.1109845465323965
 40
0.2250174239178446
 40
0.3438593717705144
 40
0.4690684125896389
 40
0.5984644381924691
 40
0.7292987079303963
 40
0.8634415864075133
 40
1.0
 40
1.0
 40
1.0
 40
1.0
 10
-0.5392185511343034
 20
4.060261420202432
 30
0.0
 10
-0.5386164370338522
 20
4.059725180025975
 30
0.0
 10
-0.5373956710081189
 20
4.058637971158816
 30
0.0
 10
-0.5358229045683517
 20
4.056687855338848
 30
0.0
 10
-0.5344289237851623
 20
4.054492150749493
 30
0.0
 10
-0.5332150810482512
 20
4.052061844620098
 30
0.0
 10
-0.5323004271023271
 20
4.049414030586571
 30
0.0
 10
-0.531568941487029
 20
4.046644533026039
 30
0.0
 10
-0.5311533226615853
 20
4.043753273722954
 30
0.0
 10
-0.5310847836697867
 20
4.041789749801749
 30
0.0
 10
-0.5310502083786318
 20
4.040799227334417
 30
0.0
  0
SPLINE
  5
D1
330
1F
100
AcDbEntity
  8
0
  6
Continuous
 62
     7
370
    25
100
AcDbSpline
210
0.0
220
0.0
230
1.0
 70
     8
 71
     3
 72
    11
 73
     7
 74
     0
 42
0.000000001
 43
0.00000001
 40
0.0
 40
0.0
 40
0.0
 40
0.0
 40
0.2915082590833705
 40
0.5317130467474313
 40
0.7559713596942625
 40
0.9999999999999999
 40
0.9999999999999999
 40
0.9999999999999999
 40
0.9999999999999999
 10
-0.5477627827285386
 20
4.06283534178815
 30
0.0
 10
-0.5468736906935978
 20
4.062829114740936
 30
0.0
 10
-0.5452519807762742
 20
4.062817756564472
 30
0.0
 10
-0.542976337859512
 20
4.062393143001369
 30
0.0
 10
-0.5409566163286039
 20
4.061572506184886
 30
0.0
 10
-0.5398139862054482
 20
4.060710578598677
 30
0.0
 10
-0.5392185511343036
 20
4.060261420202433
 30
0.0
  0
LINE
  5
D4
330
1F
100
AcDbEntity
  8
0
  6
Continuous
 62
     7
370
    25
100
AcDbLine
 10
-0.4303931126
 20
4.1248202192
 30
0.0
 11
-0.4810989139
 21
4.1248201936
 31
0.0
  0
LINE
  5
D5
330
1F
100
AcDbEntity
  8
0
  6
Continuous
 62
     7
370
    25
100
AcDbLine
 10
-0.4818195278
 20
4.1099018312
 30
0.0
 11
-0.463670599
 21
4.1099017799
 31
0.0
  0
LINE
  5
D6
330
1F
100
AcDbEntity
  8
0
  6
Continuous
 62
     7
370
    25
100
AcDbLine
 10
-0.463670599
 20
4.1099017799
 30
0.0
 11
-0.463670599
 21
4.014114172
 31
0.0
  0
LINE
  5
D7
330
1F
100
AcDbEntity
  8
0
  6
Continuous
 62
     7
370
    25
100
AcDbLine
 10
-0.4487521853
 20
4.0132212212
 30
0.0
 11
-0.4487521853
 21
4.1099017799
 31
0.0
  0
LINE
  5
D8
330
1F
100
AcDbEntity
  8
0
  6
Continuous
 62
     7
370
    25
100
AcDbLine
 10
-0.4487521853
 20
4.1099017799
 30
0.0
 11
-0.4307792355
 21
4.1099017799
 31
0.0
  0
LINE
  5
D9
330
1F
100
AcDbEntity
  8
0
  6
Continuous
 62
     7
370
    25
100
AcDbLine
 10
-0.5433946492
 20
4.1248202192
 30
0.0
 11
-0.5748129798
 21
4.1248201936
 31
0.0
  0
LINE
  5
DA
330
1F
100
AcDbEntity
  8
0
  6
Continuous
 62
     7
370
    25
100
AcDbLine
 10
-0.5836848029
 20
4.1156538153
 30
0.0
 11
-0.5837086822
 21
4.0135290115
 31
0.0
  0
LINE
  5
DB
330
1F
100
AcDbEntity
  8
0
  6
Continuous
 62
     7
370
    25
100
AcDbLine
 10
-0.5748073114
 20
4.0040022878
 30
0.0
 11
-0.5479443277
 21
4.0040022878
 31
0.0
  0
LINE
  5
DC
330
1F
100
AcDbEntity
  8
0
  6
Continuous
 62
     7
370
    25
100
AcDbLine
 10
-0.5270579637
 20
4.0695066184
 30
0.0
 11
-0.526340479
 21
4.0696658229
 31
0.0
  0
LINE
  5
DD
330
1F
100
AcDbEntity
  8
0
  6
Continuous
 62
     7
370
    25
100
AcDbLine
 10
-0.526340479
 20
4.0696658229
 30
0.0
 11
-0.526158934
 21
4.0696658229
 31
0.0
  0
LINE
  5
DE
330
1F
100
AcDbEntity
  8
0
  6
Continuous
 62
     7
370
    25
100
AcDbLine
 10
-0.4669168986
 20
4.3529068819
 30
0.0
 11
-0.4669169243
 21
4.2490117712
 31
0.0
  0
LINE
  5
DF
330
1F
100
AcDbEntity
  8
0
  6
Continuous
 62
     7
370
    25
100
AcDbLine
 10
-0.4523136878
 20
4.2490297257
 30
0.0
 11
-0.4523136878
 21
4.3534426935
 31
0.0
  0
LINE
  5
E0
330
1F
100
AcDbEntity
  8
0
  6
Continuous
 62
     7
370
    25
100
AcDbLine
 10
-0.5677053182
 20
4.3615479905
 30
0.0
 11
-0.6168664228
 21
4.3615479649
 31
0.0
  0
LINE
  5
E1
330
1F
100
AcDbEntity
  8
0
  6
Continuous
 62
     7
370
    25
100
AcDbLine
 10
-0.6269323694
 20
4.3514360549
 30
0.0
 11
-0.626932395
 21
4.2505217902
 31
0.0
  0
LINE
  5
E2
330
1F
100
AcDbEntity
  8
0
  6
Continuous
 62
     7
370
    25
100
AcDbLine
 10
-0.6120139813
 20
4.2505268174
 30
0.0
 11
-0.6120298325
 21
4.3012440582
 31
0.0
  0
LINE
  5
E3
330
1F
100
AcDbEntity
  8
0
  6
Continuous
 62
     7
370
    25
100
AcDbLine
 10
-0.6120298325
 20
4.3012440582
 30
0.0
 11
-0.5813487364
 21
4.3012440582
 31
0.0
  0
LINE
  5
E4
330
1F
100
AcDbEntity
  8
0
  6
Continuous
 62
     7
370
    25
100
AcDbLine
 10
-0.5809690259
 20
4.3161624719
 30
0.0
 11
-0.6120139813
 21
4.3161624719
 31
0.0
  0
LINE
  5
E5
330
1F
100
AcDbEntity
  8
0
  6
Continuous
 62
     7
370
    25
100
AcDbLine
 10
-0.6120139813
 20
4.3161624719
 30
0.0
 11
-0.6120139813
 21
4.3466295512
 31
0.0
  0
LINE
  5
E6
330
1F
100
AcDbEntity
  8
0
  6
Continuous
 62
     7
370
    25
100
AcDbLine
 10
-0.6120139813
 20
4.3466295512
 30
0.0
 11
-0.5677170142
 21
4.3466295512
 31
0.0
  0
LINE
  5
E7
330
1F
100
AcDbEntity
  8
0
  6
Continuous
 62
     7
370
    25
100
AcDbLine
 10
-0.7475
 20
3.94
 30
0.0
 11
-0.7475
 21
4.435
 31
0.0
  0
LINE
  5
E8
330
1F
100
AcDbEntity
  8
0
  6
Continuous
 62
     7
370
    25
100
AcDbLine
 10
-0.7475
 20
4.435
 30
0.0
 11
-0.2525
 21
4.435
 31
0.0
  0
LINE
  5
E9
330
1F
100
AcDbEntity
  8
0
  6
Continuous
 62
     7
370
    25
100
AcDbLine
 10
-0.2525
 20
4.435
 30
0.0
 11
-0.2525
 21
3.94
 31
0.0
  0
LINE
  5
EA
330
1F
100
AcDbEntity
  8
0
  6
Continuous
 62
     7
370
    25
100
AcDbLine
 10
-0.2525
 20
3.94
 30
0.0
 11
-0.7475
 21
3.94
 31
0.0
  0
LINE
  5
EB
330
1F
100
AcDbEntity
  8
0
  6
Continuous
 62
     7
370
    25
100
AcDbLine
 10
-0.4741974922
 20
4.2523128216
 30
0.0
 11
-0.5054336367
 21
4.3546975543
 31
0.0
  0
LINE
  5
EC
330
1F
100
AcDbEntity
  8
0
  6
Continuous
 62
     7
370
    25
100
AcDbLine
 10
-0.5204760129
 20
4.3563738313
 30
0.0
 11
-0.5513645083
 21
4.2535564481
 31
0.0
  0
LINE
  5
ED
330
1F
100
AcDbEntity
  8
0
  6
Continuous
 62
     7
370
    25
100
AcDbLine
 10
-0.538099672
 20
4.2453263934
 30
0.0
 11
-0.5333915585
 21
4.260901375
 31
0.0
  0
LINE
  5
EE
330
1F
100
AcDbEntity
  8
0
  6
Continuous
 62
     7
370
    25
100
AcDbLine
 10
-0.5333915585
 20
4.260901375
 30
0.0
 11
-0.4927254904
 21
4.260901375
 31
0.0
  0
LINE
  5
EF
330
1F
100
AcDbEntity
  8
0
  6
Continuous
 62
     7
370
    25
100
AcDbLine
 10
-0.4927254904
 20
4.260901375
 30
0.0
 11
-0.4881868667
 21
4.2462109056
 31
0.0
  0
LINE
  5
F0
330
1F
100
AcDbEntity
  8
0
  6
Continuous
 62
     7
370
    25
100
AcDbLine
 10
-0.4466615097
 20
4.3534584421
 30
0.0
 11
-0.4466615354
 21
4.2496702372
 31
0.0
  0
LINE
  5
F1
330
1F
100
AcDbEntity
  8
0
  6
Continuous
 62
     7
370
    25
100
AcDbLine
 10
-0.4378365478
 20
4.2407300591
 30
0.0
 11
-0.3861274273
 21
4.2407300591
 31
0.0
  0
LINE
  5
F2
330
1F
100
AcDbEntity
  8
0
  6
Continuous
 62
     7
370
    25
100
AcDbLine
 10
-0.3852019533
 20
4.253967502
 30
0.0
 11
-0.4320582989
 21
4.253967502
 31
0.0
  0
LINE
  5
F3
330
1F
100
AcDbEntity
  8
0
  6
Continuous
 62
     7
370
    25
100
AcDbLine
 10
-0.4320582989
 20
4.253967502
 30
0.0
 11
-0.4320582989
 21
4.3534353065
 31
0.0
  0
LINE
  5
F4
330
1F
100
AcDbEntity
  8
0
  6
Continuous
 62
     7
370
    25
100
AcDbLine
 10
-0.5106634957
 20
4.1161791106
 30
0.0
 11
-0.5106635213
 21
4.0122839999
 31
0.0
  0
LINE
  5
F5
330
1F
100
AcDbEntity
  8
0
  6
Continuous
 62
     7
370
    25
100
AcDbLine
 10
-0.4960602848
 20
4.0123019544
 30
0.0
 11
-0.4960602848
 21
4.1167149222
 31
0.0
  0
LINE
  5
F6
330
1F
100
AcDbEntity
  8
0
  6
Continuous
 62
     7
370
    25
100
AcDbLine
 10
-0.5286713899
 20
4.2758197887
 30
0.0
 11
-0.5130585245
 21
4.32809709
 31
0.0
  0
LINE
  5
F7
330
1F
100
AcDbEntity
  8
0
  6
Continuous
 62
     7
370
    25
100
AcDbLine
 10
-0.5130585245
 20
4.32809709
 30
0.0
 11
-0.497445659
 21
4.2758197887
 31
0.0
  0
LINE
  5
F8
330
1F
100
AcDbEntity
  8
0
  6
Continuous
 62
     7
370
    25
100
AcDbLine
 10
-0.497445659
 20
4.2758197887
 30
0.0
 11
-0.5286713899
 21
4.2758197887
 31
0.0
  0
LINE
  5
F9
330
1F
100
AcDbEntity
  8
0
  6
Continuous
 62
     7
370
    25
100
AcDbLine
 10
-0.5688219966
 20
4.0777537555
 30
0.0
 11
-0.5688219966
 21
4.1099017799
 31
0.0
  0
LINE
  5
FA
330
1F
100
AcDbEntity
  8
0
  6
Continuous
 62
     7
370
    25
100
AcDbLine
 10
-0.5688219966
 20
4.1099017799
 30
0.0
 11
-0.5446765186
 21
4.1099017799
 31
0.0
  0
LINE
  5
FB
330
1F
100
AcDbEntity
  8
0
  6
Continuous
 62
     7
370
    25
100
AcDbLine
 10
-0.5444715047
 20
4.0777537555
 30
0.0
 11
-0.5688219966
 21
4.0777537555
 31
0.0
  0
LINE
  5
FC
330
1F
100
AcDbEntity
  8
0
  6
Continuous
 62
     7
370
    25
100
AcDbLine
 10
-0.5490153095
 20
4.0189206758
 30
0.0
 11
-0.5697297213
 21
4.0189206758
 31
0.0
  0
LINE
  5
FD
330
1F
100
AcDbEntity
  8
0
  6
Continuous
 62
     7
370
    25
100
AcDbLine
 10
-0.5697297213
 20
4.0628353418
 30
0.0
 11
-0.5477627827
 21
4.0628353418
 31
0.0
  0
LINE
  5
FE
330
1F
100
AcDbEntity
  8
0
  6
Continuous
 62
     7
370
    25
100
AcDbLine
 10
-0.5697297213
 20
4.0189206758
 30
0.0
 11
-0.5697297213
 21
4.0628353418
 31
0.0
  0
ENDSEC
  0
SECTION
  2
OBJECTS
  0
DICTIONARY
  5
C
330
0
100
AcDbDictionary
281
     1
  3
ACAD_GROUP
350
D
  3
ACAD_LAYOUT
350
1A
  3
ACAD_MLINESTYLE
350
17
  3
ACAD_PLOTSETTINGS
350
19
  3
ACAD_PLOTSTYLENAME
350
E
  3
ACAD_SCALELIST
350
47
  0
DICTIONARY
  5
D
102
{ACAD_REACTORS
330
C
102
}
330
C
100
AcDbDictionary
281
     1
  0
DICTIONARY
  5
1A
102
{ACAD_REACTORS
330
C
102
}
330
C
100
AcDbDictionary
281
     1
  3
Layout1
350
1E
  3
Layout2
350
26
  3
Model
350
22
  0
DICTIONARY
  5
17
102
{ACAD_REACTORS
330
C
102
}
330
C
100
AcDbDictionary
281
     1
  3
Standard
350
18
  0
DICTIONARY
  5
19
102
{ACAD_REACTORS
330
C
102
}
330
C
100
AcDbDictionary
281
     1
  0
ACDBDICTIONARYWDFLT
  5
E
102
{ACAD_REACTORS
330
C
102
}
330
C
100
AcDbDictionary
281
     1
  3
Normal
350
F
100
AcDbDictionaryWithDefault
340
F
  0
DICTIONARY
  5
47
102
{ACAD_REACTORS
330
C
102
}
330
C
100
AcDbDictionary
281
     1
  3
A0
350
48
  3
A1
350
49
  3
A2
350
4A
  3
A3
350
4B
  3
A4
350
4C
  3
A5
350
4D
  3
A6
350
4E
  3
A7
350
4F
  3
A8
350
50
  3
A9
350
51
  3
B0
350
52
  3
B1
350
53
  3
B2
350
54
  3
B3
350
55
  3
B4
350
56
  3
B5
350
57
  3
B6
350
58
  3
B7
350
59
  3
B8
350
5A
  3
B9
350
5B
  3
C0
350
5C
  3
C1
350
5D
  3
C2
350
5E
  3
C3
350
5F
  3
C4
350
60
  3
C5
350
61
  3
C6
350
62
  3
C7
350
63
  3
C8
350
64
  3
C9
350
65
  3
D0
350
66
  3
D1
350
67
  3
D2
350
68
  0
LAYOUT
  5
1E
102
{ACAD_REACTORS
330
1A
102
}
330
1A
100
AcDbPlotSettings
  1

  2
none_device
  4

  6

 40
0.0
 41
0.0
 42
0.0
 43
0.0
 44
0.0
 45
0.0
 46
0.0
 47
0.0
 48
0.0
 49
0.0
140
0.0
141
0.0
142
1.0
143
1.0
 70
   688
 72
     0
 73
     0
 74
     5
  7

 75
    16
147
1.0
148
0.0
149
0.0
100
AcDbLayout
  1
Layout1
 70
     1
 71
     1
 10
0.0
 20
0.0
 11
12.0
 21
9.0
 12
0.0
 22
0.0
 32
0.0
 14
1.0000000000E+20
 24
1.0000000000E+20
 34
1.0000000000E+20
 15
-1.0000000000E+20
 25
-1.0000000000E+20
 35
-1.0000000000E+20
146
0.0
 13
0.0
 23
0.0
 33
0.0
 16
1.0
 26
0.0
 36
0.0
 17
0.0
 27
1.0
 37
0.0
 76
     0
330
1B
  0
LAYOUT
  5
26
102
{ACAD_REACTORS
330
1A
102
}
330
1A
100
AcDbPlotSettings
  1

  2
none_device
  4

  6

 40
0.0
 41
0.0
 42
0.0
 43
0.0
 44
0.0
 45
0.0
 46
0.0
 47
0.0
 48
0.0
 49
0.0
140
0.0
141
0.0
142
1.0
143
1.0
 70
   688
 72
     0
 73
     0
 74
     5
  7

 75
    16
147
1.0
148
0.0
149
0.0
100
AcDbLayout
  1
Layout2
 70
     1
 71
     2
 10
0.0
 20
0.0
 11
0.0
 21
0.0
 12
0.0
 22
0.0
 32
0.0
 14
0.0
 24
0.0
 34
0.0
 15
0.0
 25
0.0
 35
0.0
146
0.0
 13
0.0
 23
0.0
 33
0.0
 16
1.0
 26
0.0
 36
0.0
 17
0.0
 27
1.0
 37
0.0
 76
     0
330
23
  0
LAYOUT
  5
22
102
{ACAD_REACTORS
330
1A
102
}
330
1A
100
AcDbPlotSettings
  1

  2
none_device
  4
ANSI_A_(11.00_x_8.50_Inches)
  6

 40
6.35
 41
19.05
 42
6.35000508
 43
19.05000254
 44
279.4
 45
215.9
 46
349.24999746
 47
-1719.26250127
 48
0.0
 49
0.0
140
0.0
141
0.0
142
17.0
143
1.0
 70
  1696
 72
     0
 73
     0
 74
     0
  7

 75
     0
147
0.5913241897
148
-39.4088153714
149
0.0
100
AcDbLayout
  1
Model
 70
     1
 71
     0
 10
0.0
 20
0.0
 11
12.0
 21
9.0
 12
0.0
 22
0.0
 32
0.0
 14
-0.7475
 24
3.94
 34
0.0
 15
-0.2525
 25
4.435
 35
0.0
146
0.0
 13
0.0
 23
0.0
 33
0.0
 16
1.0
 26
0.0
 36
0.0
 17
0.0
 27
1.0
 37
0.0
 76
     0
330
1F
331
29
  0
MLINESTYLE
  5
18
102
{ACAD_REACTORS
330
17
102
}
330
17
100
AcDbMlineStyle
  2
Standard
 70
     0
  3

 62
   256
 51
90.0
 52
90.0
 71
     2
 49
0.5
 62
   256
  6
BYLAYER
 49
-0.5
 62
   256
  6
BYLAYER
  0
ACDBPLACEHOLDER
  5
F
102
{ACAD_REACTORS
330
E
102
}
330
E
  0
SCALE
  5
48
102
{ACAD_REACTORS
330
47
102
}
330
47
100
AcDbScale
 70
     0
300
1:1
140
1.0
141
1.0
290
     1
  0
SCALE
  5
49
102
{ACAD_REACTORS
330
47
102
}
330
47
100
AcDbScale
 70
     0
300
1:2
140
1.0
141
2.0
290
     0
  0
SCALE
  5
4A
102
{ACAD_REACTORS
330
47
102
}
330
47
100
AcDbScale
 70
     0
300
1:4
140
1.0
141
4.0
290
     0
  0
SCALE
  5
4B
102
{ACAD_REACTORS
330
47
102
}
330
47
100
AcDbScale
 70
     0
300
1:5
140
1.0
141
5.0
290
     0
  0
SCALE
  5
4C
102
{ACAD_REACTORS
330
47
102
}
330
47
100
AcDbScale
 70
     0
300
1:8
140
1.0
141
8.0
290
     0
  0
SCALE
  5
4D
102
{ACAD_REACTORS
330
47
102
}
330
47
100
AcDbScale
 70
     0
300
1:10
140
1.0
141
10.0
290
     0
  0
SCALE
  5
4E
102
{ACAD_REACTORS
330
47
102
}
330
47
100
AcDbScale
 70
     0
300
1:16
140
1.0
141
16.0
290
     0
  0
SCALE
  5
4F
102
{ACAD_REACTORS
330
47
102
}
330
47
100
AcDbScale
 70
     0
300
1:20
140
1.0
141
20.0
290
     0
  0
SCALE
  5
50
102
{ACAD_REACTORS
330
47
102
}
330
47
100
AcDbScale
 70
     0
300
1:30
140
1.0
141
30.0
290
     0
  0
SCALE
  5
51
102
{ACAD_REACTORS
330
47
102
}
330
47
100
AcDbScale
 70
     0
300
1:40
140
1.0
141
40.0
290
     0
  0
SCALE
  5
52
102
{ACAD_REACTORS
330
47
102
}
330
47
100
AcDbScale
 70
     0
300
1:50
140
1.0
141
50.0
290
     0
  0
SCALE
  5
53
102
{ACAD_REACTORS
330
47
102
}
330
47
100
AcDbScale
 70
     0
300
1:100
140
1.0
141
100.0
290
     0
  0
SCALE
  5
54
102
{ACAD_REACTORS
330
47
102
}
330
47
100
AcDbScale
 70
     0
300
2:1
140
2.0
141
1.0
290
     0
  0
SCALE
  5
55
102
{ACAD_REACTORS
330
47
102
}
330
47
100
AcDbScale
 70
     0
300
4:1
140
4.0
141
1.0
290
     0
  0
SCALE
  5
56
102
{ACAD_REACTORS
330
47
102
}
330
47
100
AcDbScale
 70
     0
300
8:1
140
8.0
141
1.0
290
     0
  0
SCALE
  5
57
102
{ACAD_REACTORS
330
47
102
}
330
47
100
AcDbScale
 70
     0
300
10:1
140
10.0
141
1.0
290
     0
  0
SCALE
  5
58
102
{ACAD_REACTORS
330
47
102
}
330
47
100
AcDbScale
 70
     0
300
100:1
140
100.0
141
1.0
290
     0
  0
SCALE
  5
59
102
{ACAD_REACTORS
330
47
102
}
330
47
100
AcDbScale
 70
     0
300
1/128" = 1'-0"
140
0.0078125
141
12.0
290
     0
  0
SCALE
  5
5A
102
{ACAD_REACTORS
330
47
102
}
330
47
100
AcDbScale
 70
     0
300
1/64" = 1'-0"
140
0.015625
141
12.0
290
     0
  0
SCALE
  5
5B
102
{ACAD_REACTORS
330
47
102
}
330
47
100
AcDbScale
 70
     0
300
1/32" = 1'-0"
140
0.03125
141
12.0
290
     0
  0
SCALE
  5
5C
102
{ACAD_REACTORS
330
47
102
}
330
47
100
AcDbScale
 70
     0
300
1/16" = 1'-0"
140
0.0625
141
12.0
290
     0
  0
SCALE
  5
5D
102
{ACAD_REACTORS
330
47
102
}
330
47
100
AcDbScale
 70
     0
300
3/32" = 1'-0"
140
0.09375
141
12.0
290
     0
  0
SCALE
  5
5E
102
{ACAD_REACTORS
330
47
102
}
330
47
100
AcDbScale
 70
     0
300
1/8" = 1'-0"
140
0.125
141
12.0
290
     0
  0
SCALE
  5
5F
102
{ACAD_REACTORS
330
47
102
}
330
47
100
AcDbScale
 70
     0
300
3/16" = 1'-0"
140
0.1875
141
12.0
290
     0
  0
SCALE
  5
60
102
{ACAD_REACTORS
330
47
102
}
330
47
100
AcDbScale
 70
     0
300
1/4" = 1'-0"
140
0.25
141
12.0
290
     0
  0
SCALE
  5
61
102
{ACAD_REACTORS
330
47
102
}
330
47
100
AcDbScale
 70
     0
300
3/8" = 1'-0"
140
0.375
141
12.0
290
     0
  0
SCALE
  5
62
102
{ACAD_REACTORS
330
47
102
}
330
47
100
AcDbScale
 70
     0
300
1/2" = 1'-0"
140
0.5
141
12.0
290
     0
  0
SCALE
  5
63
102
{ACAD_REACTORS
330
47
102
}
330
47
100
AcDbScale
 70
     0
300
3/4" = 1'-0"
140
0.75
141
12.0
290
     0
  0
SCALE
  5
64
102
{ACAD_REACTORS
330
47
102
}
330
47
100
AcDbScale
 70
     0
300
1" = 1'-0"
140
1.0
141
12.0
290
     0
  0
SCALE
  5
65
102
{ACAD_REACTORS
330
47
102
}
330
47
100
AcDbScale
 70
     0
300
1-1/2" = 1'-0"
140
1.5
141
12.0
290
     0
  0
SCALE
  5
66
102
{ACAD_REACTORS
330
47
102
}
330
47
100
AcDbScale
 70
     0
300
3" = 1'-0"
140
3.0
141
12.0
290
     0
  0
SCALE
  5
67
102
{ACAD_REACTORS
330
47
102
}
330
47
100
AcDbScale
 70
     0
300
6" = 1'-0"
140
6.0
141
12.0
290
     0
  0
SCALE
  5
68
102
{ACAD_REACTORS
330
47
102
}
330
47
100
AcDbScale
 70
     0
300
1'-0" = 1'-0"
140
12.0
141
12.0
290
     0
  0
ENDSEC
  0
EOF
