0
SECTION
2
HEADER
9
$INSUNITS
70
1
9
$ACADVER
1
AC1014
9
$HANDSEED
5
FFFF
0
ENDSEC
0
SECTION
2
TABLES
0
TABLE
2
VPORT
5
8
100
AcDbSymbolTable
0
ENDTAB
0
TABLE
2
LTYPE
5
5
100
AcDbSymbolTable
0
LTYPE
5
14
100
AcDbSymbolTableRecord
100
AcDbLinetypeTableRecord
2
BYBLOCK
70
0
0
LTYPE
5
15
100
AcDbSymbolTableRecord
100
AcDbLinetypeTableRecord
2
BYLAYER
70
0
0
ENDTAB
0
TABLE
2
LAYER
5
2
100
AcDbSymbolTable
70
2
0
LAYER
5
50
100
AcDbSymbolTableRecord
100
AcDbLayerTableRecord
2
0
70
0
6
CONTINUOUS
0
ENDTAB
0
TABLE
2
STYLE
5
3
100
AcDbSymbolTable
70
1
0
STYLE
5
11
100
AcDbSymbolTableRecord
100
AcDbTextStyleTableRecord
2
STANDARD
70
0
0
ENDTAB
0
TABLE
2
VIEW
5
6
100
AcDbSymbolTable
70
0
0
ENDTAB
0
TABLE
2
UCS
5
7
100
AcDbSymbolTable
70
0
0
ENDTAB
0
TABLE
2
APPID
5
9
100
AcDbSymbolTable
70
2
0
APPID
5
12
100
AcDbSymbolTableRecord
100
AcDbRegAppTableRecord
2
ACAD
70
0
0
ENDTAB
0
TABLE
2
DIMSTYLE
5
A
100
AcDbSymbolTable
70
1
0
ENDTAB
0
TABLE
2
BLOCK_RECORD
5
1
100
AcDbSymbolTable
70
1
0
BLOCK_RECORD
5
1F
100
AcDbSymbolTableRecord
100
AcDbBlockTableRecord
2
*MODEL_SPACE
0
BLOCK_RECORD
5
1B
100
AcDbSymbolTableRecord
100
AcDbBlockTableRecord
2
*PAPER_SPACE
0
ENDTAB
0
ENDSEC
0
SECTION
2
BLOCKS
0
BLOCK
5
20
100
AcDbEntity
100
AcDbBlockBegin
2
*MODEL_SPACE
0
ENDBLK
5
21
100
AcDbEntity
100
AcDbBlockEnd
0
BLOCK
5
1C
100
AcDbEntity
100
AcDbBlockBegin
2
*PAPER_SPACE
0
ENDBLK
5
1D
100
AcDbEntity
100
AcDbBlockEnd
0
ENDSEC
0
SECTION
2
ENTITIES
0
LWPOLYLINE
5
100
100
AcDbEntity
8
0
100
AcDbPolyline
90
4
70
1
43
0.0
10
3.4967654318902565e-16
20
-4.2499999999999991
10
-2.4999999999999996
20
-5.3629999999999995
10
-2.4999999999999996
20
-7.8881622883641809e-17
10
0
20
0
0
LWPOLYLINE
5
101
100
AcDbEntity
8
0
100
AcDbPolyline
90
22
70
1
43
0.0
10
-1.7535182025304912
20
-1.2456623157693449
42
-0.41421356237309503
10
-1.816018202530491
20
-1.1831623157693452
10
-1.816018202530491
20
-1.0042296558545107
42
0.41421356237309837
10
-1.878518202530491
20
-0.94172965585451096
10
-1.9533776574239048
20
-0.94172965585451096
42
-0.41421356237309503
10
-2.0158776574239052
20
-0.87922965585451074
10
-2.0158776574239048
20
-0.230088884749307
42
-0.41421356237309503
10
-1.9533776574239048
20
-0.16758888474930703
10
-1.6706436843608043
20
-0.1675888847493068
42
-0.41421356237309503
10
-1.6081436843608043
20
-0.23008888474930694
10
-1.6081436843608043
20
-0.59696450004451218
42
0.41421356237310075
10
-1.5456436843608039
20
-0.65946450004451251
10
-1.5295212368047595
20
-0.65946450004451251
42
-0.13654243030225685
10
-1.4972370709509173
20
-0.66844830964271351
10
-1.3990173026985064
20
-0.72770034654181603
42
-0.26280734607695844
10
-1.3688014685523489
20
-0.78121653694361481
10
-1.3688014685523489
20
-0.89264476734290155
42
0.16721524006066968
10
-1.3555712050201658
20
-0.9310991958055882
10
-1.3001942007573764
20
-1.0020509825172859
42
-0.16721524006067634
10
-1.2869639372251931
20
-1.0405054109799725
10
-1.2869639372251926
20
-1.1831623157693452
42
-0.41421356237309503
10
-1.3494639372251929
20
-1.2456623157693452
0
LWPOLYLINE
5
102
100
AcDbEntity
8
0
100
AcDbPolyline
90
10
70
1
43
0.0
10
-0.69623749039739691
20
-0.95890608006954758
42
-0.15795092522055443
10
-0.68436312883132688
20
-0.99555706550182477
10
-0.68436312883132688
20
-1.1747766642782531
42
-0.41421356237309503
10
-0.74686312883132688
20
-1.2372766642782531
10
-1.1535598947848633
20
-1.2372766642782531
42
-0.41421356237309503
10
-1.2160598947848631
20
-1.1747766642782531
10
-1.2160598947848631
20
-0.83755656833706582
42
-0.25202062775556155
10
-1.187982588751022
20
-0.78539021768732065
10
-0.99017013441753499
20
-0.65486091108630995
42
-0.40157330800931224
10
-0.90512180201744563
20
-0.67037627630377827
0
LWPOLYLINE
5
103
100
AcDbEntity
8
0
100
AcDbPolyline
90
8
70
1
43
0.0
10
-1.0813633964500804
20
-1.9161548395867996
42
-0.41421356237309503
10
-1.1438633964500802
20
-1.9786548395867993
10
-1.5000011959232566
20
-1.9786548395867996
42
-0.41421356237309503
10
-1.5830052938276196
20
-1.8956507416824366
10
-1.5830052938276196
20
-1.6916669857278654
42
-0.41421356237310075
10
-1.5205052938276191
20
-1.6291669857278646
10
-1.1438633964500806
20
-1.6291669857278643
42
-0.41421356237309664
10
-1.0813633964500804
20
-1.6916669857278643
0
LWPOLYLINE
5
104
100
AcDbEntity
8
0
100
AcDbPolyline
90
8
70
1
43
0.0
10
-1.0512821020078864
20
-2.909697653758812
42
-0.41421356237309503
10
-1.1137821020078864
20
-2.847197653758812
10
-1.1137821020078862
20
-2.6799614583563955
42
-0.41421356237309503
10
-1.0512821020078864
20
-2.6174614583563955
10
-0.613028180836234
20
-2.6174614583563951
42
-0.41421356237309503
10
-0.55052818083623389
20
-2.6799614583563955
10
-0.55052818083623356
20
-2.8471976537588111
42
-0.41421356237309503
10
-0.613028180836234
20
-2.9096976537588115
0
LWPOLYLINE
5
105
100
AcDbEntity
8
0
100
AcDbPolyline
90
16
70
1
43
0.0
10
-1.6014822104545192
20
-2.0891947632827907
42
-0.41421356237309503
10
-1.5389822104545192
20
-2.1516947632827907
10
-1.5389822104545192
20
-2.4964041022207426
42
-0.41421356237309503
10
-1.6014822104545192
20
-2.5589041022207426
10
-2.2160764224787384
20
-2.5589041022207426
42
-0.41421356237309503
10
-2.2785764224787384
20
-2.4964041022207426
10
-2.2785764224787384
20
-2.1449933330255702
42
-0.41421356237309503
10
-2.2160764224787384
20
-2.0824933330255702
10
-2.0029588049553109
20
-2.0824933330255697
42
-0.41421356237309503
10
-1.9404588049553106
20
-2.1449933330255702
10
-1.9404588049553102
20
-2.2721728450871317
42
0.41421356237310158
10
-1.87795880495531
20
-2.3346728450871317
10
-1.8402968159845801
20
-2.3346728450871317
42
0.41421356237310158
10
-1.7777968159845803
20
-2.2721728450871317
10
-1.7777968159845807
20
-2.1516947632827907
42
-0.41421356237309503
10
-1.7152968159845805
20
-2.0891947632827907
0
LWPOLYLINE
5
106
100
AcDbEntity
8
0
100
AcDbPolyline
90
8
70
1
43
0.0
10
-1.1900412965392615
20
-1.3969816729475413
42
-0.41421356237309503
10
-1.1275412965392615
20
-1.4594816729475411
10
-1.1275412965392615
20
-1.4798584063157263
42
-0.41421356237309503
10
-1.1900412965392615
20
-1.5423584063157263
10
-1.3491963731059997
20
-1.5423584063157265
42
-0.41421356237309503
10
-1.4116963731059999
20
-1.4798584063157263
10
-1.4116963731059999
20
-1.4594816729475411
42
-0.41421356237309503
10
-1.3491963731059997
20
-1.3969816729475411
0
LWPOLYLINE
5
107
100
AcDbEntity
8
0
100
AcDbPolyline
90
8
70
1
43
0.0
10
-2.0074728478277546
20
-2.9155679695892833
42
-0.41421356237309503
10
-2.0699728478277541
20
-2.8530679695892833
10
-2.069972847827755
20
-2.7402076376018751
42
-0.41421356237309503
10
-2.0074728478277546
20
-2.6777076376018742
10
-1.7922707181530919
20
-2.6777076376018742
42
-0.41421356237309503
10
-1.7297707181530915
20
-2.7402076376018751
10
-1.7297707181530917
20
-2.8530679695892833
42
-0.41421356237309503
10
-1.7922707181530919
20
-2.9155679695892833
0
LWPOLYLINE
5
108
100
AcDbEntity
8
0
100
AcDbPolyline
90
10
70
1
43
0.0
10
-1.5642147871826666
20
-1.4494952628508808
42
-0.41421356237309914
10
-1.626714787182667
20
-1.5119952628508813
10
-2.1326958152811399
20
-1.5119952628508813
42
-0.41421356237309914
10
-2.1951958152811404
20
-1.4494952628508808
10
-2.1951958152811404
20
-1.3801268743678836
42
-0.16422203735699037
10
-2.1824102977831714
20
-1.3422491734139546
10
-2.1547433662814468
20
-1.3059363258179411
42
-0.23406942187557561
10
-2.1050288837794153
20
-1.2813140267718695
10
-1.6267147871826673
20
-1.2813140267718695
42
-0.41421356237309914
10
-1.5642147871826666
20
-1.3438140267718699
0
LWPOLYLINE
5
109
100
AcDbEntity
8
0
100
AcDbPolyline
90
8
70
1
43
0.0
10
-0.4682218692703321
20
-3.2711792317061996
42
-0.41421356237309503
10
-0.53072186927033194
20
-3.2086792317062001
10
-0.53072186927033227
20
-3.0348412596030214
42
-0.41421356237309503
10
-0.4682218692703321
20
-2.972341259603021
10
-0.33883348111842737
20
-2.972341259603021
42
-0.41421356237309503
10
-0.27633348111842732
20
-3.0348412596030214
10
-0.27633348111842759
20
-3.2086792317062001
42
-0.41421356237309503
10
-0.33883348111842737
20
-3.2711792317061996
0
LWPOLYLINE
5
110
100
AcDbEntity
8
0
100
AcDbPolyline
90
8
70
1
43
0.0
10
-1.4516933152324263
20
-3.0551548880357164
42
-0.41421356237309503
10
-1.5141933152324265
20
-2.9926548880357164
10
-1.5141933152324261
20
-2.8708435986173075
42
-0.41421356237309503
10
-1.4516933152324263
20
-2.8083435986173075
10
-1.2515074102326855
20
-2.8083435986173075
42
-0.41421356237309503
10
-1.1890074102326855
20
-2.8708435986173075
10
-1.1890074102326853
20
-2.9926548880357164
42
-0.41421356237309503
10
-1.2515074102326855
20
-3.0551548880357164
0
LWPOLYLINE
5
111
100
AcDbEntity
8
0
100
AcDbPolyline
90
8
70
1
43
0.0
10
-2.3447408420908409
20
-1.9617762287195835
42
-0.41421356237309503
10
-2.4072408420908404
20
-1.8992762287195837
10
-2.4072408420908404
20
-1.7228278977715858
42
-0.41421356237309503
10
-2.3447408420908409
20
-1.6603278977715861
10
-2.2337636439102626
20
-1.6603278977715861
42
-0.41421356237309503
10
-2.1712636439102622
20
-1.7228278977715861
10
-2.1712636439102626
20
-1.8992762287195837
42
-0.41421356237309503
10
-2.2337636439102626
20
-1.9617762287195835
0
LWPOLYLINE
5
112
100
AcDbEntity
8
0
100
AcDbPolyline
90
8
70
1
43
0.0
10
-0.81938843071754408
20
-4.0288476119001011
42
-0.41421356237309503
10
-0.75688843071754386
20
-4.091347611900102
10
-0.7568884307175443
20
-4.2745952403931309
42
-0.41421356237309748
10
-0.81938843071754464
20
-4.3370952403931309
10
-1.8025053237551785
20
-4.3370952403931309
42
-0.41421356237309837
10
-1.8650053237551794
20
-4.2745952403931309
10
-1.8650053237551789
20
-4.091347611900102
42
-0.41421356237309503
10
-1.8025053237551791
20
-4.028847611900102
0
LWPOLYLINE
5
113
100
AcDbEntity
8
0
100
AcDbPolyline
90
12
70
1
43
0.0
10
-1.0632195621343339
20
-2.511942398080639
42
-0.41421356237309503
10
-1.1257195621343339
20
-2.4494423980806386
10
-1.1257195621343337
20
-2.354786327491408
42
-0.41421356237309503
10
-1.0632195621343339
20
-2.292286327491408
10
-0.7807299094586283
20
-2.2922863274914076
42
0.19891236737965604
10
-0.73653573563446872
20
-2.2739805013155672
10
-0.70725296966786044
20
-2.2446977353489577
42
-0.19891236737965903
10
-0.66305879584370098
20
-2.2263919091731168
10
-0.56940991100499672
20
-2.2263919091731168
42
-0.41421356237309503
10
-0.50690991100499672
20
-2.2888919091731168
10
-0.50690991100499672
20
-2.4494423980806386
42
-0.41421356237309503
10
-0.56940991100499683
20
-2.511942398080639
0
LWPOLYLINE
5
114
100
AcDbEntity
8
0
100
AcDbPolyline
90
8
70
1
43
0.0
10
-0.93511277198770326
20
-1.5119952628508813
42
-0.41421356237309503
10
-0.99761277198770326
20
-1.4494952628508815
10
-0.99761277198770326
20
-1.3438140267718692
42
-0.41421356237309503
10
-0.93511277198770326
20
-1.2813140267718695
10
-0.71661985907869474
20
-1.2813140267718695
42
-0.41421356237309503
10
-0.65411985907869485
20
-1.3438140267718692
10
-0.65411985907869485
20
-1.4494952628508815
42
-0.41421356237309503
10
-0.71661985907869474
20
-1.5119952628508813
0
LWPOLYLINE
5
115
100
AcDbEntity
8
0
100
AcDbPolyline
90
2
70
1
43
0.0
10
-1.327458677045916
20
-0.72795224327427843
42
-7.4926173183093185
10
-1.2035573229540826
20
-0.72795224327427832
42
-1.1423318120351504
0
LWPOLYLINE
5
116
100
AcDbEntity
8
0
100
AcDbPolyline
90
8
70
1
43
0.0
10
-2.3362471999891081
20
-3.3581039478479187
42
-0.41421356237309503
10
-2.3987471999891081
20
-3.2956039478479187
10
-2.3987471999891081
20
-3.124916703523597
42
-0.41421356237309503
10
-2.3362471999891081
20
-3.0624167035235974
10
-2.2078009905682618
20
-3.0624167035235974
42
-0.41421356237309503
10
-2.1453009905682618
20
-3.124916703523597
10
-2.1453009905682618
20
-3.2956039478479187
42
-0.41421356237309503
10
-2.2078009905682618
20
-3.3581039478479187
0
LWPOLYLINE
5
117
100
AcDbEntity
8
0
100
AcDbPolyline
90
16
70
1
43
0.0
10
-1.4592691329018923
20
-3.8988454927493499
42
-0.42270193316501448
10
-1.5217430454333387
20
-3.9631511098220562
10
-2.2068015698707737
20
-3.9631511098220562
42
-0.41421356237309503
10
-2.2693015698707741
20
-3.9006511098220558
10
-2.2693015698707737
20
-3.6758983414609174
42
-0.41421356237309837
10
-2.2068015698707732
20
-3.6133983414609174
10
-2.0105094577805915
20
-3.6133983414609165
42
-0.26199113845469851
10
-1.9570921294014729
20
-3.6434508603747409
10
-1.9478528041729395
20
-3.6586612882173029
42
0.26199113845471156
10
-1.8944354757938222
20
-3.6887138071311303
10
-1.7478667312617662
20
-3.6887138071311303
42
0.13732037770032229
10
-1.7154192501755925
20
-3.6796311355102471
10
-1.6884332673681754
20
-3.6632389423155423
42
-0.23894674394098733
10
-1.6320895048698099
20
-3.658904926687184
10
-1.50160409510806
20
-3.71289702203042
42
-0.29557651503496335
10
-1.4630264639888024
20
-3.7688427489651875
0
LWPOLYLINE
5
118
100
AcDbEntity
8
0
100
AcDbPolyline
90
10
70
1
43
0.0
10
-0.69174360134219393
20
-3.8980199343378485
42
-0.4056253065257705
10
-0.75421657198119207
20
-3.8373578515119484
10
-0.75787814720636382
20
-3.7128965946293198
42
-0.18228240019168229
10
-0.7435363484299734
20
-3.6711883840636221
10
-0.71042451736488677
20
-3.6312159861676188
42
-0.22335586801974835
10
-0.66229334550227803
20
-3.6085862795592161
10
-0.57600956262266423
20
-3.608586279559217
42
-0.41421356237309748
10
-0.51350956262266367
20
-3.6710862795592165
10
-0.51350956262266412
20
-3.835519934337849
42
-0.41421356237309503
10
-0.57600956262266401
20
-3.8980199343378485
0
LWPOLYLINE
5
119
100
AcDbEntity
8
0
100
AcDbPolyline
90
8
70
1
43
0.0
10
-1.1024397721429158
20
-3.8951390575497107
42
-0.41421356237309503
10
-1.1649397721429162
20
-3.8326390575497102
10
-1.1649397721429162
20
-3.7247330454857739
42
-0.41421356237309503
10
-1.1024397721429158
20
-3.6622330454857734
10
-0.8942928234383295
20
-3.6622330454857726
42
-0.41421356237309503
10
-0.83179282343832939
20
-3.724733045485773
10
-0.83179282343832905
20
-3.8326390575497102
42
-0.41421356237309503
10
-0.8942928234383295
20
-3.8951390575497107
0
LWPOLYLINE
5
120
100
AcDbEntity
8
0
100
AcDbPolyline
90
8
70
1
43
0.0
10
-1.4529558026212543
20
-3.5800426517934163
42
-0.41421356237309503
10
-1.5154558026212543
20
-3.5175426517934163
10
-1.5154558026212541
20
-3.4096780258133674
42
-0.41421356237309503
10
-1.4529558026212543
20
-3.3471780258133674
10
-1.243992299405603
20
-3.3471780258133665
42
-0.41421356237309503
10
-1.1814922994056032
20
-3.4096780258133665
10
-1.1814922994056023
20
-3.5175426517934159
42
-0.41421356237309503
10
-1.243992299405603
20
-3.5800426517934163
0
LWPOLYLINE
5
121
100
AcDbEntity
8
0
100
AcDbPolyline
90
8
70
1
43
0.0
10
-0.31718893420889954
20
-1.6505580489829874
42
-0.41421356237309892
10
-0.25468893420889915
20
-1.7130580489829876
10
-0.25468893420889926
20
-1.8956507416824362
42
-0.41421356237309892
10
-0.31718893420889954
20
-1.9581507416824364
10
-0.44619628622499835
20
-1.9581507416824369
42
-0.41421356237309914
10
-0.50869628622499885
20
-1.8956507416824362
10
-0.50869628622499874
20
-1.7130580489829872
42
-0.41421356237309709
10
-0.44619628622499846
20
-1.6505580489829874
0
CIRCLE
5
122
100
AcDbEntity
8
0
100
AcDbCircle
10
-1.3159972918382921
20
-3.2040705245432064
30
0
40
0.084749999999999673
210
0
220
0
230
1
0
CIRCLE
5
123
100
AcDbEntity
8
0
100
AcDbCircle
10
-0.70595684771470801
20
-0.69965464402374733
30
0
40
0.084749999999999742
210
0
220
0
230
1
0
CIRCLE
5
124
100
AcDbEntity
8
0
100
AcDbCircle
10
-0.80209569361634137
20
-3.6106466082830817
30
0
40
0.062499999999999938
210
0
220
0
230
1
0
CIRCLE
5
125
100
AcDbEntity
8
0
100
AcDbCircle
10
-1.8610427553438171
20
-2.2075986673736461
30
0
40
0.062499999999999938
210
0
220
0
230
1
0
CIRCLE
5
126
100
AcDbEntity
8
0
100
AcDbCircle
10
-0.80209569361634137
20
-2.2075986673736461
30
0
40
0.062499999999999938
210
0
220
0
230
1
0
CIRCLE
5
127
100
AcDbEntity
8
0
100
AcDbCircle
10
-1.8610427553438174
20
-1.8325986673736463
30
0
40
0.25250000000000011
210
0
220
0
230
1
0
CIRCLE
5
128
100
AcDbEntity
8
0
100
AcDbCircle
10
-1.8610427553438178
20
-3.2356466082830821
30
0
40
0.25250000000000017
210
0
220
0
230
1
0
CIRCLE
5
129
100
AcDbEntity
8
0
100
AcDbCircle
10
-0.80209569361634114
20
-3.2356466082830821
30
0
40
0.25250000000000095
210
0
220
0
230
1
0
CIRCLE
5
130
100
AcDbEntity
8
0
100
AcDbCircle
10
-0.80209569361634148
20
-1.8325986673736463
30
0
40
0.25250000000000011
210
0
220
0
230
1
0
CIRCLE
5
131
100
AcDbEntity
8
0
100
AcDbCircle
10
-1.8610427553438174
20
-3.6106466082830817
30
0
40
0.062499999999999938
210
0
220
0
230
1
0
CIRCLE
5
132
100
AcDbEntity
8
0
100
AcDbCircle
10
-2.3075000000000001
20
-0.5625
30
0
40
0.084749999999999409
210
0
220
0
230
1
0
CIRCLE
5
133
100
AcDbEntity
8
0
100
AcDbCircle
10
-0.19249999999999998
20
-0.5625
30
0
40
0.084749999999999534
210
0
220
0
230
1
0
CIRCLE
5
134
100
AcDbEntity
8
0
100
AcDbCircle
10
-0.19249999999999998
20
-3.5624999999999996
30
0
40
0.084749999999999534
210
0
220
0
230
1
0
CIRCLE
5
135
100
AcDbEntity
8
0
100
AcDbCircle
10
-2.3075000000000001
20
-4.3124999999999991
30
0
40
0.084749999999999409
210
0
220
0
230
1
0
ENDSEC
0
SECTION
2
OBJECTS
0
DICTIONARY
5
C
100
AcDbDictionary
3
ACAD_GROUP
350
D
3
ACAD_MLINESTYLE
350
17
0
DICTIONARY
5
D
100
AcDbDictionary
0
DICTIONARY
5
1A
330
C
100
AcDbDictionary
0
DICTIONARY
5
17
100
AcDbDictionary
0
ENDSEC
0
EOF
