0
SECTION
2
HEADER
9
$INSUNITS
70
4
9
$ACADVER
1
AC1014
9
$HANDSEED
5
FFFF
0
ENDSEC
0
SECTION
2
TABLES
0
TABLE
2
VPORT
5
8
100
AcDbSymbolTable
0
ENDTAB
0
TABLE
2
LTYPE
5
5
100
AcDbSymbolTable
0
LTYPE
5
14
100
AcDbSymbolTableRecord
100
AcDbLinetypeTableRecord
2
BYBLOCK
70
0
0
LTYPE
5
15
100
AcDbSymbolTableRecord
100
AcDbLinetypeTableRecord
2
BYLAYER
70
0
0
ENDTAB
0
TABLE
2
LAYER
5
2
100
AcDbSymbolTable
70
2
0
LAYER
5
50
100
AcDbSymbolTableRecord
100
AcDbLayerTableRecord
2
0
70
0
6
CONTINUOUS
0
ENDTAB
0
TABLE
2
STYLE
5
3
100
AcDbSymbolTable
70
1
0
STYLE
5
11
100
AcDbSymbolTableRecord
100
AcDbTextStyleTableRecord
2
STANDARD
70
0
0
ENDTAB
0
TABLE
2
VIEW
5
6
100
AcDbSymbolTable
70
0
0
ENDTAB
0
TABLE
2
UCS
5
7
100
AcDbSymbolTable
70
0
0
ENDTAB
0
TABLE
2
APPID
5
9
100
AcDbSymbolTable
70
2
0
APPID
5
12
100
AcDbSymbolTableRecord
100
AcDbRegAppTableRecord
2
ACAD
70
0
0
ENDTAB
0
TABLE
2
DIMSTYLE
5
A
100
AcDbSymbolTable
70
1
0
ENDTAB
0
TABLE
2
BLOCK_RECORD
5
1
100
AcDbSymbolTable
70
1
0
BLOCK_RECORD
5
1F
100
AcDbSymbolTableRecord
100
AcDbBlockTableRecord
2
*MODEL_SPACE
0
BLOCK_RECORD
5
1B
100
AcDbSymbolTableRecord
100
AcDbBlockTableRecord
2
*PAPER_SPACE
0
ENDTAB
0
ENDSEC
0
SECTION
2
BLOCKS
0
BLOCK
5
20
100
AcDbEntity
100
AcDbBlockBegin
2
*MODEL_SPACE
0
ENDBLK
5
21
100
AcDbEntity
100
AcDbBlockEnd
0
BLOCK
5
1C
100
AcDbEntity
100
AcDbBlockBegin
2
*PAPER_SPACE
0
ENDBLK
5
1D
100
AcDbEntity
100
AcDbBlockEnd
0
ENDSEC
0
SECTION
2
ENTITIES
0
LINE
5
100
100
AcDbEntity
8
0
100
AcDbLine
10
-1216.0999832153323
20
657.11028289794763
30
3.6239623923961517e-06
11
-1188.3624832153305
21
657.11028289794763
31
3.6239623923961517e-06
0
LINE
5
101
100
AcDbEntity
8
0
100
AcDbLine
10
-1188.3624832153305
20
657.11028289794763
30
3.6239623923961517e-06
11
-1188.3624832153305
21
661.99981336369865
31
0
0
ARC
5
102
100
AcDbEntity
8
0
100
AcDbCircle
10
-1182.3624832153396
20
661.99980731201106
30
0
40
5.9999999999999432
210
0
220
0
230
1
100
AcDbArc
50
0
51
179.99994221396571
0
LINE
5
103
100
AcDbEntity
8
0
100
AcDbLine
10
-1176.3624832153396
20
661.99980731201106
30
0
11
-1176.3624832153305
21
657.11028289794763
31
0
0
LINE
5
104
100
AcDbEntity
8
0
100
AcDbLine
10
-1176.3624832153305
20
657.11028289794763
30
0
11
-1161.8124832153305
21
657.11028289794763
31
3.6239623923961517e-06
0
LINE
5
105
100
AcDbEntity
8
0
100
AcDbLine
10
-1161.8124832153305
20
657.11028289794763
30
3.6239623923961517e-06
11
-1161.8124832153305
21
661.99981336369865
31
0
0
ARC
5
106
100
AcDbEntity
8
0
100
AcDbCircle
10
-1155.8124832153396
20
661.99980731201106
30
0
40
5.9999999999999432
210
0
220
0
230
1
100
AcDbArc
50
0
51
179.99994221396571
0
LINE
5
107
100
AcDbEntity
8
0
100
AcDbLine
10
-1149.8124832153396
20
661.99980731201106
30
0
11
-1149.8124832153392
21
657.11028289794763
31
5.7198690228688065e-12
0
LINE
5
108
100
AcDbEntity
8
0
100
AcDbLine
10
-1149.8124832153392
20
657.11028289794763
30
5.7198690228688065e-12
11
-1114.1874832153392
21
657.11028289794763
31
8.8284934918192448e-12
0
LINE
5
109
100
AcDbEntity
8
0
100
AcDbLine
10
-1114.1874832153392
20
657.11028289794763
30
8.8284934918192448e-12
11
-1114.1874832153392
21
661.99980731200776
31
8.8284934918192448e-12
0
ARC
5
110
100
AcDbEntity
8
0
100
AcDbCircle
10
-1108.1874832153394
20
661.99980731200776
30
0
40
5.9999999999999432
210
0
220
0
230
1
100
AcDbArc
50
0
51
180
0
LINE
5
111
100
AcDbEntity
8
0
100
AcDbLine
10
-1102.1874832153394
20
661.99980731200776
30
0
11
-1102.1874832153392
21
657.11028289794763
31
8.8284934918192448e-12
0
LINE
5
112
100
AcDbEntity
8
0
100
AcDbLine
10
-1102.1874832153392
20
657.11028289794763
30
8.8284934918192448e-12
11
-1038.0124832153331
21
657.11028289794763
31
-3.4461322684364859e-12
0
LINE
5
113
100
AcDbEntity
8
0
100
AcDbLine
10
-1038.0124832153331
20
657.11028289794763
30
-3.4461322684364859e-12
11
-1038.0124832153331
21
661.99980731201163
31
2.9753977059954195e-12
0
ARC
5
114
100
AcDbEntity
8
0
100
AcDbCircle
10
-1032.0124832153331
20
661.99980731201163
30
0
40
5.9999999999999432
210
0
220
0
230
1
100
AcDbArc
50
0
51
180
0
LINE
5
115
100
AcDbEntity
8
0
100
AcDbLine
10
-1026.0124832153333
20
661.99980731201163
30
0
11
-1026.0124832153331
21
657.11028289794763
31
-1.1528555887707626e-11
0
LINE
5
116
100
AcDbEntity
8
0
100
AcDbLine
10
-1026.0124832153331
20
657.11028289794763
30
-1.1528555887707626e-11
11
-990.38748321533308
21
657.11028289794763
31
3.4106051316484809e-12
0
LINE
5
117
100
AcDbEntity
8
0
100
AcDbLine
10
-990.38748321533308
20
657.11028289794763
30
3.4106051316484809e-12
11
-990.38748321533308
21
661.99980731201163
31
5.0803805606847163e-12
0
ARC
5
118
100
AcDbEntity
8
0
100
AcDbCircle
10
-984.38748321533308
20
661.99980731201163
30
0
40
5.9999999999999432
210
0
220
-0
230
1
100
AcDbArc
50
90
51
180
0
LINE
5
119
100
AcDbEntity
8
0
100
AcDbLine
10
-984.38748321533308
20
667.99980731201163
30
0
11
-970.09998321533203
21
667.99980731201163
31
1.6076029396572267e-12
0
LINE
5
120
100
AcDbEntity
8
0
100
AcDbLine
10
-970.09998321533203
20
667.99980731201163
30
1.6076029396572267e-12
11
-970.09998321533203
21
792.2708073120117
31
2.6645352591003757e-13
0
LINE
5
121
100
AcDbEntity
8
0
100
AcDbLine
10
-970.09998321533203
20
792.2708073120117
30
2.6645352591003757e-13
11
-984.3874832153333
21
792.2708073120117
31
1.0125233984581428e-12
0
ARC
5
122
100
AcDbEntity
8
0
100
AcDbCircle
10
-984.3874832153333
20
798.27080731201158
30
0
40
5.9999999999999432
210
0
220
0
230
1
100
AcDbArc
50
180
51
270
0
LINE
5
123
100
AcDbEntity
8
0
100
AcDbLine
10
-990.38748321533319
20
798.27080731201158
30
0
11
-990.3874832153333
21
803.1602218627927
31
7.9047879353311146e-13
0
LINE
5
124
100
AcDbEntity
8
0
100
AcDbLine
10
-990.3874832153333
20
803.1602218627927
30
7.9047879353311146e-13
11
-1026.0124832153333
21
803.1602218627927
31
5.0448534238967113e-12
0
LINE
5
125
100
AcDbEntity
8
0
100
AcDbLine
10
-1026.0124832153333
20
803.1602218627927
30
5.0448534238967113e-12
11
-1026.0124832153333
21
798.27080731201158
31
5.0448534238967113e-12
0
ARC
5
126
100
AcDbEntity
8
0
100
AcDbCircle
10
-1032.0124832153331
20
798.27080731201158
30
0
40
5.9999999999999432
210
0
220
0
230
1
100
AcDbArc
50
-180
51
0
0
LINE
5
127
100
AcDbEntity
8
0
100
AcDbLine
10
-1038.0124832153331
20
798.27080731201158
30
0
11
-1038.0124832153333
21
803.1602218627927
31
5.0448534238967113e-12
0
LINE
5
128
100
AcDbEntity
8
0
100
AcDbLine
10
-1038.0124832153333
20
803.1602218627927
30
5.0448534238967113e-12
11
-1102.1874832153301
21
803.1602218627927
31
-7.4695805096780532e-12
0
LINE
5
129
100
AcDbEntity
8
0
100
AcDbLine
10
-1102.1874832153301
20
803.1602218627927
30
-7.4695805096780532e-12
11
-1102.1874832153301
21
798.27080731200783
31
-7.4695805096780532e-12
0
ARC
5
130
100
AcDbEntity
8
0
100
AcDbCircle
10
-1108.1874832153303
20
798.27080731200783
30
0
40
5.9999999999999432
210
0
220
0
230
1
100
AcDbArc
50
-180
51
0
0
LINE
5
131
100
AcDbEntity
8
0
100
AcDbLine
10
-1114.1874832153301
20
798.27080731200783
30
0
11
-1114.1874832153301
21
803.1602218627927
31
2.4247270857813419e-12
0
LINE
5
132
100
AcDbEntity
8
0
100
AcDbLine
10
-1114.1874832153301
20
803.1602218627927
30
2.4247270857813419e-12
11
-1149.8124832153305
21
803.1602218627927
31
-1.1444036207564068e-06
0
LINE
5
133
100
AcDbEntity
8
0
100
AcDbLine
10
-1149.8124832153305
20
803.1602218627927
30
-1.1444036207564068e-06
11
-1149.8124832153305
21
798.27080731201113
31
-1.1444036207564068e-06
0
ARC
5
134
100
AcDbEntity
8
0
100
AcDbCircle
10
-1155.8124832153305
20
798.27080731201113
30
0
40
5.9999999999999432
210
0
220
0
230
1
100
AcDbArc
50
-180
51
1.0933637455190016e-05
0
LINE
5
135
100
AcDbEntity
8
0
100
AcDbLine
10
-1161.8124832153305
20
798.27080731201113
30
0
11
-1161.8124832153305
21
803.1602218627927
31
-1.1444036207564068e-06
0
LINE
5
136
100
AcDbEntity
8
0
100
AcDbLine
10
-1161.8124832153305
20
803.1602218627927
30
-1.1444036207564068e-06
11
-1176.3624832153305
21
803.1602218627927
31
0
0
LINE
5
137
100
AcDbEntity
8
0
100
AcDbLine
10
-1176.3624832153305
20
803.1602218627927
30
0
11
-1176.3624832153305
21
798.27080731201113
31
0
0
ARC
5
138
100
AcDbEntity
8
0
100
AcDbCircle
10
-1182.3624832153305
20
798.27080731201113
30
0
40
5.9999999999999432
210
0
220
0
230
1
100
AcDbArc
50
-180
51
0
0
LINE
5
139
100
AcDbEntity
8
0
100
AcDbLine
10
-1188.3624832153305
20
798.27080731201113
30
0
11
-1188.3624832153305
21
803.1602218627927
31
0
0
LINE
5
140
100
AcDbEntity
8
0
100
AcDbLine
10
-1188.3624832153305
20
803.1602218627927
30
0
11
-1216.0999832153323
21
803.1602218627927
31
0
0
ARC
5
141
100
AcDbEntity
8
0
100
AcDbCircle
10
-1216.0999832153323
20
802.1602218627927
30
0
40
0.99999999999994316
210
0
220
-0
230
1
100
AcDbArc
50
90
51
180
0
LINE
5
142
100
AcDbEntity
8
0
100
AcDbLine
10
-1217.0999832153323
20
802.1602218627927
30
0
11
-1217.099983215332
21
658.11028289794763
31
3.6239623923961517e-06
0
ARC
5
143
100
AcDbEntity
8
0
100
AcDbCircle
10
-1216.0999832073467
20
658.11028289794763
30
-0.0044071006045378926
40
1.0000000000063676
210
3.623962392373076e-06
220
0
230
0.99999999999343347
100
AcDbArc
50
180
51
269.99999999924438
0
ARC
5
144
100
AcDbEntity
8
0
100
AcDbCircle
10
-1145.0999908339506
20
770.79062744140629
30
3.7715751854960899e-06
40
2.5
210
0
220
-0
230
1
100
AcDbArc
50
89.999999753034089
51
179.99999879258175
0
LINE
5
145
100
AcDbEntity
8
0
100
AcDbLine
10
-1145.0999908231747
20
773.29062744140629
30
3.7715751854960899e-06
11
-995.09997556438566
21
773.29062744140629
31
0
0
ARC
5
146
100
AcDbEntity
8
0
100
AcDbCircle
10
-995.09997557516112
20
770.79062744140629
30
-2.0907458058983442e-05
40
2.5000000000000004
210
2.1551858964130585e-08
220
0
230
0.99999999999999978
100
AcDbArc
50
0
51
89.999999753036704
0
LINE
5
147
100
AcDbEntity
8
0
100
AcDbLine
10
-992.59997557516147
20
770.79062744140629
30
4.849166224119017e-07
11
-992.5999755859375
21
688.87062744140621
31
0
0
ARC
5
148
100
AcDbEntity
8
0
100
AcDbCircle
10
-995.09997557516135
20
688.87062744140621
30
5.3879626982222817e-07
40
2.5
210
0
220
0
230
1
100
AcDbArc
50
-89.999999753031503
51
1.2342862421580037e-05
0
LINE
5
149
100
AcDbEntity
8
0
100
AcDbLine
10
-995.09997556438532
20
686.37062744140621
30
5.3879626982222817e-07
11
-1145.0999908231747
21
686.37062744140621
31
0
0
ARC
5
150
100
AcDbEntity
8
0
100
AcDbCircle
10
-1145.0999908339504
20
688.87062744140621
30
-2.0907458316784435e-05
40
2.5000000000000004
210
2.1551858964130585e-08
220
0
230
0.99999999999999978
100
AcDbArc
50
180
51
270.00000024697113
0
LINE
5
151
100
AcDbEntity
8
0
100
AcDbLine
10
-1147.5999908339504
20
688.87062744140621
30
3.8254548329064164e-06
11
-1147.5999908339506
21
770.79062744140629
31
3.8254548329064164e-06
0
LINE
5
152
100
AcDbEntity
8
0
100
AcDbLine
10
-1157.920063606226
20
677.0602828979479
30
9.5367431285353632e-07
11
-1157.9200139482375
21
677.06028369479793
31
0
0
LINE
5
153
100
AcDbEntity
8
0
100
AcDbLine
10
-1157.9200139482375
20
677.06028369479793
30
0
11
-1157.9200139482373
21
669.13530810886198
31
0
0
LINE
5
154
100
AcDbEntity
8
0
100
AcDbLine
10
-1157.9200139482373
20
669.13530810886198
30
0
11
-1157.920063606226
21
669.13530810886186
31
0
0
LINE
5
155
100
AcDbEntity
8
0
100
AcDbLine
10
-1157.920063606226
20
669.13528814957033
30
9.5367431285353632e-07
11
-1157.920063606226
21
677.0602828979479
31
9.5367431285353632e-07
0
CIRCLE
5
156
100
AcDbEntity
8
0
100
AcDbCircle
10
-1182.142321805251
20
764.59461379051208
30
0
40
4.0000000000000568
210
0
220
0
230
1
0
CIRCLE
5
157
100
AcDbEntity
8
0
100
AcDbCircle
10
-1181.8213260270063
20
693.84526448249812
30
0
40
12.750000000000057
210
0
220
0
230
1
0
LINE
5
158
100
AcDbEntity
8
0
100
AcDbLine
10
-970.09998321533203
20
792.2708073120117
30
2.6645352591003757e-13
11
-1255.2114386223195
21
792.27080731201113
31
0
0
LINE
5
159
100
AcDbEntity
8
0
100
AcDbLine
10
-970.09998321533203
20
667.99980731201163
30
1.6076029396572267e-12
11
-1266.0504498991313
21
667.99980731201026
31
0
0
LINE
5
160
100
AcDbEntity
8
0
100
AcDbLine
10
-1188.3624832153305
20
798.27080731201113
30
0
11
-1217.0000181347132
21
798.27080731201113
31
0
0
LINE
5
161
100
AcDbEntity
8
0
100
AcDbLine
10
-1202.6812506750218
20
798.27080731201113
30
0
11
-1202.6812506750214
21
610.80913174180091
31
0
0
LINE
5
162
100
AcDbEntity
8
0
100
AcDbLine
10
-1149.8124832153305
20
798.27080731201113
30
-1.1444036207564068e-06
11
-1114.1874832153301
21
798.27080731200783
31
0
0
LINE
5
163
100
AcDbEntity
8
0
100
AcDbLine
10
-1131.9999832153303
20
798.27080731200931
30
-5.7220181037820339e-07
11
-1131.9999832153303
21
610
31
-5.7220181037820339e-07
0
LINE
5
164
100
AcDbEntity
8
0
100
AcDbLine
10
-1102.1874832153301
20
798.27080731200783
30
-7.4695805096780532e-12
11
-1038.0124832153331
21
798.27080731201158
31
0
0
LINE
5
165
100
AcDbEntity
8
0
100
AcDbLine
10
-1070.0999832153316
20
798.27080731200965
30
-3.7347902548390266e-12
11
-1070.0999832153361
21
650
31
2.6911806116913795e-12
0
LINE
5
166
100
AcDbEntity
8
0
100
AcDbLine
10
-1026.0124832153333
20
798.27080731201158
30
5.0448534238967113e-12
11
-990.38748321533319
21
798.27080731201158
31
0
0
LINE
5
167
100
AcDbEntity
8
0
100
AcDbLine
10
-1008.1999832153332
20
798.27080731201158
30
2.5224267119483557e-12
11
-1008.1999832153331
21
644.41646906973972
31
-4.0589753780295723e-12
0
CIRCLE
5
168
100
AcDbEntity
8
0
100
AcDbCircle
10
-1202.6812506750218
20
792.27080731201124
30
0
40
2.1000000000000343
210
0
220
0
230
1
0
CIRCLE
5
169
100
AcDbEntity
8
0
100
AcDbCircle
10
-1131.9999832153303
20
792.26532970473068
30
-5.7220181037820339e-07
40
2.0999999999999615
210
0
220
0
230
1
0
CIRCLE
5
170
100
AcDbEntity
8
0
100
AcDbCircle
10
-1070.0999832153318
20
792.27080731201158
30
1.7299760863386814e-13
40
2.1000000000000396
210
0
220
0
230
1
0
CIRCLE
5
171
100
AcDbEntity
8
0
100
AcDbCircle
10
-1008.1999832153332
20
792.27080731201158
30
2.3084682142781584e-13
40
2.0999999999999672
210
0
220
0
230
1
0
CIRCLE
5
172
100
AcDbEntity
8
0
100
AcDbCircle
10
-1008.1999832153331
20
667.9998073120114
30
1.4006437390610586e-12
40
2.1000000000000387
210
0
220
0
230
1
0
CIRCLE
5
173
100
AcDbEntity
8
0
100
AcDbCircle
10
-1070.0999832153357
20
667.99980731201117
30
1.9110793936090798e-12
40
2.0999999999999215
210
0
220
0
230
1
0
CIRCLE
5
174
100
AcDbEntity
8
0
100
AcDbCircle
10
-1131.9953501360596
20
667.99980731201094
30
8.0380146982861334e-13
40
2.1000000000000214
210
0
220
0
230
1
0
CIRCLE
5
175
100
AcDbEntity
8
0
100
AcDbCircle
10
-1202.6812506750216
20
667.9998073120106
30
0
40
2.0999999999999739
210
0
220
0
230
1
0
ENDSEC
0
SECTION
2
OBJECTS
0
DICTIONARY
5
C
100
AcDbDictionary
3
ACAD_GROUP
350
D
3
ACAD_MLINESTYLE
350
17
0
DICTIONARY
5
D
100
AcDbDictionary
0
DICTIONARY
5
1A
330
C
100
AcDbDictionary
0
DICTIONARY
5
17
100
AcDbDictionary
0
ENDSEC
0
EOF
