0
SECTION
2
HEADER
9
$INSUNITS
70
4
9
$ACADVER
1
AC1014
9
$HANDSEED
5
FFFF
0
ENDSEC
0
SECTION
2
TABLES
0
TABLE
2
VPORT
5
8
100
AcDbSymbolTable
0
ENDTAB
0
TABLE
2
LTYPE
5
5
100
AcDbSymbolTable
0
LTYPE
5
14
100
AcDbSymbolTableRecord
100
AcDbLinetypeTableRecord
2
BYBLOCK
70
0
0
LTYPE
5
15
100
AcDbSymbolTableRecord
100
AcDbLinetypeTableRecord
2
BYLAYER
70
0
0
ENDTAB
0
TABLE
2
LAYER
5
2
100
AcDbSymbolTable
70
2
0
LAYER
5
50
100
AcDbSymbolTableRecord
100
AcDbLayerTableRecord
2
0
70
0
6
CONTINUOUS
0
ENDTAB
0
TABLE
2
STYLE
5
3
100
AcDbSymbolTable
70
1
0
STYLE
5
11
100
AcDbSymbolTableRecord
100
AcDbTextStyleTableRecord
2
STANDARD
70
0
0
ENDTAB
0
TABLE
2
VIEW
5
6
100
AcDbSymbolTable
70
0
0
ENDTAB
0
TABLE
2
UCS
5
7
100
AcDbSymbolTable
70
0
0
ENDTAB
0
TABLE
2
APPID
5
9
100
AcDbSymbolTable
70
2
0
APPID
5
12
100
AcDbSymbolTableRecord
100
AcDbRegAppTableRecord
2
ACAD
70
0
0
ENDTAB
0
TABLE
2
DIMSTYLE
5
A
100
AcDbSymbolTable
70
1
0
ENDTAB
0
TABLE
2
BLOCK_RECORD
5
1
100
AcDbSymbolTable
70
1
0
BLOCK_RECORD
5
1F
100
AcDbSymbolTableRecord
100
AcDbBlockTableRecord
2
*MODEL_SPACE
0
BLOCK_RECORD
5
1B
100
AcDbSymbolTableRecord
100
AcDbBlockTableRecord
2
*PAPER_SPACE
0
ENDTAB
0
ENDSEC
0
SECTION
2
BLOCKS
0
BLOCK
5
20
100
AcDbEntity
100
AcDbBlockBegin
2
*MODEL_SPACE
0
ENDBLK
5
21
100
AcDbEntity
100
AcDbBlockEnd
0
BLOCK
5
1C
100
AcDbEntity
100
AcDbBlockBegin
2
*PAPER_SPACE
0
ENDBLK
5
1D
100
AcDbEntity
100
AcDbBlockEnd
0
ENDSEC
0
SECTION
2
ENTITIES
0
LWPOLYLINE
5
100
100
AcDbEntity
8
0
100
AcDbPolyline
90
9
70
1
43
0.0
10
-1037.0000147211267
20
672.83062744798349
10
-1037.0000147211267
20
677.83062744798349
10
-987.0000147211266
20
677.83062744140625
10
-987.0000147074461
20
781.83062744140625
10
-1153.0000147074461
20
781.83062746324254
10
-1153.0000171810389
20
677.83062744140636
10
-1147.5999908339506
20
677.83062744140636
10
-1097.0000147211267
20
677.83062744798349
10
-1097.0000147211267
20
672.83062744798349
0
LINE
5
101
100
AcDbEntity
8
0
100
AcDbLine
10
-1216.0999832153323
20
657.11028289794763
30
3.6239623923961517e-06
11
-1188.3624832153305
21
657.11028289794763
31
3.6239623923961517e-06
0
LINE
5
102
100
AcDbEntity
8
0
100
AcDbLine
10
-1188.3624832153305
20
657.11028289794763
30
3.6239623923961517e-06
11
-1176.3624832153305
21
657.11028289794763
31
-4.5776397783470202e-06
0
LINE
5
103
100
AcDbEntity
8
0
100
AcDbLine
10
-1176.3624832153305
20
657.11028289794763
30
-4.5776397783470202e-06
11
-1161.8124832153305
21
657.11028289794763
31
3.6239623923961517e-06
0
LINE
5
104
100
AcDbEntity
8
0
100
AcDbLine
10
-1161.8124832153305
20
657.11028289794763
30
3.6239623923961517e-06
11
-1159.2899177588324
21
657.11028289794763
31
-4.5776397783470202e-06
0
LINE
5
105
100
AcDbEntity
8
0
100
AcDbLine
10
-1159.2899177588324
20
657.11028289794763
30
-4.5776397783470202e-06
11
-1152.3350486718468
21
657.11028289794763
31
-4.5776397783470202e-06
0
LINE
5
106
100
AcDbEntity
8
0
100
AcDbLine
10
-1152.3350486718468
20
657.11028289794763
30
-4.5776397783470202e-06
11
-1149.8124832153305
21
657.11028289794763
31
-4.5776397783470202e-06
0
LINE
5
107
100
AcDbEntity
8
0
100
AcDbLine
10
-1149.8124832153305
20
657.11028289794763
30
-4.5776397783470202e-06
11
-970.09998321533203
21
657.11028289794763
31
-9.5367432173532052e-07
0
LINE
5
108
100
AcDbEntity
8
0
100
AcDbLine
10
-970.09998321533203
20
657.11028289794763
30
-9.5367432173532052e-07
11
-970.09998321533203
21
803.16022186279281
31
1.1444091807533141e-06
0
LINE
5
109
100
AcDbEntity
8
0
100
AcDbLine
10
-970.09998321533203
20
803.16022186279281
30
1.1444091807533141e-06
11
-1149.8124832153305
21
803.16022186279281
31
1.1444091807533141e-06
0
LINE
5
110
100
AcDbEntity
8
0
100
AcDbLine
10
-1149.8124832153305
20
803.16022186279281
30
1.1444091807533141e-06
11
-1161.8124832153305
21
803.1602218627927
31
-4.5776397783470202e-06
0
LINE
5
111
100
AcDbEntity
8
0
100
AcDbLine
10
-1161.8124832153305
20
803.1602218627927
30
-4.5776397783470202e-06
11
-1176.3624832153305
21
803.1602218627927
31
0
0
LINE
5
112
100
AcDbEntity
8
0
100
AcDbLine
10
-1176.3624832153305
20
803.1602218627927
30
0
11
-1188.3624832153305
21
803.1602218627927
31
-4.5776397783470202e-06
0
LINE
5
113
100
AcDbEntity
8
0
100
AcDbLine
10
-1188.3624832153305
20
803.1602218627927
30
-4.5776397783470202e-06
11
-1216.0999832153323
21
803.1602218627927
31
0
0
ARC
5
114
100
AcDbEntity
8
0
100
AcDbCircle
10
-1216.0999832153323
20
802.1602218627927
30
0
40
0.99999999999994316
210
0
220
-0
230
1
100
AcDbArc
50
90
51
180
0
LINE
5
115
100
AcDbEntity
8
0
100
AcDbLine
10
-1217.0999832153323
20
802.1602218627927
30
0
11
-1217.099983215332
21
658.11028289794763
31
0
0
ARC
5
116
100
AcDbEntity
8
0
100
AcDbCircle
10
-1216.0999832153323
20
658.11028289794763
30
0
40
0.99999999999980105
210
0
220
0
230
1
100
AcDbArc
50
180
51
270
0
ARC
5
117
100
AcDbEntity
8
0
100
AcDbCircle
10
-1157.3999786376953
20
677.56028289794767
30
0
40
1.4999999999998512
210
0
220
0
230
1
100
AcDbArc
50
-110.28500648043679
51
249.71297129260071
0
LINE
5
118
100
AcDbEntity
8
0
100
AcDbLine
10
-1157.9200139482373
20
676.15331336174972
30
0
11
-1157.9200139482373
21
669.13530810886198
31
0
0
LINE
5
119
100
AcDbEntity
8
0
100
AcDbLine
10
-1157.9200139482373
20
669.13530810886198
30
0
11
-1157.920063606226
21
669.13530810886186
31
0
0
LINE
5
120
100
AcDbEntity
8
0
100
AcDbLine
10
-1157.920063606226
20
669.13528814957033
30
9.5367431285353632e-07
11
-1157.920063606226
21
676.15333171702207
31
0
0
LWPOLYLINE
5
121
100
AcDbEntity
8
0
100
AcDbPolyline
90
2
70
1
43
0.0
10
-1216.0999832153323
20
728.74006006172954
42
-0.39225202462315029
10
-1216.0999832153323
20
730.77974319537418
42
-2.5493813600088711
0
LWPOLYLINE
5
122
100
AcDbEntity
8
0
100
AcDbPolyline
90
16
70
1
43
0.0
10
-1168.3213260270061
20
720.34526448249824
10
-1195.3213260270061
20
720.34526448249824
10
-1195.3213260270061
20
716.34526448249812
42
-0.41421356237309503
10
-1199.3213260270063
20
712.34526448249812
10
-1203.3213260270063
20
712.34526448249812
10
-1203.3213260270063
20
675.34526448249824
10
-1199.3213260270063
20
675.34526448249824
42
-0.41421356237309503
10
-1195.3213260270061
20
671.34526448249812
10
-1195.3213260270061
20
669.34526448249812
10
-1168.3213260270061
20
669.34526448249812
10
-1168.3213260270063
20
671.34526518964162
42
-0.41421351059371209
10
-1164.3213260270063
20
675.34526448249824
10
-1160.3213260270061
20
675.34526448249824
10
-1160.3213260270061
20
712.34526448249812
10
-1164.3213260270063
20
712.34526448249812
42
-0.41421361415247987
10
-1168.3213260270061
20
716.34526518964162
0
CIRCLE
5
123
100
AcDbEntity
8
0
100
AcDbCircle
10
-1008.1999832153335
20
667.99928289794764
30
0
40
2.1000000000000796
210
0
220
0
230
1
0
CIRCLE
5
124
100
AcDbEntity
8
0
100
AcDbCircle
10
-1202.7809832153321
20
792.65521727619466
30
0
40
2.0999999999999375
210
0
220
0
230
1
0
CIRCLE
5
125
100
AcDbEntity
8
0
100
AcDbCircle
10
-1008.2255915385442
20
792.27122186279291
30
0
40
2.0999999999999375
210
0
220
0
230
1
0
CIRCLE
5
126
100
AcDbEntity
8
0
100
AcDbCircle
10
-1070.099983215332
20
667.99928289794764
30
0
40
2.0999999999999375
210
0
220
0
230
1
0
CIRCLE
5
127
100
AcDbEntity
8
0
100
AcDbCircle
10
-1131.9999832153305
20
792.26986865575373
30
0
40
2.1000000000000796
210
0
220
0
230
1
0
CIRCLE
5
128
100
AcDbEntity
8
0
100
AcDbCircle
10
-1070.099983215332
20
792.27601570038451
30
0
40
2.0999999999999375
210
0
220
0
230
1
0
CIRCLE
5
129
100
AcDbEntity
8
0
100
AcDbCircle
10
-1131.9950341302265
20
667.99928289794764
30
0
40
2.0999999999999375
210
0
220
0
230
1
0
CIRCLE
5
130
100
AcDbEntity
8
0
100
AcDbCircle
10
-1157.4187884403914
20
779.05990162855176
30
0
40
1.5000000000000568
210
0
220
0
230
1
0
CIRCLE
5
131
100
AcDbEntity
8
0
100
AcDbCircle
10
-1182.142321805251
20
764.59461379051208
30
0
40
4.0000000000000568
210
0
220
0
230
1
0
CIRCLE
5
132
100
AcDbEntity
8
0
100
AcDbCircle
10
-1181.4400181347132
20
778.55990162855176
30
0
40
1.5000000000000568
210
0
220
0
230
1
0
CIRCLE
5
133
100
AcDbEntity
8
0
100
AcDbCircle
10
-1209.3800181347133
20
778.55990162855176
30
0
40
1.5000000000000568
210
0
220
0
230
1
0
CIRCLE
5
134
100
AcDbEntity
8
0
100
AcDbCircle
10
-1164.3213260270063
20
716.34526448249812
30
0
40
1.25
210
0
220
0
230
1
0
CIRCLE
5
135
100
AcDbEntity
8
0
100
AcDbCircle
10
-1199.3213260270063
20
716.34526448249812
30
0
40
1.5000000000000568
210
0
220
0
230
1
0
CIRCLE
5
136
100
AcDbEntity
8
0
100
AcDbCircle
10
-1164.3213260270063
20
671.34526448249812
30
0
40
1.5000000000000568
210
0
220
0
230
1
0
CIRCLE
5
137
100
AcDbEntity
8
0
100
AcDbCircle
10
-1199.3213260270063
20
671.34526448249812
30
0
40
1.5000000000000568
210
0
220
0
230
1
0
CIRCLE
5
138
100
AcDbEntity
8
0
100
AcDbCircle
10
-982.79998779296875
20
779.05990162855176
30
0
40
1.4999999999999147
210
0
220
0
230
1
0
CIRCLE
5
139
100
AcDbEntity
8
0
100
AcDbCircle
10
-982.79998779296875
20
677.56028289794767
30
0
40
1.5000000000000568
210
0
220
0
230
1
0
CIRCLE
5
140
100
AcDbEntity
8
0
100
AcDbCircle
10
-1032.0124832153333
20
798.27080731201147
30
-9.5367963304227032e-07
40
2.5
210
7.815970093361102e-14
220
-8.9645195498561867e-42
230
1
0
CIRCLE
5
141
100
AcDbEntity
8
0
100
AcDbCircle
10
-984.38748321533353
20
798.27080731201147
30
-9.5368335450984887e-07
40
2.5
210
7.815970093361102e-14
220
-8.9645195498561867e-42
230
1
0
CIRCLE
5
142
100
AcDbEntity
8
0
100
AcDbCircle
10
-1108.1874832153396
20
661.99980731200776
30
-9.5367194141715572e-07
40
2.5
210
6.3948846218409017e-14
220
5.5689769974285928e-41
230
1
0
CIRCLE
5
143
100
AcDbEntity
8
0
100
AcDbCircle
10
-1182.3624832153396
20
661.99980731201106
30
-4.577639769465236e-06
40
2.4998499999999524
210
0
220
0
230
1
0
CIRCLE
5
144
100
AcDbEntity
8
0
100
AcDbCircle
10
-1155.8124832153305
20
798.27080731201113
30
-4.5776357904259157e-06
40
2.5
210
6.3948846218409017e-14
220
5.5689769974285928e-41
230
1
0
CIRCLE
5
145
100
AcDbEntity
8
0
100
AcDbCircle
10
-1032.0124832153333
20
661.99980731201151
30
-9.5367487240594073e-07
40
2.5
210
7.815970093361102e-14
220
-8.9645195498561867e-42
230
1
0
CIRCLE
5
146
100
AcDbEntity
8
0
100
AcDbCircle
10
-1155.8124832153396
20
661.99980731201106
30
-4.5776357904259157e-06
40
2.5
210
6.3948846218409017e-14
220
5.5689769974285928e-41
230
1
0
CIRCLE
5
147
100
AcDbEntity
8
0
100
AcDbCircle
10
-1182.3624832153305
20
798.27080731201113
30
-4.577639769465236e-06
40
2.5223499999999888
210
0
220
0
230
1
0
CIRCLE
5
148
100
AcDbEntity
8
0
100
AcDbCircle
10
-984.38748321533342
20
661.99980731201151
30
-9.5367859387351928e-07
40
2.5
210
7.815970093361102e-14
220
-8.9645195498561867e-42
230
1
0
CIRCLE
5
149
100
AcDbEntity
8
0
100
AcDbCircle
10
-1108.1874832153305
20
798.27080731200783
30
-9.5367180819039277e-07
40
2.5
210
6.3948846218409017e-14
220
5.5689769974285928e-41
230
1
0
ENDSEC
0
SECTION
2
OBJECTS
0
DICTIONARY
5
C
100
AcDbDictionary
3
ACAD_GROUP
350
D
3
ACAD_MLINESTYLE
350
17
0
DICTIONARY
5
D
100
AcDbDictionary
0
DICTIONARY
5
1A
330
C
100
AcDbDictionary
0
DICTIONARY
5
17
100
AcDbDictionary
0
ENDSEC
0
EOF
