0
SECTION
2
HEADER
9
$INSUNITS
70
4
9
$ACADVER
1
AC1014
9
$HANDSEED
5
FFFF
0
ENDSEC
0
SECTION
2
TABLES
0
TABLE
2
VPORT
5
8
100
AcDbSymbolTable
0
ENDTAB
0
TABLE
2
LTYPE
5
5
100
AcDbSymbolTable
0
LTYPE
5
14
100
AcDbSymbolTableRecord
100
AcDbLinetypeTableRecord
2
BYBLOCK
70
0
0
LTYPE
5
15
100
AcDbSymbolTableRecord
100
AcDbLinetypeTableRecord
2
BYLAYER
70
0
0
ENDTAB
0
TABLE
2
LAYER
5
2
100
AcDbSymbolTable
70
2
0
LAYER
5
50
100
AcDbSymbolTableRecord
100
AcDbLayerTableRecord
2
0
70
0
6
CONTINUOUS
0
ENDTAB
0
TABLE
2
STYLE
5
3
100
AcDbSymbolTable
70
1
0
STYLE
5
11
100
AcDbSymbolTableRecord
100
AcDbTextStyleTableRecord
2
STANDARD
70
0
0
ENDTAB
0
TABLE
2
VIEW
5
6
100
AcDbSymbolTable
70
0
0
ENDTAB
0
TABLE
2
UCS
5
7
100
AcDbSymbolTable
70
0
0
ENDTAB
0
TABLE
2
APPID
5
9
100
AcDbSymbolTable
70
2
0
APPID
5
12
100
AcDbSymbolTableRecord
100
AcDbRegAppTableRecord
2
ACAD
70
0
0
ENDTAB
0
TABLE
2
DIMSTYLE
5
A
100
AcDbSymbolTable
70
1
0
ENDTAB
0
TABLE
2
BLOCK_RECORD
5
1
100
AcDbSymbolTable
70
1
0
BLOCK_RECORD
5
1F
100
AcDbSymbolTableRecord
100
AcDbBlockTableRecord
2
*MODEL_SPACE
0
BLOCK_RECORD
5
1B
100
AcDbSymbolTableRecord
100
AcDbBlockTableRecord
2
*PAPER_SPACE
0
ENDTAB
0
ENDSEC
0
SECTION
2
BLOCKS
0
BLOCK
5
20
100
AcDbEntity
100
AcDbBlockBegin
2
*MODEL_SPACE
0
ENDBLK
5
21
100
AcDbEntity
100
AcDbBlockEnd
0
BLOCK
5
1C
100
AcDbEntity
100
AcDbBlockBegin
2
*PAPER_SPACE
0
ENDBLK
5
1D
100
AcDbEntity
100
AcDbBlockEnd
0
ENDSEC
0
SECTION
2
ENTITIES
0
LWPOLYLINE
5
100
100
AcDbEntity
8
0
100
AcDbPolyline
90
8
70
1
43
0.0
10
-1097.09998320725
20
677.83062744140625
10
-1097.09998320725
20
672.83062744140625
10
-1037.09998320725
20
672.83062744140625
10
-1037.09998320725
20
677.83062744140625
10
-987.09998320725003
20
677.83062744140625
10
-987.09998320725003
20
781.83062744140625
10
-1153.09998320725
20
781.83062744140625
10
-1153.09998320725
20
677.83062744140625
0
LINE
5
101
100
AcDbEntity
8
0
100
AcDbLine
10
-1217.0999832153323
20
803.1602218627927
30
0
11
-1217.0999832153323
21
657.11028289794763
31
0
0
LINE
5
102
100
AcDbEntity
8
0
100
AcDbLine
10
-1217.0999832153323
20
657.11028289794763
30
0
11
-1188.3624832153305
21
657.11028289794763
31
3.6239623923961517e-06
0
LINE
5
103
100
AcDbEntity
8
0
100
AcDbLine
10
-1188.3624832153305
20
657.11028289794763
30
3.6239623923961517e-06
11
-1188.3624832153305
21
661.99981336369865
31
0
0
ARC
5
104
100
AcDbEntity
8
0
100
AcDbCircle
10
-1182.3624832153396
20
661.99980731201106
30
0
40
5.9999999999999432
210
0
220
0
230
1
100
AcDbArc
50
0
51
179.99994221396571
0
LINE
5
105
100
AcDbEntity
8
0
100
AcDbLine
10
-1176.3624832153396
20
661.99980731201106
30
0
11
-1176.3624832153305
21
657.11028289794763
31
0
0
LINE
5
106
100
AcDbEntity
8
0
100
AcDbLine
10
-1176.3624832153305
20
657.11028289794763
30
0
11
-1161.8124832153305
21
657.11028289794763
31
3.6239623923961517e-06
0
LINE
5
107
100
AcDbEntity
8
0
100
AcDbLine
10
-1161.8124832153305
20
657.11028289794763
30
3.6239623923961517e-06
11
-1161.8124832153305
21
661.99981336369865
31
0
0
ARC
5
108
100
AcDbEntity
8
0
100
AcDbCircle
10
-1155.8124832153396
20
661.99980731201106
30
0
40
5.9999999999999432
210
0
220
0
230
1
100
AcDbArc
50
0
51
179.99994221396571
0
LINE
5
109
100
AcDbEntity
8
0
100
AcDbLine
10
-1149.8124832153396
20
661.99980731201106
30
0
11
-1149.8124832153392
21
657.11028289794763
31
5.7198690228688065e-12
0
LINE
5
110
100
AcDbEntity
8
0
100
AcDbLine
10
-1149.8124832153392
20
657.11028289794763
30
5.7198690228688065e-12
11
-1114.1874832153392
21
657.11028289794763
31
8.8284934918192448e-12
0
LINE
5
111
100
AcDbEntity
8
0
100
AcDbLine
10
-1114.1874832153392
20
657.11028289794763
30
8.8284934918192448e-12
11
-1114.1874832153392
21
661.99980731200776
31
8.8284934918192448e-12
0
ARC
5
112
100
AcDbEntity
8
0
100
AcDbCircle
10
-1108.1874832153394
20
661.99980731200776
30
0
40
5.9999999999999432
210
0
220
0
230
1
100
AcDbArc
50
0
51
180
0
LINE
5
113
100
AcDbEntity
8
0
100
AcDbLine
10
-1102.1874832153394
20
661.99980731200776
30
0
11
-1102.1874832153392
21
657.11028289794763
31
8.8284934918192448e-12
0
LINE
5
114
100
AcDbEntity
8
0
100
AcDbLine
10
-1102.1874832153392
20
657.11028289794763
30
8.8284934918192448e-12
11
-1038.0124832153331
21
657.11028289794763
31
-3.4461322684364859e-12
0
LINE
5
115
100
AcDbEntity
8
0
100
AcDbLine
10
-1038.0124832153331
20
657.11028289794763
30
-3.4461322684364859e-12
11
-1038.0124832153331
21
661.99980731201163
31
2.9753977059954195e-12
0
ARC
5
116
100
AcDbEntity
8
0
100
AcDbCircle
10
-1032.0124832153331
20
661.99980731201163
30
0
40
5.9999999999999432
210
0
220
0
230
1
100
AcDbArc
50
0
51
180
0
LINE
5
117
100
AcDbEntity
8
0
100
AcDbLine
10
-1026.0124832153333
20
661.99980731201163
30
0
11
-1026.0124832153331
21
657.11028289794763
31
-1.1528555887707626e-11
0
LINE
5
118
100
AcDbEntity
8
0
100
AcDbLine
10
-1026.0124832153331
20
657.11028289794763
30
-1.1528555887707626e-11
11
-990.38748321533308
21
657.11028289794763
31
3.4106051316484809e-12
0
LINE
5
119
100
AcDbEntity
8
0
100
AcDbLine
10
-990.38748321533308
20
657.11028289794763
30
3.4106051316484809e-12
11
-990.38748321533308
21
661.99980731201163
31
5.0803805606847163e-12
0
ARC
5
120
100
AcDbEntity
8
0
100
AcDbCircle
10
-984.38748321533308
20
661.99980731201163
30
0
40
5.9999999999999432
210
0
220
-0
230
1
100
AcDbArc
50
90
51
180
0
LINE
5
121
100
AcDbEntity
8
0
100
AcDbLine
10
-984.38748321533308
20
667.99980731201163
30
0
11
-970.09998321533203
21
667.99980731201163
31
1.6076029396572267e-12
0
LINE
5
122
100
AcDbEntity
8
0
100
AcDbLine
10
-970.09998321533203
20
667.99980731201163
30
1.6076029396572267e-12
11
-970.09998321533203
21
792.2708073120117
31
2.6645352591003757e-13
0
LINE
5
123
100
AcDbEntity
8
0
100
AcDbLine
10
-970.09998321533203
20
792.2708073120117
30
2.6645352591003757e-13
11
-984.3874832153333
21
792.2708073120117
31
1.0125233984581428e-12
0
ARC
5
124
100
AcDbEntity
8
0
100
AcDbCircle
10
-984.3874832153333
20
798.27080731201158
30
0
40
5.9999999999999432
210
0
220
0
230
1
100
AcDbArc
50
180
51
270
0
LINE
5
125
100
AcDbEntity
8
0
100
AcDbLine
10
-990.38748321533319
20
798.27080731201158
30
0
11
-990.3874832153333
21
803.1602218627927
31
7.9047879353311146e-13
0
LINE
5
126
100
AcDbEntity
8
0
100
AcDbLine
10
-990.3874832153333
20
803.1602218627927
30
7.9047879353311146e-13
11
-1026.0124832153333
21
803.1602218627927
31
5.0448534238967113e-12
0
LINE
5
127
100
AcDbEntity
8
0
100
AcDbLine
10
-1026.0124832153333
20
803.1602218627927
30
5.0448534238967113e-12
11
-1026.0124832153333
21
798.27080731201158
31
5.0448534238967113e-12
0
ARC
5
128
100
AcDbEntity
8
0
100
AcDbCircle
10
-1032.0124832153331
20
798.27080731201158
30
0
40
5.9999999999999432
210
0
220
0
230
1
100
AcDbArc
50
-180
51
0
0
LINE
5
129
100
AcDbEntity
8
0
100
AcDbLine
10
-1038.0124832153331
20
798.27080731201158
30
0
11
-1038.0124832153333
21
803.1602218627927
31
5.0448534238967113e-12
0
LINE
5
130
100
AcDbEntity
8
0
100
AcDbLine
10
-1038.0124832153333
20
803.1602218627927
30
5.0448534238967113e-12
11
-1102.1874832153301
21
803.1602218627927
31
-7.4695805096780532e-12
0
LINE
5
131
100
AcDbEntity
8
0
100
AcDbLine
10
-1102.1874832153301
20
803.1602218627927
30
-7.4695805096780532e-12
11
-1102.1874832153301
21
798.27080731200783
31
-7.4695805096780532e-12
0
ARC
5
132
100
AcDbEntity
8
0
100
AcDbCircle
10
-1108.1874832153303
20
798.27080731200783
30
0
40
5.9999999999999432
210
0
220
0
230
1
100
AcDbArc
50
-180
51
0
0
LINE
5
133
100
AcDbEntity
8
0
100
AcDbLine
10
-1114.1874832153301
20
798.27080731200783
30
0
11
-1114.1874832153301
21
803.1602218627927
31
2.4247270857813419e-12
0
LINE
5
134
100
AcDbEntity
8
0
100
AcDbLine
10
-1114.1874832153301
20
803.1602218627927
30
2.4247270857813419e-12
11
-1149.8124832153305
21
803.1602218627927
31
-1.1444036207564068e-06
0
LINE
5
135
100
AcDbEntity
8
0
100
AcDbLine
10
-1149.8124832153305
20
803.1602218627927
30
-1.1444036207564068e-06
11
-1149.8124832153305
21
798.27080731201113
31
-1.1444036207564068e-06
0
ARC
5
136
100
AcDbEntity
8
0
100
AcDbCircle
10
-1155.8124832153305
20
798.27080731201113
30
0
40
5.9999999999999432
210
0
220
0
230
1
100
AcDbArc
50
-180
51
1.0933637455190016e-05
0
LINE
5
137
100
AcDbEntity
8
0
100
AcDbLine
10
-1161.8124832153305
20
798.27080731201113
30
0
11
-1161.8124832153305
21
803.1602218627927
31
-1.1444036207564068e-06
0
LINE
5
138
100
AcDbEntity
8
0
100
AcDbLine
10
-1161.8124832153305
20
803.1602218627927
30
-1.1444036207564068e-06
11
-1176.3624832153305
21
803.1602218627927
31
0
0
LINE
5
139
100
AcDbEntity
8
0
100
AcDbLine
10
-1176.3624832153305
20
803.1602218627927
30
0
11
-1176.3624832153305
21
798.27080731201113
31
0
0
ARC
5
140
100
AcDbEntity
8
0
100
AcDbCircle
10
-1182.3624832153305
20
798.27080731201113
30
0
40
5.9999999999999432
210
0
220
0
230
1
100
AcDbArc
50
-180
51
0
0
LINE
5
141
100
AcDbEntity
8
0
100
AcDbLine
10
-1188.3624832153305
20
798.27080731201113
30
0
11
-1188.3624832153305
21
803.1602218627927
31
0
0
LINE
5
142
100
AcDbEntity
8
0
100
AcDbLine
10
-1188.3624832153305
20
803.1602218627927
30
0
11
-1217.0999832153323
21
803.1602218627927
31
0
0
ARC
5
143
100
AcDbEntity
8
0
100
AcDbCircle
10
-1157.3999786376953
20
677.56028289794767
30
0
40
1.5000000000000524
210
0
220
0
230
1
100
AcDbArc
50
249.71297129260222
51
249.7149935195647
0
LINE
5
144
100
AcDbEntity
8
0
100
AcDbLine
10
-1157.9200139482373
20
676.15331336174961
30
0
11
-1157.9200139482373
21
669.13530810886198
31
0
0
LINE
5
145
100
AcDbEntity
8
0
100
AcDbLine
10
-1157.9200139482373
20
669.13530810886198
30
0
11
-1157.920063606226
21
669.13530810886186
31
0
0
LINE
5
146
100
AcDbEntity
8
0
100
AcDbLine
10
-1157.920063606226
20
669.13528814957033
30
9.5367431285353632e-07
11
-1157.920063606226
21
676.15333171702196
31
0
0
CIRCLE
5
147
100
AcDbEntity
8
0
100
AcDbCircle
10
-1131.9999832153303
20
667.94214489176795
30
0
40
2.0999999999999375
210
0
220
0
230
1
0
CIRCLE
5
148
100
AcDbEntity
8
0
100
AcDbCircle
10
-1070.0999832153364
20
792.2708073120117
30
0
40
2.0999999999999375
210
0
220
0
230
1
0
CIRCLE
5
149
100
AcDbEntity
8
0
100
AcDbCircle
10
-1203.5528937730126
20
792.2708073120117
30
0
40
2.0999999999999375
210
0
220
0
230
1
0
CIRCLE
5
150
100
AcDbEntity
8
0
100
AcDbCircle
10
-1070.0999832153364
20
667.99980731201163
30
0
40
2.1000000000000796
210
0
220
0
230
1
0
CIRCLE
5
151
100
AcDbEntity
8
0
100
AcDbCircle
10
-1203.5528937730126
20
667.99980731201163
30
0
40
2.0999999999999375
210
0
220
0
230
1
0
CIRCLE
5
152
100
AcDbEntity
8
0
100
AcDbCircle
10
-1008.1999832153332
20
792.2708073120117
30
0
40
2.1000000000000796
210
0
220
0
230
1
0
CIRCLE
5
153
100
AcDbEntity
8
0
100
AcDbCircle
10
-1132.0180861819283
20
792.2708073120117
30
0
40
2.0999999999999375
210
0
220
0
230
1
0
CIRCLE
5
154
100
AcDbEntity
8
0
100
AcDbCircle
10
-1008.1999832153332
20
667.99980731201163
30
0
40
2.1000000000000796
210
0
220
0
230
1
0
CIRCLE
5
155
100
AcDbEntity
8
0
100
AcDbCircle
10
-1182.142321805251
20
764.59461379051208
30
0
40
6.0000000000000009
210
0
220
0
230
1
0
CIRCLE
5
156
100
AcDbEntity
8
0
100
AcDbCircle
10
-1181.8213260270063
20
693.84526448249812
30
0
40
14
210
0
220
0
230
1
0
ENDSEC
0
SECTION
2
OBJECTS
0
DICTIONARY
5
C
100
AcDbDictionary
3
ACAD_GROUP
350
D
3
ACAD_MLINESTYLE
350
17
0
DICTIONARY
5
D
100
AcDbDictionary
0
DICTIONARY
5
1A
330
C
100
AcDbDictionary
0
DICTIONARY
5
17
100
AcDbDictionary
0
ENDSEC
0
EOF
