  0
SECTION
  2
HEADER
  9
$ACADVER
  1
AC1015
  9
$ACADMAINTVER
 70
     6
  9
$DWGCODEPAGE
  3
ANSI_1252
  9
$INSBASE
 10
0.0
 20
0.0
 30
0.0
  9
$EXTMIN
 10
0.0
 20
0.0
 30
0.0
  9
$EXTMAX
 10
2400.0
 20
1200.0
 30
0.0
  9
$LIMMIN
 10
0.0
 20
0.0
  9
$LIMMAX
 10
2400.0
 20
1200.0
  9
$ORTHOMODE
 70
     0
  9
$REGENMODE
 70
     1
  9
$FILLMODE
 70
     1
  9
$QTEXTMODE
 70
     0
  9
$MIRRTEXT
 70
     1
  9
$LTSCALE
 40
1.0
  9
$ATTMODE
 70
     1
  9
$TEXTSIZE
 40
3.5
  9
$TRACEWID
 40
1.0
  9
$TEXTSTYLE
  7
Standard
  9
$CLAYER
  8
0
  9
$CELTYPE
  6
ByLayer
  9
$CECOLOR
 62
   256
  9
$CELTSCALE
 40
1.0
  9
$DISPSILH
 70
     0
  9
$DIMSCALE
 40
1.0
  9
$DIMASZ
 40
3.302
  9
$DIMEXO
 40
1.0
  9
$DIMDLI
 40
3.75
  9
$DIMRND
 40
0.0
  9
$DIMDLE
 40
0.0
  9
$DIMEXE
 40
1.0
  9
$DIMTP
 40
0.0
  9
$DIMTM
 40
0.0
  9
$DIMTXT
 40
3.5
  9
$DIMCEN
 40
2.5
  9
$DIMTSZ
 40
0.0
  9
$DIMTOL
 70
     0
  9
$DIMLIM
 70
     0
  9
$DIMTIH
 70
     1
  9
$DIMTOH
 70
     1
  9
$DIMSE1
 70
     0
  9
$DIMSE2
 70
     0
  9
$DIMTAD
 70
     1
  9
$DIMZIN
 70
     1
  9
$DIMBLK
  1

  9
$DIMASO
 70
     1
  9
$DIMSHO
 70
     1
  9
$DIMPOST
  1

  9
$DIMAPOST
  1

  9
$DIMALT
 70
     0
  9
$DIMALTD
 70
     3
  9
$DIMALTF
 40
0.0393700787
  9
$DIMLFAC
 40
1.0
  9
$DIMTOFL
 70
     1
  9
$DIMTVP
 40
0.0
  9
$DIMTIX
 70
     0
  9
$DIMSOXD
 70
     0
  9
$DIMSAH
 70
     0
  9
$DIMBLK1
  1

  9
$DIMBLK2
  1

  9
$DIMSTYLE
  2
ISO-25
  9
$DIMCLRD
 70
     0
  9
$DIMCLRE
 70
     0
  9
$DIMCLRT
 70
     0
  9
$DIMTFAC
 40
1.0
  9
$DIMGAP
 40
1.524
  9
$DIMJUST
 70
     0
  9
$DIMSD1
 70
     0
  9
$DIMSD2
 70
     0
  9
$DIMTOLJ
 70
     0
  9
$DIMTZIN
 70
     1
  9
$DIMALTZ
 70
     0
  9
$DIMALTTZ
 70
     0
  9
$DIMUPT
 70
     0
  9
$DIMDEC
 70
     2
  9
$DIMTDEC
 70
     2
  9
$DIMALTU
 70
     2
  9
$DIMALTTD
 70
     3
  9
$DIMTXSTY
  7
Standard
  9
$DIMAUNIT
 70
     0
  9
$DIMADEC
 70
     2
  9
$DIMALTRND
 40
0.0
  9
$DIMAZIN
 70
     0
  9
$DIMDSEP
 70
    44
  9
$DIMATFIT
 70
     3
  9
$DIMFRAC
 70
     0
  9
$DIMLDRBLK
  1

  9
$DIMLUNIT
 70
     2
  9
$DIMLWD
 70
    -2
  9
$DIMLWE
 70
    -2
  9
$DIMTMOVE
 70
     0
  9
$LUNITS
 70
     2
  9
$LUPREC
 70
     2
  9
$SKETCHINC
 40
1.0
  9
$FILLETRAD
 40
10.0
  9
$AUNITS
 70
     0
  9
$AUPREC
 70
     2
  9
$MENU
  1
.
  9
$ELEVATION
 40
0.0
  9
$PELEVATION
 40
0.0
  9
$THICKNESS
 40
0.0
  9
$LIMCHECK
 70
     0
  9
$CHAMFERA
 40
0.0
  9
$CHAMFERB
 40
0.0
  9
$CHAMFERC
 40
0.0
  9
$CHAMFERD
 40
0.0
  9
$SKPOLY
 70
     0
  9
$TDCREATE
 40
2459072.6772186
  9
$TDUCREATE
 40
2459072.260551933
  9
$TDUPDATE
 40
2459072.67722066
  9
$TDUUPDATE
 40
2459072.260553993
  9
$TDINDWG
 40
0.0000000116
  9
$TDUSRTIMER
 40
0.0000000116
  9
$USRTIMER
 70
     1
  9
$ANGBASE
 50
0.0
  9
$ANGDIR
 70
     0
  9
$PDMODE
 70
     0
  9
$PDSIZE
 40
-1.0
  9
$PLINEWID
 40
0.0
  9
$SPLFRAME
 70
     0
  9
$SPLINETYPE
 70
     6
  9
$SPLINESEGS
 70
     8
  9
$HANDSEED
  5
2C5
  9
$SURFTAB1
 70
     6
  9
$SURFTAB2
 70
     6
  9
$SURFTYPE
 70
     6
  9
$SURFU
 70
     6
  9
$SURFV
 70
     6
  9
$UCSBASE
  2

  9
$UCSNAME
  2

  9
$UCSORG
 10
0.0
 20
0.0
 30
0.0
  9
$UCSXDIR
 10
1.0
 20
0.0
 30
0.0
  9
$UCSYDIR
 10
0.0
 20
1.0
 30
0.0
  9
$UCSORTHOREF
  2

  9
$UCSORTHOVIEW
 70
     0
  9
$UCSORGTOP
 10
0.0
 20
0.0
 30
0.0
  9
$UCSORGBOTTOM
 10
0.0
 20
0.0
 30
0.0
  9
$UCSORGLEFT
 10
0.0
 20
0.0
 30
0.0
  9
$UCSORGRIGHT
 10
0.0
 20
0.0
 30
0.0
  9
$UCSORGFRONT
 10
0.0
 20
0.0
 30
0.0
  9
$UCSORGBACK
 10
0.0
 20
0.0
 30
0.0
  9
$PUCSBASE
  2

  9
$PUCSNAME
  2

  9
$PUCSORG
 10
0.0
 20
0.0
 30
0.0
  9
$PUCSXDIR
 10
1.0
 20
0.0
 30
0.0
  9
$PUCSYDIR
 10
0.0
 20
1.0
 30
0.0
  9
$PUCSORTHOREF
  2

  9
$PUCSORTHOVIEW
 70
     0
  9
$PUCSORGTOP
 10
0.0
 20
0.0
 30
0.0
  9
$PUCSORGBOTTOM
 10
0.0
 20
0.0
 30
0.0
  9
$PUCSORGLEFT
 10
0.0
 20
0.0
 30
0.0
  9
$PUCSORGRIGHT
 10
0.0
 20
0.0
 30
0.0
  9
$PUCSORGFRONT
 10
0.0
 20
0.0
 30
0.0
  9
$PUCSORGBACK
 10
0.0
 20
0.0
 30
0.0
  9
$USERI1
 70
     0
  9
$USERI2
 70
     0
  9
$USERI3
 70
     0
  9
$USERI4
 70
     0
  9
$USERI5
 70
     0
  9
$USERR1
 40
0.0
  9
$USERR2
 40
0.0
  9
$USERR3
 40
0.0
  9
$USERR4
 40
0.0
  9
$USERR5
 40
0.0
  9
$WORLDVIEW
 70
     1
  9
$SHADEDGE
 70
     3
  9
$SHADEDIF
 70
    70
  9
$TILEMODE
 70
     1
  9
$MAXACTVP
 70
    64
  9
$PINSBASE
 10
0.0
 20
0.0
 30
0.0
  9
$PLIMCHECK
 70
     0
  9
$PEXTMIN
 10
1.0000000000E+20
 20
1.0000000000E+20
 30
1.0000000000E+20
  9
$PEXTMAX
 10
-1.0000000000E+20
 20
-1.0000000000E+20
 30
-1.0000000000E+20
  9
$PLIMMIN
 10
0.0
 20
0.0
  9
$PLIMMAX
 10
420.0
 20
297.0
  9
$UNITMODE
 70
     0
  9
$VISRETAIN
 70
     1
  9
$PLINEGEN
 70
     0
  9
$PSLTSCALE
 70
     1
  9
$TREEDEPTH
 70
  3020
  9
$CMLSTYLE
  2
Standard
  9
$CMLJUST
 70
     0
  9
$CMLSCALE
 40
20.0
  9
$PROXYGRAPHICS
 70
     1
  9
$MEASUREMENT
 70
     1
  9
$CELWEIGHT
370
    -1
  9
$ENDCAPS
280
     0
  9
$JOINSTYLE
280
     0
  9
$LWDISPLAY
290
     1
  9
$INSUNITS
 70
     4
  9
$HYPERLINKBASE
  1

  9
$STYLESHEET
  1

  9
$XEDIT
290
     1
  9
$CEPSNTYPE
380
     0
  9
$PSTYLEMODE
290
     1
  9
$FINGERPRINTGUID
  2
{ff4d6f9e-60f8-40a7-b3bc-9709a95fc234}
  9
$VERSIONGUID
  2
{FAEB1C32-E019-11D5-929B-00C0DF256EC4}
  9
$EXTNAMES
290
     1
  9
$PSVPSCALE
 40
0.0
  9
$OLESTARTUP
290
     0
  0
ENDSEC
  0
SECTION
  2
CLASSES
  0
CLASS
  1
ACDBDICTIONARYWDFLT
  2
AcDbDictionaryWithDefault
  3
ObjectDBX Classes
 90
        0
280
     0
281
     0
  0
CLASS
  1
VISUALSTYLE
  2
AcDbVisualStyle
  3
ObjectDBX Classes
 90
     4095
280
     0
281
     0
  0
CLASS
  1
MATERIAL
  2
AcDbMaterial
  3
ObjectDBX Classes
 90
     1153
280
     0
281
     0
  0
CLASS
  1
SCALE
  2
AcDbScale
  3
ObjectDBX Classes
 90
     1153
280
     0
281
     0
  0
CLASS
  1
TABLESTYLE
  2
AcDbTableStyle
  3
ObjectDBX Classes
 90
     4095
280
     0
281
     0
  0
CLASS
  1
MLEADERSTYLE
  2
AcDbMLeaderStyle
  3
ACDB_MLEADERSTYLE_CLASS
 90
     4095
280
     0
281
     0
  0
CLASS
  1
SUN
  2
AcDbSun
  3
SCENEOE
 90
     1153
280
     0
281
     0
  0
CLASS
  1
ACDBPLACEHOLDER
  2
AcDbPlaceHolder
  3
ObjectDBX Classes
 90
        0
280
     0
281
     0
  0
CLASS
  1
LAYOUT
  2
AcDbLayout
  3
ObjectDBX Classes
 90
        0
280
     0
281
     0
  0
ENDSEC
  0
SECTION
  2
TABLES
  0
TABLE
  2
VPORT
  5
8
330
0
100
AcDbSymbolTable
 70
     1
  0
VPORT
  5
29
330
8
100
AcDbSymbolTableRecord
100
AcDbViewportTableRecord
  2
*Active
 70
     0
 10
0.0
 20
0.0
 11
1.0
 21
1.0
 12
1200.0
 22
600.0
 13
0.0
 23
0.0
 14
10.0
 24
10.0
 15
10.0
 25
10.0
 16
0.0
 26
0.0
 36
1.0
 17
0.0
 27
0.0
 37
0.0
 40
1200.0
 41
2.0
 42
50.0
 43
0.0
 44
0.0
 50
0.0
 51
0.0
 71
     0
 72
  2000
 73
     1
 74
     3
 75
     0
 76
     0
 77
     0
 78
     0
281
     0
 65
     1
110
0.0
120
0.0
130
0.0
111
1.0
121
0.0
131
0.0
112
0.0
122
1.0
132
0.0
 79
     0
146
0.0
  0
ENDTAB
  0
TABLE
  2
LTYPE
  5
5
330
0
100
AcDbSymbolTable
 70
     6
  0
LTYPE
  5
14
330
5
100
AcDbSymbolTableRecord
100
AcDbLinetypeTableRecord
  2
ByBlock
 70
     0
  3

 72
    65
 73
     0
 40
0.0
  0
LTYPE
  5
15
330
5
100
AcDbSymbolTableRecord
100
AcDbLinetypeTableRecord
  2
ByLayer
 70
     0
  3

 72
    65
 73
     0
 40
0.0
  0
LTYPE
  5
16
330
5
100
AcDbSymbolTableRecord
100
AcDbLinetypeTableRecord
  2
Continuous
 70
     0
  3
Solid line
 72
    65
 73
     0
 40
0.0
  0
LTYPE
  5
6E
330
5
100
AcDbSymbolTableRecord
100
AcDbLinetypeTableRecord
  2
HIDDEN
 70
     0
  3
Hidden __ __ __ __ __ __ __ __ __ __ __ __ __ __
 72
    65
 73
     2
 40
1.905
 49
1.27
 74
     0
 49
-0.635
 74
     0
  0
LTYPE
  5
6F
330
5
100
AcDbSymbolTableRecord
100
AcDbLinetypeTableRecord
  2
PHANTOM
 70
     0
  3
Phantom ______  __  __  ______  __  __  ______
 72
    65
 73
     6
 40
12.7
 49
6.35
 74
     0
 49
-1.27
 74
     0
 49
1.27
 74
     0
 49
-1.27
 74
     0
 49
1.27
 74
     0
 49
-1.27
 74
     0
  0
LTYPE
  5
70
330
5
100
AcDbSymbolTableRecord
100
AcDbLinetypeTableRecord
  2
CENTER
 70
     0
  3
Center ____ _ ____ _ ____ _ ____ _ ____ _ ____
 72
    65
 73
     4
 40
10.16
 49
6.35
 74
     0
 49
-1.27
 74
     0
 49
1.27
 74
     0
 49
-1.27
 74
     0
  0
LTYPE
  5
71
330
5
100
AcDbSymbolTableRecord
100
AcDbLinetypeTableRecord
  2
CENTERX2
 70
     0
  3
Center (2x) ________  __  ________  __  _____
 72
    65
 73
     4
 40
20.32
 49
12.7
 74
     0
 49
-2.54
 74
     0
 49
2.54
 74
     0
 49
-2.54
 74
     0
  0
LTYPE
  5
72
330
5
100
AcDbSymbolTableRecord
100
AcDbLinetypeTableRecord
  2
DOT2
 70
     0
  3
Dot (.5x) ........................................
 72
    65
 73
     2
 40
0.635
 49
0.0
 74
     0
 49
-0.635
 74
     0
  0
ENDTAB
  0
TABLE
  2
LAYER
  5
2
330
0
100
AcDbSymbolTable
 70
     2
  0
LAYER
  5
10
330
2
100
AcDbSymbolTableRecord
100
AcDbLayerTableRecord
  2
0
 70
     0
 62
     7
  6
Continuous
370
    -3
390
F
  0
LAYER
  5
73
330
2
100
AcDbSymbolTableRecord
100
AcDbLayerTableRecord
  2
FORMAT
 70
     0
 62
     7
  6
Continuous
370
    -3
390
F
  0
ENDTAB
  0
TABLE
  2
STYLE
  5
3
330
0
100
AcDbSymbolTable
 70
     1
  0
STYLE
  5
11
330
3
100
AcDbSymbolTableRecord
100
AcDbTextStyleTableRecord
  2
Standard
 70
     0
 40
0.0
 41
1.0
 50
0.0
 71
     0
 42
3.5
  3
txt
  4

  0
ENDTAB
  0
TABLE
  2
VIEW
  5
6
330
0
100
AcDbSymbolTable
 70
     0
  0
ENDTAB
  0
TABLE
  2
UCS
  5
7
330
0
100
AcDbSymbolTable
 70
     0
  0
ENDTAB
  0
TABLE
  2
APPID
  5
9
330
0
100
AcDbSymbolTable
 70
     1
  0
APPID
  5
12
330
9
100
AcDbSymbolTableRecord
100
AcDbRegAppTableRecord
  2
ACAD
 70
     0
  0
ENDTAB
  0
TABLE
  2
DIMSTYLE
  5
A
330
0
100
AcDbSymbolTable
 70
     1
100
AcDbDimStyleTable
  0
DIMSTYLE
105
27
330
A
100
AcDbSymbolTableRecord
100
AcDbDimStyleTableRecord
  2
ISO-25
 70
     0
 41
2.5
 42
0.625
 43
3.75
 44
1.25
 73
     0
 74
     0
 77
     1
 78
     8
140
2.5
141
2.5
143
0.0393700787
147
0.625
171
     3
172
     1
178
     0
271
     2
272
     2
274
     3
278
    44
283
     0
284
     8
340
11
  0
ENDTAB
  0
TABLE
  2
BLOCK_RECORD
  5
1
330
0
100
AcDbSymbolTable
 70
     1
  0
BLOCK_RECORD
  5
1F
330
1
100
AcDbSymbolTableRecord
100
AcDbBlockTableRecord
  2
*Model_Space
340
22
  0
BLOCK_RECORD
  5
1B
330
1
100
AcDbSymbolTableRecord
100
AcDbBlockTableRecord
  2
*Paper_Space
340
1E
  0
BLOCK_RECORD
  5
23
330
1
100
AcDbSymbolTableRecord
100
AcDbBlockTableRecord
  2
*Paper_Space0
340
26
  0
ENDTAB
  0
ENDSEC
  0
SECTION
  2
BLOCKS
  0
BLOCK
  5
20
330
1F
100
AcDbEntity
  8
0
100
AcDbBlockBegin
  2
*Model_Space
 70
     0
 10
0.0
 20
0.0
 30
0.0
  3
*Model_Space
  1

  0
ENDBLK
  5
21
330
1F
100
AcDbEntity
  8
0
100
AcDbBlockEnd
  0
BLOCK
  5
1C
330
1B
100
AcDbEntity
 67
     1
  8
0
100
AcDbBlockBegin
  2
*Paper_Space
 70
     0
 10
0.0
 20
0.0
 30
0.0
  3
*Paper_Space
  1

  0
ENDBLK
  5
1D
330
1B
100
AcDbEntity
 67
     1
  8
0
100
AcDbBlockEnd
  0
BLOCK
  5
24
330
23
100
AcDbEntity
  8
0
100
AcDbBlockBegin
  2
*Paper_Space0
 70
     0
 10
0.0
 20
0.0
 30
0.0
  3
*Paper_Space0
  1

  0
ENDBLK
  5
25
330
23
100
AcDbEntity
  8
0
100
AcDbBlockEnd
  0
ENDSEC
  0
SECTION
  2
ENTITIES
  0
CIRCLE
  5
74
330
1F
100
AcDbEntity
  8
0
  6
Continuous
 62
     7
370
    25
100
AcDbCircle
 10
213.9545614625
 20
448.1594158665
 30
0.0
 40
2.976626000000124
  0
CIRCLE
  5
75
330
1F
100
AcDbEntity
  8
0
  6
Continuous
 62
     7
370
    25
100
AcDbCircle
 10
196.6159922773
 20
456.1466075233
 30
0.0
 40
2.976626000000181
  0
CIRCLE
  5
76
330
1F
100
AcDbEntity
  8
0
  6
Continuous
 62
     7
370
    25
100
AcDbCircle
 10
208.9992224812
 20
470.67509064
 30
0.0
 40
2.976626000000181
  0
CIRCLE
  5
77
330
1F
100
AcDbEntity
  8
0
  6
Continuous
 62
     7
370
    25
100
AcDbCircle
 10
54.249700573
 20
287.4289920256
 30
0.0
 40
2.457450000000108
  0
CIRCLE
  5
78
330
1F
100
AcDbEntity
  8
0
  6
Continuous
 62
     7
370
    25
100
AcDbCircle
 10
69.9110331505
 20
300.1289905736
 30
0.0
 40
2.457450000000051
  0
CIRCLE
  5
79
330
1F
100
AcDbEntity
  8
0
  6
Continuous
 62
     7
370
    25
100
AcDbCircle
 10
209.4566656794
 20
428.0112522424
 30
0.0
 40
2.457450000000108
  0
CIRCLE
  5
7A
330
1F
100
AcDbEntity
  8
0
  6
Continuous
 62
     7
370
    25
100
AcDbCircle
 10
218.7970222505
 20
406.6972479538
 30
0.0
 40
2.457450000000108
  0
CIRCLE
  5
7B
330
1F
100
AcDbEntity
  8
0
  6
Continuous
 62
     7
370
    25
100
AcDbCircle
 10
225.4794133815
 20
391.4485246168
 30
0.0
 40
2.457450000000051
  0
CIRCLE
  5
7C
330
1F
100
AcDbEntity
  8
0
  6
Continuous
 62
     7
370
    25
100
AcDbCircle
 10
230.7683468814
 20
38.2266502586
 30
0.0
 40
5.079999999999977
  0
CIRCLE
  5
7D
330
1F
100
AcDbEntity
  8
0
  6
Continuous
 62
     7
370
    25
100
AcDbCircle
 10
230.7683468814
 20
54.1016502586
 30
0.0
 40
5.07999999999997
  0
LINE
  5
7E
330
1F
100
AcDbEntity
  8
0
  6
Continuous
 62
     7
370
    25
100
AcDbLine
 10
112.7491075441
 20
582.4622203289
 30
0.0
 11
112.7875561002
 21
601.5741488385
 31
0.0
  0
LINE
  5
7F
330
1F
100
AcDbEntity
  8
0
  6
Continuous
 62
     7
370
    25
100
AcDbLine
 10
112.7875561003
 20
601.5741488565
 30
0.0
 11
179.0980010151
 21
601.5741487895
 31
0.0
  0
SPLINE
  5
80
330
1F
100
AcDbEntity
  8
0
  6
Continuous
 62
     7
370
    25
100
AcDbSpline
210
0.0
220
0.0
230
1.0
 70
     8
 71
     3
 72
    32
 73
    28
 74
     0
 42
0.00000001
 43
0.00000001
 40
0.0
 40
0.0
 40
0.0
 40
0.0
 40
0.0624999999999993
 40
0.0624999999999993
 40
0.1249999999999986
 40
0.1249999999999986
 40
0.249999999999995
 40
0.249999999999995
 40
0.3749999999999914
 40
0.3749999999999914
 40
0.4374999999999885
 40
0.4374999999999885
 40
0.4531249999999883
 40
0.4531249999999883
 40
0.4687499999999881
 40
0.4687499999999881
 40
0.4999999999999878
 40
0.4999999999999878
 40
0.6249999999999909
 40
0.6249999999999909
 40
0.6874999999999923
 40
0.6874999999999923
 40
0.7499999999999939
 40
0.7499999999999939
 40
0.8749999999999969
 40
0.8749999999999969
 40
1.0
 40
1.0
 40
1.0
 40
1.0
 10
179.0980010150633
 20
601.5741487894892
 30
0.0
 10
183.6950413466689
 20
589.9223252337566
 30
0.0
 10
188.0554707557932
 20
578.2144159588338
 30
0.0
 10
196.2937475720061
 20
554.6842072601034
 30
0.0
 10
200.1716065304181
 20
542.861910574395
 30
0.0
 10
211.0798477928204
 20
507.2230886002143
 30
0.0
 10
217.3816233288711
 20
483.2338560074618
 30
0.0
 10
228.1256499189911
 20
434.8146133344934
 30
0.0
 10
232.5693648067363
 20
410.3849502381094
 30
0.0
 10
237.9676643831515
 20
373.4400641190511
 30
0.0
 10
239.5564119198561
 20
361.0751616269814
 30
0.0
 10
241.2948511972888
 20
345.5603678215284
 30
0.0
 10
241.6301689152773
 20
342.4544768709567
 30
0.0
 10
242.2764767528434
 20
336.2369284107773
 30
0.0
 10
242.5875447682971
 20
333.1244119387972
 30
0.0
 10
243.4839081411632
 20
323.7888036638392
 30
0.0
 10
244.0326295622878
 20
317.5653970215248
 30
0.0
 10
246.5431365268373
 20
286.4499488878766
 30
0.0
 10
247.8073412764144
 20
261.5626509368647
 30
0.0
 10
248.7849810129163
 20
224.2379509366327
 30
0.0
 10
248.9553969210749
 20
211.7974414230918
 30
0.0
 10
249.0193796219646
 20
186.9183049663949
 30
0.0
 10
248.9128655148392
 20
174.4796785733575
 30
0.0
 10
248.2152714847225
 20
137.1663701409426
 30
0.0
 10
247.2491389503657
 20
112.2942384544434
 30
0.0
 10
244.4311254654765
 20
62.55599815914942
 30
0.0
 10
242.5797068113597
 20
37.68988640674537
 30
0.0
 10
240.2924080117713
 20
12.82673863365974
 30
0.0
  0
LINE
  5
81
330
1F
100
AcDbEntity
  8
0
  6
Continuous
 62
     7
370
    25
100
AcDbLine
 10
240.2942857509
 20
12.82656589
 30
0.0
 11
36.4697006948
 21
12.82656589
 31
0.0
  0
LINE
  5
82
330
1F
100
AcDbEntity
  8
0
  6
Continuous
 62
     7
370
    25
100
AcDbLine
 10
36.4697006948
 20
12.82656589
 30
0.0
 11
36.4697006948
 21
241.0465675503
 31
0.0
  0
LINE
  5
83
330
1F
100
AcDbEntity
  8
0
  6
Continuous
 62
     7
370
    25
100
AcDbLine
 10
42.8197006948
 20
241.0465675503
 30
0.0
 11
36.4697006948
 21
241.0465675503
 31
0.0
  0
LINE
  5
84
330
1F
100
AcDbEntity
  8
0
  6
Continuous
 62
     7
370
    25
100
AcDbLine
 10
42.8197006948
 20
306.4789920021
 30
0.0
 11
42.8197006948
 21
241.0465675503
 31
0.0
  0
LINE
  5
85
330
1F
100
AcDbEntity
  8
0
  6
Continuous
 62
     7
370
    25
100
AcDbLine
 10
87.2697006948
 20
306.4789920021
 30
0.0
 11
42.8197006948
 21
306.4789920021
 31
0.0
  0
LINE
  5
86
330
1F
100
AcDbEntity
  8
0
  6
Continuous
 62
     7
370
    25
100
AcDbLine
 10
87.2697006948
 20
286.3395042443
 30
0.0
 11
87.2697006948
 21
306.4789920021
 31
0.0
  0
ARC
  5
87
330
1F
100
AcDbEntity
  8
0
  6
Continuous
 62
     7
370
    25
100
AcDbCircle
 10
99.9697006948
 20
286.3395042443
 30
0.0
 40
12.69999999999999
100
AcDbArc
 50
180.0
 51
315.0
  0
LINE
  5
88
330
1F
100
AcDbEntity
  8
0
  6
Continuous
 62
     7
370
    25
100
AcDbLine
 10
179.5967764033
 20
348.0060677106
 30
0.0
 11
108.9499568159
 21
277.3592481232
 31
0.0
  0
ARC
  5
89
330
1F
100
AcDbEntity
  8
0
  6
Continuous
 62
     7
370
    25
100
AcDbCircle
 10
141.8797006948
 20
385.7231434191
 30
0.0
 40
53.34000000000012
100
AcDbArc
 50
315.0
 51
0.0
  0
LINE
  5
8A
330
1F
100
AcDbEntity
  8
0
  6
Continuous
 62
     7
370
    25
100
AcDbLine
 10
195.2197006948
 20
385.7231434191
 30
0.0
 11
195.2197006948
 21
390.0860366994
 31
0.0
  0
ARC
  5
8B
330
1F
100
AcDbEntity
  8
0
  6
Continuous
 62
     7
370
    25
100
AcDbCircle
 10
68.2197006948
 20
390.0860366994
 30
0.0
 40
127.0000000000098
100
AcDbArc
 50
0.0000000096
 51
10.1691851637
  0
SPLINE
  5
8C
330
1F
100
AcDbEntity
  8
0
  6
Continuous
 62
     7
370
    25
100
AcDbSpline
210
0.0
220
0.0
230
1.0
 70
     8
 71
     3
 72
    12
 73
     8
 74
     0
 42
0.00000001
 43
0.00000001
 40
0.0
 40
0.0
 40
0.0
 40
0.0
 40
0.4999999999999933
 40
0.4999999999999933
 40
0.7499999999999967
 40
0.7499999999999967
 40
1.0
 40
1.0
 40
1.0
 40
1.0
 10
193.2246202809394
 20
412.5085717762539
 30
0.0
 10
190.4536134412731
 20
427.9568467361343
 30
0.0
 10
187.3154532429787
 20
443.3286796150641
 30
0.0
 10
182.0203370916371
 20
466.2640319771076
 30
0.0
 10
180.1575089349934
 20
473.8880459966672
 30
0.0
 10
176.2351451793566
 20
489.0811725390025
 30
0.0
 10
174.17524489909
 20
496.6518781870467
 30
0.0
 10
172.015464044504
 20
504.1964218006181
 30
0.0
  0
ARC
  5
8D
330
1F
100
AcDbEntity
  8
0
  6
Continuous
 62
     7
370
    25
100
AcDbCircle
 10
123.1772304923
 20
490.2154724947
 30
0.0
 40
50.79999999999952
100
AcDbArc
 50
15.9748591994
 51
44.9999999741
  0
LINE
  5
8E
330
1F
100
AcDbEntity
  8
0
  6
Continuous
 62
     7
370
    25
100
AcDbLine
 10
159.0982549928
 20
526.1364969627
 30
0.0
 11
121.1926593954
 21
564.0420925601
 31
0.0
  0
ARC
  5
8F
330
1F
100
AcDbEntity
  8
0
  6
Continuous
 62
     7
370
    25
100
AcDbCircle
 10
139.1531716375
 20
582.0026048022
 30
0.0
 40
25.39999999999798
100
AcDbArc
 50
194.8847350087
 51
225.0
  0
LINE
  5
90
330
1F
100
AcDbEntity
  8
0
  6
Continuous
 62
     7
370
    25
100
AcDbLine
 10
114.6054800304
 20
575.4779717274
 30
0.0
 11
112.7491075441
 21
582.4622203289
 31
0.0
  0
CIRCLE
  5
91
330
1F
100
AcDbEntity
  8
0
  6
Continuous
 62
     7
370
    25
100
AcDbCircle
 10
163.5695881998
 20
592.0491488186
 30
0.0
 40
2.413000000000238
  0
CIRCLE
  5
92
330
1F
100
AcDbEntity
  8
0
  6
Continuous
 62
     7
370
    25
100
AcDbCircle
 10
125.4694854019
 20
592.0491488186
 30
0.0
 40
2.413000000000238
  0
ARC
  5
93
330
1F
100
AcDbEntity
  8
0
  6
Continuous
 62
     7
370
    25
100
AcDbCircle
 10
144.4197006948
 20
139.8265654854
 30
0.0
 40
50.79999999999995
100
AcDbArc
 50
270.0
 51
0.0000000652
  0
LINE
  5
94
330
1F
100
AcDbEntity
  8
0
  6
Continuous
 62
     7
370
    25
100
AcDbLine
 10
195.2197006948
 20
139.8265654854
 30
0.0
 11
195.2197006948
 21
261.1264307914
 31
0.0
  0
ARC
  5
95
330
1F
100
AcDbEntity
  8
0
  6
Continuous
 62
     7
370
    25
100
AcDbCircle
 10
182.5197006948
 20
261.1264307914
 30
0.0
 40
12.70000000000005
100
AcDbArc
 50
360.0
 51
135.0
  0
LINE
  5
96
330
1F
100
AcDbEntity
  8
0
  6
Continuous
 62
     7
370
    25
100
AcDbLine
 10
102.8926249864
 20
199.4598673251
 30
0.0
 11
173.5394445738
 21
270.1066869125
 31
0.0
  0
ARC
  5
97
330
1F
100
AcDbEntity
  8
0
  6
Continuous
 62
     7
370
    25
100
AcDbCircle
 10
140.6097006948
 20
161.7427916166
 30
0.0
 40
53.33999999999999
100
AcDbArc
 50
135.0
 51
180.0
  0
LINE
  5
98
330
1F
100
AcDbEntity
  8
0
  6
Continuous
 62
     7
370
    25
100
AcDbLine
 10
87.2697006948
 20
142.3665654854
 30
0.0
 11
87.2697006948
 21
161.7427916166
 31
0.0
  0
ARC
  5
99
330
1F
100
AcDbEntity
  8
0
  6
Continuous
 62
     7
370
    25
100
AcDbCircle
 10
140.6097006948
 20
142.3665654854
 30
0.0
 40
53.34000000000005
100
AcDbArc
 50
180.0
 51
270.0
  0
LINE
  5
9A
330
1F
100
AcDbEntity
  8
0
  6
Continuous
 62
     7
370
    25
100
AcDbLine
 10
140.6097006948
 20
89.0265654854
 30
0.0
 11
144.4197006948
 21
89.0265654854
 31
0.0
  0
CIRCLE
  5
9B
330
1F
100
AcDbEntity
  8
0
  6
Continuous
 62
     7
370
    25
100
AcDbCircle
 10
230.7683468814
 20
38.2266502586
 30
0.0
 40
0.9918700000000058
  0
CIRCLE
  5
9C
330
1F
100
AcDbEntity
  8
0
  6
Continuous
 62
     7
370
    25
100
AcDbCircle
 10
230.7683468814
 20
54.1016502586
 30
0.0
 40
0.9918700000000058
  0
CIRCLE
  5
9D
330
1F
100
AcDbEntity
  8
0
  6
Continuous
 62
     7
370
    25
100
AcDbCircle
 10
1000.5010841238
 20
857.0956273566
 30
0.0
 40
5.079999999999927
  0
CIRCLE
  5
9E
330
1F
100
AcDbEntity
  8
0
  6
Continuous
 62
     7
370
    25
100
AcDbCircle
 10
1038.363453317
 20
292.3136470946
 30
0.0
 40
2.285999999999774
  0
CIRCLE
  5
9F
330
1F
100
AcDbEntity
  8
0
  6
Continuous
 62
     7
370
    25
100
AcDbCircle
 10
1076.463453317
 20
292.3136470747
 30
0.0
 40
2.285999999999774
  0
CIRCLE
  5
A0
330
1F
100
AcDbEntity
  8
0
  6
Continuous
 62
     7
370
    25
100
AcDbCircle
 10
991.2892256486
 20
551.904619861
 30
0.0
 40
2.286000000000172
  0
CIRCLE
  5
A1
330
1F
100
AcDbEntity
  8
0
  6
Continuous
 62
     7
370
    25
100
AcDbCircle
 10
970.1710426071
 20
534.0671561586
 30
0.0
 40
2.286000000000286
  0
CIRCLE
  5
A2
330
1F
100
AcDbEntity
  8
0
  6
Continuous
 62
     7
370
    25
100
AcDbCircle
 10
975.1010841238
 20
841.2206343235
 30
0.0
 40
0.9918700000000626
  0
CIRCLE
  5
A3
330
1F
100
AcDbEntity
  8
0
  6
Continuous
 62
     7
370
    25
100
AcDbCircle
 10
975.1010841238
 20
857.0956343235
 30
0.0
 40
0.991869999999949
  0
CIRCLE
  5
A4
330
1F
100
AcDbEntity
  8
0
  6
Continuous
 62
     7
370
    25
100
AcDbCircle
 10
1000.5010841238
 20
841.2206273566
 30
0.0
 40
5.080000000000041
  0
LINE
  5
A5
330
1F
100
AcDbEntity
  8
0
  6
Continuous
 62
     7
370
    25
100
AcDbLine
 10
1010.4073349909
 20
535.1269968984
 30
0.0
 11
998.9526097572
 21
533.1059886395
 31
0.0
  0
SPLINE
  5
A6
330
1F
100
AcDbEntity
  8
0
  6
Continuous
 62
     7
370
    25
100
AcDbSpline
210
0.0
220
0.0
230
1.0
 70
     8
 71
     3
 72
    11
 73
     7
 74
     0
 42
0.00000001
 43
0.00000001
 40
36.26957855478788
 40
36.26957855478788
 40
36.26957855478788
 40
36.26957855478788
 40
41.5745348812848
 40
41.5745348812848
 40
41.5745348812848
 40
49.883771658778
 40
49.883771658778
 40
49.883771658778
 40
49.883771658778
 10
998.9526097571903
 20
533.1059886395178
 30
0.0
 10
1001.469274983093
 20
512.490499078798
 30
0.0
 10
1004.495994555646
 20
492.5016479680818
 30
0.0
 10
1008.027184363176
 20
473.0357533176438
 30
0.0
 10
1013.558142661642
 20
442.5460154609257
 30
0.0
 10
1020.320577914432
 20
413.3329825767406
 30
0.0
 10
1028.328175528359
 20
384.9731895402818
 30
0.0
  0
ARC
  5
A7
330
1F
100
AcDbEntity
  8
0
  6
Continuous
 62
     7
370
    25
100
AcDbCircle
 10
1034.4392419611
 20
386.6986944099
 30
0.0
 40
6.349999999997471
100
AcDbArc
 50
195.7674195017
 51
224.8847349571
  0
LINE
  5
A8
330
1F
100
AcDbEntity
  8
0
  6
Continuous
 62
     7
370
    25
100
AcDbLine
 10
1029.9400899574
 20
382.2176084647
 30
0.0
 11
1092.3932033407
 21
319.5127075747
 31
0.0
  0
LINE
  5
A9
330
1F
100
AcDbEntity
  8
0
  6
Continuous
 62
     7
370
    25
100
AcDbLine
 10
1092.3932033407
 20
319.5127075747
 30
0.0
 11
1092.3193234562
 21
282.7886470664
 31
0.0
  0
LINE
  5
AA
330
1F
100
AcDbEntity
  8
0
  6
Continuous
 62
     7
370
    25
100
AcDbLine
 10
1092.3193234562
 20
282.7886470664
 30
0.0
 11
1022.7193361764
 21
282.7886471028
 31
0.0
  0
SPLINE
  5
AB
330
1F
100
AcDbEntity
  8
0
  6
Continuous
 62
     7
370
    25
100
AcDbSpline
210
0.0
220
0.0
230
1.0
 70
     8
 71
     3
 72
    10
 73
     6
 74
     0
 42
0.00000001
 43
0.00000001
 40
-58.73036271032446
 40
-58.73036271032446
 40
-58.73036271032446
 40
-58.73036271032446
 40
-26.5398317677137
 40
-26.5398317677137
 40
-9.112492269175599
 40
-9.112492269175599
 40
-9.112492269175599
 40
-9.112492269175599
 10
1022.719336176446
 20
282.7886471027808
 30
0.0
 10
979.729334007217
 20
391.6515043291812
 30
0.0
 10
956.1017719123632
 20
507.7222415476302
 30
0.0
 10
950.0889181657021
 20
730.84111206955
 30
0.0
 10
954.0280198825751
 20
811.5362562507335
 30
0.0
 10
960.6081152615523
 20
882.4955287865254
 30
0.0
  0
LINE
  5
AC
330
1F
100
AcDbEntity
  8
0
  6
Continuous
 62
     7
370
    25
100
AcDbLine
 10
960.6060635477
 20
882.4957190432
 30
0.0
 11
1010.4073349913
 21
882.4957190432
 31
0.0
  0
LINE
  5
AD
330
1F
100
AcDbEntity
  8
0
  6
Continuous
 62
     7
370
    25
100
AcDbLine
 10
1010.4073349913
 20
535.1269968984
 30
0.0
 11
1010.4073349913
 21
882.4957190432
 31
0.0
  0
CIRCLE
  5
AE
330
1F
100
AcDbEntity
  8
0
  6
Continuous
 62
     7
370
    25
100
AcDbCircle
 10
1000.5010841238
 20
857.0956273573
 30
0.0
 40
0.9918700000000626
  0
CIRCLE
  5
AF
330
1F
100
AcDbEntity
  8
0
  6
Continuous
 62
     7
370
    25
100
AcDbCircle
 10
1000.5010841238
 20
841.2206273573
 30
0.0
 40
0.9918700000000626
  0
CIRCLE
  5
B0
330
1F
100
AcDbEntity
  8
0
  6
Continuous
 62
     7
370
    25
100
AcDbCircle
 10
442.8773111408
 20
818.1191757936
 30
0.0
 40
5.079999999999927
  0
CIRCLE
  5
B1
330
1F
100
AcDbEntity
  8
0
  6
Continuous
 62
     7
370
    25
100
AcDbCircle
 10
442.8773111408
 20
833.9941757936
 30
0.0
 40
5.080000000000041
  0
CIRCLE
  5
B2
330
1F
100
AcDbEntity
  8
0
  6
Continuous
 62
     7
370
    25
100
AcDbCircle
 10
253.2209987185
 20
818.1191757936
 30
0.0
 40
5.079999999999927
  0
CIRCLE
  5
B3
330
1F
100
AcDbEntity
  8
0
  6
Continuous
 62
     7
370
    25
100
AcDbCircle
 10
253.2209987185
 20
833.9941757936
 30
0.0
 40
5.080000000000041
  0
LINE
  5
B4
330
1F
100
AcDbEntity
  8
0
  6
Continuous
 62
     7
370
    25
100
AcDbLine
 10
376.5769143326
 20
705.6186387923
 30
0.0
 11
306.9494369693
 21
606.1582319356
 31
0.0
  0
ARC
  5
B5
330
1F
100
AcDbEntity
  8
0
  6
Continuous
 62
     7
370
    25
100
AcDbCircle
 10
369.3733782064
 20
562.4582140816
 30
0.0
 40
76.20000000000034
100
AcDbArc
 50
145.0059722934
 51
190.0059722991
  0
LINE
  5
B6
330
1F
100
AcDbEntity
  8
0
  6
Continuous
 62
     7
370
    25
100
AcDbLine
 10
294.3324070881
 20
549.2184008796
 30
0.0
 11
299.7599158214
 21
518.4562201836
 31
0.0
  0
LINE
  5
B7
330
1F
100
AcDbEntity
  8
0
  6
Continuous
 62
     7
370
    25
100
AcDbLine
 10
299.7599158214
 20
518.4562201836
 30
0.0
 11
280.2759257289
 21
515.0185729332
 31
0.0
  0
SPLINE
  5
B8
330
1F
100
AcDbEntity
  8
0
  6
Continuous
 62
     7
370
    25
100
AcDbSpline
210
0.0
220
0.0
230
1.0
 70
     8
 71
     3
 72
    14
 73
    10
 74
     0
 42
0.00000001
 43
0.00000001
 40
0.0
 40
0.0
 40
0.0
 40
0.0
 40
0.25
 40
0.25
 40
0.5
 40
0.5
 40
0.75
 40
0.75
 40
1.0
 40
1.0
 40
1.0
 40
1.0
 10
280.2759257289061
 20
515.0185729332156
 30
0.0
 10
282.0834681401141
 20
498.5673238555945
 30
0.0
 10
284.2375678555123
 20
482.1879992866213
 30
0.0
 10
289.302216482034
 20
449.5863436272863
 30
0.0
 10
292.2130746514057
 20
433.3640767203827
 30
0.0
 10
298.8434173785948
 20
401.0873652406223
 30
0.0
 10
302.5640909019541
 20
385.0331674256956
 30
0.0
 10
310.8608589909077
 20
353.1023058931077
 30
0.0
 10
315.437199199646
 20
337.2256931562304
 30
0.0
 10
320.4512422973434
 20
321.4399212841751
 30
0.0
  0
LINE
  5
B9
330
1F
100
AcDbEntity
  8
0
  6
Continuous
 62
     7
370
    25
100
AcDbLine
 10
320.4512422926
 20
321.4399212827
 30
0.0
 11
376.7454813404
 21
264.9187249952
 31
0.0
  0
LINE
  5
BA
330
1F
100
AcDbEntity
  8
0
  6
Continuous
 62
     7
370
    25
100
AcDbLine
 10
376.7454813404
 20
264.9187249952
 30
0.0
 11
376.7071573699
 21
245.8687250034
 31
0.0
  0
LINE
  5
BB
330
1F
100
AcDbEntity
  8
0
  6
Continuous
 62
     7
370
    25
100
AcDbLine
 10
376.7071573698
 20
245.8687249952
 30
0.0
 11
306.9629034273
 21
245.8687250284
 31
0.0
  0
SPLINE
  5
BC
330
1F
100
AcDbEntity
  8
0
  6
Continuous
 62
     7
370
    25
100
AcDbSpline
210
0.0
220
0.0
230
1.0
 70
     8
 71
     3
 72
    30
 73
    26
 74
     0
 42
0.00000001
 43
0.00000001
 40
0.0
 40
0.0
 40
0.0
 40
0.0
 40
0.0624999999999984
 40
0.0624999999999984
 40
0.1249999999999968
 40
0.1249999999999968
 40
0.2499999999999957
 40
0.2499999999999957
 40
0.3749999999999946
 40
0.3749999999999946
 40
0.4999999999999934
 40
0.4999999999999934
 40
0.5312499999999932
 40
0.5312499999999932
 40
0.5624999999999929
 40
0.5624999999999929
 40
0.6249999999999946
 40
0.6249999999999946
 40
0.6874999999999961
 40
0.6874999999999961
 40
0.7499999999999978
 40
0.7499999999999978
 40
0.8749999999999989
 40
0.8749999999999989
 40
1.0
 40
1.0
 40
1.0
 40
1.0
 10
306.962903427321
 20
245.8687250283634
 30
0.0
 10
302.1551805661026
 20
258.0294877439636
 30
0.0
 10
297.5990115737466
 20
270.2428152105686
 30
0.0
 10
288.9982969249631
 20
294.7763790670367
 30
0.0
 10
284.953734109223
 20
307.0966118712876
 30
0.0
 10
273.5866210899497
 20
344.2174940517459
 30
0.0
 10
267.0340510378519
 20
369.1790386474253
 30
0.0
 10
255.8810209353166
 20
419.5100411681861
 30
0.0
 10
251.2789187141762
 20
444.8791559449205
 30
0.0
 10
243.8369037798554
 20
495.9856130002326
 30
0.0
 10
240.9955327041139
 20
521.7226505390535
 30
0.0
 10
238.4015943721601
 20
554.0940844414789
 30
0.0
 10
237.9306544268293
 20
560.5783694921366
 30
0.0
 10
237.0808282531718
 20
573.5661751581246
 30
0.0
 10
236.7017981901343
 20
580.0725867012259
 30
0.0
 10
235.6983919604448
 20
599.5985558931794
 30
0.0
 10
235.2077830118625
 20
612.611274459324
 30
0.0
 10
234.5506045011756
 20
638.6283634550806
 30
0.0
 10
234.3855264665376
 20
651.6326954588873
 30
0.0
 10
234.3460903245144
 20
677.6338697299217
 30
0.0
 10
234.4718205029648
 20
690.6307097226666
 30
0.0
 10
235.2456157734959
 20
729.6110120834906
 30
0.0
 10
236.2870612317818
 20
755.584339902674
 30
0.0
 10
239.2988629714869
 20
807.5070642700251
 30
0.0
 10
241.2686644944801
 20
833.4564751102823
 30
0.0
 10
243.6971354939079
 20
859.3940693764678
 30
0.0
  0
LINE
  5
BD
330
1F
100
AcDbEntity
  8
0
  6
Continuous
 62
     7
370
    25
100
AcDbLine
 10
243.694861943
 20
859.3942822433
 30
0.0
 11
452.4023111408
 21
859.3942822433
 31
0.0
  0
LINE
  5
BE
330
1F
100
AcDbEntity
  8
0
  6
Continuous
 62
     7
370
    25
100
AcDbLine
 10
452.4023111408
 20
859.3942822433
 30
0.0
 11
452.4023111408
 21
609.2065430623
 31
0.0
  0
LINE
  5
BF
330
1F
100
AcDbEntity
  8
0
  6
Continuous
 62
     7
370
    25
100
AcDbLine
 10
452.4023111408
 20
609.206543046
 30
0.0
 11
427.3886541009
 21
604.7932719811
 31
0.0
  0
LINE
  5
C0
330
1F
100
AcDbEntity
  8
0
  6
Continuous
 62
     7
370
    25
100
AcDbLine
 10
427.3886541009
 20
604.7932719811
 30
0.0
 11
410.9431424217
 21
698.0035876275
 31
0.0
  0
ARC
  5
C1
330
1F
100
AcDbEntity
  8
0
  6
Continuous
 62
     7
370
    25
100
AcDbCircle
 10
392.1828996418
 20
694.6936343288
 30
0.0
 40
19.05000000000006
100
AcDbArc
 50
10.0059722934
 51
145.0059722934
  0
CIRCLE
  5
C2
330
1F
100
AcDbEntity
  8
0
  6
Continuous
 62
     7
370
    25
100
AcDbCircle
 10
322.7501188521
 20
255.3937250484
 30
0.0
 40
2.413000000000238
  0
CIRCLE
  5
C3
330
1F
100
AcDbEntity
  8
0
  6
Continuous
 62
     7
370
    25
100
AcDbCircle
 10
360.8502216499
 20
255.3937250484
 30
0.0
 40
2.413000000000238
  0
CIRCLE
  5
C4
330
1F
100
AcDbEntity
  8
0
  6
Continuous
 62
     7
370
    25
100
AcDbCircle
 10
332.5684270187
 20
770.4942211866
 30
0.0
 40
44.45000000000027
  0
CIRCLE
  5
C5
330
1F
100
AcDbEntity
  8
0
  6
Continuous
 62
     7
370
    25
100
AcDbCircle
 10
446.0523111408
 20
627.0563840499
 30
0.0
 40
2.285999999999717
  0
CIRCLE
  5
C6
330
1F
100
AcDbEntity
  8
0
  6
Continuous
 62
     7
370
    25
100
AcDbCircle
 10
434.1530195027
 20
612.4348167311
 30
0.0
 40
2.285999999999717
  0
CIRCLE
  5
C7
330
1F
100
AcDbEntity
  8
0
  6
Continuous
 62
     7
370
    25
100
AcDbCircle
 10
284.3473496106
 20
532.7188032733
 30
0.0
 40
2.286000000000286
  0
CIRCLE
  5
C8
330
1F
100
AcDbEntity
  8
0
  6
Continuous
 62
     7
370
    25
100
AcDbCircle
 10
254.5863985135
 20
519.7142434384
 30
0.0
 40
2.286000000000286
  0
CIRCLE
  5
C9
330
1F
100
AcDbEntity
  8
0
  6
Continuous
 62
     7
370
    25
100
AcDbCircle
 10
289.8536649542
 20
833.9941909795
 30
0.0
 40
0.991869999999949
  0
CIRCLE
  5
CA
330
1F
100
AcDbEntity
  8
0
  6
Continuous
 62
     7
370
    25
100
AcDbCircle
 10
289.8536649542
 20
818.1191909795
 30
0.0
 40
0.9918700000000626
  0
CIRCLE
  5
CB
330
1F
100
AcDbEntity
  8
0
  6
Continuous
 62
     7
370
    25
100
AcDbCircle
 10
296.0768482066
 20
343.8520453572
 30
0.0
 40
2.976626000000124
  0
CIRCLE
  5
CC
330
1F
100
AcDbEntity
  8
0
  6
Continuous
 62
     7
370
    25
100
AcDbCircle
 10
302.5455043002
 20
319.7106921594
 30
0.0
 40
2.976626000000124
  0
CIRCLE
  5
CD
330
1F
100
AcDbEntity
  8
0
  6
Continuous
 62
     7
370
    25
100
AcDbCircle
 10
442.8773111408
 20
833.9941757976
 30
0.0
 40
0.991869999999949
  0
CIRCLE
  5
CE
330
1F
100
AcDbEntity
  8
0
  6
Continuous
 62
     7
370
    25
100
AcDbCircle
 10
253.2209987185
 20
833.9941757976
 30
0.0
 40
0.991869999999949
  0
CIRCLE
  5
CF
330
1F
100
AcDbEntity
  8
0
  6
Continuous
 62
     7
370
    25
100
AcDbCircle
 10
253.2209987185
 20
818.1191757976
 30
0.0
 40
0.991869999999949
  0
CIRCLE
  5
D0
330
1F
100
AcDbEntity
  8
0
  6
Continuous
 62
     7
370
    25
100
AcDbCircle
 10
442.8773111408
 20
818.1191757976
 30
0.0
 40
0.991869999999949
  0
CIRCLE
  5
D1
330
1F
100
AcDbEntity
  8
0
  6
Continuous
 62
     7
370
    25
100
AcDbCircle
 10
533.379482265
 20
368.1394271101
 30
0.0
 40
2.976626000000124
  0
CIRCLE
  5
D2
330
1F
100
AcDbEntity
  8
0
  6
Continuous
 62
     7
370
    25
100
AcDbCircle
 10
654.7799451992
 20
842.4066643745
 30
0.0
 40
5.080000000000041
  0
CIRCLE
  5
D3
330
1F
100
AcDbEntity
  8
0
  6
Continuous
 62
     7
370
    25
100
AcDbCircle
 10
654.7799451992
 20
858.2816643745
 30
0.0
 40
5.079999999999927
  0
CIRCLE
  5
D4
330
1F
100
AcDbEntity
  8
0
  6
Continuous
 62
     7
370
    25
100
AcDbCircle
 10
515.9236327769
 20
842.4066643745
 30
0.0
 40
5.079999999999927
  0
CIRCLE
  5
D5
330
1F
100
AcDbEntity
  8
0
  6
Continuous
 62
     7
370
    25
100
AcDbCircle
 10
515.9236327769
 20
858.2816643745
 30
0.0
 40
5.080000000000041
  0
CIRCLE
  5
D6
330
1F
100
AcDbEntity
  8
0
  6
Continuous
 62
     7
370
    25
100
AcDbCircle
 10
555.6016005243
 20
267.2921196691
 30
0.0
 40
2.413000000000238
  0
CIRCLE
  5
D7
330
1F
100
AcDbEntity
  8
0
  6
Continuous
 62
     7
370
    25
100
AcDbCircle
 10
593.7017033222
 20
267.2921196691
 30
0.0
 40
2.413000000000238
  0
LINE
  5
D8
330
1F
100
AcDbEntity
  8
0
  6
Continuous
 62
     7
370
    25
100
AcDbLine
 10
544.2882117595
 20
630.4972395773
 30
0.0
 11
613.879548391
 21
729.9060206675
 31
0.0
  0
ARC
  5
D9
330
1F
100
AcDbEntity
  8
0
  6
Continuous
 62
     7
370
    25
100
AcDbCircle
 10
606.7121529965
 20
586.7972217233
 30
0.0
 40
76.20000000000023
100
AcDbArc
 50
145.0059722934
 51
190.0
  0
LINE
  5
DA
330
1F
100
AcDbEntity
  8
0
  6
Continuous
 62
     7
370
    25
100
AcDbLine
 10
536.1172950311
 20
548.3422454458
 30
0.0
 11
531.669802217
 21
573.5652305851
 31
0.0
  0
LINE
  5
DB
330
1F
100
AcDbEntity
  8
0
  6
Continuous
 62
     7
370
    25
100
AcDbLine
 10
536.1172950311
 20
548.3422454458
 30
0.0
 11
510.5112085326
 21
543.8244494065
 31
0.0
  0
SPLINE
  5
DC
330
1F
100
AcDbEntity
  8
0
  6
Continuous
 62
     7
370
    25
100
AcDbSpline
210
0.0
220
0.0
230
1.0
 70
     8
 71
     3
 72
    14
 73
    10
 74
     0
 42
0.00000001
 43
0.00000001
 40
-0.370150085187494
 40
-0.370150085187494
 40
-0.370150085187494
 40
-0.370150085187494
 40
-0.346597766129044
 40
-0.346597766129044
 40
-0.346597766129044
 40
-0.15858372195498
 40
-0.15858372195498
 40
-0.15858372195498
 40
-0.1008488196823627
 40
-0.1008488196823627
 40
-0.1008488196823627
 40
-0.1008488196823627
 10
510.5112085326422
 20
543.8244494064618
 30
0.0
 10
511.1132255203381
 20
537.7841628055756
 30
0.0
 10
511.7616401617511
 20
531.7341405686623
 30
0.0
 10
512.458684952698
 20
525.6756279481959
 30
0.0
 10
518.023071618444
 20
477.3115812219741
 30
0.0
 10
526.714912696406
 20
428.4119647685195
 30
0.0
 10
539.7593052934106
 20
379.1270896804028
 30
0.0
 10
543.7649461225411
 20
363.9928083067417
 30
0.0
 10
548.1846174273461
 20
348.8201819083839
 30
0.0
 10
553.0410097437293
 20
333.6010466239389
 30
0.0
  0
LINE
  5
DD
330
1F
100
AcDbEntity
  8
0
  6
Continuous
 62
     7
370
    25
100
AcDbLine
 10
609.5969629383
 20
276.817081059
 30
0.0
 11
553.0410097437
 21
333.6010466239
 31
0.0
  0
LINE
  5
DE
330
1F
100
AcDbEntity
  8
0
  6
Continuous
 62
     7
370
    25
100
AcDbLine
 10
609.5586390458
 20
257.7671196081
 30
0.0
 11
609.5969629383
 21
276.817081059
 31
0.0
  0
LINE
  5
DF
330
1F
100
AcDbEntity
  8
0
  6
Continuous
 62
     7
370
    25
100
AcDbLine
 10
539.685239668
 20
257.7671196081
 30
0.0
 11
609.5586390458
 21
257.7671196081
 31
0.0
  0
SPLINE
  5
E0
330
1F
100
AcDbEntity
  8
0
  6
Continuous
 62
     7
370
    25
100
AcDbSpline
210
0.0
220
0.0
230
1.0
 70
     8
 71
     3
 72
    24
 73
    20
 74
     0
 42
0.00000001
 43
0.00000001
 40
0.0
 40
0.0
 40
0.0
 40
0.0
 40
0.0625
 40
0.0625
 40
0.125
 40
0.125
 40
0.25
 40
0.25
 40
0.375
 40
0.375
 40
0.5000000000000001
 40
0.5000000000000001
 40
0.6250000000000001
 40
0.6250000000000001
 40
0.75
 40
0.75
 40
0.875
 40
0.875
 40
1.0
 40
1.0
 40
1.0
 40
1.0
 10
539.6852396679741
 20
257.7671196081429
 30
0.0
 10
534.1306265868751
 20
271.8036219900936
 30
0.0
 10
528.945946194059
 20
285.8077276612293
 30
0.0
 10
519.2988025274991
 20
313.7490305930882
 30
0.0
 10
514.8362061180123
 20
327.6862331539842
 30
0.0
 10
502.4835981586622
 20
369.3907522429752
 30
0.0
 10
495.6314762921758
 20
397.052344181808
 30
0.0
 10
484.3305491782136
 20
452.02569861112
 30
0.0
 10
479.87932512421
 20
479.3375138022126
 30
0.0
 10
472.955785794735
 20
533.5001100097993
 30
0.0
 10
470.4815500758172
 20
560.3509101690483
 30
0.0
 10
467.0931532171711
 20
613.4350118805437
 30
0.0
 10
466.1781830515877
 20
639.6680510366123
 30
0.0
 10
465.5404451806461
 20
691.317243693845
 30
0.0
 10
465.8171239465448
 20
716.7330630328888
 30
0.0
 10
467.2626849210861
 20
766.5152741803568
 30
0.0
 10
468.4315137183235
 20
790.8806698287256
 30
0.0
 10
471.4400778709381
 20
838.3134755970999
 30
0.0
 10
473.2798574766493
 20
861.3797444961301
 30
0.0
 10
475.3831190677196
 20
883.6816643744672
 30
0.0
  0
LINE
  5
E1
330
1F
100
AcDbEntity
  8
0
  6
Continuous
 62
     7
370
    25
100
AcDbLine
 10
475.3831190677
 20
883.6816643745
 30
0.0
 11
689.7049451992
 21
883.6816643745
 31
0.0
  0
LINE
  5
E2
330
1F
100
AcDbEntity
  8
0
  6
Continuous
 62
     7
370
    25
100
AcDbLine
 10
689.7049451992
 20
883.6816643745
 30
0.0
 11
689.7049451992
 21
633.4939249211
 31
0.0
  0
LINE
  5
E3
330
1F
100
AcDbEntity
  8
0
  6
Continuous
 62
     7
370
    25
100
AcDbLine
 10
689.7049451992
 20
633.4939249211
 30
0.0
 11
664.6912881593
 21
629.0806538563
 31
0.0
  0
LINE
  5
E4
330
1F
100
AcDbEntity
  8
0
  6
Continuous
 62
     7
370
    25
100
AcDbLine
 10
648.2457764801
 20
722.2909695027
 30
0.0
 11
664.6912881593
 21
629.0806538563
 31
0.0
  0
ARC
  5
E5
330
1F
100
AcDbEntity
  8
0
  6
Continuous
 62
     7
370
    25
100
AcDbCircle
 10
629.4855337002
 20
718.981016204
 30
0.0
 40
19.0500000000001
100
AcDbArc
 50
10.0059722934
 51
145.0059722934
  0
CIRCLE
  5
E6
330
1F
100
AcDbEntity
  8
0
  6
Continuous
 62
     7
370
    25
100
AcDbCircle
 10
569.8710610771
 20
794.7816030618
 30
0.0
 40
44.45000000000027
  0
CIRCLE
  5
E7
330
1F
100
AcDbEntity
  8
0
  6
Continuous
 62
     7
370
    25
100
AcDbCircle
 10
683.3549451992
 20
651.3437657838
 30
0.0
 40
2.285999999999717
  0
CIRCLE
  5
E8
330
1F
100
AcDbEntity
  8
0
  6
Continuous
 62
     7
370
    25
100
AcDbCircle
 10
671.4556535611
 20
636.7221984649
 30
0.0
 40
2.285999999999717
  0
CIRCLE
  5
E9
330
1F
100
AcDbEntity
  8
0
  6
Continuous
 62
     7
370
    25
100
AcDbCircle
 10
503.5423086293
 20
551.8230836918
 30
0.0
 40
2.286000000000286
  0
CIRCLE
  5
EA
330
1F
100
AcDbEntity
  8
0
  6
Continuous
 62
     7
370
    25
100
AcDbCircle
 10
520.7064454308
 20
562.6051314727
 30
0.0
 40
2.286000000000286
  0
CIRCLE
  5
EB
330
1F
100
AcDbEntity
  8
0
  6
Continuous
 62
     7
370
    25
100
AcDbCircle
 10
483.7247305236
 20
556.0802828315
 30
0.0
 40
2.286000000000172
  0
CIRCLE
  5
EC
330
1F
100
AcDbEntity
  8
0
  6
Continuous
 62
     7
370
    25
100
AcDbCircle
 10
490.5236327769
 20
858.2815576519
 30
0.0
 40
0.991869999999949
  0
CIRCLE
  5
ED
330
1F
100
AcDbEntity
  8
0
  6
Continuous
 62
     7
370
    25
100
AcDbCircle
 10
490.5236327769
 20
842.4065576519
 30
0.0
 40
0.9918700000000626
  0
CIRCLE
  5
EE
330
1F
100
AcDbEntity
  8
0
  6
Continuous
 62
     7
370
    25
100
AcDbCircle
 10
680.1799451992
 20
842.4065576524
 30
0.0
 40
0.9918700000000626
  0
CIRCLE
  5
EF
330
1F
100
AcDbEntity
  8
0
  6
Continuous
 62
     7
370
    25
100
AcDbCircle
 10
680.1799451992
 20
858.2815576519
 30
0.0
 40
0.991869999999949
  0
CIRCLE
  5
F0
330
1F
100
AcDbEntity
  8
0
  6
Continuous
 62
     7
370
    25
100
AcDbCircle
 10
539.8481383586
 20
343.9980739123
 30
0.0
 40
2.976626000000181
  0
CIRCLE
  5
F1
330
1F
100
AcDbEntity
  8
0
  6
Continuous
 62
     7
370
    25
100
AcDbCircle
 10
654.7799451992
 20
858.2816643745
 30
0.0
 40
0.991869999999949
  0
CIRCLE
  5
F2
330
1F
100
AcDbEntity
  8
0
  6
Continuous
 62
     7
370
    25
100
AcDbCircle
 10
515.9236327769
 20
858.2816643745
 30
0.0
 40
0.9918700000000626
  0
CIRCLE
  5
F3
330
1F
100
AcDbEntity
  8
0
  6
Continuous
 62
     7
370
    25
100
AcDbCircle
 10
654.7799451992
 20
842.4066643745
 30
0.0
 40
0.9918700000000626
  0
CIRCLE
  5
F4
330
1F
100
AcDbEntity
  8
0
  6
Continuous
 62
     7
370
    25
100
AcDbCircle
 10
515.9236327769
 20
842.4066643745
 30
0.0
 40
0.991869999999949
  0
CIRCLE
  5
F5
330
1F
100
AcDbEntity
  8
0
  6
Continuous
 62
     7
370
    25
100
AcDbCircle
 10
581.9183640294
 20
635.2243694031
 30
0.0
 40
2.285999999999831
  0
CIRCLE
  5
F6
330
1F
100
AcDbEntity
  8
0
  6
Continuous
 62
     7
370
    25
100
AcDbCircle
 10
620.0183640294
 20
635.2243693832
 30
0.0
 40
2.285999999999945
  0
LINE
  5
F7
330
1F
100
AcDbEntity
  8
0
  6
Continuous
 62
     7
370
    25
100
AcDbLine
 10
626.7263208631
 20
259.197600586
 30
0.0
 11
557.134984211
 21
159.7888194663
 31
0.0
  0
ARC
  5
F8
330
1F
100
AcDbEntity
  8
0
  6
Continuous
 62
     7
370
    25
100
AcDbCircle
 10
564.302379626
 20
302.89761844
 30
0.0
 40
76.20000000000017
100
AcDbArc
 50
325.0059722934
 51
10.0
  0
LINE
  5
F9
330
1F
100
AcDbEntity
  8
0
  6
Continuous
 62
     7
370
    25
100
AcDbLine
 10
639.3447304056
 20
316.1296095782
 30
0.0
 11
635.9175957639
 21
335.5658559651
 31
0.0
  0
LINE
  5
FA
330
1F
100
AcDbEntity
  8
0
  6
Continuous
 62
     7
370
    25
100
AcDbLine
 10
635.9175957639
 20
335.5658559651
 30
0.0
 11
667.6937196224
 21
341.1722592131
 31
0.0
  0
SPLINE
  5
FB
330
1F
100
AcDbEntity
  8
0
  6
Continuous
 62
     7
370
    25
100
AcDbSpline
210
0.0
220
0.0
230
1.0
 70
     8
 71
     3
 72
    11
 73
     7
 74
     0
 42
0.00000001
 43
0.00000001
 40
34.9627256196867
 40
34.9627256196867
 40
34.9627256196867
 40
34.9627256196867
 40
43.828946319477
 40
43.828946319477
 40
43.828946319477
 40
53.91670066257139
 40
53.91670066257139
 40
53.91670066257139
 40
53.91670066257139
 10
667.6937196224184
 20
341.1722592130859
 30
0.0
 10
664.4833630495199
 20
376.9693038386146
 30
0.0
 10
659.9101348600229
 20
410.9488848530525
 30
0.0
 10
653.9966569148968
 20
443.5448633727259
 30
0.0
 10
647.2684561579338
 20
480.6317163863265
 30
0.0
 10
638.8134368052583
 20
515.9357928961748
 30
0.0
 10
628.6112406411497
 20
550.1343831435022
 30
0.0
  0
LINE
  5
FC
330
1F
100
AcDbEntity
  8
0
  6
Continuous
 62
     7
370
    25
100
AcDbLine
 10
628.6112406412
 20
550.1343831435
 30
0.0
 11
565.9986207357
 21
612.999433626
 31
0.0
  0
LINE
  5
FD
330
1F
100
AcDbEntity
  8
0
  6
Continuous
 62
     7
370
    25
100
AcDbLine
 10
565.9986207357
 20
612.999433626
 30
0.0
 11
566.0624938899
 21
644.7493693774
 31
0.0
  0
LINE
  5
FE
330
1F
100
AcDbEntity
  8
0
  6
Continuous
 62
     7
370
    25
100
AcDbLine
 10
566.0624938899
 20
644.7493693774
 30
0.0
 11
636.0700180732
 21
644.7493710322
 31
0.0
  0
SPLINE
  5
FF
330
1F
100
AcDbEntity
  8
0
  6
Continuous
 62
     7
370
    25
100
AcDbSpline
210
0.0
220
0.0
230
1.0
 70
     8
 71
     3
 72
    10
 73
     6
 74
     0
 42
0.00000001
 43
0.00000001
 40
-62.01580073014338
 40
-62.01580073014338
 40
-62.01580073014338
 40
-62.01580073014338
 40
-27.9784246097358
 40
-27.9784246097358
 40
-9.15406864749295
 40
-9.15406864749295
 40
-9.15406864749295
 40
-9.15406864749295
 10
636.0700180731714
 20
644.749371032193
 30
0.0
 10
681.6477309490372
 20
529.6952233634893
 30
0.0
 10
706.693747466689
 20
407.0613524427258
 30
0.0
 10
713.099685304664
 20
169.3596965766679
 30
0.0
 10
708.6793426815849
 20
82.13520631753912
 30
0.0
 10
701.4408226941657
 20
6.013176291571387
 30
0.0
  0
LINE
  5
100
330
1F
100
AcDbEntity
  8
0
  6
Continuous
 62
     7
370
    25
100
AcDbLine
 10
701.4408226942
 20
6.0131762916
 30
0.0
 11
481.3095874028
 21
6.0131762916
 31
0.0
  0
LINE
  5
101
330
1F
100
AcDbEntity
  8
0
  6
Continuous
 62
     7
370
    25
100
AcDbLine
 10
481.3095874028
 20
6.0131762916
 30
0.0
 11
481.3095874028
 21
256.2009153589
 31
0.0
  0
LINE
  5
102
330
1F
100
AcDbEntity
  8
0
  6
Continuous
 62
     7
370
    25
100
AcDbLine
 10
481.3095874028
 20
256.2009153589
 30
0.0
 11
506.3232444427
 21
260.6141862775
 31
0.0
  0
LINE
  5
103
330
1F
100
AcDbEntity
  8
0
  6
Continuous
 62
     7
370
    25
100
AcDbLine
 10
522.7687561219
 20
167.4038706311
 30
0.0
 11
506.3232444427
 21
260.6141862775
 31
0.0
  0
ARC
  5
104
330
1F
100
AcDbEntity
  8
0
  6
Continuous
 62
     7
370
    25
100
AcDbCircle
 10
541.5289989018
 20
170.7138239298
 30
0.0
 40
19.05000000000018
100
AcDbArc
 50
190.0059722934
 51
325.0059722934
  0
CIRCLE
  5
105
330
1F
100
AcDbEntity
  8
0
  6
Continuous
 62
     7
370
    25
100
AcDbCircle
 10
601.1434715249
 20
94.913237072
 30
0.0
 40
44.45000000000016
  0
CIRCLE
  5
106
330
1F
100
AcDbEntity
  8
0
  6
Continuous
 62
     7
370
    25
100
AcDbCircle
 10
496.0837806915
 20
252.3595147177
 30
0.0
 40
2.286000000000001
  0
CIRCLE
  5
107
330
1F
100
AcDbEntity
  8
0
  6
Continuous
 62
     7
370
    25
100
AcDbCircle
 10
487.6595874028
 20
238.3510744963
 30
0.0
 40
2.286000000000001
  0
CIRCLE
  5
108
330
1F
100
AcDbEntity
  8
0
  6
Continuous
 62
     7
370
    25
100
AcDbCircle
 10
651.3284454396
 20
321.3029695104
 30
0.0
 40
2.285999999999945
  0
CIRCLE
  5
109
330
1F
100
AcDbEntity
  8
0
  6
Continuous
 62
     7
370
    25
100
AcDbCircle
 10
694.2626718841
 20
328.8780451672
 30
0.0
 40
2.285999999999945
  0
CIRCLE
  5
10A
330
1F
100
AcDbEntity
  8
0
  6
Continuous
 62
     7
370
    25
100
AcDbCircle
 10
671.4688380234
 20
332.610131815
 30
0.0
 40
2.285999999999945
  0
CIRCLE
  5
10B
330
1F
100
AcDbEntity
  8
0
  6
Continuous
 62
     7
370
    25
100
AcDbCircle
 10
655.0908998251
 20
31.4131759056
 30
0.0
 40
0.9918700000000626
  0
CIRCLE
  5
10C
330
1F
100
AcDbEntity
  8
0
  6
Continuous
 62
     7
370
    25
100
AcDbCircle
 10
655.0908998251
 20
47.2881759056
 30
0.0
 40
0.9918700000000626
  0
CIRCLE
  5
10D
330
1F
100
AcDbEntity
  8
0
  6
Continuous
 62
     7
370
    25
100
AcDbCircle
 10
516.2345874028
 20
31.4131759056
 30
0.0
 40
0.9918700000000626
  0
CIRCLE
  5
10E
330
1F
100
AcDbEntity
  8
0
  6
Continuous
 62
     7
370
    25
100
AcDbCircle
 10
516.2345874028
 20
47.2881759056
 30
0.0
 40
0.9918700000000626
  0
CIRCLE
  5
10F
330
1F
100
AcDbEntity
  8
0
  6
Continuous
 62
     7
370
    25
100
AcDbCircle
 10
657.3372530171
 20
495.5506550388
 30
0.0
 40
2.976625999999897
  0
CIRCLE
  5
110
330
1F
100
AcDbEntity
  8
0
  6
Continuous
 62
     7
370
    25
100
AcDbCircle
 10
648.1200287947
 20
532.5189222099
 30
0.0
 40
2.97662600000001
  0
CIRCLE
  5
111
330
1F
100
AcDbEntity
  8
0
  6
Continuous
 62
     7
370
    25
100
AcDbCircle
 10
130.4033660305
 20
339.0029290553
 30
0.0
 40
2.413000000000181
  0
CIRCLE
  5
112
330
1F
100
AcDbEntity
  8
0
  6
Continuous
 62
     7
370
    25
100
AcDbCircle
 10
92.3032632326
 20
339.0029290553
 30
0.0
 40
2.413000000000181
  0
ARC
  5
113
330
1F
100
AcDbEntity
  8
0
  6
Continuous
 62
     7
370
    25
100
AcDbCircle
 10
115.2631507375
 20
788.6855123885
 30
0.0
 40
53.34000000000003
100
AcDbArc
 50
0.0
 51
90.0
  0
LINE
  5
114
330
1F
100
AcDbEntity
  8
0
  6
Continuous
 62
     7
370
    25
100
AcDbLine
 10
111.4531507375
 20
842.0255123885
 30
0.0
 11
115.2631507375
 21
842.0255123885
 31
0.0
  0
ARC
  5
115
330
1F
100
AcDbEntity
  8
0
  6
Continuous
 62
     7
370
    25
100
AcDbCircle
 10
111.4531507375
 20
791.2255123885
 30
0.0
 40
50.79999999999995
100
AcDbArc
 50
90.0
 51
179.9999999348
  0
LINE
  5
116
330
1F
100
AcDbEntity
  8
0
  6
Continuous
 62
     7
370
    25
100
AcDbLine
 10
60.6531507375
 20
669.9256471186
 30
0.0
 11
60.6531507375
 21
791.2255123885
 31
0.0
  0
ARC
  5
117
330
1F
100
AcDbEntity
  8
0
  6
Continuous
 62
     7
370
    25
100
AcDbCircle
 10
73.3531507375
 20
669.9256471186
 30
0.0
 40
12.7
100
AcDbArc
 50
179.9999980091
 51
315.0
  0
LINE
  5
118
330
1F
100
AcDbEntity
  8
0
  6
Continuous
 62
     7
370
    25
100
AcDbLine
 10
152.980226446
 20
731.5922105849
 30
0.0
 11
82.3334068586
 21
660.9453909975
 31
0.0
  0
ARC
  5
119
330
1F
100
AcDbEntity
  8
0
  6
Continuous
 62
     7
370
    25
100
AcDbCircle
 10
115.2631507375
 20
769.3092862934
 30
0.0
 40
53.34
100
AcDbArc
 50
315.0
 51
0.0
  0
LINE
  5
11A
330
1F
100
AcDbEntity
  8
0
  6
Continuous
 62
     7
370
    25
100
AcDbLine
 10
168.6031507375
 20
788.6855123885
 30
0.0
 11
168.6031507375
 21
769.3092862934
 31
0.0
  0
CIRCLE
  5
11B
330
1F
100
AcDbEntity
  8
0
  6
Continuous
 62
     7
370
    25
100
AcDbCircle
 10
203.5281507375
 20
876.9504276514
 30
0.0
 40
0.9918700000000626
  0
CIRCLE
  5
11C
330
1F
100
AcDbEntity
  8
0
  6
Continuous
 62
     7
370
    25
100
AcDbCircle
 10
203.5281507375
 20
892.8254655146
 30
0.0
 40
0.991869999999949
  0
CIRCLE
  5
11D
330
1F
100
AcDbEntity
  8
0
  6
Continuous
 62
     7
370
    25
100
AcDbCircle
 10
25.104504551
 20
876.9504276514
 30
0.0
 40
0.9918700000000626
  0
CIRCLE
  5
11E
330
1F
100
AcDbEntity
  8
0
  6
Continuous
 62
     7
370
    25
100
AcDbCircle
 10
25.104504551
 20
892.8254276514
 30
0.0
 40
0.991869999999949
  0
CIRCLE
  5
11F
330
1F
100
AcDbEntity
  8
0
  6
Continuous
 62
     7
370
    25
100
AcDbCircle
 10
30.3934380509
 20
539.6035532933
 30
0.0
 40
2.457450000000108
  0
CIRCLE
  5
120
330
1F
100
AcDbEntity
  8
0
  6
Continuous
 62
     7
370
    25
100
AcDbCircle
 10
37.0758291818
 20
524.3548299562
 30
0.0
 40
2.457449999999994
  0
CIRCLE
  5
121
330
1F
100
AcDbEntity
  8
0
  6
Continuous
 62
     7
370
    25
100
AcDbCircle
 10
46.416185753
 20
503.0408256675
 30
0.0
 40
2.457450000000051
  0
CIRCLE
  5
122
330
1F
100
AcDbEntity
  8
0
  6
Continuous
 62
     7
370
    25
100
AcDbCircle
 10
185.9618181605
 20
630.9230873352
 30
0.0
 40
2.457450000000108
  0
CIRCLE
  5
123
330
1F
100
AcDbEntity
  8
0
  6
Continuous
 62
     7
370
    25
100
AcDbCircle
 10
201.623150738
 20
643.623085884
 30
0.0
 40
2.457450000000108
  0
CIRCLE
  5
124
330
1F
100
AcDbEntity
  8
0
  6
Continuous
 62
     7
370
    25
100
AcDbCircle
 10
46.8736289512
 20
460.37698727
 30
0.0
 40
2.976626000000181
  0
CIRCLE
  5
125
330
1F
100
AcDbEntity
  8
0
  6
Continuous
 62
     7
370
    25
100
AcDbCircle
 10
59.2568591551
 20
474.9054703866
 30
0.0
 40
2.976626000000181
  0
CIRCLE
  5
126
330
1F
100
AcDbEntity
  8
0
  6
Continuous
 62
     7
370
    25
100
AcDbCircle
 10
41.9182899699
 20
482.8926620435
 30
0.0
 40
2.976626000000181
  0
LINE
  5
127
330
1F
100
AcDbEntity
  8
0
  6
Continuous
 62
     7
370
    25
100
AcDbLine
 10
52.9949680476
 20
500.9529803662
 30
0.0
 11
48.9177748807
 21
520.7486634779
 31
0.0
  0
ARC
  5
128
330
1F
100
AcDbEntity
  8
0
  6
Continuous
 62
     7
370
    25
100
AcDbCircle
 10
62.3241463695
 20
502.8744529363
 30
0.0
 40
9.5250000000001
100
AcDbArc
 50
191.6381080999
 51
270.1099573606
  0
ARC
  5
129
330
1F
100
AcDbEntity
  8
0
  6
Continuous
 62
     7
370
    25
100
AcDbCircle
 10
62.3546123487
 20
486.9994821703
 30
0.0
 40
6.350000000000826
100
AcDbArc
 50
12.0007307621
 51
90.1099573606
  0
SPLINE
  5
12A
330
1F
100
AcDbEntity
  8
0
  6
Continuous
 62
     7
370
    25
100
AcDbSpline
210
0.0
220
0.0
230
1.0
 70
     8
 71
     3
 72
    10
 73
     6
 74
     0
 42
0.00000001
 43
0.00000001
 40
0.0
 40
0.0
 40
0.0
 40
0.0
 40
0.5
 40
0.5
 40
1.0
 40
1.0
 40
1.0
 40
1.0
 10
83.85738737596515
 20
426.8556561149371
 30
0.0
 10
80.95078202343623
 20
437.0090060749748
 30
0.0
 10
78.22552163844213
 20
447.2085206105246
 30
0.0
 10
73.13112140202593
 20
467.6982064750653
 30
0.0
 10
70.76135744962602
 20
477.991316883119
 30
0.0
 10
68.56583277428761
 20
488.3198006262302
 30
0.0
  0
ARC
  5
12B
330
1F
100
AcDbEntity
  8
0
  6
Continuous
 62
     7
370
    25
100
AcDbCircle
 10
132.6956209257
 20
440.8366054298
 30
0.0
 40
50.79999999999966
100
AcDbArc
 50
195.9748592046
 51
225.0
  0
LINE
  5
12C
330
1F
100
AcDbEntity
  8
0
  6
Continuous
 62
     7
370
    25
100
AcDbLine
 10
134.680192037
 20
367.0099853499
 30
0.0
 11
96.7745964414
 21
404.9155809455
 31
0.0
  0
ARC
  5
12D
330
1F
100
AcDbEntity
  8
0
  6
Continuous
 62
     7
370
    25
100
AcDbCircle
 10
116.7196797949
 20
349.0494731078
 30
0.0
 40
25.39999999999965
100
AcDbArc
 50
14.8847349694
 51
45.0
  0
LINE
  5
12E
330
1F
100
AcDbEntity
  8
0
  6
Continuous
 62
     7
370
    25
100
AcDbLine
 10
143.1237438973
 20
348.5898575474
 30
0.0
 11
141.2673714065
 21
355.5741061657
 31
0.0
  0
LINE
  5
12F
330
1F
100
AcDbEntity
  8
0
  6
Continuous
 62
     7
370
    25
100
AcDbLine
 10
143.1237438882
 20
348.5898575451
 30
0.0
 11
143.0852953321
 21
329.4779290535
 31
0.0
  0
LINE
  5
130
330
1F
100
AcDbEntity
  8
0
  6
Continuous
 62
     7
370
    25
100
AcDbLine
 10
143.0852953321
 20
329.4779290535
 30
0.0
 11
76.7748504031
 21
329.4779291205
 31
0.0
  0
LINE
  5
131
330
1F
100
AcDbEntity
  8
0
  6
Continuous
 62
     7
370
    25
100
AcDbLine
 10
219.4031507375
 20
918.2255123885
 30
0.0
 11
15.5785656814
 21
918.2255119839
 31
0.0
  0
LINE
  5
132
330
1F
100
AcDbEntity
  8
0
  6
Continuous
 62
     7
370
    25
100
AcDbLine
 10
219.4031507375
 20
842.0255123885
 30
0.0
 11
219.4031507375
 21
918.2255123885
 31
0.0
  0
LINE
  5
133
330
1F
100
AcDbEntity
  8
0
  6
Continuous
 62
     7
370
    25
100
AcDbLine
 10
219.4031507375
 20
690.0055103596
 30
0.0
 11
219.4031507375
 21
842.0255123885
 31
0.0
  0
LINE
  5
134
330
1F
100
AcDbEntity
  8
0
  6
Continuous
 62
     7
370
    25
100
AcDbLine
 10
213.0531507375
 20
690.0055109599
 30
0.0
 11
219.4031507375
 21
690.0055103596
 31
0.0
  0
LINE
  5
135
330
1F
100
AcDbEntity
  8
0
  6
Continuous
 62
     7
370
    25
100
AcDbLine
 10
213.0531507375
 20
624.5730859079
 30
0.0
 11
213.0531507375
 21
690.0055109599
 31
0.0
  0
LINE
  5
136
330
1F
100
AcDbEntity
  8
0
  6
Continuous
 62
     7
370
    25
100
AcDbLine
 10
168.6031507375
 20
624.5730858718
 30
0.0
 11
213.0531507375
 21
624.5730859079
 31
0.0
  0
LINE
  5
137
330
1F
100
AcDbEntity
  8
0
  6
Continuous
 62
     7
370
    25
100
AcDbLine
 10
168.6031507375
 20
644.7125736657
 30
0.0
 11
168.6031507375
 21
624.5730858718
 31
0.0
  0
ARC
  5
138
330
1F
100
AcDbEntity
  8
0
  6
Continuous
 62
     7
370
    25
100
AcDbCircle
 10
155.9031507375
 20
644.7125736657
 30
0.0
 40
12.69999999999999
100
AcDbArc
 50
0.0
 51
135.0
  0
LINE
  5
139
330
1F
100
AcDbEntity
  8
0
  6
Continuous
 62
     7
370
    25
100
AcDbLine
 10
76.2760750291
 20
583.0460101994
 30
0.0
 11
146.9228946165
 21
653.6928297868
 31
0.0
  0
ARC
  5
13A
330
1F
100
AcDbEntity
  8
0
  6
Continuous
 62
     7
370
    25
100
AcDbCircle
 10
113.9931507375
 20
545.3289344909
 30
0.0
 40
53.34000000000001
100
AcDbArc
 50
135.0
 51
179.9999992727
  0
LINE
  5
13B
330
1F
100
AcDbEntity
  8
0
  6
Continuous
 62
     7
370
    25
100
AcDbLine
 10
60.6531507375
 20
540.9660411745
 30
0.0
 11
60.6531507375
 21
545.3289344909
 31
0.0
  0
ARC
  5
13C
330
1F
100
AcDbEntity
  8
0
  6
Continuous
 62
     7
370
    25
100
AcDbCircle
 10
187.6531507376
 20
540.9660411745
 30
0.0
 40
127.0000000000092
100
AcDbArc
 50
180.0
 51
181.2506256604
  0
ARC
  5
13D
330
1F
100
AcDbEntity
  8
0
  6
Continuous
 62
     7
370
    25
100
AcDbCircle
 10
54.3349162003
 20
538.0555704421
 30
0.0
 40
6.350000000000056
100
AcDbArc
 50
284.2662118788
 51
1.2506256604
  0
ARC
  5
13E
330
1F
100
AcDbEntity
  8
0
  6
Continuous
 62
     7
370
    25
100
AcDbCircle
 10
58.2469532026
 20
522.670136048
 30
0.0
 40
9.525000000000146
100
AcDbArc
 50
104.2662118788
 51
191.6381080999
  0
SPLINE
  5
13F
330
1F
100
AcDbEntity
  8
0
  6
Continuous
 62
     7
370
    25
100
AcDbSpline
210
0.0
220
0.0
230
1.0
 70
     8
 71
     3
 72
    30
 73
    26
 74
     0
 42
0.00000001
 43
0.00000001
 40
0.0
 40
0.0
 40
0.0
 40
0.0
 40
0.1249999999999981
 40
0.1249999999999981
 40
0.2499999999999961
 40
0.2499999999999961
 40
0.3124999999999941
 40
0.3124999999999941
 40
0.374999999999992
 40
0.374999999999992
 40
0.4374999999999899
 40
0.4374999999999899
 40
0.46874999999999
 40
0.46874999999999
 40
0.49999999999999
 40
0.49999999999999
 40
0.6249999999999925
 40
0.6249999999999925
 40
0.749999999999995
 40
0.749999999999995
 40
0.8749999999999974
 40
0.8749999999999974
 40
0.9374999999999988
 40
0.9374999999999988
 40
1.0
 40
1.0
 40
1.0
 40
1.0
 10
15.58044342061248
 20
918.2253392402736
 30
0.0
 10
13.29173800672255
 20
893.3469014406973
 30
0.0
 10
11.43904898012953
 20
868.4612482021093
 30
0.0
 10
8.619740044496824
 20
818.6752785657817
 30
0.0
 10
7.653563504676261
 20
793.7749548309257
 30
0.0
 10
6.957968483461182
 20
756.4119970864155
 30
0.0
 10
6.852470723248502
 20
743.9555866435329
 30
0.0
 10
6.91949385234146
 20
719.0381649522325
 30
0.0
 10
7.091931739663701
 20
706.577155077376
 30
0.0
 10
7.749181847908279
 20
681.6499659853611
 30
0.0
 10
8.231979054684466
 20
669.1838201137682
 30
0.0
 10
9.211242975837461
 20
650.4803802989744
 30
0.0
 10
9.580225547201934
 20
644.2451960334967
 30
0.0
 10
10.40760205771994
 20
631.7733478740458
 30
0.0
 10
10.86630091493017
 20
625.533276021926
 30
0.0
 10
13.38905548796125
 20
594.3914472841601
 30
0.0
 10
16.14238391695764
 20
569.641028162242
 30
0.0
 10
23.33116623222013
 20
520.5132697716363
 30
0.0
 10
27.76798575847815
 20
496.1362333892584
 30
0.0
 10
38.49829611899745
 20
447.7939531314709
 30
0.0
 10
44.79328737320547
 20
423.8290420353138
 30
0.0
 10
55.69636505634583
 20
388.2056209087129
 30
0.0
 10
59.57334778781208
 20
376.3849588467581
 30
0.0
 10
67.8124059813535
 20
352.8512237994906
 30
0.0
 10
72.17449549192926
 20
341.1381539300059
 30
0.0
 10
76.77485040309676
 20
329.4779291204971
 30
0.0
  0
CIRCLE
  5
140
330
1F
100
AcDbEntity
  8
0
  6
Continuous
 62
     7
370
    25
100
AcDbCircle
 10
385.5758344884
 20
601.8702221425
 30
0.0
 40
2.285999999999831
  0
CIRCLE
  5
141
330
1F
100
AcDbEntity
  8
0
  6
Continuous
 62
     7
370
    25
100
AcDbCircle
 10
347.4758344884
 20
601.8702221624
 30
0.0
 40
2.285999999999831
  0
CIRCLE
  5
142
330
1F
100
AcDbEntity
  8
0
  6
Continuous
 62
     7
370
    25
100
AcDbCircle
 10
432.6500621567
 20
342.2792493761
 30
0.0
 40
2.285999999999774
  0
CIRCLE
  5
143
330
1F
100
AcDbEntity
  8
0
  6
Continuous
 62
     7
370
    25
100
AcDbCircle
 10
453.7682451982
 20
360.1167130785
 30
0.0
 40
2.285999999999831
  0
CIRCLE
  5
144
330
1F
100
AcDbEntity
  8
0
  6
Continuous
 62
     7
370
    25
100
AcDbCircle
 10
270.414557495
 20
52.9632349284
 30
0.0
 40
5.07999999999997
  0
CIRCLE
  5
145
330
1F
100
AcDbEntity
  8
0
  6
Continuous
 62
     7
370
    25
100
AcDbCircle
 10
270.414557495
 20
37.0882349284
 30
0.0
 40
5.079999999999977
  0
CIRCLE
  5
146
330
1F
100
AcDbEntity
  8
0
  6
Continuous
 62
     7
370
    25
100
AcDbCircle
 10
448.8382036816
 20
52.9632349136
 30
0.0
 40
5.079999999999977
  0
CIRCLE
  5
147
330
1F
100
AcDbEntity
  8
0
  6
Continuous
 62
     7
370
    25
100
AcDbCircle
 10
448.8382036816
 20
37.0882349136
 30
0.0
 40
5.07999999999997
  0
CIRCLE
  5
148
330
1F
100
AcDbEntity
  8
0
  6
Continuous
 62
     7
370
    25
100
AcDbCircle
 10
423.4382036816
 20
37.0882418805
 30
0.0
 40
0.9918700000000058
  0
CIRCLE
  5
149
330
1F
100
AcDbEntity
  8
0
  6
Continuous
 62
     7
370
    25
100
AcDbCircle
 10
423.4382036816
 20
52.9632418805
 30
0.0
 40
0.9918700000000058
  0
ARC
  5
14A
330
1F
100
AcDbEntity
  8
0
  6
Continuous
 62
     7
370
    25
100
AcDbCircle
 10
367.5967885006
 20
327.0367331635
 30
0.0
 40
50.80000000000003
100
AcDbArc
 50
353.9872546569
 51
10.0059722998
  0
LINE
  5
14B
330
1F
100
AcDbEntity
  8
0
  6
Continuous
 62
     7
370
    25
100
AcDbLine
 10
417.6241025793
 20
335.8632752989
 30
0.0
 11
413.531952814
 21
359.0568723412
 31
0.0
  0
LINE
  5
14C
330
1F
100
AcDbEntity
  8
0
  6
Continuous
 62
     7
370
    25
100
AcDbLine
 10
424.9866780482
 20
361.0778806002
 30
0.0
 11
413.531952814
 21
359.0568723412
 31
0.0
  0
SPLINE
  5
14D
330
1F
100
AcDbEntity
  8
0
  6
Continuous
 62
     7
370
    25
100
AcDbSpline
210
0.0
220
0.0
230
1.0
 70
     8
 71
     3
 72
    11
 73
     7
 74
     0
 42
0.00000001
 43
0.00000001
 40
36.26957855478793
 40
36.26957855478793
 40
36.26957855478793
 40
36.26957855478793
 40
44.57881533199424
 40
44.57881533199424
 40
44.57881533199424
 40
49.88377165849111
 40
49.88377165849111
 40
49.88377165849111
 40
49.88377165849111
 10
395.6111122778146
 20
509.2106796965068
 30
0.0
 10
403.618709891379
 20
480.8508866609683
 30
0.0
 10
410.3811451438928
 20
451.6378537777473
 30
0.0
 10
415.9121034421686
 20
421.1481159220816
 30
0.0
 10
419.4432932496986
 20
401.682221271644
 30
0.0
 10
422.4700128222515
 20
381.6933701609282
 30
0.0
 10
424.9866780481538
 20
361.0778806002089
 30
0.0
  0
ARC
  5
14E
330
1F
100
AcDbEntity
  8
0
  6
Continuous
 62
     7
370
    25
100
AcDbCircle
 10
389.5000458453
 20
507.4851748262
 30
0.0
 40
6.34999999999728
100
AcDbArc
 50
15.7674195051
 51
44.8847349721
  0
LINE
  5
14F
330
1F
100
AcDbEntity
  8
0
  6
Continuous
 62
     7
370
    25
100
AcDbLine
 10
331.5460844634
 20
574.6711616637
 30
0.0
 11
393.9991978478
 21
511.9662607725
 31
0.0
  0
LINE
  5
150
330
1F
100
AcDbEntity
  8
0
  6
Continuous
 62
     7
370
    25
100
AcDbLine
 10
331.6199643491
 20
611.3952221733
 30
0.0
 11
331.5460844647
 21
574.6711616637
 31
0.0
  0
LINE
  5
151
330
1F
100
AcDbEntity
  8
0
  6
Continuous
 62
     7
370
    25
100
AcDbLine
 10
331.6199643491
 20
611.3952221365
 30
0.0
 11
401.2199516299
 21
611.3952221343
 31
0.0
  0
SPLINE
  5
152
330
1F
100
AcDbEntity
  8
0
  6
Continuous
 62
     7
370
    25
100
AcDbSpline
210
0.0
220
0.0
230
1.0
 70
     8
 71
     3
 72
    10
 73
     6
 74
     0
 42
0.00000001
 43
0.00000001
 40
-58.73036271006588
 40
-58.73036271006588
 40
-58.73036271006588
 40
-58.73036271006588
 40
-41.30302321152773
 40
-41.30302321152773
 40
-9.112492269175554
 40
-9.112492269175554
 40
-9.112492269175554
 40
-9.112492269175554
 10
463.3311725437921
 20
11.68834045320005
 30
0.0
 10
469.9112679227693
 20
82.64761298899198
 30
0.0
 10
473.8503696396422
 20
163.3427571701758
 30
0.0
 10
467.8375158930125
 20
386.461627690933
 30
0.0
 10
444.209953798507
 20
502.5323649086799
 30
0.0
 10
401.2199516299342
 20
611.3952221343221
 30
0.0
  0
LINE
  5
153
330
1F
100
AcDbEntity
  8
0
  6
Continuous
 62
     7
370
    25
100
AcDbLine
 10
260.889557495
 20
11.6881501966
 30
0.0
 11
463.3332242576
 21
11.6881501966
 31
0.0
  0
LINE
  5
154
330
1F
100
AcDbEntity
  8
0
  6
Continuous
 62
     7
370
    25
100
AcDbLine
 10
260.889557495
 20
120.5631033244
 30
0.0
 11
260.889557495
 21
11.6881501966
 31
0.0
  0
LINE
  5
155
330
1F
100
AcDbEntity
  8
0
  6
Continuous
 62
     7
370
    25
100
AcDbLine
 10
260.889557495
 20
120.5631033244
 30
0.0
 11
260.8895574945
 21
268.3065494844
 31
0.0
  0
LINE
  5
156
330
1F
100
AcDbEntity
  8
0
  6
Continuous
 62
     7
370
    25
100
AcDbLine
 10
284.8028771614
 20
272.5256827884
 30
0.0
 11
260.8895574945
 21
268.3065494844
 31
0.0
  0
LINE
  5
157
330
1F
100
AcDbEntity
  8
0
  6
Continuous
 62
     7
370
    25
100
AcDbLine
 10
284.8028771614
 20
272.5256827884
 30
0.0
 11
302.3487262183
 21
173.0788452084
 31
0.0
  0
ARC
  5
158
330
1F
100
AcDbEntity
  8
0
  6
Continuous
 62
     7
370
    25
100
AcDbCircle
 10
321.108968994
 20
176.3887985311
 30
0.0
 40
19.05000000000011
100
AcDbArc
 50
190.0059723666
 51
325.0059722671
  0
LINE
  5
159
330
1F
100
AcDbEntity
  8
0
  6
Continuous
 62
     7
370
    25
100
AcDbLine
 10
336.7149542982
 20
165.4637940604
 30
0.0
 11
406.3424316665
 21
264.9242009243
 31
0.0
  0
ARC
  5
15A
330
1F
100
AcDbEntity
  8
0
  6
Continuous
 62
     7
370
    25
100
AcDbCircle
 10
343.9184904294
 20
308.6242187783
 30
0.0
 40
76.20000000000036
100
AcDbArc
 50
325.0059722934
 51
10.0059722991
  0
LINE
  5
15B
330
1F
100
AcDbEntity
  8
0
  6
Continuous
 62
     7
370
    25
100
AcDbLine
 10
418.9594615477
 20
321.8640319803
 30
0.0
 11
418.1173183251
 21
321.715448897
 31
0.0
  0
CIRCLE
  5
15C
330
1F
100
AcDbEntity
  8
0
  6
Continuous
 62
     7
370
    25
100
AcDbCircle
 10
279.1388491327
 20
265.0782758156
 30
0.0
 40
2.457450000000051
  0
CIRCLE
  5
15D
330
1F
100
AcDbEntity
  8
0
  6
Continuous
 62
     7
370
    25
100
AcDbCircle
 10
267.2395574946
 20
250.4567084968
 30
0.0
 40
2.45745000000008
  0
CIRCLE
  5
15E
330
1F
100
AcDbEntity
  8
0
  6
Continuous
 62
     7
370
    25
100
AcDbCircle
 10
270.414557495
 20
52.9632349291
 30
0.0
 40
0.9918700000000058
  0
CIRCLE
  5
15F
330
1F
100
AcDbEntity
  8
0
  6
Continuous
 62
     7
370
    25
100
AcDbCircle
 10
448.8382036816
 20
52.9632349142
 30
0.0
 40
0.9918700000000058
  0
CIRCLE
  5
160
330
1F
100
AcDbEntity
  8
0
  6
Continuous
 62
     7
370
    25
100
AcDbCircle
 10
448.8382036816
 20
37.0882349142
 30
0.0
 40
0.9918700000000058
  0
CIRCLE
  5
161
330
1F
100
AcDbEntity
  8
0
  6
Continuous
 62
     7
370
    25
100
AcDbCircle
 10
270.414557495
 20
37.0882349291
 30
0.0
 40
0.9918700000000058
  0
CIRCLE
  5
162
330
1F
100
AcDbEntity
  8
0
  6
Continuous
 62
     7
370
    25
100
AcDbCircle
 10
854.5302212363
 20
611.9077911196
 30
0.0
 40
2.413000000000238
  0
CIRCLE
  5
163
330
1F
100
AcDbEntity
  8
0
  6
Continuous
 62
     7
370
    25
100
AcDbCircle
 10
816.4301184385
 20
611.9077911196
 30
0.0
 40
2.413000000000238
  0
CIRCLE
  5
164
330
1F
100
AcDbEntity
  8
0
  6
Continuous
 62
     7
370
    25
100
AcDbCircle
 10
844.7119130697
 20
96.8072949813
 30
0.0
 40
44.45000000000032
  0
ARC
  5
165
330
1F
100
AcDbEntity
  8
0
  6
Continuous
 62
     7
370
    25
100
AcDbCircle
 10
785.0974404466
 20
172.6078818391
 30
0.0
 40
19.05000000000009
100
AcDbArc
 50
190.0059722934
 51
325.0059722934
  0
LINE
  5
166
330
1F
100
AcDbEntity
  8
0
  6
Continuous
 62
     7
370
    25
100
AcDbLine
 10
870.330903119
 20
261.1432842323
 30
0.0
 11
800.7034257558
 21
161.6828773756
 31
0.0
  0
ARC
  5
167
330
1F
100
AcDbEntity
  8
0
  6
Continuous
 62
     7
370
    25
100
AcDbCircle
 10
807.906961882
 20
304.8433020863
 30
0.0
 40
76.20000000000017
100
AcDbArc
 50
325.0059722934
 51
10.0059722991
  0
LINE
  5
168
330
1F
100
AcDbEntity
  8
0
  6
Continuous
 62
     7
370
    25
100
AcDbLine
 10
882.9479330003
 20
318.0831152883
 30
0.0
 11
877.520424267
 21
348.8452959844
 31
0.0
  0
LINE
  5
169
330
1F
100
AcDbEntity
  8
0
  6
Continuous
 62
     7
370
    25
100
AcDbLine
 10
897.0044143595
 20
352.282943251
 30
0.0
 11
877.520424267
 21
348.8452959843
 31
0.0
  0
SPLINE
  5
16A
330
1F
100
AcDbEntity
  8
0
  6
Continuous
 62
     7
370
    25
100
AcDbSpline
210
0.0
220
0.0
230
1.0
 70
     8
 71
     3
 72
    14
 73
    10
 74
     0
 42
0.00000001
 43
0.00000001
 40
0.0
 40
0.0
 40
0.0
 40
0.0
 40
0.25
 40
0.25
 40
0.5
 40
0.5
 40
0.75
 40
0.75
 40
1.0
 40
1.0
 40
1.0
 40
1.0
 10
856.829097793028
 20
545.8615948938616
 30
0.0
 10
861.843140890448
 20
530.0758230222951
 30
0.0
 10
866.4194810989374
 20
514.199210285914
 30
0.0
 10
874.7162491874516
 20
482.2683487543332
 30
0.0
 10
878.4369227106208
 20
466.2141509399164
 30
0.0
 10
885.0672654374854
 20
433.9374394611942
 30
0.0
 10
887.9781236067232
 20
417.7151725548164
 30
0.0
 10
893.0427722330277
 20
385.1135168965442
 30
0.0
 10
895.1968719483431
 20
368.7341923281119
 30
0.0
 10
897.004414359491
 20
352.2829432510351
 30
0.0
  0
LINE
  5
16B
330
1F
100
AcDbEntity
  8
0
  6
Continuous
 62
     7
370
    25
100
AcDbLine
 10
856.8290977903
 20
545.8615948937
 30
0.0
 11
800.534858748
 21
602.3827911727
 31
0.0
  0
LINE
  5
16C
330
1F
100
AcDbEntity
  8
0
  6
Continuous
 62
     7
370
    25
100
AcDbLine
 10
800.5348587481
 20
602.382791189
 30
0.0
 11
800.5731827186
 21
621.4327911727
 31
0.0
  0
LINE
  5
16D
330
1F
100
AcDbEntity
  8
0
  6
Continuous
 62
     7
370
    25
100
AcDbLine
 10
800.5731827186
 20
621.4327911727
 30
0.0
 11
870.3174366675
 21
621.4327911396
 31
0.0
  0
LINE
  5
16E
330
1F
100
AcDbEntity
  8
0
  6
Continuous
 62
     7
370
    25
100
AcDbLine
 10
724.8780289476
 20
7.9072335554
 30
0.0
 11
933.5854781454
 21
7.907233941
 31
0.0
  0
LINE
  5
16F
330
1F
100
AcDbEntity
  8
0
  6
Continuous
 62
     7
370
    25
100
AcDbLine
 10
724.8780289476
 20
258.094973122
 30
0.0
 11
724.8780289476
 21
7.9072335554
 31
0.0
  0
LINE
  5
170
330
1F
100
AcDbEntity
  8
0
  6
Continuous
 62
     7
370
    25
100
AcDbLine
 10
724.8780289476
 20
258.094973122
 30
0.0
 11
749.8916859875
 21
262.5082441868
 31
0.0
  0
LINE
  5
171
330
1F
100
AcDbEntity
  8
0
  6
Continuous
 62
     7
370
    25
100
AcDbLine
 10
766.3371976667
 20
169.2979285405
 30
0.0
 11
749.8916859875
 21
262.5082441868
 31
0.0
  0
CIRCLE
  5
172
330
1F
100
AcDbEntity
  8
0
  6
Continuous
 62
     7
370
    25
100
AcDbCircle
 10
731.2280289476
 20
240.2451321343
 30
0.0
 40
2.285999999999774
  0
CIRCLE
  5
173
330
1F
100
AcDbEntity
  8
0
  6
Continuous
 62
     7
370
    25
100
AcDbCircle
 10
743.1273205857
 20
254.8666994532
 30
0.0
 40
2.285999999999774
  0
CIRCLE
  5
174
330
1F
100
AcDbEntity
  8
0
  6
Continuous
 62
     7
370
    25
100
AcDbCircle
 10
892.9329904778
 20
334.5827128946
 30
0.0
 40
2.285999999999774
  0
CIRCLE
  5
175
330
1F
100
AcDbEntity
  8
0
  6
Continuous
 62
     7
370
    25
100
AcDbCircle
 10
922.6939415749
 20
347.5872727296
 30
0.0
 40
2.285999999999774
  0
CIRCLE
  5
176
330
1F
100
AcDbEntity
  8
0
  6
Continuous
 62
     7
370
    25
100
AcDbCircle
 10
924.0593413699
 20
33.3073403744
 30
0.0
 40
0.9918700000000058
  0
CIRCLE
  5
177
330
1F
100
AcDbEntity
  8
0
  6
Continuous
 62
     7
370
    25
100
AcDbCircle
 10
924.0593413699
 20
49.1823403744
 30
0.0
 40
0.9918700000000058
  0
CIRCLE
  5
178
330
1F
100
AcDbEntity
  8
0
  6
Continuous
 62
     7
370
    25
100
AcDbCircle
 10
734.4030289476
 20
33.3073403744
 30
0.0
 40
0.9918700000000058
  0
CIRCLE
  5
179
330
1F
100
AcDbEntity
  8
0
  6
Continuous
 62
     7
370
    25
100
AcDbCircle
 10
734.4030289476
 20
49.1823403744
 30
0.0
 40
0.9918700000000058
  0
CIRCLE
  5
17A
330
1F
100
AcDbEntity
  8
0
  6
Continuous
 62
     7
370
    25
100
AcDbCircle
 10
887.4266751342
 20
33.3073251885
 30
0.0
 40
5.079999999999977
  0
CIRCLE
  5
17B
330
1F
100
AcDbEntity
  8
0
  6
Continuous
 62
     7
370
    25
100
AcDbCircle
 10
887.4266751342
 20
49.1823251885
 30
0.0
 40
5.07999999999997
  0
CIRCLE
  5
17C
330
1F
100
AcDbEntity
  8
0
  6
Continuous
 62
     7
370
    25
100
AcDbCircle
 10
881.2034918818
 20
523.4494708107
 30
0.0
 40
2.976626000000238
  0
CIRCLE
  5
17D
330
1F
100
AcDbEntity
  8
0
  6
Continuous
 62
     7
370
    25
100
AcDbCircle
 10
874.7348357882
 20
547.5908240085
 30
0.0
 40
2.976626000000124
  0
CIRCLE
  5
17E
330
1F
100
AcDbEntity
  8
0
  6
Continuous
 62
     7
370
    25
100
AcDbCircle
 10
855.0530289507
 20
565.4823098669
 30
0.0
 40
2.976626000000238
  0
CIRCLE
  5
17F
330
1F
100
AcDbEntity
  8
0
  6
Continuous
 62
     7
370
    25
100
AcDbCircle
 10
832.1930289507
 20
587.7675163887
 30
0.0
 40
2.976626000000238
  0
SPLINE
  5
180
330
1F
100
AcDbEntity
  8
0
  6
Continuous
 62
     7
370
    25
100
AcDbSpline
210
0.0
220
0.0
230
1.0
 70
     8
 71
     3
 72
    28
 73
    24
 74
     0
 42
0.00000001
 43
0.00000001
 40
0.0
 40
0.0
 40
0.0
 40
0.0
 40
0.1250000000000008
 40
0.1250000000000008
 40
0.2500000000000016
 40
0.2500000000000016
 40
0.312500000000002
 40
0.312500000000002
 40
0.3750000000000024
 40
0.3750000000000024
 40
0.4375000000000028
 40
0.4375000000000028
 40
0.5000000000000032
 40
0.5000000000000032
 40
0.6250000000000019
 40
0.6250000000000019
 40
0.7500000000000006
 40
0.7500000000000006
 40
0.8749999999999993
 40
0.8749999999999993
 40
0.9374999999999996
 40
0.9374999999999996
 40
1.0
 40
1.0
 40
1.0
 40
1.0
 10
933.5832045944892
 20
7.907446807784768
 30
0.0
 10
936.0119117148328
 20
33.8475629935292
 30
0.0
 10
937.981916375908
 20
59.80008338726284
 30
0.0
 10
940.993922772791
 20
111.7302191814574
 30
0.0
 10
942.0353724026858
 20
137.7078495119387
 30
0.0
 10
942.8088601311284
 20
176.6956226327298
 30
0.0
 10
942.934434632072
 20
189.6951234321603
 30
0.0
 10
942.8945362338123
 20
215.7019955196467
 30
0.0
 10
942.7291519292944
 20
228.7093644119279
 30
0.0
 10
942.0711462173505
 20
254.7329513251667
 30
0.0
 10
941.5799605549391
 20
267.750487893314
 30
0.0
 10
940.2409382735897
 20
293.7897056966311
 30
0.0
 10
939.3947050273173
 20
306.7727469525491
 30
0.0
 10
936.282171583161
 20
345.6031320510279
 30
0.0
 10
933.4413624517306
 20
371.3315975049139
 30
0.0
 10
926.0008861886652
 20
422.424582453344
 30
0.0
 10
921.3997605066512
 20
447.7888001421054
 30
0.0
 10
910.2483389476512
 20
498.1139098296355
 30
0.0
 10
903.6963951261498
 20
523.0744608328565
 30
0.0
 10
892.3292192985837
 20
560.1967809591181
 30
0.0
 10
888.2844672966288
 20
572.5179791459109
 30
0.0
 10
879.6829139982154
 20
597.0544213880723
 30
0.0
 10
875.1260951610508
 20
609.2696618138853
 30
0.0
 10
870.3174366675222
 20
621.4327911395822
 30
0.0
  0
CIRCLE
  5
181
330
1F
100
AcDbEntity
  8
0
  6
Continuous
 62
     7
370
    25
100
AcDbCircle
 10
887.4266751342
 20
49.1823251925
 30
0.0
 40
0.9918700000000058
  0
CIRCLE
  5
182
330
1F
100
AcDbEntity
  8
0
  6
Continuous
 62
     7
370
    25
100
AcDbCircle
 10
887.4266751342
 20
33.3073251925
 30
0.0
 40
0.9918700000000058
  0
CIRCLE
  5
183
330
1F
100
AcDbEntity
  8
0
  6
Continuous
 62
     7
370
    25
100
AcDbCircle
 10
1082.3130180145
 20
629.5113025216
 30
0.0
 40
2.413000000000238
  0
CIRCLE
  5
184
330
1F
100
AcDbEntity
  8
0
  6
Continuous
 62
     7
370
    25
100
AcDbCircle
 10
1044.2129152167
 20
629.5113025216
 30
0.0
 40
2.413000000000238
  0
CIRCLE
  5
185
330
1F
100
AcDbEntity
  8
0
  6
Continuous
 62
     7
370
    25
100
AcDbCircle
 10
1068.0435574618
 20
102.0218191126
 30
0.0
 40
44.45000000000033
  0
ARC
  5
186
330
1F
100
AcDbEntity
  8
0
  6
Continuous
 62
     7
370
    25
100
AcDbCircle
 10
1008.4290848387
 20
177.8224059704
 30
0.0
 40
19.05000000000009
100
AcDbArc
 50
190.0059722934
 51
325.0059722934
  0
LINE
  5
187
330
1F
100
AcDbEntity
  8
0
  6
Continuous
 62
     7
370
    25
100
AcDbLine
 10
1093.6264067816
 20
266.3061826004
 30
0.0
 11
1024.0350701479
 21
166.8974015069
 31
0.0
  0
ARC
  5
188
330
1F
100
AcDbEntity
  8
0
  6
Continuous
 62
     7
370
    25
100
AcDbCircle
 10
1031.2024655446
 20
310.0062004544
 30
0.0
 40
76.20000000000147
100
AcDbArc
 50
325.0059722934
 51
10.0
  0
SPLINE
  5
189
330
1F
100
AcDbEntity
  8
0
  6
Continuous
 62
     7
370
    25
100
AcDbSpline
210
0.0
220
0.0
230
1.0
 70
     8
 71
     3
 72
    14
 73
    10
 74
     0
 42
0.00000001
 43
0.00000001
 40
-0.370150085187494
 40
-0.370150085187494
 40
-0.370150085187494
 40
-0.370150085187494
 40
-0.346597766129044
 40
-0.346597766129044
 40
-0.346597766129044
 40
-0.15858372195498
 40
-0.15858372195498
 40
-0.15858372195498
 40
-0.1008488196823602
 40
-0.1008488196823602
 40
-0.1008488196823602
 40
-0.1008488196823602
 10
1127.403410006239
 20
352.9789727842259
 30
0.0
 10
1126.801393018543
 20
359.0192593851116
 30
0.0
 10
1126.152978377131
 20
365.0692816220254
 30
0.0
 10
1125.455933586184
 20
371.1277942424918
 30
0.0
 10
1119.891546920438
 20
419.4918409687137
 30
0.0
 10
1111.199705842476
 20
468.3914574221678
 30
0.0
 10
1098.155313245471
 20
517.6763325102849
 30
0.0
 10
1094.149672416341
 20
532.8106138839468
 30
0.0
 10
1089.730001111535
 20
547.9832402823055
 30
0.0
 10
1084.873608795152
 20
563.202375566751
 30
0.0
  0
LINE
  5
18A
330
1F
100
AcDbEntity
  8
0
  6
Continuous
 62
     7
370
    25
100
AcDbLine
 10
1084.8736087952
 20
563.2023755668
 30
0.0
 11
1028.3176556005
 21
619.9863411317
 31
0.0
  0
LINE
  5
18B
330
1F
100
AcDbEntity
  8
0
  6
Continuous
 62
     7
370
    25
100
AcDbLine
 10
1028.3176556005
 20
619.9863411317
 30
0.0
 11
1028.3559794931
 21
639.0363025825
 31
0.0
  0
LINE
  5
18C
330
1F
100
AcDbEntity
  8
0
  6
Continuous
 62
     7
370
    25
100
AcDbLine
 10
1028.3559794931
 20
639.0363025825
 30
0.0
 11
1098.2293788709
 21
639.0363025825
 31
0.0
  0
SPLINE
  5
18D
330
1F
100
AcDbEntity
  8
0
  6
Continuous
 62
     7
370
    25
100
AcDbSpline
210
0.0
220
0.0
230
1.0
 70
     8
 71
     3
 72
    24
 73
    20
 74
     0
 42
0.00000001
 43
0.00000001
 40
0.0
 40
0.0
 40
0.0
 40
0.0
 40
0.0625
 40
0.0625
 40
0.125
 40
0.125
 40
0.25
 40
0.25
 40
0.375
 40
0.375
 40
0.5000000000000001
 40
0.5000000000000001
 40
0.6250000000000001
 40
0.6250000000000001
 40
0.75
 40
0.75
 40
0.875
 40
0.875
 40
1.0
 40
1.0
 40
1.0
 40
1.0
 10
1098.229378870908
 20
639.0363025825447
 30
0.0
 10
1103.783991952007
 20
624.9998002005941
 30
0.0
 10
1108.968672344823
 20
610.9956945294583
 30
0.0
 10
1118.615816011383
 20
583.0543915975994
 30
0.0
 10
1123.078412420869
 20
569.1171890367035
 30
0.0
 10
1135.431020380219
 20
527.4126699477124
 30
0.0
 10
1142.283142246706
 20
499.7510780088797
 30
0.0
 10
1153.584069360668
 20
444.7777235795676
 30
0.0
 10
1158.035293414672
 20
417.4659083884752
 30
0.0
 10
1164.958832744147
 20
363.3033121808884
 30
0.0
 10
1167.433068463065
 20
336.4525120216393
 30
0.0
 10
1170.821465321711
 20
283.368410310144
 30
0.0
 10
1171.736435487294
 20
257.1353711540754
 30
0.0
 10
1172.374173358236
 20
205.4861784968427
 30
0.0
 10
1172.097494592337
 20
180.0703591577988
 30
0.0
 10
1170.651933617796
 20
130.2881480103309
 30
0.0
 10
1169.483104820558
 20
105.9227523619622
 30
0.0
 10
1166.474540667944
 20
58.4899465935878
 30
0.0
 10
1164.634761062232
 20
35.42367769455762
 30
0.0
 10
1162.531499471162
 20
13.12175781622044
 30
0.0
  0
LINE
  5
18E
330
1F
100
AcDbEntity
  8
0
  6
Continuous
 62
     7
370
    25
100
AcDbLine
 10
1162.5314994712
 20
13.1217578162
 30
0.0
 11
948.2096733397
 21
13.1217578162
 31
0.0
  0
LINE
  5
18F
330
1F
100
AcDbEntity
  8
0
  6
Continuous
 62
     7
370
    25
100
AcDbLine
 10
948.2096733397
 20
13.1217578162
 30
0.0
 11
948.2096733397
 21
263.3094972695
 31
0.0
  0
LINE
  5
190
330
1F
100
AcDbEntity
  8
0
  6
Continuous
 62
     7
370
    25
100
AcDbLine
 10
948.2096733397
 20
263.3094972695
 30
0.0
 11
973.2233303796
 21
267.7227683181
 31
0.0
  0
LINE
  5
191
330
1F
100
AcDbEntity
  8
0
  6
Continuous
 62
     7
370
    25
100
AcDbLine
 10
989.6688420588
 20
174.5124526717
 30
0.0
 11
973.2233303796
 21
267.7227683181
 31
0.0
  0
CIRCLE
  5
192
330
1F
100
AcDbEntity
  8
0
  6
Continuous
 62
     7
370
    25
100
AcDbCircle
 10
954.5596733397
 20
245.4596564069
 30
0.0
 40
2.285999999999774
  0
CIRCLE
  5
193
330
1F
100
AcDbEntity
  8
0
  6
Continuous
 62
     7
370
    25
100
AcDbCircle
 10
966.4589649778
 20
260.0812237258
 30
0.0
 40
2.285999999999831
  0
CIRCLE
  5
194
330
1F
100
AcDbEntity
  8
0
  6
Continuous
 62
     7
370
    25
100
AcDbCircle
 10
1134.3723099096
 20
344.9803384989
 30
0.0
 40
2.286000000000229
  0
CIRCLE
  5
195
330
1F
100
AcDbEntity
  8
0
  6
Continuous
 62
     7
370
    25
100
AcDbCircle
 10
1117.2081731081
 20
334.198290718
 30
0.0
 40
2.286000000000229
  0
CIRCLE
  5
196
330
1F
100
AcDbEntity
  8
0
  6
Continuous
 62
     7
370
    25
100
AcDbCircle
 10
1154.1898880153
 20
340.7231393592
 30
0.0
 40
2.286000000000229
  0
CIRCLE
  5
197
330
1F
100
AcDbEntity
  8
0
  6
Continuous
 62
     7
370
    25
100
AcDbCircle
 10
1147.390985762
 20
38.5218645388
 30
0.0
 40
5.079999999999977
  0
CIRCLE
  5
198
330
1F
100
AcDbEntity
  8
0
  6
Continuous
 62
     7
370
    25
100
AcDbCircle
 10
1147.390985762
 20
54.3968645388
 30
0.0
 40
5.07999999999997
  0
CIRCLE
  5
199
330
1F
100
AcDbEntity
  8
0
  6
Continuous
 62
     7
370
    25
100
AcDbCircle
 10
957.7346733397
 20
54.3968645383
 30
0.0
 40
5.079999999999977
  0
CIRCLE
  5
19A
330
1F
100
AcDbEntity
  8
0
  6
Continuous
 62
     7
370
    25
100
AcDbCircle
 10
957.7346733397
 20
38.5218645388
 30
0.0
 40
5.079999999999977
  0
CIRCLE
  5
19B
330
1F
100
AcDbEntity
  8
0
  6
Continuous
 62
     7
370
    25
100
AcDbCircle
 10
1121.990985762
 20
38.5217578162
 30
0.0
 40
0.9918700000000058
  0
CIRCLE
  5
19C
330
1F
100
AcDbEntity
  8
0
  6
Continuous
 62
     7
370
    25
100
AcDbCircle
 10
1121.990985762
 20
54.3967578162
 30
0.0
 40
0.9918700000000058
  0
CIRCLE
  5
19D
330
1F
100
AcDbEntity
  8
0
  6
Continuous
 62
     7
370
    25
100
AcDbCircle
 10
983.1346733397
 20
38.5217578162
 30
0.0
 40
0.9918700000000058
  0
CIRCLE
  5
19E
330
1F
100
AcDbEntity
  8
0
  6
Continuous
 62
     7
370
    25
100
AcDbCircle
 10
983.1346733397
 20
54.3967578162
 30
0.0
 40
0.9918700000000058
  0
CIRCLE
  5
19F
330
1F
100
AcDbEntity
  8
0
  6
Continuous
 62
     7
370
    25
100
AcDbCircle
 10
1104.5351362738
 20
528.6639950806
 30
0.0
 40
2.976626000000124
  0
CIRCLE
  5
1A0
330
1F
100
AcDbEntity
  8
0
  6
Continuous
 62
     7
370
    25
100
AcDbCircle
 10
1098.0664801803
 20
552.8053482784
 30
0.0
 40
2.976626000000124
  0
LINE
  5
1A1
330
1F
100
AcDbEntity
  8
0
  6
Continuous
 62
     7
370
    25
100
AcDbLine
 10
1106.2448163242
 20
323.2381915926
 30
0.0
 11
1101.7973235078
 21
348.4611767449
 31
0.0
  0
LINE
  5
1A2
330
1F
100
AcDbEntity
  8
0
  6
Continuous
 62
     7
370
    25
100
AcDbLine
 10
1101.7973235078
 20
348.4611767449
 30
0.0
 11
1127.4034100062
 21
352.9789727842
 31
0.0
  0
CIRCLE
  5
1A3
330
1F
100
AcDbEntity
  8
0
  6
Continuous
 62
     7
370
    25
100
AcDbCircle
 10
957.7346733397
 20
38.5218645388
 30
0.0
 40
0.9918700000000058
  0
CIRCLE
  5
1A4
330
1F
100
AcDbEntity
  8
0
  6
Continuous
 62
     7
370
    25
100
AcDbCircle
 10
1147.390985762
 20
38.5218645388
 30
0.0
 40
0.9918700000000058
  0
CIRCLE
  5
1A5
330
1F
100
AcDbEntity
  8
0
  6
Continuous
 62
     7
370
    25
100
AcDbCircle
 10
1147.390985762
 20
54.3968645388
 30
0.0
 40
0.9918700000000058
  0
CIRCLE
  5
1A6
330
1F
100
AcDbEntity
  8
0
  6
Continuous
 62
     7
370
    25
100
AcDbCircle
 10
957.7346733397
 20
54.3968645383
 30
0.0
 40
0.9918700000000058
  0
CIRCLE
  5
1A7
330
1F
100
AcDbEntity
  8
0
  6
Continuous
 62
     7
370
    25
100
AcDbCircle
 10
840.6743952752
 20
261.1326257943
 30
0.0
 40
2.285999999999945
  0
CIRCLE
  5
1A8
330
1F
100
AcDbEntity
  8
0
  6
Continuous
 62
     7
370
    25
100
AcDbCircle
 10
802.5743952752
 20
261.1326258142
 30
0.0
 40
2.285999999999945
  0
CIRCLE
  5
1A9
330
1F
100
AcDbEntity
  8
0
  6
Continuous
 62
     7
370
    25
100
AcDbCircle
 10
821.4492877798
 20
801.4437581417
 30
0.0
 40
44.45000000000005
  0
ARC
  5
1AA
330
1F
100
AcDbEntity
  8
0
  6
Continuous
 62
     7
370
    25
100
AcDbCircle
 10
881.0637604029
 20
725.6431712839
 30
0.0
 40
19.05000000000007
100
AcDbArc
 50
10.0059722934
 51
145.005972465
  0
LINE
  5
1AB
330
1F
100
AcDbEntity
  8
0
  6
Continuous
 62
     7
370
    25
100
AcDbLine
 10
865.4577750609
 20
736.5681757007
 30
0.0
 11
795.8664384393
 21
637.1593946244
 31
0.0
  0
ARC
  5
1AC
330
1F
100
AcDbEntity
  8
0
  6
Continuous
 62
     7
370
    25
100
AcDbCircle
 10
858.2903796763
 20
593.4593767704
 30
0.0
 40
76.20000000000012
100
AcDbArc
 50
145.0059722934
 51
190.0
  0
LINE
  5
1AD
330
1F
100
AcDbEntity
  8
0
  6
Continuous
 62
     7
370
    25
100
AcDbLine
 10
783.2480288968
 20
580.2273856322
 30
0.0
 11
786.6751635408
 21
560.7911392323
 31
0.0
  0
LINE
  5
1AE
330
1F
100
AcDbEntity
  8
0
  6
Continuous
 62
     7
370
    25
100
AcDbLine
 10
754.8990396822
 20
555.1847359843
 30
0.0
 11
786.6751635408
 21
560.7911392323
 31
0.0
  0
SPLINE
  5
1AF
330
1F
100
AcDbEntity
  8
0
  6
Continuous
 62
     7
370
    25
100
AcDbSpline
210
0.0
220
0.0
230
1.0
 70
     8
 71
     3
 72
    11
 73
     7
 74
     0
 42
0.00000001
 43
0.00000001
 40
34.9627256196867
 40
34.9627256196867
 40
34.9627256196867
 40
34.9627256196867
 40
45.05047996278122
 40
45.05047996278122
 40
45.05047996278122
 40
53.91670066257151
 40
53.91670066257151
 40
53.91670066257151
 40
53.91670066257151
 10
793.9815186634959
 20
346.2226120538713
 30
0.0
 10
783.7793224993864
 20
380.4212023011983
 30
0.0
 10
775.3243031467092
 20
415.7252788110469
 30
0.0
 10
768.5961023897463
 20
452.8121318246484
 30
0.0
 10
762.6826244446227
 20
485.4081103443214
 30
0.0
 10
758.1093962551257
 20
519.3876913587598
 30
0.0
 10
754.8990396822246
 20
555.1847359842884
 30
0.0
  0
LINE
  5
1B0
330
1F
100
AcDbEntity
  8
0
  6
Continuous
 62
     7
370
    25
100
AcDbLine
 10
793.9815186635
 20
346.2226120539
 30
0.0
 11
856.594138569
 21
283.3575615714
 31
0.0
  0
LINE
  5
1B1
330
1F
100
AcDbEntity
  8
0
  6
Continuous
 62
     7
370
    25
100
AcDbLine
 10
856.594138569
 20
283.3575615714
 30
0.0
 11
856.5302654147
 21
251.60762582
 31
0.0
  0
LINE
  5
1B2
330
1F
100
AcDbEntity
  8
0
  6
Continuous
 62
     7
370
    25
100
AcDbLine
 10
856.5302654147
 20
251.60762582
 30
0.0
 11
786.5227439589
 21
251.60762582
 31
0.0
  0
SPLINE
  5
1B3
330
1F
100
AcDbEntity
  8
0
  6
Continuous
 62
     7
370
    25
100
AcDbSpline
210
0.0
220
0.0
230
1.0
 70
     8
 71
     3
 72
    10
 73
     6
 74
     0
 42
0.00000001
 43
0.00000001
 40
-62.01580065952373
 40
-62.01580065952373
 40
-62.01580065952373
 40
-62.01580065952373
 40
-43.19144469728089
 40
-43.19144469728089
 40
-9.154068647492949
 40
-9.154068647492949
 40
-9.154068647492949
 40
-9.154068647492949
 10
721.1519366104773
 20
890.3438189058029
 30
0.0
 10
713.9134166230606
 20
814.2217888798352
 30
0.0
 10
709.4930739999816
 20
726.9972986207064
 30
0.0
 10
715.8990118293959
 20
489.2956430722012
 30
0.0
 10
740.9450282516764
 20
366.6617723427589
 30
0.0
 10
786.5227409477847
 20
251.6076248813134
 30
0.0
  0
LINE
  5
1B4
330
1F
100
AcDbEntity
  8
0
  6
Continuous
 62
     7
370
    25
100
AcDbLine
 10
941.2831719018
 20
890.343819281
 30
0.0
 11
721.1519366105
 21
890.3438189058
 31
0.0
  0
LINE
  5
1B5
330
1F
100
AcDbEntity
  8
0
  6
Continuous
 62
     7
370
    25
100
AcDbLine
 10
941.2831719018
 20
640.1560798385
 30
0.0
 11
941.2831719018
 21
890.343819281
 31
0.0
  0
LINE
  5
1B6
330
1F
100
AcDbEntity
  8
0
  6
Continuous
 62
     7
370
    25
100
AcDbLine
 10
941.2831719018
 20
640.1560798385
 30
0.0
 11
916.2695149156
 21
635.7428086323
 31
0.0
  0
LINE
  5
1B7
330
1F
100
AcDbEntity
  8
0
  6
Continuous
 62
     7
370
    25
100
AcDbLine
 10
916.2695149156
 20
635.7428086323
 30
0.0
 11
899.8240031828
 21
728.9531245825
 31
0.0
  0
CIRCLE
  5
1B8
330
1F
100
AcDbEntity
  8
0
  6
Continuous
 62
     7
370
    25
100
AcDbCircle
 10
926.5089786131
 20
643.9974804796
 30
0.0
 40
2.285999999999945
  0
CIRCLE
  5
1B9
330
1F
100
AcDbEntity
  8
0
  6
Continuous
 62
     7
370
    25
100
AcDbCircle
 10
934.9331719018
 20
658.0059207011
 30
0.0
 40
2.286000000000058
  0
CIRCLE
  5
1BA
330
1F
100
AcDbEntity
  8
0
  6
Continuous
 62
     7
370
    25
100
AcDbCircle
 10
771.2643138651
 20
575.054025687
 30
0.0
 40
2.286000000000058
  0
CIRCLE
  5
1BB
330
1F
100
AcDbEntity
  8
0
  6
Continuous
 62
     7
370
    25
100
AcDbCircle
 10
728.3300874205
 20
567.4789500302
 30
0.0
 40
2.285999999999945
  0
CIRCLE
  5
1BC
330
1F
100
AcDbEntity
  8
0
  6
Continuous
 62
     7
370
    25
100
AcDbCircle
 10
751.1239212812
 20
563.7468633823
 30
0.0
 40
2.286000000000058
  0
CIRCLE
  5
1BD
330
1F
100
AcDbEntity
  8
0
  6
Continuous
 62
     7
370
    25
100
AcDbCircle
 10
767.5018594795
 20
864.9438192918
 30
0.0
 40
5.079999999999927
  0
CIRCLE
  5
1BE
330
1F
100
AcDbEntity
  8
0
  6
Continuous
 62
     7
370
    25
100
AcDbCircle
 10
767.5018594795
 20
849.0688192918
 30
0.0
 40
5.079999999999927
  0
CIRCLE
  5
1BF
330
1F
100
AcDbEntity
  8
0
  6
Continuous
 62
     7
370
    25
100
AcDbCircle
 10
906.3581719018
 20
864.9438192918
 30
0.0
 40
5.080000000000041
  0
CIRCLE
  5
1C0
330
1F
100
AcDbEntity
  8
0
  6
Continuous
 62
     7
370
    25
100
AcDbCircle
 10
906.3581719018
 20
849.0688192918
 30
0.0
 40
5.080000000000041
  0
CIRCLE
  5
1C1
330
1F
100
AcDbEntity
  8
0
  6
Continuous
 62
     7
370
    25
100
AcDbCircle
 10
906.3581719018
 20
864.9438192918
 30
0.0
 40
0.9918700000000626
  0
CIRCLE
  5
1C2
330
1F
100
AcDbEntity
  8
0
  6
Continuous
 62
     7
370
    25
100
AcDbCircle
 10
906.3581719018
 20
849.0688192918
 30
0.0
 40
0.9918700000000626
  0
CIRCLE
  5
1C3
330
1F
100
AcDbEntity
  8
0
  6
Continuous
 62
     7
370
    25
100
AcDbCircle
 10
767.5018594795
 20
864.9438192918
 30
0.0
 40
0.991869999999949
  0
CIRCLE
  5
1C4
330
1F
100
AcDbEntity
  8
0
  6
Continuous
 62
     7
370
    25
100
AcDbCircle
 10
767.5018594795
 20
849.0688192918
 30
0.0
 40
0.991869999999949
  0
LINE
  5
1C5
330
1F
100
AcDbEntity
  8
0
  6
Continuous
 62
     7
370
    25
100
AcDbLine
 10
1183.573327962
 20
14.7886063274
 30
0.0
 11
1183.573327962
 21
88.2846737864
 31
0.0
  0
SPLINE
  5
1C6
330
1F
100
AcDbEntity
  8
0
  6
Continuous
 62
     7
370
    25
100
AcDbSpline
210
0.0
220
0.0
230
1.0
 70
     8
 71
     3
 72
    10
 73
     6
 74
     0
 42
0.00000001
 43
0.00000001
 40
-55.3716029639308
 40
-55.3716029639308
 40
-55.3716029639308
 40
-55.3716029639308
 40
-25.0699273348478
 40
-25.0699273348478
 40
-9.0667694452729
 40
-9.0667694452729
 40
-9.0667694452729
 40
-9.0667694452729
 10
1183.573327961969
 20
88.28467378644108
 30
0.0
 10
1286.095616811165
 20
128.627207501907
 30
0.0
 10
1395.445121102751
 20
150.8053860671691
 30
0.0
 10
1603.66021821239
 20
156.4173410492847
 30
0.0
 10
1677.69958313207
 20
152.950816869985
 30
0.0
 10
1743.349741305735
 20
147.0517826091006
 30
0.0
  0
LINE
  5
1C7
330
1F
100
AcDbEntity
  8
0
  6
Continuous
 62
     7
370
    25
100
AcDbLine
 10
1743.3497413057
 20
147.0517826091
 30
0.0
 11
1743.3497413057
 21
14.7886063274
 31
0.0
  0
LINE
  5
1C8
330
1F
100
AcDbEntity
  8
0
  6
Continuous
 62
     7
370
    25
100
AcDbLine
 10
1743.3497413057
 20
14.7886063274
 30
0.0
 11
1183.573327962
 21
14.7886063274
 31
0.0
  0
CIRCLE
  5
1C9
330
1F
100
AcDbEntity
  8
0
  6
Continuous
 62
     7
370
    25
100
AcDbCircle
 10
1286.1497413057
 20
56.0636063274
 30
0.0
 40
25.39999999999998
  0
CIRCLE
  5
1CA
330
1F
100
AcDbEntity
  8
0
  6
Continuous
 62
     7
370
    25
100
AcDbCircle
 10
1413.1497413057
 20
73.2086063274
 30
0.0
 40
31.74999999999999
  0
CIRCLE
  5
1CB
330
1F
100
AcDbEntity
  8
0
  6
Continuous
 62
     7
370
    25
100
AcDbCircle
 10
1565.5497413057
 20
78.2886063274
 30
0.0
 40
38.09999999999974
  0
CIRCLE
  5
1CC
330
1F
100
AcDbEntity
  8
0
  6
Continuous
 62
     7
370
    25
100
AcDbCircle
 10
1193.0983280637
 20
28.0971852843
 30
0.0
 40
2.457449999999973
  0
CIRCLE
  5
1CD
330
1F
100
AcDbEntity
  8
0
  6
Continuous
 62
     7
370
    25
100
AcDbCircle
 10
1193.0983280638
 20
66.1972880822
 30
0.0
 40
2.457449999999973
  0
LINE
  5
1CE
330
1F
100
AcDbEntity
  8
0
  6
Continuous
 62
     7
370
    25
100
AcDbLine
 10
1183.8920397451
 20
314.477330147
 30
0.0
 11
1183.8920397451
 21
383.0398787593
 31
0.0
  0
SPLINE
  5
1CF
330
1F
100
AcDbEntity
  8
0
  6
Continuous
 62
     7
370
    25
100
AcDbSpline
210
0.0
220
0.0
230
1.0
 70
     8
 71
     3
 72
    10
 73
     6
 74
     0
 42
0.00000001
 43
0.00000001
 40
-54.2493510406912
 40
-54.2493510406912
 40
-54.2493510406912
 40
-54.2493510406912
 40
-24.5787816023228
 40
-24.5787816023228
 40
-9.05068072297407
 40
-9.05068072297407
 40
-9.05068072297407
 40
-9.05068072297407
 10
1183.892039745057
 20
383.0398787592613
 30
0.0
 10
1284.295778554677
 20
422.4983025400047
 30
0.0
 10
1391.39953889735
 20
444.1920726060697
 30
0.0
 10
1594.63857722128
 20
449.6701586651436
 30
0.0
 10
1666.458846516294
 20
446.3605388141694
 30
0.0
 10
1730.326466922885
 20
440.685520380701
 30
0.0
  0
LINE
  5
1D0
330
1F
100
AcDbEntity
  8
0
  6
Continuous
 62
     7
370
    25
100
AcDbLine
 10
1730.3264669229
 20
440.6855203807
 30
0.0
 11
1730.3264669229
 21
314.477330147
 31
0.0
  0
LINE
  5
1D1
330
1F
100
AcDbEntity
  8
0
  6
Continuous
 62
     7
370
    25
100
AcDbLine
 10
1730.3264669229
 20
314.477330147
 30
0.0
 11
1183.8920397451
 21
314.477330147
 31
0.0
  0
CIRCLE
  5
1D2
330
1F
100
AcDbEntity
  8
0
  6
Continuous
 62
     7
370
    25
100
AcDbCircle
 10
1273.1264669229
 20
355.752330147
 30
0.0
 40
25.39999999999998
  0
CIRCLE
  5
1D3
330
1F
100
AcDbEntity
  8
0
  6
Continuous
 62
     7
370
    25
100
AcDbCircle
 10
1400.1264669229
 20
372.897330147
 30
0.0
 40
31.75
  0
CIRCLE
  5
1D4
330
1F
100
AcDbEntity
  8
0
  6
Continuous
 62
     7
370
    25
100
AcDbCircle
 10
1552.5264669229
 20
377.977330147
 30
0.0
 40
38.09999999999974
  0
CIRCLE
  5
1D5
330
1F
100
AcDbEntity
  8
0
  6
Continuous
 62
     7
370
    25
100
AcDbCircle
 10
1193.4170398464
 20
327.7859091038
 30
0.0
 40
2.457449999999881
  0
CIRCLE
  5
1D6
330
1F
100
AcDbEntity
  8
0
  6
Continuous
 62
     7
370
    25
100
AcDbCircle
 10
1193.4170398465
 20
365.8860119017
 30
0.0
 40
2.457450000000108
  0
LINE
  5
1D7
330
1F
100
AcDbEntity
  8
0
  6
Continuous
 62
     7
370
    25
100
AcDbLine
 10
1893.2052444312
 20
1063.4551015492
 30
0.0
 11
1360.1128034193
 21
1063.4551015492
 31
0.0
  0
LINE
  5
1D8
330
1F
100
AcDbEntity
  8
0
  6
Continuous
 62
     7
370
    25
100
AcDbLine
 10
1360.1128034193
 20
1063.4551015492
 30
0.0
 11
1360.1128034193
 21
1127.0839347587
 31
0.0
  0
SPLINE
  5
1D9
330
1F
100
AcDbEntity
  8
0
  6
Continuous
 62
     7
370
    25
100
AcDbSpline
210
0.0
220
0.0
230
1.0
 70
     8
 71
     3
 72
    10
 73
     6
 74
     0
 42
0.00000001
 43
0.00000001
 40
-53.1349686655124
 40
-53.1349686655124
 40
-53.1349686655124
 40
-53.1349686655124
 40
-24.0856941468216
 40
-24.0856941468216
 40
-9.03456928373366
 40
-9.03456928373366
 40
-9.03456928373366
 40
-9.03456928373366
 10
1360.112803419264
 20
1127.083934758729
 30
0.0
 10
1458.410785753514
 20
1165.663376112108
 30
0.0
 10
1563.284278617158
 20
1186.873728198044
 30
0.0
 10
1761.556277483567
 20
1192.210362215249
 30
0.0
 10
1831.139223007898
 20
1189.056716497997
 30
0.0
 10
1893.205244431157
 20
1183.60624327896
 30
0.0
  0
LINE
  5
1DA
330
1F
100
AcDbEntity
  8
0
  6
Continuous
 62
     7
370
    25
100
AcDbLine
 10
1893.2052444312
 20
1183.606243279
 30
0.0
 11
1893.2052444312
 21
1063.4551015492
 31
0.0
  0
CIRCLE
  5
1DB
330
1F
100
AcDbEntity
  8
0
  6
Continuous
 62
     7
370
    25
100
AcDbCircle
 10
1369.6378035206
 20
1076.7636805062
 30
0.0
 40
2.457449999999881
  0
CIRCLE
  5
1DC
330
1F
100
AcDbEntity
  8
0
  6
Continuous
 62
     7
370
    25
100
AcDbCircle
 10
1369.6378035207
 20
1114.863783304
 30
0.0
 40
2.457449999999881
  0
LINE
  5
1DD
330
1F
100
AcDbEntity
  8
0
  6
Continuous
 62
     7
370
    25
100
AcDbLine
 10
1898.0474672263
 20
584.131238376
 30
0.0
 11
1898.0474672263
 21
11.0128388663
 31
0.0
  0
LINE
  5
1DE
330
1F
100
AcDbEntity
  8
0
  6
Continuous
 62
     7
370
    25
100
AcDbLine
 10
1898.0474672263
 20
11.0128388663
 30
0.0
 11
1819.6180645499
 21
11.0128388663
 31
0.0
  0
SPLINE
  5
1DF
330
1F
100
AcDbEntity
  8
0
  6
Continuous
 62
     7
370
    25
100
AcDbSpline
210
0.0
220
0.0
230
1.0
 70
     8
 71
     3
 72
    10
 73
     6
 74
     0
 42
0.00000001
 43
0.00000001
 40
-56.4938584088529
 40
-56.4938584088529
 40
-56.4938584088529
 40
-56.4938584088529
 40
-25.56106888728
 40
-25.56106888728
 40
-9.08244148965814
 40
-9.08244148965814
 40
-9.08244148965814
 40
-9.08244148965814
 10
1819.61806454995
 20
11.01283886633325
 30
0.0
 10
1778.391290611128
 20
115.6537355698725
 30
0.0
 10
1755.728636406678
 20
227.2489389591813
 30
0.0
 10
1749.982769544684
 20
440.4420081994704
 30
0.0
 10
1753.607502218174
 20
516.7028613279276
 30
0.0
 10
1759.731251815116
 20
584.1312383760355
 30
0.0
  0
LINE
  5
1E0
330
1F
100
AcDbEntity
  8
0
  6
Continuous
 62
     7
370
    25
100
AcDbLine
 10
1759.7312518151
 20
584.131238376
 30
0.0
 11
1898.0474672263
 21
584.131238376
 31
0.0
  0
CIRCLE
  5
1E1
330
1F
100
AcDbEntity
  8
0
  6
Continuous
 62
     7
370
    25
100
AcDbCircle
 10
1856.7724672263
 20
126.931238376
 30
0.0
 40
25.40000000000009
  0
CIRCLE
  5
1E2
330
1F
100
AcDbEntity
  8
0
  6
Continuous
 62
     7
370
    25
100
AcDbCircle
 10
1839.6274672263
 20
253.931238376
 30
0.0
 40
31.75
  0
CIRCLE
  5
1E3
330
1F
100
AcDbEntity
  8
0
  6
Continuous
 62
     7
370
    25
100
AcDbCircle
 10
1834.5474672263
 20
406.331238376
 30
0.0
 40
38.09999999999991
  0
CIRCLE
  5
1E4
330
1F
100
AcDbEntity
  8
0
  6
Continuous
 62
     7
370
    25
100
AcDbCircle
 10
1832.7474870733
 20
25.4583403486
 30
0.0
 40
2.413000000000221
  0
CIRCLE
  5
1E5
330
1F
100
AcDbEntity
  8
0
  6
Continuous
 62
     7
370
    25
100
AcDbCircle
 10
1878.9974672263
 20
73.083342751
 30
0.0
 40
2.41300000000021
  0
CIRCLE
  5
1E6
330
1F
100
AcDbEntity
  8
0
  6
Continuous
 62
     7
370
    25
100
AcDbCircle
 10
1878.9974672263
 20
25.4583403486
 30
0.0
 40
2.413000000000221
  0
CIRCLE
  5
1E7
330
1F
100
AcDbEntity
  8
0
  6
Continuous
 62
     7
370
    25
100
AcDbCircle
 10
1832.7474870733
 20
73.083342751
 30
0.0
 40
2.413000000000224
  0
LINE
  5
1E8
330
1F
100
AcDbEntity
  8
0
  6
Continuous
 62
     7
370
    25
100
AcDbLine
 10
1726.8016695664
 20
467.7388539948
 30
0.0
 11
1726.8016695664
 21
600.0020302765
 31
0.0
  0
SPLINE
  5
1E9
330
1F
100
AcDbEntity
  8
0
  6
Continuous
 62
     7
370
    25
100
AcDbSpline
210
0.0
220
0.0
230
1.0
 70
     8
 71
     3
 72
    10
 73
     6
 74
     0
 42
0.00000001
 43
0.00000001
 40
-55.3716029639308
 40
-55.3716029639308
 40
-55.3716029639308
 40
-55.3716029639308
 40
-25.0699273348478
 40
-25.0699273348478
 40
-9.0667694452729
 40
-9.0667694452729
 40
-9.0667694452729
 40
-9.0667694452729
 10
1167.025256222609
 20
526.5059628174271
 30
0.0
 10
1269.547545071803
 20
486.163429101962
 30
0.0
 10
1378.897049363391
 20
463.9852505366981
 30
0.0
 10
1587.11214647303
 20
458.3732955545832
 30
0.0
 10
1661.151511392709
 20
461.8398197338825
 30
0.0
 10
1726.801669566373
 20
467.7388539947665
 30
0.0
  0
LINE
  5
1EA
330
1F
100
AcDbEntity
  8
0
  6
Continuous
 62
     7
370
    25
100
AcDbLine
 10
1167.0252562226
 20
600.0020302765
 30
0.0
 11
1167.0252562226
 21
526.5059628174
 31
0.0
  0
LINE
  5
1EB
330
1F
100
AcDbEntity
  8
0
  6
Continuous
 62
     7
370
    25
100
AcDbLine
 10
1726.8016695664
 20
600.0020302765
 30
0.0
 11
1167.0252562226
 21
600.0020302765
 31
0.0
  0
CIRCLE
  5
1EC
330
1F
100
AcDbEntity
  8
0
  6
Continuous
 62
     7
370
    25
100
AcDbCircle
 10
1269.6016695664
 20
558.7270302765
 30
0.0
 40
25.39999999999998
  0
CIRCLE
  5
1ED
330
1F
100
AcDbEntity
  8
0
  6
Continuous
 62
     7
370
    25
100
AcDbCircle
 10
1396.6016695664
 20
541.5820302765
 30
0.0
 40
31.75
  0
CIRCLE
  5
1EE
330
1F
100
AcDbEntity
  8
0
  6
Continuous
 62
     7
370
    25
100
AcDbCircle
 10
1549.0016695664
 20
536.5020302765
 30
0.0
 40
38.0999999999998
  0
CIRCLE
  5
1EF
330
1F
100
AcDbEntity
  8
0
  6
Continuous
 62
     7
370
    25
100
AcDbCircle
 10
1176.5502563243
 20
586.6934513195
 30
0.0
 40
2.457449999999994
  0
CIRCLE
  5
1F0
330
1F
100
AcDbEntity
  8
0
  6
Continuous
 62
     7
370
    25
100
AcDbCircle
 10
1176.5502563244
 20
548.5933485217
 30
0.0
 40
2.457449999999881
  0
LINE
  5
1F1
330
1F
100
AcDbEntity
  8
0
  6
Continuous
 62
     7
370
    25
100
AcDbLine
 10
1735.2096508223
 20
297.0579823063
 30
0.0
 11
1735.2096508223
 21
228.495433694
 31
0.0
  0
SPLINE
  5
1F2
330
1F
100
AcDbEntity
  8
0
  6
Continuous
 62
     7
370
    25
100
AcDbSpline
210
0.0
220
0.0
230
1.0
 70
     8
 71
     3
 72
    10
 73
     6
 74
     0
 42
0.00000001
 43
0.00000001
 40
-54.2493510406912
 40
-54.2493510406912
 40
-54.2493510406912
 40
-54.2493510406912
 40
-24.5787816023228
 40
-24.5787816023228
 40
-9.05068072297407
 40
-9.05068072297407
 40
-9.05068072297407
 40
-9.05068072297407
 10
1735.209650822281
 20
228.4954336940105
 30
0.0
 10
1634.805912012657
 20
189.0370099132651
 30
0.0
 10
1527.702151669986
 20
167.3432398472037
 30
0.0
 10
1324.463113346055
 20
161.8651537881271
 30
0.0
 10
1252.642844051041
 20
165.1747736391003
 30
0.0
 10
1188.77522364445
 20
170.8497920725702
 30
0.0
  0
CIRCLE
  5
1F3
330
1F
100
AcDbEntity
  8
0
  6
Continuous
 62
     7
370
    25
100
AcDbCircle
 10
1645.9752236445
 20
255.7829823063
 30
0.0
 40
25.40000000000001
  0
CIRCLE
  5
1F4
330
1F
100
AcDbEntity
  8
0
  6
Continuous
 62
     7
370
    25
100
AcDbCircle
 10
1518.9752236445
 20
238.6379823063
 30
0.0
 40
31.75
  0
CIRCLE
  5
1F5
330
1F
100
AcDbEntity
  8
0
  6
Continuous
 62
     7
370
    25
100
AcDbCircle
 10
1366.5752236445
 20
233.5579823063
 30
0.0
 40
38.09999999999974
  0
CIRCLE
  5
1F6
330
1F
100
AcDbEntity
  8
0
  6
Continuous
 62
     7
370
    25
100
AcDbCircle
 10
1725.684650721
 20
283.7494033494
 30
0.0
 40
2.457450000000108
  0
CIRCLE
  5
1F7
330
1F
100
AcDbEntity
  8
0
  6
Continuous
 62
     7
370
    25
100
AcDbCircle
 10
1725.6846507209
 20
245.6493005516
 30
0.0
 40
2.457449999999881
  0
LINE
  5
1F8
330
1F
100
AcDbEntity
  8
0
  6
Continuous
 62
     7
370
    25
100
AcDbLine
 10
1188.7752236444
 20
297.0579823063
 30
0.0
 11
1735.2096508223
 21
297.0579823063
 31
0.0
  0
LINE
  5
1F9
330
1F
100
AcDbEntity
  8
0
  6
Continuous
 62
     7
370
    25
100
AcDbLine
 10
1188.7752236444
 20
170.8497920726
 30
0.0
 11
1188.7752236444
 21
297.0579823063
 31
0.0
  0
SPLINE
  5
1FA
330
1F
100
AcDbEntity
  8
0
  6
Continuous
 62
     7
370
    25
100
AcDbSpline
210
0.0
220
0.0
230
1.0
 70
     8
 71
     3
 72
    10
 73
     6
 74
     0
 42
0.00000001
 43
0.00000001
 40
-53.1349686655124
 40
-53.1349686655124
 40
-53.1349686655124
 40
-53.1349686655124
 40
-24.0856941468216
 40
-24.0856941468216
 40
-9.03456928373366
 40
-9.03456928373366
 40
-9.03456928373366
 40
-9.03456928373366
 10
1368.310879152662
 20
979.9476349127605
 30
0.0
 10
1466.60886148691
 20
941.3681935593819
 30
0.0
 10
1571.482354350555
 20
920.1578414734432
 30
0.0
 10
1769.754353216965
 20
914.8212074562423
 30
0.0
 10
1839.337298741296
 20
917.9748531734916
 30
0.0
 10
1901.403320164554
 20
923.4253263925277
 30
0.0
  0
LINE
  5
1FB
330
1F
100
AcDbEntity
  8
0
  6
Continuous
 62
     7
370
    25
100
AcDbLine
 10
1368.3108791527
 20
1043.5764681223
 30
0.0
 11
1368.3108791527
 21
979.9476349128
 31
0.0
  0
LINE
  5
1FC
330
1F
100
AcDbEntity
  8
0
  6
Continuous
 62
     7
370
    25
100
AcDbLine
 10
1901.4033201646
 20
1043.5764681223
 30
0.0
 11
1368.3108791527
 21
1043.5764681223
 31
0.0
  0
LINE
  5
1FD
330
1F
100
AcDbEntity
  8
0
  6
Continuous
 62
     7
370
    25
100
AcDbLine
 10
1901.4033201646
 20
923.4253263925
 30
0.0
 11
1901.4033201646
 21
1043.5764681223
 31
0.0
  0
CIRCLE
  5
1FE
330
1F
100
AcDbEntity
  8
0
  6
Continuous
 62
     7
370
    25
100
AcDbCircle
 10
1377.835879254
 20
1030.2678891653
 30
0.0
 40
2.457449999999881
  0
CIRCLE
  5
1FF
330
1F
100
AcDbEntity
  8
0
  6
Continuous
 62
     7
370
    25
100
AcDbCircle
 10
1377.8358792541
 20
992.1677863675
 30
0.0
 40
2.457450000000108
  0
LINE
  5
200
330
1F
100
AcDbEntity
  8
0
  6
Continuous
 62
     7
370
    25
100
AcDbLine
 10
683.8490558833
 20
941.4097490605
 30
0.0
 11
683.8490561847
 21
1112.4881981241
 31
0.0
  0
SPLINE
  5
201
330
1F
100
AcDbEntity
  8
0
  6
Continuous
 62
     7
370
    25
100
AcDbSpline
210
0.0
220
0.0
230
1.0
 70
     8
 71
     3
 72
    10
 73
     6
 74
     0
 42
0.00000001
 43
0.00000001
 40
-64.5398702067748
 40
-64.5398702067748
 40
-64.5398702067748
 40
-64.5398702067748
 40
-29.0215529968015
 40
-29.0215529968015
 40
-9.17980984821859
 40
-9.17980984821859
 40
-9.17980984821859
 40
-9.17980984821859
 10
683.8490561847431
 20
1112.488198124119
 30
0.0
 10
803.8828970215426
 20
1160.0110346186
 30
0.0
 10
931.7214445699178
 20
1186.150900138039
 30
0.0
 10
1180.751445637809
 20
1192.970906895893
 30
0.0
 10
1272.768041434501
 20
1188.297453279735
 30
0.0
 10
1352.648555459437
 20
1180.688245456865
 30
0.0
  0
LINE
  5
202
330
1F
100
AcDbEntity
  8
0
  6
Continuous
 62
     7
370
    25
100
AcDbLine
 10
1352.6485554739
 20
1180.6882456089
 30
0.0
 11
1352.6485554739
 21
941.4097490605
 31
0.0
  0
CIRCLE
  5
203
330
1F
100
AcDbEntity
  8
0
  6
Continuous
 62
     7
370
    25
100
AcDbCircle
 10
1327.2485557858
 20
969.9847490597
 30
0.0
 40
5.079999999999927
  0
CIRCLE
  5
204
330
1F
100
AcDbEntity
  8
0
  6
Continuous
 62
     7
370
    25
100
AcDbCircle
 10
1293.3818891191
 20
969.9847490597
 30
0.0
 40
5.079999999999927
  0
CIRCLE
  5
205
330
1F
100
AcDbEntity
  8
0
  6
Continuous
 62
     7
370
    25
100
AcDbCircle
 10
1310.3152224525
 20
969.9847490597
 30
0.0
 40
5.080000000000155
  0
CIRCLE
  5
206
330
1F
100
AcDbEntity
  8
0
  6
Continuous
 62
     7
370
    25
100
AcDbCircle
 10
1327.2485557858
 20
1159.7120564588
 30
0.0
 40
5.079999999999927
  0
CIRCLE
  5
207
330
1F
100
AcDbEntity
  8
0
  6
Continuous
 62
     7
370
    25
100
AcDbCircle
 10
1310.3152224525
 20
1159.7120564588
 30
0.0
 40
5.080000000000155
  0
CIRCLE
  5
208
330
1F
100
AcDbEntity
  8
0
  6
Continuous
 62
     7
370
    25
100
AcDbCircle
 10
1293.3818891191
 20
1159.7120564588
 30
0.0
 40
5.079999999999927
  0
CIRCLE
  5
209
330
1F
100
AcDbEntity
  8
0
  6
Continuous
 62
     7
370
    25
100
AcDbCircle
 10
710.678554799
 20
982.6847490605
 30
0.0
 40
4.216400000000249
  0
CIRCLE
  5
20A
330
1F
100
AcDbEntity
  8
0
  6
Continuous
 62
     7
370
    25
100
AcDbCircle
 10
710.678554799
 20
1033.4847490605
 30
0.0
 40
4.216400000000249
  0
CIRCLE
  5
20B
330
1F
100
AcDbEntity
  8
0
  6
Continuous
 62
     7
370
    25
100
AcDbCircle
 10
710.678554799
 20
1084.2847490605
 30
0.0
 40
4.216400000000249
  0
LINE
  5
20C
330
1F
100
AcDbEntity
  8
0
  6
Continuous
 62
     7
370
    25
100
AcDbLine
 10
1352.6485554739
 20
941.4097490605
 30
0.0
 11
683.8490558833
 21
941.4097490605
 31
0.0
  0
CIRCLE
  5
20D
330
1F
100
AcDbEntity
  8
0
  6
Continuous
 62
     7
370
    25
100
AcDbCircle
 10
1327.2485557858
 20
969.9847490597
 30
0.0
 40
0.9918700000000626
  0
CIRCLE
  5
20E
330
1F
100
AcDbEntity
  8
0
  6
Continuous
 62
     7
370
    25
100
AcDbCircle
 10
1310.3152224525
 20
969.9847490597
 30
0.0
 40
0.9918700000000626
  0
CIRCLE
  5
20F
330
1F
100
AcDbEntity
  8
0
  6
Continuous
 62
     7
370
    25
100
AcDbCircle
 10
1293.3818891191
 20
969.9847490597
 30
0.0
 40
0.9918699999998353
  0
CIRCLE
  5
210
330
1F
100
AcDbEntity
  8
0
  6
Continuous
 62
     7
370
    25
100
AcDbCircle
 10
710.678554799
 20
982.6847490605
 30
0.0
 40
2.457450000000108
  0
CIRCLE
  5
211
330
1F
100
AcDbEntity
  8
0
  6
Continuous
 62
     7
370
    25
100
AcDbCircle
 10
710.678554799
 20
1033.4847490605
 30
0.0
 40
2.457450000000108
  0
CIRCLE
  5
212
330
1F
100
AcDbEntity
  8
0
  6
Continuous
 62
     7
370
    25
100
AcDbCircle
 10
710.678554799
 20
1084.2847490605
 30
0.0
 40
2.457450000000108
  0
CIRCLE
  5
213
330
1F
100
AcDbEntity
  8
0
  6
Continuous
 62
     7
370
    25
100
AcDbCircle
 10
1293.3818891191
 20
1159.7120564588
 30
0.0
 40
0.9918699999998353
  0
CIRCLE
  5
214
330
1F
100
AcDbEntity
  8
0
  6
Continuous
 62
     7
370
    25
100
AcDbCircle
 10
1327.2485557858
 20
1159.7120564588
 30
0.0
 40
0.9918700000000626
  0
CIRCLE
  5
215
330
1F
100
AcDbEntity
  8
0
  6
Continuous
 62
     7
370
    25
100
AcDbCircle
 10
1310.3152224525
 20
1159.7120564588
 30
0.0
 40
0.9918700000000626
  0
SPLINE
  5
216
330
1F
100
AcDbEntity
  8
0
  6
Continuous
 62
     7
370
    25
100
AcDbSpline
210
0.0
220
0.0
230
1.0
 70
     8
 71
     3
 72
    10
 73
     6
 74
     0
 42
0.00000001
 43
0.00000001
 40
-64.5398702067748
 40
-64.5398702067748
 40
-64.5398702067748
 40
-64.5398702067748
 40
-29.0215529968015
 40
-29.0215529968015
 40
-9.17980984821859
 40
-9.17980984821859
 40
-9.17980984821859
 40
-9.17980984821859
 10
675.7446051178058
 20
1102.165720058253
 30
0.0
 10
555.7107642810062
 20
1149.688556552733
 30
0.0
 10
427.872216732631
 20
1175.828422072172
 30
0.0
 10
178.8422156647401
 20
1182.648428830026
 30
0.0
 10
86.825619868048
 20
1177.974975213868
 30
0.0
 10
6.945105843111865
 20
1170.365767390999
 30
0.0
  0
LINE
  5
217
330
1F
100
AcDbEntity
  8
0
  6
Continuous
 62
     7
370
    25
100
AcDbLine
 10
675.7446054193
 20
931.0872709946
 30
0.0
 11
675.7446051178
 21
1102.1657200583
 31
0.0
  0
CIRCLE
  5
218
330
1F
100
AcDbEntity
  8
0
  6
Continuous
 62
     7
370
    25
100
AcDbCircle
 10
32.3451055167
 20
959.6622709939
 30
0.0
 40
5.079999999999977
  0
CIRCLE
  5
219
330
1F
100
AcDbEntity
  8
0
  6
Continuous
 62
     7
370
    25
100
AcDbCircle
 10
66.2117721834
 20
959.6622709939
 30
0.0
 40
5.07999999999997
  0
CIRCLE
  5
21A
330
1F
100
AcDbEntity
  8
0
  6
Continuous
 62
     7
370
    25
100
AcDbCircle
 10
49.2784388501
 20
959.6622709939
 30
0.0
 40
5.079999999999977
  0
CIRCLE
  5
21B
330
1F
100
AcDbEntity
  8
0
  6
Continuous
 62
     7
370
    25
100
AcDbCircle
 10
32.3451055168
 20
1149.3895783929
 30
0.0
 40
5.079999999999977
  0
CIRCLE
  5
21C
330
1F
100
AcDbEntity
  8
0
  6
Continuous
 62
     7
370
    25
100
AcDbCircle
 10
49.2784388501
 20
1149.3895783929
 30
0.0
 40
5.079999999999977
  0
CIRCLE
  5
21D
330
1F
100
AcDbEntity
  8
0
  6
Continuous
 62
     7
370
    25
100
AcDbCircle
 10
66.2117721834
 20
1149.3895783929
 30
0.0
 40
5.07999999999997
  0
CIRCLE
  5
21E
330
1F
100
AcDbEntity
  8
0
  6
Continuous
 62
     7
370
    25
100
AcDbCircle
 10
648.9151065035
 20
972.3622709946
 30
0.0
 40
4.216400000000249
  0
CIRCLE
  5
21F
330
1F
100
AcDbEntity
  8
0
  6
Continuous
 62
     7
370
    25
100
AcDbCircle
 10
648.9151065035
 20
1023.1622709946
 30
0.0
 40
4.216400000000249
  0
CIRCLE
  5
220
330
1F
100
AcDbEntity
  8
0
  6
Continuous
 62
     7
370
    25
100
AcDbCircle
 10
648.9151065035
 20
1073.9622709946
 30
0.0
 40
4.216400000000249
  0
LINE
  5
221
330
1F
100
AcDbEntity
  8
0
  6
Continuous
 62
     7
370
    25
100
AcDbLine
 10
6.9451058286
 20
931.0872709946
 30
0.0
 11
675.7446054193
 21
931.0872709946
 31
0.0
  0
LINE
  5
222
330
1F
100
AcDbEntity
  8
0
  6
Continuous
 62
     7
370
    25
100
AcDbLine
 10
6.9451058286
 20
1170.365767543
 30
0.0
 11
6.9451058286
 21
931.0872709946
 31
0.0
  0
CIRCLE
  5
223
330
1F
100
AcDbEntity
  8
0
  6
Continuous
 62
     7
370
    25
100
AcDbCircle
 10
66.2117721834
 20
959.6622709939
 30
0.0
 40
0.9918700000000058
  0
CIRCLE
  5
224
330
1F
100
AcDbEntity
  8
0
  6
Continuous
 62
     7
370
    25
100
AcDbCircle
 10
32.3451055167
 20
959.6622709939
 30
0.0
 40
0.9918700000000058
  0
CIRCLE
  5
225
330
1F
100
AcDbEntity
  8
0
  6
Continuous
 62
     7
370
    25
100
AcDbCircle
 10
49.2784388501
 20
959.6622709939
 30
0.0
 40
0.9918700000000058
  0
CIRCLE
  5
226
330
1F
100
AcDbEntity
  8
0
  6
Continuous
 62
     7
370
    25
100
AcDbCircle
 10
648.9151065035
 20
972.3622709946
 30
0.0
 40
2.457450000000108
  0
CIRCLE
  5
227
330
1F
100
AcDbEntity
  8
0
  6
Continuous
 62
     7
370
    25
100
AcDbCircle
 10
648.9151065035
 20
1023.1622709946
 30
0.0
 40
2.457450000000108
  0
CIRCLE
  5
228
330
1F
100
AcDbEntity
  8
0
  6
Continuous
 62
     7
370
    25
100
AcDbCircle
 10
648.9151065035
 20
1073.9622709946
 30
0.0
 40
2.457450000000108
  0
CIRCLE
  5
229
330
1F
100
AcDbEntity
  8
0
  6
Continuous
 62
     7
370
    25
100
AcDbCircle
 10
66.2117721834
 20
1149.3895783929
 30
0.0
 40
0.9918700000000058
  0
CIRCLE
  5
22A
330
1F
100
AcDbEntity
  8
0
  6
Continuous
 62
     7
370
    25
100
AcDbCircle
 10
49.2784388501
 20
1149.3895783929
 30
0.0
 40
0.9918700000000058
  0
CIRCLE
  5
22B
330
1F
100
AcDbEntity
  8
0
  6
Continuous
 62
     7
370
    25
100
AcDbCircle
 10
32.3451055168
 20
1149.3895783929
 30
0.0
 40
0.9918700000000058
  0
CIRCLE
  5
22C
330
1F
100
AcDbEntity
  8
0
  6
Continuous
 62
     7
370
    25
100
AcDbCircle
 10
2324.2998828686
 20
370.7127616876
 30
0.0
 40
0.9918699999998353
  0
CIRCLE
  5
22D
330
1F
100
AcDbEntity
  8
0
  6
Continuous
 62
     7
370
    25
100
AcDbCircle
 10
2271.8168543277
 20
798.7535618717
 30
0.0
 40
0.9918699999998353
  0
CIRCLE
  5
22E
330
1F
100
AcDbEntity
  8
0
  6
Continuous
 62
     7
370
    25
100
AcDbCircle
 10
2269.1175990389
 20
818.551605286
 30
0.0
 40
0.9918699999998353
  0
CIRCLE
  5
22F
330
1F
100
AcDbEntity
  8
0
  6
Continuous
 62
     7
370
    25
100
AcDbCircle
 10
2257.3130597753
 20
132.5877619138
 30
0.0
 40
0.9922510000001239
  0
CIRCLE
  5
230
330
1F
100
AcDbEntity
  8
0
  6
Continuous
 62
     7
370
    25
100
AcDbCircle
 10
2170.8543928932
 20
132.5877619138
 30
0.0
 40
0.9922510000001239
  0
CIRCLE
  5
231
330
1F
100
AcDbEntity
  8
0
  6
Continuous
 62
     7
370
    25
100
AcDbCircle
 10
2349.6998828686
 20
132.5877619138
 30
0.0
 40
0.9922510000001239
  0
CIRCLE
  5
232
330
1F
100
AcDbEntity
  8
0
  6
Continuous
 62
     7
370
    25
100
AcDbCircle
 10
2349.6998828686
 20
167.5127618155
 30
0.0
 40
0.9922510000001239
  0
CIRCLE
  5
233
330
1F
100
AcDbEntity
  8
0
  6
Continuous
 62
     7
370
    25
100
AcDbCircle
 10
2349.6998828686
 20
243.7127618155
 30
0.0
 40
0.9922510000001239
  0
CIRCLE
  5
234
330
1F
100
AcDbEntity
  8
0
  6
Continuous
 62
     7
370
    25
100
AcDbCircle
 10
2349.6998828686
 20
278.6382401569
 30
0.0
 40
0.9922510000001239
  0
CIRCLE
  5
235
330
1F
100
AcDbEntity
  8
0
  6
Continuous
 62
     7
370
    25
100
AcDbCircle
 10
2339.2937547944
 20
278.6377618232
 30
0.0
 40
0.9922510000001239
  0
CIRCLE
  5
236
330
1F
100
AcDbEntity
  8
0
  6
Continuous
 62
     7
370
    25
100
AcDbCircle
 10
2324.2998828686
 20
332.6127616876
 30
0.0
 40
0.9922509999996691
  0
CIRCLE
  5
237
330
1F
100
AcDbEntity
  8
0
  6
Continuous
 62
     7
370
    25
100
AcDbCircle
 10
2324.2998828686
 20
408.8127616876
 30
0.0
 40
0.9922509999996691
  0
CIRCLE
  5
238
330
1F
100
AcDbEntity
  8
0
  6
Continuous
 62
     7
370
    25
100
AcDbCircle
 10
2171.276236682
 20
583.4377618717
 30
0.0
 40
0.9922510000001239
  0
CIRCLE
  5
239
330
1F
100
AcDbEntity
  8
0
  6
Continuous
 62
     7
370
    25
100
AcDbCircle
 10
2171.276236682
 20
507.2377618717
 30
0.0
 40
0.9922510000001239
  0
CIRCLE
  5
23A
330
1F
100
AcDbEntity
  8
0
  6
Continuous
 62
     7
370
    25
100
AcDbCircle
 10
2170.8543928932
 20
462.7877627107
 30
0.0
 40
0.9922510000001239
  0
CIRCLE
  5
23B
330
1F
100
AcDbEntity
  8
0
  6
Continuous
 62
     7
370
    25
100
AcDbCircle
 10
2266.1043928932
 20
462.7877627107
 30
0.0
 40
0.9922510000001239
  0
CIRCLE
  5
23C
330
1F
100
AcDbEntity
  8
0
  6
Continuous
 62
     7
370
    25
100
AcDbCircle
 10
2361.3543928932
 20
462.7877627107
 30
0.0
 40
0.9922510000001239
  0
CIRCLE
  5
23D
330
1F
100
AcDbEntity
  8
0
  6
Continuous
 62
     7
370
    25
100
AcDbCircle
 10
2360.9325491044
 20
507.2377618717
 30
0.0
 40
0.9922510000001239
  0
CIRCLE
  5
23E
330
1F
100
AcDbEntity
  8
0
  6
Continuous
 62
     7
370
    25
100
AcDbCircle
 10
2360.9325491044
 20
583.4377618717
 30
0.0
 40
0.9922510000001239
  0
CIRCLE
  5
23F
330
1F
100
AcDbEntity
  8
0
  6
Continuous
 62
     7
370
    25
100
AcDbCircle
 10
2335.5325491044
 20
751.4206618717
 30
0.0
 40
0.9922510000001239
  0
CIRCLE
  5
240
330
1F
100
AcDbEntity
  8
0
  6
Continuous
 62
     7
370
    25
100
AcDbCircle
 10
2335.5325491044
 20
675.2206618717
 30
0.0
 40
0.9922510000001239
  0
CIRCLE
  5
241
330
1F
100
AcDbEntity
  8
0
  6
Continuous
 62
     7
370
    25
100
AcDbCircle
 10
2364.1621497478
 20
627.8877618717
 30
0.0
 40
0.9922509999996691
  0
CIRCLE
  5
242
330
1F
100
AcDbEntity
  8
0
  6
Continuous
 62
     7
370
    25
100
AcDbCircle
 10
2173.6621497478
 20
627.8877618717
 30
0.0
 40
0.9922510000001239
  0
CIRCLE
  5
243
330
1F
100
AcDbEntity
  8
0
  6
Continuous
 62
     7
370
    25
100
AcDbCircle
 10
2196.6762366821
 20
675.2206618717
 30
0.0
 40
0.9922510000001239
  0
CIRCLE
  5
244
330
1F
100
AcDbEntity
  8
0
  6
Continuous
 62
     7
370
    25
100
AcDbCircle
 10
2196.6762366821
 20
751.4206618717
 30
0.0
 40
0.9922510000005786
  0
CIRCLE
  5
245
330
1F
100
AcDbEntity
  8
0
  6
Continuous
 62
     7
370
    25
100
AcDbCircle
 10
2176.5668543277
 20
798.7535618717
 30
0.0
 40
0.9922510000001239
  0
CIRCLE
  5
246
330
1F
100
AcDbEntity
  8
0
  6
Continuous
 62
     7
370
    25
100
AcDbCircle
 10
2367.0668543277
 20
798.7535618717
 30
0.0
 40
0.9922510000001239
  0
CIRCLE
  5
247
330
1F
100
AcDbEntity
  8
0
  6
Continuous
 62
     7
370
    25
100
AcDbCircle
 10
2373.7035440804
 20
1152.2187003462
 30
0.0
 40
0.9922510000001239
  0
CIRCLE
  5
248
330
1F
100
AcDbEntity
  8
0
  6
Continuous
 62
     7
370
    25
100
AcDbCircle
 10
2373.7035440804
 20
999.8187003462
 30
0.0
 40
0.9922510000001239
  0
CIRCLE
  5
249
330
1F
100
AcDbEntity
  8
0
  6
Continuous
 62
     7
370
    25
100
AcDbCircle
 10
2373.7035440804
 20
847.4187003462
 30
0.0
 40
0.9922510000001239
  0
CIRCLE
  5
24A
330
1F
100
AcDbEntity
  8
0
  6
Continuous
 62
     7
370
    25
100
AcDbCircle
 10
2364.1785440804
 20
818.5515146426
 30
0.0
 40
0.9922510000001239
  0
CIRCLE
  5
24B
330
1F
100
AcDbEntity
  8
0
  6
Continuous
 62
     7
370
    25
100
AcDbCircle
 10
2173.8675990389
 20
818.551605286
 30
0.0
 40
0.9922510000001239
  0
CIRCLE
  5
24C
330
1F
100
AcDbEntity
  8
0
  6
Continuous
 62
     7
370
    25
100
AcDbCircle
 10
2183.9762366813
 20
847.4187003461
 30
0.0
 40
0.9922509999996691
  0
CIRCLE
  5
24D
330
1F
100
AcDbEntity
  8
0
  6
Continuous
 62
     7
370
    25
100
AcDbCircle
 10
2183.9762366813
 20
999.8187003463
 30
0.0
 40
0.9922510000001239
  0
CIRCLE
  5
24E
330
1F
100
AcDbEntity
  8
0
  6
Continuous
 62
     7
370
    25
100
AcDbCircle
 10
2183.9762366813
 20
1152.2187003463
 30
0.0
 40
0.9922509999996691
  0
CIRCLE
  5
24F
330
1F
100
AcDbEntity
  8
0
  6
Continuous
 62
     7
370
    25
100
AcDbCircle
 10
2179.7904849563
 20
1180.3377544025
 30
0.0
 40
0.9922510000001239
  0
CIRCLE
  5
250
330
1F
100
AcDbEntity
  8
0
  6
Continuous
 62
     7
370
    25
100
AcDbCircle
 10
2275.0404849563
 20
1180.3377544025
 30
0.0
 40
0.9922509999996691
  0
CIRCLE
  5
251
330
1F
100
AcDbEntity
  8
0
  6
Continuous
 62
     7
370
    25
100
AcDbCircle
 10
2370.2904849563
 20
1180.3377544025
 30
0.0
 40
0.9922509999996691
  0
CIRCLE
  5
252
330
1F
100
AcDbEntity
  8
0
  6
Continuous
 62
     7
370
    25
100
AcDbCircle
 10
2174.4512366821
 20
369.0450669597
 30
0.0
 40
2.976626000000124
  0
CIRCLE
  5
253
330
1F
100
AcDbEntity
  8
0
  6
Continuous
 62
     7
370
    25
100
AcDbCircle
 10
2174.4512366821
 20
310.5600891877
 30
0.0
 40
2.976626000000124
  0
CIRCLE
  5
254
330
1F
100
AcDbEntity
  8
0
  6
Continuous
 62
     7
370
    25
100
AcDbCircle
 10
2174.4512366821
 20
252.0751116697
 30
0.0
 40
2.976626000000124
  0
CIRCLE
  5
255
330
1F
100
AcDbEntity
  8
0
  6
Continuous
 62
     7
370
    25
100
AcDbCircle
 10
2285.5762366821
 20
369.0450669597
 30
0.0
 40
2.976625999999669
  0
CIRCLE
  5
256
330
1F
100
AcDbEntity
  8
0
  6
Continuous
 62
     7
370
    25
100
AcDbCircle
 10
2285.5762366821
 20
310.5600891877
 30
0.0
 40
2.976625999999669
  0
CIRCLE
  5
257
330
1F
100
AcDbEntity
  8
0
  6
Continuous
 62
     7
370
    25
100
AcDbCircle
 10
2285.5762366821
 20
252.0751116697
 30
0.0
 40
2.976625999999669
  0
LINE
  5
258
330
1F
100
AcDbEntity
  8
0
  6
Continuous
 62
     7
370
    25
100
AcDbLine
 10
2155.4012366821
 20
123.0627618717
 30
0.0
 11
2358.5817282363
 21
123.0627619798
 31
0.0
  0
LINE
  5
259
330
1F
100
AcDbEntity
  8
0
  6
Continuous
 62
     7
370
    25
100
AcDbLine
 10
2155.4012366821
 20
1189.8627567932
 30
0.0
 11
2155.4012366821
 21
123.0627618717
 31
0.0
  0
LINE
  5
25A
330
1F
100
AcDbEntity
  8
0
  6
Continuous
 62
     7
370
    25
100
AcDbLine
 10
2394.6797332305
 20
1189.8627567932
 30
0.0
 11
2155.4012366821
 21
1189.8627567932
 31
0.0
  0
LINE
  5
25B
330
1F
100
AcDbEntity
  8
0
  6
Continuous
 62
     7
370
    25
100
AcDbLine
 10
2358.5817282363
 20
123.0627619798
 30
0.0
 11
2394.6797332305
 21
1189.8627567932
 31
0.0
  0
CIRCLE
  5
25C
330
1F
100
AcDbEntity
  8
0
  6
Continuous
 62
     7
370
    25
100
AcDbCircle
 10
2268.9121497478
 20
627.8877618717
 30
0.0
 40
0.9922510000001239
  0
CIRCLE
  5
25D
330
1F
100
AcDbEntity
  8
0
  6
Continuous
 62
     7
370
    25
100
AcDbCircle
 10
2043.4607041256
 20
132.674610224
 30
0.0
 40
0.9922509999998965
  0
CIRCLE
  5
25E
330
1F
100
AcDbEntity
  8
0
  6
Continuous
 62
     7
370
    25
100
AcDbCircle
 10
2129.9193710077
 20
132.674610224
 30
0.0
 40
0.9922510000001239
  0
CIRCLE
  5
25F
330
1F
100
AcDbEntity
  8
0
  6
Continuous
 62
     7
370
    25
100
AcDbCircle
 10
1951.0738810323
 20
132.674610224
 30
0.0
 40
0.9922509999998965
  0
CIRCLE
  5
260
330
1F
100
AcDbEntity
  8
0
  6
Continuous
 62
     7
370
    25
100
AcDbCircle
 10
2129.4975272188
 20
167.5996101258
 30
0.0
 40
0.9922509999996691
  0
CIRCLE
  5
261
330
1F
100
AcDbEntity
  8
0
  6
Continuous
 62
     7
370
    25
100
AcDbCircle
 10
2129.4975272188
 20
243.7996101258
 30
0.0
 40
0.9922509999996691
  0
CIRCLE
  5
262
330
1F
100
AcDbEntity
  8
0
  6
Continuous
 62
     7
370
    25
100
AcDbCircle
 10
1951.0738810323
 20
167.5996101258
 30
0.0
 40
0.9922509999998965
  0
CIRCLE
  5
263
330
1F
100
AcDbEntity
  8
0
  6
Continuous
 62
     7
370
    25
100
AcDbCircle
 10
1951.0738810323
 20
243.7996101258
 30
0.0
 40
0.9922509999998965
  0
CIRCLE
  5
264
330
1F
100
AcDbEntity
  8
0
  6
Continuous
 62
     7
370
    25
100
AcDbCircle
 10
1951.0738810323
 20
278.7250884672
 30
0.0
 40
0.9922509999998965
  0
CIRCLE
  5
265
330
1F
100
AcDbEntity
  8
0
  6
Continuous
 62
     7
370
    25
100
AcDbCircle
 10
2037.801206766
 20
278.7246101698
 30
0.0
 40
0.9922510000001239
  0
CIRCLE
  5
266
330
1F
100
AcDbEntity
  8
0
  6
Continuous
 62
     7
370
    25
100
AcDbCircle
 10
2129.9193710077
 20
278.7246101698
 30
0.0
 40
0.9922510000001239
  0
CIRCLE
  5
267
330
1F
100
AcDbEntity
  8
0
  6
Continuous
 62
     7
370
    25
100
AcDbCircle
 10
1976.4738810323
 20
332.6996099979
 30
0.0
 40
0.9922509999998965
  0
CIRCLE
  5
268
330
1F
100
AcDbEntity
  8
0
  6
Continuous
 62
     7
370
    25
100
AcDbCircle
 10
1976.4738810323
 20
408.8996099979
 30
0.0
 40
0.9922509999998965
  0
CIRCLE
  5
269
330
1F
100
AcDbEntity
  8
0
  6
Continuous
 62
     7
370
    25
100
AcDbCircle
 10
2129.4975272188
 20
583.524610182
 30
0.0
 40
0.9922510000001239
  0
CIRCLE
  5
26A
330
1F
100
AcDbEntity
  8
0
  6
Continuous
 62
     7
370
    25
100
AcDbCircle
 10
2129.4975272188
 20
507.324610182
 30
0.0
 40
0.9922510000001239
  0
CIRCLE
  5
26B
330
1F
100
AcDbEntity
  8
0
  6
Continuous
 62
     7
370
    25
100
AcDbCircle
 10
2129.9193710077
 20
462.874610182
 30
0.0
 40
0.9922510000001239
  0
CIRCLE
  5
26C
330
1F
100
AcDbEntity
  8
0
  6
Continuous
 62
     7
370
    25
100
AcDbCircle
 10
2034.6693710077
 20
462.874610182
 30
0.0
 40
0.9922509999998965
  0
CIRCLE
  5
26D
330
1F
100
AcDbEntity
  8
0
  6
Continuous
 62
     7
370
    25
100
AcDbCircle
 10
1939.4193710077
 20
462.874610182
 30
0.0
 40
0.9922510000001239
  0
CIRCLE
  5
26E
330
1F
100
AcDbEntity
  8
0
  6
Continuous
 62
     7
370
    25
100
AcDbCircle
 10
1939.8412147965
 20
507.324610182
 30
0.0
 40
0.9922509999998965
  0
CIRCLE
  5
26F
330
1F
100
AcDbEntity
  8
0
  6
Continuous
 62
     7
370
    25
100
AcDbCircle
 10
1939.8412147965
 20
583.524610182
 30
0.0
 40
0.9922509999998965
  0
CIRCLE
  5
270
330
1F
100
AcDbEntity
  8
0
  6
Continuous
 62
     7
370
    25
100
AcDbCircle
 10
1965.2412147965
 20
675.307510182
 30
0.0
 40
0.9922509999998965
  0
CIRCLE
  5
271
330
1F
100
AcDbEntity
  8
0
  6
Continuous
 62
     7
370
    25
100
AcDbCircle
 10
1936.6116141531
 20
627.974610182
 30
0.0
 40
0.9922510000001239
  0
CIRCLE
  5
272
330
1F
100
AcDbEntity
  8
0
  6
Continuous
 62
     7
370
    25
100
AcDbCircle
 10
2031.8616141531
 20
627.974610182
 30
0.0
 40
0.9922509999996691
  0
CIRCLE
  5
273
330
1F
100
AcDbEntity
  8
0
  6
Continuous
 62
     7
370
    25
100
AcDbCircle
 10
2127.1116141531
 20
627.974610182
 30
0.0
 40
0.9922510000001239
  0
CIRCLE
  5
274
330
1F
100
AcDbEntity
  8
0
  6
Continuous
 62
     7
370
    25
100
AcDbCircle
 10
2104.0975272188
 20
675.3075101819
 30
0.0
 40
0.9922509999996691
  0
CIRCLE
  5
275
330
1F
100
AcDbEntity
  8
0
  6
Continuous
 62
     7
370
    25
100
AcDbCircle
 10
2104.0975272188
 20
751.507510182
 30
0.0
 40
0.9922509999992144
  0
CIRCLE
  5
276
330
1F
100
AcDbEntity
  8
0
  6
Continuous
 62
     7
370
    25
100
AcDbCircle
 10
2124.2069095731
 20
798.840410182
 30
0.0
 40
0.9922510000001239
  0
CIRCLE
  5
277
330
1F
100
AcDbEntity
  8
0
  6
Continuous
 62
     7
370
    25
100
AcDbCircle
 10
2028.9569095731
 20
798.840410182
 30
0.0
 40
0.9922509999998965
  0
CIRCLE
  5
278
330
1F
100
AcDbEntity
  8
0
  6
Continuous
 62
     7
370
    25
100
AcDbCircle
 10
1933.7069095731
 20
798.840410182
 30
0.0
 40
0.9922510000001239
  0
CIRCLE
  5
279
330
1F
100
AcDbEntity
  8
0
  6
Continuous
 62
     7
370
    25
100
AcDbCircle
 10
1927.0702198205
 20
1152.3055486564
 30
0.0
 40
0.9922509999998965
  0
CIRCLE
  5
27A
330
1F
100
AcDbEntity
  8
0
  6
Continuous
 62
     7
370
    25
100
AcDbCircle
 10
1927.0702198205
 20
999.9055486564
 30
0.0
 40
0.9922509999998965
  0
CIRCLE
  5
27B
330
1F
100
AcDbEntity
  8
0
  6
Continuous
 62
     7
370
    25
100
AcDbCircle
 10
1927.0702198205
 20
847.5055486564
 30
0.0
 40
0.9922509999998965
  0
CIRCLE
  5
27C
330
1F
100
AcDbEntity
  8
0
  6
Continuous
 62
     7
370
    25
100
AcDbCircle
 10
1936.5952198205
 20
818.6383629528
 30
0.0
 40
0.9922510000001239
  0
CIRCLE
  5
27D
330
1F
100
AcDbEntity
  8
0
  6
Continuous
 62
     7
370
    25
100
AcDbCircle
 10
2031.656164862
 20
818.6384535962
 30
0.0
 40
0.9922510000001239
  0
CIRCLE
  5
27E
330
1F
100
AcDbEntity
  8
0
  6
Continuous
 62
     7
370
    25
100
AcDbCircle
 10
2126.906164862
 20
818.6384535962
 30
0.0
 40
0.9922510000001239
  0
CIRCLE
  5
27F
330
1F
100
AcDbEntity
  8
0
  6
Continuous
 62
     7
370
    25
100
AcDbCircle
 10
2116.7975272195
 20
847.5055486564
 30
0.0
 40
0.9922510000001239
  0
CIRCLE
  5
280
330
1F
100
AcDbEntity
  8
0
  6
Continuous
 62
     7
370
    25
100
AcDbCircle
 10
2116.7975272195
 20
999.9055486565
 30
0.0
 40
0.9922509999996691
  0
CIRCLE
  5
281
330
1F
100
AcDbEntity
  8
0
  6
Continuous
 62
     7
370
    25
100
AcDbCircle
 10
2116.7975272195
 20
1152.3055486565
 30
0.0
 40
0.9922510000001239
  0
CIRCLE
  5
282
330
1F
100
AcDbEntity
  8
0
  6
Continuous
 62
     7
370
    25
100
AcDbCircle
 10
2120.9832789446
 20
1180.4246027127
 30
0.0
 40
0.9922510000001239
  0
CIRCLE
  5
283
330
1F
100
AcDbEntity
  8
0
  6
Continuous
 62
     7
370
    25
100
AcDbCircle
 10
2025.7332789446
 20
1180.4246027127
 30
0.0
 40
0.9922510000001239
  0
CIRCLE
  5
284
330
1F
100
AcDbEntity
  8
0
  6
Continuous
 62
     7
370
    25
100
AcDbCircle
 10
1930.4832789446
 20
1180.4246027127
 30
0.0
 40
0.9922510000001239
  0
LINE
  5
285
330
1F
100
AcDbEntity
  8
0
  6
Continuous
 62
     7
370
    25
100
AcDbLine
 10
2145.3725272188
 20
123.149610182
 30
0.0
 11
1942.1920356646
 21
123.1496102901
 31
0.0
  0
LINE
  5
286
330
1F
100
AcDbEntity
  8
0
  6
Continuous
 62
     7
370
    25
100
AcDbLine
 10
2145.3725272188
 20
1189.9496051034
 30
0.0
 11
2145.3725272188
 21
123.149610182
 31
0.0
  0
LINE
  5
287
330
1F
100
AcDbEntity
  8
0
  6
Continuous
 62
     7
370
    25
100
AcDbLine
 10
1906.0940306704
 20
1189.9496051034
 30
0.0
 11
2145.3725272188
 21
1189.9496051034
 31
0.0
  0
LINE
  5
288
330
1F
100
AcDbEntity
  8
0
  6
Continuous
 62
     7
370
    25
100
AcDbLine
 10
1942.1920356646
 20
123.1496102901
 30
0.0
 11
1906.0940306704
 21
1189.9496051034
 31
0.0
  0
CIRCLE
  5
289
330
1F
100
AcDbEntity
  8
0
  6
Continuous
 62
     7
370
    25
100
AcDbCircle
 10
1965.2412147965
 20
751.507510182
 30
0.0
 40
0.9922509999998965
  0
ARC
  5
28A
330
1F
100
AcDbEntity
  8
0
  6
Continuous
 62
     7
370
    25
100
AcDbCircle
 10
1221.3743327935
 20
777.3351503914
 30
0.0
 40
25.40000000000439
100
AcDbArc
 50
129.2312088568
 51
135.364310288
  0
LINE
  5
28B
330
1F
100
AcDbEntity
  8
0
  6
Continuous
 62
     7
370
    25
100
AcDbLine
 10
1205.3100692894
 20
797.0099931626
 30
0.0
 11
1271.1168514579
 21
850.7404092787
 31
0.0
  0
ARC
  5
28C
330
1F
100
AcDbEntity
  8
0
  6
Continuous
 62
     7
370
    25
100
AcDbCircle
 10
1367.4991730907
 20
732.6886914738
 30
0.0
 40
152.400000000003
100
AcDbArc
 50
90.0
 51
129.2296269102
  0
LINE
  5
28D
330
1F
100
AcDbEntity
  8
0
  6
Continuous
 62
     7
370
    25
100
AcDbLine
 10
1367.4991730907
 20
885.0886914738
 30
0.0
 11
1392.5308730907
 21
885.0886914738
 31
0.0
  0
LINE
  5
28E
330
1F
100
AcDbEntity
  8
0
  6
Continuous
 62
     7
370
    25
100
AcDbLine
 10
1392.5308730907
 20
885.0886914738
 30
0.0
 11
1392.5308730907
 21
847.9411914738
 31
0.0
  0
ARC
  5
28F
330
1F
100
AcDbEntity
  8
0
  6
Continuous
 62
     7
370
    25
100
AcDbCircle
 10
1395.7058730907
 20
847.9411914738
 30
0.0
 40
3.175000000001091
100
AcDbArc
 50
180.0
 51
270.0
  0
LINE
  5
290
330
1F
100
AcDbEntity
  8
0
  6
Continuous
 62
     7
370
    25
100
AcDbLine
 10
1395.7058730907
 20
844.7661914738
 30
0.0
 11
1567.8924730906
 21
844.7661914738
 31
0.0
  0
ARC
  5
291
330
1F
100
AcDbEntity
  8
0
  6
Continuous
 62
     7
370
    25
100
AcDbCircle
 10
1567.8924730906
 20
847.9411914738
 30
0.0
 40
3.175000000001887
100
AcDbArc
 50
270.0
 51
360.0
  0
LINE
  5
292
330
1F
100
AcDbEntity
  8
0
  6
Continuous
 62
     7
370
    25
100
AcDbLine
 10
1571.0674730906
 20
847.9411914738
 30
0.0
 11
1571.0674730906
 21
885.0886914738
 31
0.0
  0
LINE
  5
293
330
1F
100
AcDbEntity
  8
0
  6
Continuous
 62
     7
370
    25
100
AcDbLine
 10
1571.0674730906
 20
885.0886914738
 30
0.0
 11
1596.0991730906
 21
885.0886914738
 31
0.0
  0
ARC
  5
294
330
1F
100
AcDbEntity
  8
0
  6
Continuous
 62
     7
370
    25
100
AcDbCircle
 10
1596.0991730906
 20
732.6886914738
 30
0.0
 40
152.4000000000098
100
AcDbArc
 50
50.7703730898
 51
90.0
  0
LINE
  5
295
330
1F
100
AcDbEntity
  8
0
  6
Continuous
 62
     7
370
    25
100
AcDbLine
 10
1692.4814947234
 20
850.7404092787
 30
0.0
 11
1762.1008730906
 21
793.3242478115
 31
0.0
  0
ARC
  5
296
330
1F
100
AcDbEntity
  8
0
  6
Continuous
 62
     7
370
    25
100
AcDbCircle
 10
1651.852269487
 20
688.1054025248
 30
0.0
 40
152.4000000000091
100
AcDbArc
 50
19.5243799486
 51
43.6627604465
  0
LINE
  5
297
330
1F
100
AcDbEntity
  8
0
  6
Continuous
 62
     7
370
    25
100
AcDbLine
 10
1795.4891730906
 20
739.0386914738
 30
0.0
 11
1795.4891730906
 21
654.9011914738
 31
0.0
  0
LINE
  5
298
330
1F
100
AcDbEntity
  8
0
  6
Continuous
 62
     7
370
    25
100
AcDbLine
 10
1795.4891730906
 20
654.9011914738
 30
0.0
 11
1168.1091730906
 21
654.9011914738
 31
0.0
  0
LINE
  5
299
330
1F
100
AcDbEntity
  8
0
  6
Continuous
 62
     7
370
    25
100
AcDbLine
 10
1168.1091730906
 20
654.9011914738
 30
0.0
 11
1168.1091730906
 21
734.4630839404
 31
0.0
  0
ARC
  5
29A
330
1F
100
AcDbEntity
  8
0
  6
Continuous
 62
     7
370
    25
100
AcDbCircle
 10
1193.5091730906
 20
734.4630839404
 30
0.0
 40
25.40000000000014
100
AcDbArc
 50
158.5911179293
 51
180.0
  0
ARC
  5
29B
330
1F
100
AcDbEntity
  8
0
  6
Continuous
 62
     7
370
    25
100
AcDbCircle
 10
1311.7460766943
 20
688.1054025248
 30
0.0
 40
152.4000000000055
100
AcDbArc
 50
135.364310288
 51
158.5911179293
  0
CIRCLE
  5
29C
330
1F
100
AcDbEntity
  8
0
  6
Continuous
 62
     7
370
    25
100
AcDbCircle
 10
1745.1915894543
 20
680.3069192359
 30
0.0
 40
0.9922510000001239
  0
CIRCLE
  5
29D
330
1F
100
AcDbEntity
  8
0
  6
Continuous
 62
     7
370
    25
100
AcDbCircle
 10
1744.9192599469
 20
779.0261778775
 30
0.0
 40
0.9922509999998965
  0
CIRCLE
  5
29E
330
1F
100
AcDbEntity
  8
0
  6
Continuous
 62
     7
370
    25
100
AcDbCircle
 10
1580.6979303154
 20
846.9967868401
 30
0.0
 40
0.9922509999998965
  0
CIRCLE
  5
29F
330
1F
100
AcDbEntity
  8
0
  6
Continuous
 62
     7
370
    25
100
AcDbCircle
 10
1581.1212628433
 20
693.5390374137
 30
0.0
 40
0.9922509999998965
  0
CIRCLE
  5
2A0
330
1F
100
AcDbEntity
  8
0
  6
Continuous
 62
     7
370
    25
100
AcDbCircle
 10
1535.3601530906
 20
838.4161914738
 30
0.0
 40
0.9922510000001239
  0
CIRCLE
  5
2A1
330
1F
100
AcDbEntity
  8
0
  6
Continuous
 62
     7
370
    25
100
AcDbCircle
 10
1428.2381930906
 20
838.4161914738
 30
0.0
 40
0.9922509999998965
  0
CIRCLE
  5
2A2
330
1F
100
AcDbEntity
  8
0
  6
Continuous
 62
     7
370
    25
100
AcDbCircle
 10
1383.0058730907
 20
693.2657748071
 30
0.0
 40
0.9922509999998965
  0
CIRCLE
  5
2A3
330
1F
100
AcDbEntity
  8
0
  6
Continuous
 62
     7
370
    25
100
AcDbCircle
 10
1383.0058730907
 20
846.7241081405
 30
0.0
 40
0.9922509999998965
  0
CIRCLE
  5
2A4
330
1F
100
AcDbEntity
  8
0
  6
Continuous
 62
     7
370
    25
100
AcDbCircle
 10
1218.9726730906
 20
778.3007343095
 30
0.0
 40
0.9922509999998965
  0
CIRCLE
  5
2A5
330
1F
100
AcDbEntity
  8
0
  6
Continuous
 62
     7
370
    25
100
AcDbCircle
 10
1218.9726730906
 20
679.5811000409
 30
0.0
 40
0.9922509999998965
  0
CIRCLE
  5
2A6
330
1F
100
AcDbEntity
  8
0
  6
Continuous
 62
     7
370
    25
100
AcDbCircle
 10
1641.3365730907
 20
753.1966428766
 30
0.0
 40
2.152650000000222
  0
CIRCLE
  5
2A7
330
1F
100
AcDbEntity
  8
0
  6
Continuous
 62
     7
370
    25
100
AcDbCircle
 10
1687.0565730907
 20
753.1966428766
 30
0.0
 40
2.152649999999767
  0
CIRCLE
  5
2A8
330
1F
100
AcDbEntity
  8
0
  6
Continuous
 62
     7
370
    25
100
AcDbCircle
 10
1730.9828300501
 20
813.1559764257
 30
0.0
 40
2.152649999999767
  0
CIRCLE
  5
2A9
330
1F
100
AcDbEntity
  8
0
  6
Continuous
 62
     7
370
    25
100
AcDbCircle
 10
1722.950698298
 20
803.3185550401
 30
0.0
 40
2.152649999999994
  0
CIRCLE
  5
2AA
330
1F
100
AcDbEntity
  8
0
  6
Continuous
 62
     7
370
    25
100
AcDbCircle
 10
1240.6498978202
 20
803.3206315324
 30
0.0
 40
2.152650000000222
  0
CIRCLE
  5
2AB
330
1F
100
AcDbEntity
  8
0
  6
Continuous
 62
     7
370
    25
100
AcDbCircle
 10
1232.6177660681
 20
813.158052918
 30
0.0
 40
2.152650000000222
  0
ARC
  5
2AC
330
1F
100
AcDbEntity
  8
0
  6
Continuous
 62
     7
370
    25
100
AcDbCircle
 10
1523.0741730906
 20
775.5511914738
 30
0.0
 40
12.70000000000016
100
AcDbArc
 50
0.0
 51
90.0
  0
LINE
  5
2AD
330
1F
100
AcDbEntity
  8
0
  6
Continuous
 62
     7
370
    25
100
AcDbLine
 10
1440.5241730906
 20
788.2511914738
 30
0.0
 11
1523.0741730906
 21
788.2511914738
 31
0.0
  0
ARC
  5
2AE
330
1F
100
AcDbEntity
  8
0
  6
Continuous
 62
     7
370
    25
100
AcDbCircle
 10
1440.5241730906
 20
775.5511914738
 30
0.0
 40
12.70000000000016
100
AcDbArc
 50
90.0
 51
180.0
  0
LINE
  5
2AF
330
1F
100
AcDbEntity
  8
0
  6
Continuous
 62
     7
370
    25
100
AcDbLine
 10
1427.8241730906
 20
693.0011914738
 30
0.0
 11
1427.8241730906
 21
775.5511914738
 31
0.0
  0
ARC
  5
2B0
330
1F
100
AcDbEntity
  8
0
  6
Continuous
 62
     7
370
    25
100
AcDbCircle
 10
1440.5241730906
 20
693.0011914738
 30
0.0
 40
12.70000000000005
100
AcDbArc
 50
180.0
 51
270.0
  0
LINE
  5
2B1
330
1F
100
AcDbEntity
  8
0
  6
Continuous
 62
     7
370
    25
100
AcDbLine
 10
1523.0741730906
 20
680.3011914738
 30
0.0
 11
1440.5241730906
 21
680.3011914738
 31
0.0
  0
ARC
  5
2B2
330
1F
100
AcDbEntity
  8
0
  6
Continuous
 62
     7
370
    25
100
AcDbCircle
 10
1523.0741730906
 20
693.0011914738
 30
0.0
 40
12.69999999999982
100
AcDbArc
 50
270.0
 51
0.0
  0
LINE
  5
2B3
330
1F
100
AcDbEntity
  8
0
  6
Continuous
 62
     7
370
    25
100
AcDbLine
 10
1535.7741730906
 20
775.5511914738
 30
0.0
 11
1535.7741730906
 21
693.0011914738
 31
0.0
  0
ARC
  5
2B4
330
1F
100
AcDbEntity
  8
0
  6
Continuous
 62
     7
370
    25
100
AcDbCircle
 10
1345.4392730907
 20
705.7011914738
 30
0.0
 40
12.70000000000016
100
AcDbArc
 50
0.0
 51
90.0
  0
LINE
  5
2B5
330
1F
100
AcDbEntity
  8
0
  6
Continuous
 62
     7
370
    25
100
AcDbLine
 10
1256.5392730907
 20
718.4011914738
 30
0.0
 11
1345.4392730907
 21
718.4011914738
 31
0.0
  0
ARC
  5
2B6
330
1F
100
AcDbEntity
  8
0
  6
Continuous
 62
     7
370
    25
100
AcDbCircle
 10
1256.5392730906
 20
705.7011914738
 30
0.0
 40
12.70000000000061
100
AcDbArc
 50
90.0
 51
180.0
  0
LINE
  5
2B7
330
1F
100
AcDbEntity
  8
0
  6
Continuous
 62
     7
370
    25
100
AcDbLine
 10
1243.8392730907
 20
680.3011914738
 30
0.0
 11
1243.8392730906
 21
705.7011914738
 31
0.0
  0
ARC
  5
2B8
330
1F
100
AcDbEntity
  8
0
  6
Continuous
 62
     7
370
    25
100
AcDbCircle
 10
1256.5392730907
 20
680.3011914738
 30
0.0
 40
12.70000000000732
100
AcDbArc
 50
180.0
 51
270.0
  0
LINE
  5
2B9
330
1F
100
AcDbEntity
  8
0
  6
Continuous
 62
     7
370
    25
100
AcDbLine
 10
1345.4392730907
 20
667.6011914738
 30
0.0
 11
1256.5392730906
 21
667.6011914738
 31
0.0
  0
ARC
  5
2BA
330
1F
100
AcDbEntity
  8
0
  6
Continuous
 62
     7
370
    25
100
AcDbCircle
 10
1345.4392730907
 20
680.3011914738
 30
0.0
 40
12.70000000000732
100
AcDbArc
 50
270.0
 51
0.0
  0
LINE
  5
2BB
330
1F
100
AcDbEntity
  8
0
  6
Continuous
 62
     7
370
    25
100
AcDbLine
 10
1358.1392730907
 20
705.7011914738
 30
0.0
 11
1358.1392730907
 21
680.3011914738
 31
0.0
  0
ARC
  5
2BC
330
1F
100
AcDbEntity
  8
0
  6
Continuous
 62
     7
370
    25
100
AcDbCircle
 10
1707.0590730906
 20
705.7011914738
 30
0.0
 40
12.700000000003
100
AcDbArc
 50
0.0
 51
90.0
  0
LINE
  5
2BD
330
1F
100
AcDbEntity
  8
0
  6
Continuous
 62
     7
370
    25
100
AcDbLine
 10
1618.1590730906
 20
718.4011914738
 30
0.0
 11
1707.0590730906
 21
718.4011914738
 31
0.0
  0
ARC
  5
2BE
330
1F
100
AcDbEntity
  8
0
  6
Continuous
 62
     7
370
    25
100
AcDbCircle
 10
1618.1590730906
 20
705.7011914738
 30
0.0
 40
12.70000000000709
100
AcDbArc
 50
90.0
 51
180.0
  0
LINE
  5
2BF
330
1F
100
AcDbEntity
  8
0
  6
Continuous
 62
     7
370
    25
100
AcDbLine
 10
1605.4590730906
 20
680.3011914738
 30
0.0
 11
1605.4590730906
 21
705.7011914738
 31
0.0
  0
ARC
  5
2C0
330
1F
100
AcDbEntity
  8
0
  6
Continuous
 62
     7
370
    25
100
AcDbCircle
 10
1618.1590730906
 20
680.3011914738
 30
0.0
 40
12.70000000000357
100
AcDbArc
 50
180.0
 51
270.0
  0
LINE
  5
2C1
330
1F
100
AcDbEntity
  8
0
  6
Continuous
 62
     7
370
    25
100
AcDbLine
 10
1707.0590730906
 20
667.6011914738
 30
0.0
 11
1618.1590730906
 21
667.6011914738
 31
0.0
  0
ARC
  5
2C2
330
1F
100
AcDbEntity
  8
0
  6
Continuous
 62
     7
370
    25
100
AcDbCircle
 10
1707.0590730906
 20
680.3011914738
 30
0.0
 40
12.70000000000994
100
AcDbArc
 50
270.0
 51
360.0
  0
LINE
  5
2C3
330
1F
100
AcDbEntity
  8
0
  6
Continuous
 62
     7
370
    25
100
AcDbLine
 10
1719.7590730906
 20
705.7011914738
 30
0.0
 11
1719.7590730906
 21
680.3011914738
 31
0.0
  0
ENDSEC
  0
SECTION
  2
OBJECTS
  0
DICTIONARY
  5
C
330
0
100
AcDbDictionary
281
     1
  3
ACAD_GROUP
350
D
  3
ACAD_LAYOUT
350
1A
  3
ACAD_MLINESTYLE
350
17
  3
ACAD_PLOTSETTINGS
350
19
  3
ACAD_PLOTSTYLENAME
350
E
  3
ACAD_SCALELIST
350
47
  3
DWGPROPS
350
2C4
  0
DICTIONARY
  5
D
102
{ACAD_REACTORS
330
C
102
}
330
C
100
AcDbDictionary
281
     1
  0
DICTIONARY
  5
1A
102
{ACAD_REACTORS
330
C
102
}
330
C
100
AcDbDictionary
281
     1
  3
Layout1
350
1E
  3
Layout2
350
26
  3
Model
350
22
  0
DICTIONARY
  5
17
102
{ACAD_REACTORS
330
C
102
}
330
C
100
AcDbDictionary
281
     1
  3
Standard
350
18
  0
DICTIONARY
  5
19
102
{ACAD_REACTORS
330
C
102
}
330
C
100
AcDbDictionary
281
     1
  0
ACDBDICTIONARYWDFLT
  5
E
102
{ACAD_REACTORS
330
C
102
}
330
C
100
AcDbDictionary
281
     1
  3
Normal
350
F
100
AcDbDictionaryWithDefault
340
F
  0
DICTIONARY
  5
47
102
{ACAD_REACTORS
330
C
102
}
330
C
100
AcDbDictionary
281
     1
  3
A0
350
48
  3
A1
350
49
  3
A2
350
4A
  3
A3
350
4B
  3
A4
350
4C
  3
A5
350
4D
  3
A6
350
4E
  3
A7
350
4F
  3
A8
350
50
  3
A9
350
51
  3
B0
350
52
  3
B1
350
53
  3
B2
350
54
  3
B3
350
55
  3
B4
350
56
  3
B5
350
57
  3
B6
350
58
  3
B7
350
59
  3
B8
350
5A
  3
B9
350
5B
  3
C0
350
5C
  3
C1
350
5D
  3
C2
350
5E
  3
C3
350
5F
  3
C4
350
60
  3
C5
350
61
  3
C6
350
62
  3
C7
350
63
  3
C8
350
64
  3
C9
350
65
  3
D0
350
66
  3
D1
350
67
  3
D2
350
68
  0
XRECORD
  5
2C4
102
{ACAD_REACTORS
330
C
102
}
330
C
100
AcDbXrecord
280
     1
  1
DWGPROPS COOKIE
  2

  3

  4

  6

  7

  8
lukew
  9

300
=
301
=
302
=
303
=
304
=
305
=
306
=
307
=
308
=
309
=
 40
0.0
 41
2459072.260551933
 42
2459072.260553993
  1

 90
        0
  0
LAYOUT
  5
1E
102
{ACAD_REACTORS
330
1A
102
}
330
1A
100
AcDbPlotSettings
  1

  2
none_device
  4

  6

 40
0.0
 41
0.0
 42
0.0
 43
0.0
 44
0.0
 45
0.0
 46
0.0
 47
0.0
 48
0.0
 49
0.0
140
0.0
141
0.0
142
1.0
143
1.0
 70
   688
 72
     1
 73
     0
 74
     5
  7

 75
    16
147
1.0
148
0.0
149
0.0
100
AcDbLayout
  1
Layout1
 70
     1
 71
     1
 10
0.0
 20
0.0
 11
420.0
 21
297.0
 12
0.0
 22
0.0
 32
0.0
 14
1.0000000000E+20
 24
1.0000000000E+20
 34
1.0000000000E+20
 15
-1.0000000000E+20
 25
-1.0000000000E+20
 35
-1.0000000000E+20
146
0.0
 13
0.0
 23
0.0
 33
0.0
 16
1.0
 26
0.0
 36
0.0
 17
0.0
 27
1.0
 37
0.0
 76
     0
330
1B
  0
LAYOUT
  5
26
102
{ACAD_REACTORS
330
1A
102
}
330
1A
100
AcDbPlotSettings
  1

  2
none_device
  4

  6

 40
0.0
 41
0.0
 42
0.0
 43
0.0
 44
0.0
 45
0.0
 46
0.0
 47
0.0
 48
0.0
 49
0.0
140
0.0
141
0.0
142
1.0
143
1.0
 70
   688
 72
     1
 73
     0
 74
     5
  7

 75
    16
147
1.0
148
0.0
149
0.0
100
AcDbLayout
  1
Layout2
 70
     1
 71
     2
 10
0.0
 20
0.0
 11
0.0
 21
0.0
 12
0.0
 22
0.0
 32
0.0
 14
0.0
 24
0.0
 34
0.0
 15
0.0
 25
0.0
 35
0.0
146
0.0
 13
0.0
 23
0.0
 33
0.0
 16
1.0
 26
0.0
 36
0.0
 17
0.0
 27
1.0
 37
0.0
 76
     0
330
23
  0
LAYOUT
  5
22
102
{ACAD_REACTORS
330
1A
102
}
330
1A
100
AcDbPlotSettings
  1

  2
none_device
  4
Letter_(8.50_x_11.00_Inches)
  6

 40
6.35
 41
6.35
 42
6.35000508
 43
6.35000508
 44
215.9
 45
279.4
 46
0.0
 47
0.0
 48
0.0
 49
0.0
140
0.0
141
0.0
142
1.0
143
1.0
 70
  1712
 72
     1
 73
     0
 74
     0
  7

 75
     0
147
1.0
148
0.0
149
0.0
100
AcDbLayout
  1
Model
 70
     1
 71
     0
 10
0.0
 20
0.0
 11
2400.0
 21
1200.0
 12
0.0
 22
0.0
 32
0.0
 14
0.0
 24
0.0
 34
0.0
 15
2400.0
 25
1200.0
 35
0.0
146
0.0
 13
0.0
 23
0.0
 33
0.0
 16
1.0
 26
0.0
 36
0.0
 17
0.0
 27
1.0
 37
0.0
 76
     0
330
1F
331
29
  0
MLINESTYLE
  5
18
102
{ACAD_REACTORS
330
17
102
}
330
17
100
AcDbMlineStyle
  2
Standard
 70
     0
  3

 62
   256
 51
90.0
 52
90.0
 71
     2
 49
0.5
 62
   256
  6
BYLAYER
 49
-0.5
 62
   256
  6
BYLAYER
  0
ACDBPLACEHOLDER
  5
F
102
{ACAD_REACTORS
330
E
102
}
330
E
  0
SCALE
  5
48
102
{ACAD_REACTORS
330
47
102
}
330
47
100
AcDbScale
 70
     0
300
1:1
140
1.0
141
1.0
290
     1
  0
SCALE
  5
49
102
{ACAD_REACTORS
330
47
102
}
330
47
100
AcDbScale
 70
     0
300
1:2
140
1.0
141
2.0
290
     0
  0
SCALE
  5
4A
102
{ACAD_REACTORS
330
47
102
}
330
47
100
AcDbScale
 70
     0
300
1:4
140
1.0
141
4.0
290
     0
  0
SCALE
  5
4B
102
{ACAD_REACTORS
330
47
102
}
330
47
100
AcDbScale
 70
     0
300
1:5
140
1.0
141
5.0
290
     0
  0
SCALE
  5
4C
102
{ACAD_REACTORS
330
47
102
}
330
47
100
AcDbScale
 70
     0
300
1:8
140
1.0
141
8.0
290
     0
  0
SCALE
  5
4D
102
{ACAD_REACTORS
330
47
102
}
330
47
100
AcDbScale
 70
     0
300
1:10
140
1.0
141
10.0
290
     0
  0
SCALE
  5
4E
102
{ACAD_REACTORS
330
47
102
}
330
47
100
AcDbScale
 70
     0
300
1:16
140
1.0
141
16.0
290
     0
  0
SCALE
  5
4F
102
{ACAD_REACTORS
330
47
102
}
330
47
100
AcDbScale
 70
     0
300
1:20
140
1.0
141
20.0
290
     0
  0
SCALE
  5
50
102
{ACAD_REACTORS
330
47
102
}
330
47
100
AcDbScale
 70
     0
300
1:30
140
1.0
141
30.0
290
     0
  0
SCALE
  5
51
102
{ACAD_REACTORS
330
47
102
}
330
47
100
AcDbScale
 70
     0
300
1:40
140
1.0
141
40.0
290
     0
  0
SCALE
  5
52
102
{ACAD_REACTORS
330
47
102
}
330
47
100
AcDbScale
 70
     0
300
1:50
140
1.0
141
50.0
290
     0
  0
SCALE
  5
53
102
{ACAD_REACTORS
330
47
102
}
330
47
100
AcDbScale
 70
     0
300
1:100
140
1.0
141
100.0
290
     0
  0
SCALE
  5
54
102
{ACAD_REACTORS
330
47
102
}
330
47
100
AcDbScale
 70
     0
300
2:1
140
2.0
141
1.0
290
     0
  0
SCALE
  5
55
102
{ACAD_REACTORS
330
47
102
}
330
47
100
AcDbScale
 70
     0
300
4:1
140
4.0
141
1.0
290
     0
  0
SCALE
  5
56
102
{ACAD_REACTORS
330
47
102
}
330
47
100
AcDbScale
 70
     0
300
8:1
140
8.0
141
1.0
290
     0
  0
SCALE
  5
57
102
{ACAD_REACTORS
330
47
102
}
330
47
100
AcDbScale
 70
     0
300
10:1
140
10.0
141
1.0
290
     0
  0
SCALE
  5
58
102
{ACAD_REACTORS
330
47
102
}
330
47
100
AcDbScale
 70
     0
300
100:1
140
100.0
141
1.0
290
     0
  0
SCALE
  5
59
102
{ACAD_REACTORS
330
47
102
}
330
47
100
AcDbScale
 70
     0
300
1/128" = 1'-0"
140
0.0078125
141
12.0
290
     0
  0
SCALE
  5
5A
102
{ACAD_REACTORS
330
47
102
}
330
47
100
AcDbScale
 70
     0
300
1/64" = 1'-0"
140
0.015625
141
12.0
290
     0
  0
SCALE
  5
5B
102
{ACAD_REACTORS
330
47
102
}
330
47
100
AcDbScale
 70
     0
300
1/32" = 1'-0"
140
0.03125
141
12.0
290
     0
  0
SCALE
  5
5C
102
{ACAD_REACTORS
330
47
102
}
330
47
100
AcDbScale
 70
     0
300
1/16" = 1'-0"
140
0.0625
141
12.0
290
     0
  0
SCALE
  5
5D
102
{ACAD_REACTORS
330
47
102
}
330
47
100
AcDbScale
 70
     0
300
3/32" = 1'-0"
140
0.09375
141
12.0
290
     0
  0
SCALE
  5
5E
102
{ACAD_REACTORS
330
47
102
}
330
47
100
AcDbScale
 70
     0
300
1/8" = 1'-0"
140
0.125
141
12.0
290
     0
  0
SCALE
  5
5F
102
{ACAD_REACTORS
330
47
102
}
330
47
100
AcDbScale
 70
     0
300
3/16" = 1'-0"
140
0.1875
141
12.0
290
     0
  0
SCALE
  5
60
102
{ACAD_REACTORS
330
47
102
}
330
47
100
AcDbScale
 70
     0
300
1/4" = 1'-0"
140
0.25
141
12.0
290
     0
  0
SCALE
  5
61
102
{ACAD_REACTORS
330
47
102
}
330
47
100
AcDbScale
 70
     0
300
3/8" = 1'-0"
140
0.375
141
12.0
290
     0
  0
SCALE
  5
62
102
{ACAD_REACTORS
330
47
102
}
330
47
100
AcDbScale
 70
     0
300
1/2" = 1'-0"
140
0.5
141
12.0
290
     0
  0
SCALE
  5
63
102
{ACAD_REACTORS
330
47
102
}
330
47
100
AcDbScale
 70
     0
300
3/4" = 1'-0"
140
0.75
141
12.0
290
     0
  0
SCALE
  5
64
102
{ACAD_REACTORS
330
47
102
}
330
47
100
AcDbScale
 70
     0
300
1" = 1'-0"
140
1.0
141
12.0
290
     0
  0
SCALE
  5
65
102
{ACAD_REACTORS
330
47
102
}
330
47
100
AcDbScale
 70
     0
300
1-1/2" = 1'-0"
140
1.5
141
12.0
290
     0
  0
SCALE
  5
66
102
{ACAD_REACTORS
330
47
102
}
330
47
100
AcDbScale
 70
     0
300
3" = 1'-0"
140
3.0
141
12.0
290
     0
  0
SCALE
  5
67
102
{ACAD_REACTORS
330
47
102
}
330
47
100
AcDbScale
 70
     0
300
6" = 1'-0"
140
6.0
141
12.0
290
     0
  0
SCALE
  5
68
102
{ACAD_REACTORS
330
47
102
}
330
47
100
AcDbScale
 70
     0
300
1'-0" = 1'-0"
140
12.0
141
12.0
290
     0
  0
ENDSEC
  0
EOF
