  0
SECTION
  2
HEADER
  9
$ACADVER
  1
AC1015
  9
$ACADMAINTVER
 70
     6
  9
$DWGCODEPAGE
  3
ANSI_1252
  9
$INSBASE
 10
0.0
 20
0.0
 30
0.0
  9
$EXTMIN
 10
0.0
 20
0.0
 30
0.0
  9
$EXTMAX
 10
2400.0
 20
1200.0
 30
0.0
  9
$LIMMIN
 10
0.0
 20
0.0
  9
$LIMMAX
 10
2400.0
 20
1200.0
  9
$ORTHOMODE
 70
     0
  9
$REGENMODE
 70
     1
  9
$FILLMODE
 70
     1
  9
$QTEXTMODE
 70
     0
  9
$MIRRTEXT
 70
     1
  9
$LTSCALE
 40
1.0
  9
$ATTMODE
 70
     1
  9
$TEXTSIZE
 40
3.5
  9
$TRACEWID
 40
1.0
  9
$TEXTSTYLE
  7
Standard
  9
$CLAYER
  8
0
  9
$CELTYPE
  6
ByLayer
  9
$CECOLOR
 62
   256
  9
$CELTSCALE
 40
1.0
  9
$DISPSILH
 70
     0
  9
$DIMSCALE
 40
1.0
  9
$DIMASZ
 40
3.302
  9
$DIMEXO
 40
1.0
  9
$DIMDLI
 40
3.75
  9
$DIMRND
 40
0.0
  9
$DIMDLE
 40
0.0
  9
$DIMEXE
 40
1.0
  9
$DIMTP
 40
0.0
  9
$DIMTM
 40
0.0
  9
$DIMTXT
 40
3.5
  9
$DIMCEN
 40
2.5
  9
$DIMTSZ
 40
0.0
  9
$DIMTOL
 70
     0
  9
$DIMLIM
 70
     0
  9
$DIMTIH
 70
     1
  9
$DIMTOH
 70
     1
  9
$DIMSE1
 70
     0
  9
$DIMSE2
 70
     0
  9
$DIMTAD
 70
     1
  9
$DIMZIN
 70
     1
  9
$DIMBLK
  1

  9
$DIMASO
 70
     1
  9
$DIMSHO
 70
     1
  9
$DIMPOST
  1

  9
$DIMAPOST
  1

  9
$DIMALT
 70
     0
  9
$DIMALTD
 70
     3
  9
$DIMALTF
 40
0.0393700787
  9
$DIMLFAC
 40
1.0
  9
$DIMTOFL
 70
     1
  9
$DIMTVP
 40
0.0
  9
$DIMTIX
 70
     0
  9
$DIMSOXD
 70
     0
  9
$DIMSAH
 70
     0
  9
$DIMBLK1
  1

  9
$DIMBLK2
  1

  9
$DIMSTYLE
  2
ISO-25
  9
$DIMCLRD
 70
     0
  9
$DIMCLRE
 70
     0
  9
$DIMCLRT
 70
     0
  9
$DIMTFAC
 40
1.0
  9
$DIMGAP
 40
1.524
  9
$DIMJUST
 70
     0
  9
$DIMSD1
 70
     0
  9
$DIMSD2
 70
     0
  9
$DIMTOLJ
 70
     0
  9
$DIMTZIN
 70
     1
  9
$DIMALTZ
 70
     0
  9
$DIMALTTZ
 70
     0
  9
$DIMUPT
 70
     0
  9
$DIMDEC
 70
     2
  9
$DIMTDEC
 70
     2
  9
$DIMALTU
 70
     2
  9
$DIMALTTD
 70
     3
  9
$DIMTXSTY
  7
Standard
  9
$DIMAUNIT
 70
     0
  9
$DIMADEC
 70
     2
  9
$DIMALTRND
 40
0.0
  9
$DIMAZIN
 70
     0
  9
$DIMDSEP
 70
    44
  9
$DIMATFIT
 70
     3
  9
$DIMFRAC
 70
     0
  9
$DIMLDRBLK
  1

  9
$DIMLUNIT
 70
     2
  9
$DIMLWD
 70
    -2
  9
$DIMLWE
 70
    -2
  9
$DIMTMOVE
 70
     0
  9
$LUNITS
 70
     2
  9
$LUPREC
 70
     2
  9
$SKETCHINC
 40
1.0
  9
$FILLETRAD
 40
10.0
  9
$AUNITS
 70
     0
  9
$AUPREC
 70
     2
  9
$MENU
  1
.
  9
$ELEVATION
 40
0.0
  9
$PELEVATION
 40
0.0
  9
$THICKNESS
 40
0.0
  9
$LIMCHECK
 70
     0
  9
$CHAMFERA
 40
0.0
  9
$CHAMFERB
 40
0.0
  9
$CHAMFERC
 40
0.0
  9
$CHAMFERD
 40
0.0
  9
$SKPOLY
 70
     0
  9
$TDCREATE
 40
2459072.67722544
  9
$TDUCREATE
 40
2459072.260558773
  9
$TDUPDATE
 40
2459072.677229722
  9
$TDUUPDATE
 40
2459072.260563056
  9
$TDINDWG
 40
0.0000000116
  9
$TDUSRTIMER
 40
0.0000000116
  9
$USRTIMER
 70
     1
  9
$ANGBASE
 50
0.0
  9
$ANGDIR
 70
     0
  9
$PDMODE
 70
     0
  9
$PDSIZE
 40
-1.0
  9
$PLINEWID
 40
0.0
  9
$SPLFRAME
 70
     0
  9
$SPLINETYPE
 70
     6
  9
$SPLINESEGS
 70
     8
  9
$HANDSEED
  5
306
  9
$SURFTAB1
 70
     6
  9
$SURFTAB2
 70
     6
  9
$SURFTYPE
 70
     6
  9
$SURFU
 70
     6
  9
$SURFV
 70
     6
  9
$UCSBASE
  2

  9
$UCSNAME
  2

  9
$UCSORG
 10
0.0
 20
0.0
 30
0.0
  9
$UCSXDIR
 10
1.0
 20
0.0
 30
0.0
  9
$UCSYDIR
 10
0.0
 20
1.0
 30
0.0
  9
$UCSORTHOREF
  2

  9
$UCSORTHOVIEW
 70
     0
  9
$UCSORGTOP
 10
0.0
 20
0.0
 30
0.0
  9
$UCSORGBOTTOM
 10
0.0
 20
0.0
 30
0.0
  9
$UCSORGLEFT
 10
0.0
 20
0.0
 30
0.0
  9
$UCSORGRIGHT
 10
0.0
 20
0.0
 30
0.0
  9
$UCSORGFRONT
 10
0.0
 20
0.0
 30
0.0
  9
$UCSORGBACK
 10
0.0
 20
0.0
 30
0.0
  9
$PUCSBASE
  2

  9
$PUCSNAME
  2

  9
$PUCSORG
 10
0.0
 20
0.0
 30
0.0
  9
$PUCSXDIR
 10
1.0
 20
0.0
 30
0.0
  9
$PUCSYDIR
 10
0.0
 20
1.0
 30
0.0
  9
$PUCSORTHOREF
  2

  9
$PUCSORTHOVIEW
 70
     0
  9
$PUCSORGTOP
 10
0.0
 20
0.0
 30
0.0
  9
$PUCSORGBOTTOM
 10
0.0
 20
0.0
 30
0.0
  9
$PUCSORGLEFT
 10
0.0
 20
0.0
 30
0.0
  9
$PUCSORGRIGHT
 10
0.0
 20
0.0
 30
0.0
  9
$PUCSORGFRONT
 10
0.0
 20
0.0
 30
0.0
  9
$PUCSORGBACK
 10
0.0
 20
0.0
 30
0.0
  9
$USERI1
 70
     0
  9
$USERI2
 70
     0
  9
$USERI3
 70
     0
  9
$USERI4
 70
     0
  9
$USERI5
 70
     0
  9
$USERR1
 40
0.0
  9
$USERR2
 40
0.0
  9
$USERR3
 40
0.0
  9
$USERR4
 40
0.0
  9
$USERR5
 40
0.0
  9
$WORLDVIEW
 70
     1
  9
$SHADEDGE
 70
     3
  9
$SHADEDIF
 70
    70
  9
$TILEMODE
 70
     1
  9
$MAXACTVP
 70
    64
  9
$PINSBASE
 10
0.0
 20
0.0
 30
0.0
  9
$PLIMCHECK
 70
     0
  9
$PEXTMIN
 10
1.0000000000E+20
 20
1.0000000000E+20
 30
1.0000000000E+20
  9
$PEXTMAX
 10
-1.0000000000E+20
 20
-1.0000000000E+20
 30
-1.0000000000E+20
  9
$PLIMMIN
 10
0.0
 20
0.0
  9
$PLIMMAX
 10
420.0
 20
297.0
  9
$UNITMODE
 70
     0
  9
$VISRETAIN
 70
     1
  9
$PLINEGEN
 70
     0
  9
$PSLTSCALE
 70
     1
  9
$TREEDEPTH
 70
  3020
  9
$CMLSTYLE
  2
Standard
  9
$CMLJUST
 70
     0
  9
$CMLSCALE
 40
20.0
  9
$PROXYGRAPHICS
 70
     1
  9
$MEASUREMENT
 70
     1
  9
$CELWEIGHT
370
    -1
  9
$ENDCAPS
280
     0
  9
$JOINSTYLE
280
     0
  9
$LWDISPLAY
290
     1
  9
$INSUNITS
 70
     4
  9
$HYPERLINKBASE
  1

  9
$STYLESHEET
  1

  9
$XEDIT
290
     1
  9
$CEPSNTYPE
380
     0
  9
$PSTYLEMODE
290
     1
  9
$FINGERPRINTGUID
  2
{aff6a5a6-bda7-470d-8f28-3050233e3004}
  9
$VERSIONGUID
  2
{FAEB1C32-E019-11D5-929B-00C0DF256EC4}
  9
$EXTNAMES
290
     1
  9
$PSVPSCALE
 40
0.0
  9
$OLESTARTUP
290
     0
  0
ENDSEC
  0
SECTION
  2
CLASSES
  0
CLASS
  1
ACDBDICTIONARYWDFLT
  2
AcDbDictionaryWithDefault
  3
ObjectDBX Classes
 90
        0
280
     0
281
     0
  0
CLASS
  1
VISUALSTYLE
  2
AcDbVisualStyle
  3
ObjectDBX Classes
 90
     4095
280
     0
281
     0
  0
CLASS
  1
MATERIAL
  2
AcDbMaterial
  3
ObjectDBX Classes
 90
     1153
280
     0
281
     0
  0
CLASS
  1
SCALE
  2
AcDbScale
  3
ObjectDBX Classes
 90
     1153
280
     0
281
     0
  0
CLASS
  1
TABLESTYLE
  2
AcDbTableStyle
  3
ObjectDBX Classes
 90
     4095
280
     0
281
     0
  0
CLASS
  1
MLEADERSTYLE
  2
AcDbMLeaderStyle
  3
ACDB_MLEADERSTYLE_CLASS
 90
     4095
280
     0
281
     0
  0
CLASS
  1
SUN
  2
AcDbSun
  3
SCENEOE
 90
     1153
280
     0
281
     0
  0
CLASS
  1
ACDBPLACEHOLDER
  2
AcDbPlaceHolder
  3
ObjectDBX Classes
 90
        0
280
     0
281
     0
  0
CLASS
  1
LAYOUT
  2
AcDbLayout
  3
ObjectDBX Classes
 90
        0
280
     0
281
     0
  0
ENDSEC
  0
SECTION
  2
TABLES
  0
TABLE
  2
VPORT
  5
8
330
0
100
AcDbSymbolTable
 70
     1
  0
VPORT
  5
29
330
8
100
AcDbSymbolTableRecord
100
AcDbViewportTableRecord
  2
*Active
 70
     0
 10
0.0
 20
0.0
 11
1.0
 21
1.0
 12
1200.0
 22
600.0
 13
0.0
 23
0.0
 14
10.0
 24
10.0
 15
10.0
 25
10.0
 16
0.0
 26
0.0
 36
1.0
 17
0.0
 27
0.0
 37
0.0
 40
1200.0
 41
2.0
 42
50.0
 43
0.0
 44
0.0
 50
0.0
 51
0.0
 71
     0
 72
  2000
 73
     1
 74
     3
 75
     0
 76
     0
 77
     0
 78
     0
281
     0
 65
     1
110
0.0
120
0.0
130
0.0
111
1.0
121
0.0
131
0.0
112
0.0
122
1.0
132
0.0
 79
     0
146
0.0
  0
ENDTAB
  0
TABLE
  2
LTYPE
  5
5
330
0
100
AcDbSymbolTable
 70
     6
  0
LTYPE
  5
14
330
5
100
AcDbSymbolTableRecord
100
AcDbLinetypeTableRecord
  2
ByBlock
 70
     0
  3

 72
    65
 73
     0
 40
0.0
  0
LTYPE
  5
15
330
5
100
AcDbSymbolTableRecord
100
AcDbLinetypeTableRecord
  2
ByLayer
 70
     0
  3

 72
    65
 73
     0
 40
0.0
  0
LTYPE
  5
16
330
5
100
AcDbSymbolTableRecord
100
AcDbLinetypeTableRecord
  2
Continuous
 70
     0
  3
Solid line
 72
    65
 73
     0
 40
0.0
  0
LTYPE
  5
6E
330
5
100
AcDbSymbolTableRecord
100
AcDbLinetypeTableRecord
  2
HIDDEN
 70
     0
  3
Hidden __ __ __ __ __ __ __ __ __ __ __ __ __ __
 72
    65
 73
     2
 40
1.905
 49
1.27
 74
     0
 49
-0.635
 74
     0
  0
LTYPE
  5
6F
330
5
100
AcDbSymbolTableRecord
100
AcDbLinetypeTableRecord
  2
PHANTOM
 70
     0
  3
Phantom ______  __  __  ______  __  __  ______
 72
    65
 73
     6
 40
12.7
 49
6.35
 74
     0
 49
-1.27
 74
     0
 49
1.27
 74
     0
 49
-1.27
 74
     0
 49
1.27
 74
     0
 49
-1.27
 74
     0
  0
LTYPE
  5
70
330
5
100
AcDbSymbolTableRecord
100
AcDbLinetypeTableRecord
  2
CENTER
 70
     0
  3
Center ____ _ ____ _ ____ _ ____ _ ____ _ ____
 72
    65
 73
     4
 40
10.16
 49
6.35
 74
     0
 49
-1.27
 74
     0
 49
1.27
 74
     0
 49
-1.27
 74
     0
  0
LTYPE
  5
71
330
5
100
AcDbSymbolTableRecord
100
AcDbLinetypeTableRecord
  2
CENTERX2
 70
     0
  3
Center (2x) ________  __  ________  __  _____
 72
    65
 73
     4
 40
20.32
 49
12.7
 74
     0
 49
-2.54
 74
     0
 49
2.54
 74
     0
 49
-2.54
 74
     0
  0
LTYPE
  5
72
330
5
100
AcDbSymbolTableRecord
100
AcDbLinetypeTableRecord
  2
DOT2
 70
     0
  3
Dot (.5x) ........................................
 72
    65
 73
     2
 40
0.635
 49
0.0
 74
     0
 49
-0.635
 74
     0
  0
ENDTAB
  0
TABLE
  2
LAYER
  5
2
330
0
100
AcDbSymbolTable
 70
     2
  0
LAYER
  5
10
330
2
100
AcDbSymbolTableRecord
100
AcDbLayerTableRecord
  2
0
 70
     0
 62
     7
  6
Continuous
370
    -3
390
F
  0
LAYER
  5
73
330
2
100
AcDbSymbolTableRecord
100
AcDbLayerTableRecord
  2
FORMAT
 70
     0
 62
     7
  6
Continuous
370
    -3
390
F
  0
ENDTAB
  0
TABLE
  2
STYLE
  5
3
330
0
100
AcDbSymbolTable
 70
     1
  0
STYLE
  5
11
330
3
100
AcDbSymbolTableRecord
100
AcDbTextStyleTableRecord
  2
Standard
 70
     0
 40
0.0
 41
1.0
 50
0.0
 71
     0
 42
3.5
  3
txt
  4

  0
ENDTAB
  0
TABLE
  2
VIEW
  5
6
330
0
100
AcDbSymbolTable
 70
     0
  0
ENDTAB
  0
TABLE
  2
UCS
  5
7
330
0
100
AcDbSymbolTable
 70
     0
  0
ENDTAB
  0
TABLE
  2
APPID
  5
9
330
0
100
AcDbSymbolTable
 70
     1
  0
APPID
  5
12
330
9
100
AcDbSymbolTableRecord
100
AcDbRegAppTableRecord
  2
ACAD
 70
     0
  0
ENDTAB
  0
TABLE
  2
DIMSTYLE
  5
A
330
0
100
AcDbSymbolTable
 70
     1
100
AcDbDimStyleTable
  0
DIMSTYLE
105
27
330
A
100
AcDbSymbolTableRecord
100
AcDbDimStyleTableRecord
  2
ISO-25
 70
     0
 41
2.5
 42
0.625
 43
3.75
 44
1.25
 73
     0
 74
     0
 77
     1
 78
     8
140
2.5
141
2.5
143
0.0393700787
147
0.625
171
     3
172
     1
178
     0
271
     2
272
     2
274
     3
278
    44
283
     0
284
     8
340
11
  0
ENDTAB
  0
TABLE
  2
BLOCK_RECORD
  5
1
330
0
100
AcDbSymbolTable
 70
     1
  0
BLOCK_RECORD
  5
1F
330
1
100
AcDbSymbolTableRecord
100
AcDbBlockTableRecord
  2
*Model_Space
340
22
  0
BLOCK_RECORD
  5
1B
330
1
100
AcDbSymbolTableRecord
100
AcDbBlockTableRecord
  2
*Paper_Space
340
1E
  0
BLOCK_RECORD
  5
23
330
1
100
AcDbSymbolTableRecord
100
AcDbBlockTableRecord
  2
*Paper_Space0
340
26
  0
ENDTAB
  0
ENDSEC
  0
SECTION
  2
BLOCKS
  0
BLOCK
  5
20
330
1F
100
AcDbEntity
  8
0
100
AcDbBlockBegin
  2
*Model_Space
 70
     0
 10
0.0
 20
0.0
 30
0.0
  3
*Model_Space
  1

  0
ENDBLK
  5
21
330
1F
100
AcDbEntity
  8
0
100
AcDbBlockEnd
  0
BLOCK
  5
1C
330
1B
100
AcDbEntity
 67
     1
  8
0
100
AcDbBlockBegin
  2
*Paper_Space
 70
     0
 10
0.0
 20
0.0
 30
0.0
  3
*Paper_Space
  1

  0
ENDBLK
  5
1D
330
1B
100
AcDbEntity
 67
     1
  8
0
100
AcDbBlockEnd
  0
BLOCK
  5
24
330
23
100
AcDbEntity
  8
0
100
AcDbBlockBegin
  2
*Paper_Space0
 70
     0
 10
0.0
 20
0.0
 30
0.0
  3
*Paper_Space0
  1

  0
ENDBLK
  5
25
330
23
100
AcDbEntity
  8
0
100
AcDbBlockEnd
  0
ENDSEC
  0
SECTION
  2
ENTITIES
  0
CIRCLE
  5
74
330
1F
100
AcDbEntity
  8
0
  6
Continuous
 62
     7
370
    25
100
AcDbCircle
 10
414.0127902883
 20
1061.0966672907
 30
0.0
 40
2.457449999999475
  0
CIRCLE
  5
75
330
1F
100
AcDbEntity
  8
0
  6
Continuous
 62
     7
370
    25
100
AcDbCircle
 10
400.5118940979
 20
1078.2910632155
 30
0.0
 40
2.457450000000371
  0
CIRCLE
  5
76
330
1F
100
AcDbEntity
  8
0
  6
Continuous
 62
     7
370
    25
100
AcDbCircle
 10
524.7918315449
 20
1072.8121021149
 30
0.0
 40
2.457449999999587
  0
CIRCLE
  5
77
330
1F
100
AcDbEntity
  8
0
  6
Continuous
 62
     7
370
    25
100
AcDbCircle
 10
22.1118425256
 20
1144.354103601
 30
0.0
 40
2.457449999999934
  0
CIRCLE
  5
78
330
1F
100
AcDbEntity
  8
0
  6
Continuous
 62
     7
370
    25
100
AcDbCircle
 10
296.5100088208
 20
1122.2212279486
 30
0.0
 40
2.457449999999492
  0
CIRCLE
  5
79
330
1F
100
AcDbEntity
  8
0
  6
Continuous
 62
     7
370
    25
100
AcDbCircle
 10
348.8057931767
 20
1104.2973241329
 30
0.0
 40
2.457450000000371
  0
ARC
  5
7A
330
1F
100
AcDbEntity
  8
0
  6
Continuous
 62
     7
370
    25
100
AcDbCircle
 10
97.892131018
 20
890.1259151708
 30
0.0
 40
203.2000000000006
100
AcDbArc
 50
70.0
 51
100.0
  0
LINE
  5
7B
330
1F
100
AcDbEntity
  8
0
  6
Continuous
 62
     7
370
    25
100
AcDbLine
 10
20.0801103801
 20
1082.7402440441
 30
0.0
 11
62.606821316
 21
1090.2388505829
 31
0.0
  0
LINE
  5
7C
330
1F
100
AcDbEntity
  8
0
  6
Continuous
 62
     7
370
    25
100
AcDbLine
 10
4.6427873855
 20
1170.2896532869
 30
0.0
 11
112.5888564653
 21
1189.3234577271
 31
0.0
  0
LINE
  5
7D
330
1F
100
AcDbEntity
  8
0
  6
Continuous
 62
     7
370
    25
100
AcDbLine
 10
430.0173752604
 20
1001.2289661098
 30
0.0
 11
536.9921300637
 21
1004.9646068637
 31
0.0
  0
ARC
  5
7E
330
1F
100
AcDbEntity
  8
0
  6
Continuous
 62
     7
370
    25
100
AcDbCircle
 10
422.9257975305
 20
1204.3051821601
 30
0.0
 40
203.2
100
AcDbArc
 50
250.0
 51
272.0
  0
LINE
  5
7F
330
1F
100
AcDbEntity
  8
0
  6
Continuous
 62
     7
370
    25
100
AcDbLine
 10
167.3906241417
 20
1081.0714557145
 30
0.0
 11
353.4273044067
 21
1013.3596416164
 31
0.0
  0
CIRCLE
  5
80
330
1F
100
AcDbEntity
  8
0
  6
Continuous
 62
     7
370
    25
100
AcDbCircle
 10
37.1866991827
 20
1095.4285356761
 30
0.0
 40
1.587500000000293
  0
CIRCLE
  5
81
330
1F
100
AcDbEntity
  8
0
  6
Continuous
 62
     7
370
    25
100
AcDbCircle
 10
99.721991499
 20
1106.455194958
 30
0.0
 40
1.587500000000293
  0
CIRCLE
  5
82
330
1F
100
AcDbEntity
  8
0
  6
Continuous
 62
     7
370
    25
100
AcDbCircle
 10
123.6443887191
 20
1151.8746916598
 30
0.0
 40
1.898650000000224
  0
CIRCLE
  5
83
330
1F
100
AcDbEntity
  8
0
  6
Continuous
 62
     7
370
    25
100
AcDbCircle
 10
148.4442961195
 20
1162.0001775233
 30
0.0
 40
1.631950000000103
  0
CIRCLE
  5
84
330
1F
100
AcDbEntity
  8
0
  6
Continuous
 62
     7
370
    25
100
AcDbCircle
 10
180.1934805767
 20
1148.3690686639
 30
0.0
 40
1.631950000000523
  0
CIRCLE
  5
85
330
1F
100
AcDbEntity
  8
0
  6
Continuous
 62
     7
370
    25
100
AcDbCircle
 10
200.9021387176
 20
1131.1943101128
 30
0.0
 40
1.219200000000206
  0
CIRCLE
  5
86
330
1F
100
AcDbEntity
  8
0
  6
Continuous
 62
     7
370
    25
100
AcDbCircle
 10
197.8780953913
 20
1106.9088172835
 30
0.0
 40
1.219200000000626
  0
LINE
  5
87
330
1F
100
AcDbEntity
  8
0
  6
Continuous
 62
     7
370
    25
100
AcDbLine
 10
542.4159759608
 20
1108.4577518
 30
0.0
 11
306.7497847256
 21
1120.8084935348
 31
0.0
  0
LINE
  5
88
330
1F
100
AcDbEntity
  8
0
  6
Continuous
 62
     7
370
    25
100
AcDbLine
 10
306.7497847256
 20
1120.8084935348
 30
0.0
 11
305.2189988899
 21
1129.4900114153
 31
0.0
  0
LINE
  5
89
330
1F
100
AcDbEntity
  8
0
  6
Continuous
 62
     7
370
    25
100
AcDbLine
 10
305.2189988899
 20
1129.4900114153
 30
0.0
 11
112.5888564653
 21
1189.3234577271
 31
0.0
  0
LINE
  5
8A
330
1F
100
AcDbEntity
  8
0
  6
Continuous
 62
     7
370
    25
100
AcDbLine
 10
536.9921300637
 20
1004.9646068637
 30
0.0
 11
542.4159759608
 21
1108.4577518
 31
0.0
  0
LINE
  5
8B
330
1F
100
AcDbEntity
  8
0
  6
Continuous
 62
     7
370
    25
100
AcDbLine
 10
4.6427873855
 20
1170.2896532869
 30
0.0
 11
20.0801103801
 21
1082.7402440441
 31
0.0
  0
CIRCLE
  5
8C
330
1F
100
AcDbEntity
  8
0
  6
Continuous
 62
     7
370
    25
100
AcDbCircle
 10
487.1186842768
 20
1097.0486526641
 30
0.0
 40
2.457449999999593
  0
CIRCLE
  5
8D
330
1F
100
AcDbEntity
  8
0
  6
Continuous
 62
     7
370
    25
100
AcDbCircle
 10
27.1013575276
 20
1019.0670891263
 30
0.0
 40
4.216399999999881
  0
CIRCLE
  5
8E
330
1F
100
AcDbEntity
  8
0
  6
Continuous
 62
     7
370
    25
100
AcDbCircle
 10
353.7953081787
 20
979.0103096583
 30
0.0
 40
4.216399999999006
  0
CIRCLE
  5
8F
330
1F
100
AcDbEntity
  8
0
  6
Continuous
 62
     7
370
    25
100
AcDbCircle
 10
201.0798708861
 20
1028.1258734967
 30
0.0
 40
4.216399999999854
  0
CIRCLE
  5
90
330
1F
100
AcDbEntity
  8
0
  6
Continuous
 62
     7
370
    25
100
AcDbCircle
 10
236.3155564005
 20
1017.1812078751
 30
0.0
 40
4.216399999999902
  0
CIRCLE
  5
91
330
1F
100
AcDbEntity
  8
0
  6
Continuous
 62
     7
370
    25
100
AcDbCircle
 10
42.1762141847
 20
970.1415212015
 30
0.0
 40
5.080000000000378
  0
CIRCLE
  5
92
330
1F
100
AcDbEntity
  8
0
  6
Continuous
 62
     7
370
    25
100
AcDbCircle
 10
104.711506501
 20
981.1681804833
 30
0.0
 40
5.080000000000358
  0
ARC
  5
93
330
1F
100
AcDbEntity
  8
0
  6
Continuous
 62
     7
370
    25
100
AcDbCircle
 10
387.4656726799
 20
964.9382205759
 30
0.0
 40
3.175000000000416
100
AcDbArc
 50
177.0
 51
272.0
  0
LINE
  5
94
330
1F
100
AcDbEntity
  8
0
  6
Continuous
 62
     7
370
    25
100
AcDbLine
 10
387.576478582
 20
961.7651547001
 30
0.0
 11
546.5746576575
 21
967.3174934612
 31
0.0
  0
LINE
  5
95
330
1F
100
AcDbEntity
  8
0
  6
Continuous
 62
     7
370
    25
100
AcDbLine
 10
541.9816450657
 20
879.6775923891
 30
0.0
 11
546.5746576575
 21
967.3174934612
 31
0.0
  0
LINE
  5
96
330
1F
100
AcDbEntity
  8
0
  6
Continuous
 62
     7
370
    25
100
AcDbLine
 10
541.9816450657
 20
879.6775923891
 30
0.0
 11
435.0068902624
 21
875.9419516352
 31
0.0
  0
ARC
  5
97
330
1F
100
AcDbEntity
  8
0
  6
Continuous
 62
     7
370
    25
100
AcDbCircle
 10
427.9153125325
 20
1079.0181676855
 30
0.0
 40
203.2000000000001
100
AcDbArc
 50
250.0
 51
272.0
  0
LINE
  5
98
330
1F
100
AcDbEntity
  8
0
  6
Continuous
 62
     7
370
    25
100
AcDbLine
 10
358.4168194087
 20
888.0726271418
 30
0.0
 11
172.3801391437
 21
955.7844412399
 31
0.0
  0
ARC
  5
99
330
1F
100
AcDbEntity
  8
0
  6
Continuous
 62
     7
370
    25
100
AcDbCircle
 10
102.88164602
 20
764.8389006962
 30
0.0
 40
203.2000000000002
100
AcDbArc
 50
70.0
 51
100.0
  0
LINE
  5
9A
330
1F
100
AcDbEntity
  8
0
  6
Continuous
 62
     7
370
    25
100
AcDbLine
 10
67.5963363181
 20
964.9518361083
 30
0.0
 11
25.0696253821
 21
957.4532295695
 31
0.0
  0
LINE
  5
9B
330
1F
100
AcDbEntity
  8
0
  6
Continuous
 62
     7
370
    25
100
AcDbLine
 10
9.6323023875
 20
1045.0026388123
 30
0.0
 11
25.0696253821
 21
957.4532295695
 31
0.0
  0
LINE
  5
9C
330
1F
100
AcDbEntity
  8
0
  6
Continuous
 62
     7
370
    25
100
AcDbLine
 10
117.5783714673
 20
1064.0364432525
 30
0.0
 11
9.6323023875
 21
1045.0026388123
 31
0.0
  0
LINE
  5
9D
330
1F
100
AcDbEntity
  8
0
  6
Continuous
 62
     7
370
    25
100
AcDbLine
 10
117.5783714673
 20
1064.0364432525
 30
0.0
 11
310.2085138919
 21
1004.2029969407
 31
0.0
  0
LINE
  5
9E
330
1F
100
AcDbEntity
  8
0
  6
Continuous
 62
     7
370
    25
100
AcDbLine
 10
310.2085138919
 20
1004.2029969407
 30
0.0
 11
311.300749686
 21
998.0086199386
 31
0.0
  0
ARC
  5
9F
330
1F
100
AcDbEntity
  8
0
  6
Continuous
 62
     7
370
    25
100
AcDbCircle
 10
314.4275143018
 20
998.5599529027
 30
0.0
 40
3.175000000000581
100
AcDbArc
 50
189.9999999994
 51
267.0
  0
LINE
  5
A0
330
1F
100
AcDbEntity
  8
0
  6
Continuous
 62
     7
370
    25
100
AcDbLine
 10
385.6860159154
 20
991.6460958795
 30
0.0
 11
314.2613476407
 21
995.3893041298
 31
0.0
  0
LINE
  5
A1
330
1F
100
AcDbEntity
  8
0
  6
Continuous
 62
     7
370
    25
100
AcDbLine
 10
385.6860159154
 20
991.6460958795
 30
0.0
 11
384.2950239071
 21
965.1043872369
 31
0.0
  0
CIRCLE
  5
A2
330
1F
100
AcDbEntity
  8
0
  6
Continuous
 62
     7
370
    25
100
AcDbCircle
 10
236.3155564005
 20
1017.1812078751
 30
0.0
 40
2.457449999999483
  0
CIRCLE
  5
A3
330
1F
100
AcDbEntity
  8
0
  6
Continuous
 62
     7
370
    25
100
AcDbCircle
 10
27.1013575276
 20
1019.0670891263
 30
0.0
 40
2.457449999999476
  0
CIRCLE
  5
A4
330
1F
100
AcDbEntity
  8
0
  6
Continuous
 62
     7
370
    25
100
AcDbCircle
 10
353.7953081787
 20
979.0103096583
 30
0.0
 40
2.457449999999455
  0
CIRCLE
  5
A5
330
1F
100
AcDbEntity
  8
0
  6
Continuous
 62
     7
370
    25
100
AcDbCircle
 10
201.0798708861
 20
1028.1258734967
 30
0.0
 40
2.457449999999923
  0
CIRCLE
  5
A6
330
1F
100
AcDbEntity
  8
0
  6
Continuous
 62
     7
370
    25
100
AcDbCircle
 10
104.711506501
 20
981.1681804833
 30
0.0
 40
1.587500000000273
  0
CIRCLE
  5
A7
330
1F
100
AcDbEntity
  8
0
  6
Continuous
 62
     7
370
    25
100
AcDbCircle
 10
42.1762141847
 20
970.1415212015
 30
0.0
 40
1.587500000000273
  0
LINE
  5
A8
330
1F
100
AcDbEntity
  8
0
  6
Continuous
 62
     7
370
    25
100
AcDbLine
 10
25.9895288426
 20
710.1503440781
 30
0.0
 11
25.9895288426
 21
788.5797467545
 31
0.0
  0
SPLINE
  5
A9
330
1F
100
AcDbEntity
  8
0
  6
Continuous
 62
     7
370
    25
100
AcDbSpline
210
0.0
220
0.0
230
1.0
 70
     8
 71
     3
 72
    10
 73
     6
 74
     0
 42
0.00000001
 43
0.00000001
 40
-56.4938584088529
 40
-56.4938584088529
 40
-56.4938584088529
 40
-56.4938584088529
 40
-25.56106888728
 40
-25.56106888728
 40
-9.08244148965814
 40
-9.08244148965814
 40
-9.08244148965814
 40
-9.08244148965814
 10
25.98952884263717
 20
788.5797467544971
 30
0.0
 10
130.6304255461755
 20
829.8065206933193
 30
0.0
 10
242.2256289354853
 20
852.4691748977727
 30
0.0
 10
455.4186981757743
 20
858.2150417597651
 30
0.0
 10
531.6795513042324
 20
854.5903090862737
 30
0.0
 10
599.1079283523399
 20
848.4665594893319
 30
0.0
  0
LINE
  5
AA
330
1F
100
AcDbEntity
  8
0
  6
Continuous
 62
     7
370
    25
100
AcDbLine
 10
599.1079283523
 20
848.4665594893
 30
0.0
 11
599.1079283523
 21
710.1503440781
 31
0.0
  0
LINE
  5
AB
330
1F
100
AcDbEntity
  8
0
  6
Continuous
 62
     7
370
    25
100
AcDbLine
 10
599.1079283523
 20
710.1503440781
 30
0.0
 11
25.9895288426
 21
710.1503440781
 31
0.0
  0
CIRCLE
  5
AC
330
1F
100
AcDbEntity
  8
0
  6
Continuous
 62
     7
370
    25
100
AcDbCircle
 10
141.9079283523
 20
751.4253440781
 30
0.0
 40
25.40000000000009
  0
CIRCLE
  5
AD
330
1F
100
AcDbEntity
  8
0
  6
Continuous
 62
     7
370
    25
100
AcDbCircle
 10
268.9079283523
 20
768.5703440781
 30
0.0
 40
31.74999999999989
  0
CIRCLE
  5
AE
330
1F
100
AcDbEntity
  8
0
  6
Continuous
 62
     7
370
    25
100
AcDbCircle
 10
421.3079283523
 20
773.6503440781
 30
0.0
 40
38.09999999999968
  0
CIRCLE
  5
AF
330
1F
100
AcDbEntity
  8
0
  6
Continuous
 62
     7
370
    25
100
AcDbCircle
 10
40.4350303249
 20
775.4503242312
 30
0.0
 40
2.413000000000224
  0
CIRCLE
  5
B0
330
1F
100
AcDbEntity
  8
0
  6
Continuous
 62
     7
370
    25
100
AcDbCircle
 10
88.0600327273
 20
729.2003440781
 30
0.0
 40
2.413000000000224
  0
CIRCLE
  5
B1
330
1F
100
AcDbEntity
  8
0
  6
Continuous
 62
     7
370
    25
100
AcDbCircle
 10
40.4350303249
 20
729.2003440781
 30
0.0
 40
2.413000000000224
  0
CIRCLE
  5
B2
330
1F
100
AcDbEntity
  8
0
  6
Continuous
 62
     7
370
    25
100
AcDbCircle
 10
88.0600327273
 20
775.4503242312
 30
0.0
 40
2.413000000000224
  0
LINE
  5
B3
330
1F
100
AcDbEntity
  8
0
  6
Continuous
 62
     7
370
    25
100
AcDbLine
 10
645.6148994498
 20
684.5520083458
 30
0.0
 11
20.7748994498
 21
684.5520083458
 31
0.0
  0
LINE
  5
B4
330
1F
100
AcDbEntity
  8
0
  6
Continuous
 62
     7
370
    25
100
AcDbLine
 10
645.6148994498
 20
455.3170083458
 30
0.0
 11
645.6148994498
 21
684.5520083458
 31
0.0
  0
LINE
  5
B5
330
1F
100
AcDbEntity
  8
0
  6
Continuous
 62
     7
370
    25
100
AcDbLine
 10
20.7748994498
 20
455.3170083458
 30
0.0
 11
645.6148994498
 21
455.3170083458
 31
0.0
  0
LINE
  5
B6
330
1F
100
AcDbEntity
  8
0
  6
Continuous
 62
     7
370
    25
100
AcDbLine
 10
20.7748994498
 20
684.5520083458
 30
0.0
 11
20.7748994498
 21
455.3170083458
 31
0.0
  0
CIRCLE
  5
B7
330
1F
100
AcDbEntity
  8
0
  6
Continuous
 62
     7
370
    25
100
AcDbCircle
 10
594.7513994498
 20
503.2595083458
 30
0.0
 40
5.080000000000041
  0
CIRCLE
  5
B8
330
1F
100
AcDbEntity
  8
0
  6
Continuous
 62
     7
370
    25
100
AcDbCircle
 10
430.7181994498
 20
503.2595083458
 30
0.0
 40
5.079999999999984
  0
CIRCLE
  5
B9
330
1F
100
AcDbEntity
  8
0
  6
Continuous
 62
     7
370
    25
100
AcDbCircle
 10
594.7513994498
 20
579.4595083458
 30
0.0
 40
5.079999999999927
  0
CIRCLE
  5
BA
330
1F
100
AcDbEntity
  8
0
  6
Continuous
 62
     7
370
    25
100
AcDbCircle
 10
430.7181994498
 20
579.4595083458
 30
0.0
 40
5.079999999999984
  0
CIRCLE
  5
BB
330
1F
100
AcDbEntity
  8
0
  6
Continuous
 62
     7
370
    25
100
AcDbCircle
 10
594.7513994498
 20
655.6595083458
 30
0.0
 40
5.080000000000041
  0
CIRCLE
  5
BC
330
1F
100
AcDbEntity
  8
0
  6
Continuous
 62
     7
370
    25
100
AcDbCircle
 10
430.7181994498
 20
655.6595083458
 30
0.0
 40
5.079999999999927
  0
CIRCLE
  5
BD
330
1F
100
AcDbEntity
  8
0
  6
Continuous
 62
     7
370
    25
100
AcDbCircle
 10
599.8948994498
 20
464.8420083458
 30
0.0
 40
5.080000000000041
  0
CIRCLE
  5
BE
330
1F
100
AcDbEntity
  8
0
  6
Continuous
 62
     7
370
    25
100
AcDbCircle
 10
447.4948994498
 20
464.8420083458
 30
0.0
 40
5.079999999999984
  0
CIRCLE
  5
BF
330
1F
100
AcDbEntity
  8
0
  6
Continuous
 62
     7
370
    25
100
AcDbCircle
 10
333.1948994498
 20
464.8420083458
 30
0.0
 40
5.079999999999984
  0
CIRCLE
  5
C0
330
1F
100
AcDbEntity
  8
0
  6
Continuous
 62
     7
370
    25
100
AcDbCircle
 10
218.8948994498
 20
464.8420083458
 30
0.0
 40
5.079999999999984
  0
CIRCLE
  5
C1
330
1F
100
AcDbEntity
  8
0
  6
Continuous
 62
     7
370
    25
100
AcDbCircle
 10
66.4948994498
 20
464.8420083458
 30
0.0
 40
5.07999999999997
  0
CIRCLE
  5
C2
330
1F
100
AcDbEntity
  8
0
  6
Continuous
 62
     7
370
    25
100
AcDbCircle
 10
235.6715994498
 20
655.6595083458
 30
0.0
 40
5.079999999999984
  0
CIRCLE
  5
C3
330
1F
100
AcDbEntity
  8
0
  6
Continuous
 62
     7
370
    25
100
AcDbCircle
 10
71.6383994498
 20
655.6595083458
 30
0.0
 40
5.07999999999997
  0
CIRCLE
  5
C4
330
1F
100
AcDbEntity
  8
0
  6
Continuous
 62
     7
370
    25
100
AcDbCircle
 10
235.6715994498
 20
579.4595083458
 30
0.0
 40
5.079999999999984
  0
CIRCLE
  5
C5
330
1F
100
AcDbEntity
  8
0
  6
Continuous
 62
     7
370
    25
100
AcDbCircle
 10
71.6383994498
 20
579.4595083458
 30
0.0
 40
5.07999999999997
  0
CIRCLE
  5
C6
330
1F
100
AcDbEntity
  8
0
  6
Continuous
 62
     7
370
    25
100
AcDbCircle
 10
235.6715994498
 20
503.2595083458
 30
0.0
 40
5.079999999999984
  0
CIRCLE
  5
C7
330
1F
100
AcDbEntity
  8
0
  6
Continuous
 62
     7
370
    25
100
AcDbCircle
 10
71.6383994498
 20
503.2595083458
 30
0.0
 40
5.07999999999997
  0
CIRCLE
  5
C8
330
1F
100
AcDbEntity
  8
0
  6
Continuous
 62
     7
370
    25
100
AcDbCircle
 10
627.0157494498
 20
671.2170083458
 30
0.0
 40
2.976625999999897
  0
CIRCLE
  5
C9
330
1F
100
AcDbEntity
  8
0
  6
Continuous
 62
     7
370
    25
100
AcDbCircle
 10
42.9998994498
 20
671.2170083457
 30
0.0
 40
2.976625999999925
  0
CIRCLE
  5
CA
330
1F
100
AcDbEntity
  8
0
  6
Continuous
 62
     7
370
    25
100
AcDbCircle
 10
554.9686494495
 20
671.2170083457
 30
0.0
 40
2.976626000000124
  0
CIRCLE
  5
CB
330
1F
100
AcDbEntity
  8
0
  6
Continuous
 62
     7
370
    25
100
AcDbCircle
 10
478.7686494495
 20
671.2170083457
 30
0.0
 40
2.976625999999953
  0
CIRCLE
  5
CC
330
1F
100
AcDbEntity
  8
0
  6
Continuous
 62
     7
370
    25
100
AcDbCircle
 10
378.9148994498
 20
671.2170083458
 30
0.0
 40
2.976626000000067
  0
CIRCLE
  5
CD
330
1F
100
AcDbEntity
  8
0
  6
Continuous
 62
     7
370
    25
100
AcDbCircle
 10
334.4648994498
 20
671.2170083458
 30
0.0
 40
2.97662600000001
  0
CIRCLE
  5
CE
330
1F
100
AcDbEntity
  8
0
  6
Continuous
 62
     7
370
    25
100
AcDbCircle
 10
290.0148994498
 20
671.2170083458
 30
0.0
 40
2.976626000000067
  0
CIRCLE
  5
CF
330
1F
100
AcDbEntity
  8
0
  6
Continuous
 62
     7
370
    25
100
AcDbCircle
 10
190.1611494498
 20
671.2170083457
 30
0.0
 40
2.976625999999982
  0
CIRCLE
  5
D0
330
1F
100
AcDbEntity
  8
0
  6
Continuous
 62
     7
370
    25
100
AcDbCircle
 10
113.9611494498
 20
671.2170083457
 30
0.0
 40
2.976625999999982
  0
CIRCLE
  5
D1
330
1F
100
AcDbEntity
  8
0
  6
Continuous
 62
     7
370
    25
100
AcDbCircle
 10
510.6331994498
 20
528.6670083458
 30
0.0
 40
1.352550000000008
  0
CIRCLE
  5
D2
330
1F
100
AcDbEntity
  8
0
  6
Continuous
 62
     7
370
    25
100
AcDbCircle
 10
452.6331994498
 20
528.6670083458
 30
0.0
 40
1.352550000000008
  0
CIRCLE
  5
D3
330
1F
100
AcDbEntity
  8
0
  6
Continuous
 62
     7
370
    25
100
AcDbCircle
 10
452.6331994498
 20
577.6670083458
 30
0.0
 40
1.352550000000008
  0
CIRCLE
  5
D4
330
1F
100
AcDbEntity
  8
0
  6
Continuous
 62
     7
370
    25
100
AcDbCircle
 10
510.6331994498
 20
577.6670083458
 30
0.0
 40
1.352550000000008
  0
CIRCLE
  5
D5
330
1F
100
AcDbEntity
  8
0
  6
Continuous
 62
     7
370
    25
100
AcDbCircle
 10
117.1424994498
 20
506.6250083458
 30
0.0
 40
1.352550000000008
  0
CIRCLE
  5
D6
330
1F
100
AcDbEntity
  8
0
  6
Continuous
 62
     7
370
    25
100
AcDbCircle
 10
186.9924994498
 20
506.6250083458
 30
0.0
 40
1.352550000000008
  0
CIRCLE
  5
D7
330
1F
100
AcDbEntity
  8
0
  6
Continuous
 62
     7
370
    25
100
AcDbCircle
 10
186.9924994498
 20
584.0950083458
 30
0.0
 40
1.352550000000008
  0
CIRCLE
  5
D8
330
1F
100
AcDbEntity
  8
0
  6
Continuous
 62
     7
370
    25
100
AcDbCircle
 10
117.1424994498
 20
584.0950083458
 30
0.0
 40
1.352550000000008
  0
CIRCLE
  5
D9
330
1F
100
AcDbEntity
  8
0
  6
Continuous
 62
     7
370
    25
100
AcDbCircle
 10
38.2373994498
 20
491.8295083458
 30
0.0
 40
3.543300000000023
  0
CIRCLE
  5
DA
330
1F
100
AcDbEntity
  8
0
  6
Continuous
 62
     7
370
    25
100
AcDbCircle
 10
630.6922139742
 20
491.8325644276
 30
0.0
 40
3.543299999999931
  0
ARC
  5
DB
330
1F
100
AcDbEntity
  8
0
  6
Continuous
 62
     7
370
    25
100
AcDbCircle
 10
285.5698994498
 20
623.5920083458
 30
0.0
 40
6.350000000000023
100
AcDbArc
 50
90.0
 51
180.0
  0
LINE
  5
DC
330
1F
100
AcDbEntity
  8
0
  6
Continuous
 62
     7
370
    25
100
AcDbLine
 10
279.2198994498
 20
499.7670083458
 30
0.0
 11
279.2198994498
 21
623.5920083458
 31
0.0
  0
ARC
  5
DD
330
1F
100
AcDbEntity
  8
0
  6
Continuous
 62
     7
370
    25
100
AcDbCircle
 10
285.5698994498
 20
499.7670083458
 30
0.0
 40
6.350000000007412
100
AcDbArc
 50
180.0
 51
270.0
  0
LINE
  5
DE
330
1F
100
AcDbEntity
  8
0
  6
Continuous
 62
     7
370
    25
100
AcDbLine
 10
380.8198994498
 20
493.4170083458
 30
0.0
 11
285.5698994498
 21
493.4170083458
 31
0.0
  0
ARC
  5
DF
330
1F
100
AcDbEntity
  8
0
  6
Continuous
 62
     7
370
    25
100
AcDbCircle
 10
380.8198994498
 20
499.7670083458
 30
0.0
 40
6.350000000007412
100
AcDbArc
 50
270.0
 51
0.0
  0
LINE
  5
E0
330
1F
100
AcDbEntity
  8
0
  6
Continuous
 62
     7
370
    25
100
AcDbLine
 10
387.1698994498
 20
623.5920083458
 30
0.0
 11
387.1698994498
 21
499.7670083458
 31
0.0
  0
ARC
  5
E1
330
1F
100
AcDbEntity
  8
0
  6
Continuous
 62
     7
370
    25
100
AcDbCircle
 10
380.8198994498
 20
623.5920083458
 30
0.0
 40
6.350000000002979
100
AcDbArc
 50
0.0
 51
90.0
  0
LINE
  5
E2
330
1F
100
AcDbEntity
  8
0
  6
Continuous
 62
     7
370
    25
100
AcDbLine
 10
285.5698994498
 20
629.9420083458
 30
0.0
 11
380.8198994498
 21
629.9420083458
 31
0.0
  0
ARC
  5
E3
330
1F
100
AcDbEntity
  8
0
  6
Continuous
 62
     7
370
    25
100
AcDbCircle
 10
98.7274994498
 20
604.5420083458
 30
0.0
 40
6.349999999999966
100
AcDbArc
 50
180.0
 51
270.0
  0
LINE
  5
E4
330
1F
100
AcDbEntity
  8
0
  6
Continuous
 62
     7
370
    25
100
AcDbLine
 10
200.3274994498
 20
598.1920083458
 30
0.0
 11
98.7274994498
 21
598.1920083458
 31
0.0
  0
ARC
  5
E5
330
1F
100
AcDbEntity
  8
0
  6
Continuous
 62
     7
370
    25
100
AcDbCircle
 10
200.3274994498
 20
604.5420083458
 30
0.0
 40
6.350000000000421
100
AcDbArc
 50
270.0
 51
0.0
  0
LINE
  5
E6
330
1F
100
AcDbEntity
  8
0
  6
Continuous
 62
     7
370
    25
100
AcDbLine
 10
206.6774994498
 20
623.5920083458
 30
0.0
 11
206.6774994498
 21
604.5420083458
 31
0.0
  0
ARC
  5
E7
330
1F
100
AcDbEntity
  8
0
  6
Continuous
 62
     7
370
    25
100
AcDbCircle
 10
200.3274994498
 20
623.5920083458
 30
0.0
 40
6.350000000000961
100
AcDbArc
 50
0.0
 51
90.0
  0
LINE
  5
E8
330
1F
100
AcDbEntity
  8
0
  6
Continuous
 62
     7
370
    25
100
AcDbLine
 10
98.7274994498
 20
629.9420083458
 30
0.0
 11
200.3274994498
 21
629.9420083458
 31
0.0
  0
ARC
  5
E9
330
1F
100
AcDbEntity
  8
0
  6
Continuous
 62
     7
370
    25
100
AcDbCircle
 10
98.7274994498
 20
623.5920083458
 30
0.0
 40
6.349999999999852
100
AcDbArc
 50
90.0
 51
180.0
  0
LINE
  5
EA
330
1F
100
AcDbEntity
  8
0
  6
Continuous
 62
     7
370
    25
100
AcDbLine
 10
92.3774994498
 20
604.5420083458
 30
0.0
 11
92.3774994498
 21
623.5920083458
 31
0.0
  0
ARC
  5
EB
330
1F
100
AcDbEntity
  8
0
  6
Continuous
 62
     7
370
    25
100
AcDbCircle
 10
466.0622994498
 20
623.5920083458
 30
0.0
 40
6.350000000000023
100
AcDbArc
 50
90.0
 51
180.0
  0
LINE
  5
EC
330
1F
100
AcDbEntity
  8
0
  6
Continuous
 62
     7
370
    25
100
AcDbLine
 10
459.7122994498
 20
604.5420083458
 30
0.0
 11
459.7122994498
 21
623.5920083458
 31
0.0
  0
ARC
  5
ED
330
1F
100
AcDbEntity
  8
0
  6
Continuous
 62
     7
370
    25
100
AcDbCircle
 10
466.0622994498
 20
604.5420083458
 30
0.0
 40
6.350000000000193
100
AcDbArc
 50
180.0
 51
270.0
  0
LINE
  5
EE
330
1F
100
AcDbEntity
  8
0
  6
Continuous
 62
     7
370
    25
100
AcDbLine
 10
567.6622994498
 20
598.1920083458
 30
0.0
 11
466.0622994498
 21
598.1920083458
 31
0.0
  0
ARC
  5
EF
330
1F
100
AcDbEntity
  8
0
  6
Continuous
 62
     7
370
    25
100
AcDbCircle
 10
567.6622994498
 20
604.5420083458
 30
0.0
 40
6.350000000000023
100
AcDbArc
 50
270.0
 51
0.0
  0
LINE
  5
F0
330
1F
100
AcDbEntity
  8
0
  6
Continuous
 62
     7
370
    25
100
AcDbLine
 10
574.0122994498
 20
623.5920083458
 30
0.0
 11
574.0122994498
 21
604.5420083458
 31
0.0
  0
ARC
  5
F1
330
1F
100
AcDbEntity
  8
0
  6
Continuous
 62
     7
370
    25
100
AcDbCircle
 10
567.6622994498
 20
623.5920083458
 30
0.0
 40
6.349999999999795
100
AcDbArc
 50
0.0
 51
90.0
  0
LINE
  5
F2
330
1F
100
AcDbEntity
  8
0
  6
Continuous
 62
     7
370
    25
100
AcDbLine
 10
466.0622994498
 20
629.9420083458
 30
0.0
 11
567.6622994498
 21
629.9420083458
 31
0.0
  0
CIRCLE
  5
F3
330
1F
100
AcDbEntity
  8
0
  6
Continuous
 62
     7
370
    25
100
AcDbCircle
 10
430.7181994498
 20
579.4595083458
 30
0.0
 40
1.587499999999977
  0
CIRCLE
  5
F4
330
1F
100
AcDbEntity
  8
0
  6
Continuous
 62
     7
370
    25
100
AcDbCircle
 10
71.6383994498
 20
579.4595083458
 30
0.0
 40
1.587499999999963
  0
CIRCLE
  5
F5
330
1F
100
AcDbEntity
  8
0
  6
Continuous
 62
     7
370
    25
100
AcDbCircle
 10
235.6715994498
 20
579.4595083458
 30
0.0
 40
1.587500000000006
  0
CIRCLE
  5
F6
330
1F
100
AcDbEntity
  8
0
  6
Continuous
 62
     7
370
    25
100
AcDbCircle
 10
594.7513994498
 20
579.4595083458
 30
0.0
 40
1.587499999999977
  0
CIRCLE
  5
F7
330
1F
100
AcDbEntity
  8
0
  6
Continuous
 62
     7
370
    25
100
AcDbCircle
 10
38.2373994498
 20
491.8295083458
 30
0.0
 40
2.15264999999998
  0
CIRCLE
  5
F8
330
1F
100
AcDbEntity
  8
0
  6
Continuous
 62
     7
370
    25
100
AcDbCircle
 10
66.4948994498
 20
464.8420083458
 30
0.0
 40
1.587499999999963
  0
CIRCLE
  5
F9
330
1F
100
AcDbEntity
  8
0
  6
Continuous
 62
     7
370
    25
100
AcDbCircle
 10
218.8948994498
 20
464.8420083458
 30
0.0
 40
1.587500000000006
  0
CIRCLE
  5
FA
330
1F
100
AcDbEntity
  8
0
  6
Continuous
 62
     7
370
    25
100
AcDbCircle
 10
447.4948994498
 20
464.8420083458
 30
0.0
 40
1.587500000000034
  0
CIRCLE
  5
FB
330
1F
100
AcDbEntity
  8
0
  6
Continuous
 62
     7
370
    25
100
AcDbCircle
 10
333.1948994498
 20
464.8420083458
 30
0.0
 40
1.587500000000034
  0
CIRCLE
  5
FC
330
1F
100
AcDbEntity
  8
0
  6
Continuous
 62
     7
370
    25
100
AcDbCircle
 10
599.8948994498
 20
464.8420083458
 30
0.0
 40
1.587499999999977
  0
CIRCLE
  5
FD
330
1F
100
AcDbEntity
  8
0
  6
Continuous
 62
     7
370
    25
100
AcDbCircle
 10
235.6715994498
 20
655.6595083458
 30
0.0
 40
1.587500000000034
  0
CIRCLE
  5
FE
330
1F
100
AcDbEntity
  8
0
  6
Continuous
 62
     7
370
    25
100
AcDbCircle
 10
71.6383994498
 20
655.6595083458
 30
0.0
 40
1.587499999999963
  0
CIRCLE
  5
FF
330
1F
100
AcDbEntity
  8
0
  6
Continuous
 62
     7
370
    25
100
AcDbCircle
 10
71.6383994498
 20
503.2595083458
 30
0.0
 40
1.587499999999963
  0
CIRCLE
  5
100
330
1F
100
AcDbEntity
  8
0
  6
Continuous
 62
     7
370
    25
100
AcDbCircle
 10
430.7181994498
 20
655.6595083458
 30
0.0
 40
1.587500000000034
  0
CIRCLE
  5
101
330
1F
100
AcDbEntity
  8
0
  6
Continuous
 62
     7
370
    25
100
AcDbCircle
 10
594.7513994498
 20
655.6595083458
 30
0.0
 40
1.587500000000091
  0
CIRCLE
  5
102
330
1F
100
AcDbEntity
  8
0
  6
Continuous
 62
     7
370
    25
100
AcDbCircle
 10
594.7513994498
 20
503.2595083458
 30
0.0
 40
1.587499999999977
  0
CIRCLE
  5
103
330
1F
100
AcDbEntity
  8
0
  6
Continuous
 62
     7
370
    25
100
AcDbCircle
 10
630.6922139742
 20
491.8325644276
 30
0.0
 40
2.152649999999994
  0
CIRCLE
  5
104
330
1F
100
AcDbEntity
  8
0
  6
Continuous
 62
     7
370
    25
100
AcDbCircle
 10
235.6715994498
 20
503.2595083458
 30
0.0
 40
1.587500000000006
  0
CIRCLE
  5
105
330
1F
100
AcDbEntity
  8
0
  6
Continuous
 62
     7
370
    25
100
AcDbCircle
 10
430.7181994498
 20
503.2595083458
 30
0.0
 40
1.587500000000034
  0
CIRCLE
  5
106
330
1F
100
AcDbEntity
  8
0
  6
Continuous
 62
     7
370
    25
100
AcDbCircle
 10
68.5341404924
 20
213.712751569
 30
0.0
 40
3.543299999999974
  0
CIRCLE
  5
107
330
1F
100
AcDbEntity
  8
0
  6
Continuous
 62
     7
370
    25
100
AcDbCircle
 10
68.5341404924
 20
226.412751569
 30
0.0
 40
3.543299999999974
  0
CIRCLE
  5
108
330
1F
100
AcDbEntity
  8
0
  6
Continuous
 62
     7
370
    25
100
AcDbCircle
 10
309.8341404924
 20
213.712751569
 30
0.0
 40
3.543299999999931
  0
CIRCLE
  5
109
330
1F
100
AcDbEntity
  8
0
  6
Continuous
 62
     7
370
    25
100
AcDbCircle
 10
309.8341404924
 20
226.412751569
 30
0.0
 40
3.543299999999988
  0
CIRCLE
  5
10A
330
1F
100
AcDbEntity
  8
0
  6
Continuous
 62
     7
370
    25
100
AcDbCircle
 10
290.7841404924
 20
255.622751569
 30
0.0
 40
5.079999999999984
  0
CIRCLE
  5
10B
330
1F
100
AcDbEntity
  8
0
  6
Continuous
 62
     7
370
    25
100
AcDbCircle
 10
181.2466404924
 20
255.622751569
 30
0.0
 40
5.079999999999984
  0
LINE
  5
10C
330
1F
100
AcDbEntity
  8
0
  6
Continuous
 62
     7
370
    25
100
AcDbLine
 10
352.6966404924
 20
439.137751569
 30
0.0
 11
18.0516404924
 21
439.137751569
 31
0.0
  0
LINE
  5
10D
330
1F
100
AcDbEntity
  8
0
  6
Continuous
 62
     7
370
    25
100
AcDbLine
 10
352.6966404924
 20
439.137751569
 30
0.0
 11
352.6966404924
 21
208.950251569
 31
0.0
  0
LINE
  5
10E
330
1F
100
AcDbEntity
  8
0
  6
Continuous
 62
     7
370
    25
100
AcDbLine
 10
352.6966404924
 20
208.950251569
 30
0.0
 11
35.1966404924
 21
208.950251569
 31
0.0
  0
LINE
  5
10F
330
1F
100
AcDbEntity
  8
0
  6
Continuous
 62
     7
370
    25
100
AcDbLine
 10
35.1966404924
 20
208.950251569
 30
0.0
 11
35.1966404924
 21
389.988751569
 31
0.0
  0
ARC
  5
110
330
1F
100
AcDbEntity
  8
0
  6
Continuous
 62
     7
370
    25
100
AcDbCircle
 10
28.8466404924
 20
389.988751569
 30
0.0
 40
6.350000000006514
100
AcDbArc
 50
0.0
 51
90.0
  0
LINE
  5
111
330
1F
100
AcDbEntity
  8
0
  6
Continuous
 62
     7
370
    25
100
AcDbLine
 10
28.8466404924
 20
396.338751569
 30
0.0
 11
18.0516404924
 21
396.338751569
 31
0.0
  0
LINE
  5
112
330
1F
100
AcDbEntity
  8
0
  6
Continuous
 62
     7
370
    25
100
AcDbLine
 10
18.0516404924
 20
439.137751569
 30
0.0
 11
18.0516404924
 21
396.338751569
 31
0.0
  0
CIRCLE
  5
113
330
1F
100
AcDbEntity
  8
0
  6
Continuous
 62
     7
370
    25
100
AcDbCircle
 10
71.7091404924
 20
255.622751569
 30
0.0
 40
5.079999999999956
  0
CIRCLE
  5
114
330
1F
100
AcDbEntity
  8
0
  6
Continuous
 62
     7
370
    25
100
AcDbCircle
 10
45.6241404925
 20
414.5632515689
 30
0.0
 40
2.457449999999994
  0
CIRCLE
  5
115
330
1F
100
AcDbEntity
  8
0
  6
Continuous
 62
     7
370
    25
100
AcDbCircle
 10
98.6966404925
 20
414.563251569
 30
0.0
 40
2.457450000000051
  0
CIRCLE
  5
116
330
1F
100
AcDbEntity
  8
0
  6
Continuous
 62
     7
370
    25
100
AcDbCircle
 10
338.4091404924
 20
213.712751569
 30
0.0
 40
2.152650000000023
  0
CIRCLE
  5
117
330
1F
100
AcDbEntity
  8
0
  6
Continuous
 62
     7
370
    25
100
AcDbCircle
 10
338.4091404924
 20
226.412751569
 30
0.0
 40
2.152649999999994
  0
CIRCLE
  5
118
330
1F
100
AcDbEntity
  8
0
  6
Continuous
 62
     7
370
    25
100
AcDbCircle
 10
46.3091404924
 20
213.712751569
 30
0.0
 40
2.152649999999994
  0
CIRCLE
  5
119
330
1F
100
AcDbEntity
  8
0
  6
Continuous
 62
     7
370
    25
100
AcDbCircle
 10
46.3091404924
 20
226.412751569
 30
0.0
 40
2.152650000000023
  0
CIRCLE
  5
11A
330
1F
100
AcDbEntity
  8
0
  6
Continuous
 62
     7
370
    25
100
AcDbCircle
 10
47.2441904925
 20
356.9157606476
 30
0.0
 40
2.457449999999966
  0
CIRCLE
  5
11B
330
1F
100
AcDbEntity
  8
0
  6
Continuous
 62
     7
370
    25
100
AcDbCircle
 10
47.2441904924
 20
302.9407606476
 30
0.0
 40
2.457449999999966
  0
CIRCLE
  5
11C
330
1F
100
AcDbEntity
  8
0
  6
Continuous
 62
     7
370
    25
100
AcDbCircle
 10
107.4278904924
 20
325.980751569
 30
0.0
 40
38.10000000000014
  0
CIRCLE
  5
11D
330
1F
100
AcDbEntity
  8
0
  6
Continuous
 62
     7
370
    25
100
AcDbCircle
 10
259.8278904924
 20
347.380251569
 30
0.0
 40
69.53249999998707
  0
CIRCLE
  5
11E
330
1F
100
AcDbEntity
  8
0
  6
Continuous
 62
     7
370
    25
100
AcDbCircle
 10
71.7091404924
 20
255.622751569
 30
0.0
 40
1.587499999999977
  0
CIRCLE
  5
11F
330
1F
100
AcDbEntity
  8
0
  6
Continuous
 62
     7
370
    25
100
AcDbCircle
 10
309.8341404924
 20
213.712751569
 30
0.0
 40
2.152649999999994
  0
CIRCLE
  5
120
330
1F
100
AcDbEntity
  8
0
  6
Continuous
 62
     7
370
    25
100
AcDbCircle
 10
181.2466404924
 20
255.622751569
 30
0.0
 40
1.587500000000006
  0
CIRCLE
  5
121
330
1F
100
AcDbEntity
  8
0
  6
Continuous
 62
     7
370
    25
100
AcDbCircle
 10
68.5341404924
 20
226.412751569
 30
0.0
 40
2.152649999999994
  0
CIRCLE
  5
122
330
1F
100
AcDbEntity
  8
0
  6
Continuous
 62
     7
370
    25
100
AcDbCircle
 10
290.7841404924
 20
255.622751569
 30
0.0
 40
1.587499999999977
  0
CIRCLE
  5
123
330
1F
100
AcDbEntity
  8
0
  6
Continuous
 62
     7
370
    25
100
AcDbCircle
 10
309.8341404924
 20
226.412751569
 30
0.0
 40
2.152649999999994
  0
CIRCLE
  5
124
330
1F
100
AcDbEntity
  8
0
  6
Continuous
 62
     7
370
    25
100
AcDbCircle
 10
68.5341404924
 20
213.712751569
 30
0.0
 40
2.152649999999994
  0
CIRCLE
  5
125
330
1F
100
AcDbEntity
  8
0
  6
Continuous
 62
     7
370
    25
100
AcDbCircle
 10
642.7579187576
 20
213.712751569
 30
0.0
 40
3.543300000000045
  0
CIRCLE
  5
126
330
1F
100
AcDbEntity
  8
0
  6
Continuous
 62
     7
370
    25
100
AcDbCircle
 10
642.7579187576
 20
226.412751569
 30
0.0
 40
3.543300000000045
  0
CIRCLE
  5
127
330
1F
100
AcDbEntity
  8
0
  6
Continuous
 62
     7
370
    25
100
AcDbCircle
 10
401.4579187576
 20
213.712751569
 30
0.0
 40
3.543300000000045
  0
CIRCLE
  5
128
330
1F
100
AcDbEntity
  8
0
  6
Continuous
 62
     7
370
    25
100
AcDbCircle
 10
401.4579187576
 20
226.412751569
 30
0.0
 40
3.543300000000102
  0
CIRCLE
  5
129
330
1F
100
AcDbEntity
  8
0
  6
Continuous
 62
     7
370
    25
100
AcDbCircle
 10
420.5079187577
 20
255.622751569
 30
0.0
 40
5.080000000000098
  0
CIRCLE
  5
12A
330
1F
100
AcDbEntity
  8
0
  6
Continuous
 62
     7
370
    25
100
AcDbCircle
 10
530.0454187576
 20
255.622751569
 30
0.0
 40
5.080000000000041
  0
LINE
  5
12B
330
1F
100
AcDbEntity
  8
0
  6
Continuous
 62
     7
370
    25
100
AcDbLine
 10
682.4454187576
 20
396.338751569
 30
0.0
 11
693.2404187576
 21
396.338751569
 31
0.0
  0
ARC
  5
12C
330
1F
100
AcDbEntity
  8
0
  6
Continuous
 62
     7
370
    25
100
AcDbCircle
 10
682.4454187576
 20
389.988751569
 30
0.0
 40
6.35000000000025
100
AcDbArc
 50
90.0
 51
180.0
  0
LINE
  5
12D
330
1F
100
AcDbEntity
  8
0
  6
Continuous
 62
     7
370
    25
100
AcDbLine
 10
676.0954187576
 20
208.950251569
 30
0.0
 11
676.0954187576
 21
389.988751569
 31
0.0
  0
LINE
  5
12E
330
1F
100
AcDbEntity
  8
0
  6
Continuous
 62
     7
370
    25
100
AcDbLine
 10
358.5954187576
 20
208.950251569
 30
0.0
 11
676.0954187576
 21
208.950251569
 31
0.0
  0
LINE
  5
12F
330
1F
100
AcDbEntity
  8
0
  6
Continuous
 62
     7
370
    25
100
AcDbLine
 10
358.5954187576
 20
439.137751569
 30
0.0
 11
358.5954187576
 21
208.950251569
 31
0.0
  0
LINE
  5
130
330
1F
100
AcDbEntity
  8
0
  6
Continuous
 62
     7
370
    25
100
AcDbLine
 10
358.5954187576
 20
439.137751569
 30
0.0
 11
693.2404187576
 21
439.137751569
 31
0.0
  0
LINE
  5
131
330
1F
100
AcDbEntity
  8
0
  6
Continuous
 62
     7
370
    25
100
AcDbLine
 10
693.2404187576
 20
439.137751569
 30
0.0
 11
693.2404187576
 21
396.338751569
 31
0.0
  0
CIRCLE
  5
132
330
1F
100
AcDbEntity
  8
0
  6
Continuous
 62
     7
370
    25
100
AcDbCircle
 10
639.5829187576
 20
255.622751569
 30
0.0
 40
5.080000000000155
  0
CIRCLE
  5
133
330
1F
100
AcDbEntity
  8
0
  6
Continuous
 62
     7
370
    25
100
AcDbCircle
 10
665.6679187576
 20
414.563251569
 30
0.0
 40
2.457449999999994
  0
CIRCLE
  5
134
330
1F
100
AcDbEntity
  8
0
  6
Continuous
 62
     7
370
    25
100
AcDbCircle
 10
612.5954187576
 20
414.563251569
 30
0.0
 40
2.457449999999994
  0
CIRCLE
  5
135
330
1F
100
AcDbEntity
  8
0
  6
Continuous
 62
     7
370
    25
100
AcDbCircle
 10
372.8829187576
 20
213.712751569
 30
0.0
 40
2.152649999999966
  0
CIRCLE
  5
136
330
1F
100
AcDbEntity
  8
0
  6
Continuous
 62
     7
370
    25
100
AcDbCircle
 10
372.8829187576
 20
226.412751569
 30
0.0
 40
2.152649999999994
  0
CIRCLE
  5
137
330
1F
100
AcDbEntity
  8
0
  6
Continuous
 62
     7
370
    25
100
AcDbCircle
 10
664.9829187576
 20
213.712751569
 30
0.0
 40
2.152649999999994
  0
CIRCLE
  5
138
330
1F
100
AcDbEntity
  8
0
  6
Continuous
 62
     7
370
    25
100
AcDbCircle
 10
664.9829187576
 20
226.412751569
 30
0.0
 40
2.152649999999966
  0
CIRCLE
  5
139
330
1F
100
AcDbEntity
  8
0
  6
Continuous
 62
     7
370
    25
100
AcDbCircle
 10
664.0478687576
 20
356.9157606476
 30
0.0
 40
2.457450000000108
  0
CIRCLE
  5
13A
330
1F
100
AcDbEntity
  8
0
  6
Continuous
 62
     7
370
    25
100
AcDbCircle
 10
664.0478687576
 20
302.9407606476
 30
0.0
 40
2.457450000000108
  0
CIRCLE
  5
13B
330
1F
100
AcDbEntity
  8
0
  6
Continuous
 62
     7
370
    25
100
AcDbCircle
 10
603.8641687576
 20
325.980751569
 30
0.0
 40
38.09999999999974
  0
CIRCLE
  5
13C
330
1F
100
AcDbEntity
  8
0
  6
Continuous
 62
     7
370
    25
100
AcDbCircle
 10
451.4641687576
 20
347.380251569
 30
0.0
 40
69.53249999998633
  0
CIRCLE
  5
13D
330
1F
100
AcDbEntity
  8
0
  6
Continuous
 62
     7
370
    25
100
AcDbCircle
 10
530.0454187576
 20
255.622751569
 30
0.0
 40
1.587500000000091
  0
CIRCLE
  5
13E
330
1F
100
AcDbEntity
  8
0
  6
Continuous
 62
     7
370
    25
100
AcDbCircle
 10
420.5079187577
 20
255.622751569
 30
0.0
 40
1.587500000000034
  0
CIRCLE
  5
13F
330
1F
100
AcDbEntity
  8
0
  6
Continuous
 62
     7
370
    25
100
AcDbCircle
 10
639.5829187576
 20
255.622751569
 30
0.0
 40
1.587500000000091
  0
CIRCLE
  5
140
330
1F
100
AcDbEntity
  8
0
  6
Continuous
 62
     7
370
    25
100
AcDbCircle
 10
401.4579187576
 20
213.712751569
 30
0.0
 40
2.152649999999994
  0
CIRCLE
  5
141
330
1F
100
AcDbEntity
  8
0
  6
Continuous
 62
     7
370
    25
100
AcDbCircle
 10
642.7579187576
 20
213.712751569
 30
0.0
 40
2.152649999999994
  0
CIRCLE
  5
142
330
1F
100
AcDbEntity
  8
0
  6
Continuous
 62
     7
370
    25
100
AcDbCircle
 10
401.4579187576
 20
226.412751569
 30
0.0
 40
2.152650000000051
  0
CIRCLE
  5
143
330
1F
100
AcDbEntity
  8
0
  6
Continuous
 62
     7
370
    25
100
AcDbCircle
 10
642.7579187576
 20
226.412751569
 30
0.0
 40
2.152649999999994
  0
LINE
  5
144
330
1F
100
AcDbEntity
  8
0
  6
Continuous
 62
     7
370
    25
100
AcDbLine
 10
77.868177036
 20
831.3052306021
 30
0.0
 11
128.668177036
 21
831.3052306021
 31
0.0
  0
LINE
  5
145
330
1F
100
AcDbEntity
  8
0
  6
Continuous
 62
     7
370
    25
100
AcDbLine
 10
77.868177036
 20
831.3052306021
 30
0.0
 11
77.868177036
 21
958.3052304898
 31
0.0
  0
LINE
  5
146
330
1F
100
AcDbEntity
  8
0
  6
Continuous
 62
     7
370
    25
100
AcDbLine
 10
77.868177036
 20
958.3052304898
 30
0.0
 11
128.668177036
 21
958.3052304898
 31
0.0
  0
LINE
  5
147
330
1F
100
AcDbEntity
  8
0
  6
Continuous
 62
     7
370
    25
100
AcDbLine
 10
128.668177036
 20
831.3052306021
 30
0.0
 11
128.668177036
 21
958.3052304898
 31
0.0
  0
LINE
  5
148
330
1F
100
AcDbEntity
  8
0
  6
Continuous
 62
     7
370
    25
100
AcDbLine
 10
509.6653404124
 20
1129.5506994702
 30
0.0
 11
509.6653404124
 21
1180.3506994702
 31
0.0
  0
LINE
  5
149
330
1F
100
AcDbEntity
  8
0
  6
Continuous
 62
     7
370
    25
100
AcDbLine
 10
509.6653404124
 20
1129.5506994702
 30
0.0
 11
382.6653405248
 21
1129.5506994702
 31
0.0
  0
LINE
  5
14A
330
1F
100
AcDbEntity
  8
0
  6
Continuous
 62
     7
370
    25
100
AcDbLine
 10
382.6653405248
 20
1129.5506994702
 30
0.0
 11
382.6653405248
 21
1180.3506994702
 31
0.0
  0
LINE
  5
14B
330
1F
100
AcDbEntity
  8
0
  6
Continuous
 62
     7
370
    25
100
AcDbLine
 10
509.6653404124
 20
1180.3506994702
 30
0.0
 11
382.6653405248
 21
1180.3506994702
 31
0.0
  0
LINE
  5
14C
330
1F
100
AcDbEntity
  8
0
  6
Continuous
 62
     7
370
    25
100
AcDbLine
 10
19.0340018941
 20
814.5060322645
 30
0.0
 11
69.8340018941
 21
814.5060322645
 31
0.0
  0
LINE
  5
14D
330
1F
100
AcDbEntity
  8
0
  6
Continuous
 62
     7
370
    25
100
AcDbLine
 10
19.0340018941
 20
814.5060322645
 30
0.0
 11
19.0340018941
 21
941.5060321522
 31
0.0
  0
LINE
  5
14E
330
1F
100
AcDbEntity
  8
0
  6
Continuous
 62
     7
370
    25
100
AcDbLine
 10
19.0340018941
 20
941.5060321522
 30
0.0
 11
69.8340018941
 21
941.5060321522
 31
0.0
  0
LINE
  5
14F
330
1F
100
AcDbEntity
  8
0
  6
Continuous
 62
     7
370
    25
100
AcDbLine
 10
69.8340018941
 20
814.5060322645
 30
0.0
 11
69.8340018941
 21
941.5060321522
 31
0.0
  0
LINE
  5
150
330
1F
100
AcDbEntity
  8
0
  6
Continuous
 62
     7
370
    25
100
AcDbLine
 10
560.9570563077
 20
1045.8288942089
 30
0.0
 11
611.7570563077
 21
1045.8288942089
 31
0.0
  0
LINE
  5
151
330
1F
100
AcDbEntity
  8
0
  6
Continuous
 62
     7
370
    25
100
AcDbLine
 10
560.9570563077
 20
1045.8288942089
 30
0.0
 11
560.9570563077
 21
1172.8288940966
 31
0.0
  0
LINE
  5
152
330
1F
100
AcDbEntity
  8
0
  6
Continuous
 62
     7
370
    25
100
AcDbLine
 10
560.9570563077
 20
1172.8288940966
 30
0.0
 11
611.7570563077
 21
1172.8288940966
 31
0.0
  0
LINE
  5
153
330
1F
100
AcDbEntity
  8
0
  6
Continuous
 62
     7
370
    25
100
AcDbLine
 10
611.7570563077
 20
1045.8288942089
 30
0.0
 11
611.7570563077
 21
1172.8288940966
 31
0.0
  0
LINE
  5
154
330
1F
100
AcDbEntity
  8
0
  6
Continuous
 62
     7
370
    25
100
AcDbLine
 10
13.7873859888
 20
11.6040492561
 30
0.0
 11
64.5873859888
 21
11.6040492561
 31
0.0
  0
LINE
  5
155
330
1F
100
AcDbEntity
  8
0
  6
Continuous
 62
     7
370
    25
100
AcDbLine
 10
13.7873859888
 20
11.6040492561
 30
0.0
 11
13.7873859888
 21
176.704048985
 31
0.0
  0
LINE
  5
156
330
1F
100
AcDbEntity
  8
0
  6
Continuous
 62
     7
370
    25
100
AcDbLine
 10
13.7873859888
 20
176.704048985
 30
0.0
 11
64.5873859888
 21
176.704048985
 31
0.0
  0
LINE
  5
157
330
1F
100
AcDbEntity
  8
0
  6
Continuous
 62
     7
370
    25
100
AcDbLine
 10
64.5873859888
 20
11.6040492561
 30
0.0
 11
64.5873859888
 21
176.704048985
 31
0.0
  0
LINE
  5
158
330
1F
100
AcDbEntity
  8
0
  6
Continuous
 62
     7
370
    25
100
AcDbLine
 10
73.3013486131
 20
11.2205540103
 30
0.0
 11
124.1013486131
 21
11.2205540103
 31
0.0
  0
LINE
  5
159
330
1F
100
AcDbEntity
  8
0
  6
Continuous
 62
     7
370
    25
100
AcDbLine
 10
73.3013486131
 20
11.2205540103
 30
0.0
 11
73.3013486131
 21
176.3205537392
 31
0.0
  0
LINE
  5
15A
330
1F
100
AcDbEntity
  8
0
  6
Continuous
 62
     7
370
    25
100
AcDbLine
 10
73.3013486131
 20
176.3205537392
 30
0.0
 11
124.1013486131
 21
176.3205537392
 31
0.0
  0
LINE
  5
15B
330
1F
100
AcDbEntity
  8
0
  6
Continuous
 62
     7
370
    25
100
AcDbLine
 10
124.1013486131
 20
11.2205540103
 30
0.0
 11
124.1013486131
 21
176.3205537392
 31
0.0
  0
LINE
  5
15C
330
1F
100
AcDbEntity
  8
0
  6
Continuous
 62
     7
370
    25
100
AcDbLine
 10
132.5263535288
 20
9.9866997413
 30
0.0
 11
183.3263535288
 21
9.9866997413
 31
0.0
  0
LINE
  5
15D
330
1F
100
AcDbEntity
  8
0
  6
Continuous
 62
     7
370
    25
100
AcDbLine
 10
132.5263535288
 20
9.9866997413
 30
0.0
 11
132.5263535288
 21
175.0866994701
 31
0.0
  0
LINE
  5
15E
330
1F
100
AcDbEntity
  8
0
  6
Continuous
 62
     7
370
    25
100
AcDbLine
 10
132.5263535288
 20
175.0866994701
 30
0.0
 11
183.3263535288
 21
175.0866994701
 31
0.0
  0
LINE
  5
15F
330
1F
100
AcDbEntity
  8
0
  6
Continuous
 62
     7
370
    25
100
AcDbLine
 10
183.3263535288
 20
9.9866997413
 30
0.0
 11
183.3263535288
 21
175.0866994701
 31
0.0
  0
LINE
  5
160
330
1F
100
AcDbEntity
  8
0
  6
Continuous
 62
     7
370
    25
100
AcDbLine
 10
194.2190669826
 20
9.0418031807
 30
0.0
 11
245.0190669826
 21
9.0418031807
 31
0.0
  0
LINE
  5
161
330
1F
100
AcDbEntity
  8
0
  6
Continuous
 62
     7
370
    25
100
AcDbLine
 10
194.2190669826
 20
9.0418031807
 30
0.0
 11
194.2190669826
 21
174.1418029096
 31
0.0
  0
LINE
  5
162
330
1F
100
AcDbEntity
  8
0
  6
Continuous
 62
     7
370
    25
100
AcDbLine
 10
194.2190669826
 20
174.1418029096
 30
0.0
 11
245.0190669826
 21
174.1418029096
 31
0.0
  0
LINE
  5
163
330
1F
100
AcDbEntity
  8
0
  6
Continuous
 62
     7
370
    25
100
AcDbLine
 10
245.0190669826
 20
9.0418031807
 30
0.0
 11
245.0190669826
 21
174.1418029096
 31
0.0
  0
LINE
  5
164
330
1F
100
AcDbEntity
  8
0
  6
Continuous
 62
     7
370
    25
100
AcDbLine
 10
562.7395655705
 20
1020.3354896579
 30
0.0
 11
613.5395655705
 21
1020.3354896579
 31
0.0
  0
LINE
  5
165
330
1F
100
AcDbEntity
  8
0
  6
Continuous
 62
     7
370
    25
100
AcDbLine
 10
613.5395655705
 20
874.2854896579
 30
0.0
 11
613.5395655705
 21
1020.3354896579
 31
0.0
  0
LINE
  5
166
330
1F
100
AcDbEntity
  8
0
  6
Continuous
 62
     7
370
    25
100
AcDbLine
 10
562.7395655705
 20
874.2854896579
 30
0.0
 11
613.5395655705
 21
874.2854896579
 31
0.0
  0
LINE
  5
167
330
1F
100
AcDbEntity
  8
0
  6
Continuous
 62
     7
370
    25
100
AcDbLine
 10
562.7395655705
 20
874.2854896579
 30
0.0
 11
562.7395655705
 21
1020.3354896579
 31
0.0
  0
LINE
  5
168
330
1F
100
AcDbEntity
  8
0
  6
Continuous
 62
     7
370
    25
100
AcDbLine
 10
563.8087576275
 20
176.408696339
 30
0.0
 11
614.6087576275
 21
176.408696339
 31
0.0
  0
LINE
  5
169
330
1F
100
AcDbEntity
  8
0
  6
Continuous
 62
     7
370
    25
100
AcDbLine
 10
614.6087576275
 20
30.358696339
 30
0.0
 11
614.6087576275
 21
176.408696339
 31
0.0
  0
LINE
  5
16A
330
1F
100
AcDbEntity
  8
0
  6
Continuous
 62
     7
370
    25
100
AcDbLine
 10
563.8087576275
 20
30.358696339
 30
0.0
 11
614.6087576275
 21
30.358696339
 31
0.0
  0
LINE
  5
16B
330
1F
100
AcDbEntity
  8
0
  6
Continuous
 62
     7
370
    25
100
AcDbLine
 10
563.8087576275
 20
30.358696339
 30
0.0
 11
563.8087576275
 21
176.408696339
 31
0.0
  0
LINE
  5
16C
330
1F
100
AcDbEntity
  8
0
  6
Continuous
 62
     7
370
    25
100
AcDbLine
 10
502.4290436532
 20
175.5862563735
 30
0.0
 11
553.2290436532
 21
175.5862563735
 31
0.0
  0
LINE
  5
16D
330
1F
100
AcDbEntity
  8
0
  6
Continuous
 62
     7
370
    25
100
AcDbLine
 10
553.2290436532
 20
29.5362563735
 30
0.0
 11
553.2290436532
 21
175.5862563735
 31
0.0
  0
LINE
  5
16E
330
1F
100
AcDbEntity
  8
0
  6
Continuous
 62
     7
370
    25
100
AcDbLine
 10
502.4290436532
 20
29.5362563735
 30
0.0
 11
553.2290436532
 21
29.5362563735
 31
0.0
  0
LINE
  5
16F
330
1F
100
AcDbEntity
  8
0
  6
Continuous
 62
     7
370
    25
100
AcDbLine
 10
502.4290436532
 20
29.5362563735
 30
0.0
 11
502.4290436532
 21
175.5862563735
 31
0.0
  0
LINE
  5
170
330
1F
100
AcDbEntity
  8
0
  6
Continuous
 62
     7
370
    25
100
AcDbLine
 10
624.4699357436
 20
176.0417151956
 30
0.0
 11
675.2699357436
 21
176.0417151956
 31
0.0
  0
LINE
  5
171
330
1F
100
AcDbEntity
  8
0
  6
Continuous
 62
     7
370
    25
100
AcDbLine
 10
675.2699357436
 20
29.9917151956
 30
0.0
 11
675.2699357436
 21
176.0417151956
 31
0.0
  0
LINE
  5
172
330
1F
100
AcDbEntity
  8
0
  6
Continuous
 62
     7
370
    25
100
AcDbLine
 10
624.4699357436
 20
29.9917151956
 30
0.0
 11
675.2699357436
 21
29.9917151956
 31
0.0
  0
LINE
  5
173
330
1F
100
AcDbEntity
  8
0
  6
Continuous
 62
     7
370
    25
100
AcDbLine
 10
624.4699357436
 20
29.9917151956
 30
0.0
 11
624.4699357436
 21
176.0417151956
 31
0.0
  0
LINE
  5
174
330
1F
100
AcDbEntity
  8
0
  6
Continuous
 62
     7
370
    25
100
AcDbLine
 10
257.9351363672
 20
23.1417913199
 30
0.0
 11
308.7351363672
 21
23.1417913199
 31
0.0
  0
LINE
  5
175
330
1F
100
AcDbEntity
  8
0
  6
Continuous
 62
     7
370
    25
100
AcDbLine
 10
257.9351363672
 20
23.1417913199
 30
0.0
 11
257.9351363672
 21
174.9575913199
 31
0.0
  0
LINE
  5
176
330
1F
100
AcDbEntity
  8
0
  6
Continuous
 62
     7
370
    25
100
AcDbLine
 10
257.9351363672
 20
174.9575913199
 30
0.0
 11
308.7351363672
 21
174.9575913199
 31
0.0
  0
LINE
  5
177
330
1F
100
AcDbEntity
  8
0
  6
Continuous
 62
     7
370
    25
100
AcDbLine
 10
308.7351363672
 20
23.1417913199
 30
0.0
 11
308.7351363672
 21
174.9575913199
 31
0.0
  0
LINE
  5
178
330
1F
100
AcDbEntity
  8
0
  6
Continuous
 62
     7
370
    25
100
AcDbLine
 10
317.702005592
 20
25.5016035649
 30
0.0
 11
368.502005592
 21
25.5016035649
 31
0.0
  0
LINE
  5
179
330
1F
100
AcDbEntity
  8
0
  6
Continuous
 62
     7
370
    25
100
AcDbLine
 10
317.702005592
 20
25.5016035649
 30
0.0
 11
317.702005592
 21
177.3174035649
 31
0.0
  0
LINE
  5
17A
330
1F
100
AcDbEntity
  8
0
  6
Continuous
 62
     7
370
    25
100
AcDbLine
 10
317.702005592
 20
177.3174035649
 30
0.0
 11
368.502005592
 21
177.3174035649
 31
0.0
  0
LINE
  5
17B
330
1F
100
AcDbEntity
  8
0
  6
Continuous
 62
     7
370
    25
100
AcDbLine
 10
368.502005592
 20
25.5016035649
 30
0.0
 11
368.502005592
 21
177.3174035649
 31
0.0
  0
LINE
  5
17C
330
1F
100
AcDbEntity
  8
0
  6
Continuous
 62
     7
370
    25
100
AcDbLine
 10
380.514498772
 20
24.4920652275
 30
0.0
 11
431.314498772
 21
24.4920652275
 31
0.0
  0
LINE
  5
17D
330
1F
100
AcDbEntity
  8
0
  6
Continuous
 62
     7
370
    25
100
AcDbLine
 10
380.514498772
 20
24.4920652275
 30
0.0
 11
380.514498772
 21
176.3078652275
 31
0.0
  0
LINE
  5
17E
330
1F
100
AcDbEntity
  8
0
  6
Continuous
 62
     7
370
    25
100
AcDbLine
 10
380.514498772
 20
176.3078652275
 30
0.0
 11
431.314498772
 21
176.3078652275
 31
0.0
  0
LINE
  5
17F
330
1F
100
AcDbEntity
  8
0
  6
Continuous
 62
     7
370
    25
100
AcDbLine
 10
431.314498772
 20
24.4920652275
 30
0.0
 11
431.314498772
 21
176.3078652275
 31
0.0
  0
LINE
  5
180
330
1F
100
AcDbEntity
  8
0
  6
Continuous
 62
     7
370
    25
100
AcDbLine
 10
440.0247311767
 20
23.2258900699
 30
0.0
 11
490.8247311767
 21
23.2258900699
 31
0.0
  0
LINE
  5
181
330
1F
100
AcDbEntity
  8
0
  6
Continuous
 62
     7
370
    25
100
AcDbLine
 10
440.0247311767
 20
23.2258900699
 30
0.0
 11
440.0247311767
 21
175.0416900699
 31
0.0
  0
LINE
  5
182
330
1F
100
AcDbEntity
  8
0
  6
Continuous
 62
     7
370
    25
100
AcDbLine
 10
440.0247311767
 20
175.0416900699
 30
0.0
 11
490.8247311767
 21
175.0416900699
 31
0.0
  0
LINE
  5
183
330
1F
100
AcDbEntity
  8
0
  6
Continuous
 62
     7
370
    25
100
AcDbLine
 10
490.8247311767
 20
23.2258900699
 30
0.0
 11
490.8247311767
 21
175.0416900699
 31
0.0
  0
CIRCLE
  5
184
330
1F
100
AcDbEntity
  8
0
  6
Continuous
 62
     7
370
    25
100
AcDbCircle
 10
1270.5223706753
 20
641.8354635366
 30
0.0
 40
5.079999999999927
  0
CIRCLE
  5
185
330
1F
100
AcDbEntity
  8
0
  6
Continuous
 62
     7
370
    25
100
AcDbCircle
 10
1270.5223706753
 20
641.8354635366
 30
0.0
 40
0.9918699999998353
  0
CIRCLE
  5
186
330
1F
100
AcDbEntity
  8
0
  6
Continuous
 62
     7
370
    25
100
AcDbCircle
 10
1946.7706017521
 20
838.6854635367
 30
0.0
 40
5.079999999999927
  0
CIRCLE
  5
187
330
1F
100
AcDbEntity
  8
0
  6
Continuous
 62
     7
370
    25
100
AcDbCircle
 10
1946.7706017521
 20
838.6854635367
 30
0.0
 40
0.9918700000000626
  0
CIRCLE
  5
188
330
1F
100
AcDbEntity
  8
0
  6
Continuous
 62
     7
370
    25
100
AcDbCircle
 10
2046.6441606498
 20
641.8354635366
 30
0.0
 40
5.079999999999927
  0
CIRCLE
  5
189
330
1F
100
AcDbEntity
  8
0
  6
Continuous
 62
     7
370
    25
100
AcDbCircle
 10
2046.6441606498
 20
641.8354635366
 30
0.0
 40
0.9918699999998353
  0
LINE
  5
18A
330
1F
100
AcDbEntity
  8
0
  6
Continuous
 62
     7
370
    25
100
AcDbLine
 10
2071.7352072672
 20
454.5104635366
 30
0.0
 11
2096.9933097244
 21
1196.1904636808
 31
0.0
  0
LINE
  5
18B
330
1F
100
AcDbEntity
  8
0
  6
Continuous
 62
     7
370
    25
100
AcDbLine
 10
1182.4904290706
 20
454.5104635366
 30
0.0
 11
2071.7352072672
 21
454.5104635366
 31
0.0
  0
LINE
  5
18C
330
1F
100
AcDbEntity
  8
0
  6
Continuous
 62
     7
370
    25
100
AcDbLine
 10
1157.2323266134
 20
1196.1904636808
 30
0.0
 11
1182.4904290706
 21
454.5104635366
 31
0.0
  0
LINE
  5
18D
330
1F
100
AcDbEntity
  8
0
  6
Continuous
 62
     7
370
    25
100
AcDbLine
 10
2096.9933097244
 20
1196.1904636808
 30
0.0
 11
1157.2323266134
 21
1196.1904636808
 31
0.0
  0
CIRCLE
  5
18E
330
1F
100
AcDbEntity
  8
0
  6
Continuous
 62
     7
370
    25
100
AcDbCircle
 10
1688.0728181689
 20
1096.7898440823
 30
0.0
 40
5.079999999999927
  0
CIRCLE
  5
18F
330
1F
100
AcDbEntity
  8
0
  6
Continuous
 62
     7
370
    25
100
AcDbCircle
 10
1566.1528181689
 20
1096.7898440823
 30
0.0
 40
5.079999999999927
  0
CIRCLE
  5
190
330
1F
100
AcDbEntity
  8
0
  6
Continuous
 62
     7
370
    25
100
AcDbCircle
 10
1627.1128181689
 20
1096.7898440823
 30
0.0
 40
5.080000000000382
  0
CIRCLE
  5
191
330
1F
100
AcDbEntity
  8
0
  6
Continuous
 62
     7
370
    25
100
AcDbCircle
 10
1830.3128181689
 20
1186.6654636808
 30
0.0
 40
5.079999999999927
  0
CIRCLE
  5
192
330
1F
100
AcDbEntity
  8
0
  6
Continuous
 62
     7
370
    25
100
AcDbCircle
 10
2033.5128181689
 20
1186.6654636808
 30
0.0
 40
5.080000000000155
  0
CIRCLE
  5
193
330
1F
100
AcDbEntity
  8
0
  6
Continuous
 62
     7
370
    25
100
AcDbCircle
 10
2033.6750063268
 20
1016.4854635366
 30
0.0
 40
5.079999999999927
  0
CIRCLE
  5
194
330
1F
100
AcDbEntity
  8
0
  6
Continuous
 62
     7
370
    25
100
AcDbCircle
 10
1830.4750063268
 20
1016.4854635366
 30
0.0
 40
5.079999999999927
  0
CIRCLE
  5
195
330
1F
100
AcDbEntity
  8
0
  6
Continuous
 62
     7
370
    25
100
AcDbCircle
 10
1986.7307779428
 20
997.4354635366
 30
0.0
 40
5.080000000000155
  0
CIRCLE
  5
196
330
1F
100
AcDbEntity
  8
0
  6
Continuous
 62
     7
370
    25
100
AcDbCircle
 10
2055.7266974905
 20
997.4354635366
 30
0.0
 40
5.080000000000382
  0
CIRCLE
  5
197
330
1F
100
AcDbEntity
  8
0
  6
Continuous
 62
     7
370
    25
100
AcDbCircle
 10
2048.3706017521
 20
838.6854635367
 30
0.0
 40
5.080000000000382
  0
CIRCLE
  5
198
330
1F
100
AcDbEntity
  8
0
  6
Continuous
 62
     7
370
    25
100
AcDbCircle
 10
1743.5706017521
 20
838.6854635367
 30
0.0
 40
5.079999999999927
  0
CIRCLE
  5
199
330
1F
100
AcDbEntity
  8
0
  6
Continuous
 62
     7
370
    25
100
AcDbCircle
 10
2051.1854290701
 20
819.6354635366
 30
0.0
 40
5.079999999999927
  0
CIRCLE
  5
19A
330
1F
100
AcDbEntity
  8
0
  6
Continuous
 62
     7
370
    25
100
AcDbCircle
 10
1985.2170218026
 20
819.6354635366
 30
0.0
 40
5.080000000000155
  0
CIRCLE
  5
19B
330
1F
100
AcDbEntity
  8
0
  6
Continuous
 62
     7
370
    25
100
AcDbCircle
 10
2045.3430894719
 20
660.8854635366
 30
0.0
 40
5.079999999999927
  0
CIRCLE
  5
19C
330
1F
100
AcDbEntity
  8
0
  6
Continuous
 62
     7
370
    25
100
AcDbCircle
 10
1943.7430894719
 20
660.8854635366
 30
0.0
 40
5.079999999999927
  0
CIRCLE
  5
19D
330
1F
100
AcDbEntity
  8
0
  6
Continuous
 62
     7
370
    25
100
AcDbCircle
 10
1740.5430894719
 20
660.8854635366
 30
0.0
 40
5.080000000000155
  0
CIRCLE
  5
19E
330
1F
100
AcDbEntity
  8
0
  6
Continuous
 62
     7
370
    25
100
AcDbCircle
 10
1983.7032656625
 20
641.8354635366
 30
0.0
 40
5.080000000000155
  0
CIRCLE
  5
19F
330
1F
100
AcDbEntity
  8
0
  6
Continuous
 62
     7
370
    25
100
AcDbCircle
 10
2042.3155771916
 20
483.0854635366
 30
0.0
 40
5.079999999999927
  0
CIRCLE
  5
1A0
330
1F
100
AcDbEntity
  8
0
  6
Continuous
 62
     7
370
    25
100
AcDbCircle
 10
1940.7155771916
 20
483.0854635366
 30
0.0
 40
5.080000000000155
  0
CIRCLE
  5
1A1
330
1F
100
AcDbEntity
  8
0
  6
Continuous
 62
     7
370
    25
100
AcDbCircle
 10
1737.5155771916
 20
483.0854635366
 30
0.0
 40
5.079999999999927
  0
CIRCLE
  5
1A2
330
1F
100
AcDbEntity
  8
0
  6
Continuous
 62
     7
370
    25
100
AcDbCircle
 10
2042.1028922294
 20
464.0354635366
 30
0.0
 40
5.079999999999927
  0
CIRCLE
  5
1A3
330
1F
100
AcDbEntity
  8
0
  6
Continuous
 62
     7
370
    25
100
AcDbCircle
 10
1982.1895095224
 20
464.0354635366
 30
0.0
 40
5.079999999999927
  0
CIRCLE
  5
1A4
330
1F
100
AcDbEntity
  8
0
  6
Continuous
 62
     7
370
    25
100
AcDbCircle
 10
1272.0361268154
 20
464.0354635366
 30
0.0
 40
5.079999999999927
  0
CIRCLE
  5
1A5
330
1F
100
AcDbEntity
  8
0
  6
Continuous
 62
     7
370
    25
100
AcDbCircle
 10
1212.1227441084
 20
464.0354635366
 30
0.0
 40
5.080000000000155
  0
CIRCLE
  5
1A6
330
1F
100
AcDbEntity
  8
0
  6
Continuous
 62
     7
370
    25
100
AcDbCircle
 10
1516.7100591462
 20
483.0854635366
 30
0.0
 40
5.079999999999927
  0
CIRCLE
  5
1A7
330
1F
100
AcDbEntity
  8
0
  6
Continuous
 62
     7
370
    25
100
AcDbCircle
 10
1313.5100591462
 20
483.0854635366
 30
0.0
 40
5.080000000000155
  0
CIRCLE
  5
1A8
330
1F
100
AcDbEntity
  8
0
  6
Continuous
 62
     7
370
    25
100
AcDbCircle
 10
1211.9100591462
 20
483.0854635366
 30
0.0
 40
5.079999999999927
  0
CIRCLE
  5
1A9
330
1F
100
AcDbEntity
  8
0
  6
Continuous
 62
     7
370
    25
100
AcDbCircle
 10
1207.581475688
 20
641.8354635366
 30
0.0
 40
5.080000000000382
  0
CIRCLE
  5
1AA
330
1F
100
AcDbEntity
  8
0
  6
Continuous
 62
     7
370
    25
100
AcDbCircle
 10
1513.6825468659
 20
660.8854635366
 30
0.0
 40
5.080000000000155
  0
CIRCLE
  5
1AB
330
1F
100
AcDbEntity
  8
0
  6
Continuous
 62
     7
370
    25
100
AcDbCircle
 10
1310.4825468659
 20
660.8854635366
 30
0.0
 40
5.080000000000155
  0
CIRCLE
  5
1AC
330
1F
100
AcDbEntity
  8
0
  6
Continuous
 62
     7
370
    25
100
AcDbCircle
 10
1208.8825468659
 20
660.8854635366
 30
0.0
 40
5.080000000000382
  0
CIRCLE
  5
1AD
330
1F
100
AcDbEntity
  8
0
  6
Continuous
 62
     7
370
    25
100
AcDbCircle
 10
1269.0086145352
 20
819.6354635366
 30
0.0
 40
5.080000000000155
  0
CIRCLE
  5
1AE
330
1F
100
AcDbEntity
  8
0
  6
Continuous
 62
     7
370
    25
100
AcDbCircle
 10
1203.0402072677
 20
819.6354635366
 30
0.0
 40
5.080000000000155
  0
CIRCLE
  5
1AF
330
1F
100
AcDbEntity
  8
0
  6
Continuous
 62
     7
370
    25
100
AcDbCircle
 10
1510.6550345857
 20
838.6854635367
 30
0.0
 40
5.079999999999927
  0
CIRCLE
  5
1B0
330
1F
100
AcDbEntity
  8
0
  6
Continuous
 62
     7
370
    25
100
AcDbCircle
 10
1307.4550345857
 20
838.6854635367
 30
0.0
 40
5.080000000000155
  0
CIRCLE
  5
1B1
330
1F
100
AcDbEntity
  8
0
  6
Continuous
 62
     7
370
    25
100
AcDbCircle
 10
1205.8550345857
 20
838.6854635367
 30
0.0
 40
5.079999999999927
  0
CIRCLE
  5
1B2
330
1F
100
AcDbEntity
  8
0
  6
Continuous
 62
     7
370
    25
100
AcDbCircle
 10
1198.4989388473
 20
997.4354635366
 30
0.0
 40
5.079999999999927
  0
CIRCLE
  5
1B3
330
1F
100
AcDbEntity
  8
0
  6
Continuous
 62
     7
370
    25
100
AcDbCircle
 10
1267.494858395
 20
997.4354635366
 30
0.0
 40
5.079999999999927
  0
CIRCLE
  5
1B4
330
1F
100
AcDbEntity
  8
0
  6
Continuous
 62
     7
370
    25
100
AcDbCircle
 10
1423.750630011
 20
1016.4854635366
 30
0.0
 40
5.079999999999927
  0
CIRCLE
  5
1B5
330
1F
100
AcDbEntity
  8
0
  6
Continuous
 62
     7
370
    25
100
AcDbCircle
 10
1220.550630011
 20
1016.4854635366
 30
0.0
 40
5.079999999999927
  0
CIRCLE
  5
1B6
330
1F
100
AcDbEntity
  8
0
  6
Continuous
 62
     7
370
    25
100
AcDbCircle
 10
1220.7128181689
 20
1186.6654636808
 30
0.0
 40
5.080000000000155
  0
CIRCLE
  5
1B7
330
1F
100
AcDbEntity
  8
0
  6
Continuous
 62
     7
370
    25
100
AcDbCircle
 10
1423.9128181689
 20
1186.6654636808
 30
0.0
 40
5.079999999999927
  0
CIRCLE
  5
1B8
330
1F
100
AcDbEntity
  8
0
  6
Continuous
 62
     7
370
    25
100
AcDbCircle
 10
1627.1128181689
 20
1186.6654636808
 30
0.0
 40
5.080000000000155
  0
ARC
  5
1B9
330
1F
100
AcDbEntity
  8
0
  6
Continuous
 62
     7
370
    25
100
AcDbCircle
 10
1626.950630011
 20
1016.4854635366
 30
0.0
 40
5.080000000000509
100
AcDbArc
 50
88.1704180386
 51
271.8295819614
  0
ARC
  5
1BA
330
1F
100
AcDbEntity
  8
0
  6
Continuous
 62
     7
370
    25
100
AcDbCircle
 10
1627.2750063268
 20
1016.4854635366
 30
0.0
 40
5.0799999999996
100
AcDbArc
 50
268.1704180386
 51
91.8295819614
  0
CIRCLE
  5
1BB
330
1F
100
AcDbEntity
  8
0
  6
Continuous
 62
     7
370
    25
100
AcDbCircle
 10
1611.0979162707
 20
853.5104635366
 30
0.0
 40
4.216400000000021
  0
CIRCLE
  5
1BC
330
1F
100
AcDbEntity
  8
0
  6
Continuous
 62
     7
370
    25
100
AcDbCircle
 10
1643.1781964025
 20
853.5104635366
 30
0.0
 40
4.216400000000021
  0
CIRCLE
  5
1BD
330
1F
100
AcDbEntity
  8
0
  6
Continuous
 62
     7
370
    25
100
AcDbCircle
 10
1611.0979162708
 20
461.5104635366
 30
0.0
 40
4.216399999999794
  0
CIRCLE
  5
1BE
330
1F
100
AcDbEntity
  8
0
  6
Continuous
 62
     7
370
    25
100
AcDbCircle
 10
1643.1781964025
 20
461.5104635366
 30
0.0
 40
4.216400000000021
  0
CIRCLE
  5
1BF
330
1F
100
AcDbEntity
  8
0
  6
Continuous
 62
     7
370
    25
100
AcDbCircle
 10
1985.2170218026
 20
819.6354635366
 30
0.0
 40
0.9918700000000626
  0
CIRCLE
  5
1C0
330
1F
100
AcDbEntity
  8
0
  6
Continuous
 62
     7
370
    25
100
AcDbCircle
 10
1307.4550345857
 20
838.6854635367
 30
0.0
 40
0.9918700000000626
  0
CIRCLE
  5
1C1
330
1F
100
AcDbEntity
  8
0
  6
Continuous
 62
     7
370
    25
100
AcDbCircle
 10
1627.1128181689
 20
1186.6654636808
 30
0.0
 40
0.9918700000000626
  0
CIRCLE
  5
1C2
330
1F
100
AcDbEntity
  8
0
  6
Continuous
 62
     7
370
    25
100
AcDbCircle
 10
1510.6550345857
 20
838.6854635367
 30
0.0
 40
0.9918700000000626
  0
CIRCLE
  5
1C3
330
1F
100
AcDbEntity
  8
0
  6
Continuous
 62
     7
370
    25
100
AcDbCircle
 10
1211.9100591462
 20
483.0854635366
 30
0.0
 40
0.9918700000000626
  0
CIRCLE
  5
1C4
330
1F
100
AcDbEntity
  8
0
  6
Continuous
 62
     7
370
    25
100
AcDbCircle
 10
2051.1854290701
 20
819.6354635366
 30
0.0
 40
0.9918699999998353
  0
CIRCLE
  5
1C5
330
1F
100
AcDbEntity
  8
0
  6
Continuous
 62
     7
370
    25
100
AcDbCircle
 10
1272.0361268154
 20
464.0354635366
 30
0.0
 40
0.9918700000000626
  0
CIRCLE
  5
1C6
330
1F
100
AcDbEntity
  8
0
  6
Continuous
 62
     7
370
    25
100
AcDbCircle
 10
1627.1128181689
 20
1096.7898440823
 30
0.0
 40
0.9918700000000626
  0
CIRCLE
  5
1C7
330
1F
100
AcDbEntity
  8
0
  6
Continuous
 62
     7
370
    25
100
AcDbCircle
 10
1566.1528181689
 20
1096.7898440823
 30
0.0
 40
0.9918700000000626
  0
CIRCLE
  5
1C8
330
1F
100
AcDbEntity
  8
0
  6
Continuous
 62
     7
370
    25
100
AcDbCircle
 10
1267.494858395
 20
997.4354635366
 30
0.0
 40
0.9918700000000626
  0
CIRCLE
  5
1C9
330
1F
100
AcDbEntity
  8
0
  6
Continuous
 62
     7
370
    25
100
AcDbCircle
 10
1740.5430894719
 20
660.8854635366
 30
0.0
 40
0.9918699999998353
  0
CIRCLE
  5
1CA
330
1F
100
AcDbEntity
  8
0
  6
Continuous
 62
     7
370
    25
100
AcDbCircle
 10
1830.3128181689
 20
1186.6654636808
 30
0.0
 40
0.9918700000000626
  0
CIRCLE
  5
1CB
330
1F
100
AcDbEntity
  8
0
  6
Continuous
 62
     7
370
    25
100
AcDbCircle
 10
1982.1895095224
 20
464.0354635366
 30
0.0
 40
0.9918700000000626
  0
CIRCLE
  5
1CC
330
1F
100
AcDbEntity
  8
0
  6
Continuous
 62
     7
370
    25
100
AcDbCircle
 10
2033.6750063268
 20
1016.4854635366
 30
0.0
 40
0.9918699999998353
  0
CIRCLE
  5
1CD
330
1F
100
AcDbEntity
  8
0
  6
Continuous
 62
     7
370
    25
100
AcDbCircle
 10
1208.8825468659
 20
660.8854635366
 30
0.0
 40
0.9918699999998353
  0
CIRCLE
  5
1CE
330
1F
100
AcDbEntity
  8
0
  6
Continuous
 62
     7
370
    25
100
AcDbCircle
 10
1830.4750063268
 20
1016.4854635366
 30
0.0
 40
0.9918699999998353
  0
CIRCLE
  5
1CF
330
1F
100
AcDbEntity
  8
0
  6
Continuous
 62
     7
370
    25
100
AcDbCircle
 10
1269.0086145352
 20
819.6354635366
 30
0.0
 40
0.9918700000000626
  0
CIRCLE
  5
1D0
330
1F
100
AcDbEntity
  8
0
  6
Continuous
 62
     7
370
    25
100
AcDbCircle
 10
1203.0402072677
 20
819.6354635366
 30
0.0
 40
0.9918700000000626
  0
CIRCLE
  5
1D1
330
1F
100
AcDbEntity
  8
0
  6
Continuous
 62
     7
370
    25
100
AcDbCircle
 10
2055.7266974905
 20
997.4354635366
 30
0.0
 40
0.9918699999998353
  0
SPLINE
  5
1D2
330
1F
100
AcDbEntity
  8
0
  6
Continuous
 62
     7
370
    25
100
AcDbSpline
210
0.0
220
0.0
230
1.0
 70
    24
 71
     3
 72
    10
 73
     6
 74
     0
 42
0.00000001
 43
0.00000001
 40
0.0
 40
0.0
 40
0.0
 40
0.0
 40
0.5
 40
0.5
 40
1.0
 40
1.0
 40
1.0
 40
1.0
 10
1627.112818168908
 20
1011.408053271411
 30
0.0
 10
1627.112818168908
 20
1012.090379234588
 30
0.0
 10
1627.112818168908
 20
1012.772748606262
 30
0.0
 10
1627.112818168907
 20
1014.138115177843
 30
0.0
 10
1627.112818168907
 20
1014.819551772794
 30
0.0
 10
1627.112818168907
 20
1015.506943685871
 30
0.0
  0
SPLINE
  5
1D3
330
1F
100
AcDbEntity
  8
0
  6
Continuous
 62
     7
370
    25
100
AcDbSpline
210
0.0
220
0.0
230
1.0
 70
    24
 71
     3
 72
    11
 73
     7
 74
     0
 42
0.00000001
 43
0.00000001
 40
0.0000002665638579
 40
0.0000002665638579
 40
0.0000002665638579
 40
0.0000002665638579
 40
0.0011976632941999
 40
0.0011976632941999
 40
0.0011976632941999
 40
0.006238678151982
 40
0.006238678151982
 40
0.006238678151982
 40
0.006238678151982
 10
1627.112818168901
 20
1017.463983387407
 30
0.0
 10
1627.1128181689
 20
1017.727854736166
 30
0.0
 10
1627.112818168906
 20
1017.99043595776
 30
0.0
 10
1627.112818168906
 20
1018.252915217311
 30
0.0
 10
1627.112818168907
 20
1019.357947845562
 30
0.0
 10
1627.112818168886
 20
1020.460152028596
 30
0.0
 10
1627.11281816888
 20
1021.562873801867
 30
0.0
  0
ARC
  5
1D4
330
1F
100
AcDbEntity
  8
0
  6
Continuous
 62
     7
370
    25
100
AcDbCircle
 10
1626.950630011
 20
1016.4854635366
 30
0.0
 40
0.9918700000008653
100
AcDbArc
 50
80.5888729201
 51
279.4111270798
  0
CIRCLE
  5
1D5
330
1F
100
AcDbEntity
  8
0
  6
Continuous
 62
     7
370
    25
100
AcDbCircle
 10
1220.7128181689
 20
1186.6654636808
 30
0.0
 40
0.9918699999998353
  0
CIRCLE
  5
1D6
330
1F
100
AcDbEntity
  8
0
  6
Continuous
 62
     7
370
    25
100
AcDbCircle
 10
1313.5100591462
 20
483.0854635366
 30
0.0
 40
0.9918700000000626
  0
CIRCLE
  5
1D7
330
1F
100
AcDbEntity
  8
0
  6
Continuous
 62
     7
370
    25
100
AcDbCircle
 10
1205.8550345857
 20
838.6854635367
 30
0.0
 40
0.9918700000000626
  0
CIRCLE
  5
1D8
330
1F
100
AcDbEntity
  8
0
  6
Continuous
 62
     7
370
    25
100
AcDbCircle
 10
2045.3430894719
 20
660.8854635366
 30
0.0
 40
0.9918699999998353
  0
CIRCLE
  5
1D9
330
1F
100
AcDbEntity
  8
0
  6
Continuous
 62
     7
370
    25
100
AcDbCircle
 10
1212.1227441084
 20
464.0354635366
 30
0.0
 40
0.9918700000000626
  0
CIRCLE
  5
1DA
330
1F
100
AcDbEntity
  8
0
  6
Continuous
 62
     7
370
    25
100
AcDbCircle
 10
1516.7100591462
 20
483.0854635366
 30
0.0
 40
0.9918700000000626
  0
CIRCLE
  5
1DB
330
1F
100
AcDbEntity
  8
0
  6
Continuous
 62
     7
370
    25
100
AcDbCircle
 10
2042.1028922294
 20
464.0354635366
 30
0.0
 40
0.9918699999998353
  0
CIRCLE
  5
1DC
330
1F
100
AcDbEntity
  8
0
  6
Continuous
 62
     7
370
    25
100
AcDbCircle
 10
1423.9128181689
 20
1186.6654636808
 30
0.0
 40
0.9918699999998353
  0
CIRCLE
  5
1DD
330
1F
100
AcDbEntity
  8
0
  6
Continuous
 62
     7
370
    25
100
AcDbCircle
 10
1513.6825468659
 20
660.8854635366
 30
0.0
 40
0.9918700000000626
  0
CIRCLE
  5
1DE
330
1F
100
AcDbEntity
  8
0
  6
Continuous
 62
     7
370
    25
100
AcDbCircle
 10
1611.0979162707
 20
853.5104635366
 30
0.0
 40
2.457449999999881
  0
ARC
  5
1DF
330
1F
100
AcDbEntity
  8
0
  6
Continuous
 62
     7
370
    25
100
AcDbCircle
 10
1627.2750063268
 20
1016.4854635366
 30
0.0
 40
0.9918700000002655
100
AcDbArc
 50
260.5888729201
 51
99.4111270799
  0
CIRCLE
  5
1E0
330
1F
100
AcDbEntity
  8
0
  6
Continuous
 62
     7
370
    25
100
AcDbCircle
 10
1423.750630011
 20
1016.4854635366
 30
0.0
 40
0.9918700000000626
  0
CIRCLE
  5
1E1
330
1F
100
AcDbEntity
  8
0
  6
Continuous
 62
     7
370
    25
100
AcDbCircle
 10
1737.5155771916
 20
483.0854635366
 30
0.0
 40
0.9918700000000626
  0
CIRCLE
  5
1E2
330
1F
100
AcDbEntity
  8
0
  6
Continuous
 62
     7
370
    25
100
AcDbCircle
 10
1207.581475688
 20
641.8354635366
 30
0.0
 40
0.9918700000000626
  0
CIRCLE
  5
1E3
330
1F
100
AcDbEntity
  8
0
  6
Continuous
 62
     7
370
    25
100
AcDbCircle
 10
1940.7155771916
 20
483.0854635366
 30
0.0
 40
0.9918700000000626
  0
CIRCLE
  5
1E4
330
1F
100
AcDbEntity
  8
0
  6
Continuous
 62
     7
370
    25
100
AcDbCircle
 10
1310.4825468659
 20
660.8854635366
 30
0.0
 40
0.9918700000000626
  0
CIRCLE
  5
1E5
330
1F
100
AcDbEntity
  8
0
  6
Continuous
 62
     7
370
    25
100
AcDbCircle
 10
2048.3706017521
 20
838.6854635367
 30
0.0
 40
0.99187000000029
  0
CIRCLE
  5
1E6
330
1F
100
AcDbEntity
  8
0
  6
Continuous
 62
     7
370
    25
100
AcDbCircle
 10
1611.0979162708
 20
461.5104635366
 30
0.0
 40
2.457449999999881
  0
CIRCLE
  5
1E7
330
1F
100
AcDbEntity
  8
0
  6
Continuous
 62
     7
370
    25
100
AcDbCircle
 10
1688.0728181689
 20
1096.7898440823
 30
0.0
 40
0.9918700000000626
  0
CIRCLE
  5
1E8
330
1F
100
AcDbEntity
  8
0
  6
Continuous
 62
     7
370
    25
100
AcDbCircle
 10
2033.5128181689
 20
1186.6654636808
 30
0.0
 40
0.9918699999998353
  0
CIRCLE
  5
1E9
330
1F
100
AcDbEntity
  8
0
  6
Continuous
 62
     7
370
    25
100
AcDbCircle
 10
1220.550630011
 20
1016.4854635366
 30
0.0
 40
0.9918700000000626
  0
CIRCLE
  5
1EA
330
1F
100
AcDbEntity
  8
0
  6
Continuous
 62
     7
370
    25
100
AcDbCircle
 10
1986.7307779428
 20
997.4354635366
 30
0.0
 40
0.9918700000000626
  0
CIRCLE
  5
1EB
330
1F
100
AcDbEntity
  8
0
  6
Continuous
 62
     7
370
    25
100
AcDbCircle
 10
1198.4989388473
 20
997.4354635366
 30
0.0
 40
0.9918700000000626
  0
CIRCLE
  5
1EC
330
1F
100
AcDbEntity
  8
0
  6
Continuous
 62
     7
370
    25
100
AcDbCircle
 10
1743.5706017521
 20
838.6854635367
 30
0.0
 40
0.9918700000000626
  0
CIRCLE
  5
1ED
330
1F
100
AcDbEntity
  8
0
  6
Continuous
 62
     7
370
    25
100
AcDbCircle
 10
1643.1781964025
 20
853.5104635366
 30
0.0
 40
2.457450000000108
  0
CIRCLE
  5
1EE
330
1F
100
AcDbEntity
  8
0
  6
Continuous
 62
     7
370
    25
100
AcDbCircle
 10
1643.1781964025
 20
461.5104635366
 30
0.0
 40
2.457449999999881
  0
CIRCLE
  5
1EF
330
1F
100
AcDbEntity
  8
0
  6
Continuous
 62
     7
370
    25
100
AcDbCircle
 10
1943.7430894719
 20
660.8854635366
 30
0.0
 40
0.9918699999998353
  0
CIRCLE
  5
1F0
330
1F
100
AcDbEntity
  8
0
  6
Continuous
 62
     7
370
    25
100
AcDbCircle
 10
2042.3155771916
 20
483.0854635366
 30
0.0
 40
0.9918700000000626
  0
CIRCLE
  5
1F1
330
1F
100
AcDbEntity
  8
0
  6
Continuous
 62
     7
370
    25
100
AcDbCircle
 10
1983.7032656625
 20
641.8354635366
 30
0.0
 40
0.9918700000000626
  0
LINE
  5
1F2
330
1F
100
AcDbEntity
  8
0
  6
Continuous
 62
     7
370
    25
100
AcDbLine
 10
900.9369440055
 20
1194.1919594122
 30
0.0
 11
900.9369440055
 21
452.511959268
 31
0.0
  0
LINE
  5
1F3
330
1F
100
AcDbEntity
  8
0
  6
Continuous
 62
     7
370
    25
100
AcDbLine
 10
900.9369440055
 20
452.511959268
 30
0.0
 11
655.8269440055
 21
452.511959268
 31
0.0
  0
LINE
  5
1F4
330
1F
100
AcDbEntity
  8
0
  6
Continuous
 62
     7
370
    25
100
AcDbLine
 10
655.8269440055
 20
452.511959268
 30
0.0
 11
655.8269440055
 21
1194.1919594122
 31
0.0
  0
LINE
  5
1F5
330
1F
100
AcDbEntity
  8
0
  6
Continuous
 62
     7
370
    25
100
AcDbLine
 10
655.8269440055
 20
1194.1919594122
 30
0.0
 11
900.9369440055
 21
1194.1919594122
 31
0.0
  0
CIRCLE
  5
1F6
330
1F
100
AcDbEntity
  8
0
  6
Continuous
 62
     7
370
    25
100
AcDbCircle
 10
864.0197030282
 20
481.086959268
 30
0.0
 40
5.079999999999927
  0
CIRCLE
  5
1F7
330
1F
100
AcDbEntity
  8
0
  6
Continuous
 62
     7
370
    25
100
AcDbCircle
 10
711.6197030282
 20
481.086959268
 30
0.0
 40
5.079999999999927
  0
CIRCLE
  5
1F8
330
1F
100
AcDbEntity
  8
0
  6
Continuous
 62
     7
370
    25
100
AcDbCircle
 10
867.0472153085
 20
658.886959268
 30
0.0
 40
5.079999999999927
  0
CIRCLE
  5
1F9
330
1F
100
AcDbEntity
  8
0
  6
Continuous
 62
     7
370
    25
100
AcDbCircle
 10
714.6472153085
 20
658.886959268
 30
0.0
 40
5.079999999999927
  0
CIRCLE
  5
1FA
330
1F
100
AcDbEntity
  8
0
  6
Continuous
 62
     7
370
    25
100
AcDbCircle
 10
872.8058357971
 20
836.686959268
 30
0.0
 40
5.079999999999927
  0
CIRCLE
  5
1FB
330
1F
100
AcDbEntity
  8
0
  6
Continuous
 62
     7
370
    25
100
AcDbCircle
 10
717.6747275887
 20
836.686959268
 30
0.0
 40
5.080000000000041
  0
CIRCLE
  5
1FC
330
1F
100
AcDbEntity
  8
0
  6
Continuous
 62
     7
370
    25
100
AcDbCircle
 10
855.2169440055
 20
1014.486959268
 30
0.0
 40
5.080000000000041
  0
CIRCLE
  5
1FD
330
1F
100
AcDbEntity
  8
0
  6
Continuous
 62
     7
370
    25
100
AcDbCircle
 10
702.8169440055
 20
1014.486959268
 30
0.0
 40
5.079999999999927
  0
CIRCLE
  5
1FE
330
1F
100
AcDbEntity
  8
0
  6
Continuous
 62
     7
370
    25
100
AcDbCircle
 10
855.2169440055
 20
1184.6669594122
 30
0.0
 40
5.080000000000041
  0
CIRCLE
  5
1FF
330
1F
100
AcDbEntity
  8
0
  6
Continuous
 62
     7
370
    25
100
AcDbCircle
 10
702.8169440055
 20
1184.6669594122
 30
0.0
 40
5.080000000000155
  0
CIRCLE
  5
200
330
1F
100
AcDbEntity
  8
0
  6
Continuous
 62
     7
370
    25
100
AcDbCircle
 10
665.8269440055
 20
646.5142901622
 30
0.0
 40
2.900000000000091
  0
CIRCLE
  5
201
330
1F
100
AcDbEntity
  8
0
  6
Continuous
 62
     7
370
    25
100
AcDbCircle
 10
665.8269440055
 20
767.8859594122
 30
0.0
 40
2.899999999999864
  0
CIRCLE
  5
202
330
1F
100
AcDbEntity
  8
0
  6
Continuous
 62
     7
370
    25
100
AcDbCircle
 10
665.8269440055
 20
787.8859594122
 30
0.0
 40
2.899999999999864
  0
CIRCLE
  5
203
330
1F
100
AcDbEntity
  8
0
  6
Continuous
 62
     7
370
    25
100
AcDbCircle
 10
665.8269440055
 20
909.2576286622
 30
0.0
 40
2.899999999999977
  0
CIRCLE
  5
204
330
1F
100
AcDbEntity
  8
0
  6
Continuous
 62
     7
370
    25
100
AcDbCircle
 10
855.2169440055
 20
1014.486959268
 30
0.0
 40
0.9918700000000626
  0
CIRCLE
  5
205
330
1F
100
AcDbEntity
  8
0
  6
Continuous
 62
     7
370
    25
100
AcDbCircle
 10
711.6197030282
 20
481.086959268
 30
0.0
 40
0.991869999999949
  0
CIRCLE
  5
206
330
1F
100
AcDbEntity
  8
0
  6
Continuous
 62
     7
370
    25
100
AcDbCircle
 10
714.6472153085
 20
658.886959268
 30
0.0
 40
0.9918700000000626
  0
CIRCLE
  5
207
330
1F
100
AcDbEntity
  8
0
  6
Continuous
 62
     7
370
    25
100
AcDbCircle
 10
864.0197030282
 20
481.086959268
 30
0.0
 40
0.991869999999949
  0
CIRCLE
  5
208
330
1F
100
AcDbEntity
  8
0
  6
Continuous
 62
     7
370
    25
100
AcDbCircle
 10
855.2169440055
 20
1184.6669594122
 30
0.0
 40
0.9918700000000626
  0
CIRCLE
  5
209
330
1F
100
AcDbEntity
  8
0
  6
Continuous
 62
     7
370
    25
100
AcDbCircle
 10
702.8169440055
 20
1184.6669594122
 30
0.0
 40
0.9918700000000626
  0
CIRCLE
  5
20A
330
1F
100
AcDbEntity
  8
0
  6
Continuous
 62
     7
370
    25
100
AcDbCircle
 10
702.8169440055
 20
1014.486959268
 30
0.0
 40
0.991869999999949
  0
CIRCLE
  5
20B
330
1F
100
AcDbEntity
  8
0
  6
Continuous
 62
     7
370
    25
100
AcDbCircle
 10
867.0472153085
 20
658.886959268
 30
0.0
 40
0.991869999999949
  0
CIRCLE
  5
20C
330
1F
100
AcDbEntity
  8
0
  6
Continuous
 62
     7
370
    25
100
AcDbCircle
 10
872.8058357971
 20
836.686959268
 30
0.0
 40
0.991869999999949
  0
CIRCLE
  5
20D
330
1F
100
AcDbEntity
  8
0
  6
Continuous
 62
     7
370
    25
100
AcDbCircle
 10
717.6747275887
 20
836.686959268
 30
0.0
 40
0.9918700000000626
  0
LINE
  5
20E
330
1F
100
AcDbEntity
  8
0
  6
Continuous
 62
     7
370
    25
100
AcDbLine
 10
1152.6416786175
 20
454.5104635366
 30
0.0
 11
1152.6416786175
 21
1196.1904636808
 31
0.0
  0
LINE
  5
20F
330
1F
100
AcDbEntity
  8
0
  6
Continuous
 62
     7
370
    25
100
AcDbLine
 10
907.5316786175
 20
454.5104635366
 30
0.0
 11
1152.6416786175
 21
454.5104635366
 31
0.0
  0
LINE
  5
210
330
1F
100
AcDbEntity
  8
0
  6
Continuous
 62
     7
370
    25
100
AcDbLine
 10
907.5316786175
 20
1196.1904636808
 30
0.0
 11
907.5316786175
 21
454.5104635366
 31
0.0
  0
LINE
  5
211
330
1F
100
AcDbEntity
  8
0
  6
Continuous
 62
     7
370
    25
100
AcDbLine
 10
1152.6416786175
 20
1196.1904636808
 30
0.0
 11
907.5316786175
 21
1196.1904636808
 31
0.0
  0
CIRCLE
  5
212
330
1F
100
AcDbEntity
  8
0
  6
Continuous
 62
     7
370
    25
100
AcDbCircle
 10
944.4489195948
 20
483.0854635366
 30
0.0
 40
5.079999999999927
  0
CIRCLE
  5
213
330
1F
100
AcDbEntity
  8
0
  6
Continuous
 62
     7
370
    25
100
AcDbCircle
 10
1096.8489195948
 20
483.0854635366
 30
0.0
 40
5.079999999999927
  0
CIRCLE
  5
214
330
1F
100
AcDbEntity
  8
0
  6
Continuous
 62
     7
370
    25
100
AcDbCircle
 10
941.4214073146
 20
660.8854635366
 30
0.0
 40
5.080000000000041
  0
CIRCLE
  5
215
330
1F
100
AcDbEntity
  8
0
  6
Continuous
 62
     7
370
    25
100
AcDbCircle
 10
1093.8214073146
 20
660.8854635366
 30
0.0
 40
5.080000000000155
  0
CIRCLE
  5
216
330
1F
100
AcDbEntity
  8
0
  6
Continuous
 62
     7
370
    25
100
AcDbCircle
 10
935.6627868259
 20
838.6854635367
 30
0.0
 40
5.080000000000041
  0
CIRCLE
  5
217
330
1F
100
AcDbEntity
  8
0
  6
Continuous
 62
     7
370
    25
100
AcDbCircle
 10
1090.7938950343
 20
838.6854635367
 30
0.0
 40
5.080000000000155
  0
CIRCLE
  5
218
330
1F
100
AcDbEntity
  8
0
  6
Continuous
 62
     7
370
    25
100
AcDbCircle
 10
953.2516786175
 20
1016.4854635366
 30
0.0
 40
5.079999999999927
  0
CIRCLE
  5
219
330
1F
100
AcDbEntity
  8
0
  6
Continuous
 62
     7
370
    25
100
AcDbCircle
 10
1105.6516786175
 20
1016.4854635366
 30
0.0
 40
5.079999999999927
  0
CIRCLE
  5
21A
330
1F
100
AcDbEntity
  8
0
  6
Continuous
 62
     7
370
    25
100
AcDbCircle
 10
953.2516786175
 20
1186.6654636808
 30
0.0
 40
5.079999999999927
  0
CIRCLE
  5
21B
330
1F
100
AcDbEntity
  8
0
  6
Continuous
 62
     7
370
    25
100
AcDbCircle
 10
1105.6516786175
 20
1186.6654636808
 30
0.0
 40
5.079999999999927
  0
CIRCLE
  5
21C
330
1F
100
AcDbEntity
  8
0
  6
Continuous
 62
     7
370
    25
100
AcDbCircle
 10
1142.6416786175
 20
648.5127944308
 30
0.0
 40
2.899999999999864
  0
CIRCLE
  5
21D
330
1F
100
AcDbEntity
  8
0
  6
Continuous
 62
     7
370
    25
100
AcDbCircle
 10
1142.6416786175
 20
769.8844636808
 30
0.0
 40
2.900000000000091
  0
CIRCLE
  5
21E
330
1F
100
AcDbEntity
  8
0
  6
Continuous
 62
     7
370
    25
100
AcDbCircle
 10
1142.6416786175
 20
789.8844636808
 30
0.0
 40
2.899999999999864
  0
CIRCLE
  5
21F
330
1F
100
AcDbEntity
  8
0
  6
Continuous
 62
     7
370
    25
100
AcDbCircle
 10
1142.6416786175
 20
911.2561329308
 30
0.0
 40
2.899999999999864
  0
CIRCLE
  5
220
330
1F
100
AcDbEntity
  8
0
  6
Continuous
 62
     7
370
    25
100
AcDbCircle
 10
944.4489195948
 20
483.0854635366
 30
0.0
 40
0.991869999999949
  0
CIRCLE
  5
221
330
1F
100
AcDbEntity
  8
0
  6
Continuous
 62
     7
370
    25
100
AcDbCircle
 10
1105.6516786175
 20
1016.4854635366
 30
0.0
 40
0.9918700000000626
  0
CIRCLE
  5
222
330
1F
100
AcDbEntity
  8
0
  6
Continuous
 62
     7
370
    25
100
AcDbCircle
 10
953.2516786175
 20
1186.6654636808
 30
0.0
 40
0.9918700000000626
  0
CIRCLE
  5
223
330
1F
100
AcDbEntity
  8
0
  6
Continuous
 62
     7
370
    25
100
AcDbCircle
 10
1105.6516786175
 20
1186.6654636808
 30
0.0
 40
0.9918700000000626
  0
CIRCLE
  5
224
330
1F
100
AcDbEntity
  8
0
  6
Continuous
 62
     7
370
    25
100
AcDbCircle
 10
941.4214073146
 20
660.8854635366
 30
0.0
 40
0.9918700000000626
  0
CIRCLE
  5
225
330
1F
100
AcDbEntity
  8
0
  6
Continuous
 62
     7
370
    25
100
AcDbCircle
 10
1090.7938950343
 20
838.6854635367
 30
0.0
 40
0.9918700000000626
  0
CIRCLE
  5
226
330
1F
100
AcDbEntity
  8
0
  6
Continuous
 62
     7
370
    25
100
AcDbCircle
 10
1096.8489195948
 20
483.0854635366
 30
0.0
 40
0.9918700000000626
  0
CIRCLE
  5
227
330
1F
100
AcDbEntity
  8
0
  6
Continuous
 62
     7
370
    25
100
AcDbCircle
 10
1093.8214073146
 20
660.8854635366
 30
0.0
 40
0.9918700000000626
  0
CIRCLE
  5
228
330
1F
100
AcDbEntity
  8
0
  6
Continuous
 62
     7
370
    25
100
AcDbCircle
 10
935.6627868259
 20
838.6854635367
 30
0.0
 40
0.9918700000000626
  0
CIRCLE
  5
229
330
1F
100
AcDbEntity
  8
0
  6
Continuous
 62
     7
370
    25
100
AcDbCircle
 10
953.2516786175
 20
1016.4854635366
 30
0.0
 40
0.991869999999949
  0
LWPOLYLINE
  5
22A
330
1F
100
AcDbEntity
  8
0
  6
Continuous
 62
     7
370
    25
100
AcDbPolyline
 90
        5
 70
   128
 43
0.0
 10
2157.793889675
 20
1183.4163901636
 10
2159.0166426331
 20
1139.2228782347
 10
2163.9077613193
 20
962.4488334987
 10
2168.8267624086
 20
784.6736524151
 10
2173.7459581796
 20
606.89847676
  0
SPLINE
  5
22B
330
1F
100
AcDbEntity
  8
0
  6
Continuous
 62
     7
370
    25
100
AcDbSpline
210
0.0
220
0.0
230
1.0
 70
    24
 71
     3
 72
    14
 73
    10
 74
     0
 42
0.00000001
 43
0.00000001
 40
0.0
 40
0.0
 40
0.0
 40
0.0
 40
0.1434393606020921
 40
0.2866824799985451
 40
0.4297306540626626
 40
0.5725851839729841
 40
0.7152473762065438
 40
0.8577185425315956
 40
1.0
 40
1.0
 40
1.0
 40
1.0
 10
2165.597610995123
 20
1183.416390161727
 30
0.0
 10
2165.215693077224
 20
1183.416390161726
 30
0.0
 10
2164.452379748164
 20
1183.416390161727
 30
0.0
 10
2163.318537313013
 20
1183.416390161727
 30
0.0
 10
2162.193859199386
 20
1183.416390161727
 30
0.0
 10
2161.079030082646
 20
1183.416390161727
 30
0.0
 10
2159.974056057311
 20
1183.416390161729
 30
0.0
 10
2158.878230893959
 20
1183.416390161729
 30
0.0
 10
2158.15517601586
 20
1183.416390161727
 30
0.0
 10
2157.793889434845
 20
1183.416390161727
 30
0.0
  0
LINE
  5
22C
330
1F
100
AcDbEntity
  8
0
  6
Continuous
 62
     7
370
    25
100
AcDbLine
 10
2250.0747921208
 20
1183.4163901617
 30
0.0
 11
2165.5976109953
 21
1183.4163901617
 31
0.0
  0
LINE
  5
22D
330
1F
100
AcDbEntity
  8
0
  6
Continuous
 62
     7
370
    25
100
AcDbLine
 10
2250.0747921208
 20
1183.4163901617
 30
0.0
 11
2250.0747921208
 21
608.3279752563
 31
0.0
  0
CIRCLE
  5
22E
330
1F
100
AcDbEntity
  8
0
  6
Continuous
 62
     7
370
    25
100
AcDbCircle
 10
2229.9092572812
 20
643.782035822
 30
0.0
 40
4.21640000000059
  0
CIRCLE
  5
22F
330
1F
100
AcDbEntity
  8
0
  6
Continuous
 62
     7
370
    25
100
AcDbCircle
 10
2191.7954906173
 20
643.7820358328
 30
0.0
 40
4.216399999999794
  0
CIRCLE
  5
230
330
1F
100
AcDbEntity
  8
0
  6
Continuous
 62
     7
370
    25
100
AcDbCircle
 10
2231.3777053069
 20
767.4183606158
 30
0.0
 40
4.216400000000704
  0
CIRCLE
  5
231
330
1F
100
AcDbEntity
  8
0
  6
Continuous
 62
     7
370
    25
100
AcDbCircle
 10
2193.2639386439
 20
767.4183605972
 30
0.0
 40
4.216399999999794
  0
CIRCLE
  5
232
330
1F
100
AcDbEntity
  8
0
  6
Continuous
 62
     7
370
    25
100
AcDbCircle
 10
2191.7954906174
 20
822.0819197219
 30
0.0
 40
4.216399999999794
  0
CIRCLE
  5
233
330
1F
100
AcDbEntity
  8
0
  6
Continuous
 62
     7
370
    25
100
AcDbCircle
 10
2229.9092572813
 20
822.0819197111
 30
0.0
 40
4.216399999999794
  0
CIRCLE
  5
234
330
1F
100
AcDbEntity
  8
0
  6
Continuous
 62
     7
370
    25
100
AcDbCircle
 10
2231.3778081065
 20
945.7182445048
 30
0.0
 40
4.216399999998885
  0
CIRCLE
  5
235
330
1F
100
AcDbEntity
  8
0
  6
Continuous
 62
     7
370
    25
100
AcDbCircle
 10
2193.2640414435
 20
945.7182444845
 30
0.0
 40
4.216400000000704
  0
CIRCLE
  5
236
330
1F
100
AcDbEntity
  8
0
  6
Continuous
 62
     7
370
    25
100
AcDbCircle
 10
2191.7954906181
 20
1000.381803613
 30
0.0
 40
4.216399999999794
  0
CIRCLE
  5
237
330
1F
100
AcDbEntity
  8
0
  6
Continuous
 62
     7
370
    25
100
AcDbCircle
 10
2229.909257282
 20
1000.3818036005
 30
0.0
 40
4.216399999998885
  0
CIRCLE
  5
238
330
1F
100
AcDbEntity
  8
0
  6
Continuous
 62
     7
370
    25
100
AcDbCircle
 10
2219.0122921208
 20
1106.8731284011
 30
0.0
 40
4.216399999999794
  0
CIRCLE
  5
239
330
1F
100
AcDbEntity
  8
0
  6
Continuous
 62
     7
370
    25
100
AcDbCircle
 10
2180.9122921208
 20
1106.8731284011
 30
0.0
 40
4.216399999999794
  0
CIRCLE
  5
23A
330
1F
100
AcDbEntity
  8
0
  6
Continuous
 62
     7
370
    25
100
AcDbCircle
 10
2180.9122921208
 20
1125.9231284011
 30
0.0
 40
4.216400000000704
  0
CIRCLE
  5
23B
330
1F
100
AcDbEntity
  8
0
  6
Continuous
 62
     7
370
    25
100
AcDbCircle
 10
2219.0122921208
 20
1125.9231284011
 30
0.0
 40
4.216400000000704
  0
CIRCLE
  5
23C
330
1F
100
AcDbEntity
  8
0
  6
Continuous
 62
     7
370
    25
100
AcDbCircle
 10
2219.0122921208
 20
1106.8731284011
 30
0.0
 40
2.457449999999653
  0
CIRCLE
  5
23D
330
1F
100
AcDbEntity
  8
0
  6
Continuous
 62
     7
370
    25
100
AcDbCircle
 10
2193.2640414435
 20
945.7182444845
 30
0.0
 40
2.457450000000449
  0
CIRCLE
  5
23E
330
1F
100
AcDbEntity
  8
0
  6
Continuous
 62
     7
370
    25
100
AcDbCircle
 10
2229.909257282
 20
1000.3818036005
 30
0.0
 40
2.45744999999954
  0
CIRCLE
  5
23F
330
1F
100
AcDbEntity
  8
0
  6
Continuous
 62
     7
370
    25
100
AcDbCircle
 10
2191.7954906174
 20
822.0819197219
 30
0.0
 40
2.457449999999653
  0
CIRCLE
  5
240
330
1F
100
AcDbEntity
  8
0
  6
Continuous
 62
     7
370
    25
100
AcDbCircle
 10
2180.9122921208
 20
1106.8731284011
 30
0.0
 40
2.457450000000563
  0
CIRCLE
  5
241
330
1F
100
AcDbEntity
  8
0
  6
Continuous
 62
     7
370
    25
100
AcDbCircle
 10
2219.0122921208
 20
1125.9231284011
 30
0.0
 40
2.457450000000563
  0
CIRCLE
  5
242
330
1F
100
AcDbEntity
  8
0
  6
Continuous
 62
     7
370
    25
100
AcDbCircle
 10
2191.7954906173
 20
643.7820358328
 30
0.0
 40
2.457449999999653
  0
CIRCLE
  5
243
330
1F
100
AcDbEntity
  8
0
  6
Continuous
 62
     7
370
    25
100
AcDbCircle
 10
2231.3777053069
 20
767.4183606158
 30
0.0
 40
2.457450000000563
  0
CIRCLE
  5
244
330
1F
100
AcDbEntity
  8
0
  6
Continuous
 62
     7
370
    25
100
AcDbCircle
 10
2193.2639386439
 20
767.4183605972
 30
0.0
 40
2.457450000000563
  0
CIRCLE
  5
245
330
1F
100
AcDbEntity
  8
0
  6
Continuous
 62
     7
370
    25
100
AcDbCircle
 10
2191.7954906181
 20
1000.381803613
 30
0.0
 40
2.457450000000563
  0
CIRCLE
  5
246
330
1F
100
AcDbEntity
  8
0
  6
Continuous
 62
     7
370
    25
100
AcDbCircle
 10
2229.9092572813
 20
822.0819197111
 30
0.0
 40
2.457449999999653
  0
CIRCLE
  5
247
330
1F
100
AcDbEntity
  8
0
  6
Continuous
 62
     7
370
    25
100
AcDbCircle
 10
2231.3778081065
 20
945.7182445048
 30
0.0
 40
2.457449999999653
  0
CIRCLE
  5
248
330
1F
100
AcDbEntity
  8
0
  6
Continuous
 62
     7
370
    25
100
AcDbCircle
 10
2229.9092572812
 20
643.782035822
 30
0.0
 40
2.457449999999653
  0
CIRCLE
  5
249
330
1F
100
AcDbEntity
  8
0
  6
Continuous
 62
     7
370
    25
100
AcDbCircle
 10
2180.9122921208
 20
1125.9231284011
 30
0.0
 40
2.457450000000563
  0
LINE
  5
24A
330
1F
100
AcDbEntity
  8
0
  6
Continuous
 62
     7
370
    25
100
AcDbLine
 10
2173.7459581796
 20
606.89847676
 30
0.0
 11
2250.0747921208
 21
606.8984767385
 31
0.0
  0
LINE
  5
24B
330
1F
100
AcDbEntity
  8
0
  6
Continuous
 62
     7
370
    25
100
AcDbLine
 10
2250.0747921208
 20
608.3279752563
 30
0.0
 11
2250.0747921208
 21
606.8984767385
 31
0.0
  0
LWPOLYLINE
  5
24C
330
1F
100
AcDbEntity
  8
0
  6
Continuous
 62
     7
370
    25
100
AcDbPolyline
 90
        5
 70
   128
 43
0.0
 10
2367.638068073
 20
1184.9612142668
 10
2366.415315115
 20
1140.7677023379
 10
2361.5241964287
 20
963.9936576019
 10
2356.6051953394
 20
786.2184765183
 10
2351.6859995685
 20
608.4433008632
  0
SPLINE
  5
24D
330
1F
100
AcDbEntity
  8
0
  6
Continuous
 62
     7
370
    25
100
AcDbSpline
210
0.0
220
0.0
230
1.0
 70
    24
 71
     3
 72
    14
 73
    10
 74
     0
 42
0.00000001
 43
0.00000001
 40
0.0
 40
0.0
 40
0.0
 40
0.0
 40
0.1434393606020818
 40
0.2866824799985423
 40
0.4297306540626686
 40
0.5725851839729789
 40
0.7152473762065262
 40
0.85771854253161
 40
1.0
 40
1.0
 40
1.0
 40
1.0
 10
2359.834346752908
 20
1184.961214264951
 30
0.0
 10
2360.216264670808
 20
1184.96121426495
 30
0.0
 10
2360.979577999868
 20
1184.961214264951
 30
0.0
 10
2362.113420435018
 20
1184.961214264948
 30
0.0
 10
2363.238098548645
 20
1184.96121426495
 30
0.0
 10
2364.352927665386
 20
1184.961214264949
 30
0.0
 10
2365.457901690721
 20
1184.961214264949
 30
0.0
 10
2366.553726854072
 20
1184.961214264953
 30
0.0
 10
2367.276781732172
 20
1184.961214264949
 30
0.0
 10
2367.638068313187
 20
1184.96121426495
 30
0.0
  0
LINE
  5
24E
330
1F
100
AcDbEntity
  8
0
  6
Continuous
 62
     7
370
    25
100
AcDbLine
 10
2275.3571656273
 20
1184.961214265
 30
0.0
 11
2359.8343467527
 21
1184.9612142649
 31
0.0
  0
LINE
  5
24F
330
1F
100
AcDbEntity
  8
0
  6
Continuous
 62
     7
370
    25
100
AcDbLine
 10
2275.3571656273
 20
1184.961214265
 30
0.0
 11
2275.3571656273
 21
609.8727993595
 31
0.0
  0
CIRCLE
  5
250
330
1F
100
AcDbEntity
  8
0
  6
Continuous
 62
     7
370
    25
100
AcDbCircle
 10
2295.5227004668
 20
645.3268599253
 30
0.0
 40
4.216399999999794
  0
CIRCLE
  5
251
330
1F
100
AcDbEntity
  8
0
  6
Continuous
 62
     7
370
    25
100
AcDbCircle
 10
2333.6364671307
 20
645.3268599361
 30
0.0
 40
4.216399999998885
  0
CIRCLE
  5
252
330
1F
100
AcDbEntity
  8
0
  6
Continuous
 62
     7
370
    25
100
AcDbCircle
 10
2294.0542524411
 20
768.963184719
 30
0.0
 40
4.216400000000704
  0
CIRCLE
  5
253
330
1F
100
AcDbEntity
  8
0
  6
Continuous
 62
     7
370
    25
100
AcDbCircle
 10
2332.1680191041
 20
768.9631847004
 30
0.0
 40
4.216400000000704
  0
CIRCLE
  5
254
330
1F
100
AcDbEntity
  8
0
  6
Continuous
 62
     7
370
    25
100
AcDbCircle
 10
2333.6364671307
 20
823.6267438251
 30
0.0
 40
4.216399999998885
  0
CIRCLE
  5
255
330
1F
100
AcDbEntity
  8
0
  6
Continuous
 62
     7
370
    25
100
AcDbCircle
 10
2295.5227004668
 20
823.6267438143
 30
0.0
 40
4.216399999998885
  0
CIRCLE
  5
256
330
1F
100
AcDbEntity
  8
0
  6
Continuous
 62
     7
370
    25
100
AcDbCircle
 10
2294.0541496415
 20
947.263068608
 30
0.0
 40
4.216399999998885
  0
CIRCLE
  5
257
330
1F
100
AcDbEntity
  8
0
  6
Continuous
 62
     7
370
    25
100
AcDbCircle
 10
2332.1679163046
 20
947.2630685878
 30
0.0
 40
4.21640000000059
  0
CIRCLE
  5
258
330
1F
100
AcDbEntity
  8
0
  6
Continuous
 62
     7
370
    25
100
AcDbCircle
 10
2333.6364671299
 20
1001.9266277162
 30
0.0
 40
4.216400000000704
  0
CIRCLE
  5
259
330
1F
100
AcDbEntity
  8
0
  6
Continuous
 62
     7
370
    25
100
AcDbCircle
 10
2295.5227004661
 20
1001.9266277037
 30
0.0
 40
4.216399999998885
  0
CIRCLE
  5
25A
330
1F
100
AcDbEntity
  8
0
  6
Continuous
 62
     7
370
    25
100
AcDbCircle
 10
2306.4196656273
 20
1108.4179525043
 30
0.0
 40
4.216400000000704
  0
CIRCLE
  5
25B
330
1F
100
AcDbEntity
  8
0
  6
Continuous
 62
     7
370
    25
100
AcDbCircle
 10
2344.5196656273
 20
1108.4179525043
 30
0.0
 40
4.216400000000704
  0
CIRCLE
  5
25C
330
1F
100
AcDbEntity
  8
0
  6
Continuous
 62
     7
370
    25
100
AcDbCircle
 10
2344.5196656273
 20
1127.4679525043
 30
0.0
 40
4.216399999999794
  0
CIRCLE
  5
25D
330
1F
100
AcDbEntity
  8
0
  6
Continuous
 62
     7
370
    25
100
AcDbCircle
 10
2306.4196656273
 20
1127.4679525043
 30
0.0
 40
4.216399999999794
  0
CIRCLE
  5
25E
330
1F
100
AcDbEntity
  8
0
  6
Continuous
 62
     7
370
    25
100
AcDbCircle
 10
2344.5196656273
 20
1108.4179525043
 30
0.0
 40
2.457450000000563
  0
CIRCLE
  5
25F
330
1F
100
AcDbEntity
  8
0
  6
Continuous
 62
     7
370
    25
100
AcDbCircle
 10
2295.5227004668
 20
645.3268599253
 30
0.0
 40
2.457449999999653
  0
CIRCLE
  5
260
330
1F
100
AcDbEntity
  8
0
  6
Continuous
 62
     7
370
    25
100
AcDbCircle
 10
2295.5227004668
 20
823.6267438143
 30
0.0
 40
2.45744999999954
  0
CIRCLE
  5
261
330
1F
100
AcDbEntity
  8
0
  6
Continuous
 62
     7
370
    25
100
AcDbCircle
 10
2306.4196656273
 20
1108.4179525043
 30
0.0
 40
2.457450000000563
  0
CIRCLE
  5
262
330
1F
100
AcDbEntity
  8
0
  6
Continuous
 62
     7
370
    25
100
AcDbCircle
 10
2344.5196656273
 20
1127.4679525043
 30
0.0
 40
2.457450000000563
  0
CIRCLE
  5
263
330
1F
100
AcDbEntity
  8
0
  6
Continuous
 62
     7
370
    25
100
AcDbCircle
 10
2295.5227004661
 20
1001.9266277037
 30
0.0
 40
2.457449999999653
  0
CIRCLE
  5
264
330
1F
100
AcDbEntity
  8
0
  6
Continuous
 62
     7
370
    25
100
AcDbCircle
 10
2332.1679163046
 20
947.2630685878
 30
0.0
 40
2.457450000000449
  0
CIRCLE
  5
265
330
1F
100
AcDbEntity
  8
0
  6
Continuous
 62
     7
370
    25
100
AcDbCircle
 10
2333.6364671307
 20
823.6267438251
 30
0.0
 40
2.457449999999653
  0
CIRCLE
  5
266
330
1F
100
AcDbEntity
  8
0
  6
Continuous
 62
     7
370
    25
100
AcDbCircle
 10
2333.6364671307
 20
645.3268599361
 30
0.0
 40
2.457449999999653
  0
CIRCLE
  5
267
330
1F
100
AcDbEntity
  8
0
  6
Continuous
 62
     7
370
    25
100
AcDbCircle
 10
2306.4196656273
 20
1127.4679525043
 30
0.0
 40
2.457450000000563
  0
CIRCLE
  5
268
330
1F
100
AcDbEntity
  8
0
  6
Continuous
 62
     7
370
    25
100
AcDbCircle
 10
2294.0541496415
 20
947.263068608
 30
0.0
 40
2.457449999999653
  0
CIRCLE
  5
269
330
1F
100
AcDbEntity
  8
0
  6
Continuous
 62
     7
370
    25
100
AcDbCircle
 10
2294.0542524411
 20
768.963184719
 30
0.0
 40
2.457450000000563
  0
CIRCLE
  5
26A
330
1F
100
AcDbEntity
  8
0
  6
Continuous
 62
     7
370
    25
100
AcDbCircle
 10
2332.1680191041
 20
768.9631847004
 30
0.0
 40
2.457450000000563
  0
CIRCLE
  5
26B
330
1F
100
AcDbEntity
  8
0
  6
Continuous
 62
     7
370
    25
100
AcDbCircle
 10
2333.6364671299
 20
1001.9266277162
 30
0.0
 40
2.457450000000449
  0
LINE
  5
26C
330
1F
100
AcDbEntity
  8
0
  6
Continuous
 62
     7
370
    25
100
AcDbLine
 10
2351.6859995685
 20
608.4433008632
 30
0.0
 11
2275.3571656273
 21
608.4433008417
 31
0.0
  0
LINE
  5
26D
330
1F
100
AcDbEntity
  8
0
  6
Continuous
 62
     7
370
    25
100
AcDbLine
 10
2275.3571656273
 20
609.8727993595
 30
0.0
 11
2275.3571656273
 21
608.4433008417
 31
0.0
  0
LINE
  5
26E
330
1F
100
AcDbEntity
  8
0
  6
Continuous
 62
     7
370
    25
100
AcDbLine
 10
1633.8047001548
 20
17.0998371338
 30
0.0
 11
1633.8047001548
 21
74.2498371338
 31
0.0
  0
LINE
  5
26F
330
1F
100
AcDbEntity
  8
0
  6
Continuous
 62
     7
370
    25
100
AcDbLine
 10
694.0437170438
 20
17.0998371338
 30
0.0
 11
1633.8047001548
 21
17.0998371338
 31
0.0
  0
LINE
  5
270
330
1F
100
AcDbEntity
  8
0
  6
Continuous
 62
     7
370
    25
100
AcDbLine
 10
694.0437170438
 20
74.2498371338
 30
0.0
 11
694.0437170438
 21
17.0998371338
 31
0.0
  0
LINE
  5
271
330
1F
100
AcDbEntity
  8
0
  6
Continuous
 62
     7
370
    25
100
AcDbLine
 10
1633.8047001548
 20
74.2498371338
 30
0.0
 11
694.0437170438
 21
74.2498371338
 31
0.0
  0
LINE
  5
272
330
1F
100
AcDbEntity
  8
0
  6
Continuous
 62
     7
370
    25
100
AcDbLine
 10
1627.3604240105
 20
84.5670855866
 30
0.0
 11
1627.3604240105
 21
141.7170855866
 31
0.0
  0
LINE
  5
273
330
1F
100
AcDbEntity
  8
0
  6
Continuous
 62
     7
370
    25
100
AcDbLine
 10
700.4879931881
 20
84.5670855866
 30
0.0
 11
1627.3604240105
 21
84.5670855866
 31
0.0
  0
LINE
  5
274
330
1F
100
AcDbEntity
  8
0
  6
Continuous
 62
     7
370
    25
100
AcDbLine
 10
700.4879931881
 20
141.7170855866
 30
0.0
 11
700.4879931881
 21
84.5670855866
 31
0.0
  0
LINE
  5
275
330
1F
100
AcDbEntity
  8
0
  6
Continuous
 62
     7
370
    25
100
AcDbLine
 10
1627.3604240105
 20
141.7170855866
 30
0.0
 11
700.4879931881
 21
141.7170855866
 31
0.0
  0
LINE
  5
276
330
1F
100
AcDbEntity
  8
0
  6
Continuous
 62
     7
370
    25
100
AcDbLine
 10
2344.0125938256
 20
274.06963527
 30
0.0
 11
2344.0125938256
 21
331.21963527
 31
0.0
  0
LINE
  5
277
330
1F
100
AcDbEntity
  8
0
  6
Continuous
 62
     7
370
    25
100
AcDbLine
 10
1978.7514520959
 20
274.06963527
 30
0.0
 11
2344.0125938256
 21
274.06963527
 31
0.0
  0
LINE
  5
278
330
1F
100
AcDbEntity
  8
0
  6
Continuous
 62
     7
370
    25
100
AcDbLine
 10
1978.7514520959
 20
274.06963527
 30
0.0
 11
1978.7514520959
 21
331.21963527
 31
0.0
  0
LINE
  5
279
330
1F
100
AcDbEntity
  8
0
  6
Continuous
 62
     7
370
    25
100
AcDbLine
 10
2344.0125938256
 20
331.21963527
 30
0.0
 11
1978.7514520959
 21
331.21963527
 31
0.0
  0
LINE
  5
27A
330
1F
100
AcDbEntity
  8
0
  6
Continuous
 62
     7
370
    25
100
AcDbLine
 10
2318.100597863
 20
398.1137399042
 30
0.0
 11
1969.0074076293
 21
398.1137399042
 31
0.0
  0
LINE
  5
27B
330
1F
100
AcDbEntity
  8
0
  6
Continuous
 62
     7
370
    25
100
AcDbLine
 10
2318.100597863
 20
340.9637399042
 30
0.0
 11
2318.100597863
 21
398.1137399042
 31
0.0
  0
LINE
  5
27C
330
1F
100
AcDbEntity
  8
0
  6
Continuous
 62
     7
370
    25
100
AcDbLine
 10
1969.0074076293
 20
340.9637399042
 30
0.0
 11
2318.100597863
 21
340.9637399042
 31
0.0
  0
LINE
  5
27D
330
1F
100
AcDbEntity
  8
0
  6
Continuous
 62
     7
370
    25
100
AcDbLine
 10
1969.0074076293
 20
340.9637399042
 30
0.0
 11
1969.0074076293
 21
398.1137399042
 31
0.0
  0
LINE
  5
27E
330
1F
100
AcDbEntity
  8
0
  6
Continuous
 62
     7
370
    25
100
AcDbLine
 10
1065.4416264699
 20
325.5472846974
 30
0.0
 11
710.2934501884
 21
325.5472846974
 31
0.0
  0
LINE
  5
27F
330
1F
100
AcDbEntity
  8
0
  6
Continuous
 62
     7
370
    25
100
AcDbLine
 10
710.2934501884
 20
268.3972846974
 30
0.0
 11
710.2934501884
 21
325.5472846974
 31
0.0
  0
LINE
  5
280
330
1F
100
AcDbEntity
  8
0
  6
Continuous
 62
     7
370
    25
100
AcDbLine
 10
710.2934501884
 20
268.3972846974
 30
0.0
 11
1065.4416264699
 21
268.3972846974
 31
0.0
  0
LINE
  5
281
330
1F
100
AcDbEntity
  8
0
  6
Continuous
 62
     7
370
    25
100
AcDbLine
 10
1065.4416264699
 20
268.3972846974
 30
0.0
 11
1065.4416264699
 21
325.5472846974
 31
0.0
  0
LINE
  5
282
330
1F
100
AcDbEntity
  8
0
  6
Continuous
 62
     7
370
    25
100
AcDbLine
 10
2149.0932779573
 20
779.5554849808
 30
0.0
 11
2091.9432779573
 21
779.5554849808
 31
0.0
  0
LINE
  5
283
330
1F
100
AcDbEntity
  8
0
  6
Continuous
 62
     7
370
    25
100
AcDbLine
 10
2149.0932779573
 20
779.5554849808
 30
0.0
 11
2149.0932779573
 21
414.2943432511
 31
0.0
  0
LINE
  5
284
330
1F
100
AcDbEntity
  8
0
  6
Continuous
 62
     7
370
    25
100
AcDbLine
 10
2149.0932779573
 20
414.2943432511
 30
0.0
 11
2091.9432779573
 21
414.2943432511
 31
0.0
  0
LINE
  5
285
330
1F
100
AcDbEntity
  8
0
  6
Continuous
 62
     7
370
    25
100
AcDbLine
 10
2091.9432779573
 20
414.2943432511
 30
0.0
 11
2091.9432779573
 21
779.5554849808
 31
0.0
  0
LINE
  5
286
330
1F
100
AcDbEntity
  8
0
  6
Continuous
 62
     7
370
    25
100
AcDbLine
 10
2321.4436937965
 20
139.1263241879
 30
0.0
 11
1972.3505035628
 21
139.1263241879
 31
0.0
  0
LINE
  5
287
330
1F
100
AcDbEntity
  8
0
  6
Continuous
 62
     7
370
    25
100
AcDbLine
 10
1972.3505035628
 20
139.1263241879
 30
0.0
 11
1972.3505035628
 21
196.2763241879
 31
0.0
  0
LINE
  5
288
330
1F
100
AcDbEntity
  8
0
  6
Continuous
 62
     7
370
    25
100
AcDbLine
 10
1972.3505035628
 20
196.2763241879
 30
0.0
 11
2321.4436937965
 21
196.2763241879
 31
0.0
  0
LINE
  5
289
330
1F
100
AcDbEntity
  8
0
  6
Continuous
 62
     7
370
    25
100
AcDbLine
 10
2321.4436937965
 20
139.1263241879
 30
0.0
 11
2321.4436937965
 21
196.2763241879
 31
0.0
  0
LINE
  5
28A
330
1F
100
AcDbEntity
  8
0
  6
Continuous
 62
     7
370
    25
100
AcDbLine
 10
1971.7495184687
 20
264.550686926
 30
0.0
 11
2326.8976947502
 21
264.550686926
 31
0.0
  0
LINE
  5
28B
330
1F
100
AcDbEntity
  8
0
  6
Continuous
 62
     7
370
    25
100
AcDbLine
 10
2326.8976947502
 20
207.400686926
 30
0.0
 11
2326.8976947502
 21
264.550686926
 31
0.0
  0
LINE
  5
28C
330
1F
100
AcDbEntity
  8
0
  6
Continuous
 62
     7
370
    25
100
AcDbLine
 10
2326.8976947502
 20
207.400686926
 30
0.0
 11
1971.7495184687
 21
207.400686926
 31
0.0
  0
LINE
  5
28D
330
1F
100
AcDbEntity
  8
0
  6
Continuous
 62
     7
370
    25
100
AcDbLine
 10
1971.7495184687
 20
207.400686926
 30
0.0
 11
1971.7495184687
 21
264.550686926
 31
0.0
  0
SPLINE
  5
28E
330
1F
100
AcDbEntity
  8
0
  6
Continuous
 62
     7
370
    25
100
AcDbSpline
210
0.0
220
0.0
230
1.0
 70
    24
 71
     3
 72
    14
 73
    10
 74
     0
 42
0.00000001
 43
0.00000001
 40
0.0
 40
0.0
 40
0.0
 40
0.0
 40
0.1422766108772202
 40
0.2847445484825689
 40
0.4274051285020816
 40
0.5702596612991057
 40
0.7133094519070486
 40
0.8565558000227069
 40
1.0
 40
1.0
 40
1.0
 40
1.0
 10
1950.493793715388
 20
404.9669198082983
 30
0.0
 10
1950.493793715386
 20
404.6057395967823
 30
0.0
 10
1950.493793715387
 20
403.882893476012
 30
0.0
 10
1950.493793715387
 20
402.7873808985091
 30
0.0
 10
1950.493793715387
 20
401.6827115313129
 30
0.0
 10
1950.493793715389
 20
400.5681794760245
 30
0.0
 10
1950.493793715386
 20
399.4437908587732
 30
0.0
 10
1950.493793715389
 20
398.310229919474
 30
0.0
 10
1950.493793715389
 20
397.5471041729711
 30
0.0
 10
1950.493793715388
 20
397.1652779742445
 30
0.0
  0
SPLINE
  5
28F
330
1F
100
AcDbEntity
  8
0
  6
Continuous
 62
     7
370
    25
100
AcDbSpline
210
0.0
220
0.0
230
1.0
 70
    24
 71
     3
 72
     8
 73
     4
 74
     0
 42
0.00000001
 43
0.00000001
 40
0.0
 40
0.0
 40
0.0
 40
0.0
 40
1.0
 40
1.0
 40
1.0
 40
1.0
 10
713.4471837250434
 20
438.0464907000149
 30
0.0
 10
713.447183664132
 20
435.8609696923741
 30
0.0
 10
713.4471836020128
 20
433.6320973832422
 30
0.0
 10
713.447183538716
 20
431.3609833877666
 30
0.0
  0
SPLINE
  5
290
330
1F
100
AcDbEntity
  8
0
  6
Continuous
 62
     7
370
    25
100
AcDbSpline
210
0.0
220
0.0
230
1.0
 70
    24
 71
     3
 72
     8
 73
     4
 74
     0
 42
0.00000001
 43
0.00000001
 40
0.0
 40
0.0
 40
0.0
 40
0.0
 40
0.0030765234293986
 40
0.0030765234293986
 40
0.0030765234293986
 40
0.0030765234293986
 10
713.4471837250345
 20
439.1937197972124
 30
0.0
 10
713.4471837250336
 20
438.8126525986584
 30
0.0
 10
713.4471837250318
 20
438.4302404687377
 30
0.0
 10
713.4471837250309
 20
438.0464907000152
 30
0.0
  0
LWPOLYLINE
  5
291
330
1F
100
AcDbEntity
  8
0
  6
Continuous
 62
     7
370
    25
100
AcDbPolyline
 90
       11
 70
   128
 43
0.0
 10
713.447183725
 20
439.1937204968
 10
760.3894166578
 20
437.8950391458
 10
828.6242216894
 20
436.0072731297
 10
875.5664540281
 20
434.7085707702
 10
1063.3353808337
 20
429.5136691935
 10
1156.2090985419
 20
426.9441259998
 10
1203.1513290559
 20
425.6453576856
 10
1390.9202483245
 20
420.4501836922
 10
1578.6891629535
 20
415.2548420117
 10
1764.5914808672
 20
410.1109724472
 10
1950.4937937154
 20
404.9669198083
  0
CIRCLE
  5
292
330
1F
100
AcDbEntity
  8
0
  6
Continuous
 62
     7
370
    25
100
AcDbCircle
 10
754.7221816636
 20
364.0802670016
 30
0.0
 40
4.216400000000704
  0
CIRCLE
  5
293
330
1F
100
AcDbEntity
  8
0
  6
Continuous
 62
     7
370
    25
100
AcDbCircle
 10
789.6471830537
 20
413.9596724395
 30
0.0
 40
4.216399999999794
  0
CIRCLE
  5
294
330
1F
100
AcDbEntity
  8
0
  6
Continuous
 62
     7
370
    25
100
AcDbCircle
 10
865.8471715239
 20
373.7972877379
 30
0.0
 40
4.216400000000704
  0
CIRCLE
  5
295
330
1F
100
AcDbEntity
  8
0
  6
Continuous
 62
     7
370
    25
100
AcDbCircle
 10
1132.9877550931
 20
366.6152785385
 30
0.0
 40
4.216399999999794
  0
CIRCLE
  5
296
330
1F
100
AcDbEntity
  8
0
  6
Continuous
 62
     7
370
    25
100
AcDbCircle
 10
1078.324196105
 20
406.1986616052
 30
0.0
 40
4.216400000000476
  0
CIRCLE
  5
297
330
1F
100
AcDbEntity
  8
0
  6
Continuous
 62
     7
370
    25
100
AcDbCircle
 10
1249.6703845224
 20
363.4782946076
 30
0.0
 40
4.216399999999794
  0
CIRCLE
  5
298
330
1F
100
AcDbEntity
  8
0
  6
Continuous
 62
     7
370
    25
100
AcDbCircle
 10
1304.3339435105
 20
400.1224448682
 30
0.0
 40
4.216400000000704
  0
CIRCLE
  5
299
330
1F
100
AcDbEntity
  8
0
  6
Continuous
 62
     7
370
    25
100
AcDbCircle
 10
1415.2345622836
 20
397.1409088784
 30
0.0
 40
4.216400000000704
  0
CIRCLE
  5
29A
330
1F
100
AcDbEntity
  8
0
  6
Continuous
 62
     7
370
    25
100
AcDbCircle
 10
1654.5658582604
 20
352.5927789053
 30
0.0
 40
4.216399999999794
  0
CIRCLE
  5
29B
330
1F
100
AcDbEntity
  8
0
  6
Continuous
 62
     7
370
    25
100
AcDbCircle
 10
1746.3629174795
 20
388.2386041015
 30
0.0
 40
4.216399999999794
  0
CIRCLE
  5
29C
330
1F
100
AcDbEntity
  8
0
  6
Continuous
 62
     7
370
    25
100
AcDbCircle
 10
1746.362917492
 20
350.1248374376
 30
0.0
 40
4.216399999999567
  0
CIRCLE
  5
29D
330
1F
100
AcDbEntity
  8
0
  6
Continuous
 62
     7
370
    25
100
AcDbCircle
 10
1794.9187935893
 20
386.9331912577
 30
0.0
 40
4.216399999999794
  0
CIRCLE
  5
29E
330
1F
100
AcDbEntity
  8
0
  6
Continuous
 62
     7
370
    25
100
AcDbCircle
 10
1934.6187936071
 20
332.3590354012
 30
0.0
 40
4.216400000000476
  0
LINE
  5
29F
330
1F
100
AcDbEntity
  8
0
  6
Continuous
 62
     7
370
    25
100
AcDbLine
 10
1950.4937937154
 20
397.1652779742
 30
0.0
 11
1950.4937937154
 21
316.0515037993
 31
0.0
  0
LINE
  5
2A0
330
1F
100
AcDbEntity
  8
0
  6
Continuous
 62
     7
370
    25
100
AcDbLine
 10
1950.4937937154
 20
316.0515037993
 30
0.0
 11
713.4471812519
 21
349.3091991747
 31
0.0
  0
LINE
  5
2A1
330
1F
100
AcDbEntity
  8
0
  6
Continuous
 62
     7
370
    25
100
AcDbLine
 10
713.4471812519
 20
349.3091991747
 30
0.0
 11
713.4471835387
 21
431.3609833878
 31
0.0
  0
CIRCLE
  5
2A2
330
1F
100
AcDbEntity
  8
0
  6
Continuous
 62
     7
370
    25
100
AcDbCircle
 10
1934.6187935905
 20
383.177390953
 30
0.0
 40
4.216399999999794
  0
CIRCLE
  5
2A3
330
1F
100
AcDbEntity
  8
0
  6
Continuous
 62
     7
370
    25
100
AcDbCircle
 10
1794.9187936059
 20
336.1148357058
 30
0.0
 40
4.216400000000704
  0
CIRCLE
  5
2A4
330
1F
100
AcDbEntity
  8
0
  6
Continuous
 62
     7
370
    25
100
AcDbCircle
 10
1654.5658582805
 20
390.7065455683
 30
0.0
 40
4.216400000000704
  0
CIRCLE
  5
2A5
330
1F
100
AcDbEntity
  8
0
  6
Continuous
 62
     7
370
    25
100
AcDbCircle
 10
1415.2345620379
 20
359.0271422214
 30
0.0
 40
4.216399999999794
  0
CIRCLE
  5
2A6
330
1F
100
AcDbEntity
  8
0
  6
Continuous
 62
     7
370
    25
100
AcDbCircle
 10
1304.3339435105
 20
362.0086782046
 30
0.0
 40
4.216400000000704
  0
CIRCLE
  5
2A7
330
1F
100
AcDbEntity
  8
0
  6
Continuous
 62
     7
370
    25
100
AcDbCircle
 10
1249.6703845224
 20
401.5920612712
 30
0.0
 40
4.216399999999794
  0
CIRCLE
  5
2A8
330
1F
100
AcDbEntity
  8
0
  6
Continuous
 62
     7
370
    25
100
AcDbCircle
 10
1078.324196105
 20
368.0848949415
 30
0.0
 40
4.216400000000476
  0
CIRCLE
  5
2A9
330
1F
100
AcDbEntity
  8
0
  6
Continuous
 62
     7
370
    25
100
AcDbCircle
 10
1132.9877550931
 20
404.7290452022
 30
0.0
 40
4.216399999999794
  0
CIRCLE
  5
2AA
330
1F
100
AcDbEntity
  8
0
  6
Continuous
 62
     7
370
    25
100
AcDbCircle
 10
865.8471715255
 20
411.9110544014
 30
0.0
 40
4.216400000000704
  0
CIRCLE
  5
2AB
330
1F
100
AcDbEntity
  8
0
  6
Continuous
 62
     7
370
    25
100
AcDbCircle
 10
754.7221816636
 20
364.0802670016
 30
0.0
 40
2.457450000000563
  0
CIRCLE
  5
2AC
330
1F
100
AcDbEntity
  8
0
  6
Continuous
 62
     7
370
    25
100
AcDbCircle
 10
789.6471830537
 20
413.9596724395
 30
0.0
 40
2.457449999999653
  0
CIRCLE
  5
2AD
330
1F
100
AcDbEntity
  8
0
  6
Continuous
 62
     7
370
    25
100
AcDbCircle
 10
865.8471715239
 20
373.7972877379
 30
0.0
 40
2.457450000000563
  0
CIRCLE
  5
2AE
330
1F
100
AcDbEntity
  8
0
  6
Continuous
 62
     7
370
    25
100
AcDbCircle
 10
865.8471715255
 20
411.9110544014
 30
0.0
 40
2.457450000000563
  0
CIRCLE
  5
2AF
330
1F
100
AcDbEntity
  8
0
  6
Continuous
 62
     7
370
    25
100
AcDbCircle
 10
1132.9877550931
 20
404.7290452022
 30
0.0
 40
2.457450000000335
  0
CIRCLE
  5
2B0
330
1F
100
AcDbEntity
  8
0
  6
Continuous
 62
     7
370
    25
100
AcDbCircle
 10
1078.324196105
 20
368.0848949415
 30
0.0
 40
2.457450000000335
  0
CIRCLE
  5
2B1
330
1F
100
AcDbEntity
  8
0
  6
Continuous
 62
     7
370
    25
100
AcDbCircle
 10
1078.324196105
 20
406.1986616052
 30
0.0
 40
2.457450000000335
  0
CIRCLE
  5
2B2
330
1F
100
AcDbEntity
  8
0
  6
Continuous
 62
     7
370
    25
100
AcDbCircle
 10
1132.9877550931
 20
366.6152785385
 30
0.0
 40
2.457450000000335
  0
CIRCLE
  5
2B3
330
1F
100
AcDbEntity
  8
0
  6
Continuous
 62
     7
370
    25
100
AcDbCircle
 10
1249.6703845224
 20
363.4782946076
 30
0.0
 40
2.457450000000563
  0
CIRCLE
  5
2B4
330
1F
100
AcDbEntity
  8
0
  6
Continuous
 62
     7
370
    25
100
AcDbCircle
 10
1249.6703845224
 20
401.5920612712
 30
0.0
 40
2.457450000000563
  0
CIRCLE
  5
2B5
330
1F
100
AcDbEntity
  8
0
  6
Continuous
 62
     7
370
    25
100
AcDbCircle
 10
1304.3339435105
 20
400.1224448682
 30
0.0
 40
2.457449999999653
  0
CIRCLE
  5
2B6
330
1F
100
AcDbEntity
  8
0
  6
Continuous
 62
     7
370
    25
100
AcDbCircle
 10
1304.3339435105
 20
362.0086782046
 30
0.0
 40
2.457449999999653
  0
CIRCLE
  5
2B7
330
1F
100
AcDbEntity
  8
0
  6
Continuous
 62
     7
370
    25
100
AcDbCircle
 10
1415.2345620379
 20
359.0271422214
 30
0.0
 40
2.457450000000563
  0
CIRCLE
  5
2B8
330
1F
100
AcDbEntity
  8
0
  6
Continuous
 62
     7
370
    25
100
AcDbCircle
 10
1415.2345622836
 20
397.1409088784
 30
0.0
 40
2.457450000000563
  0
CIRCLE
  5
2B9
330
1F
100
AcDbEntity
  8
0
  6
Continuous
 62
     7
370
    25
100
AcDbCircle
 10
1654.5658582805
 20
390.7065455683
 30
0.0
 40
2.457450000000563
  0
CIRCLE
  5
2BA
330
1F
100
AcDbEntity
  8
0
  6
Continuous
 62
     7
370
    25
100
AcDbCircle
 10
1654.5658582604
 20
352.5927789053
 30
0.0
 40
2.457450000000563
  0
CIRCLE
  5
2BB
330
1F
100
AcDbEntity
  8
0
  6
Continuous
 62
     7
370
    25
100
AcDbCircle
 10
1746.3629174795
 20
388.2386041015
 30
0.0
 40
2.457450000000563
  0
CIRCLE
  5
2BC
330
1F
100
AcDbEntity
  8
0
  6
Continuous
 62
     7
370
    25
100
AcDbCircle
 10
1794.9187936059
 20
336.1148357058
 30
0.0
 40
2.457450000000563
  0
CIRCLE
  5
2BD
330
1F
100
AcDbEntity
  8
0
  6
Continuous
 62
     7
370
    25
100
AcDbCircle
 10
1746.362917492
 20
350.1248374376
 30
0.0
 40
2.457449999999426
  0
CIRCLE
  5
2BE
330
1F
100
AcDbEntity
  8
0
  6
Continuous
 62
     7
370
    25
100
AcDbCircle
 10
1794.9187935893
 20
386.9331912577
 30
0.0
 40
2.457450000000563
  0
CIRCLE
  5
2BF
330
1F
100
AcDbEntity
  8
0
  6
Continuous
 62
     7
370
    25
100
AcDbCircle
 10
1934.6187936071
 20
332.3590354012
 30
0.0
 40
2.457450000000335
  0
CIRCLE
  5
2C0
330
1F
100
AcDbEntity
  8
0
  6
Continuous
 62
     7
370
    25
100
AcDbCircle
 10
1934.6187935905
 20
383.177390953
 30
0.0
 40
2.457449999999653
  0
SPLINE
  5
2C1
330
1F
100
AcDbEntity
  8
0
  6
Continuous
 62
     7
370
    25
100
AcDbSpline
210
0.0
220
0.0
230
1.0
 70
    24
 71
     3
 72
     8
 73
     4
 74
     0
 42
0.00000001
 43
0.00000001
 40
0.0
 40
0.0
 40
0.0
 40
0.0
 40
0.0030765234293986
 40
0.0030765234293986
 40
0.0030765234293986
 40
0.0030765234293986
 10
713.0722317349188
 20
153.6517832537242
 30
0.0
 10
713.0722317349179
 20
154.0328504522781
 30
0.0
 10
713.072231734916
 20
154.4152625821988
 30
0.0
 10
713.0722317349151
 20
154.7990123509213
 30
0.0
  0
SPLINE
  5
2C2
330
1F
100
AcDbEntity
  8
0
  6
Continuous
 62
     7
370
    25
100
AcDbSpline
210
0.0
220
0.0
230
1.0
 70
    24
 71
     3
 72
     8
 73
     4
 74
     0
 42
0.00000001
 43
0.00000001
 40
0.0
 40
0.0
 40
0.0
 40
0.0
 40
1.0
 40
1.0
 40
1.0
 40
1.0
 10
713.0722317349276
 20
154.7990123509217
 30
0.0
 10
713.0722316740164
 20
156.9845333585625
 30
0.0
 10
713.0722316118971
 20
159.2134056676944
 30
0.0
 10
713.0722315486003
 20
161.4845196631699
 30
0.0
  0
SPLINE
  5
2C3
330
1F
100
AcDbEntity
  8
0
  6
Continuous
 62
     7
370
    25
100
AcDbSpline
210
0.0
220
0.0
230
1.0
 70
    24
 71
     3
 72
    14
 73
    10
 74
     0
 42
0.00000001
 43
0.00000001
 40
0.0
 40
0.0
 40
0.0
 40
0.0
 40
0.1422766108772202
 40
0.2847445484825689
 40
0.4274051285020816
 40
0.5702596612991057
 40
0.7133094519070486
 40
0.8565558000227069
 40
1.0
 40
1.0
 40
1.0
 40
1.0
 10
1950.118841725272
 20
187.8785832426383
 30
0.0
 10
1950.118841725271
 20
188.2397634541543
 30
0.0
 10
1950.118841725272
 20
188.9626095749246
 30
0.0
 10
1950.118841725272
 20
190.0581221524275
 30
0.0
 10
1950.118841725272
 20
191.1627915196237
 30
0.0
 10
1950.118841725273
 20
192.277323574912
 30
0.0
 10
1950.118841725271
 20
193.4017121921634
 30
0.0
 10
1950.118841725273
 20
194.5352731314626
 30
0.0
 10
1950.118841725273
 20
195.2983988779654
 30
0.0
 10
1950.118841725272
 20
195.680225076692
 30
0.0
  0
LWPOLYLINE
  5
2C4
330
1F
100
AcDbEntity
  8
0
  6
Continuous
 62
     7
370
    25
100
AcDbPolyline
 90
       11
 70
   128
 43
0.0
 10
713.0722317349
 20
153.6517825541
 10
760.0144646676
 20
154.9504639051
 10
828.2492696993
 20
156.8382299212
 10
875.191502038
 20
158.1369322807
 10
1062.9604288436
 20
163.3318338575
 10
1155.8341465518
 20
165.9013770511
 10
1202.7763770658
 20
167.2001453653
 10
1390.5452963344
 20
172.3953193587
 10
1578.3142109634
 20
177.5906610392
 10
1764.2165288771
 20
182.7345306037
 10
1950.1188417253
 20
187.8785832426
  0
CIRCLE
  5
2C5
330
1F
100
AcDbEntity
  8
0
  6
Continuous
 62
     7
370
    25
100
AcDbCircle
 10
1599.5273473401
 20
200.6693410807
 30
0.0
 40
4.216399999999794
  0
CIRCLE
  5
2C6
330
1F
100
AcDbEntity
  8
0
  6
Continuous
 62
     7
370
    25
100
AcDbCircle
 10
1599.5273473525
 20
238.7831077446
 30
0.0
 40
4.216400000000704
  0
CIRCLE
  5
2C7
330
1F
100
AcDbEntity
  8
0
  6
Continuous
 62
     7
370
    25
100
AcDbCircle
 10
1469.5231688927
 20
235.2879772287
 30
0.0
 40
4.216399999999794
  0
CIRCLE
  5
2C8
330
1F
100
AcDbEntity
  8
0
  6
Continuous
 62
     7
370
    25
100
AcDbCircle
 10
754.3472296734
 20
228.7652360493
 30
0.0
 40
4.216400000000704
  0
CIRCLE
  5
2C9
330
1F
100
AcDbEntity
  8
0
  6
Continuous
 62
     7
370
    25
100
AcDbCircle
 10
789.2722310636
 20
178.8858306115
 30
0.0
 40
4.216399999999794
  0
CIRCLE
  5
2CA
330
1F
100
AcDbEntity
  8
0
  6
Continuous
 62
     7
370
    25
100
AcDbCircle
 10
865.4722195338
 20
219.048215313
 30
0.0
 40
4.216400000000704
  0
CIRCLE
  5
2CB
330
1F
100
AcDbEntity
  8
0
  6
Continuous
 62
     7
370
    25
100
AcDbCircle
 10
1132.612803103
 20
226.2302245124
 30
0.0
 40
4.216399999999794
  0
CIRCLE
  5
2CC
330
1F
100
AcDbEntity
  8
0
  6
Continuous
 62
     7
370
    25
100
AcDbCircle
 10
1077.9492441149
 20
186.6468414458
 30
0.0
 40
4.216400000000476
  0
CIRCLE
  5
2CD
330
1F
100
AcDbEntity
  8
0
  6
Continuous
 62
     7
370
    25
100
AcDbCircle
 10
1249.2954325322
 20
229.3672084434
 30
0.0
 40
4.216399999999794
  0
CIRCLE
  5
2CE
330
1F
100
AcDbEntity
  8
0
  6
Continuous
 62
     7
370
    25
100
AcDbCircle
 10
1303.9589915204
 20
192.7230581828
 30
0.0
 40
4.216400000000704
  0
CIRCLE
  5
2CF
330
1F
100
AcDbEntity
  8
0
  6
Continuous
 62
     7
370
    25
100
AcDbCircle
 10
1414.8596102935
 20
195.7045941726
 30
0.0
 40
4.216400000000704
  0
CIRCLE
  5
2D0
330
1F
100
AcDbEntity
  8
0
  6
Continuous
 62
     7
370
    25
100
AcDbCircle
 10
1654.1909062703
 20
240.2527241457
 30
0.0
 40
4.216399999999794
  0
CIRCLE
  5
2D1
330
1F
100
AcDbEntity
  8
0
  6
Continuous
 62
     7
370
    25
100
AcDbCircle
 10
1745.9879654894
 20
204.6068989494
 30
0.0
 40
4.216399999999794
  0
CIRCLE
  5
2D2
330
1F
100
AcDbEntity
  8
0
  6
Continuous
 62
     7
370
    25
100
AcDbCircle
 10
1745.9879655018
 20
242.7206656133
 30
0.0
 40
4.216399999999794
  0
CIRCLE
  5
2D3
330
1F
100
AcDbEntity
  8
0
  6
Continuous
 62
     7
370
    25
100
AcDbCircle
 10
1794.5438415992
 20
205.9123117932
 30
0.0
 40
4.216399999999794
  0
CIRCLE
  5
2D4
330
1F
100
AcDbEntity
  8
0
  6
Continuous
 62
     7
370
    25
100
AcDbCircle
 10
1934.243841617
 20
260.4864676498
 30
0.0
 40
4.216400000000704
  0
LINE
  5
2D5
330
1F
100
AcDbEntity
  8
0
  6
Continuous
 62
     7
370
    25
100
AcDbLine
 10
1950.1188417253
 20
276.7939992517
 30
0.0
 11
713.0722292618
 21
243.5363038763
 31
0.0
  0
LINE
  5
2D6
330
1F
100
AcDbEntity
  8
0
  6
Continuous
 62
     7
370
    25
100
AcDbLine
 10
1950.1188417253
 20
195.6802250767
 30
0.0
 11
1950.1188417253
 21
276.7939992517
 31
0.0
  0
LINE
  5
2D7
330
1F
100
AcDbEntity
  8
0
  6
Continuous
 62
     7
370
    25
100
AcDbLine
 10
713.0722292618
 20
243.5363038763
 30
0.0
 11
713.0722315486
 21
161.4845196632
 31
0.0
  0
CIRCLE
  5
2D8
330
1F
100
AcDbEntity
  8
0
  6
Continuous
 62
     7
370
    25
100
AcDbCircle
 10
1934.2438416004
 20
209.6681120979
 30
0.0
 40
4.216399999999794
  0
CIRCLE
  5
2D9
330
1F
100
AcDbEntity
  8
0
  6
Continuous
 62
     7
370
    25
100
AcDbCircle
 10
1794.5438416157
 20
256.7306673451
 30
0.0
 40
4.216400000000704
  0
CIRCLE
  5
2DA
330
1F
100
AcDbEntity
  8
0
  6
Continuous
 62
     7
370
    25
100
AcDbCircle
 10
1654.1909062903
 20
202.1389574827
 30
0.0
 40
4.216400000000704
  0
CIRCLE
  5
2DB
330
1F
100
AcDbEntity
  8
0
  6
Continuous
 62
     7
370
    25
100
AcDbCircle
 10
1414.8596100478
 20
233.8183608296
 30
0.0
 40
4.216399999999794
  0
CIRCLE
  5
2DC
330
1F
100
AcDbEntity
  8
0
  6
Continuous
 62
     7
370
    25
100
AcDbCircle
 10
1303.9589915204
 20
230.8368248464
 30
0.0
 40
4.216400000000704
  0
CIRCLE
  5
2DD
330
1F
100
AcDbEntity
  8
0
  6
Continuous
 62
     7
370
    25
100
AcDbCircle
 10
1249.2954325322
 20
191.2534417798
 30
0.0
 40
4.216399999999794
  0
CIRCLE
  5
2DE
330
1F
100
AcDbEntity
  8
0
  6
Continuous
 62
     7
370
    25
100
AcDbCircle
 10
1077.9492441149
 20
224.7606081094
 30
0.0
 40
4.216400000000476
  0
CIRCLE
  5
2DF
330
1F
100
AcDbEntity
  8
0
  6
Continuous
 62
     7
370
    25
100
AcDbCircle
 10
1132.612803103
 20
188.1164578488
 30
0.0
 40
4.216399999999794
  0
CIRCLE
  5
2E0
330
1F
100
AcDbEntity
  8
0
  6
Continuous
 62
     7
370
    25
100
AcDbCircle
 10
865.4722195354
 20
180.9344486495
 30
0.0
 40
4.216400000000704
  0
CIRCLE
  5
2E1
330
1F
100
AcDbEntity
  8
0
  6
Continuous
 62
     7
370
    25
100
AcDbCircle
 10
1469.5231689127
 20
197.1742105657
 30
0.0
 40
4.216400000000704
  0
CIRCLE
  5
2E2
330
1F
100
AcDbEntity
  8
0
  6
Continuous
 62
     7
370
    25
100
AcDbCircle
 10
754.3472296734
 20
228.7652360493
 30
0.0
 40
2.457450000000563
  0
CIRCLE
  5
2E3
330
1F
100
AcDbEntity
  8
0
  6
Continuous
 62
     7
370
    25
100
AcDbCircle
 10
789.2722310636
 20
178.8858306115
 30
0.0
 40
2.457449999999653
  0
CIRCLE
  5
2E4
330
1F
100
AcDbEntity
  8
0
  6
Continuous
 62
     7
370
    25
100
AcDbCircle
 10
865.4722195338
 20
219.048215313
 30
0.0
 40
2.457450000000563
  0
CIRCLE
  5
2E5
330
1F
100
AcDbEntity
  8
0
  6
Continuous
 62
     7
370
    25
100
AcDbCircle
 10
865.4722195354
 20
180.9344486495
 30
0.0
 40
2.457450000000563
  0
CIRCLE
  5
2E6
330
1F
100
AcDbEntity
  8
0
  6
Continuous
 62
     7
370
    25
100
AcDbCircle
 10
1077.9492441149
 20
224.7606081094
 30
0.0
 40
2.457450000000335
  0
CIRCLE
  5
2E7
330
1F
100
AcDbEntity
  8
0
  6
Continuous
 62
     7
370
    25
100
AcDbCircle
 10
1132.612803103
 20
226.2302245124
 30
0.0
 40
2.457450000000335
  0
CIRCLE
  5
2E8
330
1F
100
AcDbEntity
  8
0
  6
Continuous
 62
     7
370
    25
100
AcDbCircle
 10
1077.9492441149
 20
186.6468414458
 30
0.0
 40
2.457450000000335
  0
CIRCLE
  5
2E9
330
1F
100
AcDbEntity
  8
0
  6
Continuous
 62
     7
370
    25
100
AcDbCircle
 10
1132.612803103
 20
188.1164578488
 30
0.0
 40
2.457450000000335
  0
CIRCLE
  5
2EA
330
1F
100
AcDbEntity
  8
0
  6
Continuous
 62
     7
370
    25
100
AcDbCircle
 10
1249.2954325322
 20
229.3672084434
 30
0.0
 40
2.457450000000563
  0
CIRCLE
  5
2EB
330
1F
100
AcDbEntity
  8
0
  6
Continuous
 62
     7
370
    25
100
AcDbCircle
 10
1249.2954325322
 20
191.2534417798
 30
0.0
 40
2.457450000000563
  0
CIRCLE
  5
2EC
330
1F
100
AcDbEntity
  8
0
  6
Continuous
 62
     7
370
    25
100
AcDbCircle
 10
1303.9589915204
 20
230.8368248464
 30
0.0
 40
2.457449999999653
  0
CIRCLE
  5
2ED
330
1F
100
AcDbEntity
  8
0
  6
Continuous
 62
     7
370
    25
100
AcDbCircle
 10
1303.9589915204
 20
192.7230581828
 30
0.0
 40
2.457449999999653
  0
CIRCLE
  5
2EE
330
1F
100
AcDbEntity
  8
0
  6
Continuous
 62
     7
370
    25
100
AcDbCircle
 10
1414.8596100478
 20
233.8183608296
 30
0.0
 40
2.457450000000563
  0
CIRCLE
  5
2EF
330
1F
100
AcDbEntity
  8
0
  6
Continuous
 62
     7
370
    25
100
AcDbCircle
 10
1469.5231688927
 20
235.2879772287
 30
0.0
 40
2.457450000000563
  0
CIRCLE
  5
2F0
330
1F
100
AcDbEntity
  8
0
  6
Continuous
 62
     7
370
    25
100
AcDbCircle
 10
1414.8596102935
 20
195.7045941726
 30
0.0
 40
2.457450000000563
  0
CIRCLE
  5
2F1
330
1F
100
AcDbEntity
  8
0
  6
Continuous
 62
     7
370
    25
100
AcDbCircle
 10
1469.5231689127
 20
197.1742105657
 30
0.0
 40
2.457450000000563
  0
CIRCLE
  5
2F2
330
1F
100
AcDbEntity
  8
0
  6
Continuous
 62
     7
370
    25
100
AcDbCircle
 10
1599.5273473525
 20
238.7831077446
 30
0.0
 40
2.457450000000563
  0
CIRCLE
  5
2F3
330
1F
100
AcDbEntity
  8
0
  6
Continuous
 62
     7
370
    25
100
AcDbCircle
 10
1654.1909062903
 20
202.1389574827
 30
0.0
 40
2.457450000000563
  0
CIRCLE
  5
2F4
330
1F
100
AcDbEntity
  8
0
  6
Continuous
 62
     7
370
    25
100
AcDbCircle
 10
1599.5273473401
 20
200.6693410807
 30
0.0
 40
2.457450000000563
  0
CIRCLE
  5
2F5
330
1F
100
AcDbEntity
  8
0
  6
Continuous
 62
     7
370
    25
100
AcDbCircle
 10
1654.1909062703
 20
240.2527241457
 30
0.0
 40
2.457450000000563
  0
CIRCLE
  5
2F6
330
1F
100
AcDbEntity
  8
0
  6
Continuous
 62
     7
370
    25
100
AcDbCircle
 10
1745.9879654894
 20
204.6068989494
 30
0.0
 40
2.457450000000563
  0
CIRCLE
  5
2F7
330
1F
100
AcDbEntity
  8
0
  6
Continuous
 62
     7
370
    25
100
AcDbCircle
 10
1745.9879655018
 20
242.7206656133
 30
0.0
 40
2.457449999999653
  0
CIRCLE
  5
2F8
330
1F
100
AcDbEntity
  8
0
  6
Continuous
 62
     7
370
    25
100
AcDbCircle
 10
1794.5438415992
 20
205.9123117932
 30
0.0
 40
2.457450000000563
  0
CIRCLE
  5
2F9
330
1F
100
AcDbEntity
  8
0
  6
Continuous
 62
     7
370
    25
100
AcDbCircle
 10
1794.5438416157
 20
256.7306673451
 30
0.0
 40
2.457450000000563
  0
CIRCLE
  5
2FA
330
1F
100
AcDbEntity
  8
0
  6
Continuous
 62
     7
370
    25
100
AcDbCircle
 10
1934.243841617
 20
260.4864676498
 30
0.0
 40
2.457450000000335
  0
CIRCLE
  5
2FB
330
1F
100
AcDbEntity
  8
0
  6
Continuous
 62
     7
370
    25
100
AcDbCircle
 10
1934.2438416004
 20
209.6681120979
 30
0.0
 40
2.457449999999653
  0
LINE
  5
2FC
330
1F
100
AcDbEntity
  8
0
  6
Continuous
 62
     7
370
    25
100
AcDbLine
 10
2363.1548432332
 20
16.227333617
 30
0.0
 11
2365.9983133689
 21
121.6959578278
 31
0.0
  0
LINE
  5
2FD
330
1F
100
AcDbEntity
  8
0
  6
Continuous
 62
     7
370
    25
100
AcDbLine
 10
1670.7595788525
 20
16.227333617
 30
0.0
 11
1667.9161087168
 21
121.6959578278
 31
0.0
  0
CIRCLE
  5
2FE
330
1F
100
AcDbEntity
  8
0
  6
Continuous
 62
     7
370
    25
100
AcDbCircle
 10
2334.4551683422
 20
64.6993111024
 30
0.0
 40
3.502246584801021
  0
LINE
  5
2FF
330
1F
100
AcDbEntity
  8
0
  6
Continuous
 62
     7
370
    25
100
AcDbLine
 10
1667.9161087168
 20
123.1214485848
 30
0.0
 11
2365.9983133689
 21
123.1214485848
 31
0.0
  0
LINE
  5
300
330
1F
100
AcDbEntity
  8
0
  6
Continuous
 62
     7
370
    25
100
AcDbLine
 10
1667.9161087168
 20
123.1214485848
 30
0.0
 11
1667.9161087168
 21
121.6959578278
 31
0.0
  0
LINE
  5
301
330
1F
100
AcDbEntity
  8
0
  6
Continuous
 62
     7
370
    25
100
AcDbLine
 10
2365.9983133689
 20
121.6959578278
 30
0.0
 11
2365.9983133689
 21
123.1214485848
 31
0.0
  0
LINE
  5
302
330
1F
100
AcDbEntity
  8
0
  6
Continuous
 62
     7
370
    25
100
AcDbLine
 10
2362.9018164032
 20
8.2676751096
 30
0.0
 11
1671.0126056826
 21
8.2676751096
 31
0.0
  0
LINE
  5
303
330
1F
100
AcDbEntity
  8
0
  6
Continuous
 62
     7
370
    25
100
AcDbLine
 10
1671.0126056826
 20
8.2676751096
 30
0.0
 11
1670.7595788525
 21
16.227333617
 31
0.0
  0
LINE
  5
304
330
1F
100
AcDbEntity
  8
0
  6
Continuous
 62
     7
370
    25
100
AcDbLine
 10
2362.9018164032
 20
8.2676751096
 30
0.0
 11
2363.1548432332
 21
16.227333617
 31
0.0
  0
ENDSEC
  0
SECTION
  2
OBJECTS
  0
DICTIONARY
  5
C
330
0
100
AcDbDictionary
281
     1
  3
ACAD_GROUP
350
D
  3
ACAD_LAYOUT
350
1A
  3
ACAD_MLINESTYLE
350
17
  3
ACAD_PLOTSETTINGS
350
19
  3
ACAD_PLOTSTYLENAME
350
E
  3
ACAD_SCALELIST
350
47
  3
DWGPROPS
350
305
  0
DICTIONARY
  5
D
102
{ACAD_REACTORS
330
C
102
}
330
C
100
AcDbDictionary
281
     1
  0
DICTIONARY
  5
1A
102
{ACAD_REACTORS
330
C
102
}
330
C
100
AcDbDictionary
281
     1
  3
Layout1
350
1E
  3
Layout2
350
26
  3
Model
350
22
  0
DICTIONARY
  5
17
102
{ACAD_REACTORS
330
C
102
}
330
C
100
AcDbDictionary
281
     1
  3
Standard
350
18
  0
DICTIONARY
  5
19
102
{ACAD_REACTORS
330
C
102
}
330
C
100
AcDbDictionary
281
     1
  0
ACDBDICTIONARYWDFLT
  5
E
102
{ACAD_REACTORS
330
C
102
}
330
C
100
AcDbDictionary
281
     1
  3
Normal
350
F
100
AcDbDictionaryWithDefault
340
F
  0
DICTIONARY
  5
47
102
{ACAD_REACTORS
330
C
102
}
330
C
100
AcDbDictionary
281
     1
  3
A0
350
48
  3
A1
350
49
  3
A2
350
4A
  3
A3
350
4B
  3
A4
350
4C
  3
A5
350
4D
  3
A6
350
4E
  3
A7
350
4F
  3
A8
350
50
  3
A9
350
51
  3
B0
350
52
  3
B1
350
53
  3
B2
350
54
  3
B3
350
55
  3
B4
350
56
  3
B5
350
57
  3
B6
350
58
  3
B7
350
59
  3
B8
350
5A
  3
B9
350
5B
  3
C0
350
5C
  3
C1
350
5D
  3
C2
350
5E
  3
C3
350
5F
  3
C4
350
60
  3
C5
350
61
  3
C6
350
62
  3
C7
350
63
  3
C8
350
64
  3
C9
350
65
  3
D0
350
66
  3
D1
350
67
  3
D2
350
68
  0
XRECORD
  5
305
102
{ACAD_REACTORS
330
C
102
}
330
C
100
AcDbXrecord
280
     1
  1
DWGPROPS COOKIE
  2

  3

  4

  6

  7

  8
lukew
  9

300
=
301
=
302
=
303
=
304
=
305
=
306
=
307
=
308
=
309
=
 40
0.0
 41
2459072.260558773
 42
2459072.260563056
  1

 90
        0
  0
LAYOUT
  5
1E
102
{ACAD_REACTORS
330
1A
102
}
330
1A
100
AcDbPlotSettings
  1

  2
none_device
  4

  6

 40
0.0
 41
0.0
 42
0.0
 43
0.0
 44
0.0
 45
0.0
 46
0.0
 47
0.0
 48
0.0
 49
0.0
140
0.0
141
0.0
142
1.0
143
1.0
 70
   688
 72
     1
 73
     0
 74
     5
  7

 75
    16
147
1.0
148
0.0
149
0.0
100
AcDbLayout
  1
Layout1
 70
     1
 71
     1
 10
0.0
 20
0.0
 11
420.0
 21
297.0
 12
0.0
 22
0.0
 32
0.0
 14
1.0000000000E+20
 24
1.0000000000E+20
 34
1.0000000000E+20
 15
-1.0000000000E+20
 25
-1.0000000000E+20
 35
-1.0000000000E+20
146
0.0
 13
0.0
 23
0.0
 33
0.0
 16
1.0
 26
0.0
 36
0.0
 17
0.0
 27
1.0
 37
0.0
 76
     0
330
1B
  0
LAYOUT
  5
26
102
{ACAD_REACTORS
330
1A
102
}
330
1A
100
AcDbPlotSettings
  1

  2
none_device
  4

  6

 40
0.0
 41
0.0
 42
0.0
 43
0.0
 44
0.0
 45
0.0
 46
0.0
 47
0.0
 48
0.0
 49
0.0
140
0.0
141
0.0
142
1.0
143
1.0
 70
   688
 72
     1
 73
     0
 74
     5
  7

 75
    16
147
1.0
148
0.0
149
0.0
100
AcDbLayout
  1
Layout2
 70
     1
 71
     2
 10
0.0
 20
0.0
 11
0.0
 21
0.0
 12
0.0
 22
0.0
 32
0.0
 14
0.0
 24
0.0
 34
0.0
 15
0.0
 25
0.0
 35
0.0
146
0.0
 13
0.0
 23
0.0
 33
0.0
 16
1.0
 26
0.0
 36
0.0
 17
0.0
 27
1.0
 37
0.0
 76
     0
330
23
  0
LAYOUT
  5
22
102
{ACAD_REACTORS
330
1A
102
}
330
1A
100
AcDbPlotSettings
  1

  2
none_device
  4
Letter_(8.50_x_11.00_Inches)
  6

 40
6.35
 41
6.35
 42
6.35000508
 43
6.35000508
 44
215.9
 45
279.4
 46
0.0
 47
0.0
 48
0.0
 49
0.0
140
0.0
141
0.0
142
1.0
143
1.0
 70
  1712
 72
     1
 73
     0
 74
     0
  7

 75
     0
147
1.0
148
0.0
149
0.0
100
AcDbLayout
  1
Model
 70
     1
 71
     0
 10
0.0
 20
0.0
 11
2400.0
 21
1200.0
 12
0.0
 22
0.0
 32
0.0
 14
0.0
 24
0.0
 34
0.0
 15
2400.0
 25
1200.0
 35
0.0
146
0.0
 13
0.0
 23
0.0
 33
0.0
 16
1.0
 26
0.0
 36
0.0
 17
0.0
 27
1.0
 37
0.0
 76
     0
330
1F
331
29
  0
MLINESTYLE
  5
18
102
{ACAD_REACTORS
330
17
102
}
330
17
100
AcDbMlineStyle
  2
Standard
 70
     0
  3

 62
   256
 51
90.0
 52
90.0
 71
     2
 49
0.5
 62
   256
  6
BYLAYER
 49
-0.5
 62
   256
  6
BYLAYER
  0
ACDBPLACEHOLDER
  5
F
102
{ACAD_REACTORS
330
E
102
}
330
E
  0
SCALE
  5
48
102
{ACAD_REACTORS
330
47
102
}
330
47
100
AcDbScale
 70
     0
300
1:1
140
1.0
141
1.0
290
     1
  0
SCALE
  5
49
102
{ACAD_REACTORS
330
47
102
}
330
47
100
AcDbScale
 70
     0
300
1:2
140
1.0
141
2.0
290
     0
  0
SCALE
  5
4A
102
{ACAD_REACTORS
330
47
102
}
330
47
100
AcDbScale
 70
     0
300
1:4
140
1.0
141
4.0
290
     0
  0
SCALE
  5
4B
102
{ACAD_REACTORS
330
47
102
}
330
47
100
AcDbScale
 70
     0
300
1:5
140
1.0
141
5.0
290
     0
  0
SCALE
  5
4C
102
{ACAD_REACTORS
330
47
102
}
330
47
100
AcDbScale
 70
     0
300
1:8
140
1.0
141
8.0
290
     0
  0
SCALE
  5
4D
102
{ACAD_REACTORS
330
47
102
}
330
47
100
AcDbScale
 70
     0
300
1:10
140
1.0
141
10.0
290
     0
  0
SCALE
  5
4E
102
{ACAD_REACTORS
330
47
102
}
330
47
100
AcDbScale
 70
     0
300
1:16
140
1.0
141
16.0
290
     0
  0
SCALE
  5
4F
102
{ACAD_REACTORS
330
47
102
}
330
47
100
AcDbScale
 70
     0
300
1:20
140
1.0
141
20.0
290
     0
  0
SCALE
  5
50
102
{ACAD_REACTORS
330
47
102
}
330
47
100
AcDbScale
 70
     0
300
1:30
140
1.0
141
30.0
290
     0
  0
SCALE
  5
51
102
{ACAD_REACTORS
330
47
102
}
330
47
100
AcDbScale
 70
     0
300
1:40
140
1.0
141
40.0
290
     0
  0
SCALE
  5
52
102
{ACAD_REACTORS
330
47
102
}
330
47
100
AcDbScale
 70
     0
300
1:50
140
1.0
141
50.0
290
     0
  0
SCALE
  5
53
102
{ACAD_REACTORS
330
47
102
}
330
47
100
AcDbScale
 70
     0
300
1:100
140
1.0
141
100.0
290
     0
  0
SCALE
  5
54
102
{ACAD_REACTORS
330
47
102
}
330
47
100
AcDbScale
 70
     0
300
2:1
140
2.0
141
1.0
290
     0
  0
SCALE
  5
55
102
{ACAD_REACTORS
330
47
102
}
330
47
100
AcDbScale
 70
     0
300
4:1
140
4.0
141
1.0
290
     0
  0
SCALE
  5
56
102
{ACAD_REACTORS
330
47
102
}
330
47
100
AcDbScale
 70
     0
300
8:1
140
8.0
141
1.0
290
     0
  0
SCALE
  5
57
102
{ACAD_REACTORS
330
47
102
}
330
47
100
AcDbScale
 70
     0
300
10:1
140
10.0
141
1.0
290
     0
  0
SCALE
  5
58
102
{ACAD_REACTORS
330
47
102
}
330
47
100
AcDbScale
 70
     0
300
100:1
140
100.0
141
1.0
290
     0
  0
SCALE
  5
59
102
{ACAD_REACTORS
330
47
102
}
330
47
100
AcDbScale
 70
     0
300
1/128" = 1'-0"
140
0.0078125
141
12.0
290
     0
  0
SCALE
  5
5A
102
{ACAD_REACTORS
330
47
102
}
330
47
100
AcDbScale
 70
     0
300
1/64" = 1'-0"
140
0.015625
141
12.0
290
     0
  0
SCALE
  5
5B
102
{ACAD_REACTORS
330
47
102
}
330
47
100
AcDbScale
 70
     0
300
1/32" = 1'-0"
140
0.03125
141
12.0
290
     0
  0
SCALE
  5
5C
102
{ACAD_REACTORS
330
47
102
}
330
47
100
AcDbScale
 70
     0
300
1/16" = 1'-0"
140
0.0625
141
12.0
290
     0
  0
SCALE
  5
5D
102
{ACAD_REACTORS
330
47
102
}
330
47
100
AcDbScale
 70
     0
300
3/32" = 1'-0"
140
0.09375
141
12.0
290
     0
  0
SCALE
  5
5E
102
{ACAD_REACTORS
330
47
102
}
330
47
100
AcDbScale
 70
     0
300
1/8" = 1'-0"
140
0.125
141
12.0
290
     0
  0
SCALE
  5
5F
102
{ACAD_REACTORS
330
47
102
}
330
47
100
AcDbScale
 70
     0
300
3/16" = 1'-0"
140
0.1875
141
12.0
290
     0
  0
SCALE
  5
60
102
{ACAD_REACTORS
330
47
102
}
330
47
100
AcDbScale
 70
     0
300
1/4" = 1'-0"
140
0.25
141
12.0
290
     0
  0
SCALE
  5
61
102
{ACAD_REACTORS
330
47
102
}
330
47
100
AcDbScale
 70
     0
300
3/8" = 1'-0"
140
0.375
141
12.0
290
     0
  0
SCALE
  5
62
102
{ACAD_REACTORS
330
47
102
}
330
47
100
AcDbScale
 70
     0
300
1/2" = 1'-0"
140
0.5
141
12.0
290
     0
  0
SCALE
  5
63
102
{ACAD_REACTORS
330
47
102
}
330
47
100
AcDbScale
 70
     0
300
3/4" = 1'-0"
140
0.75
141
12.0
290
     0
  0
SCALE
  5
64
102
{ACAD_REACTORS
330
47
102
}
330
47
100
AcDbScale
 70
     0
300
1" = 1'-0"
140
1.0
141
12.0
290
     0
  0
SCALE
  5
65
102
{ACAD_REACTORS
330
47
102
}
330
47
100
AcDbScale
 70
     0
300
1-1/2" = 1'-0"
140
1.5
141
12.0
290
     0
  0
SCALE
  5
66
102
{ACAD_REACTORS
330
47
102
}
330
47
100
AcDbScale
 70
     0
300
3" = 1'-0"
140
3.0
141
12.0
290
     0
  0
SCALE
  5
67
102
{ACAD_REACTORS
330
47
102
}
330
47
100
AcDbScale
 70
     0
300
6" = 1'-0"
140
6.0
141
12.0
290
     0
  0
SCALE
  5
68
102
{ACAD_REACTORS
330
47
102
}
330
47
100
AcDbScale
 70
     0
300
1'-0" = 1'-0"
140
12.0
141
12.0
290
     0
  0
ENDSEC
  0
EOF
