  0
SECTION
  2
HEADER
  9
$ACADVER
  1
AC1015
  9
$ACADMAINTVER
 70
     6
  9
$DWGCODEPAGE
  3
ANSI_1252
  9
$INSBASE
 10
0.0
 20
0.0
 30
0.0
  9
$EXTMIN
 10
0.0
 20
0.0
 30
0.0
  9
$EXTMAX
 10
2400.0
 20
1200.0
 30
0.0
  9
$LIMMIN
 10
0.0
 20
0.0
  9
$LIMMAX
 10
2400.0
 20
1200.0
  9
$ORTHOMODE
 70
     0
  9
$REGENMODE
 70
     1
  9
$FILLMODE
 70
     1
  9
$QTEXTMODE
 70
     0
  9
$MIRRTEXT
 70
     1
  9
$LTSCALE
 40
1.0
  9
$ATTMODE
 70
     1
  9
$TEXTSIZE
 40
3.5
  9
$TRACEWID
 40
1.0
  9
$TEXTSTYLE
  7
Standard
  9
$CLAYER
  8
0
  9
$CELTYPE
  6
ByLayer
  9
$CECOLOR
 62
   256
  9
$CELTSCALE
 40
1.0
  9
$DISPSILH
 70
     0
  9
$DIMSCALE
 40
1.0
  9
$DIMASZ
 40
3.302
  9
$DIMEXO
 40
1.0
  9
$DIMDLI
 40
3.75
  9
$DIMRND
 40
0.0
  9
$DIMDLE
 40
0.0
  9
$DIMEXE
 40
1.0
  9
$DIMTP
 40
0.0
  9
$DIMTM
 40
0.0
  9
$DIMTXT
 40
3.5
  9
$DIMCEN
 40
2.5
  9
$DIMTSZ
 40
0.0
  9
$DIMTOL
 70
     0
  9
$DIMLIM
 70
     0
  9
$DIMTIH
 70
     1
  9
$DIMTOH
 70
     1
  9
$DIMSE1
 70
     0
  9
$DIMSE2
 70
     0
  9
$DIMTAD
 70
     1
  9
$DIMZIN
 70
     1
  9
$DIMBLK
  1

  9
$DIMASO
 70
     1
  9
$DIMSHO
 70
     1
  9
$DIMPOST
  1

  9
$DIMAPOST
  1

  9
$DIMALT
 70
     0
  9
$DIMALTD
 70
     3
  9
$DIMALTF
 40
0.0393700787
  9
$DIMLFAC
 40
1.0
  9
$DIMTOFL
 70
     1
  9
$DIMTVP
 40
0.0
  9
$DIMTIX
 70
     0
  9
$DIMSOXD
 70
     0
  9
$DIMSAH
 70
     0
  9
$DIMBLK1
  1

  9
$DIMBLK2
  1

  9
$DIMSTYLE
  2
ISO-25
  9
$DIMCLRD
 70
     0
  9
$DIMCLRE
 70
     0
  9
$DIMCLRT
 70
     0
  9
$DIMTFAC
 40
1.0
  9
$DIMGAP
 40
1.524
  9
$DIMJUST
 70
     0
  9
$DIMSD1
 70
     0
  9
$DIMSD2
 70
     0
  9
$DIMTOLJ
 70
     0
  9
$DIMTZIN
 70
     1
  9
$DIMALTZ
 70
     0
  9
$DIMALTTZ
 70
     0
  9
$DIMUPT
 70
     0
  9
$DIMDEC
 70
     2
  9
$DIMTDEC
 70
     2
  9
$DIMALTU
 70
     2
  9
$DIMALTTD
 70
     3
  9
$DIMTXSTY
  7
Standard
  9
$DIMAUNIT
 70
     0
  9
$DIMADEC
 70
     2
  9
$DIMALTRND
 40
0.0
  9
$DIMAZIN
 70
     0
  9
$DIMDSEP
 70
    44
  9
$DIMATFIT
 70
     3
  9
$DIMFRAC
 70
     0
  9
$DIMLDRBLK
  1

  9
$DIMLUNIT
 70
     2
  9
$DIMLWD
 70
    -2
  9
$DIMLWE
 70
    -2
  9
$DIMTMOVE
 70
     0
  9
$LUNITS
 70
     2
  9
$LUPREC
 70
     2
  9
$SKETCHINC
 40
1.0
  9
$FILLETRAD
 40
10.0
  9
$AUNITS
 70
     0
  9
$AUPREC
 70
     2
  9
$MENU
  1
.
  9
$ELEVATION
 40
0.0
  9
$PELEVATION
 40
0.0
  9
$THICKNESS
 40
0.0
  9
$LIMCHECK
 70
     0
  9
$CHAMFERA
 40
0.0
  9
$CHAMFERB
 40
0.0
  9
$CHAMFERC
 40
0.0
  9
$CHAMFERD
 40
0.0
  9
$SKPOLY
 70
     0
  9
$TDCREATE
 40
2459072.677239861
  9
$TDUCREATE
 40
2459072.260573194
  9
$TDUPDATE
 40
2459072.677242951
  9
$TDUUPDATE
 40
2459072.260576284
  9
$TDINDWG
 40
0.0000000116
  9
$TDUSRTIMER
 40
0.0000000116
  9
$USRTIMER
 70
     1
  9
$ANGBASE
 50
0.0
  9
$ANGDIR
 70
     0
  9
$PDMODE
 70
     0
  9
$PDSIZE
 40
-1.0
  9
$PLINEWID
 40
0.0
  9
$SPLFRAME
 70
     0
  9
$SPLINETYPE
 70
     6
  9
$SPLINESEGS
 70
     8
  9
$HANDSEED
  5
245
  9
$SURFTAB1
 70
     6
  9
$SURFTAB2
 70
     6
  9
$SURFTYPE
 70
     6
  9
$SURFU
 70
     6
  9
$SURFV
 70
     6
  9
$UCSBASE
  2

  9
$UCSNAME
  2

  9
$UCSORG
 10
0.0
 20
0.0
 30
0.0
  9
$UCSXDIR
 10
1.0
 20
0.0
 30
0.0
  9
$UCSYDIR
 10
0.0
 20
1.0
 30
0.0
  9
$UCSORTHOREF
  2

  9
$UCSORTHOVIEW
 70
     0
  9
$UCSORGTOP
 10
0.0
 20
0.0
 30
0.0
  9
$UCSORGBOTTOM
 10
0.0
 20
0.0
 30
0.0
  9
$UCSORGLEFT
 10
0.0
 20
0.0
 30
0.0
  9
$UCSORGRIGHT
 10
0.0
 20
0.0
 30
0.0
  9
$UCSORGFRONT
 10
0.0
 20
0.0
 30
0.0
  9
$UCSORGBACK
 10
0.0
 20
0.0
 30
0.0
  9
$PUCSBASE
  2

  9
$PUCSNAME
  2

  9
$PUCSORG
 10
0.0
 20
0.0
 30
0.0
  9
$PUCSXDIR
 10
1.0
 20
0.0
 30
0.0
  9
$PUCSYDIR
 10
0.0
 20
1.0
 30
0.0
  9
$PUCSORTHOREF
  2

  9
$PUCSORTHOVIEW
 70
     0
  9
$PUCSORGTOP
 10
0.0
 20
0.0
 30
0.0
  9
$PUCSORGBOTTOM
 10
0.0
 20
0.0
 30
0.0
  9
$PUCSORGLEFT
 10
0.0
 20
0.0
 30
0.0
  9
$PUCSORGRIGHT
 10
0.0
 20
0.0
 30
0.0
  9
$PUCSORGFRONT
 10
0.0
 20
0.0
 30
0.0
  9
$PUCSORGBACK
 10
0.0
 20
0.0
 30
0.0
  9
$USERI1
 70
     0
  9
$USERI2
 70
     0
  9
$USERI3
 70
     0
  9
$USERI4
 70
     0
  9
$USERI5
 70
     0
  9
$USERR1
 40
0.0
  9
$USERR2
 40
0.0
  9
$USERR3
 40
0.0
  9
$USERR4
 40
0.0
  9
$USERR5
 40
0.0
  9
$WORLDVIEW
 70
     1
  9
$SHADEDGE
 70
     3
  9
$SHADEDIF
 70
    70
  9
$TILEMODE
 70
     1
  9
$MAXACTVP
 70
    64
  9
$PINSBASE
 10
0.0
 20
0.0
 30
0.0
  9
$PLIMCHECK
 70
     0
  9
$PEXTMIN
 10
1.0000000000E+20
 20
1.0000000000E+20
 30
1.0000000000E+20
  9
$PEXTMAX
 10
-1.0000000000E+20
 20
-1.0000000000E+20
 30
-1.0000000000E+20
  9
$PLIMMIN
 10
0.0
 20
0.0
  9
$PLIMMAX
 10
420.0
 20
297.0
  9
$UNITMODE
 70
     0
  9
$VISRETAIN
 70
     1
  9
$PLINEGEN
 70
     0
  9
$PSLTSCALE
 70
     1
  9
$TREEDEPTH
 70
  3020
  9
$CMLSTYLE
  2
Standard
  9
$CMLJUST
 70
     0
  9
$CMLSCALE
 40
20.0
  9
$PROXYGRAPHICS
 70
     1
  9
$MEASUREMENT
 70
     1
  9
$CELWEIGHT
370
    -1
  9
$ENDCAPS
280
     0
  9
$JOINSTYLE
280
     0
  9
$LWDISPLAY
290
     1
  9
$INSUNITS
 70
     4
  9
$HYPERLINKBASE
  1

  9
$STYLESHEET
  1

  9
$XEDIT
290
     1
  9
$CEPSNTYPE
380
     0
  9
$PSTYLEMODE
290
     1
  9
$FINGERPRINTGUID
  2
{dba69242-d3fb-4a93-89ff-03567287300c}
  9
$VERSIONGUID
  2
{FAEB1C32-E019-11D5-929B-00C0DF256EC4}
  9
$EXTNAMES
290
     1
  9
$PSVPSCALE
 40
0.0
  9
$OLESTARTUP
290
     0
  0
ENDSEC
  0
SECTION
  2
CLASSES
  0
CLASS
  1
ACDBDICTIONARYWDFLT
  2
AcDbDictionaryWithDefault
  3
ObjectDBX Classes
 90
        0
280
     0
281
     0
  0
CLASS
  1
VISUALSTYLE
  2
AcDbVisualStyle
  3
ObjectDBX Classes
 90
     4095
280
     0
281
     0
  0
CLASS
  1
MATERIAL
  2
AcDbMaterial
  3
ObjectDBX Classes
 90
     1153
280
     0
281
     0
  0
CLASS
  1
SCALE
  2
AcDbScale
  3
ObjectDBX Classes
 90
     1153
280
     0
281
     0
  0
CLASS
  1
TABLESTYLE
  2
AcDbTableStyle
  3
ObjectDBX Classes
 90
     4095
280
     0
281
     0
  0
CLASS
  1
MLEADERSTYLE
  2
AcDbMLeaderStyle
  3
ACDB_MLEADERSTYLE_CLASS
 90
     4095
280
     0
281
     0
  0
CLASS
  1
SUN
  2
AcDbSun
  3
SCENEOE
 90
     1153
280
     0
281
     0
  0
CLASS
  1
ACDBPLACEHOLDER
  2
AcDbPlaceHolder
  3
ObjectDBX Classes
 90
        0
280
     0
281
     0
  0
CLASS
  1
LAYOUT
  2
AcDbLayout
  3
ObjectDBX Classes
 90
        0
280
     0
281
     0
  0
ENDSEC
  0
SECTION
  2
TABLES
  0
TABLE
  2
VPORT
  5
8
330
0
100
AcDbSymbolTable
 70
     1
  0
VPORT
  5
29
330
8
100
AcDbSymbolTableRecord
100
AcDbViewportTableRecord
  2
*Active
 70
     0
 10
0.0
 20
0.0
 11
1.0
 21
1.0
 12
1200.0
 22
600.0
 13
0.0
 23
0.0
 14
10.0
 24
10.0
 15
10.0
 25
10.0
 16
0.0
 26
0.0
 36
1.0
 17
0.0
 27
0.0
 37
0.0
 40
1200.0
 41
2.0
 42
50.0
 43
0.0
 44
0.0
 50
0.0
 51
0.0
 71
     0
 72
  2000
 73
     1
 74
     3
 75
     0
 76
     0
 77
     0
 78
     0
281
     0
 65
     1
110
0.0
120
0.0
130
0.0
111
1.0
121
0.0
131
0.0
112
0.0
122
1.0
132
0.0
 79
     0
146
0.0
  0
ENDTAB
  0
TABLE
  2
LTYPE
  5
5
330
0
100
AcDbSymbolTable
 70
     6
  0
LTYPE
  5
14
330
5
100
AcDbSymbolTableRecord
100
AcDbLinetypeTableRecord
  2
ByBlock
 70
     0
  3

 72
    65
 73
     0
 40
0.0
  0
LTYPE
  5
15
330
5
100
AcDbSymbolTableRecord
100
AcDbLinetypeTableRecord
  2
ByLayer
 70
     0
  3

 72
    65
 73
     0
 40
0.0
  0
LTYPE
  5
16
330
5
100
AcDbSymbolTableRecord
100
AcDbLinetypeTableRecord
  2
Continuous
 70
     0
  3
Solid line
 72
    65
 73
     0
 40
0.0
  0
LTYPE
  5
6E
330
5
100
AcDbSymbolTableRecord
100
AcDbLinetypeTableRecord
  2
HIDDEN
 70
     0
  3
Hidden __ __ __ __ __ __ __ __ __ __ __ __ __ __
 72
    65
 73
     2
 40
1.905
 49
1.27
 74
     0
 49
-0.635
 74
     0
  0
LTYPE
  5
6F
330
5
100
AcDbSymbolTableRecord
100
AcDbLinetypeTableRecord
  2
PHANTOM
 70
     0
  3
Phantom ______  __  __  ______  __  __  ______
 72
    65
 73
     6
 40
12.7
 49
6.35
 74
     0
 49
-1.27
 74
     0
 49
1.27
 74
     0
 49
-1.27
 74
     0
 49
1.27
 74
     0
 49
-1.27
 74
     0
  0
LTYPE
  5
70
330
5
100
AcDbSymbolTableRecord
100
AcDbLinetypeTableRecord
  2
CENTER
 70
     0
  3
Center ____ _ ____ _ ____ _ ____ _ ____ _ ____
 72
    65
 73
     4
 40
10.16
 49
6.35
 74
     0
 49
-1.27
 74
     0
 49
1.27
 74
     0
 49
-1.27
 74
     0
  0
LTYPE
  5
71
330
5
100
AcDbSymbolTableRecord
100
AcDbLinetypeTableRecord
  2
CENTERX2
 70
     0
  3
Center (2x) ________  __  ________  __  _____
 72
    65
 73
     4
 40
20.32
 49
12.7
 74
     0
 49
-2.54
 74
     0
 49
2.54
 74
     0
 49
-2.54
 74
     0
  0
LTYPE
  5
72
330
5
100
AcDbSymbolTableRecord
100
AcDbLinetypeTableRecord
  2
DOT2
 70
     0
  3
Dot (.5x) ........................................
 72
    65
 73
     2
 40
0.635
 49
0.0
 74
     0
 49
-0.635
 74
     0
  0
ENDTAB
  0
TABLE
  2
LAYER
  5
2
330
0
100
AcDbSymbolTable
 70
     2
  0
LAYER
  5
10
330
2
100
AcDbSymbolTableRecord
100
AcDbLayerTableRecord
  2
0
 70
     0
 62
     7
  6
Continuous
370
    -3
390
F
  0
LAYER
  5
73
330
2
100
AcDbSymbolTableRecord
100
AcDbLayerTableRecord
  2
FORMAT
 70
     0
 62
     7
  6
Continuous
370
    -3
390
F
  0
ENDTAB
  0
TABLE
  2
STYLE
  5
3
330
0
100
AcDbSymbolTable
 70
     1
  0
STYLE
  5
11
330
3
100
AcDbSymbolTableRecord
100
AcDbTextStyleTableRecord
  2
Standard
 70
     0
 40
0.0
 41
1.0
 50
0.0
 71
     0
 42
3.5
  3
txt
  4

  0
ENDTAB
  0
TABLE
  2
VIEW
  5
6
330
0
100
AcDbSymbolTable
 70
     0
  0
ENDTAB
  0
TABLE
  2
UCS
  5
7
330
0
100
AcDbSymbolTable
 70
     0
  0
ENDTAB
  0
TABLE
  2
APPID
  5
9
330
0
100
AcDbSymbolTable
 70
     1
  0
APPID
  5
12
330
9
100
AcDbSymbolTableRecord
100
AcDbRegAppTableRecord
  2
ACAD
 70
     0
  0
ENDTAB
  0
TABLE
  2
DIMSTYLE
  5
A
330
0
100
AcDbSymbolTable
 70
     1
100
AcDbDimStyleTable
  0
DIMSTYLE
105
27
330
A
100
AcDbSymbolTableRecord
100
AcDbDimStyleTableRecord
  2
ISO-25
 70
     0
 41
2.5
 42
0.625
 43
3.75
 44
1.25
 73
     0
 74
     0
 77
     1
 78
     8
140
2.5
141
2.5
143
0.0393700787
147
0.625
171
     3
172
     1
178
     0
271
     2
272
     2
274
     3
278
    44
283
     0
284
     8
340
11
  0
ENDTAB
  0
TABLE
  2
BLOCK_RECORD
  5
1
330
0
100
AcDbSymbolTable
 70
     1
  0
BLOCK_RECORD
  5
1F
330
1
100
AcDbSymbolTableRecord
100
AcDbBlockTableRecord
  2
*Model_Space
340
22
  0
BLOCK_RECORD
  5
1B
330
1
100
AcDbSymbolTableRecord
100
AcDbBlockTableRecord
  2
*Paper_Space
340
1E
  0
BLOCK_RECORD
  5
23
330
1
100
AcDbSymbolTableRecord
100
AcDbBlockTableRecord
  2
*Paper_Space0
340
26
  0
ENDTAB
  0
ENDSEC
  0
SECTION
  2
BLOCKS
  0
BLOCK
  5
20
330
1F
100
AcDbEntity
  8
0
100
AcDbBlockBegin
  2
*Model_Space
 70
     0
 10
0.0
 20
0.0
 30
0.0
  3
*Model_Space
  1

  0
ENDBLK
  5
21
330
1F
100
AcDbEntity
  8
0
100
AcDbBlockEnd
  0
BLOCK
  5
1C
330
1B
100
AcDbEntity
 67
     1
  8
0
100
AcDbBlockBegin
  2
*Paper_Space
 70
     0
 10
0.0
 20
0.0
 30
0.0
  3
*Paper_Space
  1

  0
ENDBLK
  5
1D
330
1B
100
AcDbEntity
 67
     1
  8
0
100
AcDbBlockEnd
  0
BLOCK
  5
24
330
23
100
AcDbEntity
  8
0
100
AcDbBlockBegin
  2
*Paper_Space0
 70
     0
 10
0.0
 20
0.0
 30
0.0
  3
*Paper_Space0
  1

  0
ENDBLK
  5
25
330
23
100
AcDbEntity
  8
0
100
AcDbBlockEnd
  0
ENDSEC
  0
SECTION
  2
ENTITIES
  0
LINE
  5
74
330
1F
100
AcDbEntity
  8
0
  6
Continuous
 62
     7
370
    25
100
AcDbLine
 10
266.7963804679
 20
1191.8230027673
 30
0.0
 11
266.7963804679
 21
478.0800715977
 31
0.0
  0
LINE
  5
75
330
1F
100
AcDbEntity
  8
0
  6
Continuous
 62
     7
370
    25
100
AcDbLine
 10
266.7963804678
 20
1191.8230027673
 30
0.0
 11
432.5344656263
 21
1191.8230027673
 31
0.0
  0
SPLINE
  5
76
330
1F
100
AcDbEntity
  8
0
  6
Continuous
 62
     7
370
    25
100
AcDbSpline
210
0.0
220
0.0
230
1.0
 70
     8
 71
     3
 72
    29
 73
    25
 74
     0
 42
0.00000001
 43
0.00000001
 40
-81.28734894376076
 40
-81.28734894376076
 40
-81.28734894376076
 40
-81.28734894376076
 40
-69.51057328535548
 40
-69.51057328535548
 40
-69.51057328535548
 40
-66.91307914469728
 40
-66.91307914469728
 40
-66.91307914469728
 40
-62.48938539346187
 40
-62.48938539346187
 40
-62.48938539346187
 40
-57.12101309862778
 40
-57.12101309862778
 40
-57.12101309862778
 40
-44.56984430117338
 40
-44.56984430117338
 40
-44.56984430117338
 40
-40.24351014213138
 40
-40.24351014213138
 40
-40.24351014213138
 40
-32.90047732595747
 40
-32.90047732595747
 40
-32.90047732595747
 40
-13.48718842158021
 40
-13.48718842158021
 40
-13.48718842158021
 40
-13.48718842158021
 10
496.8168390814153
 20
500.7449769247816
 30
0.0
 10
500.5635521287685
 20
542.5851253707381
 30
0.0
 10
503.3579539590167
 20
584.7031870360184
 30
0.0
 10
505.0668340120059
 20
625.290784561464
 30
0.0
 10
505.4437458301009
 20
634.2428143711287
 30
0.0
 10
505.767476306982
 20
643.0840074513467
 30
0.0
 10
506.0420200404767
 20
651.9422591187509
 30
0.0
 10
506.509585059884
 20
667.0284115510321
 30
0.0
 10
506.8332039244177
 20
682.1639380628013
 30
0.0
 10
506.996619796239
 20
697.3336045305927
 30
0.0
 10
507.1949330810546
 20
715.7427489621671
 30
0.0
 10
507.1572875653904
 20
734.202186852483
 30
0.0
 10
506.8518175784475
 20
752.6848285500622
 30
0.0
 10
506.1376336213548
 20
795.8969500327951
 30
0.0
 10
503.9563468544326
 20
839.236059867575
 30
0.0
 10
499.8957619879704
 20
882.3540358710047
 30
0.0
 10
498.4960957658885
 20
897.2166176323167
 30
0.0
 10
496.870135321974
 20
912.0788173446672
 30
0.0
 10
495.0159923213215
 20
926.8343583987427
 30
0.0
 10
491.8689786142972
 20
951.8787535373518
 30
0.0
 10
488.0738442564277
 20
976.5734987158177
 30
0.0
 10
483.5847713932656
 20
1001.025292064904
 30
0.0
 10
471.7166958191742
 20
1065.670206557197
 30
0.0
 10
454.9787244947254
 20
1128.612397641397
 30
0.0
 10
432.5341051182998
 20
1191.822874758991
 30
0.0
  0
SPLINE
  5
77
330
1F
100
AcDbEntity
  8
0
  6
Continuous
 62
     7
370
    25
100
AcDbSpline
210
0.0
220
0.0
230
1.0
 70
     8
 71
     3
 72
     8
 73
     4
 74
     0
 42
0.00000001
 43
0.00000001
 40
-12.7659441336943
 40
-12.7659441336943
 40
-12.7659441336943
 40
-12.7659441336943
 40
-10.63247692726912
 40
-10.63247692726912
 40
-10.63247692726912
 40
-10.63247692726912
 10
496.8175386113712
 20
500.7449142830773
 30
0.0
 10
496.1167847963022
 20
493.1736043518131
 30
0.0
 10
495.3852274206582
 20
485.6150961505938
 30
0.0
 10
494.6236888974167
 20
478.080071389257
 30
0.0
  0
CIRCLE
  5
78
330
1F
100
AcDbEntity
  8
0
  6
Continuous
 62
     7
370
    25
100
AcDbCircle
 10
419.196380468
 20
1134.5056471654
 30
0.0
 40
2.413000000000693
  0
CIRCLE
  5
79
330
1F
100
AcDbEntity
  8
0
  6
Continuous
 62
     7
370
    25
100
AcDbCircle
 10
374.746380468
 20
1134.5056471654
 30
0.0
 40
2.412999999999784
  0
CIRCLE
  5
7A
330
1F
100
AcDbEntity
  8
0
  6
Continuous
 62
     7
370
    25
100
AcDbCircle
 10
374.746380468
 20
1153.5556471654
 30
0.0
 40
2.413000000000693
  0
CIRCLE
  5
7B
330
1F
100
AcDbEntity
  8
0
  6
Continuous
 62
     7
370
    25
100
AcDbCircle
 10
419.196380468
 20
1153.5556471654
 30
0.0
 40
2.413000000000693
  0
CIRCLE
  5
7C
330
1F
100
AcDbEntity
  8
0
  6
Continuous
 62
     7
370
    25
100
AcDbCircle
 10
406.4963804679
 20
540.2333722464
 30
0.0
 40
19.04999999999995
  0
ARC
  5
7D
330
1F
100
AcDbEntity
  8
0
  6
Continuous
 62
     7
370
    25
100
AcDbCircle
 10
412.8463804683
 20
622.7833719874
 30
0.0
 40
25.40000000000293
100
AcDbArc
 50
269.9999999991
 51
0.0
  0
LINE
  5
7E
330
1F
100
AcDbEntity
  8
0
  6
Continuous
 62
     7
370
    25
100
AcDbLine
 10
438.2463804683
 20
622.7833719874
 30
0.0
 11
438.2463804683
 21
698.9833719873
 31
0.0
  0
ARC
  5
7F
330
1F
100
AcDbEntity
  8
0
  6
Continuous
 62
     7
370
    25
100
AcDbCircle
 10
412.8463804683
 20
698.9833719873
 30
0.0
 40
25.40000000000555
100
AcDbArc
 50
360.0
 51
89.9999999991
  0
LINE
  5
80
330
1F
100
AcDbEntity
  8
0
  6
Continuous
 62
     7
370
    25
100
AcDbLine
 10
412.8463804687
 20
724.3833719873
 30
0.0
 11
336.6463804685
 21
724.3833719885
 31
0.0
  0
ARC
  5
81
330
1F
100
AcDbEntity
  8
0
  6
Continuous
 62
     7
370
    25
100
AcDbCircle
 10
336.6463804683
 20
698.9833719885
 30
0.0
 40
25.40000000000305
100
AcDbArc
 50
89.9999999996
 51
180.0
  0
LINE
  5
82
330
1F
100
AcDbEntity
  8
0
  6
Continuous
 62
     7
370
    25
100
AcDbLine
 10
311.2463804683
 20
698.9833719885
 30
0.0
 11
311.2463804683
 21
622.7833719886
 31
0.0
  0
ARC
  5
83
330
1F
100
AcDbEntity
  8
0
  6
Continuous
 62
     7
370
    25
100
AcDbCircle
 10
336.6463804683
 20
622.7833719886
 30
0.0
 40
25.40000000002783
100
AcDbArc
 50
180.0
 51
269.9999999991
  0
LINE
  5
84
330
1F
100
AcDbEntity
  8
0
  6
Continuous
 62
     7
370
    25
100
AcDbLine
 10
336.6463804679
 20
597.3833719886
 30
0.0
 11
412.8463804679
 21
597.3833719874
 31
0.0
  0
CIRCLE
  5
85
330
1F
100
AcDbEntity
  8
0
  6
Continuous
 62
     7
370
    25
100
AcDbCircle
 10
295.3713804671
 20
509.8300716334
 30
0.0
 40
0.9918700000000058
  0
CIRCLE
  5
86
330
1F
100
AcDbEntity
  8
0
  6
Continuous
 62
     7
370
    25
100
AcDbCircle
 10
295.3713804671
 20
526.6415207689
 30
0.0
 40
0.9918700000008585
  0
CIRCLE
  5
87
330
1F
100
AcDbEntity
  8
0
  6
Continuous
 62
     7
370
    25
100
AcDbCircle
 10
295.3713804671
 20
543.4529699045
 30
0.0
 40
0.9918700000000626
  0
CIRCLE
  5
88
330
1F
100
AcDbEntity
  8
0
  6
Continuous
 62
     7
370
    25
100
AcDbCircle
 10
485.0986878662
 20
543.4529697646
 30
0.0
 40
0.9918700000000626
  0
CIRCLE
  5
89
330
1F
100
AcDbEntity
  8
0
  6
Continuous
 62
     7
370
    25
100
AcDbCircle
 10
485.0986878662
 20
526.6415206291
 30
0.0
 40
0.9918700000000626
  0
CIRCLE
  5
8A
330
1F
100
AcDbEntity
  8
0
  6
Continuous
 62
     7
370
    25
100
AcDbCircle
 10
485.0986878662
 20
509.8300714935
 30
0.0
 40
0.9918700000000058
  0
CIRCLE
  5
8B
330
1F
100
AcDbEntity
  8
0
  6
Continuous
 62
     7
370
    25
100
AcDbCircle
 10
375.14487518
 20
786.480462436
 30
0.0
 40
2.457450000000449
  0
CIRCLE
  5
8C
330
1F
100
AcDbEntity
  8
0
  6
Continuous
 62
     7
370
    25
100
AcDbCircle
 10
392.1740356514
 20
798.2530874465
 30
0.0
 40
2.457449999999653
  0
CIRCLE
  5
8D
330
1F
100
AcDbEntity
  8
0
  6
Continuous
 62
     7
370
    25
100
AcDbCircle
 10
355.0062837691
 20
791.2788102748
 30
0.0
 40
2.457450000000449
  0
CIRCLE
  5
8E
330
1F
100
AcDbEntity
  8
0
  6
Continuous
 62
     7
370
    25
100
AcDbCircle
 10
448.3502083624
 20
793.9275126752
 30
0.0
 40
2.457450000000563
  0
CIRCLE
  5
8F
330
1F
100
AcDbEntity
  8
0
  6
Continuous
 62
     7
370
    25
100
AcDbCircle
 10
465.9894385238
 20
812.0480712118
 30
0.0
 40
2.457450000000563
  0
CIRCLE
  5
90
330
1F
100
AcDbEntity
  8
0
  6
Continuous
 62
     7
370
    25
100
AcDbCircle
 10
486.8182870116
 20
801.1457881106
 30
0.0
 40
2.45744999999954
  0
SPLINE
  5
91
330
1F
100
AcDbEntity
  8
0
  6
Continuous
 62
     7
370
    25
100
AcDbSpline
210
0.0
220
0.0
230
1.0
 70
     8
 71
     3
 72
    11
 73
     7
 74
     0
 42
0.00000001
 43
0.00000001
 40
0.0000000000000311
 40
0.0000000000000311
 40
0.0000000000000311
 40
0.0000000000000311
 40
0.0102806173115472
 40
0.0102806173115472
 40
0.0102806173115472
 40
0.020561237729224
 40
0.020561237729224
 40
0.020561237729224
 40
0.020561237729224
 10
493.8345224968938
 20
470.3833719954918
 30
0.0
 10
493.9679348292315
 20
471.6661278007996
 30
0.0
 10
494.1004017714962
 20
472.9488974526075
 30
0.0
 10
494.2319279855349
 20
474.2316805908531
 30
0.0
 10
494.3634542393478
 20
475.5144641170186
 30
0.0
 10
494.4940397738675
 20
476.7972612265772
 30
0.0
 10
494.6236889155032
 20
478.0800715682125
 30
0.0
  0
LINE
  5
92
330
1F
100
AcDbEntity
  8
0
  6
Continuous
 62
     7
370
    25
100
AcDbLine
 10
493.8345224969
 20
470.3833719957
 30
0.0
 11
266.7963804679
 21
470.3833719958
 31
0.0
  0
LINE
  5
93
330
1F
100
AcDbEntity
  8
0
  6
Continuous
 62
     7
370
    25
100
AcDbLine
 10
266.7963804679
 20
478.0800715977
 30
0.0
 11
266.7963804679
 21
470.3833719956
 31
0.0
  0
CIRCLE
  5
94
330
1F
100
AcDbEntity
  8
0
  6
Continuous
 62
     7
370
    25
100
AcDbCircle
 10
30.5952387344
 20
860.6923218824
 30
0.0
 40
2.457449999999653
  0
CIRCLE
  5
95
330
1F
100
AcDbEntity
  8
0
  6
Continuous
 62
     7
370
    25
100
AcDbCircle
 10
69.0633173836
 20
867.9105973178
 30
0.0
 40
2.457449999999653
  0
CIRCLE
  5
96
330
1F
100
AcDbEntity
  8
0
  6
Continuous
 62
     7
370
    25
100
AcDbCircle
 10
142.268650566
 20
875.3576475569
 30
0.0
 40
2.457450000000449
  0
CIRCLE
  5
97
330
1F
100
AcDbEntity
  8
0
  6
Continuous
 62
     7
370
    25
100
AcDbCircle
 10
32.3148378799
 20
1152.0080384994
 30
0.0
 40
5.080000000000382
  0
CIRCLE
  5
98
330
1F
100
AcDbEntity
  8
0
  6
Continuous
 62
     7
370
    25
100
AcDbCircle
 10
32.3148378799
 20
1135.1965893639
 30
0.0
 40
5.079999999999472
  0
CIRCLE
  5
99
330
1F
100
AcDbEntity
  8
0
  6
Continuous
 62
     7
370
    25
100
AcDbCircle
 10
32.3148378799
 20
1118.3851402283
 30
0.0
 40
5.080000000000382
  0
CIRCLE
  5
9A
330
1F
100
AcDbEntity
  8
0
  6
Continuous
 62
     7
370
    25
100
AcDbCircle
 10
222.0421452789
 20
1118.3851400885
 30
0.0
 40
5.080000000000609
  0
CIRCLE
  5
9B
330
1F
100
AcDbEntity
  8
0
  6
Continuous
 62
     7
370
    25
100
AcDbCircle
 10
222.0421452789
 20
1135.196589224
 30
0.0
 40
5.0799999999997
  0
CIRCLE
  5
9C
330
1F
100
AcDbEntity
  8
0
  6
Continuous
 62
     7
370
    25
100
AcDbCircle
 10
222.0421452789
 20
1152.0080383596
 30
0.0
 40
5.080000000000382
  0
SPLINE
  5
9D
330
1F
100
AcDbEntity
  8
0
  6
Continuous
 62
     7
370
    25
100
AcDbSpline
210
0.0
220
0.0
230
1.0
 70
     8
 71
     3
 72
    29
 73
    25
 74
     0
 42
0.00000001
 43
0.00000001
 40
-80.32365278572237
 40
-80.32365278572237
 40
-80.32365278572237
 40
-80.32365278572237
 40
-61.8740600393835
 40
-61.8740600393835
 40
-61.8740600393835
 40
-54.5310272232096
 40
-54.5310272232096
 40
-54.5310272232096
 40
-50.2046930641676
 40
-50.2046930641676
 40
-50.2046930641676
 40
-37.6535242667132
 40
-37.6535242667132
 40
-37.6535242667132
 40
-32.2851519718791
 40
-32.2851519718791
 40
-32.2851519718791
 40
-27.8614582206437
 40
-27.8614582206437
 40
-27.8614582206437
 40
-25.2639640799855
 40
-25.2639640799855
 40
-25.2639640799855
 40
-13.48718842158019
 40
-13.48718842158019
 40
-13.48718842158019
 40
-13.48718842158019
 10
81.57898201627117
 20
479.4269974508746
 30
0.0
 10
60.78502067856489
 20
539.4789419025244
 30
0.0
 10
45.10768612486199
 20
599.376945244155
 30
0.0
 10
33.82875435275068
 20
660.8128179280565
 30
0.0
 10
29.33968148958854
 20
685.2646112771193
 30
0.0
 10
25.544547131719
 20
709.9593564555843
 30
0.0
 10
22.3975334246948
 20
735.0037515941935
 30
0.0
 10
20.54339042404224
 20
749.7592926482689
 30
0.0
 10
18.91742998012758
 20
764.6214923606301
 30
0.0
 10
17.51776375804332
 20
779.4840741219315
 30
0.0
 10
13.45717889158399
 20
822.6020501253612
 30
0.0
 10
11.27589212466146
 20
865.9411599601419
 30
0.0
 10
10.56170816756868
 20
909.1532814428739
 30
0.0
 10
10.25623818062554
 20
927.6359231404522
 30
0.0
 10
10.21859266496178
 20
946.0953610307708
 30
0.0
 10
10.41690594977712
 20
964.5045054623444
 30
0.0
 10
10.58032182159846
 20
979.6741719301349
 30
0.0
 10
10.90394068612982
 20
994.809698441905
 30
0.0
 10
11.37150570553952
 20
1009.895850874186
 30
0.0
 10
11.64604943903175
 20
1018.75410254159
 30
0.0
 10
11.96977991591513
 20
1027.595295621807
 30
0.0
 10
12.34669173401032
 20
1036.547325431472
 30
0.0
 10
14.0555717869974
 20
1077.134922956918
 30
0.0
 10
16.84997361724688
 20
1119.252984622204
 30
0.0
 10
20.59668666459935
 20
1161.09313306816
 30
0.0
  0
SPLINE
  5
9E
330
1F
100
AcDbEntity
  8
0
  6
Continuous
 62
     7
370
    25
100
AcDbSpline
210
0.0
220
0.0
230
1.0
 70
     8
 71
     3
 72
     8
 73
     4
 74
     0
 42
0.00000001
 43
0.00000001
 40
-12.7659441336943
 40
-12.7659441336943
 40
-12.7659441336943
 40
-12.7659441336943
 40
-9.90524985224107
 40
-9.90524985224107
 40
-9.90524985224107
 40
-9.90524985224107
 10
20.59598713464472
 20
1161.093195709859
 30
0.0
 10
21.53560431059082
 20
1171.245310051363
 30
0.0
 10
22.53060389924138
 20
1181.374407875184
 30
0.0
 10
23.5790032490959
 20
1191.454737997164
 30
0.0
  0
LINE
  5
9F
330
1F
100
AcDbEntity
  8
0
  6
Continuous
 62
     7
370
    25
100
AcDbLine
 10
23.5790032491
 20
1191.4547379973
 30
0.0
 11
250.6171452782
 21
1191.4547379972
 31
0.0
  0
CIRCLE
  5
A0
330
1F
100
AcDbEntity
  8
0
  6
Continuous
 62
     7
370
    25
100
AcDbCircle
 10
98.217145278
 20
527.3324628275
 30
0.0
 40
2.413000000000693
  0
CIRCLE
  5
A1
330
1F
100
AcDbEntity
  8
0
  6
Continuous
 62
     7
370
    25
100
AcDbCircle
 10
142.667145278
 20
527.3324628275
 30
0.0
 40
2.412999999999784
  0
CIRCLE
  5
A2
330
1F
100
AcDbEntity
  8
0
  6
Continuous
 62
     7
370
    25
100
AcDbCircle
 10
142.667145278
 20
508.2824628275
 30
0.0
 40
2.413000000000636
  0
CIRCLE
  5
A3
330
1F
100
AcDbEntity
  8
0
  6
Continuous
 62
     7
370
    25
100
AcDbCircle
 10
98.217145278
 20
508.2824628275
 30
0.0
 40
2.413000000000636
  0
CIRCLE
  5
A4
330
1F
100
AcDbEntity
  8
0
  6
Continuous
 62
     7
370
    25
100
AcDbCircle
 10
110.9171452782
 20
1121.6047377465
 30
0.0
 40
19.04999999999995
  0
LINE
  5
A5
330
1F
100
AcDbEntity
  8
0
  6
Continuous
 62
     7
370
    25
100
AcDbLine
 10
79.1671452777
 20
1039.0547380055
 30
0.0
 11
79.1671452777
 21
962.8547380056
 31
0.0
  0
ARC
  5
A6
330
1F
100
AcDbEntity
  8
0
  6
Continuous
 62
     7
370
    25
100
AcDbCircle
 10
104.5671452777
 20
962.8547380056
 30
0.0
 40
25.39999999999799
100
AcDbArc
 50
180.0
 51
269.9999999996
  0
LINE
  5
A7
330
1F
100
AcDbEntity
  8
0
  6
Continuous
 62
     7
370
    25
100
AcDbLine
 10
104.5671452775
 20
937.4547380057
 30
0.0
 11
180.7671452777
 21
937.4547380051
 31
0.0
  0
ARC
  5
A8
330
1F
100
AcDbEntity
  8
0
  6
Continuous
 62
     7
370
    25
100
AcDbCircle
 10
180.7671452777
 20
962.8547380045
 30
0.0
 40
25.40000000000205
100
AcDbArc
 50
270.0
 51
0.0
  0
LINE
  5
A9
330
1F
100
AcDbEntity
  8
0
  6
Continuous
 62
     7
370
    25
100
AcDbLine
 10
206.1671452777
 20
962.8547380045
 30
0.0
 11
206.1671452777
 21
1039.0547380043
 31
0.0
  0
ARC
  5
AA
330
1F
100
AcDbEntity
  8
0
  6
Continuous
 62
     7
370
    25
100
AcDbCircle
 10
180.7671452777
 20
1039.0547380043
 30
0.0
 40
25.40000000001896
100
AcDbArc
 50
0.0
 51
89.9999999996
  0
LINE
  5
AB
330
1F
100
AcDbEntity
  8
0
  6
Continuous
 62
     7
370
    25
100
AcDbLine
 10
180.7671452779
 20
1064.4547380044
 30
0.0
 11
104.5671452779
 21
1064.4547380049
 31
0.0
  0
ARC
  5
AC
330
1F
100
AcDbEntity
  8
0
  6
Continuous
 62
     7
370
    25
100
AcDbCircle
 10
104.5671452777
 20
1039.0547380055
 30
0.0
 40
25.39999999999755
100
AcDbArc
 50
89.9999999996
 51
180.0
  0
CIRCLE
  5
AD
330
1F
100
AcDbEntity
  8
0
  6
Continuous
 62
     7
370
    25
100
AcDbCircle
 10
125.2394900946
 20
863.5850225464
 30
0.0
 40
2.457450000000563
  0
CIRCLE
  5
AE
330
1F
100
AcDbEntity
  8
0
  6
Continuous
 62
     7
370
    25
100
AcDbCircle
 10
162.4072419769
 20
870.5592997181
 30
0.0
 40
2.457450000000449
  0
CIRCLE
  5
AF
330
1F
100
AcDbEntity
  8
0
  6
Continuous
 62
     7
370
    25
100
AcDbCircle
 10
51.4240872222
 20
849.7900387811
 30
0.0
 40
2.457450000000563
  0
LINE
  5
B0
330
1F
100
AcDbEntity
  8
0
  6
Continuous
 62
     7
370
    25
100
AcDbLine
 10
250.6171452782
 20
1191.4547379972
 30
0.0
 11
250.6171452782
 21
479.4266427944
 31
0.0
  0
CIRCLE
  5
B1
330
1F
100
AcDbEntity
  8
0
  6
Continuous
 62
     7
370
    25
100
AcDbCircle
 10
222.0421452789
 20
1152.0080383596
 30
0.0
 40
1.587499999999409
  0
CIRCLE
  5
B2
330
1F
100
AcDbEntity
  8
0
  6
Continuous
 62
     7
370
    25
100
AcDbCircle
 10
222.0421452789
 20
1118.3851400885
 30
0.0
 40
1.587500000001228
  0
CIRCLE
  5
B3
330
1F
100
AcDbEntity
  8
0
  6
Continuous
 62
     7
370
    25
100
AcDbCircle
 10
32.3148378799
 20
1152.0080384994
 30
0.0
 40
1.587500000001
  0
CIRCLE
  5
B4
330
1F
100
AcDbEntity
  8
0
  6
Continuous
 62
     7
370
    25
100
AcDbCircle
 10
222.0421452789
 20
1135.196589224
 30
0.0
 40
1.587499999999409
  0
CIRCLE
  5
B5
330
1F
100
AcDbEntity
  8
0
  6
Continuous
 62
     7
370
    25
100
AcDbCircle
 10
32.3148378799
 20
1135.1965893639
 30
0.0
 40
1.587500000001
  0
CIRCLE
  5
B6
330
1F
100
AcDbEntity
  8
0
  6
Continuous
 62
     7
370
    25
100
AcDbCircle
 10
32.3148378799
 20
1118.3851402283
 30
0.0
 40
1.587500000001228
  0
LINE
  5
B7
330
1F
100
AcDbEntity
  8
0
  6
Continuous
 62
     7
370
    25
100
AcDbLine
 10
250.6171452782
 20
470.0151072257
 30
0.0
 11
84.8790601197
 21
470.0151072257
 31
0.0
  0
SPLINE
  5
B8
330
1F
100
AcDbEntity
  8
0
  6
Continuous
 62
     7
370
    25
100
AcDbSpline
210
0.0
220
0.0
230
1.0
 70
     8
 71
     3
 72
    14
 73
    10
 74
     0
 42
0.00000001
 43
0.00000001
 40
0.0000000000000009
 40
0.0000000000000009
 40
0.0000000000000009
 40
0.0000000000000009
 40
0.0095250033889591
 40
0.0095250033889591
 40
0.0095250033889591
 40
0.0155139752878102
 40
0.0155139752878102
 40
0.0155139752878102
 40
0.0215029539376423
 40
0.0215029539376423
 40
0.0215029539376423
 40
0.0215029539376423
 10
84.87945628113907
 20
470.0151348237093
 30
0.0
 10
84.38616589950959
 20
471.4043814668273
 30
0.0
 10
83.89552045168163
 20
472.7938128727122
 30
0.0
 10
83.4075229833231
 20
474.1834262129278
 30
0.0
 10
83.1006880527601
 20
475.0571641734723
 30
0.0
 10
82.79489986427564
 20
475.9309743785384
 30
0.0
 10
82.4901591041956
 20
476.8048561190087
 30
0.0
 10
82.18541800062302
 20
477.6787388444866
 30
0.0
 10
81.88172424194428
 20
478.5526933518028
 30
0.0
 10
81.57907845961732
 20
479.426718927305
 30
0.0
  0
LINE
  5
B9
330
1F
100
AcDbEntity
  8
0
  6
Continuous
 62
     7
370
    25
100
AcDbLine
 10
250.6171452782
 20
479.4266427944
 30
0.0
 11
250.6171452782
 21
470.0151072257
 31
0.0
  0
LINE
  5
BA
330
1F
100
AcDbEntity
  8
0
  6
Continuous
 62
     7
370
    25
100
AcDbLine
 10
673.501384195
 20
98.4877541148
 30
0.0
 11
11.7304621035
 21
365.860562135
 31
0.0
  0
LINE
  5
BB
330
1F
100
AcDbEntity
  8
0
  6
Continuous
 62
     7
370
    25
100
AcDbLine
 10
11.7304621035
 20
365.860562135
 30
0.0
 11
6.131383154
 21
440.4758574069
 31
0.0
  0
LINE
  5
BC
330
1F
100
AcDbEntity
  8
0
  6
Continuous
 62
     7
370
    25
100
AcDbLine
 10
6.131383154
 20
440.4758574069
 30
0.0
 11
673.501384195
 21
440.4758574069
 31
0.0
  0
LINE
  5
BD
330
1F
100
AcDbEntity
  8
0
  6
Continuous
 62
     7
370
    25
100
AcDbLine
 10
673.501384195
 20
440.4758574069
 30
0.0
 11
673.501384195
 21
98.4877541148
 31
0.0
  0
CIRCLE
  5
BE
330
1F
100
AcDbEntity
  8
0
  6
Continuous
 62
     7
370
    25
100
AcDbCircle
 10
38.501384195
 20
399.2008574069
 30
0.0
 40
3.492500000000121
  0
CIRCLE
  5
BF
330
1F
100
AcDbEntity
  8
0
  6
Continuous
 62
     7
370
    25
100
AcDbCircle
 10
635.4013841408
 20
168.3136039843
 30
0.0
 40
2.457449999999653
  0
CIRCLE
  5
C0
330
1F
100
AcDbEntity
  8
0
  6
Continuous
 62
     7
370
    25
100
AcDbCircle
 10
635.4013841408
 20
386.0434067224
 30
0.0
 40
2.457449999999653
  0
CIRCLE
  5
C1
330
1F
100
AcDbEntity
  8
0
  6
Continuous
 62
     7
370
    25
100
AcDbCircle
 10
40.1644567449
 20
377.0381677079
 30
0.0
 40
2.457449999999639
  0
CIRCLE
  5
C2
330
1F
100
AcDbEntity
  8
0
  6
Continuous
 62
     7
370
    25
100
AcDbCircle
 10
36.8383116452
 20
421.3635471059
 30
0.0
 40
2.457449999999639
  0
CIRCLE
  5
C3
330
1F
100
AcDbEntity
  8
0
  6
HIDDEN
 62
     7
370
    18
100
AcDbCircle
 10
40.1644567449
 20
377.0381677079
 30
0.0
 40
4.216399999999787
  0
CIRCLE
  5
C4
330
1F
100
AcDbEntity
  8
0
  6
HIDDEN
 62
     7
370
    18
100
AcDbCircle
 10
635.4013841408
 20
168.3136039843
 30
0.0
 40
4.21639999999968
  0
CIRCLE
  5
C5
330
1F
100
AcDbEntity
  8
0
  6
HIDDEN
 62
     7
370
    18
100
AcDbCircle
 10
36.8383116452
 20
421.3635471059
 30
0.0
 40
4.216399999999787
  0
CIRCLE
  5
C6
330
1F
100
AcDbEntity
  8
0
  6
HIDDEN
 62
     7
370
    18
100
AcDbCircle
 10
635.4013841408
 20
386.0434067224
 30
0.0
 40
4.21639999999968
  0
LINE
  5
C7
330
1F
100
AcDbEntity
  8
0
  6
Continuous
 62
     7
370
    25
100
AcDbLine
 10
668.3587672365
 20
84.373266582
 30
0.0
 11
673.9578461859
 21
9.7579713101
 31
0.0
  0
LINE
  5
C8
330
1F
100
AcDbEntity
  8
0
  6
Continuous
 62
     7
370
    25
100
AcDbLine
 10
673.9578461859
 20
9.7579713101
 30
0.0
 11
6.5878451449
 21
9.7579713101
 31
0.0
  0
CIRCLE
  5
C9
330
1F
100
AcDbEntity
  8
0
  6
Continuous
 62
     7
370
    25
100
AcDbCircle
 10
641.5878451449
 20
51.0329713101
 30
0.0
 40
3.492500000000121
  0
CIRCLE
  5
CA
330
1F
100
AcDbEntity
  8
0
  6
Continuous
 62
     7
370
    25
100
AcDbCircle
 10
44.6878451991
 20
281.9202247328
 30
0.0
 40
4.216399999999787
  0
CIRCLE
  5
CB
330
1F
100
AcDbEntity
  8
0
  6
Continuous
 62
     7
370
    25
100
AcDbCircle
 10
44.6878451991
 20
64.1904219946
 30
0.0
 40
4.216399999999787
  0
CIRCLE
  5
CC
330
1F
100
AcDbEntity
  8
0
  6
Continuous
 62
     7
370
    25
100
AcDbCircle
 10
639.924772595
 20
73.1956610091
 30
0.0
 40
4.216399999999794
  0
CIRCLE
  5
CD
330
1F
100
AcDbEntity
  8
0
  6
Continuous
 62
     7
370
    25
100
AcDbCircle
 10
643.2509176947
 20
28.8702816111
 30
0.0
 40
4.216399999999794
  0
LINE
  5
CE
330
1F
100
AcDbEntity
  8
0
  6
Continuous
 62
     7
370
    25
100
AcDbLine
 10
6.5878451449
 20
351.7460746022
 30
0.0
 11
668.3587672365
 21
84.373266582
 31
0.0
  0
LINE
  5
CF
330
1F
100
AcDbEntity
  8
0
  6
Continuous
 62
     7
370
    25
100
AcDbLine
 10
6.5878451449
 20
9.7579713101
 30
0.0
 11
6.5878451449
 21
351.7460746022
 31
0.0
  0
CIRCLE
  5
D0
330
1F
100
AcDbEntity
  8
0
  6
Continuous
 62
     7
370
    25
100
AcDbCircle
 10
639.924772595
 20
73.1956610091
 30
0.0
 40
2.457449999999653
  0
CIRCLE
  5
D1
330
1F
100
AcDbEntity
  8
0
  6
Continuous
 62
     7
370
    25
100
AcDbCircle
 10
44.6878451991
 20
281.9202247328
 30
0.0
 40
2.457449999999639
  0
CIRCLE
  5
D2
330
1F
100
AcDbEntity
  8
0
  6
Continuous
 62
     7
370
    25
100
AcDbCircle
 10
643.2509176947
 20
28.8702816111
 30
0.0
 40
2.45744999999954
  0
CIRCLE
  5
D3
330
1F
100
AcDbEntity
  8
0
  6
Continuous
 62
     7
370
    25
100
AcDbCircle
 10
44.6878451991
 20
64.1904219946
 30
0.0
 40
2.457449999999639
  0
CIRCLE
  5
D4
330
1F
100
AcDbEntity
  8
0
  6
Continuous
 62
     7
370
    25
100
AcDbCircle
 10
734.3174230858
 20
336.620273307
 30
0.0
 40
2.976625999999669
  0
CIRCLE
  5
D5
330
1F
100
AcDbEntity
  8
0
  6
Continuous
 62
     7
370
    25
100
AcDbCircle
 10
734.3174230858
 20
282.1878226224
 30
0.0
 40
2.976625999999669
  0
CIRCLE
  5
D6
330
1F
100
AcDbEntity
  8
0
  6
Continuous
 62
     7
370
    25
100
AcDbCircle
 10
734.3174230858
 20
227.7553719379
 30
0.0
 40
2.976625999999669
  0
LINE
  5
D7
330
1F
100
AcDbEntity
  8
0
  6
Continuous
 62
     7
370
    25
100
AcDbLine
 10
772.4174230858
 20
445.4851746761
 30
0.0
 11
696.2174230858
 21
445.4851746761
 31
0.0
  0
LINE
  5
D8
330
1F
100
AcDbEntity
  8
0
  6
Continuous
 62
     7
370
    25
100
AcDbLine
 10
772.4174230858
 20
445.4851746761
 30
0.0
 11
772.4174230858
 21
134.2838697927
 31
0.0
  0
LINE
  5
D9
330
1F
100
AcDbEntity
  8
0
  6
Continuous
 62
     7
370
    25
100
AcDbLine
 10
772.4174230858
 20
134.2838697927
 30
0.0
 11
696.2174230858
 21
103.497071345
 31
0.0
  0
LINE
  5
DA
330
1F
100
AcDbEntity
  8
0
  6
Continuous
 62
     7
370
    25
100
AcDbLine
 10
696.2174230858
 20
445.4851746761
 30
0.0
 11
696.2174230858
 21
103.497071345
 31
0.0
  0
CIRCLE
  5
DB
330
1F
100
AcDbEntity
  8
0
  6
Continuous
 62
     7
370
    25
100
AcDbCircle
 10
734.3174230858
 20
173.3229212534
 30
0.0
 40
2.976625999999669
  0
CIRCLE
  5
DC
330
1F
100
AcDbEntity
  8
0
  6
Continuous
 62
     7
370
    25
100
AcDbCircle
 10
734.3174230858
 20
391.0527239915
 30
0.0
 40
2.976625999999669
  0
CIRCLE
  5
DD
330
1F
100
AcDbEntity
  8
0
  6
Continuous
 62
     7
370
    25
100
AcDbCircle
 10
827.5506063094
 20
338.6958820093
 30
0.0
 40
2.976625999999669
  0
CIRCLE
  5
DE
330
1F
100
AcDbEntity
  8
0
  6
Continuous
 62
     7
370
    25
100
AcDbCircle
 10
827.5506063094
 20
284.2634313247
 30
0.0
 40
2.976625999999669
  0
CIRCLE
  5
DF
330
1F
100
AcDbEntity
  8
0
  6
Continuous
 62
     7
370
    25
100
AcDbCircle
 10
827.5506063094
 20
229.8309806402
 30
0.0
 40
2.976625999999669
  0
LINE
  5
E0
330
1F
100
AcDbEntity
  8
0
  6
Continuous
 62
     7
370
    25
100
AcDbLine
 10
865.6506063094
 20
447.5607833783
 30
0.0
 11
789.4506063094
 21
447.5607833783
 31
0.0
  0
LINE
  5
E1
330
1F
100
AcDbEntity
  8
0
  6
Continuous
 62
     7
370
    25
100
AcDbLine
 10
865.6506063094
 20
447.5607833783
 30
0.0
 11
865.6506063094
 21
136.359478495
 31
0.0
  0
LINE
  5
E2
330
1F
100
AcDbEntity
  8
0
  6
Continuous
 62
     7
370
    25
100
AcDbLine
 10
865.6506063094
 20
136.359478495
 30
0.0
 11
789.4506063094
 21
105.5726800472
 31
0.0
  0
LINE
  5
E3
330
1F
100
AcDbEntity
  8
0
  6
Continuous
 62
     7
370
    25
100
AcDbLine
 10
789.4506063094
 20
447.5607833783
 30
0.0
 11
789.4506063094
 21
105.5726800472
 31
0.0
  0
CIRCLE
  5
E4
330
1F
100
AcDbEntity
  8
0
  6
Continuous
 62
     7
370
    25
100
AcDbCircle
 10
827.5506063094
 20
175.3985299557
 30
0.0
 40
2.976625999999669
  0
CIRCLE
  5
E5
330
1F
100
AcDbEntity
  8
0
  6
Continuous
 62
     7
370
    25
100
AcDbCircle
 10
827.5506063094
 20
393.1283326938
 30
0.0
 40
2.976625999999669
  0
CIRCLE
  5
E6
330
1F
100
AcDbEntity
  8
0
  6
Continuous
 62
     7
370
    25
100
AcDbCircle
 10
1506.8085752409
 20
1158.0359488675
 30
0.0
 40
2.976625999999669
  0
CIRCLE
  5
E7
330
1F
100
AcDbEntity
  8
0
  6
Continuous
 62
     7
370
    25
100
AcDbCircle
 10
1561.2410259255
 20
1158.0359488675
 30
0.0
 40
2.976625999999669
  0
CIRCLE
  5
E8
330
1F
100
AcDbEntity
  8
0
  6
Continuous
 62
     7
370
    25
100
AcDbCircle
 10
1615.67347661
 20
1158.0359488675
 30
0.0
 40
2.976625999999669
  0
LINE
  5
E9
330
1F
100
AcDbEntity
  8
0
  6
Continuous
 62
     7
370
    25
100
AcDbLine
 10
1397.9436738719
 20
1196.1359488675
 30
0.0
 11
1397.9436738719
 21
1119.9359488675
 31
0.0
  0
LINE
  5
EA
330
1F
100
AcDbEntity
  8
0
  6
Continuous
 62
     7
370
    25
100
AcDbLine
 10
1397.9436738719
 20
1196.1359488675
 30
0.0
 11
1709.1449787552
 21
1196.1359488675
 31
0.0
  0
LINE
  5
EB
330
1F
100
AcDbEntity
  8
0
  6
Continuous
 62
     7
370
    25
100
AcDbLine
 10
1709.1449787552
 20
1196.1359488675
 30
0.0
 11
1739.9317772029
 21
1119.9359488675
 31
0.0
  0
LINE
  5
EC
330
1F
100
AcDbEntity
  8
0
  6
Continuous
 62
     7
370
    25
100
AcDbLine
 10
1397.9436738719
 20
1119.9359488675
 30
0.0
 11
1739.9317772029
 21
1119.9359488675
 31
0.0
  0
CIRCLE
  5
ED
330
1F
100
AcDbEntity
  8
0
  6
Continuous
 62
     7
370
    25
100
AcDbCircle
 10
1670.1059272945
 20
1158.0359488675
 30
0.0
 40
2.976625999999669
  0
CIRCLE
  5
EE
330
1F
100
AcDbEntity
  8
0
  6
Continuous
 62
     7
370
    25
100
AcDbCircle
 10
1452.3761245564
 20
1158.0359488675
 30
0.0
 40
2.976625999999669
  0
CIRCLE
  5
EF
330
1F
100
AcDbEntity
  8
0
  6
Continuous
 62
     7
370
    25
100
AcDbCircle
 10
695.3845810089
 20
1141.3811709588
 30
0.0
 40
2.976625999999669
  0
CIRCLE
  5
F0
330
1F
100
AcDbEntity
  8
0
  6
Continuous
 62
     7
370
    25
100
AcDbCircle
 10
640.9521303243
 20
1141.3811709588
 30
0.0
 40
2.976625999999669
  0
CIRCLE
  5
F1
330
1F
100
AcDbEntity
  8
0
  6
Continuous
 62
     7
370
    25
100
AcDbCircle
 10
586.5196796398
 20
1141.3811709588
 30
0.0
 40
2.976625999999669
  0
LINE
  5
F2
330
1F
100
AcDbEntity
  8
0
  6
Continuous
 62
     7
370
    25
100
AcDbLine
 10
804.2494823779
 20
1103.2811709588
 30
0.0
 11
804.2494823779
 21
1179.4811709588
 31
0.0
  0
LINE
  5
F3
330
1F
100
AcDbEntity
  8
0
  6
Continuous
 62
     7
370
    25
100
AcDbLine
 10
804.2494823779
 20
1103.2811709588
 30
0.0
 11
493.0481774946
 21
1103.2811709588
 31
0.0
  0
LINE
  5
F4
330
1F
100
AcDbEntity
  8
0
  6
Continuous
 62
     7
370
    25
100
AcDbLine
 10
493.0481774946
 20
1103.2811709588
 30
0.0
 11
462.2613790469
 21
1179.4811709588
 31
0.0
  0
LINE
  5
F5
330
1F
100
AcDbEntity
  8
0
  6
Continuous
 62
     7
370
    25
100
AcDbLine
 10
804.2494823779
 20
1179.4811709588
 30
0.0
 11
462.2613790469
 21
1179.4811709588
 31
0.0
  0
CIRCLE
  5
F6
330
1F
100
AcDbEntity
  8
0
  6
Continuous
 62
     7
370
    25
100
AcDbCircle
 10
532.0872289553
 20
1141.3811709588
 30
0.0
 40
2.976625999999669
  0
CIRCLE
  5
F7
330
1F
100
AcDbEntity
  8
0
  6
Continuous
 62
     7
370
    25
100
AcDbCircle
 10
749.8170316934
 20
1141.3811709588
 30
0.0
 40
2.976625999999669
  0
LINE
  5
F8
330
1F
100
AcDbEntity
  8
0
  6
Continuous
 62
     7
370
    25
100
AcDbLine
 10
1393.5768539652
 20
1185.0298824737
 30
0.0
 11
1393.5768539652
 21
651.6298824737
 31
0.0
  0
LINE
  5
F9
330
1F
100
AcDbEntity
  8
0
  6
Continuous
 62
     7
370
    25
100
AcDbLine
 10
1088.7768539652
 20
1185.0298824737
 30
0.0
 11
1393.5768539652
 21
1185.0298824737
 31
0.0
  0
CIRCLE
  5
FA
330
1F
100
AcDbEntity
  8
0
  6
Continuous
 62
     7
370
    25
100
AcDbCircle
 10
1126.8768539652
 20
750.0548824737
 30
0.0
 40
0.991869999999949
  0
CIRCLE
  5
FB
330
1F
100
AcDbEntity
  8
0
  6
Continuous
 62
     7
370
    25
100
AcDbCircle
 10
1355.4768539652
 20
750.0548824737
 30
0.0
 40
0.9918700000000626
  0
CIRCLE
  5
FC
330
1F
100
AcDbEntity
  8
0
  6
Continuous
 62
     7
370
    25
100
AcDbCircle
 10
1126.8768539652
 20
927.8548824737
 30
0.0
 40
0.991869999999949
  0
CIRCLE
  5
FD
330
1F
100
AcDbEntity
  8
0
  6
Continuous
 62
     7
370
    25
100
AcDbCircle
 10
1355.4768539652
 20
927.8548824737
 30
0.0
 40
0.991869999999949
  0
CIRCLE
  5
FE
330
1F
100
AcDbEntity
  8
0
  6
Continuous
 62
     7
370
    25
100
AcDbCircle
 10
1355.4768539652
 20
1105.6548824737
 30
0.0
 40
0.9918700000000626
  0
CIRCLE
  5
FF
330
1F
100
AcDbEntity
  8
0
  6
Continuous
 62
     7
370
    25
100
AcDbCircle
 10
1126.8768539652
 20
1105.6548824737
 30
0.0
 40
0.9918699999998353
  0
CIRCLE
  5
100
330
1F
100
AcDbEntity
  8
0
  6
Continuous
 62
     7
370
    25
100
AcDbCircle
 10
1374.5268539652
 20
1165.9798824737
 30
0.0
 40
2.976625999999669
  0
CIRCLE
  5
101
330
1F
100
AcDbEntity
  8
0
  6
Continuous
 62
     7
370
    25
100
AcDbCircle
 10
1247.5268539652
 20
1165.9798824737
 30
0.0
 40
2.976625999999669
  0
CIRCLE
  5
102
330
1F
100
AcDbEntity
  8
0
  6
Continuous
 62
     7
370
    25
100
AcDbCircle
 10
1120.5268539652
 20
1165.9798824737
 30
0.0
 40
2.976625999999669
  0
LINE
  5
103
330
1F
100
AcDbEntity
  8
0
  6
Continuous
 62
     7
370
    25
100
AcDbLine
 10
1393.5768539652
 20
651.6298824737
 30
0.0
 11
1088.7768539652
 21
651.6298824737
 31
0.0
  0
LINE
  5
104
330
1F
100
AcDbEntity
  8
0
  6
Continuous
 62
     7
370
    25
100
AcDbLine
 10
1088.7768539652
 20
651.6298824737
 30
0.0
 11
1088.7768539652
 21
1185.0298824737
 31
0.0
  0
CIRCLE
  5
105
330
1F
100
AcDbEntity
  8
0
  6
Continuous
 62
     7
370
    25
100
AcDbCircle
 10
1355.9079846809
 20
623.3614312632
 30
0.0
 40
2.976625999999669
  0
CIRCLE
  5
106
330
1F
100
AcDbEntity
  8
0
  6
Continuous
 62
     7
370
    25
100
AcDbCircle
 10
1108.2579846809
 20
563.0364312632
 30
0.0
 40
0.9918700000000626
  0
CIRCLE
  5
107
330
1F
100
AcDbEntity
  8
0
  6
Continuous
 62
     7
370
    25
100
AcDbCircle
 10
1336.8579846809
 20
563.0364312632
 30
0.0
 40
0.9918700000000626
  0
CIRCLE
  5
108
330
1F
100
AcDbEntity
  8
0
  6
Continuous
 62
     7
370
    25
100
AcDbCircle
 10
1336.8579846809
 20
385.2364312632
 30
0.0
 40
0.9918699999998353
  0
CIRCLE
  5
109
330
1F
100
AcDbEntity
  8
0
  6
Continuous
 62
     7
370
    25
100
AcDbCircle
 10
1108.2579846809
 20
385.2364312632
 30
0.0
 40
0.9918700000000626
  0
CIRCLE
  5
10A
330
1F
100
AcDbEntity
  8
0
  6
Continuous
 62
     7
370
    25
100
AcDbCircle
 10
1336.8579846809
 20
207.4364312632
 30
0.0
 40
0.9918700000000626
  0
CIRCLE
  5
10B
330
1F
100
AcDbEntity
  8
0
  6
Continuous
 62
     7
370
    25
100
AcDbCircle
 10
1108.2579846809
 20
207.4364312632
 30
0.0
 40
0.9918700000000626
  0
LINE
  5
10C
330
1F
100
AcDbEntity
  8
0
  6
Continuous
 62
     7
370
    25
100
AcDbLine
 10
1070.1579846809
 20
642.4114312632
 30
0.0
 11
1070.1579846809
 21
109.0114312632
 31
0.0
  0
LINE
  5
10D
330
1F
100
AcDbEntity
  8
0
  6
Continuous
 62
     7
370
    25
100
AcDbLine
 10
1374.9579846809
 20
642.4114312632
 30
0.0
 11
1070.1579846809
 21
642.4114312632
 31
0.0
  0
LINE
  5
10E
330
1F
100
AcDbEntity
  8
0
  6
Continuous
 62
     7
370
    25
100
AcDbLine
 10
1374.9579846809
 20
109.0114312632
 30
0.0
 11
1374.9579846809
 21
642.4114312632
 31
0.0
  0
LINE
  5
10F
330
1F
100
AcDbEntity
  8
0
  6
Continuous
 62
     7
370
    25
100
AcDbLine
 10
1070.1579846809
 20
109.0114312632
 30
0.0
 11
1374.9579846809
 21
109.0114312632
 31
0.0
  0
CIRCLE
  5
110
330
1F
100
AcDbEntity
  8
0
  6
Continuous
 62
     7
370
    25
100
AcDbCircle
 10
1228.9079846809
 20
623.3614312632
 30
0.0
 40
2.976625999999669
  0
CIRCLE
  5
111
330
1F
100
AcDbEntity
  8
0
  6
Continuous
 62
     7
370
    25
100
AcDbCircle
 10
1101.9079846809
 20
623.3614312632
 30
0.0
 40
2.976625999999669
  0
LINE
  5
112
330
1F
100
AcDbEntity
  8
0
  6
Continuous
 62
     7
370
    25
100
AcDbLine
 10
1186.3484764829
 20
56.7225159972
 30
0.0
 11
687.1445565032
 21
56.6785232621
 31
0.0
  0
LINE
  5
113
330
1F
100
AcDbEntity
  8
0
  6
Continuous
 62
     7
370
    25
100
AcDbLine
 10
687.141198911
 20
94.7785231141
 30
0.0
 11
687.1445565032
 21
56.6785232621
 31
0.0
  0
LINE
  5
114
330
1F
100
AcDbEntity
  8
0
  6
Continuous
 62
     7
370
    25
100
AcDbLine
 10
687.141198911
 20
94.7785231141
 30
0.0
 11
1195.1411969384
 21
94.8232910105
 31
0.0
  0
LINE
  5
115
330
1F
100
AcDbEntity
  8
0
  6
Continuous
 62
     7
370
    25
100
AcDbLine
 10
1195.1411969384
 20
94.8232910105
 30
0.0
 11
1186.3484764829
 21
56.7225159972
 31
0.0
  0
CIRCLE
  5
116
330
1F
100
AcDbEntity
  8
0
  6
Continuous
 62
     7
370
    25
100
AcDbCircle
 10
1143.8727455116
 20
75.7687728642
 30
0.0
 40
0.991870000000108
  0
CIRCLE
  5
117
330
1F
100
AcDbEntity
  8
0
  6
Continuous
 62
     7
370
    25
100
AcDbCircle
 10
1042.169161668
 20
75.7598101565
 30
0.0
 40
0.9918700000000943
  0
CIRCLE
  5
118
330
1F
100
AcDbEntity
  8
0
  6
Continuous
 62
     7
370
    25
100
AcDbCircle
 10
955.0806069922
 20
75.7521354097
 30
0.0
 40
0.9918699999998898
  0
CIRCLE
  5
119
330
1F
100
AcDbEntity
  8
0
  6
Continuous
 62
     7
370
    25
100
AcDbCircle
 10
858.1134747954
 20
75.7435901054
 30
0.0
 40
0.9918699999999036
  0
CIRCLE
  5
11A
330
1F
100
AcDbEntity
  8
0
  6
Continuous
 62
     7
370
    25
100
AcDbCircle
 10
776.465722591
 20
75.7363948335
 30
0.0
 40
0.9918699999998898
  0
CIRCLE
  5
11B
330
1F
100
AcDbEntity
  8
0
  6
Continuous
 62
     7
370
    25
100
AcDbCircle
 10
716.9171593351
 20
75.7311470699
 30
0.0
 40
0.9918700000000943
  0
LINE
  5
11C
330
1F
100
AcDbEntity
  8
0
  6
Continuous
 62
     7
370
    25
100
AcDbLine
 10
1194.0855146342
 20
50.4286057704
 30
0.0
 11
1185.3202587738
 21
12.3215030292
 31
0.0
  0
LINE
  5
11D
330
1F
100
AcDbEntity
  8
0
  6
Continuous
 62
     7
370
    25
100
AcDbLine
 10
1185.3202587738
 20
12.3215030292
 30
0.0
 11
686.1165001778
 21
11.9176936523
 31
0.0
  0
LINE
  5
11E
330
1F
100
AcDbEntity
  8
0
  6
Continuous
 62
     7
370
    25
100
AcDbLine
 10
686.1165001778
 20
11.9176936523
 30
0.0
 11
686.0856808341
 21
50.0176811873
 31
0.0
  0
LINE
  5
11F
330
1F
100
AcDbEntity
  8
0
  6
Continuous
 62
     7
370
    25
100
AcDbLine
 10
686.0856808341
 20
50.0176811873
 30
0.0
 11
1194.0855146342
 21
50.4286057704
 31
0.0
  0
CIRCLE
  5
120
330
1F
100
AcDbEntity
  8
0
  6
Continuous
 62
     7
370
    25
100
AcDbCircle
 10
1142.8308106579
 20
31.3371392529
 30
0.0
 40
0.9918699999996559
  0
CIRCLE
  5
121
330
1F
100
AcDbEntity
  8
0
  6
Continuous
 62
     7
370
    25
100
AcDbCircle
 10
1041.1272596933
 20
31.2548705463
 30
0.0
 40
0.9918700000002926
  0
CIRCLE
  5
122
330
1F
100
AcDbEntity
  8
0
  6
Continuous
 62
     7
370
    25
100
AcDbCircle
 10
954.0387331715
 20
31.1844240342
 30
0.0
 40
0.9918700000001142
  0
CIRCLE
  5
123
330
1F
100
AcDbEntity
  8
0
  6
Continuous
 62
     7
370
    25
100
AcDbCircle
 10
857.0716323225
 20
31.1059866749
 30
0.0
 40
0.9918700000001142
  0
CIRCLE
  5
124
330
1F
100
AcDbEntity
  8
0
  6
Continuous
 62
     7
370
    25
100
AcDbCircle
 10
715.8753625084
 20
30.9917720346
 30
0.0
 40
0.9918700000001142
  0
CIRCLE
  5
125
330
1F
100
AcDbEntity
  8
0
  6
Continuous
 62
     7
370
    25
100
AcDbCircle
 10
775.4239065133
 20
31.0399412642
 30
0.0
 40
0.9918700000001142
  0
LINE
  5
126
330
1F
100
AcDbEntity
  8
0
  6
Continuous
 62
     7
370
    25
100
AcDbLine
 10
1058.766226569
 20
458.899635455
 30
0.0
 11
519.0427447737
 21
458.899635455
 31
0.0
  0
LINE
  5
127
330
1F
100
AcDbEntity
  8
0
  6
Continuous
 62
     7
370
    25
100
AcDbLine
 10
519.0427447737
 20
1083.739635455
 30
0.0
 11
1058.766226569
 21
1083.739635455
 31
0.0
  0
LINE
  5
128
330
1F
100
AcDbEntity
  8
0
  6
Continuous
 62
     7
370
    25
100
AcDbLine
 10
1058.766226569
 20
873.554635455
 30
0.0
 11
1058.766226569
 21
1083.739635455
 31
0.0
  0
ARC
  5
129
330
1F
100
AcDbEntity
  8
0
  6
Continuous
 62
     7
370
    25
100
AcDbCircle
 10
1061.941226569
 20
873.554635455
 30
0.0
 40
3.175000000000068
100
AcDbArc
 50
180.0
 51
270.0
  0
LINE
  5
12A
330
1F
100
AcDbEntity
  8
0
  6
Continuous
 62
     7
370
    25
100
AcDbLine
 10
1061.941226569
 20
870.379635455
 30
0.0
 11
1077.8976016132
 21
870.379635455
 31
0.0
  0
LINE
  5
12B
330
1F
100
AcDbEntity
  8
0
  6
Continuous
 62
     7
370
    25
100
AcDbLine
 10
1077.8976016132
 20
870.379635455
 30
0.0
 11
1077.8976016132
 21
810.054635455
 31
0.0
  0
ARC
  5
12C
330
1F
100
AcDbEntity
  8
0
  6
Continuous
 62
     7
370
    25
100
AcDbCircle
 10
1081.0726016132
 20
810.054635455
 30
0.0
 40
3.175000000000409
100
AcDbArc
 50
180.0
 51
270.0
  0
LINE
  5
12D
330
1F
100
AcDbEntity
  8
0
  6
Continuous
 62
     7
370
    25
100
AcDbLine
 10
1081.0726016132
 20
806.879635455
 30
0.0
 11
1084.166226569
 21
806.879635455
 31
0.0
  0
LINE
  5
12E
330
1F
100
AcDbEntity
  8
0
  6
Continuous
 62
     7
370
    25
100
AcDbLine
 10
1084.166226569
 20
806.879635455
 30
0.0
 11
1084.166226569
 21
672.259635455
 31
0.0
  0
LINE
  5
12F
330
1F
100
AcDbEntity
  8
0
  6
Continuous
 62
     7
370
    25
100
AcDbLine
 10
1084.166226569
 20
672.259635455
 30
0.0
 11
1061.941226569
 21
672.259635455
 31
0.0
  0
ARC
  5
130
330
1F
100
AcDbEntity
  8
0
  6
Continuous
 62
     7
370
    25
100
AcDbCircle
 10
1061.941226569
 20
669.084635455
 30
0.0
 40
3.174999999999955
100
AcDbArc
 50
90.0
 51
180.0
  0
LINE
  5
131
330
1F
100
AcDbEntity
  8
0
  6
Continuous
 62
     7
370
    25
100
AcDbLine
 10
1058.766226569
 20
669.084635455
 30
0.0
 11
1058.766226569
 21
458.899635455
 31
0.0
  0
CIRCLE
  5
132
330
1F
100
AcDbEntity
  8
0
  6
Continuous
 62
     7
370
    25
100
AcDbCircle
 10
928.2812265691
 20
948.757935455
 30
0.0
 40
3.968750000000341
  0
CIRCLE
  5
133
330
1F
100
AcDbEntity
  8
0
  6
Continuous
 62
     7
370
    25
100
AcDbCircle
 10
928.2812265691
 20
890.757935455
 30
0.0
 40
3.968750000000341
  0
CIRCLE
  5
134
330
1F
100
AcDbEntity
  8
0
  6
Continuous
 62
     7
370
    25
100
AcDbCircle
 10
977.2812265691
 20
890.757935455
 30
0.0
 40
3.968750000000341
  0
CIRCLE
  5
135
330
1F
100
AcDbEntity
  8
0
  6
Continuous
 62
     7
370
    25
100
AcDbCircle
 10
977.2812265691
 20
948.757935455
 30
0.0
 40
3.968750000000341
  0
CIRCLE
  5
136
330
1F
100
AcDbEntity
  8
0
  6
Continuous
 62
     7
370
    25
100
AcDbCircle
 10
983.7092265691
 20
555.267235455
 30
0.0
 40
3.968749999999318
  0
CIRCLE
  5
137
330
1F
100
AcDbEntity
  8
0
  6
Continuous
 62
     7
370
    25
100
AcDbCircle
 10
983.7092265691
 20
625.117235455
 30
0.0
 40
3.968749999999318
  0
CIRCLE
  5
138
330
1F
100
AcDbEntity
  8
0
  6
Continuous
 62
     7
370
    25
100
AcDbCircle
 10
906.2392265691
 20
625.117235455
 30
0.0
 40
3.968749999999432
  0
CIRCLE
  5
139
330
1F
100
AcDbEntity
  8
0
  6
Continuous
 62
     7
370
    25
100
AcDbCircle
 10
906.2392265691
 20
555.267235455
 30
0.0
 40
3.968749999999432
  0
CIRCLE
  5
13A
330
1F
100
AcDbEntity
  8
0
  6
Continuous
 62
     7
370
    25
100
AcDbCircle
 10
1046.0662265689
 20
1058.339635455
 30
0.0
 40
2.97662599999876
  0
CIRCLE
  5
13B
330
1F
100
AcDbEntity
  8
0
  6
Continuous
 62
     7
370
    25
100
AcDbCircle
 10
1046.0662265689
 20
977.059635455
 30
0.0
 40
2.97662599999876
  0
CIRCLE
  5
13C
330
1F
100
AcDbEntity
  8
0
  6
Continuous
 62
     7
370
    25
100
AcDbCircle
 10
1046.0662265689
 20
895.779635455
 30
0.0
 40
2.97662599999876
  0
CIRCLE
  5
13D
330
1F
100
AcDbEntity
  8
0
  6
Continuous
 62
     7
370
    25
100
AcDbCircle
 10
998.961486779
 20
468.424635455
 30
0.0
 40
5.079999999999472
  0
CIRCLE
  5
13E
330
1F
100
AcDbEntity
  8
0
  6
Continuous
 62
     7
370
    25
100
AcDbCircle
 10
794.394463612
 20
468.424635455
 30
0.0
 40
5.080000000000496
  0
CIRCLE
  5
13F
330
1F
100
AcDbEntity
  8
0
  6
Continuous
 62
     7
370
    25
100
AcDbCircle
 10
607.9705501921
 20
468.424635455
 30
0.0
 40
5.080000000000496
  0
CIRCLE
  5
140
330
1F
100
AcDbEntity
  8
0
  6
Continuous
 62
     7
370
    25
100
AcDbCircle
 10
1071.5476016132
 20
681.784635455
 30
0.0
 40
5.080000000001291
  0
CIRCLE
  5
141
330
1F
100
AcDbEntity
  8
0
  6
Continuous
 62
     7
370
    25
100
AcDbCircle
 10
1012.3624282736
 20
681.784635455
 30
0.0
 40
5.080000000000382
  0
CIRCLE
  5
142
330
1F
100
AcDbEntity
  8
0
  6
Continuous
 62
     7
370
    25
100
AcDbCircle
 10
1012.3624282736
 20
860.8546354552
 30
0.0
 40
5.080000000000382
  0
CIRCLE
  5
143
330
1F
100
AcDbEntity
  8
0
  6
Continuous
 62
     7
370
    25
100
AcDbCircle
 10
1058.8476016132
 20
860.8546354552
 30
0.0
 40
5.080000000000382
  0
CIRCLE
  5
144
330
1F
100
AcDbEntity
  8
0
  6
Continuous
 62
     7
370
    25
100
AcDbCircle
 10
607.9705501921
 20
1074.2146354552
 30
0.0
 40
5.080000000000496
  0
CIRCLE
  5
145
330
1F
100
AcDbEntity
  8
0
  6
Continuous
 62
     7
370
    25
100
AcDbCircle
 10
794.394463612
 20
1074.2146354552
 30
0.0
 40
5.079999999999586
  0
CIRCLE
  5
146
330
1F
100
AcDbEntity
  8
0
  6
Continuous
 62
     7
370
    25
100
AcDbCircle
 10
998.961486779
 20
1074.214635455
 30
0.0
 40
5.079999999999472
  0
CIRCLE
  5
147
330
1F
100
AcDbEntity
  8
0
  6
Continuous
 62
     7
370
    25
100
AcDbCircle
 10
1046.0662265689
 20
646.859635455
 30
0.0
 40
2.97662599999876
  0
CIRCLE
  5
148
330
1F
100
AcDbEntity
  8
0
  6
Continuous
 62
     7
370
    25
100
AcDbCircle
 10
1046.0662265689
 20
565.579635455
 30
0.0
 40
2.97662599999876
  0
CIRCLE
  5
149
330
1F
100
AcDbEntity
  8
0
  6
Continuous
 62
     7
370
    25
100
AcDbCircle
 10
1046.0662265689
 20
484.299635455
 30
0.0
 40
2.97662599999876
  0
CIRCLE
  5
14A
330
1F
100
AcDbEntity
  8
0
  6
Continuous
 62
     7
370
    25
100
AcDbCircle
 10
998.961486779
 20
1074.214635455
 30
0.0
 40
0.991869999999949
  0
CIRCLE
  5
14B
330
1F
100
AcDbEntity
  8
0
  6
Continuous
 62
     7
370
    25
100
AcDbCircle
 10
998.961486779
 20
468.424635455
 30
0.0
 40
0.991869999999949
  0
CIRCLE
  5
14C
330
1F
100
AcDbEntity
  8
0
  6
Continuous
 62
     7
370
    25
100
AcDbCircle
 10
1071.5476016132
 20
681.784635455
 30
0.0
 40
0.9918699999991532
  0
CIRCLE
  5
14D
330
1F
100
AcDbEntity
  8
0
  6
Continuous
 62
     7
370
    25
100
AcDbCircle
 10
1012.3624282736
 20
860.8546354552
 30
0.0
 40
0.9918699999990395
  0
CIRCLE
  5
14E
330
1F
100
AcDbEntity
  8
0
  6
Continuous
 62
     7
370
    25
100
AcDbCircle
 10
1012.3624282736
 20
681.784635455
 30
0.0
 40
0.9918699999990395
  0
CIRCLE
  5
14F
330
1F
100
AcDbEntity
  8
0
  6
Continuous
 62
     7
370
    25
100
AcDbCircle
 10
607.9705501921
 20
468.424635455
 30
0.0
 40
0.9918699999991532
  0
CIRCLE
  5
150
330
1F
100
AcDbEntity
  8
0
  6
Continuous
 62
     7
370
    25
100
AcDbCircle
 10
607.9705501921
 20
1074.2146354552
 30
0.0
 40
0.9918699999991532
  0
CIRCLE
  5
151
330
1F
100
AcDbEntity
  8
0
  6
Continuous
 62
     7
370
    25
100
AcDbCircle
 10
794.394463612
 20
468.424635455
 30
0.0
 40
0.9918700000000626
  0
CIRCLE
  5
152
330
1F
100
AcDbEntity
  8
0
  6
Continuous
 62
     7
370
    25
100
AcDbCircle
 10
1058.8476016132
 20
860.8546354552
 30
0.0
 40
0.9918700000000626
  0
CIRCLE
  5
153
330
1F
100
AcDbEntity
  8
0
  6
Continuous
 62
     7
370
    25
100
AcDbCircle
 10
794.394463612
 20
1074.2146354552
 30
0.0
 40
0.9918700000000626
  0
LINE
  5
154
330
1F
100
AcDbEntity
  8
0
  6
Continuous
 62
     7
370
    25
100
AcDbLine
 10
514.6447057327
 20
458.899635455
 30
0.0
 11
514.6447057327
 21
1083.739635455
 31
0.0
  0
LINE
  5
155
330
1F
100
AcDbEntity
  8
0
  6
Continuous
 62
     7
370
    25
100
AcDbLine
 10
514.6447057327
 20
1083.739635455
 30
0.0
 11
519.0427447737
 21
1083.739635455
 31
0.0
  0
LINE
  5
156
330
1F
100
AcDbEntity
  8
0
  6
Continuous
 62
     7
370
    25
100
AcDbLine
 10
519.0427447737
 20
458.899635455
 30
0.0
 11
514.6447057327
 21
458.899635455
 31
0.0
  0
LINE
  5
157
330
1F
100
AcDbEntity
  8
0
  6
Continuous
 62
     7
370
    25
100
AcDbLine
 10
1412.6430198888
 20
446.5973113726
 30
0.0
 11
1389.3472320276
 21
469.8930992337
 31
0.0
  0
LINE
  5
158
330
1F
100
AcDbEntity
  8
0
  6
Continuous
 62
     7
370
    25
100
AcDbLine
 10
1439.0346323184
 20
1019.9836130115
 30
0.0
 11
1389.3472320276
 21
469.8930992337
 31
0.0
  0
LINE
  5
159
330
1F
100
AcDbEntity
  8
0
  6
Continuous
 62
     7
370
    25
100
AcDbLine
 10
1995.9582543863
 20
1188.539474857
 30
0.0
 11
1439.0346323184
 21
1019.9836130115
 31
0.0
  0
LINE
  5
15A
330
1F
100
AcDbEntity
  8
0
  6
Continuous
 62
     7
370
    25
100
AcDbLine
 10
1540.0480747962
 20
902.9387662313
 30
0.0
 11
2061.1972739114
 21
1060.6673109118
 31
0.0
  0
ARC
  5
15B
330
1F
100
AcDbEntity
  8
0
  6
Continuous
 62
     7
370
    25
100
AcDbCircle
 10
1530.3708678709
 20
890.3543595657
 30
0.0
 40
15.875000000002
100
AcDbArc
 50
52.4402930808
 51
268.7888342319
  0
LINE
  5
15C
330
1F
100
AcDbEntity
  8
0
  6
Continuous
 62
     7
370
    25
100
AcDbLine
 10
1530.0353139294
 20
446.5973113726
 30
0.0
 11
1530.0353139294
 21
874.4829063067
 31
0.0
  0
LINE
  5
15D
330
1F
100
AcDbEntity
  8
0
  6
Continuous
 62
     7
370
    25
100
AcDbLine
 10
1412.6430198888
 20
446.5973113726
 30
0.0
 11
1530.0353139294
 21
446.5973113726
 31
0.0
  0
CIRCLE
  5
15E
330
1F
100
AcDbEntity
  8
0
  6
Continuous
 62
     7
370
    25
100
AcDbCircle
 10
1841.6449286402
 20
1020.7564763873
 30
0.0
 40
5.079999999999927
  0
CIRCLE
  5
15F
330
1F
100
AcDbEntity
  8
0
  6
Continuous
 62
     7
370
    25
100
AcDbCircle
 10
1627.5871662616
 20
955.9707693482
 30
0.0
 40
5.080000000000155
  0
CIRCLE
  5
160
330
1F
100
AcDbEntity
  8
0
  6
Continuous
 62
     7
370
    25
100
AcDbCircle
 10
1815.4325311571
 20
1107.3645788263
 30
0.0
 40
5.079999999999927
  0
CIRCLE
  5
161
330
1F
100
AcDbEntity
  8
0
  6
Continuous
 62
     7
370
    25
100
AcDbCircle
 10
1601.3747687784
 20
1042.5788717871
 30
0.0
 40
5.080000000000155
  0
CIRCLE
  5
162
330
1F
100
AcDbEntity
  8
0
  6
Continuous
 62
     7
370
    25
100
AcDbCircle
 10
1567.9472138884
 20
1032.4618465782
 30
0.0
 40
5.079999999999927
  0
CIRCLE
  5
163
330
1F
100
AcDbEntity
  8
0
  6
Continuous
 62
     7
370
    25
100
AcDbCircle
 10
1594.1596113716
 20
945.8537441393
 30
0.0
 40
5.079999999999927
  0
CIRCLE
  5
164
330
1F
100
AcDbEntity
  8
0
  6
Continuous
 62
     7
370
    25
100
AcDbCircle
 10
1449.2843427793
 20
852.2543595657
 30
0.0
 40
5.079999999999927
  0
CIRCLE
  5
165
330
1F
100
AcDbEntity
  8
0
  6
Continuous
 62
     7
370
    25
100
AcDbCircle
 10
1504.6353139294
 20
852.2543595657
 30
0.0
 40
5.080000000000155
  0
CIRCLE
  5
166
330
1F
100
AcDbEntity
  8
0
  6
Continuous
 62
     7
370
    25
100
AcDbCircle
 10
1428.7844352626
 20
484.6973113726
 30
0.0
 40
5.079999999999927
  0
CIRCLE
  5
167
330
1F
100
AcDbEntity
  8
0
  6
Continuous
 62
     7
370
    25
100
AcDbCircle
 10
1504.6353139294
 20
484.6973113726
 30
0.0
 40
5.080000000000155
  0
LINE
  5
168
330
1F
100
AcDbEntity
  8
0
  6
Continuous
 62
     7
370
    25
100
AcDbLine
 10
2061.1972739114
 20
1060.6673109118
 30
0.0
 11
2027.6270399127
 21
1171.5863623617
 31
0.0
  0
LINE
  5
169
330
1F
100
AcDbEntity
  8
0
  6
Continuous
 62
     7
370
    25
100
AcDbLine
 10
1995.9582543863
 20
1188.539474857
 30
0.0
 11
2027.6270399127
 21
1171.5863623617
 31
0.0
  0
CIRCLE
  5
16A
330
1F
100
AcDbEntity
  8
0
  6
Continuous
 62
     7
370
    25
100
AcDbCircle
 10
1815.4325311571
 20
1107.3645788263
 30
0.0
 40
1.587500000000091
  0
CIRCLE
  5
16B
330
1F
100
AcDbEntity
  8
0
  6
Continuous
 62
     7
370
    25
100
AcDbCircle
 10
1601.3747687784
 20
1042.5788717871
 30
0.0
 40
1.587500000000091
  0
CIRCLE
  5
16C
330
1F
100
AcDbEntity
  8
0
  6
Continuous
 62
     7
370
    25
100
AcDbCircle
 10
1627.5871662616
 20
955.9707693482
 30
0.0
 40
1.587500000000091
  0
CIRCLE
  5
16D
330
1F
100
AcDbEntity
  8
0
  6
Continuous
 62
     7
370
    25
100
AcDbCircle
 10
1594.1596113716
 20
945.8537441393
 30
0.0
 40
1.587500000000091
  0
CIRCLE
  5
16E
330
1F
100
AcDbEntity
  8
0
  6
Continuous
 62
     7
370
    25
100
AcDbCircle
 10
1567.9472138884
 20
1032.4618465782
 30
0.0
 40
1.587500000000091
  0
CIRCLE
  5
16F
330
1F
100
AcDbEntity
  8
0
  6
Continuous
 62
     7
370
    25
100
AcDbCircle
 10
1504.6353139294
 20
484.6973113726
 30
0.0
 40
1.587500000000091
  0
CIRCLE
  5
170
330
1F
100
AcDbEntity
  8
0
  6
Continuous
 62
     7
370
    25
100
AcDbCircle
 10
1841.6449286402
 20
1020.7564763873
 30
0.0
 40
1.587499999999864
  0
CIRCLE
  5
171
330
1F
100
AcDbEntity
  8
0
  6
Continuous
 62
     7
370
    25
100
AcDbCircle
 10
1428.7844352626
 20
484.6973113726
 30
0.0
 40
1.587500000000091
  0
CIRCLE
  5
172
330
1F
100
AcDbEntity
  8
0
  6
Continuous
 62
     7
370
    25
100
AcDbCircle
 10
1504.6353139294
 20
852.2543595657
 30
0.0
 40
1.587500000000091
  0
CIRCLE
  5
173
330
1F
100
AcDbEntity
  8
0
  6
Continuous
 62
     7
370
    25
100
AcDbCircle
 10
1449.2843427793
 20
852.2543595657
 30
0.0
 40
1.587500000000091
  0
LINE
  5
174
330
1F
100
AcDbEntity
  8
0
  6
Continuous
 62
     7
370
    25
100
AcDbLine
 10
2145.9579425862
 20
1073.105802213
 30
0.0
 11
1589.0343205183
 21
904.5499403674
 31
0.0
  0
LINE
  5
175
330
1F
100
AcDbEntity
  8
0
  6
Continuous
 62
     7
370
    25
100
AcDbLine
 10
2177.6267281126
 20
1056.1526897176
 30
0.0
 11
2145.9579425862
 21
1073.105802213
 31
0.0
  0
LINE
  5
176
330
1F
100
AcDbEntity
  8
0
  6
Continuous
 62
     7
370
    25
100
AcDbLine
 10
2211.1969621113
 20
945.2336382678
 30
0.0
 11
2177.6267281126
 21
1056.1526897176
 31
0.0
  0
LINE
  5
177
330
1F
100
AcDbEntity
  8
0
  6
Continuous
 62
     7
370
    25
100
AcDbLine
 10
1690.0477629961
 20
787.5050935872
 30
0.0
 11
2211.1969621113
 21
945.2336382678
 31
0.0
  0
ARC
  5
178
330
1F
100
AcDbEntity
  8
0
  6
Continuous
 62
     7
370
    25
100
AcDbCircle
 10
1680.3705560708
 20
774.9206869217
 30
0.0
 40
15.87500000000086
100
AcDbArc
 50
52.4402930808
 51
268.7888342319
  0
LINE
  5
179
330
1F
100
AcDbEntity
  8
0
  6
Continuous
 62
     7
370
    25
100
AcDbLine
 10
1680.0350021292
 20
331.1636387285
 30
0.0
 11
1680.0350021292
 21
759.0492336627
 31
0.0
  0
LINE
  5
17A
330
1F
100
AcDbEntity
  8
0
  6
Continuous
 62
     7
370
    25
100
AcDbLine
 10
1539.3469202275
 20
354.4594265897
 30
0.0
 11
1562.6427080887
 21
331.1636387285
 31
0.0
  0
LINE
  5
17B
330
1F
100
AcDbEntity
  8
0
  6
Continuous
 62
     7
370
    25
100
AcDbLine
 10
1589.0343205183
 20
904.5499403674
 30
0.0
 11
1539.3469202275
 21
354.4594265897
 31
0.0
  0
CIRCLE
  5
17C
330
1F
100
AcDbEntity
  8
0
  6
Continuous
 62
     7
370
    25
100
AcDbCircle
 10
1991.6446168401
 20
905.3228037433
 30
0.0
 40
1.587500000000091
  0
CIRCLE
  5
17D
330
1F
100
AcDbEntity
  8
0
  6
Continuous
 62
     7
370
    25
100
AcDbCircle
 10
1777.5868544614
 20
840.5370967041
 30
0.0
 40
1.587500000000091
  0
CIRCLE
  5
17E
330
1F
100
AcDbEntity
  8
0
  6
Continuous
 62
     7
370
    25
100
AcDbCircle
 10
1965.432219357
 20
991.9309061822
 30
0.0
 40
1.587499999999864
  0
CIRCLE
  5
17F
330
1F
100
AcDbEntity
  8
0
  6
Continuous
 62
     7
370
    25
100
AcDbCircle
 10
1751.3744569783
 20
927.1451991431
 30
0.0
 40
1.587500000000091
  0
CIRCLE
  5
180
330
1F
100
AcDbEntity
  8
0
  6
Continuous
 62
     7
370
    25
100
AcDbCircle
 10
1717.9469020883
 20
917.0281739342
 30
0.0
 40
1.587499999999864
  0
CIRCLE
  5
181
330
1F
100
AcDbEntity
  8
0
  6
Continuous
 62
     7
370
    25
100
AcDbCircle
 10
1744.1592995715
 20
830.4200714953
 30
0.0
 40
1.587500000000091
  0
CIRCLE
  5
182
330
1F
100
AcDbEntity
  8
0
  6
Continuous
 62
     7
370
    25
100
AcDbCircle
 10
1599.2840309792
 20
736.8206869217
 30
0.0
 40
1.587500000000091
  0
CIRCLE
  5
183
330
1F
100
AcDbEntity
  8
0
  6
Continuous
 62
     7
370
    25
100
AcDbCircle
 10
1654.6350021292
 20
736.8206869217
 30
0.0
 40
1.587499999999864
  0
CIRCLE
  5
184
330
1F
100
AcDbEntity
  8
0
  6
Continuous
 62
     7
370
    25
100
AcDbCircle
 10
1578.7841234625
 20
369.2636387285
 30
0.0
 40
1.587500000000091
  0
CIRCLE
  5
185
330
1F
100
AcDbEntity
  8
0
  6
Continuous
 62
     7
370
    25
100
AcDbCircle
 10
1654.6350021292
 20
369.2636387285
 30
0.0
 40
1.587500000000091
  0
LINE
  5
186
330
1F
100
AcDbEntity
  8
0
  6
Continuous
 62
     7
370
    25
100
AcDbLine
 10
1562.6427080887
 20
331.1636387285
 30
0.0
 11
1680.0350021292
 21
331.1636387285
 31
0.0
  0
LINE
  5
187
330
1F
100
AcDbEntity
  8
0
  6
Continuous
 62
     7
370
    25
100
AcDbLine
 10
1736.3514368434
 20
184.5896223757
 30
0.0
 11
1853.2303766328
 21
195.5561229026
 31
0.0
  0
LINE
  5
188
330
1F
100
AcDbEntity
  8
0
  6
Continuous
 62
     7
370
    25
100
AcDbLine
 10
1710.9812855829
 20
205.6073027702
 30
0.0
 11
1736.3514368434
 21
184.5896223757
 31
0.0
  0
LINE
  5
189
330
1F
100
AcDbEntity
  8
0
  6
Continuous
 62
     7
370
    25
100
AcDbLine
 10
1709.0632956145
 20
757.9339564909
 30
0.0
 11
1710.9812855829
 21
205.6073027702
 31
0.0
  0
LINE
  5
18A
330
1F
100
AcDbEntity
  8
0
  6
Continuous
 62
     7
370
    25
100
AcDbLine
 10
1850.167015422
 20
815.5143373205
 30
0.0
 11
1709.0632956145
 21
757.9339564909
 31
0.0
  0
LINE
  5
18B
330
1F
100
AcDbEntity
  8
0
  6
Continuous
 62
     7
370
    25
100
AcDbLine
 10
1903.5489636313
 20
684.6990951428
 30
0.0
 11
1850.167015422
 21
815.5143373205
 31
0.0
  0
LINE
  5
18C
330
1F
100
AcDbEntity
  8
0
  6
Continuous
 62
     7
370
    25
100
AcDbLine
 10
1820.5690511001
 20
650.8373729198
 30
0.0
 11
1903.5489636313
 21
684.6990951428
 31
0.0
  0
ARC
  5
18D
330
1F
100
AcDbEntity
  8
0
  6
Continuous
 62
     7
370
    25
100
AcDbCircle
 10
1812.1097668572
 20
637.4039766591
 30
0.0
 40
15.87500000000055
100
AcDbArc
 50
57.8005401418
 51
274.1490812928
  0
LINE
  5
18E
330
1F
100
AcDbEntity
  8
0
  6
Continuous
 62
     7
370
    25
100
AcDbLine
 10
1853.2303766328
 20
195.5561229026
 30
0.0
 11
1813.2583525688
 21
621.5705823337
 31
0.0
  0
CIRCLE
  5
18F
330
1F
100
AcDbEntity
  8
0
  6
Continuous
 62
     7
370
    25
100
AcDbCircle
 10
1870.4349468585
 20
698.6196516391
 30
0.0
 40
1.587499999999975
  0
CIRCLE
  5
190
330
1F
100
AcDbEntity
  8
0
  6
Continuous
 62
     7
370
    25
100
AcDbCircle
 10
1734.9370402495
 20
591.8956826967
 30
0.0
 40
1.587500000000107
  0
CIRCLE
  5
191
330
1F
100
AcDbEntity
  8
0
  6
Continuous
 62
     7
370
    25
100
AcDbCircle
 10
1790.0459626639
 20
597.0664348252
 30
0.0
 40
1.587500000000081
  0
CIRCLE
  5
192
330
1F
100
AcDbEntity
  8
0
  6
Continuous
 62
     7
370
    25
100
AcDbCircle
 10
1748.8630574529
 20
224.0309032879
 30
0.0
 40
1.587499999999974
  0
CIRCLE
  5
193
330
1F
100
AcDbEntity
  8
0
  6
Continuous
 62
     7
370
    25
100
AcDbCircle
 10
1824.3822416815
 20
231.1167065569
 30
0.0
 40
1.587500000000001
  0
CIRCLE
  5
194
330
1F
100
AcDbEntity
  8
0
  6
Continuous
 62
     7
370
    25
100
AcDbCircle
 10
1836.2464589257
 20
782.4003205476
 30
0.0
 40
1.587499999999975
  0
LINE
  5
195
330
1F
100
AcDbEntity
  8
0
  6
Continuous
 62
     7
370
    25
100
AcDbLine
 10
1958.9294102616
 20
651.9198087631
 30
0.0
 11
1841.974009066
 21
641.8012697744
 31
0.0
  0
LINE
  5
196
330
1F
100
AcDbEntity
  8
0
  6
Continuous
 62
     7
370
    25
100
AcDbLine
 10
1984.1464620061
 20
630.7186822491
 30
0.0
 11
1958.9294102616
 21
651.9198087631
 31
0.0
  0
LINE
  5
197
330
1F
100
AcDbEntity
  8
0
  6
Continuous
 62
     7
370
    25
100
AcDbLine
 10
1982.0586118077
 20
78.3926444983
 30
0.0
 11
1984.1464620061
 21
630.7186822491
 31
0.0
  0
LINE
  5
198
330
1F
100
AcDbEntity
  8
0
  6
Continuous
 62
     7
370
    25
100
AcDbLine
 10
1840.5409971129
 20
21.8371431648
 30
0.0
 11
1982.0586118077
 21
78.3926444983
 31
0.0
  0
LINE
  5
199
330
1F
100
AcDbEntity
  8
0
  6
Continuous
 62
     7
370
    25
100
AcDbLine
 10
1788.1092000382
 20
153.0361013778
 30
0.0
 11
1840.5409971129
 21
21.8371431648
 31
0.0
  0
LINE
  5
19A
330
1F
100
AcDbEntity
  8
0
  6
Continuous
 62
     7
370
    25
100
AcDbLine
 10
1871.3325148099
 20
186.2951151034
 30
0.0
 11
1788.1092000382
 21
153.0361013778
 31
0.0
  0
ARC
  5
19B
330
1F
100
AcDbEntity
  8
0
  6
Continuous
 62
     7
370
    25
100
AcDbCircle
 10
1879.889003267
 20
199.6668064805
 30
0.0
 40
15.8750000000005
100
AcDbArc
 50
237.3849946393
 51
93.7335357903
  0
LINE
  5
19C
330
1F
100
AcDbEntity
  8
0
  6
Continuous
 62
     7
370
    25
100
AcDbLine
 10
1841.974009066
 20
641.8012697744
 30
0.0
 11
1878.8552806216
 21
215.5081145859
 31
0.0
  0
CIRCLE
  5
19D
330
1F
100
AcDbEntity
  8
0
  6
Continuous
 62
     7
370
    25
100
AcDbCircle
 10
1821.1213860429
 20
138.8757491509
 30
0.0
 40
1.587499999999879
  0
CIRCLE
  5
19E
330
1F
100
AcDbEntity
  8
0
  6
Continuous
 62
     7
370
    25
100
AcDbCircle
 10
1957.3897524647
 20
244.6142026812
 30
0.0
 40
1.587499999999879
  0
CIRCLE
  5
19F
330
1F
100
AcDbEntity
  8
0
  6
Continuous
 62
     7
370
    25
100
AcDbCircle
 10
1902.2447781687
 20
239.8432680622
 30
0.0
 40
1.587500000000073
  0
CIRCLE
  5
1A0
330
1F
100
AcDbEntity
  8
0
  6
Continuous
 62
     7
370
    25
100
AcDbCircle
 10
1946.1320679172
 20
612.5703066165
 30
0.0
 40
1.587500000000112
  0
CIRCLE
  5
1A1
330
1F
100
AcDbEntity
  8
0
  6
Continuous
 62
     7
370
    25
100
AcDbCircle
 10
1870.5634795527
 20
606.0323981499
 30
0.0
 40
1.587500000000325
  0
CIRCLE
  5
1A2
330
1F
100
AcDbEntity
  8
0
  6
Continuous
 62
     7
370
    25
100
AcDbCircle
 10
1854.7013493397
 20
54.8493291696
 30
0.0
 40
1.587500000000067
  0
LINE
  5
1A3
330
1F
100
AcDbEntity
  8
0
  6
Continuous
 62
     7
370
    25
100
AcDbLine
 10
1030.5029764077
 20
448.8841462249
 30
0.0
 11
889.215114294
 21
448.8841462249
 31
0.0
  0
LINE
  5
1A4
330
1F
100
AcDbEntity
  8
0
  6
Continuous
 62
     7
370
    25
100
AcDbLine
 10
1030.5029764077
 20
117.9341462369
 30
0.0
 11
1030.5029764077
 21
448.8841462249
 31
0.0
  0
LINE
  5
1A5
330
1F
100
AcDbEntity
  8
0
  6
Continuous
 62
     7
370
    25
100
AcDbLine
 10
889.215114294
 20
117.9341462369
 30
0.0
 11
1030.5029764077
 21
117.9341462369
 31
0.0
  0
LINE
  5
1A6
330
1F
100
AcDbEntity
  8
0
  6
Continuous
 62
     7
370
    25
100
AcDbLine
 10
889.215114294
 20
448.8841462249
 30
0.0
 11
889.215114294
 21
117.9341462369
 31
0.0
  0
CIRCLE
  5
1A7
330
1F
100
AcDbEntity
  8
0
  6
Continuous
 62
     7
370
    25
100
AcDbCircle
 10
992.4029764077
 20
283.4091462309
 30
0.0
 40
3.174999999999841
  0
LINE
  5
1A8
330
1F
100
AcDbEntity
  8
0
  6
Continuous
 62
     7
370
    25
100
AcDbLine
 10
2387.3690429517
 20
421.5858791918
 30
0.0
 11
2246.0811808381
 21
421.5858791918
 31
0.0
  0
LINE
  5
1A9
330
1F
100
AcDbEntity
  8
0
  6
Continuous
 62
     7
370
    25
100
AcDbLine
 10
2387.3690429517
 20
90.6358792038
 30
0.0
 11
2387.3690429517
 21
421.5858791918
 31
0.0
  0
LINE
  5
1AA
330
1F
100
AcDbEntity
  8
0
  6
Continuous
 62
     7
370
    25
100
AcDbLine
 10
2246.0811808381
 20
90.6358792038
 30
0.0
 11
2387.3690429517
 21
90.6358792038
 31
0.0
  0
LINE
  5
1AB
330
1F
100
AcDbEntity
  8
0
  6
Continuous
 62
     7
370
    25
100
AcDbLine
 10
2246.0811808381
 20
421.5858791918
 30
0.0
 11
2246.0811808381
 21
90.6358792038
 31
0.0
  0
CIRCLE
  5
1AC
330
1F
100
AcDbEntity
  8
0
  6
Continuous
 62
     7
370
    25
100
AcDbCircle
 10
2349.2690429517
 20
256.1108791978
 30
0.0
 40
3.175000000000182
  0
ARC
  5
1AD
330
1F
100
AcDbEntity
  8
0
  6
Continuous
 62
     7
370
    25
100
AcDbCircle
 10
2260.9939715397
 20
728.6310377
 30
0.0
 40
6.350000000001462
100
AcDbArc
 50
269.8587027394
 51
318.0483878436
  0
LINE
  5
1AE
330
1F
100
AcDbEntity
  8
0
  6
Continuous
 62
     7
370
    25
100
AcDbLine
 10
2152.3697885413
 20
722.5488972944
 30
0.0
 11
2260.9783118052
 21
722.2810570092
 31
0.0
  0
LINE
  5
1AF
330
1F
100
AcDbEntity
  8
0
  6
Continuous
 62
     7
370
    25
100
AcDbLine
 10
2152.504500971
 20
777.1744292461
 30
0.0
 11
2152.3697885413
 21
722.5488972944
 31
0.0
  0
LINE
  5
1B0
330
1F
100
AcDbEntity
  8
0
  6
Continuous
 62
     7
370
    25
100
AcDbLine
 10
2180.5369683564
 20
777.1052981703
 30
0.0
 11
2152.504500971
 21
777.1744292461
 31
0.0
  0
ARC
  5
1B1
330
1F
100
AcDbEntity
  8
0
  6
Continuous
 62
     7
370
    25
100
AcDbCircle
 10
2180.5447982236
 20
780.2802885156
 30
0.0
 40
3.175000000000832
100
AcDbArc
 50
269.8587027395
 51
8.8587027394
  0
LINE
  5
1B2
330
1F
100
AcDbEntity
  8
0
  6
Continuous
 62
     7
370
    25
100
AcDbLine
 10
2171.0863616611
 20
861.5838611956
 30
0.0
 11
2183.6819240303
 21
780.7692329632
 31
0.0
  0
LINE
  5
1B3
330
1F
100
AcDbEntity
  8
0
  6
Continuous
 62
     7
370
    25
100
AcDbLine
 10
2180.7172055478
 20
902.8352360106
 30
0.0
 11
2171.0863616611
 21
861.5838611956
 31
0.0
  0
LINE
  5
1B4
330
1F
100
AcDbEntity
  8
0
  6
Continuous
 62
     7
370
    25
100
AcDbLine
 10
2230.4226970738
 20
902.7126569291
 30
0.0
 11
2180.7172055478
 21
902.8352360106
 31
0.0
  0
ARC
  5
1B5
330
1F
100
AcDbEntity
  8
0
  6
Continuous
 62
     7
370
    25
100
AcDbCircle
 10
2230.4540165428
 20
915.4126183106
 30
0.0
 40
12.70000000000109
100
AcDbArc
 50
269.8587027394
 51
359.8587027394
  0
LINE
  5
1B6
330
1F
100
AcDbEntity
  8
0
  6
Continuous
 62
     7
370
    25
100
AcDbLine
 10
2243.8317792042
 20
1190.2279151162
 30
0.0
 11
2243.1539779243
 21
915.3812988415
 31
0.0
  0
LINE
  5
1B7
330
1F
100
AcDbEntity
  8
0
  6
Continuous
 62
     7
370
    25
100
AcDbLine
 10
2385.1192116856
 20
1189.8794851306
 30
0.0
 11
2243.8317792042
 21
1190.2279151162
 31
0.0
  0
LINE
  5
1B8
330
1F
100
AcDbEntity
  8
0
  6
Continuous
 62
     7
370
    25
100
AcDbLine
 10
2383.2748077858
 20
441.9786092783
 30
0.0
 11
2385.1192116856
 21
1189.8794851306
 31
0.0
  0
LINE
  5
1B9
330
1F
100
AcDbEntity
  8
0
  6
Continuous
 62
     7
370
    25
100
AcDbLine
 10
2267.3872980673
 20
442.2644003259
 30
0.0
 11
2383.2748077858
 21
441.9786092783
 31
0.0
  0
LINE
  5
1BA
330
1F
100
AcDbEntity
  8
0
  6
Continuous
 62
     7
370
    25
100
AcDbLine
 10
2268.0602979299
 20
715.1640546536
 30
0.0
 11
2267.3872980673
 21
442.2644003259
 31
0.0
  0
ARC
  5
1BB
330
1F
100
AcDbEntity
  8
0
  6
Continuous
 62
     7
370
    25
100
AcDbCircle
 10
2274.4102786207
 20
715.1483949191
 30
0.0
 40
6.350000000001883
100
AcDbArc
 50
131.6690176352
 51
179.8587027394
  0
ARC
  5
1BC
330
1F
100
AcDbEntity
  8
0
  6
Continuous
 62
     7
370
    25
100
AcDbCircle
 10
2268.0778060454
 20
722.2635488938
 30
0.0
 40
3.174999999998891
100
AcDbArc
 50
311.6690176352
 51
138.0483878437
  0
CIRCLE
  5
1BD
330
1F
100
AcDbEntity
  8
0
  6
Continuous
 62
     7
370
    25
100
AcDbCircle
 10
2193.6681526328
 20
731.9720800562
 30
0.0
 40
6.350000000000386
  0
CIRCLE
  5
1BE
330
1F
100
AcDbEntity
  8
0
  6
Continuous
 62
     7
370
    25
100
AcDbCircle
 10
2165.0932395245
 20
732.0425488615
 30
0.0
 40
6.349999999999954
  0
CIRCLE
  5
1BF
330
1F
100
AcDbEntity
  8
0
  6
Continuous
 62
     7
370
    25
100
AcDbCircle
 10
2165.1809727507
 20
767.618138741
 30
0.0
 40
6.350000000000422
  0
CIRCLE
  5
1C0
330
1F
100
AcDbEntity
  8
0
  6
Continuous
 62
     7
370
    25
100
AcDbCircle
 10
2193.755885859
 20
767.5476699357
 30
0.0
 40
6.350000000000386
  0
CIRCLE
  5
1C1
330
1F
100
AcDbEntity
  8
0
  6
Continuous
 62
     7
370
    25
100
AcDbCircle
 10
2193.6977705045
 20
790.6516495168
 30
0.0
 40
6.349999999999954
  0
CIRCLE
  5
1C2
330
1F
100
AcDbEntity
  8
0
  6
Continuous
 62
     7
370
    25
100
AcDbCircle
 10
2256.0750488101
 20
790.4978204479
 30
0.0
 40
6.349999999999954
  0
CIRCLE
  5
1C3
330
1F
100
AcDbEntity
  8
0
  6
Continuous
 62
     7
370
    25
100
AcDbCircle
 10
2256.228877879
 20
852.8750987536
 30
0.0
 40
6.349999999999954
  0
CIRCLE
  5
1C4
330
1F
100
AcDbEntity
  8
0
  6
Continuous
 62
     7
370
    25
100
AcDbCircle
 10
2193.8515995734
 20
853.0289278225
 30
0.0
 40
6.349999999999991
  0
CIRCLE
  5
1C5
330
1F
100
AcDbEntity
  8
0
  6
Continuous
 62
     7
370
    25
100
AcDbCircle
 10
2188.2702200134
 20
893.2915805016
 30
0.0
 40
6.350000000000386
  0
CIRCLE
  5
1C6
330
1F
100
AcDbEntity
  8
0
  6
Continuous
 62
     7
370
    25
100
AcDbCircle
 10
2183.0843809975
 20
871.079301755
 30
0.0
 40
6.350000000000386
  0
CIRCLE
  5
1C7
330
1F
100
AcDbEntity
  8
0
  6
Continuous
 62
     7
370
    25
100
AcDbCircle
 10
2218.7347064434
 20
870.9913842229
 30
0.0
 40
6.350000000000422
  0
CIRCLE
  5
1C8
330
1F
100
AcDbEntity
  8
0
  6
Continuous
 62
     7
370
    25
100
AcDbCircle
 10
2218.7895155142
 20
893.2163166405
 30
0.0
 40
6.350000000000386
  0
CIRCLE
  5
1C9
330
1F
100
AcDbEntity
  8
0
  6
Continuous
 62
     7
370
    25
100
AcDbCircle
 10
2350.91028107
 20
696.2176665737
 30
0.0
 40
6.349999999999954
  0
CIRCLE
  5
1CA
330
1F
100
AcDbEntity
  8
0
  6
Continuous
 62
     7
370
    25
100
AcDbCircle
 10
2350.440489035
 20
505.7182458516
 30
0.0
 40
6.349999999999523
  0
CIRCLE
  5
1CB
330
1F
100
AcDbEntity
  8
0
  6
Continuous
 62
     7
370
    25
100
AcDbCircle
 10
2364.2718449171
 20
461.075530554
 30
0.0
 40
1.587499999999674
  0
CIRCLE
  5
1CC
330
1F
100
AcDbEntity
  8
0
  6
Continuous
 62
     7
370
    25
100
AcDbCircle
 10
2286.4842193431
 20
461.2673631946
 30
0.0
 40
1.587499999999674
  0
CIRCLE
  5
1CD
330
1F
100
AcDbEntity
  8
0
  6
Continuous
 62
     7
370
    25
100
AcDbCircle
 10
2358.8105065588
 20
821.4332926055
 30
0.0
 40
1.587500000000123
  0
CIRCLE
  5
1CE
330
1F
100
AcDbEntity
  8
0
  6
Continuous
 62
     7
370
    25
100
AcDbCircle
 10
2224.9633241918
 20
821.7633741352
 30
0.0
 40
1.587500000000123
  0
CIRCLE
  5
1CF
330
1F
100
AcDbEntity
  8
0
  6
Continuous
 62
     7
370
    25
100
AcDbCircle
 10
2262.8347420729
 20
1171.1309938405
 30
0.0
 40
1.587500000000123
  0
CIRCLE
  5
1D0
330
1F
100
AcDbEntity
  8
0
  6
Continuous
 62
     7
370
    25
100
AcDbCircle
 10
2366.0222904099
 20
1170.8765222619
 30
0.0
 40
1.587500000000123
  0
CIRCLE
  5
1D1
330
1F
100
AcDbEntity
  8
0
  6
Continuous
 62
     7
370
    25
100
AcDbCircle
 10
2286.8511904245
 20
610.0731607003
 30
0.0
 40
1.587500000000123
  0
CIRCLE
  5
1D2
330
1F
100
AcDbEntity
  8
0
  6
Continuous
 62
     7
370
    25
100
AcDbCircle
 10
2286.9729232819
 20
659.4355105973
 30
0.0
 40
1.587499999999981
  0
CIRCLE
  5
1D3
330
1F
100
AcDbEntity
  8
0
  6
Continuous
 62
     7
370
    25
100
AcDbCircle
 10
2286.7294575671
 20
560.7108108032
 30
0.0
 40
1.587500000000015
  0
CIRCLE
  5
1D4
330
1F
100
AcDbEntity
  8
0
  6
Continuous
 62
     7
370
    25
100
AcDbCircle
 10
2286.6077247097
 20
511.3484609061
 30
0.0
 40
1.587500000000069
  0
CIRCLE
  5
1D5
330
1F
100
AcDbEntity
  8
0
  6
Continuous
 62
     7
370
    25
100
AcDbCircle
 10
1456.2565409792
 20
34.1969904482
 30
0.0
 40
3.174999999999955
  0
CIRCLE
  5
1D6
330
1F
100
AcDbEntity
  8
0
  6
Continuous
 62
     7
370
    25
100
AcDbCircle
 10
1537.1918249153
 20
166.9094904482
 30
0.0
 40
2.457449999999881
  0
LINE
  5
1D7
330
1F
100
AcDbEntity
  8
0
  6
Continuous
 62
     7
370
    25
100
AcDbLine
 10
1681.9690409672
 20
204.1969904482
 30
0.0
 11
1681.9690409672
 21
46.8969904482
 31
0.0
  0
LINE
  5
1D8
330
1F
100
AcDbEntity
  8
0
  6
Continuous
 62
     7
370
    25
100
AcDbLine
 10
1766.5690409672
 20
46.8969904482
 30
0.0
 11
1681.9690409672
 21
46.8969904482
 31
0.0
  0
LINE
  5
1D9
330
1F
100
AcDbEntity
  8
0
  6
Continuous
 62
     7
370
    25
100
AcDbLine
 10
1766.5690409672
 20
46.8969904482
 30
0.0
 11
1766.5690409672
 21
16.4969904482
 31
0.0
  0
LINE
  5
1DA
330
1F
100
AcDbEntity
  8
0
  6
Continuous
 62
     7
370
    25
100
AcDbLine
 10
1633.7940409672
 20
16.4969904482
 30
0.0
 11
1766.5690409672
 21
16.4969904482
 31
0.0
  0
ARC
  5
1DB
330
1F
100
AcDbEntity
  8
0
  6
Continuous
 62
     7
370
    25
100
AcDbCircle
 10
1633.7940409672
 20
38.7219904482
 30
0.0
 40
22.22500000000124
100
AcDbArc
 50
180.0
 51
270.0
  0
LINE
  5
1DC
330
1F
100
AcDbEntity
  8
0
  6
Continuous
 62
     7
370
    25
100
AcDbLine
 10
1611.5690409672
 20
113.7469904482
 30
0.0
 11
1611.5690409672
 21
38.7219904482
 31
0.0
  0
ARC
  5
1DD
330
1F
100
AcDbEntity
  8
0
  6
Continuous
 62
     7
370
    25
100
AcDbCircle
 10
1579.8190409672
 20
113.7469904482
 30
0.0
 40
31.75000000000361
100
AcDbArc
 50
0.0
 51
90.0
  0
LINE
  5
1DE
330
1F
100
AcDbEntity
  8
0
  6
Continuous
 62
     7
370
    25
100
AcDbLine
 10
1579.8190409672
 20
145.4969904482
 30
0.0
 11
1518.7190409792
 21
145.4969904482
 31
0.0
  0
ARC
  5
1DF
330
1F
100
AcDbEntity
  8
0
  6
Continuous
 62
     7
370
    25
100
AcDbCircle
 10
1518.7190409792
 20
113.7469904482
 30
0.0
 40
31.75000000000256
100
AcDbArc
 50
90.0
 51
180.0
  0
LINE
  5
1E0
330
1F
100
AcDbEntity
  8
0
  6
Continuous
 62
     7
370
    25
100
AcDbLine
 10
1486.9690409792
 20
113.7469904482
 30
0.0
 11
1486.9690409792
 21
38.7219904482
 31
0.0
  0
ARC
  5
1E1
330
1F
100
AcDbEntity
  8
0
  6
Continuous
 62
     7
370
    25
100
AcDbCircle
 10
1464.7440409792
 20
38.7219904482
 30
0.0
 40
22.22500000000014
100
AcDbArc
 50
270.0
 51
0.0
  0
LINE
  5
1E2
330
1F
100
AcDbEntity
  8
0
  6
Continuous
 62
     7
370
    25
100
AcDbLine
 10
1464.7440409792
 20
16.4969904482
 30
0.0
 11
1331.9690409792
 21
16.4969904482
 31
0.0
  0
LINE
  5
1E3
330
1F
100
AcDbEntity
  8
0
  6
Continuous
 62
     7
370
    25
100
AcDbLine
 10
1331.9690409792
 20
46.8969904482
 30
0.0
 11
1331.9690409792
 21
16.4969904482
 31
0.0
  0
LINE
  5
1E4
330
1F
100
AcDbEntity
  8
0
  6
Continuous
 62
     7
370
    25
100
AcDbLine
 10
1331.9690409792
 20
46.8969904482
 30
0.0
 11
1416.5690409792
 21
46.8969904482
 31
0.0
  0
LINE
  5
1E5
330
1F
100
AcDbEntity
  8
0
  6
Continuous
 62
     7
370
    25
100
AcDbLine
 10
1416.5690409792
 20
204.1969904482
 30
0.0
 11
1416.5690409792
 21
46.8969904482
 31
0.0
  0
LINE
  5
1E6
330
1F
100
AcDbEntity
  8
0
  6
Continuous
 62
     7
370
    25
100
AcDbLine
 10
1416.5690409792
 20
204.1969904482
 30
0.0
 11
1681.9690409672
 21
204.1969904482
 31
0.0
  0
CIRCLE
  5
1E7
330
1F
100
AcDbEntity
  8
0
  6
Continuous
 62
     7
370
    25
100
AcDbCircle
 10
1549.2690409732
 20
177.0694904482
 30
0.0
 40
3.96875
  0
CIRCLE
  5
1E8
330
1F
100
AcDbEntity
  8
0
  6
Continuous
 62
     7
370
    25
100
AcDbCircle
 10
1549.2690409732
 20
156.7494904482
 30
0.0
 40
3.96875
  0
CIRCLE
  5
1E9
330
1F
100
AcDbEntity
  8
0
  6
Continuous
 62
     7
370
    25
100
AcDbCircle
 10
1561.3462570311
 20
166.9094904482
 30
0.0
 40
2.457450000000108
  0
CIRCLE
  5
1EA
330
1F
100
AcDbEntity
  8
0
  6
Continuous
 62
     7
370
    25
100
AcDbCircle
 10
1485.4190409732
 20
197.8469904482
 30
0.0
 40
5.080000000000155
  0
CIRCLE
  5
1EB
330
1F
100
AcDbEntity
  8
0
  6
Continuous
 62
     7
370
    25
100
AcDbCircle
 10
1549.2690409732
 20
197.8469904482
 30
0.0
 40
5.079999999999927
  0
CIRCLE
  5
1EC
330
1F
100
AcDbEntity
  8
0
  6
Continuous
 62
     7
370
    25
100
AcDbCircle
 10
1613.1190409732
 20
197.8469904482
 30
0.0
 40
5.079999999999927
  0
CIRCLE
  5
1ED
330
1F
100
AcDbEntity
  8
0
  6
Continuous
 62
     7
370
    25
100
AcDbCircle
 10
1662.9190409672
 20
139.0636571149
 30
0.0
 40
5.079999999999927
  0
CIRCLE
  5
1EE
330
1F
100
AcDbEntity
  8
0
  6
Continuous
 62
     7
370
    25
100
AcDbCircle
 10
1662.9190409672
 20
86.6303237815
 30
0.0
 40
5.079999999999927
  0
CIRCLE
  5
1EF
330
1F
100
AcDbEntity
  8
0
  6
Continuous
 62
     7
370
    25
100
AcDbCircle
 10
1711.5690409672
 20
27.8469904482
 30
0.0
 40
5.080000000000155
  0
CIRCLE
  5
1F0
330
1F
100
AcDbEntity
  8
0
  6
Continuous
 62
     7
370
    25
100
AcDbCircle
 10
1435.6190409792
 20
139.0636571149
 30
0.0
 40
5.079999999999927
  0
CIRCLE
  5
1F1
330
1F
100
AcDbEntity
  8
0
  6
Continuous
 62
     7
370
    25
100
AcDbCircle
 10
1435.6190409792
 20
86.6303237815
 30
0.0
 40
5.079999999999927
  0
CIRCLE
  5
1F2
330
1F
100
AcDbEntity
  8
0
  6
Continuous
 62
     7
370
    25
100
AcDbCircle
 10
1386.9690409792
 20
27.8469904482
 30
0.0
 40
5.079999999999927
  0
CIRCLE
  5
1F3
330
1F
100
AcDbEntity
  8
0
  6
Continuous
 62
     7
370
    25
100
AcDbCircle
 10
1675.6190409672
 20
197.8469904482
 30
0.0
 40
1.587500000000091
  0
CIRCLE
  5
1F4
330
1F
100
AcDbEntity
  8
0
  6
Continuous
 62
     7
370
    25
100
AcDbCircle
 10
1675.6190409672
 20
167.3969904482
 30
0.0
 40
1.587500000000091
  0
CIRCLE
  5
1F5
330
1F
100
AcDbEntity
  8
0
  6
Continuous
 62
     7
370
    25
100
AcDbCircle
 10
1675.6190409672
 20
70.9969904482
 30
0.0
 40
1.587500000000091
  0
CIRCLE
  5
1F6
330
1F
100
AcDbEntity
  8
0
  6
Continuous
 62
     7
370
    25
100
AcDbCircle
 10
1695.3523743005
 20
40.5469904482
 30
0.0
 40
1.587500000000091
  0
CIRCLE
  5
1F7
330
1F
100
AcDbEntity
  8
0
  6
Continuous
 62
     7
370
    25
100
AcDbCircle
 10
1721.4357076339
 20
40.5469904482
 30
0.0
 40
1.587499999999864
  0
CIRCLE
  5
1F8
330
1F
100
AcDbEntity
  8
0
  6
Continuous
 62
     7
370
    25
100
AcDbCircle
 10
1422.9190409792
 20
167.3969904482
 30
0.0
 40
1.587499999999864
  0
CIRCLE
  5
1F9
330
1F
100
AcDbEntity
  8
0
  6
Continuous
 62
     7
370
    25
100
AcDbCircle
 10
1422.9190409792
 20
70.9969904482
 30
0.0
 40
1.587500000000091
  0
CIRCLE
  5
1FA
330
1F
100
AcDbEntity
  8
0
  6
Continuous
 62
     7
370
    25
100
AcDbCircle
 10
1377.1023743125
 20
40.5469904482
 30
0.0
 40
1.587500000000091
  0
CIRCLE
  5
1FB
330
1F
100
AcDbEntity
  8
0
  6
Continuous
 62
     7
370
    25
100
AcDbCircle
 10
1403.1857076459
 20
40.5469904482
 30
0.0
 40
1.587500000000091
  0
CIRCLE
  5
1FC
330
1F
100
AcDbEntity
  8
0
  6
Continuous
 62
     7
370
    25
100
AcDbCircle
 10
1422.9190409792
 20
197.8469904482
 30
0.0
 40
1.587499999999864
  0
CIRCLE
  5
1FD
330
1F
100
AcDbEntity
  8
0
  6
Continuous
 62
     7
370
    25
100
AcDbCircle
 10
1642.2815409672
 20
34.1969904482
 30
0.0
 40
3.174999999999727
  0
CIRCLE
  5
1FE
330
1F
100
AcDbEntity
  8
0
  6
Continuous
 62
     7
370
    25
100
AcDbCircle
 10
1642.2815409672
 20
178.7969904482
 30
0.0
 40
3.174999999999955
  0
CIRCLE
  5
1FF
330
1F
100
AcDbEntity
  8
0
  6
Continuous
 62
     7
370
    25
100
AcDbCircle
 10
1456.2565409792
 20
178.7969904482
 30
0.0
 40
3.174999999999955
  0
CIRCLE
  5
200
330
1F
100
AcDbEntity
  8
0
  6
Continuous
 62
     7
370
    25
100
AcDbCircle
 10
1485.4190409732
 20
197.8469904482
 30
0.0
 40
1.587499999999864
  0
CIRCLE
  5
201
330
1F
100
AcDbEntity
  8
0
  6
Continuous
 62
     7
370
    25
100
AcDbCircle
 10
1386.9690409792
 20
27.8469904482
 30
0.0
 40
1.587499999999636
  0
CIRCLE
  5
202
330
1F
100
AcDbEntity
  8
0
  6
Continuous
 62
     7
370
    25
100
AcDbCircle
 10
1549.2690409732
 20
197.8469904482
 30
0.0
 40
1.587499999999864
  0
CIRCLE
  5
203
330
1F
100
AcDbEntity
  8
0
  6
Continuous
 62
     7
370
    25
100
AcDbCircle
 10
1613.1190409732
 20
197.8469904482
 30
0.0
 40
1.587499999999864
  0
CIRCLE
  5
204
330
1F
100
AcDbEntity
  8
0
  6
Continuous
 62
     7
370
    25
100
AcDbCircle
 10
1662.9190409672
 20
139.0636571149
 30
0.0
 40
1.587500000000091
  0
CIRCLE
  5
205
330
1F
100
AcDbEntity
  8
0
  6
Continuous
 62
     7
370
    25
100
AcDbCircle
 10
1435.6190409792
 20
86.6303237815
 30
0.0
 40
1.587500000000091
  0
CIRCLE
  5
206
330
1F
100
AcDbEntity
  8
0
  6
Continuous
 62
     7
370
    25
100
AcDbCircle
 10
1435.6190409792
 20
139.0636571149
 30
0.0
 40
1.587500000000091
  0
CIRCLE
  5
207
330
1F
100
AcDbEntity
  8
0
  6
Continuous
 62
     7
370
    25
100
AcDbCircle
 10
1662.9190409672
 20
86.6303237815
 30
0.0
 40
1.587499999999864
  0
CIRCLE
  5
208
330
1F
100
AcDbEntity
  8
0
  6
Continuous
 62
     7
370
    25
100
AcDbCircle
 10
1711.5690409672
 20
27.8469904482
 30
0.0
 40
1.587500000000091
  0
CIRCLE
  5
209
330
1F
100
AcDbEntity
  8
0
  6
HIDDEN
 62
     7
370
    18
100
AcDbCircle
 10
1721.4357076339
 20
40.5469904482
 30
0.0
 40
5.079999999999927
  0
CIRCLE
  5
20A
330
1F
100
AcDbEntity
  8
0
  6
HIDDEN
 62
     7
370
    18
100
AcDbCircle
 10
1695.3523743005
 20
40.5469904482
 30
0.0
 40
5.079999999999927
  0
CIRCLE
  5
20B
330
1F
100
AcDbEntity
  8
0
  6
HIDDEN
 62
     7
370
    18
100
AcDbCircle
 10
1422.9190409792
 20
70.9969904482
 30
0.0
 40
5.079999999999927
  0
CIRCLE
  5
20C
330
1F
100
AcDbEntity
  8
0
  6
HIDDEN
 62
     7
370
    18
100
AcDbCircle
 10
1675.6190409672
 20
70.9969904482
 30
0.0
 40
5.080000000000155
  0
CIRCLE
  5
20D
330
1F
100
AcDbEntity
  8
0
  6
HIDDEN
 62
     7
370
    18
100
AcDbCircle
 10
1422.9190409792
 20
167.3969904482
 30
0.0
 40
5.079999999999927
  0
CIRCLE
  5
20E
330
1F
100
AcDbEntity
  8
0
  6
HIDDEN
 62
     7
370
    18
100
AcDbCircle
 10
1675.6190409672
 20
167.3969904482
 30
0.0
 40
5.079999999999927
  0
CIRCLE
  5
20F
330
1F
100
AcDbEntity
  8
0
  6
HIDDEN
 62
     7
370
    18
100
AcDbCircle
 10
1675.6190409672
 20
197.8469904482
 30
0.0
 40
5.079999999999927
  0
CIRCLE
  5
210
330
1F
100
AcDbEntity
  8
0
  6
HIDDEN
 62
     7
370
    18
100
AcDbCircle
 10
1422.9190409792
 20
197.8469904482
 30
0.0
 40
5.079999999999927
  0
CIRCLE
  5
211
330
1F
100
AcDbEntity
  8
0
  6
HIDDEN
 62
     7
370
    18
100
AcDbCircle
 10
1403.1857076459
 20
40.5469904482
 30
0.0
 40
5.080000000000155
  0
CIRCLE
  5
212
330
1F
100
AcDbEntity
  8
0
  6
HIDDEN
 62
     7
370
    18
100
AcDbCircle
 10
1377.1023743125
 20
40.5469904482
 30
0.0
 40
5.079999999999927
  0
ARC
  5
213
330
1F
100
AcDbEntity
  8
0
  6
Continuous
 62
     7
370
    25
100
AcDbCircle
 10
2130.6599329166
 20
480.6493793175
 30
0.0
 40
6.350000000001283
100
AcDbArc
 50
89.9786166989
 51
138.1683018031
  0
LINE
  5
214
330
1F
100
AcDbEntity
  8
0
  6
Continuous
 62
     7
370
    25
100
AcDbLine
 10
2239.2711487548
 20
486.9588450736
 30
0.0
 11
2130.6623027937
 21
486.9993788753
 31
0.0
  0
LINE
  5
215
330
1F
100
AcDbEntity
  8
0
  6
Continuous
 62
     7
370
    25
100
AcDbLine
 10
2239.2507619527
 20
432.3331508188
 30
0.0
 11
2239.2711487548
 21
486.9588450736
 31
0.0
  0
LINE
  5
216
330
1F
100
AcDbEntity
  8
0
  6
Continuous
 62
     7
370
    25
100
AcDbLine
 10
2211.2182112773
 20
432.3436128197
 30
0.0
 11
2239.2507619527
 21
432.3331508188
 31
0.0
  0
ARC
  5
217
330
1F
100
AcDbEntity
  8
0
  6
Continuous
 62
     7
370
    25
100
AcDbCircle
 10
2211.2170263388
 20
429.1686130408
 30
0.0
 40
3.1750000000014
100
AcDbArc
 50
89.978616699
 51
188.9786166989
  0
LINE
  5
218
330
1F
100
AcDbEntity
  8
0
  6
Continuous
 62
     7
370
    25
100
AcDbLine
 10
2220.8456017738
 20
347.885013909
 30
0.0
 11
2208.0809307105
 21
428.6731039989
 31
0.0
  0
LINE
  5
219
330
1F
100
AcDbEntity
  8
0
  6
Continuous
 62
     7
370
    25
100
AcDbLine
 10
2211.3011136472
 20
306.6135731236
 30
0.0
 11
2220.8456017738
 21
347.885013909
 31
0.0
  0
LINE
  5
21A
330
1F
100
AcDbEntity
  8
0
  6
Continuous
 62
     7
370
    25
100
AcDbLine
 10
2161.5954744364
 20
306.6321237169
 30
0.0
 11
2211.3011136472
 21
306.6135731236
 31
0.0
  0
ARC
  5
21B
330
1F
100
AcDbEntity
  8
0
  6
Continuous
 62
     7
370
    25
100
AcDbCircle
 10
2161.5907346821
 20
293.9321246013
 30
0.0
 40
12.7000000000012
100
AcDbArc
 50
89.9786166989
 51
179.9786166989
  0
LINE
  5
21C
330
1F
100
AcDbEntity
  8
0
  6
Continuous
 62
     7
370
    25
100
AcDbLine
 10
2148.7881600238
 20
19.0894314579
 30
0.0
 11
2148.8907355666
 21
293.9368643556
 31
0.0
  0
LINE
  5
21D
330
1F
100
AcDbEntity
  8
0
  6
Continuous
 62
     7
370
    25
100
AcDbLine
 10
2007.5003077498
 20
19.1421613597
 30
0.0
 11
2148.7881600238
 21
19.0894314579
 31
0.0
  0
LINE
  5
21E
330
1F
100
AcDbEntity
  8
0
  6
Continuous
 62
     7
370
    25
100
AcDbLine
 10
2007.7794319368
 20
767.0452593717
 30
0.0
 11
2007.5003077498
 21
19.1421613597
 31
0.0
  0
LINE
  5
21F
330
1F
100
AcDbEntity
  8
0
  6
Continuous
 62
     7
370
    25
100
AcDbLine
 10
2123.6672859797
 20
767.0020089786
 30
0.0
 11
2007.7794319368
 21
767.0452593717
 31
0.0
  0
LINE
  5
220
330
1F
100
AcDbEntity
  8
0
  6
Continuous
 62
     7
370
    25
100
AcDbLine
 10
2123.5654370628
 20
494.1015438126
 30
0.0
 11
2123.6672859797
 21
767.0020089786
 31
0.0
  0
ARC
  5
221
330
1F
100
AcDbEntity
  8
0
  6
Continuous
 62
     7
370
    25
100
AcDbCircle
 10
2117.215437505
 20
494.1039136898
 30
0.0
 40
6.350000000002011
100
AcDbArc
 50
311.7889315947
 51
359.9786166989
  0
ARC
  5
222
330
1F
100
AcDbEntity
  8
0
  6
Continuous
 62
     7
370
    25
100
AcDbCircle
 10
2123.5627874596
 20
487.0020284785
 30
0.0
 40
3.174999999999088
100
AcDbArc
 50
131.7889315946
 51
318.1683018032
  0
CIRCLE
  5
223
330
1F
100
AcDbEntity
  8
0
  6
Continuous
 62
     7
370
    25
100
AcDbCircle
 10
2197.9925968136
 20
477.4492499384
 30
0.0
 40
6.349999999999993
  0
CIRCLE
  5
224
330
1F
100
AcDbEntity
  8
0
  6
Continuous
 62
     7
370
    25
100
AcDbCircle
 10
2226.5675948236
 20
477.4385854913
 30
0.0
 40
6.349999999999993
  0
CIRCLE
  5
225
330
1F
100
AcDbEntity
  8
0
  6
Continuous
 62
     7
370
    25
100
AcDbCircle
 10
2226.5543176529
 20
441.8628899097
 30
0.0
 40
6.350000000000011
  0
CIRCLE
  5
226
330
1F
100
AcDbEntity
  8
0
  6
Continuous
 62
     7
370
    25
100
AcDbCircle
 10
2197.9793196429
 20
441.8735543569
 30
0.0
 40
6.349999999999959
  0
CIRCLE
  5
227
330
1F
100
AcDbEntity
  8
0
  6
Continuous
 62
     7
370
    25
100
AcDbCircle
 10
2198.0857890015
 20
418.769747005
 30
0.0
 40
6.350000000000444
  0
CIRCLE
  5
228
330
1F
100
AcDbEntity
  8
0
  6
Continuous
 62
     7
370
    25
100
AcDbCircle
 10
2135.7083253608
 20
418.7930268375
 30
0.0
 40
6.350000000000426
  0
CIRCLE
  5
229
330
1F
100
AcDbEntity
  8
0
  6
Continuous
 62
     7
370
    25
100
AcDbCircle
 10
2135.6850455283
 20
356.4155631967
 30
0.0
 40
6.349999999999976
  0
CIRCLE
  5
22A
330
1F
100
AcDbEntity
  8
0
  6
Continuous
 62
     7
370
    25
100
AcDbCircle
 10
2198.062509169
 20
356.3922833643
 30
0.0
 40
6.349999999999976
  0
CIRCLE
  5
22B
330
1F
100
AcDbEntity
  8
0
  6
Continuous
 62
     7
370
    25
100
AcDbCircle
 10
2203.7281418843
 20
316.1414000884
 30
0.0
 40
6.350000000000011
  0
CIRCLE
  5
22C
330
1F
100
AcDbEntity
  8
0
  6
Continuous
 62
     7
370
    25
100
AcDbCircle
 10
2208.8674816448
 20
338.3644835882
 30
0.0
 40
6.350000000000407
  0
CIRCLE
  5
22D
330
1F
100
AcDbEntity
  8
0
  6
Continuous
 62
     7
370
    25
100
AcDbCircle
 10
2173.2170502748
 20
338.377788651
 30
0.0
 40
6.349999999999976
  0
CIRCLE
  5
22E
330
1F
100
AcDbEntity
  8
0
  6
Continuous
 62
     7
370
    25
100
AcDbCircle
 10
2173.2087557047
 20
316.1527901988
 30
0.0
 40
6.350000000000011
  0
CIRCLE
  5
22F
330
1F
100
AcDbEntity
  8
0
  6
Continuous
 62
     7
370
    25
100
AcDbCircle
 10
2040.6759826307
 20
512.8744943408
 30
0.0
 40
6.350000000000011
  0
CIRCLE
  5
230
330
1F
100
AcDbEntity
  8
0
  6
Continuous
 62
     7
370
    25
100
AcDbCircle
 10
2040.7470789452
 20
703.3744810739
 30
0.0
 40
6.350000000000011
  0
CIRCLE
  5
231
330
1F
100
AcDbEntity
  8
0
  6
Continuous
 62
     7
370
    25
100
AcDbCircle
 10
2026.8223209786
 20
747.988151067
 30
0.0
 40
1.587499999999959
  0
CIRCLE
  5
232
330
1F
100
AcDbEntity
  8
0
  6
Continuous
 62
     7
370
    25
100
AcDbCircle
 10
2104.6101776749
 20
747.9591199367
 30
0.0
 40
1.587499999999562
  0
CIRCLE
  5
233
330
1F
100
AcDbEntity
  8
0
  6
Continuous
 62
     7
370
    25
100
AcDbCircle
 10
2033.0378372117
 20
387.6426082259
 30
0.0
 40
1.587499999999976
  0
CIRCLE
  5
234
330
1F
100
AcDbEntity
  8
0
  6
Continuous
 62
     7
370
    25
100
AcDbCircle
 10
2166.8854172649
 20
387.5926551009
 30
0.0
 40
1.587500000000462
  0
CIRCLE
  5
235
330
1F
100
AcDbEntity
  8
0
  6
Continuous
 62
     7
370
    25
100
AcDbCircle
 10
2129.7452709819
 20
38.1465397626
 30
0.0
 40
1.587500000000016
  0
CIRCLE
  5
236
330
1F
100
AcDbEntity
  8
0
  6
Continuous
 62
     7
370
    25
100
AcDbCircle
 10
2026.5574160546
 20
38.1850504015
 30
0.0
 40
1.587500000000001
  0
CIRCLE
  5
237
330
1F
100
AcDbEntity
  8
0
  6
Continuous
 62
     7
370
    25
100
AcDbCircle
 10
2104.5546418431
 20
599.1528803
 30
0.0
 40
1.587499999999959
  0
CIRCLE
  5
238
330
1F
100
AcDbEntity
  8
0
  6
Continuous
 62
     7
370
    25
100
AcDbCircle
 10
2104.5362193138
 20
549.7903837377
 30
0.0
 40
1.587500000000067
  0
CIRCLE
  5
239
330
1F
100
AcDbEntity
  8
0
  6
Continuous
 62
     7
370
    25
100
AcDbCircle
 10
2104.5730643724
 20
648.5153768622
 30
0.0
 40
1.587499999999959
  0
CIRCLE
  5
23A
330
1F
100
AcDbEntity
  8
0
  6
Continuous
 62
     7
370
    25
100
AcDbCircle
 10
2104.5914869017
 20
697.8778734245
 30
0.0
 40
1.587500000000175
  0
LINE
  5
23B
330
1F
100
AcDbEntity
  8
0
  6
Continuous
 62
     7
370
    25
100
AcDbLine
 10
1335.7568013874
 20
-164.7474768409
 30
0.0
 11
1338.6002715231
 21
-59.27885263
 31
0.0
  0
LINE
  5
23C
330
1F
100
AcDbEntity
  8
0
  6
Continuous
 62
     7
370
    25
100
AcDbLine
 10
643.3615370067
 20
-164.7474768409
 30
0.0
 11
640.518066871
 21
-59.27885263
 31
0.0
  0
CIRCLE
  5
23D
330
1F
100
AcDbEntity
  8
0
  6
Continuous
 62
     7
370
    25
100
AcDbCircle
 10
1307.0571264964
 20
-116.2754993554
 30
0.0
 40
3.502246584801405
  0
LINE
  5
23E
330
1F
100
AcDbEntity
  8
0
  6
Continuous
 62
     7
370
    25
100
AcDbLine
 10
640.518066871
 20
-57.853361873
 30
0.0
 11
1338.6002715231
 21
-57.853361873
 31
0.0
  0
LINE
  5
23F
330
1F
100
AcDbEntity
  8
0
  6
Continuous
 62
     7
370
    25
100
AcDbLine
 10
640.518066871
 20
-57.853361873
 30
0.0
 11
640.518066871
 21
-59.27885263
 31
0.0
  0
LINE
  5
240
330
1F
100
AcDbEntity
  8
0
  6
Continuous
 62
     7
370
    25
100
AcDbLine
 10
1338.6002715231
 20
-59.27885263
 30
0.0
 11
1338.6002715231
 21
-57.853361873
 31
0.0
  0
LINE
  5
241
330
1F
100
AcDbEntity
  8
0
  6
Continuous
 62
     7
370
    25
100
AcDbLine
 10
1335.5037745574
 20
-172.7071353482
 30
0.0
 11
643.6145638367
 21
-172.7071353482
 31
0.0
  0
LINE
  5
242
330
1F
100
AcDbEntity
  8
0
  6
Continuous
 62
     7
370
    25
100
AcDbLine
 10
643.6145638367
 20
-172.7071353482
 30
0.0
 11
643.3615370067
 21
-164.7474768409
 31
0.0
  0
LINE
  5
243
330
1F
100
AcDbEntity
  8
0
  6
Continuous
 62
     7
370
    25
100
AcDbLine
 10
1335.5037745574
 20
-172.7071353482
 30
0.0
 11
1335.7568013874
 21
-164.7474768409
 31
0.0
  0
ENDSEC
  0
SECTION
  2
OBJECTS
  0
DICTIONARY
  5
C
330
0
100
AcDbDictionary
281
     1
  3
ACAD_GROUP
350
D
  3
ACAD_LAYOUT
350
1A
  3
ACAD_MLINESTYLE
350
17
  3
ACAD_PLOTSETTINGS
350
19
  3
ACAD_PLOTSTYLENAME
350
E
  3
ACAD_SCALELIST
350
47
  3
DWGPROPS
350
244
  0
DICTIONARY
  5
D
102
{ACAD_REACTORS
330
C
102
}
330
C
100
AcDbDictionary
281
     1
  0
DICTIONARY
  5
1A
102
{ACAD_REACTORS
330
C
102
}
330
C
100
AcDbDictionary
281
     1
  3
Layout1
350
1E
  3
Layout2
350
26
  3
Model
350
22
  0
DICTIONARY
  5
17
102
{ACAD_REACTORS
330
C
102
}
330
C
100
AcDbDictionary
281
     1
  3
Standard
350
18
  0
DICTIONARY
  5
19
102
{ACAD_REACTORS
330
C
102
}
330
C
100
AcDbDictionary
281
     1
  0
ACDBDICTIONARYWDFLT
  5
E
102
{ACAD_REACTORS
330
C
102
}
330
C
100
AcDbDictionary
281
     1
  3
Normal
350
F
100
AcDbDictionaryWithDefault
340
F
  0
DICTIONARY
  5
47
102
{ACAD_REACTORS
330
C
102
}
330
C
100
AcDbDictionary
281
     1
  3
A0
350
48
  3
A1
350
49
  3
A2
350
4A
  3
A3
350
4B
  3
A4
350
4C
  3
A5
350
4D
  3
A6
350
4E
  3
A7
350
4F
  3
A8
350
50
  3
A9
350
51
  3
B0
350
52
  3
B1
350
53
  3
B2
350
54
  3
B3
350
55
  3
B4
350
56
  3
B5
350
57
  3
B6
350
58
  3
B7
350
59
  3
B8
350
5A
  3
B9
350
5B
  3
C0
350
5C
  3
C1
350
5D
  3
C2
350
5E
  3
C3
350
5F
  3
C4
350
60
  3
C5
350
61
  3
C6
350
62
  3
C7
350
63
  3
C8
350
64
  3
C9
350
65
  3
D0
350
66
  3
D1
350
67
  3
D2
350
68
  0
XRECORD
  5
244
102
{ACAD_REACTORS
330
C
102
}
330
C
100
AcDbXrecord
280
     1
  1
DWGPROPS COOKIE
  2

  3

  4

  6

  7

  8
lukew
  9

300
=
301
=
302
=
303
=
304
=
305
=
306
=
307
=
308
=
309
=
 40
0.0
 41
2459072.260573194
 42
2459072.260576284
  1

 90
        0
  0
LAYOUT
  5
1E
102
{ACAD_REACTORS
330
1A
102
}
330
1A
100
AcDbPlotSettings
  1

  2
none_device
  4

  6

 40
0.0
 41
0.0
 42
0.0
 43
0.0
 44
0.0
 45
0.0
 46
0.0
 47
0.0
 48
0.0
 49
0.0
140
0.0
141
0.0
142
1.0
143
1.0
 70
   688
 72
     1
 73
     0
 74
     5
  7

 75
    16
147
1.0
148
0.0
149
0.0
100
AcDbLayout
  1
Layout1
 70
     1
 71
     1
 10
0.0
 20
0.0
 11
420.0
 21
297.0
 12
0.0
 22
0.0
 32
0.0
 14
1.0000000000E+20
 24
1.0000000000E+20
 34
1.0000000000E+20
 15
-1.0000000000E+20
 25
-1.0000000000E+20
 35
-1.0000000000E+20
146
0.0
 13
0.0
 23
0.0
 33
0.0
 16
1.0
 26
0.0
 36
0.0
 17
0.0
 27
1.0
 37
0.0
 76
     0
330
1B
  0
LAYOUT
  5
26
102
{ACAD_REACTORS
330
1A
102
}
330
1A
100
AcDbPlotSettings
  1

  2
none_device
  4

  6

 40
0.0
 41
0.0
 42
0.0
 43
0.0
 44
0.0
 45
0.0
 46
0.0
 47
0.0
 48
0.0
 49
0.0
140
0.0
141
0.0
142
1.0
143
1.0
 70
   688
 72
     1
 73
     0
 74
     5
  7

 75
    16
147
1.0
148
0.0
149
0.0
100
AcDbLayout
  1
Layout2
 70
     1
 71
     2
 10
0.0
 20
0.0
 11
0.0
 21
0.0
 12
0.0
 22
0.0
 32
0.0
 14
0.0
 24
0.0
 34
0.0
 15
0.0
 25
0.0
 35
0.0
146
0.0
 13
0.0
 23
0.0
 33
0.0
 16
1.0
 26
0.0
 36
0.0
 17
0.0
 27
1.0
 37
0.0
 76
     0
330
23
  0
LAYOUT
  5
22
102
{ACAD_REACTORS
330
1A
102
}
330
1A
100
AcDbPlotSettings
  1

  2
none_device
  4
Letter_(8.50_x_11.00_Inches)
  6

 40
6.35
 41
6.35
 42
6.35000508
 43
6.35000508
 44
215.9
 45
279.4
 46
0.0
 47
0.0
 48
0.0
 49
0.0
140
0.0
141
0.0
142
1.0
143
1.0
 70
  1712
 72
     1
 73
     0
 74
     0
  7

 75
     0
147
1.0
148
0.0
149
0.0
100
AcDbLayout
  1
Model
 70
     1
 71
     0
 10
0.0
 20
0.0
 11
2400.0
 21
1200.0
 12
0.0
 22
0.0
 32
0.0
 14
0.0
 24
0.0
 34
0.0
 15
2400.0
 25
1200.0
 35
0.0
146
0.0
 13
0.0
 23
0.0
 33
0.0
 16
1.0
 26
0.0
 36
0.0
 17
0.0
 27
1.0
 37
0.0
 76
     0
330
1F
331
29
  0
MLINESTYLE
  5
18
102
{ACAD_REACTORS
330
17
102
}
330
17
100
AcDbMlineStyle
  2
Standard
 70
     0
  3

 62
   256
 51
90.0
 52
90.0
 71
     2
 49
0.5
 62
   256
  6
BYLAYER
 49
-0.5
 62
   256
  6
BYLAYER
  0
ACDBPLACEHOLDER
  5
F
102
{ACAD_REACTORS
330
E
102
}
330
E
  0
SCALE
  5
48
102
{ACAD_REACTORS
330
47
102
}
330
47
100
AcDbScale
 70
     0
300
1:1
140
1.0
141
1.0
290
     1
  0
SCALE
  5
49
102
{ACAD_REACTORS
330
47
102
}
330
47
100
AcDbScale
 70
     0
300
1:2
140
1.0
141
2.0
290
     0
  0
SCALE
  5
4A
102
{ACAD_REACTORS
330
47
102
}
330
47
100
AcDbScale
 70
     0
300
1:4
140
1.0
141
4.0
290
     0
  0
SCALE
  5
4B
102
{ACAD_REACTORS
330
47
102
}
330
47
100
AcDbScale
 70
     0
300
1:5
140
1.0
141
5.0
290
     0
  0
SCALE
  5
4C
102
{ACAD_REACTORS
330
47
102
}
330
47
100
AcDbScale
 70
     0
300
1:8
140
1.0
141
8.0
290
     0
  0
SCALE
  5
4D
102
{ACAD_REACTORS
330
47
102
}
330
47
100
AcDbScale
 70
     0
300
1:10
140
1.0
141
10.0
290
     0
  0
SCALE
  5
4E
102
{ACAD_REACTORS
330
47
102
}
330
47
100
AcDbScale
 70
     0
300
1:16
140
1.0
141
16.0
290
     0
  0
SCALE
  5
4F
102
{ACAD_REACTORS
330
47
102
}
330
47
100
AcDbScale
 70
     0
300
1:20
140
1.0
141
20.0
290
     0
  0
SCALE
  5
50
102
{ACAD_REACTORS
330
47
102
}
330
47
100
AcDbScale
 70
     0
300
1:30
140
1.0
141
30.0
290
     0
  0
SCALE
  5
51
102
{ACAD_REACTORS
330
47
102
}
330
47
100
AcDbScale
 70
     0
300
1:40
140
1.0
141
40.0
290
     0
  0
SCALE
  5
52
102
{ACAD_REACTORS
330
47
102
}
330
47
100
AcDbScale
 70
     0
300
1:50
140
1.0
141
50.0
290
     0
  0
SCALE
  5
53
102
{ACAD_REACTORS
330
47
102
}
330
47
100
AcDbScale
 70
     0
300
1:100
140
1.0
141
100.0
290
     0
  0
SCALE
  5
54
102
{ACAD_REACTORS
330
47
102
}
330
47
100
AcDbScale
 70
     0
300
2:1
140
2.0
141
1.0
290
     0
  0
SCALE
  5
55
102
{ACAD_REACTORS
330
47
102
}
330
47
100
AcDbScale
 70
     0
300
4:1
140
4.0
141
1.0
290
     0
  0
SCALE
  5
56
102
{ACAD_REACTORS
330
47
102
}
330
47
100
AcDbScale
 70
     0
300
8:1
140
8.0
141
1.0
290
     0
  0
SCALE
  5
57
102
{ACAD_REACTORS
330
47
102
}
330
47
100
AcDbScale
 70
     0
300
10:1
140
10.0
141
1.0
290
     0
  0
SCALE
  5
58
102
{ACAD_REACTORS
330
47
102
}
330
47
100
AcDbScale
 70
     0
300
100:1
140
100.0
141
1.0
290
     0
  0
SCALE
  5
59
102
{ACAD_REACTORS
330
47
102
}
330
47
100
AcDbScale
 70
     0
300
1/128" = 1'-0"
140
0.0078125
141
12.0
290
     0
  0
SCALE
  5
5A
102
{ACAD_REACTORS
330
47
102
}
330
47
100
AcDbScale
 70
     0
300
1/64" = 1'-0"
140
0.015625
141
12.0
290
     0
  0
SCALE
  5
5B
102
{ACAD_REACTORS
330
47
102
}
330
47
100
AcDbScale
 70
     0
300
1/32" = 1'-0"
140
0.03125
141
12.0
290
     0
  0
SCALE
  5
5C
102
{ACAD_REACTORS
330
47
102
}
330
47
100
AcDbScale
 70
     0
300
1/16" = 1'-0"
140
0.0625
141
12.0
290
     0
  0
SCALE
  5
5D
102
{ACAD_REACTORS
330
47
102
}
330
47
100
AcDbScale
 70
     0
300
3/32" = 1'-0"
140
0.09375
141
12.0
290
     0
  0
SCALE
  5
5E
102
{ACAD_REACTORS
330
47
102
}
330
47
100
AcDbScale
 70
     0
300
1/8" = 1'-0"
140
0.125
141
12.0
290
     0
  0
SCALE
  5
5F
102
{ACAD_REACTORS
330
47
102
}
330
47
100
AcDbScale
 70
     0
300
3/16" = 1'-0"
140
0.1875
141
12.0
290
     0
  0
SCALE
  5
60
102
{ACAD_REACTORS
330
47
102
}
330
47
100
AcDbScale
 70
     0
300
1/4" = 1'-0"
140
0.25
141
12.0
290
     0
  0
SCALE
  5
61
102
{ACAD_REACTORS
330
47
102
}
330
47
100
AcDbScale
 70
     0
300
3/8" = 1'-0"
140
0.375
141
12.0
290
     0
  0
SCALE
  5
62
102
{ACAD_REACTORS
330
47
102
}
330
47
100
AcDbScale
 70
     0
300
1/2" = 1'-0"
140
0.5
141
12.0
290
     0
  0
SCALE
  5
63
102
{ACAD_REACTORS
330
47
102
}
330
47
100
AcDbScale
 70
     0
300
3/4" = 1'-0"
140
0.75
141
12.0
290
     0
  0
SCALE
  5
64
102
{ACAD_REACTORS
330
47
102
}
330
47
100
AcDbScale
 70
     0
300
1" = 1'-0"
140
1.0
141
12.0
290
     0
  0
SCALE
  5
65
102
{ACAD_REACTORS
330
47
102
}
330
47
100
AcDbScale
 70
     0
300
1-1/2" = 1'-0"
140
1.5
141
12.0
290
     0
  0
SCALE
  5
66
102
{ACAD_REACTORS
330
47
102
}
330
47
100
AcDbScale
 70
     0
300
3" = 1'-0"
140
3.0
141
12.0
290
     0
  0
SCALE
  5
67
102
{ACAD_REACTORS
330
47
102
}
330
47
100
AcDbScale
 70
     0
300
6" = 1'-0"
140
6.0
141
12.0
290
     0
  0
SCALE
  5
68
102
{ACAD_REACTORS
330
47
102
}
330
47
100
AcDbScale
 70
     0
300
1'-0" = 1'-0"
140
12.0
141
12.0
290
     0
  0
ENDSEC
  0
EOF
