  0
SECTION
  2
HEADER
  9
$ACADVER
  1
AC1015
  9
$ACADMAINTVER
 70
     6
  9
$DWGCODEPAGE
  3
ANSI_1252
  9
$INSBASE
 10
0.0
 20
0.0
 30
0.0
  9
$EXTMIN
 10
0.0
 20
0.0
 30
0.0
  9
$EXTMAX
 10
2400.0
 20
1200.0
 30
0.0
  9
$LIMMIN
 10
0.0
 20
0.0
  9
$LIMMAX
 10
2400.0
 20
1200.0
  9
$ORTHOMODE
 70
     0
  9
$REGENMODE
 70
     1
  9
$FILLMODE
 70
     1
  9
$QTEXTMODE
 70
     0
  9
$MIRRTEXT
 70
     1
  9
$LTSCALE
 40
1.0
  9
$ATTMODE
 70
     1
  9
$TEXTSIZE
 40
3.5
  9
$TRACEWID
 40
1.0
  9
$TEXTSTYLE
  7
Standard
  9
$CLAYER
  8
0
  9
$CELTYPE
  6
ByLayer
  9
$CECOLOR
 62
   256
  9
$CELTSCALE
 40
1.0
  9
$DISPSILH
 70
     0
  9
$DIMSCALE
 40
1.0
  9
$DIMASZ
 40
3.302
  9
$DIMEXO
 40
1.0
  9
$DIMDLI
 40
3.75
  9
$DIMRND
 40
0.0
  9
$DIMDLE
 40
0.0
  9
$DIMEXE
 40
1.0
  9
$DIMTP
 40
0.0
  9
$DIMTM
 40
0.0
  9
$DIMTXT
 40
3.5
  9
$DIMCEN
 40
2.5
  9
$DIMTSZ
 40
0.0
  9
$DIMTOL
 70
     0
  9
$DIMLIM
 70
     0
  9
$DIMTIH
 70
     1
  9
$DIMTOH
 70
     1
  9
$DIMSE1
 70
     0
  9
$DIMSE2
 70
     0
  9
$DIMTAD
 70
     1
  9
$DIMZIN
 70
     1
  9
$DIMBLK
  1

  9
$DIMASO
 70
     1
  9
$DIMSHO
 70
     1
  9
$DIMPOST
  1

  9
$DIMAPOST
  1

  9
$DIMALT
 70
     0
  9
$DIMALTD
 70
     3
  9
$DIMALTF
 40
0.0393700787
  9
$DIMLFAC
 40
1.0
  9
$DIMTOFL
 70
     1
  9
$DIMTVP
 40
0.0
  9
$DIMTIX
 70
     0
  9
$DIMSOXD
 70
     0
  9
$DIMSAH
 70
     0
  9
$DIMBLK1
  1

  9
$DIMBLK2
  1

  9
$DIMSTYLE
  2
ISO-25
  9
$DIMCLRD
 70
     0
  9
$DIMCLRE
 70
     0
  9
$DIMCLRT
 70
     0
  9
$DIMTFAC
 40
1.0
  9
$DIMGAP
 40
1.524
  9
$DIMJUST
 70
     0
  9
$DIMSD1
 70
     0
  9
$DIMSD2
 70
     0
  9
$DIMTOLJ
 70
     0
  9
$DIMTZIN
 70
     1
  9
$DIMALTZ
 70
     0
  9
$DIMALTTZ
 70
     0
  9
$DIMUPT
 70
     0
  9
$DIMDEC
 70
     2
  9
$DIMTDEC
 70
     2
  9
$DIMALTU
 70
     2
  9
$DIMALTTD
 70
     3
  9
$DIMTXSTY
  7
Standard
  9
$DIMAUNIT
 70
     0
  9
$DIMADEC
 70
     2
  9
$DIMALTRND
 40
0.0
  9
$DIMAZIN
 70
     0
  9
$DIMDSEP
 70
    44
  9
$DIMATFIT
 70
     3
  9
$DIMFRAC
 70
     0
  9
$DIMLDRBLK
  1

  9
$DIMLUNIT
 70
     2
  9
$DIMLWD
 70
    -2
  9
$DIMLWE
 70
    -2
  9
$DIMTMOVE
 70
     0
  9
$LUNITS
 70
     2
  9
$LUPREC
 70
     2
  9
$SKETCHINC
 40
1.0
  9
$FILLETRAD
 40
10.0
  9
$AUNITS
 70
     0
  9
$AUPREC
 70
     2
  9
$MENU
  1
.
  9
$ELEVATION
 40
0.0
  9
$PELEVATION
 40
0.0
  9
$THICKNESS
 40
0.0
  9
$LIMCHECK
 70
     0
  9
$CHAMFERA
 40
0.0
  9
$CHAMFERB
 40
0.0
  9
$CHAMFERC
 40
0.0
  9
$CHAMFERD
 40
0.0
  9
$SKPOLY
 70
     0
  9
$TDCREATE
 40
2459072.677273947
  9
$TDUCREATE
 40
2459072.26060728
  9
$TDUPDATE
 40
2459072.677276146
  9
$TDUUPDATE
 40
2459072.260609479
  9
$TDINDWG
 40
0.0000000116
  9
$TDUSRTIMER
 40
0.0000000116
  9
$USRTIMER
 70
     1
  9
$ANGBASE
 50
0.0
  9
$ANGDIR
 70
     0
  9
$PDMODE
 70
     0
  9
$PDSIZE
 40
-1.0
  9
$PLINEWID
 40
0.0
  9
$SPLFRAME
 70
     0
  9
$SPLINETYPE
 70
     6
  9
$SPLINESEGS
 70
     8
  9
$HANDSEED
  5
3A0
  9
$SURFTAB1
 70
     6
  9
$SURFTAB2
 70
     6
  9
$SURFTYPE
 70
     6
  9
$SURFU
 70
     6
  9
$SURFV
 70
     6
  9
$UCSBASE
  2

  9
$UCSNAME
  2

  9
$UCSORG
 10
0.0
 20
0.0
 30
0.0
  9
$UCSXDIR
 10
1.0
 20
0.0
 30
0.0
  9
$UCSYDIR
 10
0.0
 20
1.0
 30
0.0
  9
$UCSORTHOREF
  2

  9
$UCSORTHOVIEW
 70
     0
  9
$UCSORGTOP
 10
0.0
 20
0.0
 30
0.0
  9
$UCSORGBOTTOM
 10
0.0
 20
0.0
 30
0.0
  9
$UCSORGLEFT
 10
0.0
 20
0.0
 30
0.0
  9
$UCSORGRIGHT
 10
0.0
 20
0.0
 30
0.0
  9
$UCSORGFRONT
 10
0.0
 20
0.0
 30
0.0
  9
$UCSORGBACK
 10
0.0
 20
0.0
 30
0.0
  9
$PUCSBASE
  2

  9
$PUCSNAME
  2

  9
$PUCSORG
 10
0.0
 20
0.0
 30
0.0
  9
$PUCSXDIR
 10
1.0
 20
0.0
 30
0.0
  9
$PUCSYDIR
 10
0.0
 20
1.0
 30
0.0
  9
$PUCSORTHOREF
  2

  9
$PUCSORTHOVIEW
 70
     0
  9
$PUCSORGTOP
 10
0.0
 20
0.0
 30
0.0
  9
$PUCSORGBOTTOM
 10
0.0
 20
0.0
 30
0.0
  9
$PUCSORGLEFT
 10
0.0
 20
0.0
 30
0.0
  9
$PUCSORGRIGHT
 10
0.0
 20
0.0
 30
0.0
  9
$PUCSORGFRONT
 10
0.0
 20
0.0
 30
0.0
  9
$PUCSORGBACK
 10
0.0
 20
0.0
 30
0.0
  9
$USERI1
 70
     0
  9
$USERI2
 70
     0
  9
$USERI3
 70
     0
  9
$USERI4
 70
     0
  9
$USERI5
 70
     0
  9
$USERR1
 40
0.0
  9
$USERR2
 40
0.0
  9
$USERR3
 40
0.0
  9
$USERR4
 40
0.0
  9
$USERR5
 40
0.0
  9
$WORLDVIEW
 70
     1
  9
$SHADEDGE
 70
     3
  9
$SHADEDIF
 70
    70
  9
$TILEMODE
 70
     1
  9
$MAXACTVP
 70
    64
  9
$PINSBASE
 10
0.0
 20
0.0
 30
0.0
  9
$PLIMCHECK
 70
     0
  9
$PEXTMIN
 10
1.0000000000E+20
 20
1.0000000000E+20
 30
1.0000000000E+20
  9
$PEXTMAX
 10
-1.0000000000E+20
 20
-1.0000000000E+20
 30
-1.0000000000E+20
  9
$PLIMMIN
 10
0.0
 20
0.0
  9
$PLIMMAX
 10
420.0
 20
297.0
  9
$UNITMODE
 70
     0
  9
$VISRETAIN
 70
     1
  9
$PLINEGEN
 70
     0
  9
$PSLTSCALE
 70
     1
  9
$TREEDEPTH
 70
  3020
  9
$CMLSTYLE
  2
Standard
  9
$CMLJUST
 70
     0
  9
$CMLSCALE
 40
20.0
  9
$PROXYGRAPHICS
 70
     1
  9
$MEASUREMENT
 70
     1
  9
$CELWEIGHT
370
    -1
  9
$ENDCAPS
280
     0
  9
$JOINSTYLE
280
     0
  9
$LWDISPLAY
290
     1
  9
$INSUNITS
 70
     4
  9
$HYPERLINKBASE
  1

  9
$STYLESHEET
  1

  9
$XEDIT
290
     1
  9
$CEPSNTYPE
380
     0
  9
$PSTYLEMODE
290
     1
  9
$FINGERPRINTGUID
  2
{d133269d-a345-4685-ae0d-b9d2176c6591}
  9
$VERSIONGUID
  2
{FAEB1C32-E019-11D5-929B-00C0DF256EC4}
  9
$EXTNAMES
290
     1
  9
$PSVPSCALE
 40
0.0
  9
$OLESTARTUP
290
     0
  0
ENDSEC
  0
SECTION
  2
CLASSES
  0
CLASS
  1
ACDBDICTIONARYWDFLT
  2
AcDbDictionaryWithDefault
  3
ObjectDBX Classes
 90
        0
280
     0
281
     0
  0
CLASS
  1
VISUALSTYLE
  2
AcDbVisualStyle
  3
ObjectDBX Classes
 90
     4095
280
     0
281
     0
  0
CLASS
  1
MATERIAL
  2
AcDbMaterial
  3
ObjectDBX Classes
 90
     1153
280
     0
281
     0
  0
CLASS
  1
SCALE
  2
AcDbScale
  3
ObjectDBX Classes
 90
     1153
280
     0
281
     0
  0
CLASS
  1
TABLESTYLE
  2
AcDbTableStyle
  3
ObjectDBX Classes
 90
     4095
280
     0
281
     0
  0
CLASS
  1
MLEADERSTYLE
  2
AcDbMLeaderStyle
  3
ACDB_MLEADERSTYLE_CLASS
 90
     4095
280
     0
281
     0
  0
CLASS
  1
SUN
  2
AcDbSun
  3
SCENEOE
 90
     1153
280
     0
281
     0
  0
CLASS
  1
ACDBPLACEHOLDER
  2
AcDbPlaceHolder
  3
ObjectDBX Classes
 90
        0
280
     0
281
     0
  0
CLASS
  1
LAYOUT
  2
AcDbLayout
  3
ObjectDBX Classes
 90
        0
280
     0
281
     0
  0
ENDSEC
  0
SECTION
  2
TABLES
  0
TABLE
  2
VPORT
  5
8
330
0
100
AcDbSymbolTable
 70
     1
  0
VPORT
  5
29
330
8
100
AcDbSymbolTableRecord
100
AcDbViewportTableRecord
  2
*Active
 70
     0
 10
0.0
 20
0.0
 11
1.0
 21
1.0
 12
1200.0
 22
600.0
 13
0.0
 23
0.0
 14
10.0
 24
10.0
 15
10.0
 25
10.0
 16
0.0
 26
0.0
 36
1.0
 17
0.0
 27
0.0
 37
0.0
 40
1200.0
 41
2.0
 42
50.0
 43
0.0
 44
0.0
 50
0.0
 51
0.0
 71
     0
 72
  2000
 73
     1
 74
     3
 75
     0
 76
     0
 77
     0
 78
     0
281
     0
 65
     1
110
0.0
120
0.0
130
0.0
111
1.0
121
0.0
131
0.0
112
0.0
122
1.0
132
0.0
 79
     0
146
0.0
  0
ENDTAB
  0
TABLE
  2
LTYPE
  5
5
330
0
100
AcDbSymbolTable
 70
     6
  0
LTYPE
  5
14
330
5
100
AcDbSymbolTableRecord
100
AcDbLinetypeTableRecord
  2
ByBlock
 70
     0
  3

 72
    65
 73
     0
 40
0.0
  0
LTYPE
  5
15
330
5
100
AcDbSymbolTableRecord
100
AcDbLinetypeTableRecord
  2
ByLayer
 70
     0
  3

 72
    65
 73
     0
 40
0.0
  0
LTYPE
  5
16
330
5
100
AcDbSymbolTableRecord
100
AcDbLinetypeTableRecord
  2
Continuous
 70
     0
  3
Solid line
 72
    65
 73
     0
 40
0.0
  0
LTYPE
  5
6E
330
5
100
AcDbSymbolTableRecord
100
AcDbLinetypeTableRecord
  2
HIDDEN
 70
     0
  3
Hidden __ __ __ __ __ __ __ __ __ __ __ __ __ __
 72
    65
 73
     2
 40
1.905
 49
1.27
 74
     0
 49
-0.635
 74
     0
  0
LTYPE
  5
6F
330
5
100
AcDbSymbolTableRecord
100
AcDbLinetypeTableRecord
  2
PHANTOM
 70
     0
  3
Phantom ______  __  __  ______  __  __  ______
 72
    65
 73
     6
 40
12.7
 49
6.35
 74
     0
 49
-1.27
 74
     0
 49
1.27
 74
     0
 49
-1.27
 74
     0
 49
1.27
 74
     0
 49
-1.27
 74
     0
  0
LTYPE
  5
70
330
5
100
AcDbSymbolTableRecord
100
AcDbLinetypeTableRecord
  2
CENTER
 70
     0
  3
Center ____ _ ____ _ ____ _ ____ _ ____ _ ____
 72
    65
 73
     4
 40
10.16
 49
6.35
 74
     0
 49
-1.27
 74
     0
 49
1.27
 74
     0
 49
-1.27
 74
     0
  0
LTYPE
  5
71
330
5
100
AcDbSymbolTableRecord
100
AcDbLinetypeTableRecord
  2
CENTERX2
 70
     0
  3
Center (2x) ________  __  ________  __  _____
 72
    65
 73
     4
 40
20.32
 49
12.7
 74
     0
 49
-2.54
 74
     0
 49
2.54
 74
     0
 49
-2.54
 74
     0
  0
LTYPE
  5
72
330
5
100
AcDbSymbolTableRecord
100
AcDbLinetypeTableRecord
  2
DOT2
 70
     0
  3
Dot (.5x) ........................................
 72
    65
 73
     2
 40
0.635
 49
0.0
 74
     0
 49
-0.635
 74
     0
  0
ENDTAB
  0
TABLE
  2
LAYER
  5
2
330
0
100
AcDbSymbolTable
 70
     2
  0
LAYER
  5
10
330
2
100
AcDbSymbolTableRecord
100
AcDbLayerTableRecord
  2
0
 70
     0
 62
     7
  6
Continuous
370
    -3
390
F
  0
LAYER
  5
73
330
2
100
AcDbSymbolTableRecord
100
AcDbLayerTableRecord
  2
FORMAT
 70
     0
 62
     7
  6
Continuous
370
    -3
390
F
  0
ENDTAB
  0
TABLE
  2
STYLE
  5
3
330
0
100
AcDbSymbolTable
 70
     1
  0
STYLE
  5
11
330
3
100
AcDbSymbolTableRecord
100
AcDbTextStyleTableRecord
  2
Standard
 70
     0
 40
0.0
 41
1.0
 50
0.0
 71
     0
 42
3.5
  3
txt
  4

  0
ENDTAB
  0
TABLE
  2
VIEW
  5
6
330
0
100
AcDbSymbolTable
 70
     0
  0
ENDTAB
  0
TABLE
  2
UCS
  5
7
330
0
100
AcDbSymbolTable
 70
     0
  0
ENDTAB
  0
TABLE
  2
APPID
  5
9
330
0
100
AcDbSymbolTable
 70
     1
  0
APPID
  5
12
330
9
100
AcDbSymbolTableRecord
100
AcDbRegAppTableRecord
  2
ACAD
 70
     0
  0
ENDTAB
  0
TABLE
  2
DIMSTYLE
  5
A
330
0
100
AcDbSymbolTable
 70
     1
100
AcDbDimStyleTable
  0
DIMSTYLE
105
27
330
A
100
AcDbSymbolTableRecord
100
AcDbDimStyleTableRecord
  2
ISO-25
 70
     0
 41
2.5
 42
0.625
 43
3.75
 44
1.25
 73
     0
 74
     0
 77
     1
 78
     8
140
2.5
141
2.5
143
0.0393700787
147
0.625
171
     3
172
     1
178
     0
271
     2
272
     2
274
     3
278
    44
283
     0
284
     8
340
11
  0
ENDTAB
  0
TABLE
  2
BLOCK_RECORD
  5
1
330
0
100
AcDbSymbolTable
 70
     1
  0
BLOCK_RECORD
  5
1F
330
1
100
AcDbSymbolTableRecord
100
AcDbBlockTableRecord
  2
*Model_Space
340
22
  0
BLOCK_RECORD
  5
1B
330
1
100
AcDbSymbolTableRecord
100
AcDbBlockTableRecord
  2
*Paper_Space
340
1E
  0
BLOCK_RECORD
  5
23
330
1
100
AcDbSymbolTableRecord
100
AcDbBlockTableRecord
  2
*Paper_Space0
340
26
  0
ENDTAB
  0
ENDSEC
  0
SECTION
  2
BLOCKS
  0
BLOCK
  5
20
330
1F
100
AcDbEntity
  8
0
100
AcDbBlockBegin
  2
*Model_Space
 70
     0
 10
0.0
 20
0.0
 30
0.0
  3
*Model_Space
  1

  0
ENDBLK
  5
21
330
1F
100
AcDbEntity
  8
0
100
AcDbBlockEnd
  0
BLOCK
  5
1C
330
1B
100
AcDbEntity
 67
     1
  8
0
100
AcDbBlockBegin
  2
*Paper_Space
 70
     0
 10
0.0
 20
0.0
 30
0.0
  3
*Paper_Space
  1

  0
ENDBLK
  5
1D
330
1B
100
AcDbEntity
 67
     1
  8
0
100
AcDbBlockEnd
  0
BLOCK
  5
24
330
23
100
AcDbEntity
  8
0
100
AcDbBlockBegin
  2
*Paper_Space0
 70
     0
 10
0.0
 20
0.0
 30
0.0
  3
*Paper_Space0
  1

  0
ENDBLK
  5
25
330
23
100
AcDbEntity
  8
0
100
AcDbBlockEnd
  0
ENDSEC
  0
SECTION
  2
ENTITIES
  0
CIRCLE
  5
74
330
1F
100
AcDbEntity
  8
0
  6
Continuous
 62
     7
370
    25
100
AcDbCircle
 10
1627.3360698917
 20
312.1744737402
 30
0.0
 40
4.216399999999794
  0
CIRCLE
  5
75
330
1F
100
AcDbEntity
  8
0
  6
Continuous
 62
     7
370
    25
100
AcDbCircle
 10
1627.3360698917
 20
312.1744737402
 30
0.0
 40
2.457450000000108
  0
CIRCLE
  5
76
330
1F
100
AcDbEntity
  8
0
  6
Continuous
 62
     7
370
    25
100
AcDbCircle
 10
1322.7217458163
 20
301.5371071451
 30
0.0
 40
4.216399999999794
  0
CIRCLE
  5
77
330
1F
100
AcDbEntity
  8
0
  6
Continuous
 62
     7
370
    25
100
AcDbCircle
 10
1322.7217458163
 20
301.5371071451
 30
0.0
 40
2.457450000000108
  0
CIRCLE
  5
78
330
1F
100
AcDbEntity
  8
0
  6
Continuous
 62
     7
370
    25
100
AcDbCircle
 10
1703.4896509106
 20
314.833815389
 30
0.0
 40
4.216399999999794
  0
CIRCLE
  5
79
330
1F
100
AcDbEntity
  8
0
  6
Continuous
 62
     7
370
    25
100
AcDbCircle
 10
1703.4896509106
 20
314.833815389
 30
0.0
 40
2.457450000000108
  0
CIRCLE
  5
7A
330
1F
100
AcDbEntity
  8
0
  6
Continuous
 62
     7
370
    25
100
AcDbCircle
 10
1398.8753268352
 20
304.1964487939
 30
0.0
 40
4.216399999999737
  0
CIRCLE
  5
7B
330
1F
100
AcDbEntity
  8
0
  6
Continuous
 62
     7
370
    25
100
AcDbCircle
 10
1398.8753268352
 20
304.1964487939
 30
0.0
 40
2.457450000000051
  0
CIRCLE
  5
7C
330
1F
100
AcDbEntity
  8
0
  6
Continuous
 62
     7
370
    25
100
AcDbCircle
 10
2008.103974986
 20
325.4711819841
 30
0.0
 40
4.216399999999794
  0
CIRCLE
  5
7D
330
1F
100
AcDbEntity
  8
0
  6
Continuous
 62
     7
370
    25
100
AcDbCircle
 10
2008.103974986
 20
325.4711819841
 30
0.0
 40
2.457450000000108
  0
CIRCLE
  5
7E
330
1F
100
AcDbEntity
  8
0
  6
Continuous
 62
     7
370
    25
100
AcDbCircle
 10
1475.028907854
 20
306.8557904427
 30
0.0
 40
4.216399999999737
  0
CIRCLE
  5
7F
330
1F
100
AcDbEntity
  8
0
  6
Continuous
 62
     7
370
    25
100
AcDbCircle
 10
1475.028907854
 20
306.8557904427
 30
0.0
 40
2.457450000000051
  0
CIRCLE
  5
80
330
1F
100
AcDbEntity
  8
0
  6
Continuous
 62
     7
370
    25
100
AcDbCircle
 10
2089.3941817816
 20
273.4778081988
 30
0.0
 40
4.216399999999794
  0
CIRCLE
  5
81
330
1F
100
AcDbEntity
  8
0
  6
Continuous
 62
     7
370
    25
100
AcDbCircle
 10
2089.3941817816
 20
273.4778081988
 30
0.0
 40
2.457450000000108
  0
LINE
  5
82
330
1F
100
AcDbEntity
  8
0
  6
Continuous
 62
     7
370
    25
100
AcDbLine
 10
1290.7097178343
 20
316.9615959729
 30
0.0
 11
2076.9610380939
 21
343.7603981148
 31
0.0
  0
LINE
  5
83
330
1F
100
AcDbEntity
  8
0
  6
Continuous
 62
     7
370
    25
100
AcDbLine
 10
2076.9610380939
 20
343.7603981148
 30
0.0
 11
2098.9191821548
 21
292.0302524797
 31
0.0
  0
LINE
  5
84
330
1F
100
AcDbEntity
  8
0
  6
Continuous
 62
     7
370
    25
100
AcDbLine
 10
2098.9191821548
 20
292.0302524797
 30
0.0
 11
2098.9191821548
 21
240.7615959729
 31
0.0
  0
LINE
  5
85
330
1F
100
AcDbEntity
  8
0
  6
Continuous
 62
     7
370
    25
100
AcDbLine
 10
2079.8691823374
 20
240.7615959729
 30
0.0
 11
2098.9191821548
 21
240.7615959729
 31
0.0
  0
LINE
  5
86
330
1F
100
AcDbEntity
  8
0
  6
Continuous
 62
     7
370
    25
100
AcDbLine
 10
2079.8691823374
 20
240.7615959729
 30
0.0
 11
2079.8691823374
 21
12.5415939206
 31
0.0
  0
LINE
  5
87
330
1F
100
AcDbEntity
  8
0
  6
Continuous
 62
     7
370
    25
100
AcDbLine
 10
1432.7533823374
 20
12.5415942939
 30
0.0
 11
2079.8691823374
 21
12.5415939206
 31
0.0
  0
LINE
  5
88
330
1F
100
AcDbEntity
  8
0
  6
Continuous
 62
     7
370
    25
100
AcDbLine
 10
1413.7033823374
 20
12.5415939188
 30
0.0
 11
1432.7533823374
 21
12.5415942939
 31
0.0
  0
LINE
  5
89
330
1F
100
AcDbEntity
  8
0
  6
Continuous
 62
     7
370
    25
100
AcDbLine
 10
1413.7033823374
 20
12.5415939188
 30
0.0
 11
1290.7097178343
 21
316.9615959729
 31
0.0
  0
CIRCLE
  5
8A
330
1F
100
AcDbEntity
  8
0
  6
Continuous
 62
     7
370
    25
100
AcDbCircle
 10
1551.1824888729
 20
309.5151320914
 30
0.0
 40
4.216399999999794
  0
CIRCLE
  5
8B
330
1F
100
AcDbEntity
  8
0
  6
Continuous
 62
     7
370
    25
100
AcDbCircle
 10
1759.1941821232
 20
200.1823986711
 30
0.0
 40
4.216399999999794
  0
CIRCLE
  5
8C
330
1F
100
AcDbEntity
  8
0
  6
Continuous
 62
     7
370
    25
100
AcDbCircle
 10
1759.1941821232
 20
75.0885290082
 30
0.0
 40
4.216399999999794
  0
CIRCLE
  5
8D
330
1F
100
AcDbEntity
  8
0
  6
Continuous
 62
     7
370
    25
100
AcDbCircle
 10
1594.0941823374
 20
200.1823984979
 30
0.0
 40
4.216399999999766
  0
CIRCLE
  5
8E
330
1F
100
AcDbEntity
  8
0
  6
Continuous
 62
     7
370
    25
100
AcDbCircle
 10
1594.0941823374
 20
75.0885287713
 30
0.0
 40
4.216399999999794
  0
CIRCLE
  5
8F
330
1F
100
AcDbEntity
  8
0
  6
Continuous
 62
     7
370
    25
100
AcDbCircle
 10
1423.2283823374
 20
75.088528967
 30
0.0
 40
4.216399999999794
  0
CIRCLE
  5
90
330
1F
100
AcDbEntity
  8
0
  6
Continuous
 62
     7
370
    25
100
AcDbCircle
 10
1423.2283823374
 20
200.1823985632
 30
0.0
 40
4.216399999999766
  0
CIRCLE
  5
91
330
1F
100
AcDbEntity
  8
0
  6
Continuous
 62
     7
370
    25
100
AcDbCircle
 10
1759.1941821232
 20
200.1823986711
 30
0.0
 40
2.457450000000108
  0
CIRCLE
  5
92
330
1F
100
AcDbEntity
  8
0
  6
Continuous
 62
     7
370
    25
100
AcDbCircle
 10
1423.2283823374
 20
200.1823985632
 30
0.0
 40
2.45745000000008
  0
CIRCLE
  5
93
330
1F
100
AcDbEntity
  8
0
  6
Continuous
 62
     7
370
    25
100
AcDbCircle
 10
1759.1941821232
 20
75.0885290082
 30
0.0
 40
2.457450000000094
  0
CIRCLE
  5
94
330
1F
100
AcDbEntity
  8
0
  6
Continuous
 62
     7
370
    25
100
AcDbCircle
 10
1423.2283823374
 20
75.088528967
 30
0.0
 40
2.457450000000094
  0
CIRCLE
  5
95
330
1F
100
AcDbEntity
  8
0
  6
Continuous
 62
     7
370
    25
100
AcDbCircle
 10
1594.0941823374
 20
200.1823984979
 30
0.0
 40
2.45745000000008
  0
CIRCLE
  5
96
330
1F
100
AcDbEntity
  8
0
  6
Continuous
 62
     7
370
    25
100
AcDbCircle
 10
1594.0941823374
 20
75.0885287713
 30
0.0
 40
2.45745000000008
  0
CIRCLE
  5
97
330
1F
100
AcDbEntity
  8
0
  6
Continuous
 62
     7
370
    25
100
AcDbCircle
 10
1551.1824888729
 20
309.5151320914
 30
0.0
 40
2.457450000000051
  0
LINE
  5
98
330
1F
100
AcDbEntity
  8
0
  6
Continuous
 62
     7
370
    25
100
AcDbLine
 10
1642.9457924281
 20
1186.9309482806
 30
0.0
 11
1680.8359399241
 21
1143.4387317197
 31
0.0
  0
LINE
  5
99
330
1F
100
AcDbEntity
  8
0
  6
Continuous
 62
     7
370
    25
100
AcDbLine
 10
1680.8359399241
 20
1143.4387317197
 30
0.0
 11
596.0398685155
 21
857.414923106
 31
0.0
  0
LINE
  5
9A
330
1F
100
AcDbEntity
  8
0
  6
Continuous
 62
     7
370
    25
100
AcDbLine
 10
596.0398685155
 20
857.414923106
 30
0.0
 11
592.7539606075
 21
888.3552281723
 31
0.0
  0
LINE
  5
9B
330
1F
100
AcDbEntity
  8
0
  6
Continuous
 62
     7
370
    25
100
AcDbLine
 10
766.1086362465
 20
922.2328398328
 30
0.0
 11
592.7539606075
 21
888.3552281723
 31
0.0
  0
ARC
  5
9C
330
1F
100
AcDbEntity
  8
0
  6
Continuous
 62
     7
370
    25
100
AcDbCircle
 10
741.7681544045
 20
1046.7852150616
 30
0.0
 40
126.9084442873565
100
AcDbArc
 50
281.057592227
 51
284.7707834949
  0
LINE
  5
9D
330
1F
100
AcDbEntity
  8
0
  6
Continuous
 62
     7
370
    25
100
AcDbLine
 10
1430.0216240426
 20
1097.0085822378
 30
0.0
 11
774.1238072246
 21
924.0706480289
 31
0.0
  0
ARC
  5
9E
330
1F
100
AcDbEntity
  8
0
  6
Continuous
 62
     7
370
    25
100
AcDbCircle
 10
1397.665677758
 20
1219.7240850652
 30
0.0
 40
126.9094239769779
100
AcDbArc
 50
284.7708038937
 51
294.3895220439
  0
LINE
  5
9F
330
1F
100
AcDbEntity
  8
0
  6
Continuous
 62
     7
370
    25
100
AcDbLine
 10
1608.669126233
 20
1176.048219506
 30
0.0
 11
1450.0713864749
 21
1104.1401606291
 31
0.0
  0
ARC
  5
A0
330
1F
100
AcDbEntity
  8
0
  6
Continuous
 62
     7
370
    25
100
AcDbCircle
 10
1661.0748349499
 20
1060.4642950698
 30
0.0
 40
126.9094239770673
100
AcDbArc
 50
104.7708038937
 51
114.3895220439
  0
LINE
  5
A1
330
1F
100
AcDbEntity
  8
0
  6
Continuous
 62
     7
370
    25
100
AcDbLine
 10
1642.9457924281
 20
1186.9309482806
 30
0.0
 11
1628.7188886653
 21
1183.1797978974
 31
0.0
  0
CIRCLE
  5
A2
330
1F
100
AcDbEntity
  8
0
  6
Continuous
 62
     7
370
    25
100
AcDbCircle
 10
632.1555159408
 20
877.2792982334
 30
0.0
 40
4.215970367679198
  0
CIRCLE
  5
A3
330
1F
100
AcDbEntity
  8
0
  6
Continuous
 62
     7
370
    25
100
AcDbCircle
 10
709.4838561844
 20
897.6681500859
 30
0.0
 40
4.215970367678514
  0
CIRCLE
  5
A4
330
1F
100
AcDbEntity
  8
0
  6
Continuous
 62
     7
370
    25
100
AcDbCircle
 10
788.5114180319
 20
918.5050288513
 30
0.0
 40
4.215970367678551
  0
CIRCLE
  5
A5
330
1F
100
AcDbEntity
  8
0
  6
Continuous
 62
     7
370
    25
100
AcDbCircle
 10
880.8837432283
 20
942.8604675918
 30
0.0
 40
4.21597036767877
  0
CIRCLE
  5
A6
330
1F
100
AcDbEntity
  8
0
  6
Continuous
 62
     7
370
    25
100
AcDbCircle
 10
1108.6971455592
 20
1002.9271093368
 30
0.0
 40
4.215970367678662
  0
CIRCLE
  5
A7
330
1F
100
AcDbEntity
  8
0
  6
Continuous
 62
     7
370
    25
100
AcDbCircle
 10
1219.5417246028
 20
1032.1530528094
 30
0.0
 40
4.215970367678551
  0
CIRCLE
  5
A8
330
1F
100
AcDbEntity
  8
0
  6
Continuous
 62
     7
370
    25
100
AcDbCircle
 10
1268.7900091183
 20
1045.1381495257
 30
0.0
 40
4.215970367678841
  0
CIRCLE
  5
A9
330
1F
100
AcDbEntity
  8
0
  6
Continuous
 62
     7
370
    25
100
AcDbCircle
 10
1385.2255239131
 20
1075.8382324973
 30
0.0
 40
4.215970367678591
  0
CIRCLE
  5
AA
330
1F
100
AcDbEntity
  8
0
  6
Continuous
 62
     7
370
    25
100
AcDbCircle
 10
1434.4738084481
 20
1088.8233292187
 30
0.0
 40
4.2159703676787
  0
CIRCLE
  5
AB
330
1F
100
AcDbEntity
  8
0
  6
Continuous
 62
     7
370
    25
100
AcDbCircle
 10
1632.7137105993
 20
1169.6849984438
 30
0.0
 40
4.215970367678344
  0
CIRCLE
  5
AC
330
1F
100
AcDbEntity
  8
0
  6
Continuous
 62
     7
370
    25
100
AcDbCircle
 10
1646.2099484171
 20
1154.1933380328
 30
0.0
 40
4.215970367678594
  0
LINE
  5
AD
330
1F
100
AcDbEntity
  8
0
  6
Continuous
 62
     7
370
    25
100
AcDbLine
 10
595.8748515815
 20
857.371413756
 30
0.0
 11
596.0398685155
 21
857.414923106
 31
0.0
  0
LINE
  5
AE
330
1F
100
AcDbEntity
  8
0
  6
Continuous
 62
     7
370
    25
100
AcDbLine
 10
595.8748515815
 20
857.371413756
 30
0.0
 11
592.5889436735
 21
888.3117188223
 31
0.0
  0
LINE
  5
AF
330
1F
100
AcDbEntity
  8
0
  6
Continuous
 62
     7
370
    25
100
AcDbLine
 10
592.5889436735
 20
888.3117188223
 30
0.0
 11
592.7539606075
 21
888.3552281723
 31
0.0
  0
CIRCLE
  5
B0
330
1F
100
AcDbEntity
  8
0
  6
Continuous
 62
     7
370
    25
100
AcDbCircle
 10
632.1166722817
 20
877.2690534497
 30
0.0
 40
2.457147196087258
  0
ARC
  5
B1
330
1F
100
AcDbEntity
  8
0
  6
Continuous
 62
     7
370
    25
100
AcDbCircle
 10
631.989279669
 20
877.2348070386
 30
0.0
 40
2.456955717706049
100
AcDbArc
 50
284.7790009836
 51
19.0730566459
  0
ARC
  5
B2
330
1F
100
AcDbEntity
  8
0
  6
Continuous
 62
     7
370
    25
100
AcDbCircle
 10
631.9889891874
 20
877.2358064529
 30
0.0
 40
2.45690389051222
100
AcDbArc
 50
19.0488158565
 51
104.761959893
  0
CIRCLE
  5
B3
330
1F
100
AcDbEntity
  8
0
  6
Continuous
 62
     7
370
    25
100
AcDbCircle
 10
709.4450125252
 20
897.6579053023
 30
0.0
 40
2.457147196087229
  0
ARC
  5
B4
330
1F
100
AcDbEntity
  8
0
  6
Continuous
 62
     7
370
    25
100
AcDbCircle
 10
709.3176199126
 20
897.6236588912
 30
0.0
 40
2.456955717705661
100
AcDbArc
 50
284.7790009836
 51
19.0730566459
  0
ARC
  5
B5
330
1F
100
AcDbEntity
  8
0
  6
Continuous
 62
     7
370
    25
100
AcDbCircle
 10
709.3173294309
 20
897.6246583054
 30
0.0
 40
2.456903890511354
100
AcDbArc
 50
19.0488158565
 51
104.761959893
  0
CIRCLE
  5
B6
330
1F
100
AcDbEntity
  8
0
  6
Continuous
 62
     7
370
    25
100
AcDbCircle
 10
788.4725743727
 20
918.4947840676
 30
0.0
 40
2.457147196087222
  0
ARC
  5
B7
330
1F
100
AcDbEntity
  8
0
  6
Continuous
 62
     7
370
    25
100
AcDbCircle
 10
788.3451618533
 20
918.4605409889
 30
0.0
 40
2.456973442789955
100
AcDbArc
 50
286.3070009901
 51
19.0728315069
  0
ARC
  5
B8
330
1F
100
AcDbEntity
  8
0
  6
Continuous
 62
     7
370
    25
100
AcDbCircle
 10
788.3448755896
 20
918.461523517
 30
0.0
 40
2.45692314381355
100
AcDbArc
 50
19.0489952152
 51
103.2339232784
  0
CIRCLE
  5
B9
330
1F
100
AcDbEntity
  8
0
  6
Continuous
 62
     7
370
    25
100
AcDbCircle
 10
880.8448995691
 20
942.8502228082
 30
0.0
 40
2.457147196087631
  0
ARC
  5
BA
330
1F
100
AcDbEntity
  8
0
  6
Continuous
 62
     7
370
    25
100
AcDbCircle
 10
880.7175069565
 20
942.8159763971
 30
0.0
 40
2.456955717707508
100
AcDbArc
 50
284.7790009836
 51
19.0730566458
  0
ARC
  5
BB
330
1F
100
AcDbEntity
  8
0
  6
Continuous
 62
     7
370
    25
100
AcDbCircle
 10
880.7172164749
 20
942.8169758113
 30
0.0
 40
2.456903890510961
100
AcDbArc
 50
19.0488158565
 51
104.761959893
  0
CIRCLE
  5
BC
330
1F
100
AcDbEntity
  8
0
  6
Continuous
 62
     7
370
    25
100
AcDbCircle
 10
1108.6583019
 20
1002.9168645532
 30
0.0
 40
2.457147196086903
  0
ARC
  5
BD
330
1F
100
AcDbEntity
  8
0
  6
Continuous
 62
     7
370
    25
100
AcDbCircle
 10
1108.5309092874
 20
1002.8826181421
 30
0.0
 40
2.456955717708624
100
AcDbArc
 50
284.7790009836
 51
19.0730566458
  0
ARC
  5
BE
330
1F
100
AcDbEntity
  8
0
  6
Continuous
 62
     7
370
    25
100
AcDbCircle
 10
1108.5306188058
 20
1002.8836175563
 30
0.0
 40
2.456903890513441
100
AcDbArc
 50
19.0488158566
 51
104.761959893
  0
CIRCLE
  5
BF
330
1F
100
AcDbEntity
  8
0
  6
Continuous
 62
     7
370
    25
100
AcDbCircle
 10
1219.5028809436
 20
1032.1428080257
 30
0.0
 40
2.457147196086054
  0
CIRCLE
  5
C0
330
1F
100
AcDbEntity
  8
0
  6
Continuous
 62
     7
370
    25
100
AcDbCircle
 10
1268.7511654592
 20
1045.1279047421
 30
0.0
 40
2.457147196087015
  0
ARC
  5
C1
330
1F
100
AcDbEntity
  8
0
  6
Continuous
 62
     7
370
    25
100
AcDbCircle
 10
1219.375468425
 20
1032.1085649469
 30
0.0
 40
2.456973442069178
100
AcDbArc
 50
286.3069393492
 51
19.0728315161
  0
ARC
  5
C2
330
1F
100
AcDbEntity
  8
0
  6
Continuous
 62
     7
370
    25
100
AcDbCircle
 10
1219.3751821611
 20
1032.1095474757
 30
0.0
 40
2.456923143035215
100
AcDbArc
 50
19.048995208
 51
103.2339847374
  0
ARC
  5
C3
330
1F
100
AcDbEntity
  8
0
  6
Continuous
 62
     7
370
    25
100
AcDbCircle
 10
1268.6237529396
 20
1045.0936616634
 30
0.0
 40
2.456973442931695
100
AcDbArc
 50
286.3070132828
 51
19.0728315052
  0
ARC
  5
C4
330
1F
100
AcDbEntity
  8
0
  6
Continuous
 62
     7
370
    25
100
AcDbCircle
 10
1268.623466676
 20
1045.0946441913
 30
0.0
 40
2.456923143969903
100
AcDbArc
 50
19.0489952167
 51
103.2339110176
  0
CIRCLE
  5
C5
330
1F
100
AcDbEntity
  8
0
  6
Continuous
 62
     7
370
    25
100
AcDbCircle
 10
1385.186680254
 20
1075.8279877137
 30
0.0
 40
2.457147196087362
  0
CIRCLE
  5
C6
330
1F
100
AcDbEntity
  8
0
  6
Continuous
 62
     7
370
    25
100
AcDbCircle
 10
1434.434964789
 20
1088.8130844351
 30
0.0
 40
2.457147196087941
  0
LINE
  5
C7
330
1F
100
AcDbEntity
  8
0
  6
Continuous
 62
     7
370
    25
100
AcDbLine
 10
1449.9063695408
 20
1104.0966512791
 30
0.0
 11
1450.0713864749
 21
1104.1401606291
 31
0.0
  0
ARC
  5
C8
330
1F
100
AcDbEntity
  8
0
  6
Continuous
 62
     7
370
    25
100
AcDbCircle
 10
1397.500660824
 20
1219.6805757154
 30
0.0
 40
126.9094239771204
100
AcDbArc
 50
284.7708038937
 51
294.3895220439
  0
ARC
  5
C9
330
1F
100
AcDbEntity
  8
0
  6
Continuous
 62
     7
370
    25
100
AcDbCircle
 10
1385.0592876414
 20
1075.7937413026
 30
0.0
 40
2.45695571770628
100
AcDbArc
 50
284.7790009836
 51
19.0730566459
  0
ARC
  5
CA
330
1F
100
AcDbEntity
  8
0
  6
Continuous
 62
     7
370
    25
100
AcDbCircle
 10
1385.0589971597
 20
1075.7947407168
 30
0.0
 40
2.456903890512509
100
AcDbArc
 50
19.0488158565
 51
104.761959893
  0
LINE
  5
CB
330
1F
100
AcDbEntity
  8
0
  6
Continuous
 62
     7
370
    25
100
AcDbLine
 10
1608.669126233
 20
1176.048219506
 30
0.0
 11
1608.504109299
 21
1176.004710156
 31
0.0
  0
LINE
  5
CC
330
1F
100
AcDbEntity
  8
0
  6
Continuous
 62
     7
370
    25
100
AcDbLine
 10
1608.504109299
 20
1176.004710156
 30
0.0
 11
1449.9063695408
 21
1104.0966512791
 31
0.0
  0
ARC
  5
CD
330
1F
100
AcDbEntity
  8
0
  6
Continuous
 62
     7
370
    25
100
AcDbCircle
 10
1434.3075721764
 20
1088.778838024
 30
0.0
 40
2.456955717705409
100
AcDbArc
 50
284.7790009836
 51
19.0730566459
  0
ARC
  5
CE
330
1F
100
AcDbEntity
  8
0
  6
Continuous
 62
     7
370
    25
100
AcDbCircle
 10
1434.3072816947
 20
1088.7798374382
 30
0.0
 40
2.456903890511028
100
AcDbArc
 50
19.0488158565
 51
104.761959893
  0
LINE
  5
CF
330
1F
100
AcDbEntity
  8
0
  6
Continuous
 62
     7
370
    25
100
AcDbLine
 10
1628.5538717313
 20
1183.1362885474
 30
0.0
 11
1628.7188886653
 21
1183.1797978974
 31
0.0
  0
ARC
  5
D0
330
1F
100
AcDbEntity
  8
0
  6
Continuous
 62
     7
370
    25
100
AcDbCircle
 10
1660.9098180158
 20
1060.42078572
 30
0.0
 40
126.9094239768276
100
AcDbArc
 50
104.7708038937
 51
114.3895220439
  0
CIRCLE
  5
D1
330
1F
100
AcDbEntity
  8
0
  6
Continuous
 62
     7
370
    25
100
AcDbCircle
 10
1632.6748669402
 20
1169.6747536602
 30
0.0
 40
2.457147196087436
  0
CIRCLE
  5
D2
330
1F
100
AcDbEntity
  8
0
  6
Continuous
 62
     7
370
    25
100
AcDbCircle
 10
1646.1711047579
 20
1154.1830932492
 30
0.0
 40
2.457147196087147
  0
ARC
  5
D3
330
1F
100
AcDbEntity
  8
0
  6
Continuous
 62
     7
370
    25
100
AcDbCircle
 10
1632.5474544198
 20
1169.6405105816
 30
0.0
 40
2.456973443610123
100
AcDbArc
 50
286.307071404
 51
19.0728314965
  0
ARC
  5
D4
330
1F
100
AcDbEntity
  8
0
  6
Continuous
 62
     7
370
    25
100
AcDbCircle
 10
1632.5471681563
 20
1169.6414931089
 30
0.0
 40
2.456923144704761
100
AcDbArc
 50
19.0489952235
 51
103.2338530672
  0
ARC
  5
D5
330
1F
100
AcDbEntity
  8
0
  6
Continuous
 62
     7
370
    25
100
AcDbCircle
 10
1646.0437121453
 20
1154.1488468381
 30
0.0
 40
2.456955717708805
100
AcDbArc
 50
284.7790009836
 51
19.0730566458
  0
ARC
  5
D6
330
1F
100
AcDbEntity
  8
0
  6
Continuous
 62
     7
370
    25
100
AcDbCircle
 10
1646.0434216636
 20
1154.1498462524
 30
0.0
 40
2.456903890513007
100
AcDbArc
 50
19.0488158566
 51
104.761959893
  0
ARC
  5
D7
330
1F
100
AcDbEntity
  8
0
  6
HIDDEN
 62
     7
370
    18
100
AcDbCircle
 10
631.990081764
 20
877.2355297248
 30
0.0
 40
2.457450075090413
100
AcDbArc
 50
104.7849486716
 51
284.756620546
  0
ARC
  5
D8
330
1F
100
AcDbEntity
  8
0
  6
HIDDEN
 62
     7
370
    18
100
AcDbCircle
 10
709.3184220076
 20
897.6243815773
 30
0.0
 40
2.457450075090486
100
AcDbArc
 50
104.7849486716
 51
284.7566205459
  0
LINE
  5
D9
330
1F
100
AcDbEntity
  8
0
  6
HIDDEN
 62
     7
370
    18
100
AcDbLine
 10
773.9587902906
 20
924.0271386789
 30
0.0
 11
774.1238072246
 21
924.0706480289
 31
0.0
  0
ARC
  5
DA
330
1F
100
AcDbEntity
  8
0
  6
HIDDEN
 62
     7
370
    18
100
AcDbCircle
 10
741.6031374707
 20
1046.7417057109
 30
0.0
 40
126.9084442866061
100
AcDbArc
 50
281.057592227
 51
284.7707834949
  0
LINE
  5
DB
330
1F
100
AcDbEntity
  8
0
  6
HIDDEN
 62
     7
370
    18
100
AcDbLine
 10
766.1086362465
 20
922.2328398328
 30
0.0
 11
765.9436193125
 21
922.1893304828
 31
0.0
  0
LINE
  5
DC
330
1F
100
AcDbEntity
  8
0
  6
HIDDEN
 62
     7
370
    18
100
AcDbLine
 10
765.9436193125
 20
922.1893304828
 30
0.0
 11
592.5889436735
 21
888.3117188223
 31
0.0
  0
ARC
  5
DD
330
1F
100
AcDbEntity
  8
0
  6
HIDDEN
 62
     7
370
    18
100
AcDbCircle
 10
788.3459609667
 20
918.4612543078
 30
0.0
 40
2.457433877613069
100
AcDbArc
 50
103.257120219
 51
286.2844491732
  0
ARC
  5
DE
330
1F
100
AcDbEntity
  8
0
  6
HIDDEN
 62
     7
370
    18
100
AcDbCircle
 10
880.7183090515
 20
942.8166990832
 30
0.0
 40
2.45745007509022
100
AcDbArc
 50
104.7849486716
 51
284.756620546
  0
ARC
  5
DF
330
1F
100
AcDbEntity
  8
0
  6
HIDDEN
 62
     7
370
    18
100
AcDbCircle
 10
1108.5317113824
 20
1002.8833408282
 30
0.0
 40
2.457450075090587
100
AcDbArc
 50
104.7849486716
 51
284.7566205459
  0
ARC
  5
E0
330
1F
100
AcDbEntity
  8
0
  6
HIDDEN
 62
     7
370
    18
100
AcDbCircle
 10
1219.3762675386
 20
1032.1092782661
 30
0.0
 40
2.457433878265579
100
AcDbArc
 50
103.2571816702
 51
286.2843875389
  0
ARC
  5
E1
330
1F
100
AcDbEntity
  8
0
  6
HIDDEN
 62
     7
370
    18
100
AcDbCircle
 10
1268.624552053
 20
1045.0943749822
 30
0.0
 40
2.457433877483029
100
AcDbArc
 50
103.2571079598
 51
286.2844614647
  0
ARC
  5
E2
330
1F
100
AcDbEntity
  8
0
  6
HIDDEN
 62
     7
370
    18
100
AcDbCircle
 10
1385.0600897364
 20
1075.7944639887
 30
0.0
 40
2.457450075090593
100
AcDbArc
 50
104.7849486716
 51
284.7566205459
  0
ARC
  5
E3
330
1F
100
AcDbEntity
  8
0
  6
HIDDEN
 62
     7
370
    18
100
AcDbCircle
 10
1434.3083742714
 20
1088.7795607101
 30
0.0
 40
2.457450075090187
100
AcDbArc
 50
104.7849486716
 51
284.756620546
  0
LINE
  5
E4
330
1F
100
AcDbEntity
  8
0
  6
HIDDEN
 62
     7
370
    18
100
AcDbLine
 10
1642.7807754941
 20
1186.8874389306
 30
0.0
 11
1680.6709229901
 21
1143.3952223696
 31
0.0
  0
ARC
  5
E5
330
1F
100
AcDbEntity
  8
0
  6
HIDDEN
 62
     7
370
    18
100
AcDbCircle
 10
1632.5482535331
 20
1169.6412239
 30
0.0
 40
2.457433876867762
100
AcDbArc
 50
103.2570500168
 51
286.2845195797
  0
ARC
  5
E6
330
1F
100
AcDbEntity
  8
0
  6
HIDDEN
 62
     7
370
    18
100
AcDbCircle
 10
1646.0445142403
 20
1154.1495695242
 30
0.0
 40
2.457450075090825
100
AcDbArc
 50
104.7849486716
 51
284.7566205459
  0
LINE
  5
E7
330
1F
100
AcDbEntity
  8
0
  6
HIDDEN
 62
     7
370
    18
100
AcDbLine
 10
631.489622681
 20
879.6450112031
 30
0.0
 11
631.3629607316
 21
879.6116147574
 31
0.0
  0
LINE
  5
E8
330
1F
100
AcDbEntity
  8
0
  6
HIDDEN
 62
     7
370
    18
100
AcDbLine
 10
632.6160279382
 20
874.859134922
 30
0.0
 11
632.7426898875
 21
874.8925313677
 31
0.0
  0
LINE
  5
E9
330
1F
100
AcDbEntity
  8
0
  6
HIDDEN
 62
     7
370
    18
100
AcDbLine
 10
708.8179629245
 20
900.0338630557
 30
0.0
 11
708.6913009751
 21
900.0004666099
 31
0.0
  0
LINE
  5
EA
330
1F
100
AcDbEntity
  8
0
  6
HIDDEN
 62
     7
370
    18
100
AcDbLine
 10
709.9443681817
 20
895.2479867745
 30
0.0
 11
710.0710301311
 21
895.2813832203
 31
0.0
  0
LINE
  5
EB
330
1F
100
AcDbEntity
  8
0
  6
HIDDEN
 62
     7
370
    18
100
AcDbLine
 10
787.845524772
 20
920.870741821
 30
0.0
 11
787.7188628226
 21
920.8373453753
 31
0.0
  0
LINE
  5
EC
330
1F
100
AcDbEntity
  8
0
  6
HIDDEN
 62
     7
370
    18
100
AcDbLine
 10
788.9719300292
 20
916.0848655399
 30
0.0
 11
789.0985919786
 21
916.1182619856
 31
0.0
  0
LINE
  5
ED
330
1F
100
AcDbEntity
  8
0
  6
HIDDEN
 62
     7
370
    18
100
AcDbLine
 10
880.2178499685
 20
945.2261805616
 30
0.0
 11
880.0911880191
 21
945.1927841158
 31
0.0
  0
LINE
  5
EE
330
1F
100
AcDbEntity
  8
0
  6
HIDDEN
 62
     7
370
    18
100
AcDbLine
 10
881.3442552256
 20
940.4403042804
 30
0.0
 11
881.470917175
 21
940.4737007262
 31
0.0
  0
LINE
  5
EF
330
1F
100
AcDbEntity
  8
0
  6
HIDDEN
 62
     7
370
    18
100
AcDbLine
 10
1108.0312522994
 20
1005.2928223066
 30
0.0
 11
1107.90459035
 21
1005.2594258608
 31
0.0
  0
LINE
  5
F0
330
1F
100
AcDbEntity
  8
0
  6
HIDDEN
 62
     7
370
    18
100
AcDbLine
 10
1109.1576575565
 20
1000.5069460255
 30
0.0
 11
1109.2843195059
 21
1000.5403424712
 31
0.0
  0
LINE
  5
F1
330
1F
100
AcDbEntity
  8
0
  6
HIDDEN
 62
     7
370
    18
100
AcDbLine
 10
1218.8758313429
 20
1034.5187657791
 30
0.0
 11
1218.7491693935
 21
1034.4853693334
 31
0.0
  0
LINE
  5
F2
330
1F
100
AcDbEntity
  8
0
  6
HIDDEN
 62
     7
370
    18
100
AcDbLine
 10
1220.0022366001
 20
1029.732889498
 30
0.0
 11
1220.1288985495
 21
1029.7662859437
 31
0.0
  0
LINE
  5
F3
330
1F
100
AcDbEntity
  8
0
  6
HIDDEN
 62
     7
370
    18
100
AcDbLine
 10
1268.1241158585
 20
1047.5038624955
 30
0.0
 11
1267.9974539091
 21
1047.4704660497
 31
0.0
  0
LINE
  5
F4
330
1F
100
AcDbEntity
  8
0
  6
HIDDEN
 62
     7
370
    18
100
AcDbLine
 10
1269.2505211157
 20
1042.7179862143
 30
0.0
 11
1269.3771830651
 21
1042.7513826601
 31
0.0
  0
LINE
  5
F5
330
1F
100
AcDbEntity
  8
0
  6
HIDDEN
 62
     7
370
    18
100
AcDbLine
 10
1384.5596306533
 20
1078.2039454671
 30
0.0
 11
1384.4329687039
 21
1078.1705490213
 31
0.0
  0
LINE
  5
F6
330
1F
100
AcDbEntity
  8
0
  6
HIDDEN
 62
     7
370
    18
100
AcDbLine
 10
1385.6860359105
 20
1073.4180691859
 30
0.0
 11
1385.8126978599
 21
1073.4514656317
 31
0.0
  0
LINE
  5
F7
330
1F
100
AcDbEntity
  8
0
  6
HIDDEN
 62
     7
370
    18
100
AcDbLine
 10
1433.8079151883
 20
1091.1890421885
 30
0.0
 11
1433.6812532389
 21
1091.1556457427
 31
0.0
  0
LINE
  5
F8
330
1F
100
AcDbEntity
  8
0
  6
HIDDEN
 62
     7
370
    18
100
AcDbLine
 10
1434.9343204455
 20
1086.4031659073
 30
0.0
 11
1435.0609823948
 21
1086.4365623531
 31
0.0
  0
LINE
  5
F9
330
1F
100
AcDbEntity
  8
0
  6
HIDDEN
 62
     7
370
    18
100
AcDbLine
 10
1632.0478173395
 20
1172.0507114136
 30
0.0
 11
1631.9211553901
 21
1172.0173149678
 31
0.0
  0
LINE
  5
FA
330
1F
100
AcDbEntity
  8
0
  6
HIDDEN
 62
     7
370
    18
100
AcDbLine
 10
1633.1742225966
 20
1167.2648351324
 30
0.0
 11
1633.300884546
 21
1167.2982315782
 31
0.0
  0
LINE
  5
FB
330
1F
100
AcDbEntity
  8
0
  6
HIDDEN
 62
     7
370
    18
100
AcDbLine
 10
1645.5440551572
 20
1156.5590510026
 30
0.0
 11
1645.4173932079
 21
1156.5256545569
 31
0.0
  0
LINE
  5
FC
330
1F
100
AcDbEntity
  8
0
  6
HIDDEN
 62
     7
370
    18
100
AcDbLine
 10
1646.6704604144
 20
1151.7731747215
 30
0.0
 11
1646.7971223638
 21
1151.8065711672
 31
0.0
  0
ARC
  5
FD
330
1F
100
AcDbEntity
  8
0
  6
Continuous
 62
     7
370
    25
100
AcDbCircle
 10
702.7633991366
 20
734.5270714969
 30
0.0
 40
126.9094239769596
100
AcDbArc
 50
95.9042320044
 51
105.5229501546
  0
LINE
  5
FE
330
1F
100
AcDbEntity
  8
0
  6
Continuous
 62
     7
370
    25
100
AcDbLine
 10
689.7087333584
 20
860.7632691408
 30
0.0
 11
862.9228720446
 21
878.6762294499
 31
0.0
  0
ARC
  5
FF
330
1F
100
AcDbEntity
  8
0
  6
Continuous
 62
     7
370
    25
100
AcDbCircle
 10
849.8682062663
 20
1004.9124270937
 30
0.0
 40
126.9094239768997
100
AcDbArc
 50
275.9042320044
 51
285.5229501546
  0
LINE
  5
100
330
1F
100
AcDbEntity
  8
0
  6
Continuous
 62
     7
370
    25
100
AcDbLine
 10
883.8322573973
 20
882.6322360368
 30
0.0
 11
1537.4032723921
 21
1064.1657138132
 31
0.0
  0
ARC
  5
101
330
1F
100
AcDbEntity
  8
0
  6
Continuous
 62
     7
370
    25
100
AcDbCircle
 10
1503.4394399153
 20
1186.4449488246
 30
0.0
 40
126.9084442875167
100
AcDbArc
 50
285.5229705534
 51
289.2361618213
  0
LINE
  5
102
330
1F
100
AcDbEntity
  8
0
  6
Continuous
 62
     7
370
    25
100
AcDbLine
 10
1545.2510281642
 20
1066.6219780736
 30
0.0
 11
1712.0232195879
 21
1124.8162415833
 31
0.0
  0
LINE
  5
103
330
1F
100
AcDbEntity
  8
0
  6
Continuous
 62
     7
370
    25
100
AcDbLine
 10
1724.793326988
 20
1096.4432962769
 30
0.0
 11
1712.0232195879
 21
1124.8162415833
 31
0.0
  0
LINE
  5
104
330
1F
100
AcDbEntity
  8
0
  6
Continuous
 62
     7
370
    25
100
AcDbLine
 10
643.845576784
 20
796.2032307189
 30
0.0
 11
1724.793326988
 21
1096.4432962769
 31
0.0
  0
LINE
  5
105
330
1F
100
AcDbEntity
  8
0
  6
Continuous
 62
     7
370
    25
100
AcDbLine
 10
654.6229142777
 20
852.8696685388
 30
0.0
 11
643.845576784
 21
796.2032307189
 31
0.0
  0
LINE
  5
106
330
1F
100
AcDbEntity
  8
0
  6
Continuous
 62
     7
370
    25
100
AcDbLine
 10
654.6229142777
 20
852.8696685388
 30
0.0
 11
668.7993480057
 21
856.8072625539
 31
0.0
  0
CIRCLE
  5
107
330
1F
100
AcDbEntity
  8
0
  6
Continuous
 62
     7
370
    25
100
AcDbCircle
 10
1683.5889952561
 20
1095.377259377
 30
0.0
 40
4.215970367679032
  0
CIRCLE
  5
108
330
1F
100
AcDbEntity
  8
0
  6
Continuous
 62
     7
370
    25
100
AcDbCircle
 10
1606.5349778086
 20
1073.9750193098
 30
0.0
 40
4.215970367678456
  0
CIRCLE
  5
109
330
1F
100
AcDbEntity
  8
0
  6
Continuous
 62
     7
370
    25
100
AcDbCircle
 10
1527.787766757
 20
1052.1024840238
 30
0.0
 40
4.215970367679029
  0
CIRCLE
  5
10A
330
1F
100
AcDbEntity
  8
0
  6
Continuous
 62
     7
370
    25
100
AcDbCircle
 10
1435.7431329923
 20
1026.5365055845
 30
0.0
 40
4.215970367678541
  0
CIRCLE
  5
10B
330
1F
100
AcDbEntity
  8
0
  6
Continuous
 62
     7
370
    25
100
AcDbCircle
 10
1208.737900206
 20
963.4843682715
 30
0.0
 40
4.215970367678946
  0
CIRCLE
  5
10C
330
1F
100
AcDbEntity
  8
0
  6
Continuous
 62
     7
370
    25
100
AcDbCircle
 10
1098.2865430363
 20
932.8058061381
 30
0.0
 40
4.215970367678586
  0
CIRCLE
  5
10D
330
1F
100
AcDbEntity
  8
0
  6
Continuous
 62
     7
370
    25
100
AcDbCircle
 10
1049.2129671342
 20
919.175310452
 30
0.0
 40
4.215970367678278
  0
CIRCLE
  5
10E
330
1F
100
AcDbEntity
  8
0
  6
Continuous
 62
     7
370
    25
100
AcDbCircle
 10
933.1905080947
 20
886.9493395837
 30
0.0
 40
4.215970367678503
  0
CIRCLE
  5
10F
330
1F
100
AcDbEntity
  8
0
  6
Continuous
 62
     7
370
    25
100
AcDbCircle
 10
884.1169321733
 20
873.3188438922
 30
0.0
 40
4.21597036767852
  0
CIRCLE
  5
110
330
1F
100
AcDbEntity
  8
0
  6
Continuous
 62
     7
370
    25
100
AcDbCircle
 10
672.1572457484
 20
843.1400485977
 30
0.0
 40
4.215970367678676
  0
CIRCLE
  5
111
330
1F
100
AcDbEntity
  8
0
  6
Continuous
 62
     7
370
    25
100
AcDbCircle
 10
668.3184243273
 20
822.95581149
 30
0.0
 40
4.215970367678834
  0
CIRCLE
  5
112
330
1F
100
AcDbEntity
  8
0
  6
Continuous
 62
     7
370
    25
100
AcDbCircle
 10
1257.8116562434
 20
977.1143172652
 30
0.0
 40
4.215900079659884
  0
CIRCLE
  5
113
330
1F
100
AcDbEntity
  8
0
  6
Continuous
 62
     7
370
    25
100
AcDbCircle
 10
1386.6697367598
 20
1012.9054654388
 30
0.0
 40
4.215900079659369
  0
LINE
  5
114
330
1F
100
AcDbEntity
  8
0
  6
Continuous
 62
     7
370
    25
100
AcDbLine
 10
1712.1876511232
 20
1124.8619134809
 30
0.0
 11
1712.0232195879
 21
1124.8162415833
 31
0.0
  0
LINE
  5
115
330
1F
100
AcDbEntity
  8
0
  6
Continuous
 62
     7
370
    25
100
AcDbLine
 10
1724.9577585234
 20
1096.4889681745
 30
0.0
 11
1712.1876511232
 21
1124.8619134809
 31
0.0
  0
LINE
  5
116
330
1F
100
AcDbEntity
  8
0
  6
Continuous
 62
     7
370
    25
100
AcDbLine
 10
1724.9577585234
 20
1096.4889681745
 30
0.0
 11
1724.793326988
 21
1096.4432962769
 31
0.0
  0
CIRCLE
  5
117
330
1F
100
AcDbEntity
  8
0
  6
Continuous
 62
     7
370
    25
100
AcDbCircle
 10
1683.6277026468
 20
1095.388007556
 30
0.0
 40
2.457147196087568
  0
ARC
  5
118
330
1F
100
AcDbEntity
  8
0
  6
Continuous
 62
     7
370
    25
100
AcDbCircle
 10
1683.7549749046
 20
1095.4226985751
 30
0.0
 40
2.456955717709402
100
AcDbArc
 50
191.2206974025
 51
285.5147530646
  0
ARC
  5
119
330
1F
100
AcDbEntity
  8
0
  6
Continuous
 62
     7
370
    25
100
AcDbCircle
 10
1683.7547215832
 20
1095.4237080485
 30
0.0
 40
2.456903890511894
100
AcDbArc
 50
105.5317941552
 51
191.2449381917
  0
CIRCLE
  5
11A
330
1F
100
AcDbEntity
  8
0
  6
Continuous
 62
     7
370
    25
100
AcDbCircle
 10
1606.5736851994
 20
1073.9857674887
 30
0.0
 40
2.457147196087124
  0
ARC
  5
11B
330
1F
100
AcDbEntity
  8
0
  6
Continuous
 62
     7
370
    25
100
AcDbCircle
 10
1606.7009574572
 20
1074.0204585079
 30
0.0
 40
2.45695571770519
100
AcDbArc
 50
191.2206974024
 51
285.5147530647
  0
ARC
  5
11C
330
1F
100
AcDbEntity
  8
0
  6
Continuous
 62
     7
370
    25
100
AcDbCircle
 10
1606.7007041357
 20
1074.0214679813
 30
0.0
 40
2.456903890510063
100
AcDbArc
 50
105.5317941552
 51
191.2449381918
  0
CIRCLE
  5
11D
330
1F
100
AcDbEntity
  8
0
  6
Continuous
 62
     7
370
    25
100
AcDbCircle
 10
1527.8264741477
 20
1052.1132322028
 30
0.0
 40
2.457147196087209
  0
ARC
  5
11E
330
1F
100
AcDbEntity
  8
0
  6
Continuous
 62
     7
370
    25
100
AcDbCircle
 10
1527.9537619132
 20
1052.1479361409
 30
0.0
 40
2.456973442785026
100
AcDbArc
 50
191.2209225412
 51
283.9867530583
  0
ARC
  5
11F
330
1F
100
AcDbEntity
  8
0
  6
Continuous
 62
     7
370
    25
100
AcDbCircle
 10
1527.9535134676
 20
1052.1489289063
 30
0.0
 40
2.456923143812101
100
AcDbArc
 50
107.0598307699
 51
191.2447588331
  0
CIRCLE
  5
120
330
1F
100
AcDbEntity
  8
0
  6
Continuous
 62
     7
370
    25
100
AcDbCircle
 10
1435.781840383
 20
1026.5472537634
 30
0.0
 40
2.457147196087299
  0
CIRCLE
  5
121
330
1F
100
AcDbEntity
  8
0
  6
Continuous
 62
     7
370
    25
100
AcDbCircle
 10
1386.708384261
 20
1012.9163276666
 30
0.0
 40
2.457113429439455
  0
ARC
  5
122
330
1F
100
AcDbEntity
  8
0
  6
Continuous
 62
     7
370
    25
100
AcDbCircle
 10
1435.9091126409
 20
1026.5819447826
 30
0.0
 40
2.456955717708136
100
AcDbArc
 50
191.2206974024
 51
285.5147530646
  0
ARC
  5
123
330
1F
100
AcDbEntity
  8
0
  6
Continuous
 62
     7
370
    25
100
AcDbCircle
 10
1435.9088593194
 20
1026.582954256
 30
0.0
 40
2.456903890512454
100
AcDbArc
 50
105.5317941552
 51
191.2449381917
  0
ARC
  5
124
330
1F
100
AcDbEntity
  8
0
  6
Continuous
 62
     7
370
    25
100
AcDbCircle
 10
1386.835303223
 20
1012.9524569717
 30
0.0
 40
2.45692314051773
100
AcDbArc
 50
107.0595707117
 51
191.2447588638
  0
ARC
  5
125
330
1F
100
AcDbEntity
  8
0
  6
Continuous
 62
     7
370
    25
100
AcDbCircle
 10
1386.8356133679
 20
1012.9515614396
 30
0.0
 40
2.457052881635987
100
AcDbArc
 50
191.22286663
 51
283.9850697652
  0
CIRCLE
  5
126
330
1F
100
AcDbEntity
  8
0
  6
Continuous
 62
     7
370
    25
100
AcDbCircle
 10
1257.8503037446
 20
977.1251794931
 30
0.0
 40
2.457113429440128
  0
CIRCLE
  5
127
330
1F
100
AcDbEntity
  8
0
  6
Continuous
 62
     7
370
    25
100
AcDbCircle
 10
1208.7766075967
 20
963.4951164505
 30
0.0
 40
2.457147196087854
  0
ARC
  5
128
330
1F
100
AcDbEntity
  8
0
  6
Continuous
 62
     7
370
    25
100
AcDbCircle
 10
1257.9772023266
 20
977.1613125866
 30
0.0
 40
2.456903890513433
100
AcDbArc
 50
105.5317941553
 51
191.2449381917
  0
ARC
  5
129
330
1F
100
AcDbEntity
  8
0
  6
Continuous
 62
     7
370
    25
100
AcDbCircle
 10
1257.9775159822
 20
977.1604010613
 30
0.0
 40
2.457033959639537
100
AcDbArc
 50
191.222664029
 51
285.5127864381
  0
ARC
  5
12A
330
1F
100
AcDbEntity
  8
0
  6
Continuous
 62
     7
370
    25
100
AcDbCircle
 10
1208.9038798545
 20
963.5298074696
 30
0.0
 40
2.456955717707393
100
AcDbArc
 50
191.2206974024
 51
285.5147530646
  0
ARC
  5
12B
330
1F
100
AcDbEntity
  8
0
  6
Continuous
 62
     7
370
    25
100
AcDbCircle
 10
1208.9036265331
 20
963.530816943
 30
0.0
 40
2.456903890511202
100
AcDbArc
 50
105.5317941552
 51
191.2449381917
  0
CIRCLE
  5
12C
330
1F
100
AcDbEntity
  8
0
  6
Continuous
 62
     7
370
    25
100
AcDbCircle
 10
1098.325250427
 20
932.8165543171
 30
0.0
 40
2.457147196087078
  0
CIRCLE
  5
12D
330
1F
100
AcDbEntity
  8
0
  6
Continuous
 62
     7
370
    25
100
AcDbCircle
 10
1049.251674525
 20
919.1860586309
 30
0.0
 40
2.457147196086924
  0
ARC
  5
12E
330
1F
100
AcDbEntity
  8
0
  6
Continuous
 62
     7
370
    25
100
AcDbCircle
 10
1098.4525381918
 20
932.8512582547
 30
0.0
 40
2.456973442070379
100
AcDbArc
 50
191.2209225321
 51
283.986814699
  0
ARC
  5
12F
330
1F
100
AcDbEntity
  8
0
  6
Continuous
 62
     7
370
    25
100
AcDbCircle
 10
1098.452289746
 20
932.8522510207
 30
0.0
 40
2.45692314303418
100
AcDbArc
 50
107.0597693108
 51
191.2447588403
  0
ARC
  5
130
330
1F
100
AcDbEntity
  8
0
  6
Continuous
 62
     7
370
    25
100
AcDbCircle
 10
1049.3789622905
 20
919.2207625692
 30
0.0
 40
2.456973442934899
100
AcDbArc
 50
191.2209225432
 51
283.9867407654
  0
ARC
  5
131
330
1F
100
AcDbEntity
  8
0
  6
Continuous
 62
     7
370
    25
100
AcDbCircle
 10
1049.378713845
 20
919.2217553344
 30
0.0
 40
2.456923143971299
100
AcDbArc
 50
107.0598430307
 51
191.2447588316
  0
CIRCLE
  5
132
330
1F
100
AcDbEntity
  8
0
  6
Continuous
 62
     7
370
    25
100
AcDbCircle
 10
933.2292154854
 20
886.9600877626
 30
0.0
 40
2.457147196087589
  0
CIRCLE
  5
133
330
1F
100
AcDbEntity
  8
0
  6
Continuous
 62
     7
370
    25
100
AcDbCircle
 10
884.1556395641
 20
873.3295920711
 30
0.0
 40
2.457147196087744
  0
LINE
  5
134
330
1F
100
AcDbEntity
  8
0
  6
Continuous
 62
     7
370
    25
100
AcDbLine
 10
863.0873035799
 20
878.7219013475
 30
0.0
 11
862.9228720446
 21
878.6762294499
 31
0.0
  0
ARC
  5
135
330
1F
100
AcDbEntity
  8
0
  6
Continuous
 62
     7
370
    25
100
AcDbCircle
 10
850.0326378017
 20
1004.9580989914
 30
0.0
 40
126.9094239770359
100
AcDbArc
 50
275.9042320044
 51
285.5229501546
  0
ARC
  5
136
330
1F
100
AcDbEntity
  8
0
  6
Continuous
 62
     7
370
    25
100
AcDbCircle
 10
933.3564877433
 20
886.9947787817
 30
0.0
 40
2.456955717706322
100
AcDbArc
 50
191.2206974024
 51
285.5147530647
  0
ARC
  5
137
330
1F
100
AcDbEntity
  8
0
  6
Continuous
 62
     7
370
    25
100
AcDbCircle
 10
933.3562344218
 20
886.9957882552
 30
0.0
 40
2.456903890509119
100
AcDbArc
 50
105.5317941552
 51
191.2449381918
  0
LINE
  5
138
330
1F
100
AcDbEntity
  8
0
  6
Continuous
 62
     7
370
    25
100
AcDbLine
 10
689.7087333584
 20
860.7632691408
 30
0.0
 11
689.8731648937
 21
860.8089410384
 31
0.0
  0
LINE
  5
139
330
1F
100
AcDbEntity
  8
0
  6
Continuous
 62
     7
370
    25
100
AcDbLine
 10
689.8731648937
 20
860.8089410384
 30
0.0
 11
863.0873035799
 21
878.7219013475
 31
0.0
  0
ARC
  5
13A
330
1F
100
AcDbEntity
  8
0
  6
Continuous
 62
     7
370
    25
100
AcDbCircle
 10
884.2829118219
 20
873.3642830903
 30
0.0
 40
2.456955717708251
100
AcDbArc
 50
191.2206974024
 51
285.5147530646
  0
ARC
  5
13B
330
1F
100
AcDbEntity
  8
0
  6
Continuous
 62
     7
370
    25
100
AcDbCircle
 10
884.2826585004
 20
873.3652925637
 30
0.0
 40
2.456903890513519
100
AcDbArc
 50
105.5317941553
 51
191.2449381917
  0
LINE
  5
13C
330
1F
100
AcDbEntity
  8
0
  6
Continuous
 62
     7
370
    25
100
AcDbLine
 10
668.963779541
 20
856.8529344515
 30
0.0
 11
668.7993480057
 21
856.8072625539
 31
0.0
  0
ARC
  5
13D
330
1F
100
AcDbEntity
  8
0
  6
Continuous
 62
     7
370
    25
100
AcDbCircle
 10
702.927830672
 20
734.5727433946
 30
0.0
 40
126.9094239769245
100
AcDbArc
 50
95.9042320044
 51
105.5229501546
  0
CIRCLE
  5
13E
330
1F
100
AcDbEntity
  8
0
  6
Continuous
 62
     7
370
    25
100
AcDbCircle
 10
672.1959531392
 20
843.1507967766
 30
0.0
 40
2.457147196087502
  0
CIRCLE
  5
13F
330
1F
100
AcDbEntity
  8
0
  6
Continuous
 62
     7
370
    25
100
AcDbCircle
 10
668.3571317181
 20
822.966559669
 30
0.0
 40
2.457147196087148
  0
ARC
  5
140
330
1F
100
AcDbEntity
  8
0
  6
Continuous
 62
     7
370
    25
100
AcDbCircle
 10
672.3232409053
 20
843.1855007154
 30
0.0
 40
2.456973443608331
100
AcDbArc
 50
191.2209225517
 51
283.9866826443
  0
ARC
  5
141
330
1F
100
AcDbEntity
  8
0
  6
Continuous
 62
     7
370
    25
100
AcDbCircle
 10
672.32299246
 20
843.18649348
 30
0.0
 40
2.45692314470327
100
AcDbArc
 50
107.0599009811
 51
191.2447588247
  0
ARC
  5
142
330
1F
100
AcDbEntity
  8
0
  6
Continuous
 62
     7
370
    25
100
AcDbCircle
 10
668.4844039759
 20
823.0012506881
 30
0.0
 40
2.456955717706423
100
AcDbArc
 50
191.2206974024
 51
285.5147530646
  0
ARC
  5
143
330
1F
100
AcDbEntity
  8
0
  6
Continuous
 62
     7
370
    25
100
AcDbCircle
 10
668.4841506544
 20
823.0022601615
 30
0.0
 40
2.456903890511833
100
AcDbArc
 50
105.5317941552
 51
191.2449381917
  0
ARC
  5
144
330
1F
100
AcDbEntity
  8
0
  6
HIDDEN
 62
     7
370
    18
100
AcDbCircle
 10
1683.7539177882
 20
1095.4229179752
 30
0.0
 40
2.457450075090221
100
AcDbArc
 50
285.5371335023
 51
105.5088053766
  0
ARC
  5
145
330
1F
100
AcDbEntity
  8
0
  6
HIDDEN
 62
     7
370
    18
100
AcDbCircle
 10
1606.6999003407
 20
1074.020677908
 30
0.0
 40
2.457450075090205
100
AcDbArc
 50
285.5371335023
 51
105.5088053766
  0
LINE
  5
146
330
1F
100
AcDbEntity
  8
0
  6
HIDDEN
 62
     7
370
    18
100
AcDbLine
 10
1537.5677039275
 20
1064.2113857108
 30
0.0
 11
1537.4032723921
 21
1064.1657138132
 31
0.0
  0
ARC
  5
147
330
1F
100
AcDbEntity
  8
0
  6
HIDDEN
 62
     7
370
    18
100
AcDbCircle
 10
1503.6038714505
 20
1186.4906207224
 30
0.0
 40
126.9084442877806
100
AcDbArc
 50
285.5229705534
 51
289.2361618213
  0
LINE
  5
148
330
1F
100
AcDbEntity
  8
0
  6
HIDDEN
 62
     7
370
    18
100
AcDbLine
 10
1545.2510281642
 20
1066.6219780736
 30
0.0
 11
1545.4154596995
 21
1066.6676499712
 31
0.0
  0
LINE
  5
149
330
1F
100
AcDbEntity
  8
0
  6
HIDDEN
 62
     7
370
    18
100
AcDbLine
 10
1545.4154596995
 20
1066.6676499712
 30
0.0
 11
1712.1876511232
 21
1124.8619134809
 31
0.0
  0
ARC
  5
14A
330
1F
100
AcDbEntity
  8
0
  6
HIDDEN
 62
     7
370
    18
100
AcDbCircle
 10
1527.9527120963
 20
1052.1481489568
 30
0.0
 40
2.457433877612682
100
AcDbArc
 50
284.009304875
 51
107.0366338293
  0
ARC
  5
14B
330
1F
100
AcDbEntity
  8
0
  6
HIDDEN
 62
     7
370
    18
100
AcDbCircle
 10
1435.9080555244
 20
1026.5821641827
 30
0.0
 40
2.457450075090282
100
AcDbArc
 50
285.5371335023
 51
105.5088053766
  0
ARC
  5
14C
330
1F
100
AcDbEntity
  8
0
  6
HIDDEN
 62
     7
370
    18
100
AcDbCircle
 10
1386.8344883696
 20
1012.9516732759
 30
0.0
 40
2.457433510871335
100
AcDbArc
 50
284.0098917972
 51
107.0360476891
  0
ARC
  5
14D
330
1F
100
AcDbEntity
  8
0
  6
HIDDEN
 62
     7
370
    18
100
AcDbCircle
 10
1257.9763850499
 20
977.1605187686
 30
0.0
 40
2.457450078589035
100
AcDbArc
 50
285.5374597293
 51
105.5084791497
  0
ARC
  5
14E
330
1F
100
AcDbEntity
  8
0
  6
HIDDEN
 62
     7
370
    18
100
AcDbCircle
 10
1208.9028227381
 20
963.5300268697
 30
0.0
 40
2.457450075090549
100
AcDbArc
 50
285.5371335023
 51
105.5088053766
  0
ARC
  5
14F
330
1F
100
AcDbEntity
  8
0
  6
HIDDEN
 62
     7
370
    18
100
AcDbCircle
 10
1098.4514883746
 20
932.8514710709
 30
0.0
 40
2.457433878265476
100
AcDbArc
 50
284.0093665093
 51
107.0365723781
  0
ARC
  5
150
330
1F
100
AcDbEntity
  8
0
  6
HIDDEN
 62
     7
370
    18
100
AcDbCircle
 10
1049.3779124737
 20
919.2209753851
 30
0.0
 40
2.457433877483501
100
AcDbArc
 50
284.0092925836
 51
107.0366460884
  0
ARC
  5
151
330
1F
100
AcDbEntity
  8
0
  6
HIDDEN
 62
     7
370
    18
100
AcDbCircle
 10
933.3554306268
 20
886.9949981819
 30
0.0
 40
2.457450075090132
100
AcDbArc
 50
285.5371335023
 51
105.5088053766
  0
ARC
  5
152
330
1F
100
AcDbEntity
  8
0
  6
HIDDEN
 62
     7
370
    18
100
AcDbCircle
 10
884.2818547054
 20
873.3645024904
 30
0.0
 40
2.457450075090915
100
AcDbArc
 50
285.5371335023
 51
105.5088053766
  0
LINE
  5
153
330
1F
100
AcDbEntity
  8
0
  6
HIDDEN
 62
     7
370
    18
100
AcDbLine
 10
654.787345813
 20
852.9153404364
 30
0.0
 11
644.0100083194
 21
796.2489026164
 31
0.0
  0
ARC
  5
154
330
1F
100
AcDbEntity
  8
0
  6
HIDDEN
 62
     7
370
    18
100
AcDbCircle
 10
672.3221910888
 20
843.185713531
 30
0.0
 40
2.457433876867602
100
AcDbArc
 50
284.0092344685
 51
107.0367040314
  0
ARC
  5
155
330
1F
100
AcDbEntity
  8
0
  6
HIDDEN
 62
     7
370
    18
100
AcDbCircle
 10
668.4833468594
 20
823.0014700882
 30
0.0
 40
2.457450075090717
100
AcDbArc
 50
285.5371335023
 51
105.5088053766
  0
LINE
  5
156
330
1F
100
AcDbEntity
  8
0
  6
HIDDEN
 62
     7
370
    18
100
AcDbLine
 10
1684.2859647553
 20
1093.0202140165
 30
0.0
 11
1684.4121773705
 21
1093.0552703676
 31
0.0
  0
LINE
  5
157
330
1F
100
AcDbEntity
  8
0
  6
HIDDEN
 62
     7
370
    18
100
AcDbLine
 10
1683.0968288963
 20
1097.7908907495
 30
0.0
 11
1682.9706162811
 21
1097.7558343984
 31
0.0
  0
LINE
  5
158
330
1F
100
AcDbEntity
  8
0
  6
HIDDEN
 62
     7
370
    18
100
AcDbLine
 10
1607.2319473078
 20
1071.6179739493
 30
0.0
 11
1607.3581599231
 21
1071.6530303004
 31
0.0
  0
LINE
  5
159
330
1F
100
AcDbEntity
  8
0
  6
HIDDEN
 62
     7
370
    18
100
AcDbLine
 10
1606.0428114489
 20
1076.3886506823
 30
0.0
 11
1605.9165988336
 21
1076.3535943312
 31
0.0
  0
LINE
  5
15A
330
1F
100
AcDbEntity
  8
0
  6
HIDDEN
 62
     7
370
    18
100
AcDbLine
 10
1528.4847362562
 20
1049.7454386633
 30
0.0
 11
1528.6109488715
 21
1049.7804950144
 31
0.0
  0
LINE
  5
15B
330
1F
100
AcDbEntity
  8
0
  6
HIDDEN
 62
     7
370
    18
100
AcDbLine
 10
1527.2956003973
 20
1054.5161153963
 30
0.0
 11
1527.169387782
 21
1054.4810590452
 31
0.0
  0
LINE
  5
15C
330
1F
100
AcDbEntity
  8
0
  6
HIDDEN
 62
     7
370
    18
100
AcDbLine
 10
1436.4401024915
 20
1024.1794602239
 30
0.0
 11
1436.5663151068
 21
1024.2145165751
 31
0.0
  0
LINE
  5
15D
330
1F
100
AcDbEntity
  8
0
  6
HIDDEN
 62
     7
370
    18
100
AcDbLine
 10
1435.2509666326
 20
1028.950136957
 30
0.0
 11
1435.1247540173
 21
1028.9150806058
 31
0.0
  0
LINE
  5
15E
330
1F
100
AcDbEntity
  8
0
  6
HIDDEN
 62
     7
370
    18
100
AcDbLine
 10
1387.3665260151
 20
1010.5489667281
 30
0.0
 11
1387.4927386304
 21
1010.5840230792
 31
0.0
  0
LINE
  5
15F
330
1F
100
AcDbEntity
  8
0
  6
HIDDEN
 62
     7
370
    18
100
AcDbLine
 10
1386.1773901562
 20
1015.3196434611
 30
0.0
 11
1386.0511775409
 21
1015.28458711
 31
0.0
  0
LINE
  5
160
330
1F
100
AcDbEntity
  8
0
  6
HIDDEN
 62
     7
370
    18
100
AcDbLine
 10
1258.5084454987
 20
974.7578185545
 30
0.0
 11
1258.6346581139
 21
974.7928749057
 31
0.0
  0
LINE
  5
161
330
1F
100
AcDbEntity
  8
0
  6
HIDDEN
 62
     7
370
    18
100
AcDbLine
 10
1257.3193096397
 20
979.5284952876
 30
0.0
 11
1257.1930970245
 21
979.4934389364
 31
0.0
  0
LINE
  5
162
330
1F
100
AcDbEntity
  8
0
  6
HIDDEN
 62
     7
370
    18
100
AcDbLine
 10
1209.4348697052
 20
961.127322911
 30
0.0
 11
1209.5610823205
 21
961.1623792621
 31
0.0
  0
LINE
  5
163
330
1F
100
AcDbEntity
  8
0
  6
HIDDEN
 62
     7
370
    18
100
AcDbLine
 10
1208.2457338463
 20
965.897999644
 30
0.0
 11
1208.119521231
 21
965.8629432929
 31
0.0
  0
LINE
  5
164
330
1F
100
AcDbEntity
  8
0
  6
HIDDEN
 62
     7
370
    18
100
AcDbLine
 10
1098.9835125355
 20
930.4487607776
 30
0.0
 11
1099.1097251507
 21
930.4838171287
 31
0.0
  0
LINE
  5
165
330
1F
100
AcDbEntity
  8
0
  6
HIDDEN
 62
     7
370
    18
100
AcDbLine
 10
1097.7943766765
 20
935.2194375106
 30
0.0
 11
1097.6681640613
 21
935.1843811595
 31
0.0
  0
LINE
  5
166
330
1F
100
AcDbEntity
  8
0
  6
HIDDEN
 62
     7
370
    18
100
AcDbLine
 10
1049.9099366334
 20
916.8182650915
 30
0.0
 11
1050.0361492487
 21
916.8533214426
 31
0.0
  0
LINE
  5
167
330
1F
100
AcDbEntity
  8
0
  6
HIDDEN
 62
     7
370
    18
100
AcDbLine
 10
1048.7208007745
 20
921.5889418245
 30
0.0
 11
1048.5945881592
 21
921.5538854734
 31
0.0
  0
LINE
  5
168
330
1F
100
AcDbEntity
  8
0
  6
HIDDEN
 62
     7
370
    18
100
AcDbLine
 10
933.8874775939
 20
884.5922942231
 30
0.0
 11
934.0136902092
 21
884.6273505743
 31
0.0
  0
LINE
  5
169
330
1F
100
AcDbEntity
  8
0
  6
HIDDEN
 62
     7
370
    18
100
AcDbLine
 10
932.698341735
 20
889.3629709562
 30
0.0
 11
932.5721291197
 21
889.327914605
 31
0.0
  0
LINE
  5
16A
330
1F
100
AcDbEntity
  8
0
  6
HIDDEN
 62
     7
370
    18
100
AcDbLine
 10
884.8139016725
 20
870.9617985316
 30
0.0
 11
884.9401142878
 21
870.9968548828
 31
0.0
  0
LINE
  5
16B
330
1F
100
AcDbEntity
  8
0
  6
HIDDEN
 62
     7
370
    18
100
AcDbLine
 10
883.6247658136
 20
875.7324752647
 30
0.0
 11
883.4985531983
 21
875.6974189135
 31
0.0
  0
LINE
  5
16C
330
1F
100
AcDbEntity
  8
0
  6
HIDDEN
 62
     7
370
    18
100
AcDbLine
 10
672.8542152476
 20
840.7830032372
 30
0.0
 11
672.9804278629
 21
840.8180595883
 31
0.0
  0
LINE
  5
16D
330
1F
100
AcDbEntity
  8
0
  6
HIDDEN
 62
     7
370
    18
100
AcDbLine
 10
671.6650793887
 20
845.5536799702
 30
0.0
 11
671.5388667734
 21
845.5186236191
 31
0.0
  0
LINE
  5
16E
330
1F
100
AcDbEntity
  8
0
  6
HIDDEN
 62
     7
370
    18
100
AcDbLine
 10
669.0153938265
 20
820.5987661295
 30
0.0
 11
669.1416064418
 21
820.6338224806
 31
0.0
  0
LINE
  5
16F
330
1F
100
AcDbEntity
  8
0
  6
HIDDEN
 62
     7
370
    18
100
AcDbLine
 10
667.8262579676
 20
825.3694428625
 30
0.0
 11
667.7000453523
 21
825.3343865114
 31
0.0
  0
CIRCLE
  5
170
330
1F
100
AcDbEntity
  8
0
  6
Continuous
 62
     7
370
    25
100
AcDbCircle
 10
741.0578943788
 20
32.7902779313
 30
0.0
 40
2.45745000000008
  0
CIRCLE
  5
171
330
1F
100
AcDbEntity
  8
0
  6
Continuous
 62
     7
370
    25
100
AcDbCircle
 10
817.2114753977
 20
35.44961958
 30
0.0
 40
2.45745000000008
  0
CIRCLE
  5
172
330
1F
100
AcDbEntity
  8
0
  6
Continuous
 62
     7
370
    25
100
AcDbCircle
 10
893.3650564165
 20
38.1089612288
 30
0.0
 40
2.457450000000087
  0
CIRCLE
  5
173
330
1F
100
AcDbEntity
  8
0
  6
Continuous
 62
     7
370
    25
100
AcDbCircle
 10
1350.2865425296
 20
54.0650111214
 30
0.0
 40
2.45745000000008
  0
CIRCLE
  5
174
330
1F
100
AcDbEntity
  8
0
  6
Continuous
 62
     7
370
    25
100
AcDbCircle
 10
1274.1329615108
 20
51.4056694727
 30
0.0
 40
2.45745000000008
  0
CIRCLE
  5
175
330
1F
100
AcDbEntity
  8
0
  6
Continuous
 62
     7
370
    25
100
AcDbCircle
 10
1197.9793804919
 20
48.7463278239
 30
0.0
 40
2.457450000000087
  0
CIRCLE
  5
176
330
1F
100
AcDbEntity
  8
0
  6
Continuous
 62
     7
370
    25
100
AcDbCircle
 10
1121.8257994731
 20
46.0869861751
 30
0.0
 40
2.457450000000087
  0
CIRCLE
  5
177
330
1F
100
AcDbEntity
  8
0
  6
Continuous
 62
     7
370
    25
100
AcDbCircle
 10
1045.6722184542
 20
43.4276445264
 30
0.0
 40
2.457450000000087
  0
CIRCLE
  5
178
330
1F
100
AcDbEntity
  8
0
  6
Continuous
 62
     7
370
    25
100
AcDbCircle
 10
969.5186374354
 20
40.7683028776
 30
0.0
 40
2.457450000000087
  0
CIRCLE
  5
179
330
1F
100
AcDbEntity
  8
0
  6
Continuous
 62
     7
370
    25
100
AcDbCircle
 10
664.90431336
 20
30.1309362825
 30
0.0
 40
2.457450000000083
  0
CIRCLE
  5
17A
330
1F
100
AcDbEntity
  8
0
  6
Continuous
 62
     7
370
    25
100
AcDbCircle
 10
729.664105975
 20
280.5135892584
 30
0.0
 40
2.457450000000051
  0
CIRCLE
  5
17B
330
1F
100
AcDbEntity
  8
0
  6
Continuous
 62
     7
370
    25
100
AcDbCircle
 10
913.8141062228
 20
155.4197195954
 30
0.0
 40
2.45745000000008
  0
CIRCLE
  5
17C
330
1F
100
AcDbEntity
  8
0
  6
Continuous
 62
     7
370
    25
100
AcDbCircle
 10
913.8141062228
 20
280.5135892584
 30
0.0
 40
2.457450000000051
  0
CIRCLE
  5
17D
330
1F
100
AcDbEntity
  8
0
  6
Continuous
 62
     7
370
    25
100
AcDbCircle
 10
1078.9141060086
 20
155.4197197686
 30
0.0
 40
2.45745000000008
  0
CIRCLE
  5
17E
330
1F
100
AcDbEntity
  8
0
  6
Continuous
 62
     7
370
    25
100
AcDbCircle
 10
1078.9141060086
 20
280.5135894953
 30
0.0
 40
2.457450000000108
  0
CIRCLE
  5
17F
330
1F
100
AcDbEntity
  8
0
  6
Continuous
 62
     7
370
    25
100
AcDbCircle
 10
1249.7799060086
 20
280.5135892996
 30
0.0
 40
2.457450000000051
  0
CIRCLE
  5
180
330
1F
100
AcDbEntity
  8
0
  6
Continuous
 62
     7
370
    25
100
AcDbCircle
 10
1249.7799060086
 20
155.4197197034
 30
0.0
 40
2.45745000000008
  0
CIRCLE
  5
181
330
1F
100
AcDbEntity
  8
0
  6
Continuous
 62
     7
370
    25
100
AcDbCircle
 10
583.6141065643
 20
82.1243100678
 30
0.0
 40
2.45745000000008
  0
LINE
  5
182
330
1F
100
AcDbEntity
  8
0
  6
Continuous
 62
     7
370
    25
100
AcDbLine
 10
1240.2549060086
 20
343.0605239726
 30
0.0
 11
1259.3049060086
 21
343.0605243478
 31
0.0
  0
LINE
  5
183
330
1F
100
AcDbEntity
  8
0
  6
Continuous
 62
     7
370
    25
100
AcDbLine
 10
1240.2549060086
 20
343.0605239726
 30
0.0
 11
593.1391060086
 21
343.060524346
 31
0.0
  0
LINE
  5
184
330
1F
100
AcDbEntity
  8
0
  6
Continuous
 62
     7
370
    25
100
AcDbLine
 10
1259.3049060086
 20
343.0605243478
 30
0.0
 11
1382.2985705117
 21
38.6405222937
 31
0.0
  0
LINE
  5
185
330
1F
100
AcDbEntity
  8
0
  6
Continuous
 62
     7
370
    25
100
AcDbLine
 10
1382.2985705117
 20
38.6405222937
 30
0.0
 11
596.0472502521
 21
11.8417201518
 31
0.0
  0
LINE
  5
186
330
1F
100
AcDbEntity
  8
0
  6
Continuous
 62
     7
370
    25
100
AcDbLine
 10
596.0472502521
 20
11.8417201518
 30
0.0
 11
574.0891061911
 21
63.5718657869
 31
0.0
  0
LINE
  5
187
330
1F
100
AcDbEntity
  8
0
  6
Continuous
 62
     7
370
    25
100
AcDbLine
 10
574.0891061911
 20
63.5718657869
 30
0.0
 11
574.0891061911
 21
114.8405222937
 31
0.0
  0
LINE
  5
188
330
1F
100
AcDbEntity
  8
0
  6
Continuous
 62
     7
370
    25
100
AcDbLine
 10
593.1391060086
 20
114.8405222937
 30
0.0
 11
574.0891061911
 21
114.8405222937
 31
0.0
  0
LINE
  5
189
330
1F
100
AcDbEntity
  8
0
  6
Continuous
 62
     7
370
    25
100
AcDbLine
 10
593.1391060086
 20
114.8405222937
 30
0.0
 11
593.1391060086
 21
343.060524346
 31
0.0
  0
CIRCLE
  5
18A
330
1F
100
AcDbEntity
  8
0
  6
HIDDEN
 62
     7
370
    18
100
AcDbCircle
 10
729.664105975
 20
280.5135892584
 30
0.0
 40
4.216399999999794
  0
CIRCLE
  5
18B
330
1F
100
AcDbEntity
  8
0
  6
HIDDEN
 62
     7
370
    18
100
AcDbCircle
 10
1249.7799060086
 20
155.4197197034
 30
0.0
 40
4.216399999999766
  0
CIRCLE
  5
18C
330
1F
100
AcDbEntity
  8
0
  6
HIDDEN
 62
     7
370
    18
100
AcDbCircle
 10
583.6141065643
 20
82.1243100678
 30
0.0
 40
4.21639999999978
  0
CIRCLE
  5
18D
330
1F
100
AcDbEntity
  8
0
  6
HIDDEN
 62
     7
370
    18
100
AcDbCircle
 10
1249.7799060086
 20
280.5135892996
 30
0.0
 40
4.216399999999737
  0
CIRCLE
  5
18E
330
1F
100
AcDbEntity
  8
0
  6
HIDDEN
 62
     7
370
    18
100
AcDbCircle
 10
664.90431336
 20
30.1309362825
 30
0.0
 40
4.216399999999787
  0
CIRCLE
  5
18F
330
1F
100
AcDbEntity
  8
0
  6
HIDDEN
 62
     7
370
    18
100
AcDbCircle
 10
1078.9141060086
 20
155.4197197686
 30
0.0
 40
4.216399999999766
  0
CIRCLE
  5
190
330
1F
100
AcDbEntity
  8
0
  6
HIDDEN
 62
     7
370
    18
100
AcDbCircle
 10
969.5186374354
 20
40.7683028776
 30
0.0
 40
4.216399999999787
  0
CIRCLE
  5
191
330
1F
100
AcDbEntity
  8
0
  6
HIDDEN
 62
     7
370
    18
100
AcDbCircle
 10
913.8141062228
 20
280.5135892584
 30
0.0
 40
4.216399999999794
  0
CIRCLE
  5
192
330
1F
100
AcDbEntity
  8
0
  6
HIDDEN
 62
     7
370
    18
100
AcDbCircle
 10
1045.6722184542
 20
43.4276445264
 30
0.0
 40
4.216399999999787
  0
CIRCLE
  5
193
330
1F
100
AcDbEntity
  8
0
  6
HIDDEN
 62
     7
370
    18
100
AcDbCircle
 10
913.8141062228
 20
155.4197195954
 30
0.0
 40
4.216399999999794
  0
CIRCLE
  5
194
330
1F
100
AcDbEntity
  8
0
  6
HIDDEN
 62
     7
370
    18
100
AcDbCircle
 10
1121.8257994731
 20
46.0869861751
 30
0.0
 40
4.216399999999787
  0
CIRCLE
  5
195
330
1F
100
AcDbEntity
  8
0
  6
HIDDEN
 62
     7
370
    18
100
AcDbCircle
 10
741.0578943788
 20
32.7902779313
 30
0.0
 40
4.216399999999783
  0
CIRCLE
  5
196
330
1F
100
AcDbEntity
  8
0
  6
HIDDEN
 62
     7
370
    18
100
AcDbCircle
 10
1197.9793804919
 20
48.7463278239
 30
0.0
 40
4.216399999999787
  0
CIRCLE
  5
197
330
1F
100
AcDbEntity
  8
0
  6
HIDDEN
 62
     7
370
    18
100
AcDbCircle
 10
893.3650564165
 20
38.1089612288
 30
0.0
 40
4.216399999999787
  0
CIRCLE
  5
198
330
1F
100
AcDbEntity
  8
0
  6
HIDDEN
 62
     7
370
    18
100
AcDbCircle
 10
1078.9141060086
 20
280.5135894953
 30
0.0
 40
4.216399999999794
  0
CIRCLE
  5
199
330
1F
100
AcDbEntity
  8
0
  6
HIDDEN
 62
     7
370
    18
100
AcDbCircle
 10
817.2114753977
 20
35.44961958
 30
0.0
 40
4.216399999999783
  0
CIRCLE
  5
19A
330
1F
100
AcDbEntity
  8
0
  6
HIDDEN
 62
     7
370
    18
100
AcDbCircle
 10
1350.2865425296
 20
54.0650111214
 30
0.0
 40
4.216399999999787
  0
CIRCLE
  5
19B
330
1F
100
AcDbEntity
  8
0
  6
HIDDEN
 62
     7
370
    18
100
AcDbCircle
 10
1274.1329615108
 20
51.4056694727
 30
0.0
 40
4.216399999999787
  0
ARC
  5
19C
330
1F
100
AcDbEntity
  8
0
  6
Continuous
 62
     7
370
    25
100
AcDbCircle
 10
1522.2441935347
 20
631.2352675914
 30
0.0
 40
7.00000000000014
100
AcDbArc
 50
61.4302029523
 51
196.84
  0
LINE
  5
19D
330
1F
100
AcDbEntity
  8
0
  6
Continuous
 62
     7
370
    25
100
AcDbLine
 10
1515.5443711607
 20
629.2073671606
 30
0.0
 11
1540.9391884296
 21
545.3074072138
 31
0.0
  0
ARC
  5
19E
330
1F
100
AcDbEntity
  8
0
  6
Continuous
 62
     7
370
    25
100
AcDbCircle
 10
1547.6390108035
 20
547.3353076446
 30
0.0
 40
7.000000000000292
100
AcDbArc
 50
196.84
 51
286.84
  0
LINE
  5
19F
330
1F
100
AcDbEntity
  8
0
  6
Continuous
 62
     7
370
    25
100
AcDbLine
 10
1549.6669112343
 20
540.6354852706
 30
0.0
 11
1632.3752172697
 21
565.6696130547
 31
0.0
  0
ARC
  5
1A0
330
1F
100
AcDbEntity
  8
0
  6
Continuous
 62
     7
370
    25
100
AcDbCircle
 10
1630.3473168389
 20
572.3694354287
 30
0.0
 40
7.000000000000014
100
AcDbArc
 50
286.84
 51
61.4302029523
  0
LINE
  5
1A1
330
1F
100
AcDbEntity
  8
0
  6
Continuous
 62
     7
370
    25
100
AcDbLine
 10
1633.6949196335
 20
578.5170817693
 30
0.0
 11
1525.5917963293
 21
637.382913932
 31
0.0
  0
ARC
  5
1A2
330
1F
100
AcDbEntity
  8
0
  6
Continuous
 62
     7
370
    25
100
AcDbCircle
 10
1500.7561986963
 20
699.9840811287
 30
0.0
 40
6.350000000000013
100
AcDbArc
 50
173.408256794
 51
196.84
  0
LINE
  5
1A3
330
1F
100
AcDbEntity
  8
0
  6
Continuous
 62
     7
370
    25
100
AcDbLine
 10
1494.6785026856
 20
698.1444857379
 30
0.0
 11
1507.7810465283
 21
654.8560110873
 31
0.0
  0
ARC
  5
1A4
330
1F
100
AcDbEntity
  8
0
  6
Continuous
 62
     7
370
    25
100
AcDbCircle
 10
1513.858742539
 20
656.6956064781
 30
0.0
 40
6.349999999999781
100
AcDbArc
 50
196.84
 51
241.4302029523
  0
LINE
  5
1A5
330
1F
100
AcDbEntity
  8
0
  6
Continuous
 62
     7
370
    25
100
AcDbLine
 10
1510.8219885753
 20
651.1188130119
 30
0.0
 11
1622.8608301853
 21
590.1098481982
 31
0.0
  0
ARC
  5
1A6
330
1F
100
AcDbEntity
  8
0
  6
Continuous
 62
     7
370
    25
100
AcDbCircle
 10
1626.2084329799
 20
596.2574945388
 30
0.0
 40
6.999999999999932
100
AcDbArc
 50
241.4302029523
 51
32.84
  0
LINE
  5
1A7
330
1F
100
AcDbEntity
  8
0
  6
Continuous
 62
     7
370
    25
100
AcDbLine
 10
1632.089750485
 20
600.0535588698
 30
0.0
 11
1516.0760594582
 21
779.7958636319
 31
0.0
  0
ARC
  5
1A8
330
1F
100
AcDbEntity
  8
0
  6
Continuous
 62
     7
370
    25
100
AcDbCircle
 10
1510.1947419532
 20
775.999799301
 30
0.0
 40
7.000000000000119
100
AcDbArc
 50
32.84
 51
173.408256794
  0
LINE
  5
1A9
330
1F
100
AcDbEntity
  8
0
  6
Continuous
 62
     7
370
    25
100
AcDbLine
 10
1503.2410167224
 20
776.8033572737
 30
0.0
 11
1494.4481765227
 21
700.713023004
 31
0.0
  0
ARC
  5
1AA
330
1F
100
AcDbEntity
  8
0
  6
Continuous
 62
     7
370
    25
100
AcDbCircle
 10
1470.138707946
 20
786.1232953178
 30
0.0
 40
6.999999999999923
100
AcDbArc
 50
106.84
 51
196.84
  0
LINE
  5
1AB
330
1F
100
AcDbEntity
  8
0
  6
Continuous
 62
     7
370
    25
100
AcDbLine
 10
1463.4388855721
 20
784.095394887
 30
0.0
 11
1479.4323147928
 21
731.2559490731
 31
0.0
  0
ARC
  5
1AC
330
1F
100
AcDbEntity
  8
0
  6
Continuous
 62
     7
370
    25
100
AcDbCircle
 10
1486.1321371668
 20
733.2838495039
 30
0.0
 40
7.000000000000127
100
AcDbArc
 50
196.84
 51
353.408256794
  0
LINE
  5
1AD
330
1F
100
AcDbEntity
  8
0
  6
Continuous
 62
     7
370
    25
100
AcDbLine
 10
1493.0858623975
 20
732.4802915312
 30
0.0
 11
1499.9928678302
 21
792.2512347352
 31
0.0
  0
ARC
  5
1AE
330
1F
100
AcDbEntity
  8
0
  6
Continuous
 62
     7
370
    25
100
AcDbCircle
 10
1493.0391425995
 20
793.0547927079
 30
0.0
 40
6.999999999999728
100
AcDbArc
 50
353.408256794
 51
106.84
  0
LINE
  5
1AF
330
1F
100
AcDbEntity
  8
0
  6
Continuous
 62
     7
370
    25
100
AcDbLine
 10
1491.0112421687
 20
799.7546150819
 30
0.0
 11
1468.1108075152
 21
792.8231176917
 31
0.0
  0
ARC
  5
1B0
330
1F
100
AcDbEntity
  8
0
  6
Continuous
 62
     7
370
    25
100
AcDbCircle
 10
1861.7996031657
 20
417.8198415046
 30
0.0
 40
6.999999999999892
100
AcDbArc
 50
301.0459076792
 51
57.5902029523
  0
LINE
  5
1B1
330
1F
100
AcDbEntity
  8
0
  6
Continuous
 62
     7
370
    25
100
AcDbLine
 10
1865.5514012816
 20
423.7294955467
 30
0.0
 11
1708.1530976384
 21
523.6552534379
 31
0.0
  0
ARC
  5
1B2
330
1F
100
AcDbEntity
  8
0
  6
Continuous
 62
     7
370
    25
100
AcDbCircle
 10
1704.4012995226
 20
517.7455993958
 30
0.0
 40
7.00000000000015
100
AcDbArc
 50
57.5902029523
 51
208.1662631584
  0
LINE
  5
1B3
330
1F
100
AcDbEntity
  8
0
  6
Continuous
 62
     7
370
    25
100
AcDbLine
 10
1698.2302286998
 20
514.4413771122
 30
0.0
 11
1772.2057854565
 21
376.2822701478
 31
0.0
  0
ARC
  5
1B4
330
1F
100
AcDbEntity
  8
0
  6
Continuous
 62
     7
370
    25
100
AcDbCircle
 10
1777.8038282744
 20
379.2796717908
 30
0.0
 40
6.350000000000115
100
AcDbArc
 50
208.1662631584
 51
270.0
  0
LINE
  5
1B5
330
1F
100
AcDbEntity
  8
0
  6
Continuous
 62
     7
370
    25
100
AcDbLine
 10
1777.8038282744
 20
372.9296717908
 30
0.0
 11
1799.0346087816
 21
372.9296717908
 31
0.0
  0
ARC
  5
1B6
330
1F
100
AcDbEntity
  8
0
  6
Continuous
 62
     7
370
    25
100
AcDbCircle
 10
1799.0346087816
 20
379.2796717908
 30
0.0
 40
6.350000000000023
100
AcDbArc
 50
270.0
 51
301.0459076792
  0
LINE
  5
1B7
330
1F
100
AcDbEntity
  8
0
  6
Continuous
 62
     7
370
    25
100
AcDbLine
 10
1802.309460667
 20
373.8392816275
 30
0.0
 11
1865.4096761104
 21
411.8225610097
 31
0.0
  0
ARC
  5
1B8
330
1F
100
AcDbEntity
  8
0
  6
Continuous
 62
     7
370
    25
100
AcDbCircle
 10
1970.6218927489
 20
499.3531879916
 30
0.0
 40
6.999999999999786
100
AcDbArc
 50
307.8060246927
 51
79.9805585488
  0
LINE
  5
1B9
330
1F
100
AcDbEntity
  8
0
  6
Continuous
 62
     7
370
    25
100
AcDbLine
 10
1971.8397690589
 20
506.246429413
 30
0.0
 11
1846.3685825975
 21
528.4142857585
 31
0.0
  0
LINE
  5
1BA
330
1F
100
AcDbEntity
  8
0
  6
Continuous
 62
     7
370
    25
100
AcDbLine
 10
1846.3685825975
 20
528.4142857585
 30
0.0
 11
1811.1710809774
 21
526.7749687288
 31
0.0
  0
LINE
  5
1BB
330
1F
100
AcDbEntity
  8
0
  6
Continuous
 62
     7
370
    25
100
AcDbLine
 10
1811.1710809774
 20
526.7749687288
 30
0.0
 11
1794.8517059806
 21
480.4588711118
 31
0.0
  0
LINE
  5
1BC
330
1F
100
AcDbEntity
  8
0
  6
Continuous
 62
     7
370
    25
100
AcDbLine
 10
1794.8517059806
 20
480.4588711118
 30
0.0
 11
1880.2524586927
 21
426.2414193241
 31
0.0
  0
ARC
  5
1BD
330
1F
100
AcDbEntity
  8
0
  6
Continuous
 62
     7
370
    25
100
AcDbCircle
 10
1884.0042568085
 20
432.1510733663
 30
0.0
 40
7.000000000000133
100
AcDbArc
 50
237.5902029523
 51
307.8060246927
  0
LINE
  5
1BE
330
1F
100
AcDbEntity
  8
0
  6
Continuous
 62
     7
370
    25
100
AcDbLine
 10
1888.295187758
 20
426.6204394435
 30
0.0
 11
1974.9128236984
 21
493.8225540689
 31
0.0
  0
ARC
  5
1BF
330
1F
100
AcDbEntity
  8
0
  6
Continuous
 62
     7
370
    25
100
AcDbCircle
 10
2099.5339015339
 20
500.1692117093
 30
0.0
 40
7.000000000003977
100
AcDbArc
 50
26.9142217457
 51
107.7536208577
  0
LINE
  5
1C0
330
1F
100
AcDbEntity
  8
0
  6
Continuous
 62
     7
370
    25
100
AcDbLine
 10
2097.3994301325
 20
506.8358474303
 30
0.0
 11
2083.620184635
 21
502.4241161346
 31
0.0
  0
ARC
  5
1C1
330
1F
100
AcDbEntity
  8
0
  6
Continuous
 62
     7
370
    25
100
AcDbCircle
 10
2037.8815117472
 20
645.2805958702
 30
0.0
 40
150.0
100
AcDbArc
 50
268.4972921854
 51
287.7536208577
  0
LINE
  5
1C2
330
1F
100
AcDbEntity
  8
0
  6
Continuous
 62
     7
370
    25
100
AcDbLine
 10
2033.9478828925
 20
495.3321828608
 30
0.0
 11
2020.7085852393
 21
495.6794921935
 31
0.0
  0
ARC
  5
1C3
330
1F
100
AcDbEntity
  8
0
  6
Continuous
 62
     7
370
    25
100
AcDbCircle
 10
2020.5250158927
 20
488.6818995864
 30
0.0
 40
6.999999999999962
100
AcDbArc
 50
88.4972921854
 51
180.0
  0
LINE
  5
1C4
330
1F
100
AcDbEntity
  8
0
  6
Continuous
 62
     7
370
    25
100
AcDbLine
 10
2013.5250158927
 20
488.6818995864
 30
0.0
 11
2013.5250158927
 21
424.9296717908
 31
0.0
  0
ARC
  5
1C5
330
1F
100
AcDbEntity
  8
0
  6
Continuous
 62
     7
370
    25
100
AcDbCircle
 10
2020.5250158927
 20
424.9296717908
 30
0.0
 40
6.999999999999829
100
AcDbArc
 50
180.0
 51
270.0
  0
LINE
  5
1C6
330
1F
100
AcDbEntity
  8
0
  6
Continuous
 62
     7
370
    25
100
AcDbLine
 10
2020.5250158927
 20
417.9296717908
 30
0.0
 11
2137.7285841749
 21
417.9296717908
 31
0.0
  0
ARC
  5
1C7
330
1F
100
AcDbEntity
  8
0
  6
Continuous
 62
     7
370
    25
100
AcDbCircle
 10
2137.7285841749
 20
424.9296717908
 30
0.0
 40
7.000000000000398
100
AcDbArc
 50
270.0
 51
26.9142217457
  0
LINE
  5
1C8
330
1F
100
AcDbEntity
  8
0
  6
Continuous
 62
     7
370
    25
100
AcDbLine
 10
2143.9703805782
 20
428.0982641691
 30
0.0
 11
2105.7756979372
 21
503.3378040876
 31
0.0
  0
LINE
  5
1C9
330
1F
100
AcDbEntity
  8
0
  6
Continuous
 62
     7
370
    25
100
AcDbLine
 10
1988.5250158927
 20
379.9296717908
 30
0.0
 11
1988.5250158927
 21
477.4360889482
 31
0.0
  0
ARC
  5
1CA
330
1F
100
AcDbEntity
  8
0
  6
Continuous
 62
     7
370
    25
100
AcDbCircle
 10
1981.5250158927
 20
477.4360889482
 30
0.0
 40
7.0
100
AcDbArc
 50
360.0
 51
127.8060246927
  0
LINE
  5
1CB
330
1F
100
AcDbEntity
  8
0
  6
Continuous
 62
     7
370
    25
100
AcDbLine
 10
1977.2340849433
 20
482.9667228709
 30
0.0
 11
1901.2459772719
 21
424.0115058825
 31
0.0
  0
ARC
  5
1CC
330
1F
100
AcDbEntity
  8
0
  6
Continuous
 62
     7
370
    25
100
AcDbCircle
 10
1905.5369082214
 20
418.4808719598
 30
0.0
 40
7.000000000000228
100
AcDbArc
 50
127.8060246927
 51
237.5902029523
  0
LINE
  5
1CD
330
1F
100
AcDbEntity
  8
0
  6
Continuous
 62
     7
370
    25
100
AcDbLine
 10
1901.7851101056
 20
412.5712179176
 30
0.0
 11
1962.6686065298
 21
373.9187713382
 31
0.0
  0
ARC
  5
1CE
330
1F
100
AcDbEntity
  8
0
  6
Continuous
 62
     7
370
    25
100
AcDbCircle
 10
1966.072023392
 20
379.2796717908
 30
0.0
 40
6.349999999999979
100
AcDbArc
 50
237.5902029523
 51
270.0
  0
LINE
  5
1CF
330
1F
100
AcDbEntity
  8
0
  6
Continuous
 62
     7
370
    25
100
AcDbLine
 10
1966.072023392
 20
372.9296717908
 30
0.0
 11
1981.5250158927
 21
372.9296717908
 31
0.0
  0
ARC
  5
1D0
330
1F
100
AcDbEntity
  8
0
  6
Continuous
 62
     7
370
    25
100
AcDbCircle
 10
1981.5250158927
 20
379.9296717908
 30
0.0
 40
6.999999999999773
100
AcDbArc
 50
270.0
 51
360.0
  0
ARC
  5
1D1
330
1F
100
AcDbEntity
  8
0
  6
Continuous
 62
     7
370
    25
100
AcDbCircle
 10
1666.2483623726
 20
389.9296717908
 30
0.0
 40
7.000000000000678
100
AcDbArc
 50
174.3725172676
 51
270.0
  0
LINE
  5
1D2
330
1F
100
AcDbEntity
  8
0
  6
Continuous
 62
     7
370
    25
100
AcDbLine
 10
1666.2483623726
 20
382.9296717908
 30
0.0
 11
1739.9433055183
 21
382.9296717908
 31
0.0
  0
ARC
  5
1D3
330
1F
100
AcDbEntity
  8
0
  6
Continuous
 62
     7
370
    25
100
AcDbCircle
 10
1739.9433055183
 20
389.9296717908
 30
0.0
 40
7.000000000000114
100
AcDbArc
 50
270.0
 51
28.1662631584
  0
LINE
  5
1D4
330
1F
100
AcDbEntity
  8
0
  6
Continuous
 62
     7
370
    25
100
AcDbLine
 10
1746.1143763411
 20
393.2338940743
 30
0.0
 11
1683.873465905
 21
509.477001656
 31
0.0
  0
ARC
  5
1D5
330
1F
100
AcDbEntity
  8
0
  6
Continuous
 62
     7
370
    25
100
AcDbCircle
 10
1677.7023950821
 20
506.1727793724
 30
0.0
 40
7.000000000000203
100
AcDbArc
 50
28.1662631584
 51
174.3725172676
  0
LINE
  5
1D6
330
1F
100
AcDbEntity
  8
0
  6
Continuous
 62
     7
370
    25
100
AcDbLine
 10
1670.7361317328
 20
506.8592012165
 30
0.0
 11
1659.2820990233
 21
390.6160936348
 31
0.0
  0
ARC
  5
1D7
330
1F
100
AcDbEntity
  8
0
  6
Continuous
 62
     7
370
    25
100
AcDbCircle
 10
1639.9297744718
 20
387.9742936062
 30
0.0
 40
4.000000000000401
100
AcDbArc
 50
198.8357446257
 51
354.3725172676
  0
LINE
  5
1D8
330
1F
100
AcDbEntity
  8
0
  6
Continuous
 62
     7
370
    25
100
AcDbLine
 10
1643.9104963857
 20
387.5820525524
 30
0.0
 11
1648.5562170472
 21
434.7299017289
 31
0.0
  0
LINE
  5
1D9
330
1F
100
AcDbEntity
  8
0
  6
Continuous
 62
     7
370
    25
100
AcDbLine
 10
1648.5562170472
 20
434.7299017289
 30
0.0
 11
1627.5411166523
 21
525.7563020851
 31
0.0
  0
ARC
  5
1DA
330
1F
100
AcDbEntity
  8
0
  6
Continuous
 62
     7
370
    25
100
AcDbCircle
 10
1620.7205261988
 20
524.1816447047
 30
0.0
 40
6.999999999999872
100
AcDbArc
 50
13.0
 51
103.0
  0
LINE
  5
1DB
330
1F
100
AcDbEntity
  8
0
  6
Continuous
 62
     7
370
    25
100
AcDbLine
 10
1619.1458688184
 20
531.0022351582
 30
0.0
 11
1552.295038055
 21
515.5685047846
 31
0.0
  0
ARC
  5
1DC
330
1F
100
AcDbEntity
  8
0
  6
Continuous
 62
     7
370
    25
100
AcDbCircle
 10
1553.1948422724
 20
511.6710245255
 30
0.0
 40
4.000000000000233
100
AcDbArc
 50
103.0
 51
198.3321588817
  0
LINE
  5
1DD
330
1F
100
AcDbEntity
  8
0
  6
Continuous
 62
     7
370
    25
100
AcDbLine
 10
1549.3978459087
 20
510.4129233316
 30
0.0
 11
1570.5626273549
 21
446.5368229175
 31
0.0
  0
ARC
  5
1DE
330
1F
100
AcDbEntity
  8
0
  6
Continuous
 62
     7
370
    25
100
AcDbCircle
 10
1574.3596237186
 20
447.7949241114
 30
0.0
 40
3.999999999999945
100
AcDbArc
 50
198.3321588817
 51
283.0
  0
LINE
  5
1DF
330
1F
100
AcDbEntity
  8
0
  6
Continuous
 62
     7
370
    25
100
AcDbLine
 10
1575.2594279359
 20
443.8974438522
 30
0.0
 11
1608.0195818261
 21
451.4607213218
 31
0.0
  0
ARC
  5
1E0
330
1F
100
AcDbEntity
  8
0
  6
Continuous
 62
     7
370
    25
100
AcDbCircle
 10
1609.4480210212
 20
445.2734714104
 30
0.0
 40
6.35000000000008
100
AcDbArc
 50
18.8357446257
 51
103.0
  0
LINE
  5
1E1
330
1F
100
AcDbEntity
  8
0
  6
Continuous
 62
     7
370
    25
100
AcDbLine
 10
1615.4579659912
 20
447.3236083466
 30
0.0
 11
1636.1439823647
 21
386.6828687645
 31
0.0
  0
ARC
  5
1E2
330
1F
100
AcDbEntity
  8
0
  6
Continuous
 62
     7
370
    25
100
AcDbCircle
 10
1884.4487390757
 20
403.4408296665
 30
0.0
 40
6.999999999999856
100
AcDbArc
 50
57.5902029523
 51
121.0459076792
  0
LINE
  5
1E3
330
1F
100
AcDbEntity
  8
0
  6
Continuous
 62
     7
370
    25
100
AcDbLine
 10
1880.8386661311
 20
409.4381101614
 30
0.0
 11
1841.7804502158
 21
385.9269522857
 31
0.0
  0
ARC
  5
1E4
330
1F
100
AcDbEntity
  8
0
  6
Continuous
 62
     7
370
    25
100
AcDbCircle
 10
1845.3905231604
 20
379.9296717908
 30
0.0
 40
6.99999999999994
100
AcDbArc
 50
121.0459076792
 51
270.0
  0
LINE
  5
1E5
330
1F
100
AcDbEntity
  8
0
  6
Continuous
 62
     7
370
    25
100
AcDbLine
 10
1845.3905231604
 20
372.9296717908
 30
0.0
 11
1921.4823973077
 21
372.9296717908
 31
0.0
  0
ARC
  5
1E6
330
1F
100
AcDbEntity
  8
0
  6
Continuous
 62
     7
370
    25
100
AcDbCircle
 10
1921.4823973077
 20
379.9296717908
 30
0.0
 40
7.000000000000081
100
AcDbArc
 50
270.0
 51
57.5902029523
  0
LINE
  5
1E7
330
1F
100
AcDbEntity
  8
0
  6
Continuous
 62
     7
370
    25
100
AcDbLine
 10
1925.2341954235
 20
385.839325833
 30
0.0
 11
1888.2005371915
 21
409.3504837086
 31
0.0
  0
CIRCLE
  5
1E8
330
1F
100
AcDbEntity
  8
0
  6
Continuous
 62
     7
370
    25
100
AcDbCircle
 10
1853.9906532311
 20
579.0276587448
 30
0.0
 40
2.000000000067757
  0
LINE
  5
1E9
330
1F
100
AcDbEntity
  8
0
  6
Continuous
 62
     7
370
    25
100
AcDbLine
 10
2181.1671529118
 20
490.4625630095
 30
0.0
 11
2032.4707327464
 21
575.9386979084
 31
0.0
  0
ARC
  5
1EA
330
1F
100
AcDbEntity
  8
0
  6
Continuous
 62
     7
370
    25
100
AcDbCircle
 10
2163.7617687377
 20
460.1837217709
 30
0.0
 40
34.92500000000032
100
AcDbArc
 50
335.0
 51
60.1081373573
  0
LINE
  5
1EB
330
1F
100
AcDbEntity
  8
0
  6
Continuous
 62
     7
370
    25
100
AcDbLine
 10
2163.8418240925
 20
377.7158107417
 30
0.0
 11
2195.4145682
 21
445.4237789796
 31
0.0
  0
ARC
  5
1EC
330
1F
100
AcDbEntity
  8
0
  6
Continuous
 62
     7
370
    25
100
AcDbCircle
 10
2132.1890246303
 20
392.475753533
 30
0.0
 40
34.92500000000018
100
AcDbArc
 50
270.0
 51
335.0
  0
LINE
  5
1ED
330
1F
100
AcDbEntity
  8
0
  6
Continuous
 62
     7
370
    25
100
AcDbLine
 10
1562.1975159524
 20
357.550753533
 30
0.0
 11
2132.1890246303
 21
357.550753533
 31
0.0
  0
LINE
  5
1EE
330
1F
100
AcDbEntity
  8
0
  6
Continuous
 62
     7
370
    25
100
AcDbLine
 10
1398.3163602778
 20
899.0287288916
 30
0.0
 11
1562.1975159524
 21
357.550753533
 31
0.0
  0
LINE
  5
1EF
330
1F
100
AcDbEntity
  8
0
  6
Continuous
 62
     7
370
    25
100
AcDbLine
 10
1463.8562177281
 20
918.8647112778
 30
0.0
 11
1398.3163602778
 21
899.0287288916
 31
0.0
  0
LINE
  5
1F0
330
1F
100
AcDbEntity
  8
0
  6
Continuous
 62
     7
370
    25
100
AcDbLine
 10
1471.2140542437
 20
894.5537622669
 30
0.0
 11
1463.8562177281
 21
918.8647112778
 31
0.0
  0
LINE
  5
1F1
330
1F
100
AcDbEntity
  8
0
  6
Continuous
 62
     7
370
    25
100
AcDbLine
 10
1658.0766480513
 20
605.0296057019
 30
0.0
 11
1471.2140542437
 21
894.5537622669
 31
0.0
  0
ARC
  5
1F2
330
1F
100
AcDbEntity
  8
0
  6
Continuous
 62
     7
370
    25
100
AcDbCircle
 10
1743.4410059489
 20
660.1248541424
 30
0.0
 40
101.6000000000001
100
AcDbArc
 50
212.8387154332
 51
287.2215389716
  0
LINE
  5
1F3
330
1F
100
AcDbEntity
  8
0
  6
Continuous
 62
     7
370
    25
100
AcDbLine
 10
1837.4744852006
 20
582.903000391
 30
0.0
 11
1773.5214276866
 21
563.0798737051
 31
0.0
  0
ARC
  5
1F4
330
1F
100
AcDbEntity
  8
0
  6
Continuous
 62
     7
370
    25
100
AcDbCircle
 10
1852.277842355
 20
535.1446438765
 30
0.0
 40
49.99999999999998
100
AcDbArc
 50
94.351238813
 51
107.2215389716
  0
LINE
  5
1F5
330
1F
100
AcDbEntity
  8
0
  6
Continuous
 62
     7
370
    25
100
AcDbLine
 10
1853.2209701263
 20
585.3609387319
 30
0.0
 11
1848.4843190839
 21
585.0005279946
 31
0.0
  0
ARC
  5
1F6
330
1F
100
AcDbEntity
  8
0
  6
Continuous
 62
     7
370
    25
100
AcDbCircle
 10
1853.7027475818
 20
579.0292414489
 30
0.0
 40
6.350000000000142
100
AcDbArc
 50
4.2942694869
 51
94.351238813
  0
ARC
  5
1F7
330
1F
100
AcDbEntity
  8
0
  6
Continuous
 62
     7
370
    25
100
AcDbCircle
 10
1853.692794001
 20
579.188609015
 30
0.0
 40
6.349999999999996
100
AcDbArc
 50
303.189090969
 51
2.85346285
  0
ARC
  5
1F8
330
1F
100
AcDbEntity
  8
0
  6
Continuous
 62
     7
370
    25
100
AcDbCircle
 10
1860.6448234661
 20
568.5603783854
 30
0.0
 40
6.350000000000095
100
AcDbArc
 50
123.189090969
 51
182.9176547941
  0
LINE
  5
1F9
330
1F
100
AcDbEntity
  8
0
  6
Continuous
 62
     7
370
    25
100
AcDbLine
 10
1855.9139107542
 20
536.6311397446
 30
0.0
 11
1854.3030548418
 21
568.2371590843
 31
0.0
  0
LINE
  5
1FA
330
1F
100
AcDbEntity
  8
0
  6
Continuous
 62
     7
370
    25
100
AcDbLine
 10
1969.5895962169
 20
522.5076540768
 30
0.0
 11
1855.9139107542
 21
536.6311397446
 31
0.0
  0
ARC
  5
1FB
330
1F
100
AcDbEntity
  8
0
  6
Continuous
 62
     7
370
    25
100
AcDbCircle
 10
1969.9810600624
 20
525.6584287526
 30
0.0
 40
3.175000000000056
100
AcDbArc
 50
262.9176547941
 51
352.9176547941
  0
LINE
  5
1FC
330
1F
100
AcDbEntity
  8
0
  6
Continuous
 62
     7
370
    25
100
AcDbLine
 10
1973.478226465
 20
528.0549676641
 30
0.0
 11
1973.1318347382
 21
525.2669649071
 31
0.0
  0
ARC
  5
1FD
330
1F
100
AcDbEntity
  8
0
  6
Continuous
 62
     7
370
    25
100
AcDbCircle
 10
1976.6290011408
 20
527.6635038185
 30
0.0
 40
3.174999999999981
100
AcDbArc
 50
86.4850128513
 51
172.9176547941
  0
LINE
  5
1FE
330
1F
100
AcDbEntity
  8
0
  6
Continuous
 62
     7
370
    25
100
AcDbLine
 10
1979.6087425644
 20
530.6614567529
 30
0.0
 11
1976.823659199
 21
530.8325309942
 31
0.0
  0
ARC
  5
1FF
330
1F
100
AcDbEntity
  8
0
  6
Continuous
 62
     7
370
    25
100
AcDbCircle
 10
1979.8034006227
 20
533.8304839286
 30
0.0
 40
3.174999999999981
100
AcDbArc
 50
266.4850128513
 51
356.4850128513
  0
LINE
  5
200
330
1F
100
AcDbEntity
  8
0
  6
Continuous
 62
     7
370
    25
100
AcDbLine
 10
1985.6329674886
 20
576.949329849
 30
0.0
 11
1982.9724277984
 21
533.6358258703
 31
0.0
  0
ARC
  5
201
330
1F
100
AcDbEntity
  8
0
  6
Continuous
 62
     7
370
    25
100
AcDbCircle
 10
1988.8019946643
 20
576.7546717908
 30
0.0
 40
3.174999999999981
100
AcDbArc
 50
90.0
 51
176.4850128513
  0
LINE
  5
202
330
1F
100
AcDbEntity
  8
0
  6
Continuous
 62
     7
370
    25
100
AcDbLine
 10
2017.5197943005
 20
579.9296717908
 30
0.0
 11
1988.8019946643
 21
579.9296717908
 31
0.0
  0
ARC
  5
203
330
1F
100
AcDbEntity
  8
0
  6
Continuous
 62
     7
370
    25
100
AcDbCircle
 10
2017.5197943005
 20
549.9296717908
 30
0.0
 40
29.99999999999977
100
AcDbArc
 50
60.1081373573
 51
90.0
  0
ARC
  5
204
330
1F
100
AcDbEntity
  8
0
  6
Continuous
 62
     7
370
    25
100
AcDbCircle
 10
2166.850223522
 20
452.2852435768
 30
0.0
 40
6.350000000000042
100
AcDbArc
 50
206.9142217457
 51
307.5630657861
  0
ARC
  5
205
330
1F
100
AcDbEntity
  8
0
  6
Continuous
 62
     7
370
    25
100
AcDbCircle
 10
2158.5287152105
 20
463.1053636973
 30
0.0
 40
19.99999999999954
100
AcDbArc
 50
307.5630657861
 51
106.2653777052
  0
ARC
  5
206
330
1F
100
AcDbEntity
  8
0
  6
Continuous
 62
     7
370
    25
100
AcDbCircle
 10
2154.7055321206
 20
476.2090185714
 30
0.0
 40
6.350000000000134
100
AcDbArc
 50
106.2653777052
 51
206.9142217457
  0
LINE
  5
207
330
1F
100
AcDbEntity
  8
0
  6
Continuous
 62
     7
370
    25
100
AcDbLine
 10
2149.0433310976
 20
473.3346526282
 30
0.0
 11
2161.188022499
 21
449.4108776336
 31
0.0
  0
ARC
  5
208
330
1F
100
AcDbEntity
  8
0
  6
Continuous
 62
     7
370
    25
100
AcDbCircle
 10
2141.5480885792
 20
395.9296717908
 30
0.0
 40
7.000000000000878
100
AcDbArc
 50
334.9999999998
 51
90.0
  0
LINE
  5
209
330
1F
100
AcDbEntity
  8
0
  6
Continuous
 62
     7
370
    25
100
AcDbLine
 10
2141.5480885792
 20
402.9296717908
 30
0.0
 11
2052.5250158927
 21
402.9296717908
 31
0.0
  0
ARC
  5
20A
330
1F
100
AcDbEntity
  8
0
  6
Continuous
 62
     7
370
    25
100
AcDbCircle
 10
2052.5250158927
 20
395.9296717908
 30
0.0
 40
7.000000000000227
100
AcDbArc
 50
89.9999999999
 51
179.9999999999
  0
LINE
  5
20B
330
1F
100
AcDbEntity
  8
0
  6
Continuous
 62
     7
370
    25
100
AcDbLine
 10
2045.5250158927
 20
395.9296717908
 30
0.0
 11
2045.5250158927
 21
379.9296717908
 31
0.0
  0
ARC
  5
20C
330
1F
100
AcDbEntity
  8
0
  6
Continuous
 62
     7
370
    25
100
AcDbCircle
 10
2052.5250158927
 20
379.9296717908
 30
0.0
 40
7.000000000002501
100
AcDbArc
 50
179.9999999998
 51
270.0
  0
LINE
  5
20D
330
1F
100
AcDbEntity
  8
0
  6
Continuous
 62
     7
370
    25
100
AcDbLine
 10
2052.5250158927
 20
372.9296717908
 30
0.0
 11
2125.8052526582
 21
372.9296717908
 31
0.0
  0
ARC
  5
20E
330
1F
100
AcDbEntity
  8
0
  6
Continuous
 62
     7
370
    25
100
AcDbCircle
 10
2125.8052526582
 20
392.9296717908
 30
0.0
 40
19.99999999999901
100
AcDbArc
 50
270.0
 51
335.0
  0
LINE
  5
20F
330
1F
100
AcDbEntity
  8
0
  6
Continuous
 62
     7
370
    25
100
AcDbLine
 10
2143.9314083989
 20
384.4773065559
 30
0.0
 11
2147.8922430884
 21
392.9713439586
 31
0.0
  0
CIRCLE
  5
210
330
1F
100
AcDbEntity
  8
0
  6
Continuous
 62
     7
370
    25
100
AcDbCircle
 10
2087.504872503
 20
518.346977678
 30
0.0
 40
2.457449999999994
  0
CIRCLE
  5
211
330
1F
100
AcDbEntity
  8
0
  6
Continuous
 62
     7
370
    25
100
AcDbCircle
 10
1994.8269628831
 20
569.6158349174
 30
0.0
 40
1.727199999999925
  0
CIRCLE
  5
212
330
1F
100
AcDbEntity
  8
0
  6
Continuous
 62
     7
370
    25
100
AcDbCircle
 10
1983.1144608154
 20
522.0145825334
 30
0.0
 40
1.727199999999925
  0
CIRCLE
  5
213
330
1F
100
AcDbEntity
  8
0
  6
Continuous
 62
     7
370
    25
100
AcDbCircle
 10
2087.5048725029
 20
531.3250206976
 30
0.0
 40
1.727200000000039
  0
CIRCLE
  5
214
330
1F
100
AcDbEntity
  8
0
  6
Continuous
 62
     7
370
    25
100
AcDbCircle
 10
2099.0712613407
 20
524.2332540793
 30
0.0
 40
1.727200000000039
  0
CIRCLE
  5
215
330
1F
100
AcDbEntity
  8
0
  6
Continuous
 62
     7
370
    25
100
AcDbCircle
 10
2001.0250158927
 20
405.6796717908
 30
0.0
 40
5.079999999999984
  0
CIRCLE
  5
216
330
1F
100
AcDbEntity
  8
0
  6
Continuous
 62
     7
370
    25
100
AcDbCircle
 10
2001.0250158927
 20
464.1796717908
 30
0.0
 40
5.079999999999984
  0
CIRCLE
  5
217
330
1F
100
AcDbEntity
  8
0
  6
Continuous
 62
     7
370
    25
100
AcDbCircle
 10
1611.4523760933
 20
391.9863611978
 30
0.0
 40
5.079999999999984
  0
CIRCLE
  5
218
330
1F
100
AcDbEntity
  8
0
  6
Continuous
 62
     7
370
    25
100
AcDbCircle
 10
1596.6961408352
 20
435.8742874352
 30
0.0
 40
5.079999999999984
  0
CIRCLE
  5
219
330
1F
100
AcDbEntity
  8
0
  6
Continuous
 62
     7
370
    25
100
AcDbCircle
 10
1558.3894755924
 20
530.0095399505
 30
0.0
 40
5.080000000000041
  0
CIRCLE
  5
21A
330
1F
100
AcDbEntity
  8
0
  6
Continuous
 62
     7
370
    25
100
AcDbCircle
 10
1473.9123050147
 20
814.4863984705
 30
0.0
 40
5.079999999999927
  0
CIRCLE
  5
21B
330
1F
100
AcDbEntity
  8
0
  6
Continuous
 62
     7
370
    25
100
AcDbCircle
 10
1453.3259998646
 20
882.5053893477
 30
0.0
 40
5.080000000000041
  0
CIRCLE
  5
21C
330
1F
100
AcDbEntity
  8
0
  6
Continuous
 62
     7
370
    25
100
AcDbCircle
 10
1446.5402779642
 20
827.3759811217
 30
0.0
 40
5.080000000000041
  0
CIRCLE
  5
21D
330
1F
100
AcDbEntity
  8
0
  6
Continuous
 62
     7
370
    25
100
AcDbCircle
 10
1507.2424292174
 20
626.8106517818
 30
0.0
 40
5.080000000000041
  0
CIRCLE
  5
21E
330
1F
100
AcDbEntity
  8
0
  6
Continuous
 62
     7
370
    25
100
AcDbCircle
 10
1547.7105300528
 20
493.1004322218
 30
0.0
 40
5.079999999999984
  0
CIRCLE
  5
21F
330
1F
100
AcDbEntity
  8
0
  6
Continuous
 62
     7
370
    25
100
AcDbCircle
 10
1999.2175988277
 20
484.570001995
 30
0.0
 40
2.152650000000051
  0
CIRCLE
  5
220
330
1F
100
AcDbEntity
  8
0
  6
Continuous
 62
     7
370
    25
100
AcDbCircle
 10
2001.4660771263
 20
504.5334324764
 30
0.0
 40
2.152649999999994
  0
CIRCLE
  5
221
330
1F
100
AcDbEntity
  8
0
  6
Continuous
 62
     7
370
    25
100
AcDbCircle
 10
2001.0250158927
 20
405.6796717908
 30
0.0
 40
1.587500000000034
  0
CIRCLE
  5
222
330
1F
100
AcDbEntity
  8
0
  6
Continuous
 62
     7
370
    25
100
AcDbCircle
 10
1558.3894755924
 20
530.0095399505
 30
0.0
 40
1.587500000000091
  0
CIRCLE
  5
223
330
1F
100
AcDbEntity
  8
0
  6
Continuous
 62
     7
370
    25
100
AcDbCircle
 10
1453.3259998646
 20
882.5053893477
 30
0.0
 40
1.587499999999977
  0
CIRCLE
  5
224
330
1F
100
AcDbEntity
  8
0
  6
Continuous
 62
     7
370
    25
100
AcDbCircle
 10
1507.2424292174
 20
626.8106517818
 30
0.0
 40
1.587499999999977
  0
CIRCLE
  5
225
330
1F
100
AcDbEntity
  8
0
  6
Continuous
 62
     7
370
    25
100
AcDbCircle
 10
1611.4523760933
 20
391.9863611978
 30
0.0
 40
1.587500000000034
  0
CIRCLE
  5
226
330
1F
100
AcDbEntity
  8
0
  6
Continuous
 62
     7
370
    25
100
AcDbCircle
 10
1446.5402779642
 20
827.3759811217
 30
0.0
 40
1.587500000000091
  0
CIRCLE
  5
227
330
1F
100
AcDbEntity
  8
0
  6
Continuous
 62
     7
370
    25
100
AcDbCircle
 10
1596.6961408352
 20
435.8742874352
 30
0.0
 40
1.587499999999977
  0
CIRCLE
  5
228
330
1F
100
AcDbEntity
  8
0
  6
Continuous
 62
     7
370
    25
100
AcDbCircle
 10
2001.0250158927
 20
464.1796717908
 30
0.0
 40
1.587499999999977
  0
CIRCLE
  5
229
330
1F
100
AcDbEntity
  8
0
  6
Continuous
 62
     7
370
    25
100
AcDbCircle
 10
1473.9123050147
 20
814.4863984705
 30
0.0
 40
1.587500000000091
  0
CIRCLE
  5
22A
330
1F
100
AcDbEntity
  8
0
  6
Continuous
 62
     7
370
    25
100
AcDbCircle
 10
1547.7105300528
 20
493.1004322218
 30
0.0
 40
1.587499999999977
  0
CIRCLE
  5
22B
330
1F
100
AcDbEntity
  8
0
  6
Continuous
 62
     7
370
    25
100
AcDbCircle
 10
1853.5994948011
 20
890.9194845577
 30
0.0
 40
2.000000000067651
  0
ARC
  5
22C
330
1F
100
AcDbEntity
  8
0
  6
Continuous
 62
     7
370
    25
100
AcDbCircle
 10
1689.2818539122
 20
866.6669441463
 30
0.0
 40
29.99999999999968
100
AcDbArc
 50
258.5935939014
 51
288.4854565441
  0
LINE
  5
22D
330
1F
100
AcDbEntity
  8
0
  6
Continuous
 62
     7
370
    25
100
AcDbLine
 10
1515.2231418342
 20
871.1791228893
 30
0.0
 11
1683.3488456875
 21
837.2594720787
 31
0.0
  0
ARC
  5
22E
330
1F
100
AcDbEntity
  8
0
  6
Continuous
 62
     7
370
    25
100
AcDbCircle
 10
1522.1301522425
 20
905.4143216213
 30
0.0
 40
34.92500000000027
100
AcDbArc
 50
173.4854565441
 51
258.5935939014
  0
LINE
  5
22F
330
1F
100
AcDbEntity
  8
0
  6
Continuous
 62
     7
370
    25
100
AcDbLine
 10
1495.9066272704
 20
983.6018493762
 30
0.0
 11
1487.4306598535
 21
909.3767518031
 31
0.0
  0
ARC
  5
230
330
1F
100
AcDbEntity
  8
0
  6
Continuous
 62
     7
370
    25
100
AcDbCircle
 10
1530.6061196594
 20
979.6394191943
 30
0.0
 40
34.92500000000022
100
AcDbArc
 50
108.4854565441
 51
173.4854565441
  0
LINE
  5
231
330
1F
100
AcDbEntity
  8
0
  6
Continuous
 62
     7
370
    25
100
AcDbLine
 10
2060.1149835166
 20
1193.4861836931
 30
0.0
 11
1519.5326618321
 21
1012.7624347084
 31
0.0
  0
LINE
  5
232
330
1F
100
AcDbEntity
  8
0
  6
Continuous
 62
     7
370
    25
100
AcDbLine
 10
2387.2236903583
 20
731.9070194189
 30
0.0
 11
2060.1149835166
 21
1193.4861836931
 31
0.0
  0
LINE
  5
233
330
1F
100
AcDbEntity
  8
0
  6
Continuous
 62
     7
370
    25
100
AcDbLine
 10
2331.354691054
 20
692.3141661676
 30
0.0
 11
2387.2236903583
 21
731.9070194189
 31
0.0
  0
LINE
  5
234
330
1F
100
AcDbEntity
  8
0
  6
Continuous
 62
     7
370
    25
100
AcDbLine
 10
2316.6683631609
 20
713.0378669234
 30
0.0
 11
2331.354691054
 21
692.3141661676
 31
0.0
  0
LINE
  5
235
330
1F
100
AcDbEntity
  8
0
  6
Continuous
 62
     7
370
    25
100
AcDbLine
 10
2047.6494331276
 20
928.3763945559
 30
0.0
 11
2316.6683631609
 21
713.0378669234
 31
0.0
  0
ARC
  5
236
330
1F
100
AcDbEntity
  8
0
  6
Continuous
 62
     7
370
    25
100
AcDbCircle
 10
1984.1582365378
 20
849.0578724089
 30
0.0
 40
101.6000000000002
100
AcDbArc
 50
51.3241719774
 51
125.7069955157
  0
LINE
  5
237
330
1F
100
AcDbEntity
  8
0
  6
Continuous
 62
     7
370
    25
100
AcDbLine
 10
1870.4922284357
 20
892.4807755723
 30
0.0
 11
1924.8603761479
 21
931.5583193966
 31
0.0
  0
ARC
  5
238
330
1F
100
AcDbEntity
  8
0
  6
Continuous
 62
     7
370
    25
100
AcDbCircle
 10
1841.3102105273
 20
933.0813892474
 30
0.0
 40
49.99999999999997
100
AcDbArc
 50
292.8366953572
 51
305.7069955157
  0
LINE
  5
239
330
1F
100
AcDbEntity
  8
0
  6
Continuous
 62
     7
370
    25
100
AcDbLine
 10
1856.33752012
 20
885.1570141821
 30
0.0
 11
1860.7155064583
 21
887.0006504314
 31
0.0
  0
ARC
  5
23A
330
1F
100
AcDbEntity
  8
0
  6
Continuous
 62
     7
370
    25
100
AcDbCircle
 10
1853.8730475368
 20
891.0092680117
 30
0.0
 40
6.350000000000046
100
AcDbArc
 50
202.779726031
 51
292.8366953571
  0
ARC
  5
23B
330
1F
100
AcDbEntity
  8
0
  6
Continuous
 62
     7
370
    25
100
AcDbCircle
 10
1853.9330172615
 20
890.8612790695
 30
0.0
 40
6.349999999999948
100
AcDbArc
 50
141.6745475131
 51
201.3389193941
  0
ARC
  5
23C
330
1F
100
AcDbEntity
  8
0
  6
Continuous
 62
     7
370
    25
100
AcDbCircle
 10
1843.969854957
 20
898.7368994828
 30
0.0
 40
6.350000000000149
100
AcDbArc
 50
321.6745475131
 51
21.4031113383
  0
LINE
  5
23D
330
1F
100
AcDbEntity
  8
0
  6
Continuous
 62
     7
370
    25
100
AcDbLine
 10
1849.8819335605
 20
901.0541881109
 30
0.0
 11
1838.3330623329
 21
930.5187242287
 31
0.0
  0
LINE
  5
23E
330
1F
100
AcDbEntity
  8
0
  6
Continuous
 62
     7
370
    25
100
AcDbLine
 10
1838.3330623329
 20
930.5187242287
 30
0.0
 11
1726.0445207131
 21
907.8710370683
 31
0.0
  0
ARC
  5
23F
330
1F
100
AcDbEntity
  8
0
  6
Continuous
 62
     7
370
    25
100
AcDbCircle
 10
1726.6722517787
 20
904.758710172
 30
0.0
 40
3.175000000000185
100
AcDbArc
 50
101.4031113383
 51
191.4031113383
  0
LINE
  5
240
330
1F
100
AcDbEntity
  8
0
  6
Continuous
 62
     7
370
    25
100
AcDbLine
 10
1723.5599248825
 20
904.1309791064
 30
0.0
 11
1724.1153806423
 21
901.3769973526
 31
0.0
  0
ARC
  5
241
330
1F
100
AcDbEntity
  8
0
  6
Continuous
 62
     7
370
    25
100
AcDbCircle
 10
1721.003053746
 20
900.749266287
 30
0.0
 40
3.175000000000185
100
AcDbArc
 50
284.9704693954
 51
11.4031113383
  0
LINE
  5
242
330
1F
100
AcDbEntity
  8
0
  6
Continuous
 62
     7
370
    25
100
AcDbLine
 10
1721.8232234497
 20
897.6820286605
 30
0.0
 11
1719.1275973103
 21
896.9612267008
 31
0.0
  0
ARC
  5
243
330
1F
100
AcDbEntity
  8
0
  6
Continuous
 62
     7
370
    25
100
AcDbCircle
 10
1719.947767014
 20
893.8939890744
 30
0.0
 40
3.174999999999954
100
AcDbArc
 50
104.9704693954
 51
194.9704693954
  0
LINE
  5
244
330
1F
100
AcDbEntity
  8
0
  6
Continuous
 62
     7
370
    25
100
AcDbLine
 10
1716.8805293875
 20
893.0738193707
 30
0.0
 11
1728.0904123433
 21
851.1515505572
 31
0.0
  0
ARC
  5
245
330
1F
100
AcDbEntity
  8
0
  6
Continuous
 62
     7
370
    25
100
AcDbCircle
 10
1725.0231747168
 20
850.3313808535
 30
0.0
 40
3.175000000000006
100
AcDbArc
 50
288.4854565441
 51
14.9704693954
  0
LINE
  5
246
330
1F
100
AcDbEntity
  8
0
  6
Continuous
 62
     7
370
    25
100
AcDbLine
 10
1698.7937718742
 20
838.2148191521
 30
0.0
 11
1726.0298527011
 21
847.320197625
 31
0.0
  0
CIRCLE
  5
247
330
1F
100
AcDbEntity
  8
0
  6
Continuous
 62
     7
370
    25
100
AcDbCircle
 10
1612.8939809735
 20
874.4303587506
 30
0.0
 40
2.457449999999888
  0
CIRCLE
  5
248
330
1F
100
AcDbEntity
  8
0
  6
Continuous
 62
     7
370
    25
100
AcDbCircle
 10
1659.1890982789
 20
1008.7041444606
 30
0.0
 40
1.587499999999967
  0
CIRCLE
  5
249
330
1F
100
AcDbEntity
  8
0
  6
Continuous
 62
     7
370
    25
100
AcDbCircle
 10
1677.7373383047
 20
953.2225007219
 30
0.0
 40
1.587499999999787
  0
CIRCLE
  5
24A
330
1F
100
AcDbEntity
  8
0
  6
Continuous
 62
     7
370
    25
100
AcDbCircle
 10
2024.3197581091
 20
1145.2103702792
 30
0.0
 40
1.587500000000363
  0
CIRCLE
  5
24B
330
1F
100
AcDbEntity
  8
0
  6
Continuous
 62
     7
370
    25
100
AcDbCircle
 10
2052.2299115723
 20
1108.2655481512
 30
0.0
 40
1.587500000000147
  0
CIRCLE
  5
24C
330
1F
100
AcDbEntity
  8
0
  6
Continuous
 62
     7
370
    25
100
AcDbCircle
 10
2118.4070058007
 20
1031.1329443598
 30
0.0
 40
1.587499999999932
  0
CIRCLE
  5
24D
330
1F
100
AcDbEntity
  8
0
  6
Continuous
 62
     7
370
    25
100
AcDbCircle
 10
2288.7228576921
 20
788.1185703472
 30
0.0
 40
1.587499999999895
  0
CIRCLE
  5
24E
330
1F
100
AcDbEntity
  8
0
  6
Continuous
 62
     7
370
    25
100
AcDbCircle
 10
2329.8133639713
 20
730.1362508575
 30
0.0
 40
1.587500000000003
  0
CIRCLE
  5
24F
330
1F
100
AcDbEntity
  8
0
  6
Continuous
 62
     7
370
    25
100
AcDbCircle
 10
2318.7694239497
 20
784.5727189819
 30
0.0
 40
1.587499999999787
  0
CIRCLE
  5
250
330
1F
100
AcDbEntity
  8
0
  6
Continuous
 62
     7
370
    25
100
AcDbCircle
 10
2197.607218831
 20
955.5432502169
 30
0.0
 40
1.587500000000147
  0
CIRCLE
  5
251
330
1F
100
AcDbEntity
  8
0
  6
Continuous
 62
     7
370
    25
100
AcDbCircle
 10
2116.8324154185
 20
1069.5236043736
 30
0.0
 40
1.587499999999932
  0
CIRCLE
  5
252
330
1F
100
AcDbEntity
  8
0
  6
Continuous
 62
     7
370
    25
100
AcDbCircle
 10
1685.9165384503
 20
934.4572933619
 30
0.0
 40
2.152650000000105
  0
CIRCLE
  5
253
330
1F
100
AcDbEntity
  8
0
  6
Continuous
 62
     7
370
    25
100
AcDbCircle
 10
1690.1137560297
 20
914.8109813457
 30
0.0
 40
2.152649999999889
  0
CIRCLE
  5
254
330
1F
100
AcDbEntity
  8
0
  6
Continuous
 62
     7
370
    25
100
AcDbCircle
 10
1701.1514627178
 20
951.8658407993
 30
0.0
 40
4.762500000000082
  0
CIRCLE
  5
255
330
1F
100
AcDbEntity
  8
0
  6
Continuous
 62
     7
370
    25
100
AcDbCircle
 10
944.4588499022
 20
426.2322964959
 30
0.0
 40
2.806700000000092
  0
CIRCLE
  5
256
330
1F
100
AcDbEntity
  8
0
  6
Continuous
 62
     7
370
    25
100
AcDbCircle
 10
965.8788357935
 20
463.8548141273
 30
0.0
 40
2.806699999999978
  0
CIRCLE
  5
257
330
1F
100
AcDbEntity
  8
0
  6
Continuous
 62
     7
370
    25
100
AcDbCircle
 10
916.831200101
 20
459.5637020315
 30
0.0
 40
2.806700000000035
  0
CIRCLE
  5
258
330
1F
100
AcDbEntity
  8
0
  6
Continuous
 62
     7
370
    25
100
AcDbCircle
 10
841.4165253028
 20
413.829387808
 30
0.0
 40
2.806700000000035
  0
CIRCLE
  5
259
330
1F
100
AcDbEntity
  8
0
  6
Continuous
 62
     7
370
    25
100
AcDbCircle
 10
808.0790253028
 20
464.629387808
 30
0.0
 40
2.806699999999978
  0
CIRCLE
  5
25A
330
1F
100
AcDbEntity
  8
0
  6
Continuous
 62
     7
370
    25
100
AcDbCircle
 10
874.7540253028
 20
464.629387808
 30
0.0
 40
2.806699999999978
  0
CIRCLE
  5
25B
330
1F
100
AcDbEntity
  8
0
  6
Continuous
 62
     7
370
    25
100
AcDbCircle
 10
942.1851763969
 20
452.2205035801
 30
0.0
 40
6.349999999999511
  0
CIRCLE
  5
25C
330
1F
100
AcDbEntity
  8
0
  6
Continuous
 62
     7
370
    25
100
AcDbCircle
 10
841.4165253028
 20
442.404387808
 30
0.0
 40
6.35000000000764
  0
CIRCLE
  5
25D
330
1F
100
AcDbEntity
  8
0
  6
Continuous
 62
     7
370
    25
100
AcDbCircle
 10
1345.3012632313
 20
820.3273810307
 30
0.0
 40
1.587499999999977
  0
CIRCLE
  5
25E
330
1F
100
AcDbEntity
  8
0
  6
Continuous
 62
     7
370
    25
100
AcDbCircle
 10
1244.1310111426
 20
486.0518321308
 30
0.0
 40
1.58749999999992
  0
CIRCLE
  5
25F
330
1F
100
AcDbEntity
  8
0
  6
Continuous
 62
     7
370
    25
100
AcDbCircle
 10
1284.5991119781
 20
619.7620516908
 30
0.0
 40
1.587499999999977
  0
CIRCLE
  5
260
330
1F
100
AcDbEntity
  8
0
  6
Continuous
 62
     7
370
    25
100
AcDbCircle
 10
1317.9292361808
 20
807.4377983795
 30
0.0
 40
1.587499999999977
  0
CIRCLE
  5
261
330
1F
100
AcDbEntity
  8
0
  6
Continuous
 62
     7
370
    25
100
AcDbCircle
 10
1338.5155413308
 20
875.4567892567
 30
0.0
 40
1.587499999999977
  0
CIRCLE
  5
262
330
1F
100
AcDbEntity
  8
0
  6
Continuous
 62
     7
370
    25
100
AcDbCircle
 10
1233.4520656031
 20
522.9609398595
 30
0.0
 40
1.587499999999977
  0
CIRCLE
  5
263
330
1F
100
AcDbEntity
  8
0
  6
Continuous
 62
     7
370
    25
100
AcDbCircle
 10
1195.1454003603
 20
428.8256873442
 30
0.0
 40
1.587500000000034
  0
CIRCLE
  5
264
330
1F
100
AcDbEntity
  8
0
  6
Continuous
 62
     7
370
    25
100
AcDbCircle
 10
1180.3891651022
 20
384.9377611068
 30
0.0
 40
1.587499999999977
  0
CIRCLE
  5
265
330
1F
100
AcDbEntity
  8
0
  6
Continuous
 62
     7
370
    25
100
AcDbCircle
 10
790.8165253028
 20
398.6310716998
 30
0.0
 40
1.58749999999992
  0
LINE
  5
266
330
1F
100
AcDbEntity
  8
0
  6
Continuous
 62
     7
370
    25
100
AcDbLine
 10
1320.6274869518
 20
887.5051621759
 30
0.0
 11
1131.1359105366
 21
593.9076704582
 31
0.0
  0
LINE
  5
267
330
1F
100
AcDbEntity
  8
0
  6
Continuous
 62
     7
370
    25
100
AcDbLine
 10
1327.9853234674
 20
911.8161111868
 30
0.0
 11
1320.6274869518
 21
887.5051621759
 31
0.0
  0
LINE
  5
268
330
1F
100
AcDbEntity
  8
0
  6
Continuous
 62
     7
370
    25
100
AcDbLine
 10
1393.5251809177
 20
891.9801288006
 30
0.0
 11
1327.9853234674
 21
911.8161111868
 31
0.0
  0
CIRCLE
  5
269
330
1F
100
AcDbEntity
  8
0
  6
Continuous
 62
     7
370
    25
100
AcDbCircle
 10
790.8165253028
 20
457.1310716998
 30
0.0
 40
1.587499999999977
  0
LINE
  5
26A
330
1F
100
AcDbEntity
  8
0
  6
Continuous
 62
     7
370
    25
100
AcDbLine
 10
659.6525165652
 20
350.502153442
 30
0.0
 11
1229.6440252431
 21
350.502153442
 31
0.0
  0
ARC
  5
26B
330
1F
100
AcDbEntity
  8
0
  6
Continuous
 62
     7
370
    25
100
AcDbCircle
 10
659.6525165652
 20
385.427153442
 30
0.0
 40
34.92500000000007
100
AcDbArc
 50
205.0
 51
270.0
  0
LINE
  5
26C
330
1F
100
AcDbEntity
  8
0
  6
Continuous
 62
     7
370
    25
100
AcDbLine
 10
595.2762545506
 20
440.8429025572
 30
0.0
 11
627.9997171029
 21
370.6672106507
 31
0.0
  0
ARC
  5
26D
330
1F
100
AcDbEntity
  8
0
  6
Continuous
 62
     7
370
    25
100
AcDbCircle
 10
626.9290540129
 20
455.6028453485
 30
0.0
 40
34.92500000000003
100
AcDbArc
 50
95.0
 51
205.0
  0
LINE
  5
26E
330
1F
100
AcDbEntity
  8
0
  6
Continuous
 62
     7
370
    25
100
AcDbLine
 10
1017.2596932476
 20
524.8107591346
 30
0.0
 11
623.8851396974
 21
490.3949451793
 31
0.0
  0
ARC
  5
26F
330
1F
100
AcDbEntity
  8
0
  6
Continuous
 62
     7
370
    25
100
AcDbCircle
 10
1003.0893736902
 20
676.550543119
 30
0.0
 40
152.4
100
AcDbArc
 50
275.3351309541
 51
327.1612845668
  0
LINE
  5
270
330
1F
100
AcDbEntity
  8
0
  6
Continuous
 62
     7
370
    25
100
AcDbLine
 10
1229.6440252431
 20
350.502153442
 30
0.0
 11
1393.5251809177
 21
891.9801288006
 31
0.0
  0
ARC
  5
271
330
1F
100
AcDbEntity
  8
0
  6
Continuous
 62
     7
370
    25
100
AcDbCircle
 10
1971.8729701564
 20
695.7508843186
 30
0.0
 40
7.000000000000215
100
AcDbArc
 50
96.561743206
 51
237.13
  0
LINE
  5
272
330
1F
100
AcDbEntity
  8
0
  6
Continuous
 62
     7
370
    25
100
AcDbLine
 10
1968.0738268953
 20
689.8715552342
 30
0.0
 11
2147.755362395
 21
573.763767264
 31
0.0
  0
ARC
  5
273
330
1F
100
AcDbEntity
  8
0
  6
Continuous
 62
     7
370
    25
100
AcDbCircle
 10
2151.5545056561
 20
579.6430963483
 30
0.0
 40
7.000000000000055
100
AcDbArc
 50
237.13
 51
28.5397970476
  0
LINE
  5
274
330
1F
100
AcDbEntity
  8
0
  6
Continuous
 62
     7
370
    25
100
AcDbLine
 10
2157.7039039546
 20
582.9874797841
 30
0.0
 11
2096.7536109015
 21
695.0582502539
 31
0.0
  0
ARC
  5
275
330
1F
100
AcDbEntity
  8
0
  6
Continuous
 62
     7
370
    25
100
AcDbCircle
 10
2091.1752281592
 20
692.0244167086
 30
0.0
 40
6.349999999999864
100
AcDbArc
 50
28.5397970477
 51
73.13
  0
LINE
  5
276
330
1F
100
AcDbEntity
  8
0
  6
Continuous
 62
     7
370
    25
100
AcDbLine
 10
2093.0180055719
 20
698.1011486763
 30
0.0
 11
2049.7363973307
 21
711.2263565142
 31
0.0
  0
ARC
  5
277
330
1F
100
AcDbEntity
  8
0
  6
Continuous
 62
     7
370
    25
100
AcDbCircle
 10
2047.8936199181
 20
705.1496245465
 30
0.0
 40
6.350000000000104
100
AcDbArc
 50
73.13
 51
96.561743206
  0
LINE
  5
278
330
1F
100
AcDbEntity
  8
0
  6
Continuous
 62
     7
370
    25
100
AcDbLine
 10
2047.1679810153
 20
711.4580275284
 30
0.0
 11
1971.0730532557
 21
702.7050293381
 31
0.0
  0
ARC
  5
279
330
1F
100
AcDbEntity
  8
0
  6
Continuous
 62
     7
370
    25
100
AcDbCircle
 10
2116.6311729442
 20
683.6256358607
 30
0.0
 40
7.000000000000112
100
AcDbArc
 50
73.13
 51
208.5397970477
  0
LINE
  5
27A
330
1F
100
AcDbEntity
  8
0
  6
Continuous
 62
     7
370
    25
100
AcDbLine
 10
2110.4817746456
 20
680.2812524249
 30
0.0
 11
2169.2909960787
 21
572.147321863
 31
0.0
  0
ARC
  5
27B
330
1F
100
AcDbEntity
  8
0
  6
Continuous
 62
     7
370
    25
100
AcDbCircle
 10
2175.4403943773
 20
575.4917052988
 30
0.0
 40
7.000000000000164
100
AcDbArc
 50
208.5397970477
 51
343.13
  0
LINE
  5
27C
330
1F
100
AcDbEntity
  8
0
  6
Continuous
 62
     7
370
    25
100
AcDbLine
 10
2182.1391540267
 20
573.4602971273
 30
0.0
 11
2207.2165843449
 21
656.1554839871
 31
0.0
  0
ARC
  5
27D
330
1F
100
AcDbEntity
  8
0
  6
Continuous
 62
     7
370
    25
100
AcDbCircle
 10
2200.5178246955
 20
658.1868921586
 30
0.0
 40
7.000000000000632
100
AcDbArc
 50
343.13
 51
73.13
  0
LINE
  5
27E
330
1F
100
AcDbEntity
  8
0
  6
Continuous
 62
     7
370
    25
100
AcDbLine
 10
2202.549232867
 20
664.885651808
 30
0.0
 11
2118.6625811156
 21
690.3243955101
 31
0.0
  0
ARC
  5
27F
330
1F
100
AcDbEntity
  8
0
  6
Continuous
 62
     7
370
    25
100
AcDbCircle
 10
1954.8269617378
 20
712.9154112938
 30
0.0
 40
7.000000000001283
100
AcDbArc
 50
163.13
 51
276.561743206
  0
LINE
  5
280
330
1F
100
AcDbEntity
  8
0
  6
Continuous
 62
     7
370
    25
100
AcDbLine
 10
1955.6268786384
 20
705.9612662743
 30
0.0
 11
2015.4014301486
 21
712.836974769
 31
0.0
  0
ARC
  5
281
330
1F
100
AcDbEntity
  8
0
  6
Continuous
 62
     7
370
    25
100
AcDbCircle
 10
2014.6015132479
 20
719.7911197885
 30
0.0
 40
7.000000000001458
100
AcDbArc
 50
276.561743206
 51
73.13
  0
LINE
  5
282
330
1F
100
AcDbEntity
  8
0
  6
Continuous
 62
     7
370
    25
100
AcDbLine
 10
2016.6329214194
 20
726.4898794379
 30
0.0
 11
1963.8018569882
 21
742.5109731342
 31
0.0
  0
ARC
  5
283
330
1F
100
AcDbEntity
  8
0
  6
Continuous
 62
     7
370
    25
100
AcDbCircle
 10
1961.7704488167
 20
735.8122134848
 30
0.0
 40
7.000000000001483
100
AcDbArc
 50
73.13
 51
163.13
  0
LINE
  5
284
330
1F
100
AcDbEntity
  8
0
  6
Continuous
 62
     7
370
    25
100
AcDbLine
 10
1955.0716891673
 20
737.8436216562
 30
0.0
 11
1948.1282020883
 21
714.9468194653
 31
0.0
  0
ARC
  5
285
330
1F
100
AcDbEntity
  8
0
  6
Continuous
 62
     7
370
    25
100
AcDbCircle
 10
2300.0582082288
 20
631.4662792435
 30
0.0
 40
3.999999999999945
100
AcDbArc
 50
347.0
 51
71.6678411183
  0
LINE
  5
286
330
1F
100
AcDbEntity
  8
0
  6
Continuous
 62
     7
370
    25
100
AcDbLine
 10
2301.3163094226
 20
635.2632756073
 30
0.0
 11
2237.4402090085
 21
656.4280570534
 31
0.0
  0
ARC
  5
287
330
1F
100
AcDbEntity
  8
0
  6
Continuous
 62
     7
370
    25
100
AcDbCircle
 10
2236.1821078147
 20
652.6310606897
 30
0.0
 40
4.000000000000531
100
AcDbArc
 50
71.6678411183
 51
167.0
  0
LINE
  5
288
330
1F
100
AcDbEntity
  8
0
  6
Continuous
 62
     7
370
    25
100
AcDbLine
 10
2232.2846275555
 20
653.5308649071
 30
0.0
 11
2209.8543587916
 21
556.3746969025
 31
0.0
  0
ARC
  5
289
330
1F
100
AcDbEntity
  8
0
  6
Continuous
 62
     7
370
    25
100
AcDbCircle
 10
2216.6749492451
 20
554.8000395221
 30
0.0
 40
7.00000000000003
100
AcDbArc
 50
167.0
 51
275.6274827324
  0
LINE
  5
28A
330
1F
100
AcDbEntity
  8
0
  6
Continuous
 62
     7
370
    25
100
AcDbLine
 10
2217.3613710892
 20
547.8337761728
 30
0.0
 11
2360.2710797877
 21
561.9154065765
 31
0.0
  0
ARC
  5
28B
330
1F
100
AcDbEntity
  8
0
  6
Continuous
 62
     7
370
    25
100
AcDbCircle
 10
2359.8788387339
 20
565.8961284903
 30
0.0
 40
3.999999999999882
100
AcDbArc
 50
275.6274827324
 51
71.1642553743
  0
LINE
  5
28C
330
1F
100
AcDbEntity
  8
0
  6
Continuous
 62
     7
370
    25
100
AcDbLine
 10
2361.1702635756
 20
569.6819205975
 30
0.0
 11
2300.5295239935
 21
590.3679369709
 31
0.0
  0
ARC
  5
28D
330
1F
100
AcDbEntity
  8
0
  6
Continuous
 62
     7
370
    25
100
AcDbCircle
 10
2302.5796609297
 20
596.3778819409
 30
0.0
 40
6.349999999999984
100
AcDbArc
 50
167.0
 51
251.1642553743
  0
LINE
  5
28E
330
1F
100
AcDbEntity
  8
0
  6
Continuous
 62
     7
370
    25
100
AcDbLine
 10
2296.3924110183
 20
597.806321136
 30
0.0
 11
2303.9556884879
 21
630.5664750262
 31
0.0
  0
ARC
  5
28F
330
1F
100
AcDbEntity
  8
0
  6
Continuous
 62
     7
370
    25
100
AcDbCircle
 10
2357.9234605494
 20
465.8825974439
 30
0.0
 40
6.999999999999992
100
AcDbArc
 50
241.8337368416
 51
0.0
  0
LINE
  5
290
330
1F
100
AcDbEntity
  8
0
  6
Continuous
 62
     7
370
    25
100
AcDbLine
 10
2364.9234605494
 20
465.8825974439
 30
0.0
 11
2364.9234605494
 21
539.5775405895
 31
0.0
  0
ARC
  5
291
330
1F
100
AcDbEntity
  8
0
  6
Continuous
 62
     7
370
    25
100
AcDbCircle
 10
2357.9234605494
 20
539.5775405895
 30
0.0
 40
7.0
100
AcDbArc
 50
0.0
 51
95.6274827324
  0
LINE
  5
292
330
1F
100
AcDbEntity
  8
0
  6
Continuous
 62
     7
370
    25
100
AcDbLine
 10
2357.2370387053
 20
546.5438039388
 30
0.0
 11
2240.9939311236
 21
535.0897712293
 31
0.0
  0
ARC
  5
293
330
1F
100
AcDbEntity
  8
0
  6
Continuous
 62
     7
370
    25
100
AcDbCircle
 10
2241.6803529677
 20
528.12350788
 30
0.0
 40
7.000000000000028
100
AcDbArc
 50
95.6274827324
 51
241.8337368416
  0
LINE
  5
294
330
1F
100
AcDbEntity
  8
0
  6
Continuous
 62
     7
370
    25
100
AcDbLine
 10
2238.3761306842
 20
521.9524370571
 30
0.0
 11
2354.6192382658
 21
459.711526621
 31
0.0
  0
ARC
  5
295
330
1F
100
AcDbEntity
  8
0
  6
Continuous
 62
     7
370
    25
100
AcDbCircle
 10
2351.9234605494
 20
153.3008870694
 30
0.0
 40
6.999999999999943
100
AcDbArc
 50
90.0
 51
180.0
  0
LINE
  5
296
330
1F
100
AcDbEntity
  8
0
  6
Continuous
 62
     7
370
    25
100
AcDbLine
 10
2344.9234605494
 20
153.3008870694
 30
0.0
 11
2344.9234605494
 21
64.277814383
 31
0.0
  0
ARC
  5
297
330
1F
100
AcDbEntity
  8
0
  6
Continuous
 62
     7
370
    25
100
AcDbCircle
 10
2351.9234605494
 20
64.277814383
 30
0.0
 40
7.000000000000044
100
AcDbArc
 50
180.0
 51
295.0
  0
LINE
  5
298
330
1F
100
AcDbEntity
  8
0
  6
Continuous
 62
     7
370
    25
100
AcDbLine
 10
2354.8817883815
 20
57.9336598737
 30
0.0
 11
2363.3758257842
 21
61.8944945632
 31
0.0
  0
ARC
  5
299
330
1F
100
AcDbEntity
  8
0
  6
Continuous
 62
     7
370
    25
100
AcDbCircle
 10
2354.9234605494
 20
80.0206503039
 30
0.0
 40
20.00000000000045
100
AcDbArc
 50
295.0
 51
0.0
  0
LINE
  5
29A
330
1F
100
AcDbEntity
  8
0
  6
Continuous
 62
     7
370
    25
100
AcDbLine
 10
2374.9234605494
 20
80.0206503039
 30
0.0
 11
2374.9234605494
 21
153.3008870694
 31
0.0
  0
ARC
  5
29B
330
1F
100
AcDbEntity
  8
0
  6
Continuous
 62
     7
370
    25
100
AcDbCircle
 10
2367.9234605494
 20
153.3008870694
 30
0.0
 40
7.0
100
AcDbArc
 50
0.0
 51
90.0
  0
LINE
  5
29C
330
1F
100
AcDbEntity
  8
0
  6
Continuous
 62
     7
370
    25
100
AcDbLine
 10
2367.9234605494
 20
160.3008870694
 30
0.0
 11
2351.9234605494
 21
160.3008870694
 31
0.0
  0
ARC
  5
29D
330
1F
100
AcDbEntity
  8
0
  6
Continuous
 62
     7
370
    25
100
AcDbCircle
 10
2262.708891243
 20
127.0970104411
 30
0.0
 40
8.00000000000019
100
AcDbArc
 50
275.0
 51
95.0
  0
LINE
  5
29E
330
1F
100
AcDbEntity
  8
0
  6
Continuous
 62
     7
370
    25
100
AcDbLine
 10
2263.406137185
 20
119.1274528563
 30
0.0
 11
2262.4099424869
 21
119.0402971136
 31
0.0
  0
ARC
  5
29F
330
1F
100
AcDbEntity
  8
0
  6
Continuous
 62
     7
370
    25
100
AcDbCircle
 10
2262.7585654579
 20
115.0555183212
 30
0.0
 40
3.999999999999602
100
AcDbArc
 50
95.0
 51
185.0
  0
LINE
  5
2A0
330
1F
100
AcDbEntity
  8
0
  6
Continuous
 62
     7
370
    25
100
AcDbLine
 10
2258.7737866655
 20
114.7068953502
 30
0.0
 11
2260.4710507238
 21
95.3070783926
 31
0.0
  0
ARC
  5
2A1
330
1F
100
AcDbEntity
  8
0
  6
Continuous
 62
     7
370
    25
100
AcDbCircle
 10
2266.7968870567
 20
95.860517359
 30
0.0
 40
6.350000000000214
100
AcDbArc
 50
185.0
 51
243.0857782543
  0
LINE
  5
2A2
330
1F
100
AcDbEntity
  8
0
  6
Continuous
 62
     7
370
    25
100
AcDbLine
 10
2263.9225211135
 20
90.1983163361
 30
0.0
 11
2319.754868171
 21
61.8555223839
 31
0.0
  0
ARC
  5
2A3
330
1F
100
AcDbEntity
  8
0
  6
Continuous
 62
     7
370
    25
100
AcDbCircle
 10
2322.9234605494
 20
68.0973187872
 30
0.0
 40
7.000000000000455
100
AcDbArc
 50
243.0857782543
 51
0.0
  0
LINE
  5
2A4
330
1F
100
AcDbEntity
  8
0
  6
Continuous
 62
     7
370
    25
100
AcDbLine
 10
2329.9234605494
 20
68.0973187872
 30
0.0
 11
2329.9234605494
 21
185.3008870694
 31
0.0
  0
ARC
  5
2A5
330
1F
100
AcDbEntity
  8
0
  6
Continuous
 62
     7
370
    25
100
AcDbCircle
 10
2322.9234605494
 20
185.3008870694
 30
0.0
 40
7.0
100
AcDbArc
 50
0.0
 51
90.0
  0
LINE
  5
2A6
330
1F
100
AcDbEntity
  8
0
  6
Continuous
 62
     7
370
    25
100
AcDbLine
 10
2322.9234605494
 20
192.3008870694
 30
0.0
 11
2259.6243515398
 21
192.3008870694
 31
0.0
  0
ARC
  5
2A7
330
1F
100
AcDbEntity
  8
0
  6
Continuous
 62
     7
370
    25
100
AcDbCircle
 10
2259.6243515398
 20
185.3008870694
 30
0.0
 40
7.000000000000085
100
AcDbArc
 50
90.0
 51
185.0
  0
LINE
  5
2A8
330
1F
100
AcDbEntity
  8
0
  6
Continuous
 62
     7
370
    25
100
AcDbLine
 10
2252.6509886532
 20
184.6907968702
 30
0.0
 11
2256.6820488396
 21
138.6155681044
 31
0.0
  0
ARC
  5
2A9
330
1F
100
AcDbEntity
  8
0
  6
Continuous
 62
     7
370
    25
100
AcDbCircle
 10
2260.6668276319
 20
138.9641910754
 30
0.0
 40
4.000000000002046
100
AcDbArc
 50
185.0
 51
275.0
  0
LINE
  5
2AA
330
1F
100
AcDbEntity
  8
0
  6
Continuous
 62
     7
370
    25
100
AcDbLine
 10
2261.0154506029
 20
134.979412283
 30
0.0
 11
2262.011645301
 21
135.0665680258
 31
0.0
  0
ARC
  5
2AB
330
1F
100
AcDbEntity
  8
0
  6
Continuous
 62
     7
370
    25
100
AcDbCircle
 10
2271.6441137687
 20
51.1203708415
 30
0.0
 40
6.350000000000207
100
AcDbArc
 50
63.0857782543
 51
163.7346222948
  0
ARC
  5
2AC
330
1F
100
AcDbEntity
  8
0
  6
Continuous
 62
     7
370
    25
100
AcDbCircle
 10
2284.7477686429
 20
47.2971877516
 30
0.0
 40
19.99999999999968
100
AcDbArc
 50
163.7346222948
 51
322.4369342139
  0
ARC
  5
2AD
330
1F
100
AcDbEntity
  8
0
  6
Continuous
 62
     7
370
    25
100
AcDbCircle
 10
2295.5678887633
 20
38.9756794401
 30
0.0
 40
6.350000000000001
100
AcDbArc
 50
322.4369342138
 51
63.0857782543
  0
LINE
  5
2AE
330
1F
100
AcDbEntity
  8
0
  6
Continuous
 62
     7
370
    25
100
AcDbLine
 10
2298.4422547065
 20
44.6378804631
 30
0.0
 11
2274.5184797119
 21
56.7825718645
 31
0.0
  0
ARC
  5
2AF
330
1F
100
AcDbEntity
  8
0
  6
Continuous
 62
     7
370
    25
100
AcDbCircle
 10
2344.4123026737
 20
321.3771638864
 30
0.0
 40
7.000000000000165
100
AcDbArc
 50
148.9540923208
 51
212.4097970477
  0
LINE
  5
2B0
330
1F
100
AcDbEntity
  8
0
  6
Continuous
 62
     7
370
    25
100
AcDbLine
 10
2338.5026486315
 20
317.6253657706
 30
0.0
 11
2362.0138065072
 21
280.5917075386
 31
0.0
  0
ARC
  5
2B1
330
1F
100
AcDbEntity
  8
0
  6
Continuous
 62
     7
370
    25
100
AcDbCircle
 10
2367.9234605494
 20
284.3435056544
 30
0.0
 40
7.000000000000176
100
AcDbArc
 50
212.4097970477
 51
0.0
  0
LINE
  5
2B2
330
1F
100
AcDbEntity
  8
0
  6
Continuous
 62
     7
370
    25
100
AcDbLine
 10
2374.9234605494
 20
284.3435056544
 30
0.0
 11
2374.9234605494
 21
360.4353798017
 31
0.0
  0
ARC
  5
2B3
330
1F
100
AcDbEntity
  8
0
  6
Continuous
 62
     7
370
    25
100
AcDbCircle
 10
2367.9234605494
 20
360.4353798017
 30
0.0
 40
7.0
100
AcDbArc
 50
360.0
 51
148.9540923208
  0
LINE
  5
2B4
330
1F
100
AcDbEntity
  8
0
  6
Continuous
 62
     7
370
    25
100
AcDbLine
 10
2361.9261800544
 20
364.0454527463
 30
0.0
 11
2338.4150221788
 21
324.987236831
 31
0.0
  0
LINE
  5
2B5
330
1F
100
AcDbEntity
  8
0
  6
Continuous
 62
     7
370
    25
100
AcDbLine
 10
2323.8416264576
 20
304.5799256902
 30
0.0
 11
2264.8864094692
 21
228.5918180189
 31
0.0
  0
ARC
  5
2B6
330
1F
100
AcDbEntity
  8
0
  6
Continuous
 62
     7
370
    25
100
AcDbCircle
 10
2270.4170433919
 20
224.3008870694
 30
0.0
 40
6.999999999999744
100
AcDbArc
 50
142.1939753073
 51
270.0
  0
LINE
  5
2B7
330
1F
100
AcDbEntity
  8
0
  6
Continuous
 62
     7
370
    25
100
AcDbLine
 10
2270.4170433919
 20
217.3008870694
 30
0.0
 11
2367.9234605494
 21
217.3008870694
 31
0.0
  0
ARC
  5
2B8
330
1F
100
AcDbEntity
  8
0
  6
Continuous
 62
     7
370
    25
100
AcDbCircle
 10
2367.9234605494
 20
224.3008870694
 30
0.0
 40
7.000000000000455
100
AcDbArc
 50
270.0
 51
0.0
  0
LINE
  5
2B9
330
1F
100
AcDbEntity
  8
0
  6
Continuous
 62
     7
370
    25
100
AcDbLine
 10
2374.9234605494
 20
224.3008870694
 30
0.0
 11
2374.9234605494
 21
239.7538795702
 31
0.0
  0
ARC
  5
2BA
330
1F
100
AcDbEntity
  8
0
  6
Continuous
 62
     7
370
    25
100
AcDbCircle
 10
2368.5734605494
 20
239.7538795702
 30
0.0
 40
6.350000000000011
100
AcDbArc
 50
0.0
 51
32.4097970477
  0
LINE
  5
2BB
330
1F
100
AcDbEntity
  8
0
  6
Continuous
 62
     7
370
    25
100
AcDbLine
 10
2373.9343610019
 20
243.1572964324
 30
0.0
 11
2335.2819144225
 21
304.0407928565
 31
0.0
  0
ARC
  5
2BC
330
1F
100
AcDbEntity
  8
0
  6
Continuous
 62
     7
370
    25
100
AcDbCircle
 10
2329.3722603803
 20
300.2889947407
 30
0.0
 40
7.000000000000146
100
AcDbArc
 50
32.4097970477
 51
142.1939753073
  0
LINE
  5
2BD
330
1F
100
AcDbEntity
  8
0
  6
Continuous
 62
     7
370
    25
100
AcDbLine
 10
1853.2993700733
 20
734.6118487185
 30
0.0
 11
2146.8968617909
 21
545.1202723033
 31
0.0
  0
LINE
  5
2BE
330
1F
100
AcDbEntity
  8
0
  6
Continuous
 62
     7
370
    25
100
AcDbLine
 10
1828.9884210624
 20
741.969685234
 30
0.0
 11
1853.2993700733
 21
734.6118487185
 31
0.0
  0
LINE
  5
2BF
330
1F
100
AcDbEntity
  8
0
  6
Continuous
 62
     7
370
    25
100
AcDbLine
 10
1848.8244034485
 20
807.5095426843
 30
0.0
 11
1828.9884210624
 21
741.969685234
 31
0.0
  0
LINE
  5
2C0
330
1F
100
AcDbEntity
  8
0
  6
Continuous
 62
     7
370
    25
100
AcDbLine
 10
2390.3023788071
 20
643.6283870097
 30
0.0
 11
1848.8244034485
 21
807.5095426843
 31
0.0
  0
LINE
  5
2C1
330
1F
100
AcDbEntity
  8
0
  6
Continuous
 62
     7
370
    25
100
AcDbLine
 10
2390.3023788071
 20
73.6368783318
 30
0.0
 11
2390.3023788071
 21
643.6283870097
 31
0.0
  0
ARC
  5
2C2
330
1F
100
AcDbEntity
  8
0
  6
Continuous
 62
     7
370
    25
100
AcDbCircle
 10
2355.3773788071
 20
73.6368783318
 30
0.0
 40
34.92500000000018
100
AcDbArc
 50
295.0
 51
0.0
  0
LINE
  5
2C3
330
1F
100
AcDbEntity
  8
0
  6
Continuous
 62
     7
370
    25
100
AcDbLine
 10
2299.9616296919
 20
9.2606163173
 30
0.0
 11
2370.1373215984
 21
41.9840788696
 31
0.0
  0
ARC
  5
2C4
330
1F
100
AcDbEntity
  8
0
  6
Continuous
 62
     7
370
    25
100
AcDbCircle
 10
2285.2016869007
 20
40.9134157795
 30
0.0
 40
34.92500000000013
100
AcDbArc
 50
185.0
 51
295.0
  0
LINE
  5
2C5
330
1F
100
AcDbEntity
  8
0
  6
Continuous
 62
     7
370
    25
100
AcDbLine
 10
2215.9937731146
 20
431.2440550143
 30
0.0
 11
2250.4095870698
 21
37.869501464
 31
0.0
  0
ARC
  5
2C6
330
1F
100
AcDbEntity
  8
0
  6
Continuous
 62
     7
370
    25
100
AcDbCircle
 10
2064.2539891302
 20
417.0737354568
 30
0.0
 40
152.4000000000003
100
AcDbArc
 50
5.3351309541
 51
57.1612845668
  0
ARC
  5
2C7
330
1F
100
AcDbEntity
  8
0
  6
Continuous
 62
     7
370
    25
100
AcDbCircle
 10
2330.0332908356
 20
344.0262997964
 30
0.0
 40
7.00000000000053
100
AcDbArc
 50
212.4097970477
 51
328.9540923208
  0
LINE
  5
2C8
330
1F
100
AcDbEntity
  8
0
  6
Continuous
 62
     7
370
    25
100
AcDbLine
 10
2336.0305713305
 20
340.4162268518
 30
0.0
 11
2374.0138507126
 21
403.5164422951
 31
0.0
  0
ARC
  5
2C9
330
1F
100
AcDbEntity
  8
0
  6
Continuous
 62
     7
370
    25
100
AcDbCircle
 10
2368.5734605494
 20
406.7912941805
 30
0.0
 40
6.349999999999909
100
AcDbArc
 50
328.9540923208
 51
0.0
  0
LINE
  5
2CA
330
1F
100
AcDbEntity
  8
0
  6
Continuous
 62
     7
370
    25
100
AcDbLine
 10
2374.9234605494
 20
406.7912941805
 30
0.0
 11
2374.9234605494
 21
428.0220746876
 31
0.0
  0
ARC
  5
2CB
330
1F
100
AcDbEntity
  8
0
  6
Continuous
 62
     7
370
    25
100
AcDbCircle
 10
2368.5734605494
 20
428.0220746876
 30
0.0
 40
6.349999999999909
100
AcDbArc
 50
0.0
 51
61.8337368416
  0
LINE
  5
2CC
330
1F
100
AcDbEntity
  8
0
  6
Continuous
 62
     7
370
    25
100
AcDbLine
 10
2371.5708621923
 20
433.6201175055
 30
0.0
 11
2233.4117552279
 21
507.5956742624
 31
0.0
  0
ARC
  5
2CD
330
1F
100
AcDbEntity
  8
0
  6
Continuous
 62
     7
370
    25
100
AcDbCircle
 10
2230.1075329444
 20
501.4246034395
 30
0.0
 40
7.000000000000107
100
AcDbArc
 50
61.8337368416
 51
212.4097970477
  0
LINE
  5
2CE
330
1F
100
AcDbEntity
  8
0
  6
Continuous
 62
     7
370
    25
100
AcDbLine
 10
2224.1978789022
 20
497.6728053237
 30
0.0
 11
2306.830043763
 21
367.5145473337
 31
0.0
  0
ARC
  5
2CF
330
1F
100
AcDbEntity
  8
0
  6
Continuous
 62
     7
370
    25
100
AcDbCircle
 10
2312.1909442155
 20
370.9179641959
 30
0.0
 40
6.350000000000034
100
AcDbArc
 50
212.4097970477
 51
280.807113655
  0
ARC
  5
2D0
330
1F
100
AcDbEntity
  8
0
  6
Continuous
 62
     7
370
    25
100
AcDbCircle
 10
2314.5722357533
 20
358.4432116688
 30
0.0
 40
6.350000000000212
100
AcDbArc
 50
324.0124804403
 51
100.807113655
  0
ARC
  5
2D1
330
1F
100
AcDbEntity
  8
0
  6
Continuous
 62
     7
370
    25
100
AcDbCircle
 10
2324.8483773723
 20
350.9805771859
 30
0.0
 40
6.349999999999996
100
AcDbArc
 50
144.0124804403
 51
212.4097970477
  0
ARC
  5
2D2
330
1F
100
AcDbEntity
  8
0
  6
Continuous
 62
     7
370
    25
100
AcDbCircle
 10
2236.8081178174
 20
446.0916318691
 30
0.0
 40
7.000000000000285
100
AcDbArc
 50
32.4097970477
 51
185.0
  0
LINE
  5
2D3
330
1F
100
AcDbEntity
  8
0
  6
Continuous
 62
     7
370
    25
100
AcDbLine
 10
2229.8347549308
 20
445.4815416698
 30
0.0
 11
2247.6001444411
 21
242.4222103874
 31
0.0
  0
ARC
  5
2D4
330
1F
100
AcDbEntity
  8
0
  6
Continuous
 62
     7
370
    25
100
AcDbCircle
 10
2254.5735073278
 20
243.0323005866
 30
0.0
 40
7.000000000000454
100
AcDbArc
 50
185.0
 51
322.1939753073
  0
LINE
  5
2D5
330
1F
100
AcDbEntity
  8
0
  6
Continuous
 62
     7
370
    25
100
AcDbLine
 10
2260.1041412505
 20
238.7413696372
 30
0.0
 11
2321.2326928966
 21
317.5307152041
 31
0.0
  0
ARC
  5
2D6
330
1F
100
AcDbEntity
  8
0
  6
Continuous
 62
     7
370
    25
100
AcDbCircle
 10
2315.7020589739
 20
321.8216461536
 30
0.0
 40
7.000000000000176
100
AcDbArc
 50
322.1939753073
 51
32.4097970477
  0
ARC
  5
2D7
330
1F
100
AcDbEntity
  8
0
  6
Continuous
 62
     7
370
    25
100
AcDbCircle
 10
2309.0885148437
 20
333.4517383001
 30
0.0
 40
6.349999999999996
100
AcDbArc
 50
32.4097970477
 51
122.4097970477
  0
LINE
  5
2D8
330
1F
100
AcDbEntity
  8
0
  6
Continuous
 62
     7
370
    25
100
AcDbLine
 10
2284.6442470799
 20
325.4546614151
 30
0.0
 11
2305.6850979815
 21
338.8126387526
 31
0.0
  0
ARC
  5
2D9
330
1F
100
AcDbEntity
  8
0
  6
Continuous
 62
     7
370
    25
100
AcDbCircle
 10
2281.2408302177
 20
330.8155618677
 30
0.0
 40
6.349999999999905
100
AcDbArc
 50
122.4097970477
 51
302.4097970477
  0
LINE
  5
2DA
330
1F
100
AcDbEntity
  8
0
  6
Continuous
 62
     7
370
    25
100
AcDbLine
 10
2277.8374133555
 20
336.1764623202
 30
0.0
 11
2298.8782642571
 21
349.5344396577
 31
0.0
  0
ARC
  5
2DB
330
1F
100
AcDbEntity
  8
0
  6
Continuous
 62
     7
370
    25
100
AcDbCircle
 10
2295.4748473949
 20
354.8953401102
 30
0.0
 40
6.350000000000101
100
AcDbArc
 50
302.4097970477
 51
32.4097970477
  0
ARC
  5
2DC
330
1F
100
AcDbEntity
  8
0
  6
Continuous
 62
     7
370
    25
100
AcDbCircle
 10
2285.6624447694
 20
370.3513702723
 30
0.0
 40
6.349999999999996
100
AcDbArc
 50
32.4097970477
 51
122.4097970477
  0
LINE
  5
2DD
330
1F
100
AcDbEntity
  8
0
  6
Continuous
 62
     7
370
    25
100
AcDbLine
 10
2282.2590279072
 20
375.7122707248
 30
0.0
 11
2280.353134984
 21
374.5022971076
 31
0.0
  0
ARC
  5
2DE
330
1F
100
AcDbEntity
  8
0
  6
Continuous
 62
     7
370
    25
100
AcDbCircle
 10
2276.9497181218
 20
379.8631975601
 30
0.0
 40
6.350000000000197
100
AcDbArc
 50
122.4097970477
 51
302.4097970477
  0
LINE
  5
2DF
330
1F
100
AcDbEntity
  8
0
  6
Continuous
 62
     7
370
    25
100
AcDbLine
 10
2275.4521941828
 20
386.4340716299
 30
0.0
 11
2273.5463012596
 21
385.2240980127
 31
0.0
  0
ARC
  5
2E0
330
1F
100
AcDbEntity
  8
0
  6
Continuous
 62
     7
370
    25
100
AcDbCircle
 10
2272.0487773206
 20
391.7949720824
 30
0.0
 40
6.349999999999858
100
AcDbArc
 50
302.4097970477
 51
32.4097970477
  0
LINE
  5
2E1
330
1F
100
AcDbEntity
  8
0
  6
Continuous
 62
     7
370
    25
100
AcDbLine
 10
2277.4096777731
 20
395.1983889446
 30
0.0
 11
2242.7177718596
 21
449.8434299849
 31
0.0
  0
CIRCLE
  5
2E2
330
1F
100
AcDbEntity
  8
0
  6
Continuous
 62
     7
370
    25
100
AcDbCircle
 10
2276.9497181218
 20
379.8631975601
 30
0.0
 40
2.457449999999881
  0
CIRCLE
  5
2E3
330
1F
100
AcDbEntity
  8
0
  6
Continuous
 62
     7
370
    25
100
AcDbCircle
 10
2281.2408302177
 20
330.8155618677
 30
0.0
 40
2.457450000000335
  0
CIRCLE
  5
2E4
330
1F
100
AcDbEntity
  8
0
  6
Continuous
 62
     7
370
    25
100
AcDbCircle
 10
2314.5722357533
 20
358.4432116688
 30
0.0
 40
2.457449999999426
  0
CIRCLE
  5
2E5
330
1F
100
AcDbEntity
  8
0
  6
Continuous
 62
     7
370
    25
100
AcDbCircle
 10
1920.4771512184
 20
759.2856249979
 30
0.0
 40
5.079999999999927
  0
CIRCLE
  5
2E6
330
1F
100
AcDbEntity
  8
0
  6
Continuous
 62
     7
370
    25
100
AcDbCircle
 10
2254.7527001183
 20
658.1153729093
 30
0.0
 40
5.079999999999927
  0
CIRCLE
  5
2E7
330
1F
100
AcDbEntity
  8
0
  6
Continuous
 62
     7
370
    25
100
AcDbCircle
 10
2121.0424805584
 20
698.5834737447
 30
0.0
 40
5.079999999999927
  0
CIRCLE
  5
2E8
330
1F
100
AcDbEntity
  8
0
  6
Continuous
 62
     7
370
    25
100
AcDbCircle
 10
1933.3667338696
 20
731.9135979474
 30
0.0
 40
5.080000000000155
  0
CIRCLE
  5
2E9
330
1F
100
AcDbEntity
  8
0
  6
Continuous
 62
     7
370
    25
100
AcDbCircle
 10
1865.3477429924
 20
752.4999030975
 30
0.0
 40
5.079999999999927
  0
CIRCLE
  5
2EA
330
1F
100
AcDbEntity
  8
0
  6
Continuous
 62
     7
370
    25
100
AcDbCircle
 10
2217.8435923896
 20
647.4364273697
 30
0.0
 40
5.079999999999927
  0
CIRCLE
  5
2EB
330
1F
100
AcDbEntity
  8
0
  6
Continuous
 62
     7
370
    25
100
AcDbCircle
 10
2311.9788449049
 20
609.1297621269
 30
0.0
 40
5.080000000000382
  0
CIRCLE
  5
2EC
330
1F
100
AcDbEntity
  8
0
  6
Continuous
 62
     7
370
    25
100
AcDbCircle
 10
2355.8667711424
 20
594.3735268688
 30
0.0
 40
5.079999999999927
  0
CIRCLE
  5
2ED
330
1F
100
AcDbEntity
  8
0
  6
Continuous
 62
     7
370
    25
100
AcDbCircle
 10
2342.1734605494
 20
204.8008870694
 30
0.0
 40
5.079999999999927
  0
CIRCLE
  5
2EE
330
1F
100
AcDbEntity
  8
0
  6
Continuous
 62
     7
370
    25
100
AcDbCircle
 10
2283.6734605494
 20
204.8008870694
 30
0.0
 40
5.079999999999927
  0
LINE
  5
2EF
330
1F
100
AcDbEntity
  8
0
  6
Continuous
 62
     7
370
    25
100
AcDbLine
 10
2321.611713016
 20
325.5734442694
 30
0.0
 11
2314.4494152963
 21
336.8551551623
 31
0.0
  0
LINE
  5
2F0
330
1F
100
AcDbEntity
  8
0
  6
Continuous
 62
     7
370
    25
100
AcDbLine
 10
2319.4874769197
 20
347.5771603237
 30
0.0
 11
2324.1236367934
 21
340.2745016806
 31
0.0
  0
LINE
  5
2F1
330
1F
100
AcDbEntity
  8
0
  6
Continuous
 62
     7
370
    25
100
AcDbLine
 10
2300.8357478475
 20
358.2987569724
 30
0.0
 11
2291.0233452219
 21
373.7547871345
 31
0.0
  0
CIRCLE
  5
2F2
330
1F
100
AcDbEntity
  8
0
  6
Continuous
 62
     7
370
    25
100
AcDbCircle
 10
2121.0424805584
 20
698.5834737447
 30
0.0
 40
1.587500000000546
  0
CIRCLE
  5
2F3
330
1F
100
AcDbEntity
  8
0
  6
Continuous
 62
     7
370
    25
100
AcDbCircle
 10
2342.1734605494
 20
204.8008870694
 30
0.0
 40
1.587500000000091
  0
CIRCLE
  5
2F4
330
1F
100
AcDbEntity
  8
0
  6
Continuous
 62
     7
370
    25
100
AcDbCircle
 10
1920.4771512184
 20
759.2856249979
 30
0.0
 40
1.587500000000091
  0
CIRCLE
  5
2F5
330
1F
100
AcDbEntity
  8
0
  6
Continuous
 62
     7
370
    25
100
AcDbCircle
 10
2283.6734605494
 20
204.8008870694
 30
0.0
 40
1.587500000000091
  0
CIRCLE
  5
2F6
330
1F
100
AcDbEntity
  8
0
  6
Continuous
 62
     7
370
    25
100
AcDbCircle
 10
2254.7527001183
 20
658.1153729093
 30
0.0
 40
1.587500000000091
  0
CIRCLE
  5
2F7
330
1F
100
AcDbEntity
  8
0
  6
Continuous
 62
     7
370
    25
100
AcDbCircle
 10
2311.9788449049
 20
609.1297621269
 30
0.0
 40
1.587500000000546
  0
CIRCLE
  5
2F8
330
1F
100
AcDbEntity
  8
0
  6
Continuous
 62
     7
370
    25
100
AcDbCircle
 10
1933.3667338696
 20
731.9135979474
 30
0.0
 40
1.587500000000091
  0
CIRCLE
  5
2F9
330
1F
100
AcDbEntity
  8
0
  6
Continuous
 62
     7
370
    25
100
AcDbCircle
 10
1865.3477429924
 20
752.4999030975
 30
0.0
 40
1.587500000000091
  0
CIRCLE
  5
2FA
330
1F
100
AcDbEntity
  8
0
  6
Continuous
 62
     7
370
    25
100
AcDbCircle
 10
2217.8435923896
 20
647.4364273697
 30
0.0
 40
1.587499999999636
  0
CIRCLE
  5
2FB
330
1F
100
AcDbEntity
  8
0
  6
Continuous
 62
     7
370
    25
100
AcDbCircle
 10
2355.8667711424
 20
594.3735268688
 30
0.0
 40
1.587500000000091
  0
LINE
  5
2FC
330
1F
100
AcDbEntity
  8
0
  6
Continuous
 62
     7
370
    25
100
AcDbLine
 10
2215.2939692367
 20
210.6070317864
 30
0.0
 11
2215.2939692367
 21
28.4570317924
 31
0.0
  0
LINE
  5
2FD
330
1F
100
AcDbEntity
  8
0
  6
Continuous
 62
     7
370
    25
100
AcDbLine
 10
2215.2939692367
 20
28.4570317924
 30
0.0
 11
2093.0561071231
 21
28.4570317924
 31
0.0
  0
LINE
  5
2FE
330
1F
100
AcDbEntity
  8
0
  6
Continuous
 62
     7
370
    25
100
AcDbLine
 10
2093.0561071231
 20
210.6070317864
 30
0.0
 11
2093.0561071231
 21
28.4570317924
 31
0.0
  0
LINE
  5
2FF
330
1F
100
AcDbEntity
  8
0
  6
Continuous
 62
     7
370
    25
100
AcDbLine
 10
2215.2939692367
 20
210.6070317864
 30
0.0
 11
2093.0561071231
 21
210.6070317864
 31
0.0
  0
CIRCLE
  5
300
330
1F
100
AcDbEntity
  8
0
  6
Continuous
 62
     7
370
    25
100
AcDbCircle
 10
2137.5061071231
 20
119.5320317894
 30
0.0
 40
3.174999999999727
  0
CIRCLE
  5
301
330
1F
100
AcDbEntity
  8
0
  6
Continuous
 62
     7
370
    25
100
AcDbCircle
 10
2154.1750381799
 20
37.9820317924
 30
0.0
 40
5.079999999999927
  0
CIRCLE
  5
302
330
1F
100
AcDbEntity
  8
0
  6
Continuous
 62
     7
370
    25
100
AcDbCircle
 10
2154.1750381799
 20
201.0820317864
 30
0.0
 40
5.079999999999927
  0
CIRCLE
  5
303
330
1F
100
AcDbEntity
  8
0
  6
Continuous
 62
     7
370
    25
100
AcDbCircle
 10
2154.1750381799
 20
201.0820317864
 30
0.0
 40
1.587500000000091
  0
CIRCLE
  5
304
330
1F
100
AcDbEntity
  8
0
  6
Continuous
 62
     7
370
    25
100
AcDbCircle
 10
2154.1750381799
 20
37.9820317924
 30
0.0
 40
1.587499999999636
  0
ARC
  5
305
330
1F
100
AcDbEntity
  8
0
  6
Continuous
 62
     7
370
    25
100
AcDbCircle
 10
1474.6685990962
 20
349.708838564
 30
0.0
 40
12.70000000000107
100
AcDbArc
 50
270.0
 51
0.0
  0
LINE
  5
306
330
1F
100
AcDbEntity
  8
0
  6
Continuous
 62
     7
370
    25
100
AcDbLine
 10
1317.9185991022
 20
337.008838564
 30
0.0
 11
1474.6685990962
 21
337.008838564
 31
0.0
  0
ARC
  5
307
330
1F
100
AcDbEntity
  8
0
  6
Continuous
 62
     7
370
    25
100
AcDbCircle
 10
1317.9185991022
 20
349.708838564
 30
0.0
 40
12.70000000000005
100
AcDbArc
 50
180.0
 51
270.0
  0
LINE
  5
308
330
1F
100
AcDbEntity
  8
0
  6
Continuous
 62
     7
370
    25
100
AcDbLine
 10
1305.2185991022
 20
568.7838385639
 30
0.0
 11
1305.2185991022
 21
349.708838564
 31
0.0
  0
LINE
  5
309
330
1F
100
AcDbEntity
  8
0
  6
Continuous
 62
     7
370
    25
100
AcDbLine
 10
1487.3685990962
 20
568.7838385639
 30
0.0
 11
1305.2185991022
 21
568.7838385639
 31
0.0
  0
LINE
  5
30A
330
1F
100
AcDbEntity
  8
0
  6
Continuous
 62
     7
370
    25
100
AcDbLine
 10
1487.3685990962
 20
349.708838564
 30
0.0
 11
1487.3685990962
 21
568.7838385639
 31
0.0
  0
CIRCLE
  5
30B
330
1F
100
AcDbEntity
  8
0
  6
Continuous
 62
     7
370
    25
100
AcDbCircle
 10
1474.6685990962
 20
521.1588385639
 30
0.0
 40
1.587500000000091
  0
CIRCLE
  5
30C
330
1F
100
AcDbEntity
  8
0
  6
Continuous
 62
     7
370
    25
100
AcDbCircle
 10
1474.6685990962
 20
349.7088385639
 30
0.0
 40
1.587500000000091
  0
CIRCLE
  5
30D
330
1F
100
AcDbEntity
  8
0
  6
Continuous
 62
     7
370
    25
100
AcDbCircle
 10
1317.9185991022
 20
349.7088385639
 30
0.0
 40
1.587500000000091
  0
CIRCLE
  5
30E
330
1F
100
AcDbEntity
  8
0
  6
Continuous
 62
     7
370
    25
100
AcDbCircle
 10
1317.9185991022
 20
521.1588385639
 30
0.0
 40
1.587500000000091
  0
CIRCLE
  5
30F
330
1F
100
AcDbEntity
  8
0
  6
Continuous
 62
     7
370
    25
100
AcDbCircle
 10
1042.0739703097
 20
792.0685785401
 30
0.0
 40
2.152650000000122
  0
CIRCLE
  5
310
330
1F
100
AcDbEntity
  8
0
  6
Continuous
 62
     7
370
    25
100
AcDbCircle
 10
930.8108869586
 20
806.766137156
 30
0.0
 40
2.15265000000003
  0
CIRCLE
  5
311
330
1F
100
AcDbEntity
  8
0
  6
Continuous
 62
     7
370
    25
100
AcDbCircle
 10
944.246597012
 20
731.6886870477
 30
0.0
 40
2.15264999999999
  0
CIRCLE
  5
312
330
1F
100
AcDbEntity
  8
0
  6
Continuous
 62
     7
370
    25
100
AcDbCircle
 10
743.4742249725
 20
695.7588655958
 30
0.0
 40
2.15265000000001
  0
CIRCLE
  5
313
330
1F
100
AcDbEntity
  8
0
  6
Continuous
 62
     7
370
    25
100
AcDbCircle
 10
730.0385149191
 20
770.8363157042
 30
0.0
 40
2.152649999999878
  0
CIRCLE
  5
314
330
1F
100
AcDbEntity
  8
0
  6
Continuous
 62
     7
370
    25
100
AcDbCircle
 10
630.7781396682
 20
718.4639007216
 30
0.0
 40
2.15265000000001
  0
CIRCLE
  5
315
330
1F
100
AcDbEntity
  8
0
  6
Continuous
 62
     7
370
    25
100
AcDbCircle
 10
992.933885789
 20
743.1376931426
 30
0.0
 40
2.857499999999953
  0
CIRCLE
  5
316
330
1F
100
AcDbEntity
  8
0
  6
Continuous
 62
     7
370
    25
100
AcDbCircle
 10
1052.9405720578
 20
753.8763694515
 30
0.0
 40
2.857499999999973
  0
CIRCLE
  5
317
330
1F
100
AcDbEntity
  8
0
  6
Continuous
 62
     7
370
    25
100
AcDbCircle
 10
998.7286048898
 20
599.9131426604
 30
0.0
 40
2.857500000000085
  0
CIRCLE
  5
318
330
1F
100
AcDbEntity
  8
0
  6
Continuous
 62
     7
370
    25
100
AcDbCircle
 10
1097.1770747744
 20
617.53128352
 30
0.0
 40
2.857499999999729
  0
CIRCLE
  5
319
330
1F
100
AcDbEntity
  8
0
  6
Continuous
 62
     7
370
    25
100
AcDbCircle
 10
633.8313710418
 20
678.873426567
 30
0.0
 40
2.857500000000085
  0
CIRCLE
  5
31A
330
1F
100
AcDbEntity
  8
0
  6
Continuous
 62
     7
370
    25
100
AcDbCircle
 10
693.8380573107
 20
689.6121028759
 30
0.0
 40
2.857499999999973
  0
CIRCLE
  5
31B
330
1F
100
AcDbEntity
  8
0
  6
Continuous
 62
     7
370
    25
100
AcDbCircle
 10
639.6260901427
 20
535.6488760848
 30
0.0
 40
2.857500000000085
  0
CIRCLE
  5
31C
330
1F
100
AcDbEntity
  8
0
  6
Continuous
 62
     7
370
    25
100
AcDbCircle
 10
738.0745600273
 20
553.2670169443
 30
0.0
 40
2.857500000000105
  0
CIRCLE
  5
31D
330
1F
100
AcDbEntity
  8
0
  6
Continuous
 62
     7
370
    25
100
AcDbCircle
 10
903.7097375233
 20
748.0513125734
 30
0.0
 40
6.438900000000082
  0
CIRCLE
  5
31E
330
1F
100
AcDbEntity
  8
0
  6
Continuous
 62
     7
370
    25
100
AcDbCircle
 10
939.5965109876
 20
638.3576778705
 30
0.0
 40
6.43889999999999
  0
CIRCLE
  5
31F
330
1F
100
AcDbEntity
  8
0
  6
Continuous
 62
     7
370
    25
100
AcDbCircle
 10
775.8204868405
 20
725.1645084979
 30
0.0
 40
6.438899999999857
  0
CIRCLE
  5
320
330
1F
100
AcDbEntity
  8
0
  6
Continuous
 62
     7
370
    25
100
AcDbCircle
 10
780.2037498726
 20
609.8330686855
 30
0.0
 40
6.43889999999997
  0
LINE
  5
321
330
1F
100
AcDbEntity
  8
0
  6
Continuous
 62
     7
370
    25
100
AcDbLine
 10
710.6000600827
 20
682.8511063743
 30
0.0
 11
620.4544647205
 21
666.7188312354
 31
0.0
  0
ARC
  5
322
330
1F
100
AcDbEntity
  8
0
  6
Continuous
 62
     7
370
    25
100
AcDbCircle
 10
622.7914199126
 20
653.6601513334
 30
0.0
 40
13.26614037138165
100
AcDbArc
 50
100.146134482
 51
190.146134482
  0
LINE
  5
323
330
1F
100
AcDbEntity
  8
0
  6
Continuous
 62
     7
370
    25
100
AcDbLine
 10
609.7327400106
 20
651.3231961412
 30
0.0
 11
625.8650151495
 21
561.1776007791
 31
0.0
  0
ARC
  5
324
330
1F
100
AcDbEntity
  8
0
  6
Continuous
 62
     7
370
    25
100
AcDbCircle
 10
638.9236950515
 20
563.5145559712
 30
0.0
 40
13.26614037138155
100
AcDbArc
 50
190.146134482
 51
280.146134482
  0
LINE
  5
325
330
1F
100
AcDbEntity
  8
0
  6
Continuous
 62
     7
370
    25
100
AcDbLine
 10
641.2606502437
 20
550.4558760692
 30
0.0
 11
731.4062456059
 21
566.5881512081
 31
0.0
  0
ARC
  5
326
330
1F
100
AcDbEntity
  8
0
  6
Continuous
 62
     7
370
    25
100
AcDbCircle
 10
729.0692904137
 20
579.6468311101
 30
0.0
 40
13.26614037138176
100
AcDbArc
 50
280.146134482
 51
10.146134482
  0
LINE
  5
327
330
1F
100
AcDbEntity
  8
0
  6
Continuous
 62
     7
370
    25
100
AcDbLine
 10
742.1279703157
 20
581.9837863023
 30
0.0
 11
725.9956951768
 21
672.1293816644
 31
0.0
  0
ARC
  5
328
330
1F
100
AcDbEntity
  8
0
  6
Continuous
 62
     7
370
    25
100
AcDbCircle
 10
712.9370152748
 20
669.7924264723
 30
0.0
 40
13.26614037138167
100
AcDbArc
 50
10.146134482
 51
100.146134482
  0
LINE
  5
329
330
1F
100
AcDbEntity
  8
0
  6
Continuous
 62
     7
370
    25
100
AcDbLine
 10
996.8863915338
 20
749.8889935758
 30
0.0
 11
1046.8919636483
 21
758.8378905751
 31
0.0
  0
ARC
  5
32A
330
1F
100
AcDbEntity
  8
0
  6
Continuous
 62
     7
370
    25
100
AcDbCircle
 10
1045.3706511584
 20
767.3388378345
 30
0.0
 40
8.6360000000001
100
AcDbArc
 50
280.146134482
 51
100.146134482
  0
LINE
  5
32B
330
1F
100
AcDbEntity
  8
0
  6
Continuous
 62
     7
370
    25
100
AcDbLine
 10
1043.8493386686
 20
775.839785094
 30
0.0
 11
993.8437665541
 21
766.8908880948
 31
0.0
  0
ARC
  5
32C
330
1F
100
AcDbEntity
  8
0
  6
Continuous
 62
     7
370
    25
100
AcDbCircle
 10
995.3650790439
 20
758.3899408353
 30
0.0
 40
8.63600000000006
100
AcDbArc
 50
100.146134482
 51
280.146134482
  0
LINE
  5
32D
330
1F
100
AcDbEntity
  8
0
  6
Continuous
 62
     7
370
    25
100
AcDbLine
 10
684.7468235525
 20
711.5755184523
 30
0.0
 11
634.741251438
 21
702.6266214531
 31
0.0
  0
ARC
  5
32E
330
1F
100
AcDbEntity
  8
0
  6
Continuous
 62
     7
370
    25
100
AcDbCircle
 10
636.2625639279
 20
694.1256741936
 30
0.0
 40
8.63600000000006
100
AcDbArc
 50
100.146134482
 51
280.146134482
  0
LINE
  5
32F
330
1F
100
AcDbEntity
  8
0
  6
Continuous
 62
     7
370
    25
100
AcDbLine
 10
637.7838764177
 20
685.6247269342
 30
0.0
 11
687.7894485322
 21
694.5736239334
 31
0.0
  0
ARC
  5
330
330
1F
100
AcDbEntity
  8
0
  6
Continuous
 62
     7
370
    25
100
AcDbCircle
 10
686.2681360423
 20
703.0745711928
 30
0.0
 40
8.63600000000006
100
AcDbArc
 50
280.146134482
 51
100.146134482
  0
LINE
  5
331
330
1F
100
AcDbEntity
  8
0
  6
Continuous
 62
     7
370
    25
100
AcDbLine
 10
938.6671235493
 20
809.7272165623
 30
0.0
 11
948.1200837796
 21
756.9049877968
 31
0.0
  0
LINE
  5
332
330
1F
100
AcDbEntity
  8
0
  6
Continuous
 62
     7
370
    25
100
AcDbLine
 10
948.1200837796
 20
756.9049877968
 30
0.0
 11
965.5504838902
 21
760.0242972787
 31
0.0
  0
LINE
  5
333
330
1F
100
AcDbEntity
  8
0
  6
Continuous
 62
     7
370
    25
100
AcDbLine
 10
965.5504838902
 20
760.0242972787
 30
0.0
 11
981.3670874346
 21
781.1400875963
 31
0.0
  0
LINE
  5
334
330
1F
100
AcDbEntity
  8
0
  6
Continuous
 62
     7
370
    25
100
AcDbLine
 10
981.3670874346
 20
781.1400875963
 30
0.0
 11
1029.5203363627
 21
789.7574965493
 31
0.0
  0
LINE
  5
335
330
1F
100
AcDbEntity
  8
0
  6
Continuous
 62
     7
370
    25
100
AcDbLine
 10
1029.5203363627
 20
789.7574965493
 30
0.0
 11
1027.6597883507
 21
800.1540591422
 31
0.0
  0
ARC
  5
336
330
1F
100
AcDbEntity
  8
0
  6
Continuous
 62
     7
370
    25
100
AcDbCircle
 10
968.3297334316
 20
667.0454338035
 30
0.0
 40
145.7325000000001
100
AcDbArc
 50
65.9761956141
 51
101.7441324477
  0
LINE
  5
337
330
1F
100
AcDbEntity
  8
0
  6
Continuous
 62
     7
370
    25
100
AcDbLine
 10
641.4935978457
 20
731.0465313751
 30
0.0
 11
643.3541458578
 21
720.6499687822
 31
0.0
  0
LINE
  5
338
330
1F
100
AcDbEntity
  8
0
  6
Continuous
 62
     7
370
    25
100
AcDbLine
 10
643.3541458578
 20
720.6499687822
 30
0.0
 11
691.507394786
 21
729.2673777351
 31
0.0
  0
LINE
  5
339
330
1F
100
AcDbEntity
  8
0
  6
Continuous
 62
     7
370
    25
100
AcDbLine
 10
691.507394786
 20
729.2673777351
 30
0.0
 11
713.6655006926
 21
714.9474653383
 31
0.0
  0
LINE
  5
33A
330
1F
100
AcDbEntity
  8
0
  6
Continuous
 62
     7
370
    25
100
AcDbLine
 10
713.6655006926
 20
714.9474653383
 30
0.0
 11
731.0959008031
 21
718.0667748202
 31
0.0
  0
LINE
  5
33B
330
1F
100
AcDbEntity
  8
0
  6
Continuous
 62
     7
370
    25
100
AcDbLine
 10
731.0959008031
 20
718.0667748202
 30
0.0
 11
721.6429405728
 21
770.8890035857
 31
0.0
  0
ARC
  5
33C
330
1F
100
AcDbEntity
  8
0
  6
Continuous
 62
     7
370
    25
100
AcDbCircle
 10
743.3046589168
 20
626.7753973071
 30
0.0
 40
145.7325000000002
100
AcDbArc
 50
98.5481365163
 51
134.3160733498
  0
LINE
  5
33D
330
1F
100
AcDbEntity
  8
0
  6
Continuous
 62
     7
370
    25
100
AcDbLine
 10
1069.7025748298
 20
747.1153729499
 30
0.0
 11
979.5569794676
 21
730.983097811
 31
0.0
  0
ARC
  5
33E
330
1F
100
AcDbEntity
  8
0
  6
Continuous
 62
     7
370
    25
100
AcDbCircle
 10
981.8939346598
 20
717.924417909
 30
0.0
 40
13.26614037138178
100
AcDbArc
 50
100.146134482
 51
190.146134482
  0
LINE
  5
33F
330
1F
100
AcDbEntity
  8
0
  6
Continuous
 62
     7
370
    25
100
AcDbLine
 10
968.8352547578
 20
715.5874627169
 30
0.0
 11
984.9675298967
 21
625.4418673547
 31
0.0
  0
ARC
  5
340
330
1F
100
AcDbEntity
  8
0
  6
Continuous
 62
     7
370
    25
100
AcDbCircle
 10
998.0262097987
 20
627.7788225469
 30
0.0
 40
13.26614037138165
100
AcDbArc
 50
190.146134482
 51
280.146134482
  0
LINE
  5
341
330
1F
100
AcDbEntity
  8
0
  6
Continuous
 62
     7
370
    25
100
AcDbLine
 10
1000.3631649908
 20
614.7201426448
 30
0.0
 11
1090.508760353
 21
630.8524177838
 31
0.0
  0
ARC
  5
342
330
1F
100
AcDbEntity
  8
0
  6
Continuous
 62
     7
370
    25
100
AcDbCircle
 10
1088.1718051608
 20
643.9110976858
 30
0.0
 40
13.26614037138167
100
AcDbArc
 50
280.146134482
 51
10.146134482
  0
LINE
  5
343
330
1F
100
AcDbEntity
  8
0
  6
Continuous
 62
     7
370
    25
100
AcDbLine
 10
1101.2304850629
 20
646.2480528779
 30
0.0
 11
1085.0982099239
 21
736.3936482401
 31
0.0
  0
ARC
  5
344
330
1F
100
AcDbEntity
  8
0
  6
Continuous
 62
     7
370
    25
100
AcDbCircle
 10
1072.0395300219
 20
734.0566930479
 30
0.0
 40
13.26614037138178
100
AcDbArc
 50
10.146134482
 51
100.146134482
  0
CIRCLE
  5
345
330
1F
100
AcDbEntity
  8
0
  6
Continuous
 62
     7
370
    25
100
AcDbCircle
 10
944.9422183531
 20
626.5098316856
 30
0.0
 40
3.543300000000099
  0
CIRCLE
  5
346
330
1F
100
AcDbEntity
  8
0
  6
Continuous
 62
     7
370
    25
100
AcDbCircle
 10
779.2987607239
 20
596.8666103757
 30
0.0
 40
3.543300000000079
  0
CIRCLE
  5
347
330
1F
100
AcDbEntity
  8
0
  6
Continuous
 62
     7
370
    25
100
AcDbCircle
 10
783.9244797389
 20
571.0185392884
 30
0.0
 40
3.543300000000007
  0
CIRCLE
  5
348
330
1F
100
AcDbEntity
  8
0
  6
Continuous
 62
     7
370
    25
100
AcDbCircle
 10
949.5679373682
 20
600.6617605983
 30
0.0
 40
3.543300000000079
  0
ARC
  5
349
330
1F
100
AcDbEntity
  8
0
  6
Continuous
 62
     7
370
    25
100
AcDbCircle
 10
867.1169837014
 20
727.9558963552
 30
0.0
 40
12.69999999999997
100
AcDbArc
 50
10.146134482
 51
100.146134482
  0
LINE
  5
34A
330
1F
100
AcDbEntity
  8
0
  6
Continuous
 62
     7
370
    25
100
AcDbLine
 10
864.8797594516
 20
740.4572893838
 30
0.0
 11
814.8741873371
 21
731.5083923846
 31
0.0
  0
ARC
  5
34B
330
1F
100
AcDbEntity
  8
0
  6
Continuous
 62
     7
370
    25
100
AcDbCircle
 10
817.1114115869
 20
719.006999356
 30
0.0
 40
12.70000000000007
100
AcDbArc
 50
100.146134482
 51
190.146134482
  0
LINE
  5
34C
330
1F
100
AcDbEntity
  8
0
  6
Continuous
 62
     7
370
    25
100
AcDbLine
 10
804.6100185583
 20
716.7697751062
 30
0.0
 11
816.9147519322
 21
648.0121134487
 31
0.0
  0
ARC
  5
34D
330
1F
100
AcDbEntity
  8
0
  6
Continuous
 62
     7
370
    25
100
AcDbCircle
 10
829.4161449608
 20
650.2493376985
 30
0.0
 40
12.70000000000007
100
AcDbArc
 50
190.146134482
 51
280.146134482
  0
LINE
  5
34E
330
1F
100
AcDbEntity
  8
0
  6
Continuous
 62
     7
370
    25
100
AcDbLine
 10
831.6533692106
 20
637.7479446699
 30
0.0
 11
881.6589413251
 21
646.6968416691
 31
0.0
  0
ARC
  5
34F
330
1F
100
AcDbEntity
  8
0
  6
Continuous
 62
     7
370
    25
100
AcDbCircle
 10
879.4217170753
 20
659.1982346978
 30
0.0
 40
12.69999999999995
100
AcDbArc
 50
280.146134482
 51
10.146134482
  0
LINE
  5
350
330
1F
100
AcDbEntity
  8
0
  6
Continuous
 62
     7
370
    25
100
AcDbLine
 10
891.923110104
 20
661.4354589476
 30
0.0
 11
879.61837673
 21
730.193120605
 31
0.0
  0
LINE
  5
351
330
1F
100
AcDbEntity
  8
0
  6
Continuous
 62
     7
370
    25
100
AcDbLine
 10
958.5926200332
 20
586.2796060348
 30
0.0
 11
1133.2995876082
 21
617.5448149259
 31
0.0
  0
LINE
  5
352
330
1F
100
AcDbEntity
  8
0
  6
Continuous
 62
     7
370
    25
100
AcDbLine
 10
958.5926200332
 20
586.2796060348
 30
0.0
 11
956.9372460074
 21
595.5296762089
 31
0.0
  0
LINE
  5
353
330
1F
100
AcDbEntity
  8
0
  6
Continuous
 62
     7
370
    25
100
AcDbLine
 10
950.6865494931
 20
594.411064084
 30
0.0
 11
956.9372460074
 21
595.5296762089
 31
0.0
  0
ARC
  5
354
330
1F
100
AcDbEntity
  8
0
  6
Continuous
 62
     7
370
    25
100
AcDbCircle
 10
949.5679373682
 20
600.6617605983
 30
0.0
 40
6.350000000000164
100
AcDbArc
 50
190.146134482
 51
280.146134482
  0
LINE
  5
355
330
1F
100
AcDbEntity
  8
0
  6
Continuous
 62
     7
370
    25
100
AcDbLine
 10
943.3172408539
 20
599.5431484734
 30
0.0
 11
938.7083869802
 21
625.2969787795
 31
0.0
  0
ARC
  5
356
330
1F
100
AcDbEntity
  8
0
  6
Continuous
 62
     7
370
    25
100
AcDbCircle
 10
932.4576904659
 20
624.1783666546
 30
0.0
 40
6.349999999999961
100
AcDbArc
 50
10.146134482
 51
100.146134482
  0
LINE
  5
357
330
1F
100
AcDbEntity
  8
0
  6
Continuous
 62
     7
370
    25
100
AcDbLine
 10
931.339078341
 20
630.4290631689
 30
0.0
 11
790.698406769
 21
605.2602903586
 31
0.0
  0
ARC
  5
358
330
1F
100
AcDbEntity
  8
0
  6
Continuous
 62
     7
370
    25
100
AcDbCircle
 10
791.8170188939
 20
599.0095938443
 30
0.0
 40
6.350000000000033
100
AcDbArc
 50
100.146134482
 51
190.146134482
  0
LINE
  5
359
330
1F
100
AcDbEntity
  8
0
  6
Continuous
 62
     7
370
    25
100
AcDbLine
 10
785.5663223796
 20
597.8909817194
 30
0.0
 11
790.1751762533
 21
572.1371514133
 31
0.0
  0
ARC
  5
35A
330
1F
100
AcDbEntity
  8
0
  6
Continuous
 62
     7
370
    25
100
AcDbCircle
 10
783.9244797389
 20
571.0185392884
 30
0.0
 40
6.350000000000033
100
AcDbArc
 50
280.146134482
 51
10.146134482
  0
LINE
  5
35B
330
1F
100
AcDbEntity
  8
0
  6
Continuous
 62
     7
370
    25
100
AcDbLine
 10
778.7923953495
 20
563.6492306492
 30
0.0
 11
785.0430918639
 21
564.7678427741
 31
0.0
  0
LINE
  5
35C
330
1F
100
AcDbEntity
  8
0
  6
Continuous
 62
     7
370
    25
100
AcDbLine
 10
778.7923953495
 20
563.6492306492
 30
0.0
 11
780.4477693753
 21
554.3991604751
 31
0.0
  0
LINE
  5
35D
330
1F
100
AcDbEntity
  8
0
  6
Continuous
 62
     7
370
    25
100
AcDbLine
 10
605.7408018003
 20
523.1339515841
 30
0.0
 11
780.4477693753
 21
554.3991604751
 31
0.0
  0
LINE
  5
35E
330
1F
100
AcDbEntity
  8
0
  6
Continuous
 62
     7
370
    25
100
AcDbLine
 10
605.7408018003
 20
523.1339515841
 30
0.0
 11
579.4816827682
 21
669.8673725339
 31
0.0
  0
LINE
  5
35F
330
1F
100
AcDbEntity
  8
0
  6
Continuous
 62
     7
370
    25
100
AcDbLine
 10
627.6336786374
 20
726.0023307537
 30
0.0
 11
579.4816827682
 21
669.8673725339
 31
0.0
  0
ARC
  5
360
330
1F
100
AcDbEntity
  8
0
  6
Continuous
 62
     7
370
    25
100
AcDbCircle
 10
743.3046589166
 20
626.775397307
 30
0.0
 40
152.4000000000001
100
AcDbArc
 50
100.146134482
 51
139.3757613922
  0
LINE
  5
361
330
1F
100
AcDbEntity
  8
0
  6
Continuous
 62
     7
370
    25
100
AcDbLine
 10
741.0982135784
 20
781.2016826469
 30
0.0
 11
716.457967919
 21
776.7921136505
 31
0.0
  0
LINE
  5
362
330
1F
100
AcDbEntity
  8
0
  6
Continuous
 62
     7
370
    25
100
AcDbLine
 10
747.6420945091
 20
744.6351080381
 30
0.0
 11
923.3866777054
 21
776.0860065419
 31
0.0
  0
LINE
  5
363
330
1F
100
AcDbEntity
  8
0
  6
Continuous
 62
     7
370
    25
100
AcDbLine
 10
923.3866777054
 20
776.0860065419
 30
0.0
 11
916.8427967747
 21
812.6525811506
 31
0.0
  0
LINE
  5
364
330
1F
100
AcDbEntity
  8
0
  6
Continuous
 62
     7
370
    25
100
AcDbLine
 10
941.4830424341
 20
817.062150147
 30
0.0
 11
916.8427967747
 21
812.6525811506
 31
0.0
  0
ARC
  5
365
330
1F
100
AcDbEntity
  8
0
  6
Continuous
 62
     7
370
    25
100
AcDbCircle
 10
968.3297334318
 20
667.0454338035
 30
0.0
 40
152.4000000000001
100
AcDbArc
 50
60.9165075717
 51
100.146134482
  0
LINE
  5
366
330
1F
100
AcDbEntity
  8
0
  6
Continuous
 62
     7
370
    25
100
AcDbLine
 10
1107.0404685761
 20
764.2782358757
 30
0.0
 11
1042.4088765765
 21
800.229669173
 31
0.0
  0
LINE
  5
367
330
1F
100
AcDbEntity
  8
0
  6
Continuous
 62
     7
370
    25
100
AcDbLine
 10
1133.2995876082
 20
617.5448149259
 30
0.0
 11
1107.0404685761
 21
764.2782358757
 31
0.0
  0
CIRCLE
  5
368
330
1F
100
AcDbEntity
  8
0
  6
Continuous
 62
     7
370
    25
100
AcDbCircle
 10
735.0780051816
 20
760.7716749166
 30
0.0
 40
2.45744999999981
  0
CIRCLE
  5
369
330
1F
100
AcDbEntity
  8
0
  6
Continuous
 62
     7
370
    25
100
AcDbCircle
 10
741.279989496
 20
726.1155855782
 30
0.0
 40
2.457449999999942
  0
CIRCLE
  5
36A
330
1F
100
AcDbEntity
  8
0
  6
Continuous
 62
     7
370
    25
100
AcDbCircle
 10
604.2824695286
 20
560.4809608983
 30
0.0
 40
2.457449999999942
  0
CIRCLE
  5
36B
330
1F
100
AcDbEntity
  8
0
  6
Continuous
 62
     7
370
    25
100
AcDbCircle
 10
591.2396766319
 20
633.3628278845
 30
0.0
 40
2.457450000000054
  0
CIRCLE
  5
36C
330
1F
100
AcDbEntity
  8
0
  6
Continuous
 62
     7
370
    25
100
AcDbCircle
 10
1108.6723340866
 20
725.9615395839
 30
0.0
 40
2.457450000000277
  0
CIRCLE
  5
36D
330
1F
100
AcDbEntity
  8
0
  6
Continuous
 62
     7
370
    25
100
AcDbCircle
 10
1121.7151269833
 20
653.0796725978
 30
0.0
 40
2.457450000000277
  0
CIRCLE
  5
36E
330
1F
100
AcDbEntity
  8
0
  6
Continuous
 62
     7
370
    25
100
AcDbCircle
 10
1115.1937305349
 20
689.5206060909
 30
0.0
 40
2.45744999999983
  0
CIRCLE
  5
36F
330
1F
100
AcDbEntity
  8
0
  6
Continuous
 62
     7
370
    25
100
AcDbCircle
 10
935.7766622353
 20
760.9223204567
 30
0.0
 40
2.45744999999983
  0
CIRCLE
  5
370
330
1F
100
AcDbEntity
  8
0
  6
Continuous
 62
     7
370
    25
100
AcDbCircle
 10
929.5746779209
 20
795.578409795
 30
0.0
 40
2.45744999999983
  0
CIRCLE
  5
371
330
1F
100
AcDbEntity
  8
0
  6
Continuous
 62
     7
370
    25
100
AcDbCircle
 10
611.0052938266
 20
699.3020632426
 30
0.0
 40
2.152650000000122
  0
CIRCLE
  5
372
330
1F
100
AcDbEntity
  8
0
  6
Continuous
 62
     7
370
    25
100
AcDbCircle
 10
620.6447704855
 20
691.0334182665
 30
0.0
 40
2.152649999999878
  0
CIRCLE
  5
373
330
1F
100
AcDbEntity
  8
0
  6
Continuous
 62
     7
370
    25
100
AcDbCircle
 10
1061.0943211431
 20
769.8535698321
 30
0.0
 40
2.152649999999898
  0
CIRCLE
  5
374
330
1F
100
AcDbEntity
  8
0
  6
Continuous
 62
     7
370
    25
100
AcDbCircle
 10
1067.267889506
 20
780.9520856639
 30
0.0
 40
2.152649999999674
  0
LINE
  5
375
330
1F
100
AcDbEntity
  8
0
  6
Continuous
 62
     7
370
    25
100
AcDbLine
 10
741.0982135784
 20
781.2016826469
 30
0.0
 11
747.6420945091
 21
744.6351080381
 31
0.0
  0
CIRCLE
  5
376
330
1F
100
AcDbEntity
  8
0
  6
Continuous
 62
     7
370
    25
100
AcDbCircle
 10
780.2037498726
 20
609.8330686855
 30
0.0
 40
3.571239999999932
  0
CIRCLE
  5
377
330
1F
100
AcDbEntity
  8
0
  6
Continuous
 62
     7
370
    25
100
AcDbCircle
 10
775.8204868405
 20
725.1645084979
 30
0.0
 40
3.571239999999952
  0
CIRCLE
  5
378
330
1F
100
AcDbEntity
  8
0
  6
Continuous
 62
     7
370
    25
100
AcDbCircle
 10
939.5965109876
 20
638.3576778705
 30
0.0
 40
3.571239999999972
  0
CIRCLE
  5
379
330
1F
100
AcDbEntity
  8
0
  6
Continuous
 62
     7
370
    25
100
AcDbCircle
 10
903.7097375233
 20
748.0513125734
 30
0.0
 40
3.571239999999952
  0
CIRCLE
  5
37A
330
1F
100
AcDbEntity
  8
0
  6
Continuous
 62
     7
370
    25
100
AcDbCircle
 10
738.0745600273
 20
553.2670169443
 30
0.0
 40
1.727200000000091
  0
CIRCLE
  5
37B
330
1F
100
AcDbEntity
  8
0
  6
Continuous
 62
     7
370
    25
100
AcDbCircle
 10
639.6260901427
 20
535.6488760848
 30
0.0
 40
1.727200000000091
  0
CIRCLE
  5
37C
330
1F
100
AcDbEntity
  8
0
  6
Continuous
 62
     7
370
    25
100
AcDbCircle
 10
693.8380573107
 20
689.6121028759
 30
0.0
 40
1.727199999999867
  0
CIRCLE
  5
37D
330
1F
100
AcDbEntity
  8
0
  6
Continuous
 62
     7
370
    25
100
AcDbCircle
 10
633.8313710418
 20
678.873426567
 30
0.0
 40
1.727200000000071
  0
CIRCLE
  5
37E
330
1F
100
AcDbEntity
  8
0
  6
Continuous
 62
     7
370
    25
100
AcDbCircle
 10
1097.1770747744
 20
617.53128352
 30
0.0
 40
1.727199999999959
  0
CIRCLE
  5
37F
330
1F
100
AcDbEntity
  8
0
  6
Continuous
 62
     7
370
    25
100
AcDbCircle
 10
998.7286048898
 20
599.9131426604
 30
0.0
 40
1.727199999999979
  0
CIRCLE
  5
380
330
1F
100
AcDbEntity
  8
0
  6
Continuous
 62
     7
370
    25
100
AcDbCircle
 10
1052.9405720578
 20
753.8763694515
 30
0.0
 40
1.727199999999979
  0
CIRCLE
  5
381
330
1F
100
AcDbEntity
  8
0
  6
Continuous
 62
     7
370
    25
100
AcDbCircle
 10
992.933885789
 20
743.1376931426
 30
0.0
 40
1.727199999999847
  0
CIRCLE
  5
382
330
1F
100
AcDbEntity
  8
0
  6
Continuous
 62
     7
370
    25
100
AcDbCircle
 10
944.9422183531
 20
626.5098316856
 30
0.0
 40
2.152650000000142
  0
CIRCLE
  5
383
330
1F
100
AcDbEntity
  8
0
  6
Continuous
 62
     7
370
    25
100
AcDbCircle
 10
779.2987607239
 20
596.8666103757
 30
0.0
 40
2.152650000000122
  0
CIRCLE
  5
384
330
1F
100
AcDbEntity
  8
0
  6
Continuous
 62
     7
370
    25
100
AcDbCircle
 10
783.9244797389
 20
571.0185392884
 30
0.0
 40
2.15265000000001
  0
CIRCLE
  5
385
330
1F
100
AcDbEntity
  8
0
  6
Continuous
 62
     7
370
    25
100
AcDbCircle
 10
949.5679373682
 20
600.6617605983
 30
0.0
 40
2.15265000000003
  0
CIRCLE
  5
386
330
1F
100
AcDbEntity
  8
0
  6
HIDDEN
 62
     7
370
    18
100
AcDbCircle
 10
630.7781396682
 20
718.4639007216
 30
0.0
 40
2.527300000000022
  0
CIRCLE
  5
387
330
1F
100
AcDbEntity
  8
0
  6
HIDDEN
 62
     7
370
    18
100
AcDbCircle
 10
944.246597012
 20
731.6886870477
 30
0.0
 40
2.527300000000042
  0
CIRCLE
  5
388
330
1F
100
AcDbEntity
  8
0
  6
HIDDEN
 62
     7
370
    18
100
AcDbCircle
 10
730.0385149191
 20
770.8363157042
 30
0.0
 40
2.527300000000042
  0
CIRCLE
  5
389
330
1F
100
AcDbEntity
  8
0
  6
HIDDEN
 62
     7
370
    18
100
AcDbCircle
 10
743.4742249725
 20
695.7588655958
 30
0.0
 40
2.52729999999995
  0
CIRCLE
  5
38A
330
1F
100
AcDbEntity
  8
0
  6
HIDDEN
 62
     7
370
    18
100
AcDbCircle
 10
1042.0739703097
 20
792.0685785401
 30
0.0
 40
2.527299999999798
  0
CIRCLE
  5
38B
330
1F
100
AcDbEntity
  8
0
  6
HIDDEN
 62
     7
370
    18
100
AcDbCircle
 10
930.8108869586
 20
806.766137156
 30
0.0
 40
2.527300000000002
  0
CIRCLE
  5
38C
330
1F
100
AcDbEntity
  8
0
  6
HIDDEN
 62
     7
370
    18
100
AcDbCircle
 10
1067.267889506
 20
780.9520856639
 30
0.0
 40
3.543300000000323
  0
CIRCLE
  5
38D
330
1F
100
AcDbEntity
  8
0
  6
HIDDEN
 62
     7
370
    18
100
AcDbCircle
 10
1061.0943211431
 20
769.8535698321
 30
0.0
 40
3.543300000000099
  0
CIRCLE
  5
38E
330
1F
100
AcDbEntity
  8
0
  6
HIDDEN
 62
     7
370
    18
100
AcDbCircle
 10
620.6447704855
 20
691.0334182665
 30
0.0
 40
3.543300000000119
  0
CIRCLE
  5
38F
330
1F
100
AcDbEntity
  8
0
  6
HIDDEN
 62
     7
370
    18
100
AcDbCircle
 10
611.0052938266
 20
699.3020632426
 30
0.0
 40
3.543299999999967
  0
CIRCLE
  5
390
330
1F
100
AcDbEntity
  8
0
  6
HIDDEN
 62
     7
370
    18
100
AcDbCircle
 10
929.5746779209
 20
795.578409795
 30
0.0
 40
4.216400000000104
  0
CIRCLE
  5
391
330
1F
100
AcDbEntity
  8
0
  6
HIDDEN
 62
     7
370
    18
100
AcDbCircle
 10
735.0780051816
 20
760.7716749166
 30
0.0
 40
4.216400000000104
  0
CIRCLE
  5
392
330
1F
100
AcDbEntity
  8
0
  6
HIDDEN
 62
     7
370
    18
100
AcDbCircle
 10
1115.1937305349
 20
689.5206060909
 30
0.0
 40
4.216400000000084
  0
CIRCLE
  5
393
330
1F
100
AcDbEntity
  8
0
  6
HIDDEN
 62
     7
370
    18
100
AcDbCircle
 10
741.279989496
 20
726.1155855782
 30
0.0
 40
4.216399999999972
  0
CIRCLE
  5
394
330
1F
100
AcDbEntity
  8
0
  6
HIDDEN
 62
     7
370
    18
100
AcDbCircle
 10
935.7766622353
 20
760.9223204567
 30
0.0
 40
4.216400000000084
  0
CIRCLE
  5
395
330
1F
100
AcDbEntity
  8
0
  6
HIDDEN
 62
     7
370
    18
100
AcDbCircle
 10
1121.7151269833
 20
653.0796725978
 30
0.0
 40
4.216400000000084
  0
CIRCLE
  5
396
330
1F
100
AcDbEntity
  8
0
  6
HIDDEN
 62
     7
370
    18
100
AcDbCircle
 10
1108.6723340866
 20
725.9615395839
 30
0.0
 40
4.21639999999986
  0
CIRCLE
  5
397
330
1F
100
AcDbEntity
  8
0
  6
HIDDEN
 62
     7
370
    18
100
AcDbCircle
 10
591.2396766319
 20
633.3628278845
 30
0.0
 40
4.216399999999972
  0
CIRCLE
  5
398
330
1F
100
AcDbEntity
  8
0
  6
HIDDEN
 62
     7
370
    18
100
AcDbCircle
 10
604.2824695286
 20
560.4809608983
 30
0.0
 40
4.216400000000084
  0
CIRCLE
  5
399
330
1F
100
AcDbEntity
  8
0
  6
HIDDEN
 62
     7
370
    18
100
AcDbCircle
 10
730.0385149191
 20
770.8363157042
 30
0.0
 40
2.654299999999988
  0
CIRCLE
  5
39A
330
1F
100
AcDbEntity
  8
0
  6
HIDDEN
 62
     7
370
    18
100
AcDbCircle
 10
630.7781396682
 20
718.4639007216
 30
0.0
 40
2.65430000000008
  0
CIRCLE
  5
39B
330
1F
100
AcDbEntity
  8
0
  6
HIDDEN
 62
     7
370
    18
100
AcDbCircle
 10
930.8108869586
 20
806.766137156
 30
0.0
 40
2.654299999999968
  0
CIRCLE
  5
39C
330
1F
100
AcDbEntity
  8
0
  6
HIDDEN
 62
     7
370
    18
100
AcDbCircle
 10
944.246597012
 20
731.6886870477
 30
0.0
 40
2.654299999999988
  0
CIRCLE
  5
39D
330
1F
100
AcDbEntity
  8
0
  6
HIDDEN
 62
     7
370
    18
100
AcDbCircle
 10
743.4742249725
 20
695.7588655958
 30
0.0
 40
2.654299999999988
  0
CIRCLE
  5
39E
330
1F
100
AcDbEntity
  8
0
  6
HIDDEN
 62
     7
370
    18
100
AcDbCircle
 10
1042.0739703097
 20
792.0685785401
 30
0.0
 40
2.654299999999876
  0
ENDSEC
  0
SECTION
  2
OBJECTS
  0
DICTIONARY
  5
C
330
0
100
AcDbDictionary
281
     1
  3
ACAD_GROUP
350
D
  3
ACAD_LAYOUT
350
1A
  3
ACAD_MLINESTYLE
350
17
  3
ACAD_PLOTSETTINGS
350
19
  3
ACAD_PLOTSTYLENAME
350
E
  3
ACAD_SCALELIST
350
47
  3
DWGPROPS
350
39F
  0
DICTIONARY
  5
D
102
{ACAD_REACTORS
330
C
102
}
330
C
100
AcDbDictionary
281
     1
  0
DICTIONARY
  5
1A
102
{ACAD_REACTORS
330
C
102
}
330
C
100
AcDbDictionary
281
     1
  3
Layout1
350
1E
  3
Layout2
350
26
  3
Model
350
22
  0
DICTIONARY
  5
17
102
{ACAD_REACTORS
330
C
102
}
330
C
100
AcDbDictionary
281
     1
  3
Standard
350
18
  0
DICTIONARY
  5
19
102
{ACAD_REACTORS
330
C
102
}
330
C
100
AcDbDictionary
281
     1
  0
ACDBDICTIONARYWDFLT
  5
E
102
{ACAD_REACTORS
330
C
102
}
330
C
100
AcDbDictionary
281
     1
  3
Normal
350
F
100
AcDbDictionaryWithDefault
340
F
  0
DICTIONARY
  5
47
102
{ACAD_REACTORS
330
C
102
}
330
C
100
AcDbDictionary
281
     1
  3
A0
350
48
  3
A1
350
49
  3
A2
350
4A
  3
A3
350
4B
  3
A4
350
4C
  3
A5
350
4D
  3
A6
350
4E
  3
A7
350
4F
  3
A8
350
50
  3
A9
350
51
  3
B0
350
52
  3
B1
350
53
  3
B2
350
54
  3
B3
350
55
  3
B4
350
56
  3
B5
350
57
  3
B6
350
58
  3
B7
350
59
  3
B8
350
5A
  3
B9
350
5B
  3
C0
350
5C
  3
C1
350
5D
  3
C2
350
5E
  3
C3
350
5F
  3
C4
350
60
  3
C5
350
61
  3
C6
350
62
  3
C7
350
63
  3
C8
350
64
  3
C9
350
65
  3
D0
350
66
  3
D1
350
67
  3
D2
350
68
  0
XRECORD
  5
39F
102
{ACAD_REACTORS
330
C
102
}
330
C
100
AcDbXrecord
280
     1
  1
DWGPROPS COOKIE
  2

  3

  4

  6

  7

  8
lukew
  9

300
=
301
=
302
=
303
=
304
=
305
=
306
=
307
=
308
=
309
=
 40
0.0
 41
2459072.26060728
 42
2459072.260609479
  1

 90
        0
  0
LAYOUT
  5
1E
102
{ACAD_REACTORS
330
1A
102
}
330
1A
100
AcDbPlotSettings
  1

  2
none_device
  4

  6

 40
0.0
 41
0.0
 42
0.0
 43
0.0
 44
0.0
 45
0.0
 46
0.0
 47
0.0
 48
0.0
 49
0.0
140
0.0
141
0.0
142
1.0
143
1.0
 70
   688
 72
     1
 73
     0
 74
     5
  7

 75
    16
147
1.0
148
0.0
149
0.0
100
AcDbLayout
  1
Layout1
 70
     1
 71
     1
 10
0.0
 20
0.0
 11
420.0
 21
297.0
 12
0.0
 22
0.0
 32
0.0
 14
1.0000000000E+20
 24
1.0000000000E+20
 34
1.0000000000E+20
 15
-1.0000000000E+20
 25
-1.0000000000E+20
 35
-1.0000000000E+20
146
0.0
 13
0.0
 23
0.0
 33
0.0
 16
1.0
 26
0.0
 36
0.0
 17
0.0
 27
1.0
 37
0.0
 76
     0
330
1B
  0
LAYOUT
  5
26
102
{ACAD_REACTORS
330
1A
102
}
330
1A
100
AcDbPlotSettings
  1

  2
none_device
  4

  6

 40
0.0
 41
0.0
 42
0.0
 43
0.0
 44
0.0
 45
0.0
 46
0.0
 47
0.0
 48
0.0
 49
0.0
140
0.0
141
0.0
142
1.0
143
1.0
 70
   688
 72
     1
 73
     0
 74
     5
  7

 75
    16
147
1.0
148
0.0
149
0.0
100
AcDbLayout
  1
Layout2
 70
     1
 71
     2
 10
0.0
 20
0.0
 11
0.0
 21
0.0
 12
0.0
 22
0.0
 32
0.0
 14
0.0
 24
0.0
 34
0.0
 15
0.0
 25
0.0
 35
0.0
146
0.0
 13
0.0
 23
0.0
 33
0.0
 16
1.0
 26
0.0
 36
0.0
 17
0.0
 27
1.0
 37
0.0
 76
     0
330
23
  0
LAYOUT
  5
22
102
{ACAD_REACTORS
330
1A
102
}
330
1A
100
AcDbPlotSettings
  1

  2
none_device
  4
Letter_(8.50_x_11.00_Inches)
  6

 40
6.35
 41
6.35
 42
6.35000508
 43
6.35000508
 44
215.9
 45
279.4
 46
0.0
 47
0.0
 48
0.0
 49
0.0
140
0.0
141
0.0
142
1.0
143
1.0
 70
  1712
 72
     1
 73
     0
 74
     0
  7

 75
     0
147
1.0
148
0.0
149
0.0
100
AcDbLayout
  1
Model
 70
     1
 71
     0
 10
0.0
 20
0.0
 11
2400.0
 21
1200.0
 12
0.0
 22
0.0
 32
0.0
 14
0.0
 24
0.0
 34
0.0
 15
2400.0
 25
1200.0
 35
0.0
146
0.0
 13
0.0
 23
0.0
 33
0.0
 16
1.0
 26
0.0
 36
0.0
 17
0.0
 27
1.0
 37
0.0
 76
     0
330
1F
331
29
  0
MLINESTYLE
  5
18
102
{ACAD_REACTORS
330
17
102
}
330
17
100
AcDbMlineStyle
  2
Standard
 70
     0
  3

 62
   256
 51
90.0
 52
90.0
 71
     2
 49
0.5
 62
   256
  6
BYLAYER
 49
-0.5
 62
   256
  6
BYLAYER
  0
ACDBPLACEHOLDER
  5
F
102
{ACAD_REACTORS
330
E
102
}
330
E
  0
SCALE
  5
48
102
{ACAD_REACTORS
330
47
102
}
330
47
100
AcDbScale
 70
     0
300
1:1
140
1.0
141
1.0
290
     1
  0
SCALE
  5
49
102
{ACAD_REACTORS
330
47
102
}
330
47
100
AcDbScale
 70
     0
300
1:2
140
1.0
141
2.0
290
     0
  0
SCALE
  5
4A
102
{ACAD_REACTORS
330
47
102
}
330
47
100
AcDbScale
 70
     0
300
1:4
140
1.0
141
4.0
290
     0
  0
SCALE
  5
4B
102
{ACAD_REACTORS
330
47
102
}
330
47
100
AcDbScale
 70
     0
300
1:5
140
1.0
141
5.0
290
     0
  0
SCALE
  5
4C
102
{ACAD_REACTORS
330
47
102
}
330
47
100
AcDbScale
 70
     0
300
1:8
140
1.0
141
8.0
290
     0
  0
SCALE
  5
4D
102
{ACAD_REACTORS
330
47
102
}
330
47
100
AcDbScale
 70
     0
300
1:10
140
1.0
141
10.0
290
     0
  0
SCALE
  5
4E
102
{ACAD_REACTORS
330
47
102
}
330
47
100
AcDbScale
 70
     0
300
1:16
140
1.0
141
16.0
290
     0
  0
SCALE
  5
4F
102
{ACAD_REACTORS
330
47
102
}
330
47
100
AcDbScale
 70
     0
300
1:20
140
1.0
141
20.0
290
     0
  0
SCALE
  5
50
102
{ACAD_REACTORS
330
47
102
}
330
47
100
AcDbScale
 70
     0
300
1:30
140
1.0
141
30.0
290
     0
  0
SCALE
  5
51
102
{ACAD_REACTORS
330
47
102
}
330
47
100
AcDbScale
 70
     0
300
1:40
140
1.0
141
40.0
290
     0
  0
SCALE
  5
52
102
{ACAD_REACTORS
330
47
102
}
330
47
100
AcDbScale
 70
     0
300
1:50
140
1.0
141
50.0
290
     0
  0
SCALE
  5
53
102
{ACAD_REACTORS
330
47
102
}
330
47
100
AcDbScale
 70
     0
300
1:100
140
1.0
141
100.0
290
     0
  0
SCALE
  5
54
102
{ACAD_REACTORS
330
47
102
}
330
47
100
AcDbScale
 70
     0
300
2:1
140
2.0
141
1.0
290
     0
  0
SCALE
  5
55
102
{ACAD_REACTORS
330
47
102
}
330
47
100
AcDbScale
 70
     0
300
4:1
140
4.0
141
1.0
290
     0
  0
SCALE
  5
56
102
{ACAD_REACTORS
330
47
102
}
330
47
100
AcDbScale
 70
     0
300
8:1
140
8.0
141
1.0
290
     0
  0
SCALE
  5
57
102
{ACAD_REACTORS
330
47
102
}
330
47
100
AcDbScale
 70
     0
300
10:1
140
10.0
141
1.0
290
     0
  0
SCALE
  5
58
102
{ACAD_REACTORS
330
47
102
}
330
47
100
AcDbScale
 70
     0
300
100:1
140
100.0
141
1.0
290
     0
  0
SCALE
  5
59
102
{ACAD_REACTORS
330
47
102
}
330
47
100
AcDbScale
 70
     0
300
1/128" = 1'-0"
140
0.0078125
141
12.0
290
     0
  0
SCALE
  5
5A
102
{ACAD_REACTORS
330
47
102
}
330
47
100
AcDbScale
 70
     0
300
1/64" = 1'-0"
140
0.015625
141
12.0
290
     0
  0
SCALE
  5
5B
102
{ACAD_REACTORS
330
47
102
}
330
47
100
AcDbScale
 70
     0
300
1/32" = 1'-0"
140
0.03125
141
12.0
290
     0
  0
SCALE
  5
5C
102
{ACAD_REACTORS
330
47
102
}
330
47
100
AcDbScale
 70
     0
300
1/16" = 1'-0"
140
0.0625
141
12.0
290
     0
  0
SCALE
  5
5D
102
{ACAD_REACTORS
330
47
102
}
330
47
100
AcDbScale
 70
     0
300
3/32" = 1'-0"
140
0.09375
141
12.0
290
     0
  0
SCALE
  5
5E
102
{ACAD_REACTORS
330
47
102
}
330
47
100
AcDbScale
 70
     0
300
1/8" = 1'-0"
140
0.125
141
12.0
290
     0
  0
SCALE
  5
5F
102
{ACAD_REACTORS
330
47
102
}
330
47
100
AcDbScale
 70
     0
300
3/16" = 1'-0"
140
0.1875
141
12.0
290
     0
  0
SCALE
  5
60
102
{ACAD_REACTORS
330
47
102
}
330
47
100
AcDbScale
 70
     0
300
1/4" = 1'-0"
140
0.25
141
12.0
290
     0
  0
SCALE
  5
61
102
{ACAD_REACTORS
330
47
102
}
330
47
100
AcDbScale
 70
     0
300
3/8" = 1'-0"
140
0.375
141
12.0
290
     0
  0
SCALE
  5
62
102
{ACAD_REACTORS
330
47
102
}
330
47
100
AcDbScale
 70
     0
300
1/2" = 1'-0"
140
0.5
141
12.0
290
     0
  0
SCALE
  5
63
102
{ACAD_REACTORS
330
47
102
}
330
47
100
AcDbScale
 70
     0
300
3/4" = 1'-0"
140
0.75
141
12.0
290
     0
  0
SCALE
  5
64
102
{ACAD_REACTORS
330
47
102
}
330
47
100
AcDbScale
 70
     0
300
1" = 1'-0"
140
1.0
141
12.0
290
     0
  0
SCALE
  5
65
102
{ACAD_REACTORS
330
47
102
}
330
47
100
AcDbScale
 70
     0
300
1-1/2" = 1'-0"
140
1.5
141
12.0
290
     0
  0
SCALE
  5
66
102
{ACAD_REACTORS
330
47
102
}
330
47
100
AcDbScale
 70
     0
300
3" = 1'-0"
140
3.0
141
12.0
290
     0
  0
SCALE
  5
67
102
{ACAD_REACTORS
330
47
102
}
330
47
100
AcDbScale
 70
     0
300
6" = 1'-0"
140
6.0
141
12.0
290
     0
  0
SCALE
  5
68
102
{ACAD_REACTORS
330
47
102
}
330
47
100
AcDbScale
 70
     0
300
1'-0" = 1'-0"
140
12.0
141
12.0
290
     0
  0
ENDSEC
  0
EOF
