  0
SECTION
  2
HEADER
  9
$ACADVER
  1
AC1015
  9
$ACADMAINTVER
 70
     6
  9
$DWGCODEPAGE
  3
ANSI_1252
  9
$INSBASE
 10
0.0
 20
0.0
 30
0.0
  9
$EXTMIN
 10
0.0
 20
0.0
 30
0.0
  9
$EXTMAX
 10
2400.0
 20
1200.0
 30
0.0
  9
$LIMMIN
 10
0.0
 20
0.0
  9
$LIMMAX
 10
2400.0
 20
1200.0
  9
$ORTHOMODE
 70
     0
  9
$REGENMODE
 70
     1
  9
$FILLMODE
 70
     1
  9
$QTEXTMODE
 70
     0
  9
$MIRRTEXT
 70
     1
  9
$LTSCALE
 40
1.0
  9
$ATTMODE
 70
     1
  9
$TEXTSIZE
 40
3.5
  9
$TRACEWID
 40
1.0
  9
$TEXTSTYLE
  7
Standard
  9
$CLAYER
  8
0
  9
$CELTYPE
  6
ByLayer
  9
$CECOLOR
 62
   256
  9
$CELTSCALE
 40
1.0
  9
$DISPSILH
 70
     0
  9
$DIMSCALE
 40
1.0
  9
$DIMASZ
 40
3.302
  9
$DIMEXO
 40
1.0
  9
$DIMDLI
 40
3.75
  9
$DIMRND
 40
0.0
  9
$DIMDLE
 40
0.0
  9
$DIMEXE
 40
1.0
  9
$DIMTP
 40
0.0
  9
$DIMTM
 40
0.0
  9
$DIMTXT
 40
3.5
  9
$DIMCEN
 40
2.5
  9
$DIMTSZ
 40
0.0
  9
$DIMTOL
 70
     0
  9
$DIMLIM
 70
     0
  9
$DIMTIH
 70
     1
  9
$DIMTOH
 70
     1
  9
$DIMSE1
 70
     0
  9
$DIMSE2
 70
     0
  9
$DIMTAD
 70
     1
  9
$DIMZIN
 70
     1
  9
$DIMBLK
  1

  9
$DIMASO
 70
     1
  9
$DIMSHO
 70
     1
  9
$DIMPOST
  1

  9
$DIMAPOST
  1

  9
$DIMALT
 70
     0
  9
$DIMALTD
 70
     3
  9
$DIMALTF
 40
0.0393700787
  9
$DIMLFAC
 40
1.0
  9
$DIMTOFL
 70
     1
  9
$DIMTVP
 40
0.0
  9
$DIMTIX
 70
     0
  9
$DIMSOXD
 70
     0
  9
$DIMSAH
 70
     0
  9
$DIMBLK1
  1

  9
$DIMBLK2
  1

  9
$DIMSTYLE
  2
ISO-25
  9
$DIMCLRD
 70
     0
  9
$DIMCLRE
 70
     0
  9
$DIMCLRT
 70
     0
  9
$DIMTFAC
 40
1.0
  9
$DIMGAP
 40
1.524
  9
$DIMJUST
 70
     0
  9
$DIMSD1
 70
     0
  9
$DIMSD2
 70
     0
  9
$DIMTOLJ
 70
     0
  9
$DIMTZIN
 70
     1
  9
$DIMALTZ
 70
     0
  9
$DIMALTTZ
 70
     0
  9
$DIMUPT
 70
     0
  9
$DIMDEC
 70
     2
  9
$DIMTDEC
 70
     2
  9
$DIMALTU
 70
     2
  9
$DIMALTTD
 70
     3
  9
$DIMTXSTY
  7
Standard
  9
$DIMAUNIT
 70
     0
  9
$DIMADEC
 70
     2
  9
$DIMALTRND
 40
0.0
  9
$DIMAZIN
 70
     0
  9
$DIMDSEP
 70
    44
  9
$DIMATFIT
 70
     3
  9
$DIMFRAC
 70
     0
  9
$DIMLDRBLK
  1

  9
$DIMLUNIT
 70
     2
  9
$DIMLWD
 70
    -2
  9
$DIMLWE
 70
    -2
  9
$DIMTMOVE
 70
     0
  9
$LUNITS
 70
     2
  9
$LUPREC
 70
     2
  9
$SKETCHINC
 40
1.0
  9
$FILLETRAD
 40
10.0
  9
$AUNITS
 70
     0
  9
$AUPREC
 70
     2
  9
$MENU
  1
.
  9
$ELEVATION
 40
0.0
  9
$PELEVATION
 40
0.0
  9
$THICKNESS
 40
0.0
  9
$LIMCHECK
 70
     0
  9
$CHAMFERA
 40
0.0
  9
$CHAMFERB
 40
0.0
  9
$CHAMFERC
 40
0.0
  9
$CHAMFERD
 40
0.0
  9
$SKPOLY
 70
     0
  9
$TDCREATE
 40
2459072.677283449
  9
$TDUCREATE
 40
2459072.260616783
  9
$TDUPDATE
 40
2459072.677284433
  9
$TDUUPDATE
 40
2459072.260617766
  9
$TDINDWG
 40
0.0000000116
  9
$TDUSRTIMER
 40
0.0000000116
  9
$USRTIMER
 70
     1
  9
$ANGBASE
 50
0.0
  9
$ANGDIR
 70
     0
  9
$PDMODE
 70
     0
  9
$PDSIZE
 40
-1.0
  9
$PLINEWID
 40
0.0
  9
$SPLFRAME
 70
     0
  9
$SPLINETYPE
 70
     6
  9
$SPLINESEGS
 70
     8
  9
$HANDSEED
  5
118
  9
$SURFTAB1
 70
     6
  9
$SURFTAB2
 70
     6
  9
$SURFTYPE
 70
     6
  9
$SURFU
 70
     6
  9
$SURFV
 70
     6
  9
$UCSBASE
  2

  9
$UCSNAME
  2

  9
$UCSORG
 10
0.0
 20
0.0
 30
0.0
  9
$UCSXDIR
 10
1.0
 20
0.0
 30
0.0
  9
$UCSYDIR
 10
0.0
 20
1.0
 30
0.0
  9
$UCSORTHOREF
  2

  9
$UCSORTHOVIEW
 70
     0
  9
$UCSORGTOP
 10
0.0
 20
0.0
 30
0.0
  9
$UCSORGBOTTOM
 10
0.0
 20
0.0
 30
0.0
  9
$UCSORGLEFT
 10
0.0
 20
0.0
 30
0.0
  9
$UCSORGRIGHT
 10
0.0
 20
0.0
 30
0.0
  9
$UCSORGFRONT
 10
0.0
 20
0.0
 30
0.0
  9
$UCSORGBACK
 10
0.0
 20
0.0
 30
0.0
  9
$PUCSBASE
  2

  9
$PUCSNAME
  2

  9
$PUCSORG
 10
0.0
 20
0.0
 30
0.0
  9
$PUCSXDIR
 10
1.0
 20
0.0
 30
0.0
  9
$PUCSYDIR
 10
0.0
 20
1.0
 30
0.0
  9
$PUCSORTHOREF
  2

  9
$PUCSORTHOVIEW
 70
     0
  9
$PUCSORGTOP
 10
0.0
 20
0.0
 30
0.0
  9
$PUCSORGBOTTOM
 10
0.0
 20
0.0
 30
0.0
  9
$PUCSORGLEFT
 10
0.0
 20
0.0
 30
0.0
  9
$PUCSORGRIGHT
 10
0.0
 20
0.0
 30
0.0
  9
$PUCSORGFRONT
 10
0.0
 20
0.0
 30
0.0
  9
$PUCSORGBACK
 10
0.0
 20
0.0
 30
0.0
  9
$USERI1
 70
     0
  9
$USERI2
 70
     0
  9
$USERI3
 70
     0
  9
$USERI4
 70
     0
  9
$USERI5
 70
     0
  9
$USERR1
 40
0.0
  9
$USERR2
 40
0.0
  9
$USERR3
 40
0.0
  9
$USERR4
 40
0.0
  9
$USERR5
 40
0.0
  9
$WORLDVIEW
 70
     1
  9
$SHADEDGE
 70
     3
  9
$SHADEDIF
 70
    70
  9
$TILEMODE
 70
     1
  9
$MAXACTVP
 70
    64
  9
$PINSBASE
 10
0.0
 20
0.0
 30
0.0
  9
$PLIMCHECK
 70
     0
  9
$PEXTMIN
 10
1.0000000000E+20
 20
1.0000000000E+20
 30
1.0000000000E+20
  9
$PEXTMAX
 10
-1.0000000000E+20
 20
-1.0000000000E+20
 30
-1.0000000000E+20
  9
$PLIMMIN
 10
0.0
 20
0.0
  9
$PLIMMAX
 10
420.0
 20
297.0
  9
$UNITMODE
 70
     0
  9
$VISRETAIN
 70
     1
  9
$PLINEGEN
 70
     0
  9
$PSLTSCALE
 70
     1
  9
$TREEDEPTH
 70
  3020
  9
$CMLSTYLE
  2
Standard
  9
$CMLJUST
 70
     0
  9
$CMLSCALE
 40
20.0
  9
$PROXYGRAPHICS
 70
     1
  9
$MEASUREMENT
 70
     1
  9
$CELWEIGHT
370
    -1
  9
$ENDCAPS
280
     0
  9
$JOINSTYLE
280
     0
  9
$LWDISPLAY
290
     1
  9
$INSUNITS
 70
     4
  9
$HYPERLINKBASE
  1

  9
$STYLESHEET
  1

  9
$XEDIT
290
     1
  9
$CEPSNTYPE
380
     0
  9
$PSTYLEMODE
290
     1
  9
$FINGERPRINTGUID
  2
{e201eada-7fc9-447c-9fb0-6bbdf2af9774}
  9
$VERSIONGUID
  2
{FAEB1C32-E019-11D5-929B-00C0DF256EC4}
  9
$EXTNAMES
290
     1
  9
$PSVPSCALE
 40
0.0
  9
$OLESTARTUP
290
     0
  0
ENDSEC
  0
SECTION
  2
CLASSES
  0
CLASS
  1
ACDBDICTIONARYWDFLT
  2
AcDbDictionaryWithDefault
  3
ObjectDBX Classes
 90
        0
280
     0
281
     0
  0
CLASS
  1
VISUALSTYLE
  2
AcDbVisualStyle
  3
ObjectDBX Classes
 90
     4095
280
     0
281
     0
  0
CLASS
  1
MATERIAL
  2
AcDbMaterial
  3
ObjectDBX Classes
 90
     1153
280
     0
281
     0
  0
CLASS
  1
SCALE
  2
AcDbScale
  3
ObjectDBX Classes
 90
     1153
280
     0
281
     0
  0
CLASS
  1
TABLESTYLE
  2
AcDbTableStyle
  3
ObjectDBX Classes
 90
     4095
280
     0
281
     0
  0
CLASS
  1
MLEADERSTYLE
  2
AcDbMLeaderStyle
  3
ACDB_MLEADERSTYLE_CLASS
 90
     4095
280
     0
281
     0
  0
CLASS
  1
SUN
  2
AcDbSun
  3
SCENEOE
 90
     1153
280
     0
281
     0
  0
CLASS
  1
ACDBPLACEHOLDER
  2
AcDbPlaceHolder
  3
ObjectDBX Classes
 90
        0
280
     0
281
     0
  0
CLASS
  1
LAYOUT
  2
AcDbLayout
  3
ObjectDBX Classes
 90
        0
280
     0
281
     0
  0
ENDSEC
  0
SECTION
  2
TABLES
  0
TABLE
  2
VPORT
  5
8
330
0
100
AcDbSymbolTable
 70
     1
  0
VPORT
  5
29
330
8
100
AcDbSymbolTableRecord
100
AcDbViewportTableRecord
  2
*Active
 70
     0
 10
0.0
 20
0.0
 11
1.0
 21
1.0
 12
1200.0
 22
600.0
 13
0.0
 23
0.0
 14
10.0
 24
10.0
 15
10.0
 25
10.0
 16
0.0
 26
0.0
 36
1.0
 17
0.0
 27
0.0
 37
0.0
 40
1200.0
 41
2.0
 42
50.0
 43
0.0
 44
0.0
 50
0.0
 51
0.0
 71
     0
 72
  2000
 73
     1
 74
     3
 75
     0
 76
     0
 77
     0
 78
     0
281
     0
 65
     1
110
0.0
120
0.0
130
0.0
111
1.0
121
0.0
131
0.0
112
0.0
122
1.0
132
0.0
 79
     0
146
0.0
  0
ENDTAB
  0
TABLE
  2
LTYPE
  5
5
330
0
100
AcDbSymbolTable
 70
     6
  0
LTYPE
  5
14
330
5
100
AcDbSymbolTableRecord
100
AcDbLinetypeTableRecord
  2
ByBlock
 70
     0
  3

 72
    65
 73
     0
 40
0.0
  0
LTYPE
  5
15
330
5
100
AcDbSymbolTableRecord
100
AcDbLinetypeTableRecord
  2
ByLayer
 70
     0
  3

 72
    65
 73
     0
 40
0.0
  0
LTYPE
  5
16
330
5
100
AcDbSymbolTableRecord
100
AcDbLinetypeTableRecord
  2
Continuous
 70
     0
  3
Solid line
 72
    65
 73
     0
 40
0.0
  0
LTYPE
  5
6E
330
5
100
AcDbSymbolTableRecord
100
AcDbLinetypeTableRecord
  2
HIDDEN
 70
     0
  3
Hidden __ __ __ __ __ __ __ __ __ __ __ __ __ __
 72
    65
 73
     2
 40
1.905
 49
1.27
 74
     0
 49
-0.635
 74
     0
  0
LTYPE
  5
6F
330
5
100
AcDbSymbolTableRecord
100
AcDbLinetypeTableRecord
  2
PHANTOM
 70
     0
  3
Phantom ______  __  __  ______  __  __  ______
 72
    65
 73
     6
 40
12.7
 49
6.35
 74
     0
 49
-1.27
 74
     0
 49
1.27
 74
     0
 49
-1.27
 74
     0
 49
1.27
 74
     0
 49
-1.27
 74
     0
  0
LTYPE
  5
70
330
5
100
AcDbSymbolTableRecord
100
AcDbLinetypeTableRecord
  2
CENTER
 70
     0
  3
Center ____ _ ____ _ ____ _ ____ _ ____ _ ____
 72
    65
 73
     4
 40
10.16
 49
6.35
 74
     0
 49
-1.27
 74
     0
 49
1.27
 74
     0
 49
-1.27
 74
     0
  0
LTYPE
  5
71
330
5
100
AcDbSymbolTableRecord
100
AcDbLinetypeTableRecord
  2
CENTERX2
 70
     0
  3
Center (2x) ________  __  ________  __  _____
 72
    65
 73
     4
 40
20.32
 49
12.7
 74
     0
 49
-2.54
 74
     0
 49
2.54
 74
     0
 49
-2.54
 74
     0
  0
LTYPE
  5
72
330
5
100
AcDbSymbolTableRecord
100
AcDbLinetypeTableRecord
  2
DOT2
 70
     0
  3
Dot (.5x) ........................................
 72
    65
 73
     2
 40
0.635
 49
0.0
 74
     0
 49
-0.635
 74
     0
  0
ENDTAB
  0
TABLE
  2
LAYER
  5
2
330
0
100
AcDbSymbolTable
 70
     2
  0
LAYER
  5
10
330
2
100
AcDbSymbolTableRecord
100
AcDbLayerTableRecord
  2
0
 70
     0
 62
     7
  6
Continuous
370
    -3
390
F
  0
LAYER
  5
73
330
2
100
AcDbSymbolTableRecord
100
AcDbLayerTableRecord
  2
FORMAT
 70
     0
 62
     7
  6
Continuous
370
    -3
390
F
  0
ENDTAB
  0
TABLE
  2
STYLE
  5
3
330
0
100
AcDbSymbolTable
 70
     1
  0
STYLE
  5
11
330
3
100
AcDbSymbolTableRecord
100
AcDbTextStyleTableRecord
  2
Standard
 70
     0
 40
0.0
 41
1.0
 50
0.0
 71
     0
 42
3.5
  3
txt
  4

  0
ENDTAB
  0
TABLE
  2
VIEW
  5
6
330
0
100
AcDbSymbolTable
 70
     0
  0
ENDTAB
  0
TABLE
  2
UCS
  5
7
330
0
100
AcDbSymbolTable
 70
     0
  0
ENDTAB
  0
TABLE
  2
APPID
  5
9
330
0
100
AcDbSymbolTable
 70
     1
  0
APPID
  5
12
330
9
100
AcDbSymbolTableRecord
100
AcDbRegAppTableRecord
  2
ACAD
 70
     0
  0
ENDTAB
  0
TABLE
  2
DIMSTYLE
  5
A
330
0
100
AcDbSymbolTable
 70
     1
100
AcDbDimStyleTable
  0
DIMSTYLE
105
27
330
A
100
AcDbSymbolTableRecord
100
AcDbDimStyleTableRecord
  2
ISO-25
 70
     0
 41
2.5
 42
0.625
 43
3.75
 44
1.25
 73
     0
 74
     0
 77
     1
 78
     8
140
2.5
141
2.5
143
0.0393700787
147
0.625
171
     3
172
     1
178
     0
271
     2
272
     2
274
     3
278
    44
283
     0
284
     8
340
11
  0
ENDTAB
  0
TABLE
  2
BLOCK_RECORD
  5
1
330
0
100
AcDbSymbolTable
 70
     1
  0
BLOCK_RECORD
  5
1F
330
1
100
AcDbSymbolTableRecord
100
AcDbBlockTableRecord
  2
*Model_Space
340
22
  0
BLOCK_RECORD
  5
1B
330
1
100
AcDbSymbolTableRecord
100
AcDbBlockTableRecord
  2
*Paper_Space
340
1E
  0
BLOCK_RECORD
  5
23
330
1
100
AcDbSymbolTableRecord
100
AcDbBlockTableRecord
  2
*Paper_Space0
340
26
  0
ENDTAB
  0
ENDSEC
  0
SECTION
  2
BLOCKS
  0
BLOCK
  5
20
330
1F
100
AcDbEntity
  8
0
100
AcDbBlockBegin
  2
*Model_Space
 70
     0
 10
0.0
 20
0.0
 30
0.0
  3
*Model_Space
  1

  0
ENDBLK
  5
21
330
1F
100
AcDbEntity
  8
0
100
AcDbBlockEnd
  0
BLOCK
  5
1C
330
1B
100
AcDbEntity
 67
     1
  8
0
100
AcDbBlockBegin
  2
*Paper_Space
 70
     0
 10
0.0
 20
0.0
 30
0.0
  3
*Paper_Space
  1

  0
ENDBLK
  5
1D
330
1B
100
AcDbEntity
 67
     1
  8
0
100
AcDbBlockEnd
  0
BLOCK
  5
24
330
23
100
AcDbEntity
  8
0
100
AcDbBlockBegin
  2
*Paper_Space0
 70
     0
 10
0.0
 20
0.0
 30
0.0
  3
*Paper_Space0
  1

  0
ENDBLK
  5
25
330
23
100
AcDbEntity
  8
0
100
AcDbBlockEnd
  0
ENDSEC
  0
SECTION
  2
ENTITIES
  0
LINE
  5
74
330
1F
100
AcDbEntity
  8
0
  6
Continuous
 62
     7
370
    25
100
AcDbLine
 10
436.5208731498
 20
1177.5986020906
 30
0.0
 11
436.5208731498
 21
742.9986021026
 31
0.0
  0
LINE
  5
75
330
1F
100
AcDbEntity
  8
0
  6
Continuous
 62
     7
370
    25
100
AcDbLine
 10
436.5208731498
 20
742.9986021026
 30
0.0
 11
23.4617975039
 21
742.9986021026
 31
0.0
  0
LINE
  5
76
330
1F
100
AcDbEntity
  8
0
  6
Continuous
 62
     7
370
    25
100
AcDbLine
 10
23.4617975039
 20
1177.5986020906
 30
0.0
 11
436.5208731498
 21
1177.5986020906
 31
0.0
  0
LINE
  5
77
330
1F
100
AcDbEntity
  8
0
  6
Continuous
 62
     7
370
    25
100
AcDbLine
 10
22.5300669208
 20
1177.5986020906
 30
0.0
 11
22.5300669208
 21
742.9986021026
 31
0.0
  0
LINE
  5
78
330
1F
100
AcDbEntity
  8
0
  6
Continuous
 62
     7
370
    25
100
AcDbLine
 10
23.4617975039
 20
1177.5986020906
 30
0.0
 11
22.5300669208
 21
1177.5986020906
 31
0.0
  0
LINE
  5
79
330
1F
100
AcDbEntity
  8
0
  6
Continuous
 62
     7
370
    25
100
AcDbLine
 10
23.4617975039
 20
742.9986021026
 30
0.0
 11
22.5300669208
 21
742.9986021026
 31
0.0
  0
CIRCLE
  5
7A
330
1F
100
AcDbEntity
  8
0
  6
Continuous
 62
     7
370
    25
100
AcDbCircle
 10
2140.0896127607
 20
335.3410591469
 30
0.0
 40
4.216399999999794
  0
CIRCLE
  5
7B
330
1F
100
AcDbEntity
  8
0
  6
Continuous
 62
     7
370
    25
100
AcDbCircle
 10
2140.0896127607
 20
335.3410591469
 30
0.0
 40
2.457449999999426
  0
LINE
  5
7C
330
1F
100
AcDbEntity
  8
0
  6
Continuous
 62
     7
370
    25
100
AcDbLine
 10
2181.7894930088
 20
207.1175329228
 30
0.0
 11
2197.3068883834
 21
207.1621060113
 31
0.0
  0
LINE
  5
7D
330
1F
100
AcDbEntity
  8
0
  6
Continuous
 62
     7
370
    25
100
AcDbLine
 10
2178.4226545219
 20
214.733710439
 30
0.0
 11
2181.7894930088
 21
207.1175329228
 31
0.0
  0
ARC
  5
7E
330
1F
100
AcDbEntity
  8
0
  6
Continuous
 62
     7
370
    25
100
AcDbCircle
 10
2125.0640434271
 20
335.437051479
 30
0.0
 40
131.9713526344645
100
AcDbArc
 50
247.4677572682
 51
293.8484999295
  0
LINE
  5
7F
330
1F
100
AcDbEntity
  8
0
  6
Continuous
 62
     7
370
    25
100
AcDbLine
 10
2072.6671829658
 20
209.1409095345
 30
0.0
 11
2074.4921885744
 21
213.5398594977
 31
0.0
  0
LINE
  5
80
330
1F
100
AcDbEntity
  8
0
  6
Continuous
 62
     7
370
    25
100
AcDbLine
 10
2068.3006830041
 20
211.0422470466
 30
0.0
 11
2072.6671829658
 21
209.1409095345
 31
0.0
  0
LINE
  5
81
330
1F
100
AcDbEntity
  8
0
  6
Continuous
 62
     7
370
    25
100
AcDbLine
 10
2066.4722873362
 20
217.1854382369
 30
0.0
 11
2068.3006830041
 21
211.0422470466
 31
0.0
  0
ARC
  5
82
330
1F
100
AcDbEntity
  8
0
  6
Continuous
 62
     7
370
    25
100
AcDbCircle
 10
2125.0640434271
 20
335.437051479
 30
0.0
 40
131.9713526344642
100
AcDbArc
 50
241.5745642901
 51
243.6423309175
  0
LINE
  5
83
330
1F
100
AcDbEntity
  8
0
  6
Continuous
 62
     7
370
    25
100
AcDbLine
 10
2059.9767236004
 20
215.1881959583
 30
0.0
 11
2062.2437434693
 21
219.3765162856
 31
0.0
  0
LINE
  5
84
330
1F
100
AcDbEntity
  8
0
  6
Continuous
 62
     7
370
    25
100
AcDbLine
 10
2048.5869331095
 20
220.8062625808
 30
0.0
 11
2059.9767236004
 21
215.1881959583
 31
0.0
  0
LINE
  5
85
330
1F
100
AcDbEntity
  8
0
  6
Continuous
 62
     7
370
    25
100
AcDbLine
 10
2048.5869331095
 20
496.7221060113
 30
0.0
 11
2048.5869331095
 21
220.8062625808
 31
0.0
  0
LINE
  5
86
330
1F
100
AcDbEntity
  8
0
  6
Continuous
 62
     7
370
    25
100
AcDbLine
 10
2051.1269331095
 20
499.2621060113
 30
0.0
 11
2048.5869331095
 21
496.7221060113
 31
0.0
  0
LINE
  5
87
330
1F
100
AcDbEntity
  8
0
  6
Continuous
 62
     7
370
    25
100
AcDbLine
 10
2194.7668883834
 20
499.2621060113
 30
0.0
 11
2051.1269331095
 21
499.2621060113
 31
0.0
  0
LINE
  5
88
330
1F
100
AcDbEntity
  8
0
  6
Continuous
 62
     7
370
    25
100
AcDbLine
 10
2197.3068883834
 20
496.7221060113
 30
0.0
 11
2194.7668883834
 21
499.2621060113
 31
0.0
  0
LINE
  5
89
330
1F
100
AcDbEntity
  8
0
  6
Continuous
 62
     7
370
    25
100
AcDbLine
 10
2197.3068883834
 20
207.1621060113
 30
0.0
 11
2197.3068883834
 21
496.7221060113
 31
0.0
  0
CIRCLE
  5
8A
330
1F
100
AcDbEntity
  8
0
  6
Continuous
 62
     7
370
    25
100
AcDbCircle
 10
2125.0242377607
 20
335.3410591469
 30
0.0
 40
5.041899999999714
  0
CIRCLE
  5
8B
330
1F
100
AcDbEntity
  8
0
  6
Continuous
 62
     7
370
    25
100
AcDbCircle
 10
2157.1906887556
 20
212.2397484335
 30
0.0
 40
1.727200000000266
  0
CIRCLE
  5
8C
330
1F
100
AcDbEntity
  8
0
  6
Continuous
 62
     7
370
    25
100
AcDbCircle
 10
2105.147394536
 20
209.6693744008
 30
0.0
 40
1.727199999999812
  0
CIRCLE
  5
8D
330
1F
100
AcDbEntity
  8
0
  6
Continuous
 62
     7
370
    25
100
AcDbCircle
 10
2169.9270442371
 20
277.8572262178
 30
0.0
 40
1.727199999999812
  0
CIRCLE
  5
8E
330
1F
100
AcDbEntity
  8
0
  6
Continuous
 62
     7
370
    25
100
AcDbCircle
 10
2134.9537939914
 20
266.3107693045
 30
0.0
 40
1.727199999999812
  0
CIRCLE
  5
8F
330
1F
100
AcDbEntity
  8
0
  6
Continuous
 62
     7
370
    25
100
AcDbCircle
 10
2106.6339071845
 20
267.041934514
 30
0.0
 40
1.727199999999812
  0
CIRCLE
  5
90
330
1F
100
AcDbEntity
  8
0
  6
Continuous
 62
     7
370
    25
100
AcDbCircle
 10
2069.8040591261
 20
266.9361422701
 30
0.0
 40
1.727199999999812
  0
CIRCLE
  5
91
330
1F
100
AcDbEntity
  8
0
  6
Continuous
 62
     7
370
    25
100
AcDbCircle
 10
2150.5031924058
 20
214.9803367651
 30
0.0
 40
1.727200000000266
  0
CIRCLE
  5
92
330
1F
100
AcDbEntity
  8
0
  6
Continuous
 62
     7
370
    25
100
AcDbCircle
 10
2118.3527983362
 20
213.4578754561
 30
0.0
 40
1.727199999999812
  0
CIRCLE
  5
93
330
1F
100
AcDbEntity
  8
0
  6
Continuous
 62
     7
370
    25
100
AcDbCircle
 10
2133.8068883834
 20
221.0410591469
 30
0.0
 40
2.806699999999637
  0
CIRCLE
  5
94
330
1F
100
AcDbEntity
  8
0
  6
Continuous
 62
     7
370
    25
100
AcDbCircle
 10
2124.5966891407
 20
290.8910591469
 30
0.0
 40
2.806700000000092
  0
CIRCLE
  5
95
330
1F
100
AcDbEntity
  8
0
  6
Continuous
 62
     7
370
    25
100
AcDbCircle
 10
2056.2069331095
 20
229.2960591469
 30
0.0
 40
2.806699999999637
  0
CIRCLE
  5
96
330
1F
100
AcDbEntity
  8
0
  6
Continuous
 62
     7
370
    25
100
AcDbCircle
 10
2189.6868883834
 20
221.0410591469
 30
0.0
 40
2.806699999999637
  0
CIRCLE
  5
97
330
1F
100
AcDbEntity
  8
0
  6
Continuous
 62
     7
370
    25
100
AcDbCircle
 10
2164.896612744
 20
319.9495614637
 30
0.0
 40
1.727199999999812
  0
CIRCLE
  5
98
330
1F
100
AcDbEntity
  8
0
  6
Continuous
 62
     7
370
    25
100
AcDbCircle
 10
2170.7712095138
 20
343.7070679152
 30
0.0
 40
1.727199999999812
  0
CIRCLE
  5
99
330
1F
100
AcDbEntity
  8
0
  6
Continuous
 62
     7
370
    25
100
AcDbCircle
 10
2183.10486756
 20
238.7511224568
 30
0.0
 40
1.727199999999812
  0
CIRCLE
  5
9A
330
1F
100
AcDbEntity
  8
0
  6
Continuous
 62
     7
370
    25
100
AcDbCircle
 10
2168.3663820073
 20
258.2884468287
 30
0.0
 40
1.727200000000266
  0
CIRCLE
  5
9B
330
1F
100
AcDbEntity
  8
0
  6
Continuous
 62
     7
370
    25
100
AcDbCircle
 10
2078.7414437455
 20
358.639145638
 30
0.0
 40
5.357875999999578
  0
CIRCLE
  5
9C
330
1F
100
AcDbEntity
  8
0
  6
Continuous
 62
     7
370
    25
100
AcDbCircle
 10
2078.7414437455
 20
366.005145638
 30
0.0
 40
1.190625000000182
  0
CIRCLE
  5
9D
330
1F
100
AcDbEntity
  8
0
  6
Continuous
 62
     7
370
    25
100
AcDbCircle
 10
2056.5244331095
 20
353.2121060113
 30
0.0
 40
2.806700000000092
  0
CIRCLE
  5
9E
330
1F
100
AcDbEntity
  8
0
  6
Continuous
 62
     7
370
    25
100
AcDbCircle
 10
2189.3693883834
 20
334.1621060113
 30
0.0
 40
2.806699999999637
  0
CIRCLE
  5
9F
330
1F
100
AcDbEntity
  8
0
  6
Continuous
 62
     7
370
    25
100
AcDbCircle
 10
2181.4318883834
 20
432.5871060113
 30
0.0
 40
2.806699999999637
  0
CIRCLE
  5
A0
330
1F
100
AcDbEntity
  8
0
  6
Continuous
 62
     7
370
    25
100
AcDbCircle
 10
2064.4619331095
 20
432.5871060113
 30
0.0
 40
2.806699999999637
  0
CIRCLE
  5
A1
330
1F
100
AcDbEntity
  8
0
  6
Continuous
 62
     7
370
    25
100
AcDbCircle
 10
2181.4318883834
 20
483.3871060113
 30
0.0
 40
2.806699999999637
  0
CIRCLE
  5
A2
330
1F
100
AcDbEntity
  8
0
  6
Continuous
 62
     7
370
    25
100
AcDbCircle
 10
2122.9469107465
 20
483.3871060113
 30
0.0
 40
2.806700000000092
  0
CIRCLE
  5
A3
330
1F
100
AcDbEntity
  8
0
  6
Continuous
 62
     7
370
    25
100
AcDbCircle
 10
2064.4619331095
 20
483.3871060113
 30
0.0
 40
2.806699999999637
  0
CIRCLE
  5
A4
330
1F
100
AcDbEntity
  8
0
  6
Continuous
 62
     7
370
    25
100
AcDbCircle
 10
2109.9588627607
 20
335.3410591469
 30
0.0
 40
4.216400000000249
  0
CIRCLE
  5
A5
330
1F
100
AcDbEntity
  8
0
  6
Continuous
 62
     7
370
    25
100
AcDbCircle
 10
2109.9588627607
 20
335.3410591469
 30
0.0
 40
2.457449999999881
  0
CIRCLE
  5
A6
330
1F
100
AcDbEntity
  8
0
  6
Continuous
 62
     7
370
    25
100
AcDbCircle
 10
2306.4968985202
 20
287.8192259577
 30
0.0
 40
2.806700000000092
  0
CIRCLE
  5
A7
330
1F
100
AcDbEntity
  8
0
  6
Continuous
 62
     7
370
    25
100
AcDbCircle
 10
2241.4066992775
 20
217.9692259577
 30
0.0
 40
2.806700000000092
  0
CIRCLE
  5
A8
330
1F
100
AcDbEntity
  8
0
  6
Continuous
 62
     7
370
    25
100
AcDbCircle
 10
2297.2866992775
 20
217.9692259577
 30
0.0
 40
2.806699999999637
  0
CIRCLE
  5
A9
330
1F
100
AcDbEntity
  8
0
  6
Continuous
 62
     7
370
    25
100
AcDbCircle
 10
2374.8866545514
 20
226.2242259577
 30
0.0
 40
2.806699999999637
  0
CIRCLE
  5
AA
330
1F
100
AcDbEntity
  8
0
  6
Continuous
 62
     7
370
    25
100
AcDbCircle
 10
2306.0693499002
 20
332.2692259577
 30
0.0
 40
5.041900000000169
  0
CIRCLE
  5
AB
330
1F
100
AcDbEntity
  8
0
  6
Continuous
 62
     7
370
    25
100
AcDbCircle
 10
2273.9028989053
 20
209.1679152444
 30
0.0
 40
1.727199999999812
  0
CIRCLE
  5
AC
330
1F
100
AcDbEntity
  8
0
  6
Continuous
 62
     7
370
    25
100
AcDbCircle
 10
2325.9461931249
 20
206.5975412116
 30
0.0
 40
1.727200000000266
  0
CIRCLE
  5
AD
330
1F
100
AcDbEntity
  8
0
  6
Continuous
 62
     7
370
    25
100
AcDbCircle
 10
2261.1665434238
 20
274.7853930286
 30
0.0
 40
1.727200000000266
  0
CIRCLE
  5
AE
330
1F
100
AcDbEntity
  8
0
  6
Continuous
 62
     7
370
    25
100
AcDbCircle
 10
2296.1397936695
 20
263.2389361154
 30
0.0
 40
1.727199999999812
  0
CIRCLE
  5
AF
330
1F
100
AcDbEntity
  8
0
  6
Continuous
 62
     7
370
    25
100
AcDbCircle
 10
2324.4596804764
 20
263.9701013248
 30
0.0
 40
1.727199999999812
  0
CIRCLE
  5
B0
330
1F
100
AcDbEntity
  8
0
  6
Continuous
 62
     7
370
    25
100
AcDbCircle
 10
2361.2895285348
 20
263.8643090809
 30
0.0
 40
1.727199999999812
  0
CIRCLE
  5
B1
330
1F
100
AcDbEntity
  8
0
  6
Continuous
 62
     7
370
    25
100
AcDbCircle
 10
2280.5903952551
 20
211.9085035759
 30
0.0
 40
1.727199999999812
  0
CIRCLE
  5
B2
330
1F
100
AcDbEntity
  8
0
  6
Continuous
 62
     7
370
    25
100
AcDbCircle
 10
2312.7407893247
 20
210.3860422669
 30
0.0
 40
1.727199999999812
  0
CIRCLE
  5
B3
330
1F
100
AcDbEntity
  8
0
  6
Continuous
 62
     7
370
    25
100
AcDbCircle
 10
2266.1969749169
 20
316.8777282745
 30
0.0
 40
1.727199999999812
  0
CIRCLE
  5
B4
330
1F
100
AcDbEntity
  8
0
  6
Continuous
 62
     7
370
    25
100
AcDbCircle
 10
2260.3223781471
 20
340.635234726
 30
0.0
 40
1.727199999999812
  0
CIRCLE
  5
B5
330
1F
100
AcDbEntity
  8
0
  6
Continuous
 62
     7
370
    25
100
AcDbCircle
 10
2357.8853499002
 20
332.2692259577
 30
0.0
 40
5.357876000000488
  0
CIRCLE
  5
B6
330
1F
100
AcDbEntity
  8
0
  6
Continuous
 62
     7
370
    25
100
AcDbCircle
 10
2357.8853499002
 20
324.9032259577
 30
0.0
 40
1.190625000000182
  0
CIRCLE
  5
B7
330
1F
100
AcDbEntity
  8
0
  6
Continuous
 62
     7
370
    25
100
AcDbCircle
 10
2246.2119703872
 20
304.4945306404
 30
0.0
 40
3.770312499999818
  0
CIRCLE
  5
B8
330
1F
100
AcDbEntity
  8
0
  6
Continuous
 62
     7
370
    25
100
AcDbCircle
 10
2236.6887038339
 20
316.826330675
 30
0.0
 40
1.190624999999727
  0
LINE
  5
B9
330
1F
100
AcDbEntity
  8
0
  6
Continuous
 62
     7
370
    25
100
AcDbLine
 10
2382.5066545514
 20
493.6502728222
 30
0.0
 11
2379.9666545514
 21
496.1902728222
 31
0.0
  0
LINE
  5
BA
330
1F
100
AcDbEntity
  8
0
  6
Continuous
 62
     7
370
    25
100
AcDbLine
 10
2382.5066545514
 20
493.6502728222
 30
0.0
 11
2382.5066545514
 21
217.7344293916
 31
0.0
  0
LINE
  5
BB
330
1F
100
AcDbEntity
  8
0
  6
Continuous
 62
     7
370
    25
100
AcDbLine
 10
2382.5066545514
 20
217.7344293916
 30
0.0
 11
2371.1168640605
 21
212.1163627691
 31
0.0
  0
LINE
  5
BC
330
1F
100
AcDbEntity
  8
0
  6
Continuous
 62
     7
370
    25
100
AcDbLine
 10
2371.1168640605
 20
212.1163627691
 30
0.0
 11
2368.8498441916
 21
216.3046830964
 31
0.0
  0
ARC
  5
BD
330
1F
100
AcDbEntity
  8
0
  6
Continuous
 62
     7
370
    25
100
AcDbCircle
 10
2306.0295442338
 20
332.3652182898
 30
0.0
 40
131.9713526344644
100
AcDbArc
 50
296.3576690825
 51
298.4254357099
  0
LINE
  5
BE
330
1F
100
AcDbEntity
  8
0
  6
Continuous
 62
     7
370
    25
100
AcDbLine
 10
2364.6213003247
 20
214.1136050477
 30
0.0
 11
2362.7929046568
 21
207.9704138575
 31
0.0
  0
LINE
  5
BF
330
1F
100
AcDbEntity
  8
0
  6
Continuous
 62
     7
370
    25
100
AcDbLine
 10
2362.7929046568
 20
207.9704138575
 30
0.0
 11
2358.4264046951
 21
206.0690763453
 31
0.0
  0
LINE
  5
C0
330
1F
100
AcDbEntity
  8
0
  6
Continuous
 62
     7
370
    25
100
AcDbLine
 10
2358.4264046951
 20
206.0690763453
 30
0.0
 11
2356.6013990865
 21
210.4680263085
 31
0.0
  0
ARC
  5
C1
330
1F
100
AcDbEntity
  8
0
  6
Continuous
 62
     7
370
    25
100
AcDbCircle
 10
2306.0295442338
 20
332.3652182898
 30
0.0
 40
131.9713526344643
100
AcDbArc
 50
246.1515000705
 51
292.5322427318
  0
LINE
  5
C2
330
1F
100
AcDbEntity
  8
0
  6
Continuous
 62
     7
370
    25
100
AcDbLine
 10
2252.670933139
 20
211.6618772498
 30
0.0
 11
2249.3040946521
 21
204.0456997337
 31
0.0
  0
LINE
  5
C3
330
1F
100
AcDbEntity
  8
0
  6
Continuous
 62
     7
370
    25
100
AcDbLine
 10
2249.3040946521
 20
204.0456997337
 30
0.0
 11
2233.7866992775
 21
204.0902728222
 31
0.0
  0
LINE
  5
C4
330
1F
100
AcDbEntity
  8
0
  6
Continuous
 62
     7
370
    25
100
AcDbLine
 10
2233.7866992775
 20
204.0902728222
 30
0.0
 11
2233.7866992775
 21
493.6502728222
 31
0.0
  0
LINE
  5
C5
330
1F
100
AcDbEntity
  8
0
  6
Continuous
 62
     7
370
    25
100
AcDbLine
 10
2236.3266992775
 20
496.1902728222
 30
0.0
 11
2233.7866992775
 21
493.6502728222
 31
0.0
  0
LINE
  5
C6
330
1F
100
AcDbEntity
  8
0
  6
Continuous
 62
     7
370
    25
100
AcDbLine
 10
2379.9666545514
 20
496.1902728222
 30
0.0
 11
2236.3266992775
 21
496.1902728222
 31
0.0
  0
CIRCLE
  5
C7
330
1F
100
AcDbEntity
  8
0
  6
Continuous
 62
     7
370
    25
100
AcDbCircle
 10
2241.7241992775
 20
331.0902728222
 30
0.0
 40
2.806700000000092
  0
CIRCLE
  5
C8
330
1F
100
AcDbEntity
  8
0
  6
Continuous
 62
     7
370
    25
100
AcDbCircle
 10
2374.5691545514
 20
350.1402728222
 30
0.0
 40
2.806699999999637
  0
CIRCLE
  5
C9
330
1F
100
AcDbEntity
  8
0
  6
Continuous
 62
     7
370
    25
100
AcDbCircle
 10
2262.7272056536
 20
255.2166136395
 30
0.0
 40
1.727199999999812
  0
CIRCLE
  5
CA
330
1F
100
AcDbEntity
  8
0
  6
Continuous
 62
     7
370
    25
100
AcDbCircle
 10
2247.9887201009
 20
235.6792892676
 30
0.0
 40
1.727200000000266
  0
CIRCLE
  5
CB
330
1F
100
AcDbEntity
  8
0
  6
Continuous
 62
     7
370
    25
100
AcDbCircle
 10
2249.6616992775
 20
429.5152728222
 30
0.0
 40
2.806700000000092
  0
CIRCLE
  5
CC
330
1F
100
AcDbEntity
  8
0
  6
Continuous
 62
     7
370
    25
100
AcDbCircle
 10
2366.6316545514
 20
429.5152728222
 30
0.0
 40
2.806700000000092
  0
CIRCLE
  5
CD
330
1F
100
AcDbEntity
  8
0
  6
Continuous
 62
     7
370
    25
100
AcDbCircle
 10
2249.6616992775
 20
480.3152728222
 30
0.0
 40
2.806700000000092
  0
CIRCLE
  5
CE
330
1F
100
AcDbEntity
  8
0
  6
Continuous
 62
     7
370
    25
100
AcDbCircle
 10
2308.1466769145
 20
480.3152728222
 30
0.0
 40
2.806699999999637
  0
CIRCLE
  5
CF
330
1F
100
AcDbEntity
  8
0
  6
Continuous
 62
     7
370
    25
100
AcDbCircle
 10
2366.6316545514
 20
480.3152728222
 30
0.0
 40
2.806700000000092
  0
CIRCLE
  5
D0
330
1F
100
AcDbEntity
  8
0
  6
Continuous
 62
     7
370
    25
100
AcDbCircle
 10
2291.0039749002
 20
332.2692259577
 30
0.0
 40
4.216400000000249
  0
CIRCLE
  5
D1
330
1F
100
AcDbEntity
  8
0
  6
Continuous
 62
     7
370
    25
100
AcDbCircle
 10
2321.1347249002
 20
332.2692259577
 30
0.0
 40
4.216400000000249
  0
CIRCLE
  5
D2
330
1F
100
AcDbEntity
  8
0
  6
Continuous
 62
     7
370
    25
100
AcDbCircle
 10
2321.1347249002
 20
332.2692259577
 30
0.0
 40
2.457449999999881
  0
CIRCLE
  5
D3
330
1F
100
AcDbEntity
  8
0
  6
Continuous
 62
     7
370
    25
100
AcDbCircle
 10
2291.0039749002
 20
332.2692259577
 30
0.0
 40
2.457450000000335
  0
CIRCLE
  5
D4
330
1F
100
AcDbEntity
  8
0
  6
Continuous
 62
     7
370
    25
100
AcDbCircle
 10
1904.269854492
 20
434.793979477
 30
0.0
 40
3.543299999999988
  0
CIRCLE
  5
D5
330
1F
100
AcDbEntity
  8
0
  6
Continuous
 62
     7
370
    25
100
AcDbCircle
 10
1904.269854492
 20
434.793979477
 30
0.0
 40
2.152650000000051
  0
CIRCLE
  5
D6
330
1F
100
AcDbEntity
  8
0
  6
Continuous
 62
     7
370
    25
100
AcDbCircle
 10
1895.2784791411
 20
269.1218197855
 30
0.0
 40
8.334374999999966
  0
CIRCLE
  5
D7
330
1F
100
AcDbEntity
  8
0
  6
Continuous
 62
     7
370
    25
100
AcDbCircle
 10
1904.269854492
 20
472.7306021205
 30
0.0
 40
2.152650000000051
  0
CIRCLE
  5
D8
330
1F
100
AcDbEntity
  8
0
  6
Continuous
 62
     7
370
    25
100
AcDbCircle
 10
1884.1345521723
 20
472.6249815496
 30
0.0
 40
2.152649999999994
  0
CIRCLE
  5
D9
330
1F
100
AcDbEntity
  8
0
  6
Continuous
 62
     7
370
    25
100
AcDbCircle
 10
1883.9316801729
 20
498.404191024
 30
0.0
 40
2.152649999999994
  0
CIRCLE
  5
DA
330
1F
100
AcDbEntity
  8
0
  6
Continuous
 62
     7
370
    25
100
AcDbCircle
 10
1904.2022709248
 20
498.5105212561
 30
0.0
 40
2.152649999999994
  0
LINE
  5
DB
330
1F
100
AcDbEntity
  8
0
  6
Continuous
 62
     7
370
    25
100
AcDbLine
 10
1880.0384791411
 20
506.4739049828
 30
0.0
 11
1876.2284791411
 21
502.6639049828
 31
0.0
  0
LINE
  5
DC
330
1F
100
AcDbEntity
  8
0
  6
Continuous
 62
     7
370
    25
100
AcDbLine
 10
1910.5184791411
 20
506.4739049828
 30
0.0
 11
1880.0384791411
 21
506.4739049828
 31
0.0
  0
LINE
  5
DD
330
1F
100
AcDbEntity
  8
0
  6
Continuous
 62
     7
370
    25
100
AcDbLine
 10
1914.3284791411
 20
502.6639049828
 30
0.0
 11
1910.5184791411
 21
506.4739049828
 31
0.0
  0
LINE
  5
DE
330
1F
100
AcDbEntity
  8
0
  6
Continuous
 62
     7
370
    25
100
AcDbLine
 10
1914.3284791411
 20
502.6639049828
 30
0.0
 11
1914.3284791411
 21
196.7318197855
 31
0.0
  0
LINE
  5
DF
330
1F
100
AcDbEntity
  8
0
  6
Continuous
 62
     7
370
    25
100
AcDbLine
 10
1911.1534791411
 20
193.5568197855
 30
0.0
 11
1914.3284791411
 21
196.7318197855
 31
0.0
  0
LINE
  5
E0
330
1F
100
AcDbEntity
  8
0
  6
Continuous
 62
     7
370
    25
100
AcDbLine
 10
1911.1534791411
 20
193.5568197855
 30
0.0
 11
1879.4034791411
 21
193.5568197855
 31
0.0
  0
LINE
  5
E1
330
1F
100
AcDbEntity
  8
0
  6
Continuous
 62
     7
370
    25
100
AcDbLine
 10
1876.2284791411
 20
196.7318197855
 30
0.0
 11
1879.4034791411
 21
193.5568197855
 31
0.0
  0
LINE
  5
E2
330
1F
100
AcDbEntity
  8
0
  6
Continuous
 62
     7
370
    25
100
AcDbLine
 10
1876.2284791411
 20
196.7318197855
 30
0.0
 11
1876.2284791411
 21
502.6639049828
 31
0.0
  0
CIRCLE
  5
E3
330
1F
100
AcDbEntity
  8
0
  6
Continuous
 62
     7
370
    25
100
AcDbCircle
 10
1895.2784791411
 20
203.7168197855
 30
0.0
 40
2.806700000000006
  0
CIRCLE
  5
E4
330
1F
100
AcDbEntity
  8
0
  6
Continuous
 62
     7
370
    25
100
AcDbCircle
 10
1895.2784791411
 20
235.4668197855
 30
0.0
 40
3.175000000000011
  0
CIRCLE
  5
E5
330
1F
100
AcDbEntity
  8
0
  6
Continuous
 62
     7
370
    25
100
AcDbCircle
 10
1884.1345521723
 20
434.793979477
 30
0.0
 40
3.543299999999988
  0
CIRCLE
  5
E6
330
1F
100
AcDbEntity
  8
0
  6
Continuous
 62
     7
370
    25
100
AcDbCircle
 10
1895.2784791411
 20
420.188979477
 30
0.0
 40
3.543300000000045
  0
CIRCLE
  5
E7
330
1F
100
AcDbEntity
  8
0
  6
Continuous
 62
     7
370
    25
100
AcDbCircle
 10
1895.2784791411
 20
420.188979477
 30
0.0
 40
2.152649999999994
  0
CIRCLE
  5
E8
330
1F
100
AcDbEntity
  8
0
  6
Continuous
 62
     7
370
    25
100
AcDbCircle
 10
1884.1345521723
 20
434.793979477
 30
0.0
 40
2.152649999999994
  0
CIRCLE
  5
E9
330
1F
100
AcDbEntity
  8
0
  6
Continuous
 62
     7
370
    25
100
AcDbCircle
 10
1995.2660460485
 20
473.8279047124
 30
0.0
 40
3.543300000000045
  0
CIRCLE
  5
EA
330
1F
100
AcDbEntity
  8
0
  6
Continuous
 62
     7
370
    25
100
AcDbCircle
 10
1995.4689180479
 20
499.6071141868
 30
0.0
 40
3.543300000000045
  0
CIRCLE
  5
EB
330
1F
100
AcDbEntity
  8
0
  6
Continuous
 62
     7
370
    25
100
AcDbCircle
 10
1984.1221190797
 20
270.3247429482
 30
0.0
 40
8.334375000000023
  0
LINE
  5
EC
330
1F
100
AcDbEntity
  8
0
  6
Continuous
 62
     7
370
    25
100
AcDbLine
 10
1968.8821190797
 20
507.6768281456
 30
0.0
 11
1965.0721190797
 21
503.8668281456
 31
0.0
  0
LINE
  5
ED
330
1F
100
AcDbEntity
  8
0
  6
Continuous
 62
     7
370
    25
100
AcDbLine
 10
1968.8821190797
 20
507.6768281456
 30
0.0
 11
1999.3621190797
 21
507.6768281456
 31
0.0
  0
LINE
  5
EE
330
1F
100
AcDbEntity
  8
0
  6
Continuous
 62
     7
370
    25
100
AcDbLine
 10
2003.1721190797
 20
503.8668281456
 30
0.0
 11
1999.3621190797
 21
507.6768281456
 31
0.0
  0
LINE
  5
EF
330
1F
100
AcDbEntity
  8
0
  6
Continuous
 62
     7
370
    25
100
AcDbLine
 10
2003.1721190797
 20
197.2997429482
 30
0.0
 11
2003.1721190797
 21
503.8668281456
 31
0.0
  0
LINE
  5
F0
330
1F
100
AcDbEntity
  8
0
  6
Continuous
 62
     7
370
    25
100
AcDbLine
 10
2000.6321190797
 20
194.7597429482
 30
0.0
 11
2003.1721190797
 21
197.2997429482
 31
0.0
  0
LINE
  5
F1
330
1F
100
AcDbEntity
  8
0
  6
Continuous
 62
     7
370
    25
100
AcDbLine
 10
1967.6121190797
 20
194.7597429482
 30
0.0
 11
2000.6321190797
 21
194.7597429482
 31
0.0
  0
LINE
  5
F2
330
1F
100
AcDbEntity
  8
0
  6
Continuous
 62
     7
370
    25
100
AcDbLine
 10
1965.0721190797
 20
197.2997429482
 30
0.0
 11
1967.6121190797
 21
194.7597429482
 31
0.0
  0
LINE
  5
F3
330
1F
100
AcDbEntity
  8
0
  6
Continuous
 62
     7
370
    25
100
AcDbLine
 10
1965.0721190797
 20
503.8668281456
 30
0.0
 11
1965.0721190797
 21
197.2997429482
 31
0.0
  0
CIRCLE
  5
F4
330
1F
100
AcDbEntity
  8
0
  6
Continuous
 62
     7
370
    25
100
AcDbCircle
 10
1984.1221190797
 20
421.3919026397
 30
0.0
 40
3.543300000000045
  0
CIRCLE
  5
F5
330
1F
100
AcDbEntity
  8
0
  6
Continuous
 62
     7
370
    25
100
AcDbCircle
 10
1995.2660460485
 20
435.9969026397
 30
0.0
 40
3.543299999999988
  0
CIRCLE
  5
F6
330
1F
100
AcDbEntity
  8
0
  6
Continuous
 62
     7
370
    25
100
AcDbCircle
 10
1975.1307437288
 20
435.9969026397
 30
0.0
 40
3.543299999999988
  0
CIRCLE
  5
F7
330
1F
100
AcDbEntity
  8
0
  6
Continuous
 62
     7
370
    25
100
AcDbCircle
 10
1975.198327296
 20
499.7134444188
 30
0.0
 40
3.543300000000045
  0
CIRCLE
  5
F8
330
1F
100
AcDbEntity
  8
0
  6
Continuous
 62
     7
370
    25
100
AcDbCircle
 10
1975.1307437288
 20
473.9335252833
 30
0.0
 40
3.543299999999988
  0
CIRCLE
  5
F9
330
1F
100
AcDbEntity
  8
0
  6
Continuous
 62
     7
370
    25
100
AcDbCircle
 10
1984.1221190797
 20
204.9197429482
 30
0.0
 40
2.806700000000006
  0
CIRCLE
  5
FA
330
1F
100
AcDbEntity
  8
0
  6
Continuous
 62
     7
370
    25
100
AcDbCircle
 10
1984.1221190797
 20
236.6697429482
 30
0.0
 40
3.174999999999983
  0
CIRCLE
  5
FB
330
1F
100
AcDbEntity
  8
0
  6
Continuous
 62
     7
370
    25
100
AcDbCircle
 10
1984.1221190797
 20
421.3919026397
 30
0.0
 40
2.152649999999994
  0
CIRCLE
  5
FC
330
1F
100
AcDbEntity
  8
0
  6
Continuous
 62
     7
370
    25
100
AcDbCircle
 10
1995.2660460485
 20
435.9969026397
 30
0.0
 40
2.152649999999937
  0
CIRCLE
  5
FD
330
1F
100
AcDbEntity
  8
0
  6
Continuous
 62
     7
370
    25
100
AcDbCircle
 10
1975.1307437288
 20
435.9969026397
 30
0.0
 40
2.152649999999937
  0
CIRCLE
  5
FE
330
1F
100
AcDbEntity
  8
0
  6
Continuous
 62
     7
370
    25
100
AcDbCircle
 10
1975.198327296
 20
499.7134444188
 30
0.0
 40
2.152649999999994
  0
CIRCLE
  5
FF
330
1F
100
AcDbEntity
  8
0
  6
Continuous
 62
     7
370
    25
100
AcDbCircle
 10
1995.4689180479
 20
499.6071141868
 30
0.0
 40
2.152649999999994
  0
CIRCLE
  5
100
330
1F
100
AcDbEntity
  8
0
  6
Continuous
 62
     7
370
    25
100
AcDbCircle
 10
1995.2660460485
 20
473.8279047124
 30
0.0
 40
2.152649999999994
  0
CIRCLE
  5
101
330
1F
100
AcDbEntity
  8
0
  6
Continuous
 62
     7
370
    25
100
AcDbCircle
 10
1975.1307437288
 20
473.9335252833
 30
0.0
 40
2.152649999999994
  0
LINE
  5
102
330
1F
100
AcDbEntity
  8
0
  6
Continuous
 62
     7
370
    25
100
AcDbLine
 10
569.8959350107
 20
1189.4426190356
 30
0.0
 11
1141.373867167
 21
1189.4426190356
 31
0.0
  0
SPLINE
  5
103
330
1F
100
AcDbEntity
  8
0
  6
Continuous
 62
     7
370
    25
100
AcDbSpline
210
0.0
220
0.0
230
1.0
 70
     8
 71
     3
 72
    10
 73
     6
 74
     0
 42
0.00000001
 43
0.00000001
 40
-56.73950256253401
 40
-56.73950256253401
 40
-56.73950256253401
 40
-56.73950256253401
 40
-25.56106888728
 40
-25.56106888728
 40
-9.082441489662909
 40
-9.082441489662909
 40
-9.082441489662909
 40
-9.082441489662909
 10
1143.444494239635
 20
613.8325950918072
 30
0.0
 10
1142.020887593464
 20
719.1944457985632
 30
0.0
 10
1141.238727628597
 20
831.455741133924
 30
0.0
 10
1141.042264684719
 20
1045.753388859021
 30
0.0
 10
1141.165562888354
 20
1122.014241987453
 30
0.0
 10
1141.373867166992
 20
1189.442619035545
 30
0.0
  0
SPLINE
  5
104
330
1F
100
AcDbEntity
  8
0
  6
Continuous
 62
     7
370
    25
100
AcDbSpline
210
0.0
220
0.0
230
1.0
 70
    24
 71
     3
 72
    10
 73
     6
 74
     0
 42
0.00000001
 43
0.00000001
 40
-53.1349686655124
 40
-53.1349686655124
 40
-53.1349686655124
 40
-53.1349686655124
 40
-38.08384380242447
 40
-38.08384380242447
 40
-9.03456928373366
 40
-9.03456928373366
 40
-9.03456928373366
 40
-9.03456928373366
 10
569.8959350106866
 20
1189.442619035606
 30
0.0
 10
569.8959350106866
 20
1127.376597612349
 30
0.0
 10
569.8959350106866
 20
1057.793652088017
 30
0.0
 10
569.8959350106866
 20
859.5216532216078
 30
0.0
 10
569.8959350106866
 20
754.6481603579623
 30
0.0
 10
569.8959350106857
 20
656.3501780237136
 30
0.0
  0
LINE
  5
105
330
1F
100
AcDbEntity
  8
0
  6
Continuous
 62
     7
370
    25
100
AcDbLine
 10
1143.3962840649
 20
613.2702791417
 30
0.0
 11
1143.4444942396
 21
613.8325950918
 31
0.0
  0
LINE
  5
106
330
1F
100
AcDbEntity
  8
0
  6
Continuous
 62
     7
370
    25
100
AcDbLine
 10
569.8959350107
 20
655.7933942234
 30
0.0
 11
1143.3962840649
 21
613.2702791417
 31
0.0
  0
LINE
  5
107
330
1F
100
AcDbEntity
  8
0
  6
Continuous
 62
     7
370
    25
100
AcDbLine
 10
569.8959350107
 20
656.3501780237
 30
0.0
 11
569.8959350107
 21
655.7933942234
 31
0.0
  0
LINE
  5
108
330
1F
100
AcDbEntity
  8
0
  6
Continuous
 62
     7
370
    25
100
AcDbLine
 10
1141.373867167
 20
1189.4426190356
 30
0.0
 11
1141.3222093801
 21
1189.5803800593
 31
0.0
  0
SPLINE
  5
109
330
1F
100
AcDbEntity
  8
0
  6
Continuous
 62
     7
370
    25
100
AcDbSpline
210
0.0
220
0.0
230
1.0
 70
     8
 71
     3
 72
    23
 73
    19
 74
     0
 42
0.00000001
 43
0.00000001
 40
-56.73950256253416
 40
-56.73950256253416
 40
-56.73950256253416
 40
-56.73950256253416
 40
-53.76093624547936
 40
-50.78236992842456
 40
-44.82523729431495
 40
-38.86810466020533
 40
-32.91097202609573
 40
-29.93240570904092
 40
-26.95383939198612
 40
-23.97527307493132
 40
-20.99670675787651
 40
-18.0181404408217
 40
-15.0395741237669
 40
-13.5502909652395
 40
-12.0610078067121
 40
-10.5717246481847
 40
-9.827083068920992
 40
-9.082441489657292
 40
-9.082441489657292
 40
-9.082441489657292
 40
-9.082441489657292
 10
1155.401348760966
 20
611.2109800918014
 30
0.0
 10
1155.265099051694
 20
621.2948902546588
 30
0.0
 10
1155.004430653785
 20
641.5811439479634
 30
0.0
 10
1154.529951536749
 20
682.8156229687818
 30
0.0
 10
1154.02516346984
 20
735.8535217328757
 30
0.0
 10
1153.561205021534
 20
802.7737807090804
 30
0.0
 10
1153.293162856615
 20
861.9911287893794
 30
0.0
 10
1153.150137442285
 20
911.8882995743675
 30
0.0
 10
1153.078568797773
 20
950.6458257901153
 30
0.0
 10
1153.043001777631
 20
990.9974106608958
 30
0.0
 10
1153.04343384531
 20
1031.476108699225
 30
0.0
 10
1153.075481994041
 20
1071.800525607585
 30
0.0
 10
1153.12553158494
 20
1104.928089789351
 30
0.0
 10
1153.1776658856
 20
1130.953147847136
 30
0.0
 10
1153.222355781215
 20
1150.186963308153
 30
0.0
 10
1153.263832395485
 20
1165.927753808703
 30
0.0
 10
1153.299386087369
 20
1178.345144350792
 30
0.0
 10
1153.317801472543
 20
1184.454786408957
 30
0.0
 10
1153.327274076109
 20
1187.521081009423
 30
0.0
  0
LINE
  5
10A
330
1F
100
AcDbEntity
  8
0
  6
Continuous
 62
     7
370
    25
100
AcDbLine
 10
1153.3272740761
 20
1187.5210810094
 30
0.0
 11
1153.378931863
 21
1187.3833199857
 31
0.0
  0
LWPOLYLINE
  5
10B
330
1F
100
AcDbEntity
  8
0
  6
Continuous
 62
     7
370
    25
100
AcDbPolyline
 90
        3
 70
   128
 43
0.0
 10
2390.3809898468
 20
1187.3833196196
 10
1697.6598126371
 20
1187.3833216814
 10
1153.378931863
 20
1187.3833199857
  0
SPLINE
  5
10C
330
1F
100
AcDbEntity
  8
0
  6
Continuous
 62
     7
370
    25
100
AcDbSpline
210
0.0
220
0.0
230
1.0
 70
    24
 71
     3
 72
    10
 73
     6
 74
     0
 42
0.00000001
 43
0.00000001
 40
-64.5398702067748
 40
-64.5398702067748
 40
-64.5398702067748
 40
-64.5398702067748
 40
-44.69812705819189
 40
-44.69812705819189
 40
-9.17980984821859
 40
-9.17980984821859
 40
-9.17980984821859
 40
-9.17980984821859
 10
2390.380989846766
 20
1187.383319605141
 30
0.0
 10
2390.380989846766
 20
1107.502805580204
 30
0.0
 10
2390.380989846766
 20
1015.486209783512
 30
0.0
 10
2390.380989846766
 20
766.4562087156216
 30
0.0
 10
2390.380989846766
 20
638.6176611672464
 30
0.0
 10
2390.380989846766
 20
518.5838203304468
 30
0.0
  0
LINE
  5
10D
330
1F
100
AcDbEntity
  8
0
  6
Continuous
 62
     7
370
    25
100
AcDbLine
 10
2390.3809898468
 20
518.0228181377
 30
0.0
 11
1155.401348761
 21
611.2109800918
 31
0.0
  0
LINE
  5
10E
330
1F
100
AcDbEntity
  8
0
  6
Continuous
 62
     7
370
    25
100
AcDbLine
 10
2390.3809898468
 20
518.5838203304
 30
0.0
 11
2390.3809898468
 21
518.0228181377
 31
0.0
  0
LINE
  5
10F
330
1F
100
AcDbEntity
  8
0
  6
Continuous
 62
     7
370
    25
100
AcDbLine
 10
13.329865392
 20
680.6234814862
 30
0.0
 11
1248.3095064778
 21
587.4353195321
 31
0.0
  0
SPLINE
  5
110
330
1F
100
AcDbEntity
  8
0
  6
Continuous
 62
     7
370
    25
100
AcDbSpline
210
0.0
220
0.0
230
1.0
 70
     8
 71
     3
 72
    23
 73
    19
 74
     0
 42
0.00000001
 43
0.00000001
 40
-56.73950256253416
 40
-56.73950256253416
 40
-56.73950256253416
 40
-56.73950256253416
 40
-53.76093624547936
 40
-50.78236992842456
 40
-44.82523729431495
 40
-38.86810466020533
 40
-32.91097202609573
 40
-29.93240570904092
 40
-26.95383939198612
 40
-23.97527307493132
 40
-20.99670675787651
 40
-18.0181404408217
 40
-15.0395741237669
 40
-13.5502909652395
 40
-12.0610078067121
 40
-10.5717246481847
 40
-9.827083068920992
 40
-9.082441489657292
 40
-9.082441489657292
 40
-9.082441489657292
 40
-9.082441489657292
 10
1248.309506477818
 20
587.43531953207
 30
0.0
 10
1248.44575618709
 20
577.3514093692127
 30
0.0
 10
1248.706424584998
 20
557.065155675908
 30
0.0
 10
1249.180903702035
 20
515.8306766550897
 30
0.0
 10
1249.685691768943
 20
462.7927778909957
 30
0.0
 10
1250.149650217249
 20
395.8725189147912
 30
0.0
 10
1250.417692382169
 20
336.655170834492
 30
0.0
 10
1250.560717796498
 20
286.758000049504
 30
0.0
 10
1250.632286441011
 20
248.0004738337562
 30
0.0
 10
1250.667853461152
 20
207.6488889629757
 30
0.0
 10
1250.667421393473
 20
167.1701909246461
 30
0.0
 10
1250.635373244742
 20
126.8457740162863
 30
0.0
 10
1250.585323653843
 20
93.71820983452017
 30
0.0
 10
1250.533189353183
 20
67.69315177673563
 30
0.0
 10
1250.488499457569
 20
48.45933631571842
 30
0.0
 10
1250.447022843298
 20
32.71854581516798
 30
0.0
 10
1250.411469151414
 20
20.30115527307985
 30
0.0
 10
1250.39305376624
 20
14.19151321491463
 30
0.0
 10
1250.383581162675
 20
11.12521861444793
 30
0.0
  0
LWPOLYLINE
  5
111
330
1F
100
AcDbEntity
  8
0
  6
Continuous
 62
     7
370
    25
100
AcDbPolyline
 90
        3
 70
   128
 43
0.0
 10
13.329865392
 20
11.1184619794
 10
706.0799709623
 20
11.1222438383
 10
1250.3835811627
 20
11.1252186144
  0
SPLINE
  5
112
330
1F
100
AcDbEntity
  8
0
  6
Continuous
 62
     7
370
    25
100
AcDbSpline
210
0.0
220
0.0
230
1.0
 70
    24
 71
     3
 72
    28
 73
    24
 74
     0
 42
0.00000001
 43
0.00000001
 40
-64.5398702067748
 40
-64.5398702067748
 40
-64.5398702067748
 40
-64.5398702067748
 40
-61.07986643436503
 40
-57.61986266195527
 40
-50.69985511713574
 40
-43.77984757231621
 40
-40.31984379990645
 40
-36.85984002749669
 40
-33.39983625508692
 40
-29.93983248267716
 40
-28.20983059647228
 40
-26.4798287102674
 40
-23.01982493785764
 40
-19.55982116544788
 40
-17.829819279243
 40
-16.09981739303812
 40
-14.36981550683323
 40
-12.63981362062835
 40
-11.77481267752591
 40
-10.90981173442347
 40
-10.04481079132103
 40
-9.61231031976981
 40
-9.17980984821859
 40
-9.17980984821859
 40
-9.17980984821859
 40
-9.17980984821859
 10
13.32986539201753
 20
680.6234814861784
 30
0.0
 10
13.32986539201753
 20
668.9111741593183
 30
0.0
 10
13.32986539201753
 20
645.348013777684
 30
0.0
 10
13.32986539201753
 20
597.4369997935696
 30
0.0
 10
13.32986539201753
 20
535.768310294545
 30
0.0
 10
13.32986539201753
 20
470.8332139839688
 30
0.0
 10
13.32986539201753
 20
416.3927654865096
 30
0.0
 10
13.32986539201753
 20
374.1852315239764
 30
0.0
 10
13.32986539201753
 20
330.4569736140641
 30
0.0
 10
13.32986539201753
 20
292.6699827310635
 30
0.0
 10
13.32986539201753
 20
261.4942895102878
 30
0.0
 10
13.32986539201753
 20
230.2065913479663
 30
0.0
 10
13.32986539201753
 20
190.9967593842194
 30
0.0
 10
13.32986539201753
 20
152.0574026500412
 30
0.0
 10
13.32986539201753
 20
121.3030203120582
 30
0.0
 10
13.32986539201753
 20
98.49520548238266
 30
0.0
 10
13.32986539201753
 20
76.00448751032229
 30
0.0
 10
13.32986539201753
 20
57.57562153951334
 30
0.0
 10
13.32986539201753
 20
43.05049873701372
 30
0.0
 10
13.32986539201753
 20
32.27212490933362
 30
0.0
 10
13.32986539201753
 20
23.39562271709394
 30
0.0
 10
13.32986539201753
 20
16.35443976768847
 30
0.0
 10
13.32986539201753
 20
12.86630953896917
 30
0.0
 10
13.32986539201753
 20
11.11846197939603
 30
0.0
  0
SPLINE
  5
113
330
1F
100
AcDbEntity
  8
0
  6
Continuous
 62
     7
370
    25
100
AcDbSpline
210
0.0
220
0.0
230
1.0
 70
     8
 71
     3
 72
    23
 73
    19
 74
     0
 42
0.00000001
 43
0.00000001
 40
-56.73950256253416
 40
-56.73950256253416
 40
-56.73950256253416
 40
-56.73950256253416
 40
-55.99486098327046
 40
-55.25021940400676
 40
-53.76093624547936
 40
-52.27165308695196
 40
-50.78236992842456
 40
-47.80380361136975
 40
-44.82523729431495
 40
-41.84667097726014
 40
-38.86810466020533
 40
-35.88953834315053
 40
-32.91097202609573
 40
-26.95383939198612
 40
-20.99670675787651
 40
-15.0395741237669
 40
-12.0610078067121
 40
-9.082441489657292
 40
-9.082441489657292
 40
-9.082441489657292
 40
-9.082441489657292
 10
1264.549334449486
 20
10.17208170333828
 30
0.0
 10
1264.558807053052
 20
13.23837630380853
 30
0.0
 10
1264.577222438226
 20
19.34801836196975
 30
0.0
 10
1264.61277613011
 20
31.76540890405921
 30
0.0
 10
1264.654252744381
 20
47.50619940460876
 30
0.0
 10
1264.698942639995
 20
66.74001486563175
 30
0.0
 10
1264.751076940656
 20
92.76507292341229
 30
0.0
 10
1264.801126531555
 20
125.8926371051784
 30
0.0
 10
1264.833174680287
 20
166.2170540135396
 30
0.0
 10
1264.833606747965
 20
206.6957520518665
 30
0.0
 10
1264.798039727824
 20
247.0473369226466
 30
0.0
 10
1264.726471083311
 20
285.8048631383992
 30
0.0
 10
1264.583445668982
 20
335.702033923385
 30
0.0
 10
1264.31540350406
 20
394.9193820036828
 30
0.0
 10
1263.851445055753
 20
461.8396409798901
 30
0.0
 10
1263.346656988843
 20
514.8775397439823
 30
0.0
 10
1262.872177871804
 20
556.1120187647994
 30
0.0
 10
1262.611509473895
 20
576.3982724581035
 30
0.0
 10
1262.475259764622
 20
586.4821826209635
 30
0.0
  0
LINE
  5
114
330
1F
100
AcDbEntity
  8
0
  6
Continuous
 62
     7
370
    25
100
AcDbLine
 10
1835.9756088189
 20
10.1765221823
 30
0.0
 11
1264.5493344495
 21
10.1720817033
 31
0.0
  0
LINE
  5
115
330
1F
100
AcDbEntity
  8
0
  6
Continuous
 62
     7
370
    25
100
AcDbLine
 10
1835.9756088189
 20
543.9590675393
 30
0.0
 11
1262.4752597646
 21
586.482182621
 31
0.0
  0
SPLINE
  5
116
330
1F
100
AcDbEntity
  8
0
  6
Continuous
 62
     7
370
    25
100
AcDbSpline
210
0.0
220
0.0
230
1.0
 70
    24
 71
     3
 72
    24
 73
    20
 74
     0
 42
0.00000001
 43
0.00000001
 40
-53.1349686655124
 40
-53.1349686655124
 40
-53.1349686655124
 40
-53.1349686655124
 40
-50.37869370415123
 40
-47.62241874279006
 40
-42.10986882006772
 40
-36.59731889734537
 40
-31.08476897462303
 40
-28.32849401326186
 40
-25.57221905190069
 40
-24.1940815712201
 40
-22.81594409053952
 40
-20.05966912917835
 40
-17.30339416781717
 40
-14.547119206456
 40
-13.16898172577542
 40
-11.79084424509483
 40
-10.41270676441425
 40
-9.723638024073953
 40
-9.03456928373366
 40
-9.03456928373366
 40
-9.03456928373366
 40
-9.03456928373366
 10
1835.97560881887
 20
543.9590675392517
 30
0.0
 10
1835.975608818869
 20
534.6120923535988
 30
0.0
 10
1835.975608818869
 20
515.8141683492252
 30
0.0
 10
1835.97560881887
 20
477.5953603082868
 30
0.0
 10
1835.975608818869
 20
428.4456109459744
 30
0.0
 10
1835.975608818869
 20
366.471581987781
 30
0.0
 10
1835.975608818869
 20
311.6871332642806
 30
0.0
 10
1835.975608818869
 20
265.5763821748637
 30
0.0
 10
1835.975608818868
 20
235.7417150840423
 30
0.0
 10
1835.975608818869
 20
211.1732055007233
 30
0.0
 10
1835.975608818869
 20
186.2666116449511
 30
0.0
 10
1835.975608818869
 20
155.0643756910338
 30
0.0
 10
1835.975608818869
 20
117.7183682584478
 30
0.0
 10
1835.975608818869
 20
86.99710547361106
 30
0.0
 10
1835.975608818869
 20
62.8292504717628
 30
0.0
 10
1835.975608818869
 20
44.94973123788404
 30
0.0
 10
1835.975608818869
 20
30.29970984309138
 30
0.0
 10
1835.97560881887
 20
18.73236975084913
 30
0.0
 10
1835.975608818869
 20
13.03513542578127
 30
0.0
 10
1835.975608818869
 20
10.17652218230858
 30
0.0
  0
ENDSEC
  0
SECTION
  2
OBJECTS
  0
DICTIONARY
  5
C
330
0
100
AcDbDictionary
281
     1
  3
ACAD_GROUP
350
D
  3
ACAD_LAYOUT
350
1A
  3
ACAD_MLINESTYLE
350
17
  3
ACAD_PLOTSETTINGS
350
19
  3
ACAD_PLOTSTYLENAME
350
E
  3
ACAD_SCALELIST
350
47
  3
DWGPROPS
350
117
  0
DICTIONARY
  5
D
102
{ACAD_REACTORS
330
C
102
}
330
C
100
AcDbDictionary
281
     1
  0
DICTIONARY
  5
1A
102
{ACAD_REACTORS
330
C
102
}
330
C
100
AcDbDictionary
281
     1
  3
Layout1
350
1E
  3
Layout2
350
26
  3
Model
350
22
  0
DICTIONARY
  5
17
102
{ACAD_REACTORS
330
C
102
}
330
C
100
AcDbDictionary
281
     1
  3
Standard
350
18
  0
DICTIONARY
  5
19
102
{ACAD_REACTORS
330
C
102
}
330
C
100
AcDbDictionary
281
     1
  0
ACDBDICTIONARYWDFLT
  5
E
102
{ACAD_REACTORS
330
C
102
}
330
C
100
AcDbDictionary
281
     1
  3
Normal
350
F
100
AcDbDictionaryWithDefault
340
F
  0
DICTIONARY
  5
47
102
{ACAD_REACTORS
330
C
102
}
330
C
100
AcDbDictionary
281
     1
  3
A0
350
48
  3
A1
350
49
  3
A2
350
4A
  3
A3
350
4B
  3
A4
350
4C
  3
A5
350
4D
  3
A6
350
4E
  3
A7
350
4F
  3
A8
350
50
  3
A9
350
51
  3
B0
350
52
  3
B1
350
53
  3
B2
350
54
  3
B3
350
55
  3
B4
350
56
  3
B5
350
57
  3
B6
350
58
  3
B7
350
59
  3
B8
350
5A
  3
B9
350
5B
  3
C0
350
5C
  3
C1
350
5D
  3
C2
350
5E
  3
C3
350
5F
  3
C4
350
60
  3
C5
350
61
  3
C6
350
62
  3
C7
350
63
  3
C8
350
64
  3
C9
350
65
  3
D0
350
66
  3
D1
350
67
  3
D2
350
68
  0
XRECORD
  5
117
102
{ACAD_REACTORS
330
C
102
}
330
C
100
AcDbXrecord
280
     1
  1
DWGPROPS COOKIE
  2

  3

  4

  6

  7

  8
lukew
  9

300
=
301
=
302
=
303
=
304
=
305
=
306
=
307
=
308
=
309
=
 40
0.0
 41
2459072.260616783
 42
2459072.260617766
  1

 90
        0
  0
LAYOUT
  5
1E
102
{ACAD_REACTORS
330
1A
102
}
330
1A
100
AcDbPlotSettings
  1

  2
none_device
  4

  6

 40
0.0
 41
0.0
 42
0.0
 43
0.0
 44
0.0
 45
0.0
 46
0.0
 47
0.0
 48
0.0
 49
0.0
140
0.0
141
0.0
142
1.0
143
1.0
 70
   688
 72
     1
 73
     0
 74
     5
  7

 75
    16
147
1.0
148
0.0
149
0.0
100
AcDbLayout
  1
Layout1
 70
     1
 71
     1
 10
0.0
 20
0.0
 11
420.0
 21
297.0
 12
0.0
 22
0.0
 32
0.0
 14
1.0000000000E+20
 24
1.0000000000E+20
 34
1.0000000000E+20
 15
-1.0000000000E+20
 25
-1.0000000000E+20
 35
-1.0000000000E+20
146
0.0
 13
0.0
 23
0.0
 33
0.0
 16
1.0
 26
0.0
 36
0.0
 17
0.0
 27
1.0
 37
0.0
 76
     0
330
1B
  0
LAYOUT
  5
26
102
{ACAD_REACTORS
330
1A
102
}
330
1A
100
AcDbPlotSettings
  1

  2
none_device
  4

  6

 40
0.0
 41
0.0
 42
0.0
 43
0.0
 44
0.0
 45
0.0
 46
0.0
 47
0.0
 48
0.0
 49
0.0
140
0.0
141
0.0
142
1.0
143
1.0
 70
   688
 72
     1
 73
     0
 74
     5
  7

 75
    16
147
1.0
148
0.0
149
0.0
100
AcDbLayout
  1
Layout2
 70
     1
 71
     2
 10
0.0
 20
0.0
 11
0.0
 21
0.0
 12
0.0
 22
0.0
 32
0.0
 14
0.0
 24
0.0
 34
0.0
 15
0.0
 25
0.0
 35
0.0
146
0.0
 13
0.0
 23
0.0
 33
0.0
 16
1.0
 26
0.0
 36
0.0
 17
0.0
 27
1.0
 37
0.0
 76
     0
330
23
  0
LAYOUT
  5
22
102
{ACAD_REACTORS
330
1A
102
}
330
1A
100
AcDbPlotSettings
  1

  2
none_device
  4
Letter_(8.50_x_11.00_Inches)
  6

 40
6.35
 41
6.35
 42
6.35000508
 43
6.35000508
 44
215.9
 45
279.4
 46
0.0
 47
0.0
 48
0.0
 49
0.0
140
0.0
141
0.0
142
1.0
143
1.0
 70
  1712
 72
     1
 73
     0
 74
     0
  7

 75
     0
147
1.0
148
0.0
149
0.0
100
AcDbLayout
  1
Model
 70
     1
 71
     0
 10
0.0
 20
0.0
 11
2400.0
 21
1200.0
 12
0.0
 22
0.0
 32
0.0
 14
0.0
 24
0.0
 34
0.0
 15
2400.0
 25
1200.0
 35
0.0
146
0.0
 13
0.0
 23
0.0
 33
0.0
 16
1.0
 26
0.0
 36
0.0
 17
0.0
 27
1.0
 37
0.0
 76
     0
330
1F
331
29
  0
MLINESTYLE
  5
18
102
{ACAD_REACTORS
330
17
102
}
330
17
100
AcDbMlineStyle
  2
Standard
 70
     0
  3

 62
   256
 51
90.0
 52
90.0
 71
     2
 49
0.5
 62
   256
  6
BYLAYER
 49
-0.5
 62
   256
  6
BYLAYER
  0
ACDBPLACEHOLDER
  5
F
102
{ACAD_REACTORS
330
E
102
}
330
E
  0
SCALE
  5
48
102
{ACAD_REACTORS
330
47
102
}
330
47
100
AcDbScale
 70
     0
300
1:1
140
1.0
141
1.0
290
     1
  0
SCALE
  5
49
102
{ACAD_REACTORS
330
47
102
}
330
47
100
AcDbScale
 70
     0
300
1:2
140
1.0
141
2.0
290
     0
  0
SCALE
  5
4A
102
{ACAD_REACTORS
330
47
102
}
330
47
100
AcDbScale
 70
     0
300
1:4
140
1.0
141
4.0
290
     0
  0
SCALE
  5
4B
102
{ACAD_REACTORS
330
47
102
}
330
47
100
AcDbScale
 70
     0
300
1:5
140
1.0
141
5.0
290
     0
  0
SCALE
  5
4C
102
{ACAD_REACTORS
330
47
102
}
330
47
100
AcDbScale
 70
     0
300
1:8
140
1.0
141
8.0
290
     0
  0
SCALE
  5
4D
102
{ACAD_REACTORS
330
47
102
}
330
47
100
AcDbScale
 70
     0
300
1:10
140
1.0
141
10.0
290
     0
  0
SCALE
  5
4E
102
{ACAD_REACTORS
330
47
102
}
330
47
100
AcDbScale
 70
     0
300
1:16
140
1.0
141
16.0
290
     0
  0
SCALE
  5
4F
102
{ACAD_REACTORS
330
47
102
}
330
47
100
AcDbScale
 70
     0
300
1:20
140
1.0
141
20.0
290
     0
  0
SCALE
  5
50
102
{ACAD_REACTORS
330
47
102
}
330
47
100
AcDbScale
 70
     0
300
1:30
140
1.0
141
30.0
290
     0
  0
SCALE
  5
51
102
{ACAD_REACTORS
330
47
102
}
330
47
100
AcDbScale
 70
     0
300
1:40
140
1.0
141
40.0
290
     0
  0
SCALE
  5
52
102
{ACAD_REACTORS
330
47
102
}
330
47
100
AcDbScale
 70
     0
300
1:50
140
1.0
141
50.0
290
     0
  0
SCALE
  5
53
102
{ACAD_REACTORS
330
47
102
}
330
47
100
AcDbScale
 70
     0
300
1:100
140
1.0
141
100.0
290
     0
  0
SCALE
  5
54
102
{ACAD_REACTORS
330
47
102
}
330
47
100
AcDbScale
 70
     0
300
2:1
140
2.0
141
1.0
290
     0
  0
SCALE
  5
55
102
{ACAD_REACTORS
330
47
102
}
330
47
100
AcDbScale
 70
     0
300
4:1
140
4.0
141
1.0
290
     0
  0
SCALE
  5
56
102
{ACAD_REACTORS
330
47
102
}
330
47
100
AcDbScale
 70
     0
300
8:1
140
8.0
141
1.0
290
     0
  0
SCALE
  5
57
102
{ACAD_REACTORS
330
47
102
}
330
47
100
AcDbScale
 70
     0
300
10:1
140
10.0
141
1.0
290
     0
  0
SCALE
  5
58
102
{ACAD_REACTORS
330
47
102
}
330
47
100
AcDbScale
 70
     0
300
100:1
140
100.0
141
1.0
290
     0
  0
SCALE
  5
59
102
{ACAD_REACTORS
330
47
102
}
330
47
100
AcDbScale
 70
     0
300
1/128" = 1'-0"
140
0.0078125
141
12.0
290
     0
  0
SCALE
  5
5A
102
{ACAD_REACTORS
330
47
102
}
330
47
100
AcDbScale
 70
     0
300
1/64" = 1'-0"
140
0.015625
141
12.0
290
     0
  0
SCALE
  5
5B
102
{ACAD_REACTORS
330
47
102
}
330
47
100
AcDbScale
 70
     0
300
1/32" = 1'-0"
140
0.03125
141
12.0
290
     0
  0
SCALE
  5
5C
102
{ACAD_REACTORS
330
47
102
}
330
47
100
AcDbScale
 70
     0
300
1/16" = 1'-0"
140
0.0625
141
12.0
290
     0
  0
SCALE
  5
5D
102
{ACAD_REACTORS
330
47
102
}
330
47
100
AcDbScale
 70
     0
300
3/32" = 1'-0"
140
0.09375
141
12.0
290
     0
  0
SCALE
  5
5E
102
{ACAD_REACTORS
330
47
102
}
330
47
100
AcDbScale
 70
     0
300
1/8" = 1'-0"
140
0.125
141
12.0
290
     0
  0
SCALE
  5
5F
102
{ACAD_REACTORS
330
47
102
}
330
47
100
AcDbScale
 70
     0
300
3/16" = 1'-0"
140
0.1875
141
12.0
290
     0
  0
SCALE
  5
60
102
{ACAD_REACTORS
330
47
102
}
330
47
100
AcDbScale
 70
     0
300
1/4" = 1'-0"
140
0.25
141
12.0
290
     0
  0
SCALE
  5
61
102
{ACAD_REACTORS
330
47
102
}
330
47
100
AcDbScale
 70
     0
300
3/8" = 1'-0"
140
0.375
141
12.0
290
     0
  0
SCALE
  5
62
102
{ACAD_REACTORS
330
47
102
}
330
47
100
AcDbScale
 70
     0
300
1/2" = 1'-0"
140
0.5
141
12.0
290
     0
  0
SCALE
  5
63
102
{ACAD_REACTORS
330
47
102
}
330
47
100
AcDbScale
 70
     0
300
3/4" = 1'-0"
140
0.75
141
12.0
290
     0
  0
SCALE
  5
64
102
{ACAD_REACTORS
330
47
102
}
330
47
100
AcDbScale
 70
     0
300
1" = 1'-0"
140
1.0
141
12.0
290
     0
  0
SCALE
  5
65
102
{ACAD_REACTORS
330
47
102
}
330
47
100
AcDbScale
 70
     0
300
1-1/2" = 1'-0"
140
1.5
141
12.0
290
     0
  0
SCALE
  5
66
102
{ACAD_REACTORS
330
47
102
}
330
47
100
AcDbScale
 70
     0
300
3" = 1'-0"
140
3.0
141
12.0
290
     0
  0
SCALE
  5
67
102
{ACAD_REACTORS
330
47
102
}
330
47
100
AcDbScale
 70
     0
300
6" = 1'-0"
140
6.0
141
12.0
290
     0
  0
SCALE
  5
68
102
{ACAD_REACTORS
330
47
102
}
330
47
100
AcDbScale
 70
     0
300
1'-0" = 1'-0"
140
12.0
141
12.0
290
     0
  0
ENDSEC
  0
EOF
