  0
SECTION
  2
HEADER
  9
$ACADVER
  1
AC1014
  9
$ACADMAINTVER
 70
     0
  9
$DWGCODEPAGE
  3
ANSI_1252
  9
$INSBASE
 10
0.0
 20
0.0
 30
0.0
  9
$EXTMIN
 10
0.0
 20
0.0
 30
0.0
  9
$EXTMAX
 10
297.0
 20
210.0
 30
0.0
  9
$LIMMIN
 10
0.0
 20
0.0
  9
$LIMMAX
 10
12.0
 20
9.0
  9
$ORTHOMODE
 70
     0
  9
$REGENMODE
 70
     1
  9
$FILLMODE
 70
     0
  9
$QTEXTMODE
 70
     0
  9
$MIRRTEXT
 70
     1
  9
$DRAGMODE
 70
     2
  9
$LTSCALE
 40
1.0
  9
$OSMODE
 70
    37
  9
$ATTMODE
 70
     1
  9
$TEXTSIZE
 40
0.2
  9
$TRACEWID
 40
0.05
  9
$TEXTSTYLE
  7
STANDARD
  9
$CLAYER
  8
0
  9
$CELTYPE
  6
BYLAYER
  9
$CECOLOR
 62
   256
  9
$CELTSCALE
 40
1.0
  9
$DELOBJ
 70
     1
  9
$DISPSILH
 70
     0
  9
$DIMSCALE
 40
1.0
  9
$DIMASZ
 40
0.18
  9
$DIMEXO
 40
0.0625
  9
$DIMDLI
 40
0.38
  9
$DIMRND
 40
0.0
  9
$DIMDLE
 40
0.0
  9
$DIMEXE
 40
0.18
  9
$DIMTP
 40
0.0
  9
$DIMTM
 40
0.0
  9
$DIMTXT
 40
0.18
  9
$DIMCEN
 40
0.09
  9
$DIMTSZ
 40
0.0
  9
$DIMTOL
 70
     0
  9
$DIMLIM
 70
     0
  9
$DIMTIH
 70
     0
  9
$DIMTOH
 70
     0
  9
$DIMSE1
 70
     0
  9
$DIMSE2
 70
     0
  9
$DIMTAD
 70
     1
  9
$DIMZIN
 70
     0
  9
$DIMBLK
  1

  9
$DIMASO
 70
     1
  9
$DIMSHO
 70
     1
  9
$DIMPOST
  1

  9
$DIMAPOST
  1

  9
$DIMALT
 70
     0
  9
$DIMALTD
 70
     2
  9
$DIMALTF
 40
25.4
  9
$DIMLFAC
 40
1.0
  9
$DIMTOFL
 70
     0
  9
$DIMTVP
 40
0.0
  9
$DIMTIX
 70
     0
  9
$DIMSOXD
 70
     0
  9
$DIMSAH
 70
     0
  9
$DIMBLK1
  1

  9
$DIMBLK2
  1

  9
$DIMSTYLE
  2
STANDARD
  9
$DIMCLRD
 70
     0
  9
$DIMCLRE
 70
     0
  9
$DIMCLRT
 70
     0
  9
$DIMTFAC
 40
1.0
  9
$DIMGAP
 40
0.09
  9
$DIMJUST
 70
     0
  9
$DIMSD1
 70
     0
  9
$DIMSD2
 70
     0
  9
$DIMTOLJ
 70
     1
  9
$DIMTZIN
 70
     0
  9
$DIMALTZ
 70
     0
  9
$DIMALTTZ
 70
     0
  9
$DIMFIT
 70
     5
  9
$DIMUPT
 70
     0
  9
$DIMUNIT
 70
     2
  9
$DIMDEC
 70
     2
  9
$DIMTDEC
 70
     4
  9
$DIMALTU
 70
     2
  9
$DIMALTTD
 70
     2
  9
$DIMTXSTY
  7
STANDARD
  9
$DIMAUNIT
 70
     0
  9
$LUNITS
 70
     2
  9
$LUPREC
 70
     4
  9
$SKETCHINC
 40
0.1
  9
$FILLETRAD
 40
0.5
  9
$AUNITS
 70
     0
  9
$AUPREC
 70
     0
  9
$MENU
  1
.
  9
$ELEVATION
 40
0.0
  9
$PELEVATION
 40
0.0
  9
$THICKNESS
 40
0.0
  9
$LIMCHECK
 70
     0
  9
$BLIPMODE
 70
     0
  9
$CHAMFERA
 40
0.5
  9
$CHAMFERB
 40
0.5
  9
$CHAMFERC
 40
1.0
  9
$CHAMFERD
 40
0.0
  9
$SKPOLY
 70
     0
  9
$TDCREATE
 40
2450772.666465926
  9
$TDUPDATE
 40
2459549.534328704
  9
$TDINDWG
 40
0.0011564931
  9
$TDUSRTIMER
 40
0.0011564931
  9
$USRTIMER
 70
     1
  9
$ANGBASE
 50
0.0
  9
$ANGDIR
 70
     0
  9
$PDMODE
 70
     0
  9
$PDSIZE
 40
0.0
  9
$PLINEWID
 40
0.0
  9
$COORDS
 70
     1
  9
$SPLFRAME
 70
     0
  9
$SPLINETYPE
 70
     6
  9
$SPLINESEGS
 70
     8
  9
$ATTDIA
 70
     0
  9
$ATTREQ
 70
     1
  9
$HANDLING
 70
     1
  9
$HANDSEED
  5
C0
  9
$SURFTAB1
 70
     6
  9
$SURFTAB2
 70
     6
  9
$SURFTYPE
 70
     6
  9
$SURFU
 70
     6
  9
$SURFV
 70
     6
  9
$UCSNAME
  2

  9
$UCSORG
 10
0.0
 20
0.0
 30
0.0
  9
$UCSXDIR
 10
1.0
 20
0.0
 30
0.0
  9
$UCSYDIR
 10
0.0
 20
1.0
 30
0.0
  9
$PUCSNAME
  2

  9
$PUCSORG
 10
0.0
 20
0.0
 30
0.0
  9
$PUCSXDIR
 10
1.0
 20
0.0
 30
0.0
  9
$PUCSYDIR
 10
0.0
 20
1.0
 30
0.0
  9
$USERI1
 70
     0
  9
$USERI2
 70
     0
  9
$USERI3
 70
     0
  9
$USERI4
 70
     0
  9
$USERI5
 70
     0
  9
$USERR1
 40
0.0
  9
$USERR2
 40
0.0
  9
$USERR3
 40
0.0
  9
$USERR4
 40
0.0
  9
$USERR5
 40
0.0
  9
$WORLDVIEW
 70
     1
  9
$SHADEDGE
 70
     3
  9
$SHADEDIF
 70
    70
  9
$TILEMODE
 70
     1
  9
$MAXACTVP
 70
    48
  9
$PINSBASE
 10
0.0
 20
0.0
 30
0.0
  9
$PLIMCHECK
 70
     0
  9
$PEXTMIN
 10
0.0
 20
0.0
 30
0.0
  9
$PEXTMAX
 10
0.0
 20
0.0
 30
0.0
  9
$PLIMMIN
 10
0.0
 20
0.0
  9
$PLIMMAX
 10
12.0
 20
9.0
  9
$UNITMODE
 70
     0
  9
$VISRETAIN
 70
     1
  9
$PLINEGEN
 70
     0
  9
$PSLTSCALE
 70
     1
  9
$TREEDEPTH
 70
  3020
  9
$PICKSTYLE
 70
     1
  9
$CMLSTYLE
  2
STANDARD
  9
$CMLJUST
 70
     0
  9
$CMLSCALE
 40
1.0
  9
$PROXYGRAPHICS
 70
     1
  9
$MEASUREMENT
 70
     0
  0
ENDSEC
  0
SECTION
  2
CLASSES
  0
CLASS
  1
LWPOLYLINE
  2
AcDbPolyline
  3
ObjectDBX Classes
 90
       20
280
     0
281
     1
  0
CLASS
  1
IMAGE
  2
AcDbRasterImage
  3
ISM
 90
       21
280
     0
281
     1
  0
CLASS
  1
OLE2FRAME
  2
AcDbOle2Frame
  3
ObjectDBX Classes
 90
       21
280
     0
281
     1
  0
CLASS
  1
HATCH
  2
AcDbHatch
  3
ObjectDBX Classes
 90
       20
280
     0
281
     1
  0
CLASS
  1
DICTIONARYVAR
  2
AcDbDictionaryVar
  3
ObjectDBX Classes
 90
       20
280
     0
281
     0
  0
CLASS
  1
RASTERVARIABLES
  2
AcDbRasterVariables
  3
ISM
 90
       21
280
     0
281
     0
  0
CLASS
  1
IMAGEDEF
  2
AcDbRasterImageDef
  3
ISM
 90
       21
280
     0
281
     0
  0
CLASS
  1
IMAGEDEF_REACTOR
  2
AcDbRasterImageDefReactor
  3
ISM
 90
       21
280
     0
281
     0
  0
CLASS
  1
IDBUFFER
  2
AcDbIdBuffer
  3
ObjectDBX Classes
 90
       20
280
     0
281
     0
  0
CLASS
  1
SPATIAL_FILTER
  2
AcDbSpatialFilter
  3
ObjectDBX Classes
 90
       20
280
     0
281
     0
  0
CLASS
  1
XRECORD
  2
AcDbXrecord
  3
ObjectDBX Classes
 90
       21
280
     0
281
     0
  0
CLASS
  1
ACDBDICTIONARYWDFLT
  2
AcDbDictionaryWithDefault
  3
ObjectDBX Classes
 90
       22
280
     0
281
     0
  0
CLASS
  1
SCALE
  2
AcDbScale
  3
ObjectDBX Classes
 90
       27
280
     0
281
     0
  0
CLASS
  1
VISUALSTYLE
  2
AcDbVisualStyle
  3
ObjectDBX Classes
 90
       26
280
     0
281
     0
  0
CLASS
  1
MATERIAL
  2
AcDbMaterial
  3
ObjectDBX Classes
 90
       23
280
     0
281
     0
  0
CLASS
  1
TABLESTYLE
  2
AcDbTableStyle
  3
ObjectDBX Classes
 90
       25
280
     0
281
     0
  0
CLASS
  1
MLEADERSTYLE
  2
AcDbMLeaderStyle
  3
ACDB_MLEADERSTYLE_CLASS
 90
       27
280
     0
281
     0
  0
CLASS
  1
SORTENTSTABLE
  2
AcDbSortentsTable
  3
"AutoCAD"
 90
        0
280
     0
281
     0
  0
CLASS
  1
LAYER_INDEX
  2
AcDbLayerIndex
  3
"Acad"
 90
        0
280
     0
281
     0
  0
CLASS
  1
SPATIAL_INDEX
  2
AcDbSpatialIndex
  3
"Acad"
 90
        0
280
     0
281
     0
  0
CLASS
  1
OBJECT_PTR
  2
CAseDLPNTableRecord
  3
"ASE-LPNTableRecord"
 90
        1
280
     0
281
     0
  0
CLASS
  1
LAYOUT
  2
AcDbLayout
  3
"AutoCAD 2000"
 90
        1
280
     0
281
     0
  0
CLASS
  1
PLOTSETTINGS
  2
AcDbPlotsettings
  3
"AutoCAD 2000"
 90
        1
280
     0
281
     0
  0
CLASS
  1
ACDBPLACEHOLDER
  2
AcDbPlaceholder
  3
"AutoCAD 2000"
 90
        1
280
     0
281
     0
  0
CLASS
  1
VBA_PROJECT
  2
AcDbVbaProject
  3
"AutoCAD 2000"
 90
        1
280
     0
281
     0
  0
CLASS
  1
WIPEOUT
  2
AcDbWipeout
  3
"AutoCAD 2000"
 90
        1
280
     0
281
     1
  0
CLASS
  1
WIPEOUTVARIABLES
  2
AcDbWipeoutVariables
  3
"AutoCAD 2000"
 90
        1
280
     0
281
     0
  0
CLASS
  1
RTEXT
  2
RText
  3
RText|AutoCAD Express Tool|expresstools@autodesk.com
 90
        1
280
     0
281
     1
  0
CLASS
  1
ARCALIGNEDTEXT
  2
AcDbArcAlignedText
  3
RText|AutoCAD Express Tool|expresstools@autodesk.com
 90
        1
280
     0
281
     1
  0
ENDSEC
  0
SECTION
  2
TABLES
  0
TABLE
  2
VPORT
  5
8
100
AcDbSymbolTable
 70
     1
  0
VPORT
  5
25
100
AcDbSymbolTableRecord
100
AcDbViewportTableRecord
  2
*ACTIVE
 70
     0
 10
0.0
 20
0.0
 11
1.0
 21
1.0
 12
148.5
 22
105.0
 13
0.0
 23
0.0
 14
0.5
 24
0.5
 15
0.5
 25
0.5
 16
0.0
 26
0.0
 36
1.0
 17
0.0
 27
0.0
 37
0.0
 40
210.0
 41
1.414286
 42
50.0
 43
0.0
 44
0.0
 50
0.0
 51
0.0
 71
     0
 72
   100
 73
     1
 74
     1
 75
     0
 76
     0
 77
     0
 78
     0
  0
ENDTAB
  0
TABLE
  2
LTYPE
  5
5
100
AcDbSymbolTable
 70
     3
  0
LTYPE
  5
12
100
AcDbSymbolTableRecord
100
AcDbLinetypeTableRecord
  2
BYBLOCK
 70
     0
  3

 72
    65
 73
     0
 40
0.0
  0
LTYPE
  5
13
100
AcDbSymbolTableRecord
100
AcDbLinetypeTableRecord
  2
BYLAYER
 70
     0
  3

 72
    65
 73
     0
 40
0.0
  0
LTYPE
  5
14
100
AcDbSymbolTableRecord
100
AcDbLinetypeTableRecord
  2
CONTINUOUS
 70
     0
  3
Solid line
 72
    65
 73
     0
 40
0.0
  0
ENDTAB
  0
TABLE
  2
LAYER
  5
2
100
AcDbSymbolTable
 70
     1
  0
LAYER
  5
E
100
AcDbSymbolTableRecord
100
AcDbLayerTableRecord
  2
0
 70
     0
 62
     7
  6
CONTINUOUS
  0
ENDTAB
  0
TABLE
  2
STYLE
  5
3
100
AcDbSymbolTable
 70
     1
  0
STYLE
  5
F
100
AcDbSymbolTableRecord
100
AcDbTextStyleTableRecord
  2
STANDARD
 70
     0
 40
0.0
 41
1.0
 50
0.0
 71
     0
 42
0.2
  3
txt.shx
  4

  0
ENDTAB
  0
TABLE
  2
VIEW
  5
6
100
AcDbSymbolTable
 70
     0
  0
ENDTAB
  0
TABLE
  2
UCS
  5
7
100
AcDbSymbolTable
 70
     0
  0
ENDTAB
  0
TABLE
  2
APPID
  5
9
100
AcDbSymbolTable
 70
     1
  0
APPID
  5
10
100
AcDbSymbolTableRecord
100
AcDbRegAppTableRecord
  2
ACAD
 70
     0
  0
ENDTAB
  0
TABLE
  2
DIMSTYLE
  5
A
100
AcDbSymbolTable
 70
     1
  0
DIMSTYLE
105
1D
100
AcDbSymbolTableRecord
100
AcDbDimStyleTableRecord
  2
STANDARD
 70
     0
  3

  4

  5

  6

  7

 40
1.0
 41
0.18
 42
0.0625
 43
0.38
 44
0.18
 45
0.0
 46
0.0
 47
0.0
 48
0.0
 71
     0
 72
     0
 73
     1
 74
     1
 75
     0
 76
     0
 77
     0
 78
     0
140
0.18
141
0.09
142
0.0
143
25.4
144
1.0
145
0.0
146
1.0
147
0.09
170
     0
171
     2
172
     0
173
     0
174
     0
175
     0
176
     0
177
     0
178
     0
270
     2
271
     4
272
     4
273
     2
274
     2
275
     0
280
     0
281
     0
282
     0
283
     1
284
     0
285
     0
286
     0
287
     3
288
     0
340
F
  0
ENDTAB
  0
TABLE
  2
BLOCK_RECORD
  5
1
100
AcDbSymbolTable
 70
     3
  0
BLOCK_RECORD
  5
18
100
AcDbSymbolTableRecord
100
AcDbBlockTableRecord
  2
*MODEL_SPACE
  0
BLOCK_RECORD
  5
15
100
AcDbSymbolTableRecord
100
AcDbBlockTableRecord
  2
*PAPER_SPACE
  0
BLOCK_RECORD
  5
B4
100
AcDbSymbolTableRecord
100
AcDbBlockTableRecord
  2
RECTANGLE
  0
BLOCK_RECORD
  5
B8
100
AcDbSymbolTableRecord
100
AcDbBlockTableRecord
  2
SQUARE
  0
BLOCK_RECORD
  5
BC
100
AcDbSymbolTableRecord
100
AcDbBlockTableRecord
  2
CIRCLE
  0
ENDTAB
  0
ENDSEC
  0
SECTION
  2
BLOCKS
  0
BLOCK
  5
19
100
AcDbEntity
  8
0
100
AcDbBlockBegin
  2
*MODEL_SPACE
 70
     0
 10
0.0
 20
0.0
 30
0.0
  3
*MODEL_SPACE
  1

  0
ENDBLK
  5
1A
100
AcDbEntity
  8
0
100
AcDbBlockEnd
  0
BLOCK
  5
16
100
AcDbEntity
 67
     1
  8
0
100
AcDbBlockBegin
  2
*PAPER_SPACE
 70
     0
 10
0.0
 20
0.0
 30
0.0
  3
*PAPER_SPACE
  1

  0
ENDBLK
  5
17
100
AcDbEntity
 67
     1
  8
0
100
AcDbBlockEnd
  0
BLOCK
  5
B5
100
AcDbEntity
  8
0
100
AcDbBlockBegin
  2
RECTANGLE
 70
     0
 10
0.0
 20
0.0
 30
0.0
  3
RECTANGLE
  1

  0
LWPOLYLINE
  5
B6
100
AcDbEntity
  8
0
  6
CONTINUOUS
 62
     7
100
AcDbPolyline
 90
        4
 70
     1
 10
30.0
 20
35.0
 10
70.0
 20
35.0
 10
70.0
 20
65.0
 10
30.0
 20
65.0
  0
ENDBLK
  5
B7
100
AcDbEntity
  8
0
100
AcDbBlockEnd
  0
BLOCK
  5
B9
100
AcDbEntity
  8
0
100
AcDbBlockBegin
  2
SQUARE
 70
     0
 10
0.0
 20
0.0
 30
0.0
  3
SQUARE
  1

  0
LWPOLYLINE
  5
BA
100
AcDbEntity
  8
0
  6
CONTINUOUS
 62
     7
100
AcDbPolyline
 90
        4
 70
     1
 10
30.0
 20
30.0
 10
70.0
 20
30.0
 10
70.0
 20
70.0
 10
30.0
 20
70.0
  0
ENDBLK
  5
BB
100
AcDbEntity
  8
0
100
AcDbBlockEnd
  0
BLOCK
  5
BD
100
AcDbEntity
  8
0
100
AcDbBlockBegin
  2
CIRCLE
 70
     0
 10
0.0
 20
0.0
 30
0.0
  3
CIRCLE
  1

  0
LWPOLYLINE
  5
BE
100
AcDbEntity
  8
0
  6
CONTINUOUS
 62
     7
100
AcDbPolyline
 90
        2
 70
     1
 10
30.0
 20
50.0
 42
-1.0
 10
70.0
 20
50.0
 42
-1.0
  0
ENDBLK
  5
BF
100
AcDbEntity
  8
0
100
AcDbBlockEnd
  0
ENDSEC
  0
SECTION
  2
ENTITIES
  0
LWPOLYLINE
  5
74
102
{ACAD_REACTORS
330
76
102
}
100
AcDbEntity
  8
0
  6
CONTINUOUS
 62
     7
100
AcDbPolyline
 90
        4
 70
     1
 10
131.273141
 20
92.632288
 10
161.273141
 20
92.632288
 10
161.273141
 20
112.632288
 10
131.273141
 20
112.632288
  0
LWPOLYLINE
  5
75
102
{ACAD_REACTORS
330
76
102
}
100
AcDbEntity
  8
0
  6
CONTINUOUS
 62
     7
100
AcDbPolyline
 90
        4
 70
     1
 10
161.492816
 20
47.632293
 10
165.398
 20
48.498052
 10
147.786852
 20
127.936803
 10
143.881668
 20
127.071044
  0
HATCH
  5
76
100
AcDbEntity
  8
0
 62
   254
100
AcDbHatch
 10
0.0
 20
0.0
 30
0.0
210
0.0
220
0.0
230
1.0
  2
SOLID
 70
     1
 71
     1
 91
        1
 92
        3
 72
     0
 73
     1
 93
        4
 10
161.4928155771667946
 20
47.6322931776954235
 10
165.3979996056465325
 20
48.4980516334478367
 10
147.7868524428205887
 20
127.9368029000504947
 10
143.8816684143408509
 20
127.0710444442980673
 97
        2
330
74
330
75
 75
     0
 76
     1
 98
        0
  0
LWPOLYLINE
  5
77
102
{ACAD_REACTORS
330
78
102
}
100
AcDbEntity
  8
0
  6
CONTINUOUS
 62
     7
100
AcDbPolyline
 90
        4
 70
     1
 10
127.457279
 20
48.485339
 10
131.362463
 20
47.61958
 10
148.974953
 20
127.064391
 10
145.069769
 20
127.930149
  0
HATCH
  5
78
100
AcDbEntity
  8
0
 62
   254
100
AcDbHatch
 10
0.0
 20
0.0
 30
0.0
210
0.0
220
0.0
230
1.0
  2
SOLID
 70
     1
 71
     1
 91
        1
 92
        3
 72
     0
 73
     1
 93
        4
 10
127.457278869335056
 20
48.485338623053984
 10
131.3624628978147939
 20
47.6195801673016277
 10
148.9749534210172897
 20
127.0643909409834436
 10
145.0697693925375233
 20
127.9301493967357999
 97
        1
330
77
 75
     0
 76
     1
 98
        0
  0
LWPOLYLINE
  5
79
102
{ACAD_REACTORS
330
7A
102
}
100
AcDbEntity
  8
0
  6
CONTINUOUS
 62
     7
100
AcDbPolyline
 90
        4
 70
     1
 10
113.913299
 20
60.222498
 10
128.52885
 20
56.848232
 10
133.027871
 20
76.335634
 10
118.41232
 20
79.709899
  0
HATCH
  5
7A
100
AcDbEntity
  8
0
 62
   133
100
AcDbHatch
 10
0.0
 20
0.0
 30
0.0
210
0.0
220
0.0
230
1.0
  2
SOLID
 70
     1
 71
     1
 91
        1
 92
        3
 72
     0
 73
     1
 93
        4
 10
113.913299162654809
 20
60.2224981301663433
 10
128.5288501344333838
 20
56.8482323150085662
 10
133.02787122131042
 20
76.3356336107133302
 10
118.412320249531831
 20
79.7098994258711144
 97
        1
330
79
 75
     0
 76
     1
 98
        0
  0
LWPOLYLINE
  5
7B
102
{ACAD_REACTORS
330
7C
102
}
100
AcDbEntity
  8
0
  6
CONTINUOUS
 62
     7
100
AcDbPolyline
 90
        4
 70
     1
 10
163.855033
 20
56.701455
 10
178.470584
 20
60.075721
 10
173.971563
 20
79.563122
 10
159.356012
 20
76.188856
  0
HATCH
  5
7C
100
AcDbEntity
  8
0
 62
   133
100
AcDbHatch
 10
0.0
 20
0.0
 30
0.0
210
0.0
220
0.0
230
1.0
  2
SOLID
 70
     1
 71
     1
 91
        1
 92
        3
 72
     0
 73
     1
 93
        4
 10
163.8550333169702924
 20
56.7014551535870552
 10
178.4705842887488245
 20
60.0757209687450384
 10
173.9715632018715041
 20
79.5631222644497313
 10
159.356012230092972
 20
76.1888564492917624
 97
        1
330
7B
 75
     0
 76
     1
 98
        0
  0
LWPOLYLINE
  5
7D
102
{ACAD_REACTORS
330
7E
102
}
100
AcDbEntity
  8
0
  6
CONTINUOUS
 62
     7
100
AcDbPolyline
 90
        4
 70
     1
 10
129.173139
 20
91.032287
 10
130.373139
 20
91.032287
 10
130.373139
 20
113.632287
 10
129.173139
 20
113.632287
  0
HATCH
  5
7E
100
AcDbEntity
  8
0
 62
    13
100
AcDbHatch
 10
0.0
 20
0.0
 30
0.0
210
0.0
220
0.0
230
1.0
  2
SOLID
 70
     1
 71
     1
 91
        1
 92
        3
 72
     0
 73
     1
 93
        4
 10
129.1731391987233337
 20
91.0322869606275873
 10
130.3731391987233224
 20
91.0322869606275873
 10
130.3731391987233224
 20
113.6322867010221671
 10
129.1731391987233337
 20
113.6322867010221671
 97
        1
330
7D
 75
     0
 76
     1
 98
        0
  0
LWPOLYLINE
  5
7F
102
{ACAD_REACTORS
330
80
102
}
100
AcDbEntity
  8
0
  6
CONTINUOUS
 62
     7
100
AcDbPolyline
 90
        4
 70
     1
 10
110.311298
 20
52.942872
 10
111.470409
 20
52.632289
 10
118.642612
 20
79.399315
 10
117.483501
 20
79.709898
  0
HATCH
  5
80
100
AcDbEntity
  8
0
 62
    13
100
AcDbHatch
 10
0.0
 20
0.0
 30
0.0
210
0.0
220
0.0
230
1.0
  2
SOLID
 70
     1
 71
     1
 91
        1
 92
        3
 72
     0
 73
     1
 93
        4
 10
110.3112980975872688
 20
52.9428716898323231
 10
111.4704090891341508
 20
52.6322888357093177
 10
118.6426120545085752
 20
79.3993147046842864
 10
117.4835010629616932
 20
79.7098975588072989
 97
        1
330
7F
 75
     0
 76
     1
 98
        0
  0
LWPOLYLINE
  5
81
102
{ACAD_REACTORS
330
82
102
}
100
AcDbEntity
  8
0
  6
CONTINUOUS
 62
     7
100
AcDbPolyline
 90
        4
 70
     1
 10
130.373139
 20
91.05752
 10
129.524611
 20
91.906048
 10
117.511996
 20
79.893433
 10
118.360525
 20
79.044905
  0
HATCH
  5
82
100
AcDbEntity
  8
0
 62
    13
100
AcDbHatch
 10
0.0
 20
0.0
 30
0.0
210
0.0
220
0.0
230
1.0
  2
SOLID
 70
     1
 71
     1
 91
        1
 92
        3
 72
     0
 73
     1
 93
        4
 10
130.3731391987232655
 20
91.0575195864904572
 10
129.5246110612994244
 20
91.9060477239143125
 10
117.5119964653035822
 20
79.8934331279183709
 10
118.3605246027274518
 20
79.0449049904945156
 97
        1
330
81
 75
     0
 76
     1
 98
        0
  0
LWPOLYLINE
  5
83
102
{ACAD_REACTORS
330
84
102
}
100
AcDbEntity
  8
0
  6
CONTINUOUS
 62
     7
100
AcDbPolyline
 90
        4
 70
     1
 10
162.973141
 20
113.032289
 10
162.973141
 20
114.232289
 10
129.173139
 20
114.232289
 10
129.173139
 20
113.032289
  0
HATCH
  5
84
100
AcDbEntity
  8
0
 62
    13
100
AcDbHatch
 10
0.0
 20
0.0
 30
0.0
210
0.0
220
0.0
230
1.0
  2
SOLID
 70
     1
 71
     1
 91
        1
 92
        3
 72
     0
 73
     1
 93
        4
 10
162.9731407563555763
 20
113.032288836866357
 10
162.9731407563555763
 20
114.2322888368663598
 10
129.1731391987233053
 20
114.2322888368663598
 10
129.1731391987233053
 20
113.032288836866357
 97
        1
330
83
 75
     0
 76
     1
 98
        0
  0
LWPOLYLINE
  5
86
102
{ACAD_REACTORS
330
87
102
}
100
AcDbEntity
  8
0
  6
CONTINUOUS
 62
     7
100
AcDbPolyline
 90
        4
 70
     1
 10
162.94222
 20
91.132287
 10
161.74222
 20
91.132287
 10
161.74222
 20
113.732287
 10
162.94222
 20
113.732287
  0
HATCH
  5
87
102
{ACAD_REACTORS
330
85
102
}
100
AcDbEntity
  8
0
 62
    13
100
AcDbHatch
 10
0.0
 20
0.0
 30
0.0
210
0.0
220
0.0
230
1.0
  2
SOLID
 70
     1
 71
     1
 91
        1
 92
        3
 72
     0
 73
     1
 93
        4
 10
162.9422202057874642
 20
91.1322869606275958
 10
161.7422202057874472
 20
91.1322869606275958
 10
161.7422202057874472
 20
113.7322867010221898
 10
162.9422202057874642
 20
113.7322867010221898
 97
        1
330
86
 75
     0
 76
     1
 98
        0
  0
LWPOLYLINE
  5
88
102
{ACAD_REACTORS
330
89
102
}
100
AcDbEntity
  8
0
  6
CONTINUOUS
 62
     7
100
AcDbPolyline
 90
        4
 70
     1
 10
181.804061
 20
53.042872
 10
180.64495
 20
52.732289
 10
173.472747
 20
79.499315
 10
174.631858
 20
79.809898
  0
HATCH
  5
89
102
{ACAD_REACTORS
330
85
102
}
100
AcDbEntity
  8
0
 62
    13
100
AcDbHatch
 10
0.0
 20
0.0
 30
0.0
210
0.0
220
0.0
230
1.0
  2
SOLID
 70
     1
 71
     1
 91
        1
 92
        3
 72
     0
 73
     1
 93
        4
 10
181.8040613069235576
 20
53.0428716898323813
 10
180.6449503153766898
 20
52.732288835709376
 10
173.472747350002237
 20
79.4993147046843376
 10
174.6318583415491332
 20
79.80989755880735
 97
        1
330
88
 75
     0
 76
     1
 98
        0
  0
LWPOLYLINE
  5
8A
102
{ACAD_REACTORS
330
8B
102
}
100
AcDbEntity
  8
0
  6
CONTINUOUS
 62
     7
100
AcDbPolyline
 90
        4
 70
     1
 10
161.74222
 20
91.15752
 10
162.590748
 20
92.006048
 10
174.603363
 20
79.993433
 10
173.754835
 20
79.144905
  0
HATCH
  5
8B
102
{ACAD_REACTORS
330
85
102
}
100
AcDbEntity
  8
0
 62
    13
100
AcDbHatch
 10
0.0
 20
0.0
 30
0.0
210
0.0
220
0.0
230
1.0
  2
SOLID
 70
     1
 71
     1
 91
        1
 92
        3
 72
     0
 73
     1
 93
        4
 10
161.742220205787504
 20
91.1575195864905368
 10
162.5907483432113736
 20
92.0060477239143779
 10
174.6033629392071589
 20
79.9934331279184363
 10
173.7548348017832893
 20
79.1449049904945952
 97
        1
330
8A
 75
     0
 76
     1
 98
        0
  0
LWPOLYLINE
  5
8C
102
{ACAD_REACTORS
330
8D
102
}
100
AcDbEntity
  8
0
  6
CONTINUOUS
 62
     7
100
AcDbPolyline
 90
        4
 70
     1
 10
144.273141
 20
47.632293
 10
148.273141
 20
47.632293
 10
148.273141
 20
127.936803
 10
144.273141
 20
127.936803
  0
HATCH
  5
8D
100
AcDbEntity
  8
0
 62
   253
100
AcDbHatch
 10
0.0
 20
0.0
 30
0.0
210
0.0
220
0.0
230
1.0
  2
SOLID
 70
     1
 71
     1
 91
        1
 92
        3
 72
     0
 73
     1
 93
        4
 10
144.2731407563556161
 20
47.6322931776968801
 10
148.2731407563556161
 20
47.6322931776968801
 10
148.2731407563556161
 20
127.9368029000504663
 10
144.2731407563556161
 20
127.9368029000504663
 97
        1
330
8C
 75
     0
 76
     1
 98
        0
  0
LWPOLYLINE
  5
8E
102
{ACAD_REACTORS
330
90
102
}
100
AcDbEntity
  8
0
  6
CONTINUOUS
 62
     7
100
AcDbPolyline
 90
        4
 70
     1
 10
0.042333
 20
65.132294
 10
50.042333
 20
65.132294
 10
50.042333
 20
115.132294
 10
0.042333
 20
115.132294
  0
LWPOLYLINE
  5
8F
102
{ACAD_REACTORS
330
90
102
}
100
AcDbEntity
  8
0
  6
CONTINUOUS
 62
     7
100
AcDbPolyline
 90
        4
 70
     1
 10
128.657672
 20
28.03229
 10
128.657672
 20
29.23229
 10
106.057673
 20
29.23229
 10
106.057673
 20
28.03229
  0
HATCH
  5
90
100
AcDbEntity
  8
0
 62
    13
100
AcDbHatch
 10
0.0
 20
0.0
 30
0.0
210
0.0
220
0.0
230
1.0
  2
SOLID
 70
     1
 71
     1
 91
        1
 92
        3
 72
     0
 73
     1
 93
        4
 10
128.6576724867160522
 20
28.0322903953218763
 10
128.6576724867160522
 20
29.232290395321872
 10
106.0576727463214581
 20
29.232290395321872
 10
106.0576727463214581
 20
28.0322903953218763
 97
        2
330
8E
330
8F
 75
     0
 76
     1
 98
        0
  0
LWPOLYLINE
  5
91
102
{ACAD_REACTORS
330
92
102
}
100
AcDbEntity
  8
0
  6
CONTINUOUS
 62
     7
100
AcDbPolyline
 90
        4
 70
     1
 10
89.513308
 20
28.03229
 10
89.513308
 20
29.23229
 10
61.802044
 20
29.23229
 10
61.802044
 20
28.03229
  0
HATCH
  5
92
100
AcDbEntity
  8
0
 62
    13
100
AcDbHatch
 10
0.0
 20
0.0
 30
0.0
210
0.0
220
0.0
230
1.0
  2
SOLID
 70
     1
 71
     1
 91
        1
 92
        3
 72
     0
 73
     1
 93
        4
 10
89.5133081757484774
 20
28.0322903953218763
 10
89.5133081757484774
 20
29.232290395321872
 10
61.8020438731782704
 20
29.232290395321872
 10
61.8020438731782704
 20
28.0322903953218763
 97
        1
330
91
 75
     0
 76
     1
 98
        0
  0
LWPOLYLINE
  5
93
102
{ACAD_REACTORS
330
94
102
}
100
AcDbEntity
  8
0
  6
CONTINUOUS
 62
     7
100
AcDbPolyline
 90
        4
 70
     1
 10
106.257677
 20
28.03229
 10
106.257677
 20
29.23229
 10
89.269274
 20
29.23229
 10
89.269274
 20
28.03229
  0
HATCH
  5
94
100
AcDbEntity
  8
0
 62
    13
100
AcDbHatch
 10
0.0
 20
0.0
 30
0.0
210
0.0
220
0.0
230
1.0
  2
SOLID
 70
     1
 71
     1
 91
        1
 92
        3
 72
     0
 73
     1
 93
        4
 10
106.2576767984690918
 20
28.0322903953218763
 10
106.2576767984690918
 20
29.232290395321872
 10
89.2692743172507193
 20
29.232290395321872
 10
89.2692743172507193
 20
28.0322903953218763
 97
        1
330
93
 75
     0
 76
     1
 98
        0
  0
LWPOLYLINE
  5
95
102
{ACAD_REACTORS
330
96
102
}
100
AcDbEntity
  8
0
  6
CONTINUOUS
 62
     7
100
AcDbPolyline
 90
        4
 70
     1
 10
162.257678
 20
28.03229
 10
162.257678
 20
29.23229
 10
128.457677
 20
29.23229
 10
128.457677
 20
28.03229
  0
HATCH
  5
96
100
AcDbEntity
  8
0
 62
    13
100
AcDbHatch
 10
0.0
 20
0.0
 30
0.0
210
0.0
220
0.0
230
1.0
  2
SOLID
 70
     1
 71
     1
 91
        1
 92
        3
 72
     0
 73
     1
 93
        4
 10
162.257678288496578
 20
28.0322903953218763
 10
162.257678288496578
 20
29.232290395321872
 10
128.457676730864307
 20
29.232290395321872
 10
128.457676730864307
 20
28.0322903953218763
 97
        1
330
95
 75
     0
 76
     1
 98
        0
  0
LWPOLYLINE
  5
97
102
{ACAD_REACTORS
330
98
102
}
100
AcDbEntity
  8
0
  6
CONTINUOUS
 62
     7
100
AcDbPolyline
 90
        4
 70
     1
 10
162.057678
 20
29.232292
 10
162.057678
 20
28.032292
 10
184.657678
 20
28.032292
 10
184.657678
 20
29.232292
  0
HATCH
  5
98
100
AcDbEntity
  8
0
 62
    13
100
AcDbHatch
 10
0.0
 20
0.0
 30
0.0
210
0.0
220
0.0
230
1.0
  2
SOLID
 70
     1
 71
     1
 91
        1
 92
        3
 72
     0
 73
     1
 93
        4
 10
162.0576782098913213
 20
29.232291733390646
 10
162.0576782098913213
 20
28.0322917333906467
 10
184.6576779502859154
 20
28.0322917333906467
 10
184.6576779502859154
 20
29.232291733390646
 97
        1
330
97
 75
     0
 76
     1
 98
        0
  0
LWPOLYLINE
  5
99
102
{ACAD_REACTORS
330
9A
102
}
100
AcDbEntity
  8
0
  6
CONTINUOUS
 62
     7
100
AcDbPolyline
 90
        4
 70
     1
 10
201.202043
 20
29.232292
 10
201.202043
 20
28.032292
 10
228.913307
 20
28.032292
 10
228.913307
 20
29.232292
  0
HATCH
  5
9A
100
AcDbEntity
  8
0
 62
    13
100
AcDbHatch
 10
0.0
 20
0.0
 30
0.0
210
0.0
220
0.0
230
1.0
  2
SOLID
 70
     1
 71
     1
 91
        1
 92
        3
 72
     0
 73
     1
 93
        4
 10
201.2020425208589529
 20
29.2322917333909267
 10
201.2020425208589529
 20
28.0322917333909274
 10
228.913306823429167
 20
28.0322917333909274
 10
228.913306823429167
 20
29.2322917333909267
 97
        1
330
99
 75
     0
 76
     1
 98
        0
  0
LWPOLYLINE
  5
9B
102
{ACAD_REACTORS
330
9C
102
}
100
AcDbEntity
  8
0
  6
CONTINUOUS
 62
     7
100
AcDbPolyline
 90
        4
 70
     1
 10
184.457674
 20
29.232292
 10
184.457674
 20
28.032292
 10
201.446076
 20
28.032292
 10
201.446076
 20
29.232292
  0
HATCH
  5
9C
100
AcDbEntity
  8
0
 62
    13
100
AcDbHatch
 10
0.0
 20
0.0
 30
0.0
210
0.0
220
0.0
230
1.0
  2
SOLID
 70
     1
 71
     1
 91
        1
 92
        3
 72
     0
 73
     1
 93
        4
 10
184.457673898138296
 20
29.2322917333907455
 10
184.457673898138296
 20
28.0322917333907498
 10
201.44607637935664
 20
28.0322917333907498
 10
201.44607637935664
 20
29.2322917333907455
 97
        1
330
9B
 75
     0
 76
     1
 98
        0
  0
LWPOLYLINE
  5
9D
100
AcDbEntity
  8
0
  6
CONTINUOUS
 62
     7
100
AcDbPolyline
 90
        4
 70
     1
 10
61.802044
 20
29.532288
 10
228.913307
 20
29.532288
 10
228.913307
 20
30.732288
 10
61.802044
 20
30.732288
  0
LWPOLYLINE
  5
9E
100
AcDbEntity
  8
0
  6
CONTINUOUS
 62
     7
100
AcDbPolyline
 90
        4
 70
     1
 10
139.357678
 20
28.03229
 10
151.357678
 20
28.03229
 10
151.357678
 20
29.23229
 10
139.357678
 20
29.23229
  0
LWPOLYLINE
  5
9F
100
AcDbEntity
  8
0
  6
CONTINUOUS
 62
     7
100
AcDbPolyline
 90
        4
 70
     1
 10
61.802046
 20
0.132292
 10
228.913309
 20
0.132292
 10
228.913309
 20
20.132292
 10
61.802046
 20
20.132292
  0
LINE
  5
A0
100
AcDbEntity
  8
0
  6
CONTINUOUS
 62
     7
100
AcDbLine
 10
115.056511
 20
66.015802
 30
0.0
 11
111.470409
 21
52.632289
 31
0.0
  0
LINE
  5
A1
100
AcDbEntity
  8
0
  6
CONTINUOUS
 62
     7
100
AcDbLine
 10
89.269274
 20
20.132291
 30
0.0
 11
89.269274
 21
0.132292
 31
0.0
  0
LINE
  5
A2
100
AcDbEntity
  8
0
  6
CONTINUOUS
 62
     7
100
AcDbLine
 10
106.057672
 20
20.132291
 30
0.0
 11
106.057672
 21
0.132292
 31
0.0
  0
LINE
  5
A3
100
AcDbEntity
  8
0
  6
CONTINUOUS
 62
     7
100
AcDbLine
 10
128.457677
 20
20.132291
 30
0.0
 11
128.457677
 21
0.132292
 31
0.0
  0
LINE
  5
A4
100
AcDbEntity
  8
0
  6
CONTINUOUS
 62
     7
100
AcDbLine
 10
162.057678
 20
20.132291
 30
0.0
 11
162.057678
 21
0.132292
 31
0.0
  0
LINE
  5
A5
100
AcDbEntity
  8
0
  6
CONTINUOUS
 62
     7
100
AcDbLine
 10
184.657678
 20
20.132291
 30
0.0
 11
184.657678
 21
0.132292
 31
0.0
  0
LINE
  5
A6
100
AcDbEntity
  8
0
  6
CONTINUOUS
 62
     7
100
AcDbLine
 10
201.446076
 20
20.132291
 30
0.0
 11
201.446076
 21
0.132292
 31
0.0
  0
LINE
  5
A7
100
AcDbEntity
  8
0
  6
CONTINUOUS
 62
     7
100
AcDbLine
 10
145.357678
 20
20.132292
 30
0.0
 11
145.357678
 21
0.132292
 31
0.0
  0
LWPOLYLINE
  5
A8
100
AcDbEntity
  8
0
  6
CONTINUOUS
 62
     7
100
AcDbPolyline
 90
        2
 70
     1
 10
139.357678
 20
10.13229
 42
-1.0
 10
151.357678
 20
10.13229
 42
-1.0
  0
LINE
  5
A9
100
AcDbEntity
  8
0
  6
CONTINUOUS
 62
     7
100
AcDbLine
 10
118.063057
 20
79.554606
 30
0.0
 11
174.179099
 21
79.569169
 31
0.0
  0
LINE
  5
AA
100
AcDbEntity
  8
0
  6
CONTINUOUS
 62
     7
100
AcDbLine
 10
201.446076
 20
10.132292
 30
0.0
 11
211.446076
 21
10.132292
 31
0.0
  0
LINE
  5
AB
100
AcDbEntity
  8
0
  6
CONTINUOUS
 62
     7
100
AcDbLine
 10
89.269274
 20
10.132292
 30
0.0
 11
79.269274
 21
10.132292
 31
0.0
  0
LINE
  5
AC
100
AcDbEntity
  8
0
  6
CONTINUOUS
 62
     7
100
AcDbLine
 10
79.413299
 20
20.132291
 30
0.0
 11
79.413299
 21
15.132291
 31
0.0
  0
LINE
  5
AD
100
AcDbEntity
  8
0
  6
CONTINUOUS
 62
     7
100
AcDbLine
 10
211.413307
 20
20.132291
 30
0.0
 11
211.413307
 21
15.132292
 31
0.0
  0
ELLIPSE
  5
AE
100
AcDbEntity
  8
0
  6
CONTINUOUS
 62
     7
100
AcDbEllipse
 10
79.363299
 20
15.132289
 30
0.0
 11
1.5500000420517783
 21
0.0
 31
0.0
210
0.0
220
0.0
230
1.0
 40
0.967742
 41
0.0
 42
6.2831853071796004
  0
ELLIPSE
  5
AF
100
AcDbEntity
  8
0
  6
CONTINUOUS
 62
     7
100
AcDbEllipse
 10
211.463296
 20
15.132288
 30
0.0
 11
1.5500000420517783
 21
0.0
 31
0.0
210
0.0
220
0.0
230
1.0
 40
0.967742
 41
0.0
 42
6.2831853071796004
  0
LINE
  5
B0
100
AcDbEntity
  8
0
  6
CONTINUOUS
 62
     7
100
AcDbLine
 10
89.269274
 20
10.132292
 30
0.0
 11
201.446076
 21
10.132292
 31
0.0
  0
LINE
  5
B1
100
AcDbEntity
  8
0
  6
CONTINUOUS
 62
     7
100
AcDbLine
 10
145.357678
 20
20.132292
 30
0.0
 11
145.357678
 21
0.132292
 31
0.0
  0
LINE
  5
B2
100
AcDbEntity
  8
0
  6
CONTINUOUS
 62
     7
100
AcDbLine
 10
79.269274
 20
10.132292
 30
0.0
 11
79.413299
 21
20.132291
 31
0.0
  0
LINE
  5
B3
100
AcDbEntity
  8
0
  6
CONTINUOUS
 62
     7
100
AcDbLine
 10
211.446076
 20
10.132292
 30
0.0
 11
211.413307
 21
20.132291
 31
0.0
  0
ENDSEC
  0
SECTION
  2
OBJECTS
  0
DICTIONARY
  5
C
100
AcDbDictionary
  3
ACAD_GROUP
350
D
  3
ACAD_MLINESTYLE
350
1B
  3
ACAD_SCALELIST
350
2C
  3
ACAD_VISUALSTYLE
350
51
  3
ACAD_MATERIAL
350
6A
  3
ACAD_TABLESTYLE
350
6E
  3
ACAD_MLEADERSTYLE
350
70
  0
DICTIONARY
  5
D
102
{ACAD_REACTORS
330
C
102
}
100
AcDbDictionary
  3
VISIOGROUP_0
350
85
  0
DICTIONARY
  5
1B
102
{ACAD_REACTORS
330
C
102
}
100
AcDbDictionary
  3
STANDARD
350
1C
  0
MLINESTYLE
  5
1C
102
{ACAD_REACTORS
330
1B
102
}
100
AcDbMlineStyle
  2
STANDARD
 70
     0
  3

 62
   256
 51
90.0
 52
90.0
 71
     2
 49
0.5
 62
   256
  6
BYLAYER
 49
-0.5
 62
   256
  6
BYLAYER
  0
DICTIONARY
  5
29
102
{ACAD_REACTORS
330
C
102
}
100
AcDbDictionary
  0
DICTIONARY
  5
2C
102
{ACAD_REACTORS
330
C
102
}
100
AcDbDictionary
  3
A0
350
2D
  3
A1
350
2E
  3
A2
350
2F
  3
A3
350
30
  3
A4
350
31
  3
A5
350
32
  3
A6
350
33
  3
A7
350
34
  3
A8
350
35
  3
A9
350
36
  3
B0
350
37
  3
B1
350
38
  3
B2
350
39
  3
B3
350
3A
  3
B4
350
3B
  3
B5
350
3C
  3
B6
350
3D
  3
B7
350
3E
  3
B8
350
3F
  3
B9
350
40
  3
C0
350
41
  3
C1
350
42
  3
C2
350
43
  3
C3
350
44
  3
C4
350
45
  3
C5
350
46
  3
C6
350
47
  3
C7
350
48
  3
C8
350
49
  3
C9
350
4A
  3
D0
350
4B
  3
D1
350
4C
  3
D2
350
4D
  0
DICTIONARY
  5
4E
102
{ACAD_REACTORS
330
C
102
}
100
AcDbDictionary
  3
MODEL
350
4F
  3
LAYOUT1
350
50
  0
DICTIONARY
  5
51
102
{ACAD_REACTORS
330
C
102
}
100
AcDbDictionary
  3
FLAT
350
52
  3
FLATWITHEDGES
350
53
  3
GOURAUD
350
54
  3
GOURAUDWITHEDGES
350
55
  3
2DWIREFRAME
350
56
  3
WIREFRAME
350
57
  3
HIDDEN
350
58
  3
BASIC
350
59
  3
REALISTIC
350
5A
  3
CONCEPTUAL
350
5B
  3
DIM
350
5C
  3
BRIGHTEN
350
5D
  3
THICKEN
350
5E
  3
LINEPATTERN
350
5F
  3
FACEPATTERN
350
60
  3
COLORCHANGE
350
61
  3
JITTEROFF
350
62
  3
OVERHANGOFF
350
63
  3
EDGECOLOROFF
350
64
  3
SHADES OF GRAY
350
65
  3
SKETCHY
350
66
  3
X-RAY
350
67
  3
SHADED WITH EDGES
350
68
  3
SHADED
350
69
  0
DICTIONARY
  5
6A
102
{ACAD_REACTORS
330
C
102
}
100
AcDbDictionary
  3
BYLAYER
350
6B
  3
BYBLOCK
350
6C
  3
GLOBAL
350
6D
  0
DICTIONARY
  5
6E
102
{ACAD_REACTORS
330
C
102
}
100
AcDbDictionary
  3
STANDARD
350
6F
  0
DICTIONARY
  5
70
102
{ACAD_REACTORS
330
C
102
}
100
AcDbDictionary
  3
STANDARD
350
71
  0
GROUP
  5
85
102
{ACAD_REACTORS
330
D
102
}
100
AcDbGroup
300
Group created by Visio.
 70
     0
 71
     1
340
86
340
87
340
88
340
89
340
8A
340
8B
  0
ENDSEC
  0
EOF
